<svg width="49" height="47" viewBox="0 0 49 47" fill="none" xmlns="http://www.w3.org/2000/svg">
<path d="M29.49 2.7393C29.5642 2.80036 29.6383 2.86141 29.7147 2.92432C30.3212 3.4386 30.3212 3.4386 30.5368 3.80856C30.7504 4.16194 30.9019 4.36385 31.2478 4.59477C31.9296 4.71254 32.6344 4.63453 33.3216 4.60121C34.7581 4.56696 36.1851 5.39845 37.2049 6.35258C38.4744 7.62883 38.4744 7.62883 38.4744 8.20805C38.6181 8.2207 38.6181 8.2207 38.7647 8.23361C40.8525 8.44075 42.6741 9.24109 44.0435 10.8875C44.2192 11.1275 44.3767 11.3706 44.5291 11.626C44.5812 11.713 44.6333 11.8 44.687 11.8896C45.5755 13.5096 45.7484 15.3844 45.3069 17.1665C44.7547 19.0354 43.603 20.5403 41.8924 21.4893C40.8194 22.0558 39.7563 22.3173 38.5451 22.3038C38.442 22.3039 38.339 22.3039 38.2328 22.3039C37.8968 22.3037 37.5608 22.3015 37.2247 22.2992C36.9899 22.2986 36.7551 22.2982 36.5204 22.2979C35.9058 22.2968 35.2912 22.2939 34.6767 22.2907C34.0482 22.2877 33.4197 22.2863 32.7913 22.2849C31.5606 22.2817 30.33 22.2768 29.0994 22.2706C29.2339 21.9145 29.3939 21.6242 29.6145 21.3129C30.9966 19.3611 31.8838 17.1482 31.4798 14.7312C31.1671 13.1845 30.4242 11.9283 29.2947 10.8448C29.2344 10.7849 29.1741 10.7249 29.112 10.6632C27.7752 9.41934 25.9654 9.01446 24.1991 9.05682C22.417 9.1418 20.8163 10.0216 19.5878 11.28C18.7006 12.2899 18.0993 13.5242 17.8689 14.8487C17.8564 14.9196 17.8438 14.9904 17.8308 15.0634C17.8028 15.2512 17.7868 15.4407 17.7713 15.6299C17.7661 15.692 17.761 15.7541 17.7556 15.818C17.657 18.0964 18.9265 20.1492 20.1669 21.9551C20.3103 22.1729 20.3103 22.1729 20.3103 22.2706C18.8918 22.2774 17.4732 22.2826 16.0546 22.2857C15.3959 22.2872 14.7371 22.2893 14.0783 22.2927C13.442 22.2959 12.8056 22.2976 12.1692 22.2984C11.9271 22.2989 11.6849 22.2999 11.4428 22.3015C11.1022 22.3037 10.7618 22.3039 10.4212 22.3038C10.3222 22.3049 10.2233 22.3059 10.1213 22.307C9.12826 22.3028 8.19794 22.0817 7.31596 21.6236C7.25006 21.5898 7.18416 21.5561 7.11626 21.5213C5.30743 20.5612 4.14917 18.9807 3.55822 17.0551C3.01982 15.1866 3.35251 13.2482 4.19707 11.5284C5.21524 9.81355 6.85352 8.54913 8.78081 8.03715C9.64895 7.85112 10.539 7.843 11.4236 7.81743C11.4581 7.73798 11.4581 7.73798 11.4932 7.65693C12.9132 4.41704 14.9442 2.04504 18.2596 0.688522C22.1008 -0.737288 26.3964 0.101659 29.49 2.7393ZM24.4119 3.81352C24.1937 4.14079 24.1933 4.24495 24.1975 4.62643C24.1982 4.72683 24.1988 4.82722 24.1994 4.93066C24.2011 5.03533 24.2027 5.14 24.2044 5.24785C24.2053 5.35365 24.2062 5.45946 24.2071 5.56847C24.2094 5.82987 24.2126 6.09121 24.2166 6.35258C24.1219 6.36102 24.0273 6.36945 23.9297 6.37814C22.6496 6.5069 21.5117 6.87333 20.3103 7.32915C20.2774 7.26998 20.2445 7.21082 20.2105 7.14986C20.0605 6.88299 19.9078 6.61781 19.7549 6.35258C19.7031 6.25943 19.6513 6.16628 19.598 6.0703C19.5467 5.98218 19.4954 5.89406 19.4425 5.80327C19.396 5.72144 19.3494 5.63962 19.3015 5.55531C19.1499 5.3509 19.1499 5.3509 18.8875 5.33711C18.6331 5.35513 18.6331 5.35513 18.4549 5.57133C18.4711 6.16244 18.689 6.53519 19.0042 7.01176C19.1575 7.24491 19.2963 7.47479 19.4314 7.71977C19.3223 8.04719 19.2704 8.08171 18.9981 8.26909C18.0611 8.95179 17.3582 9.70562 16.6971 10.6495C16.5199 10.5622 16.343 10.4747 16.1661 10.387C16.0061 10.3079 16.0061 10.3079 15.843 10.2272C15.4961 10.0485 15.1646 9.85178 14.8355 9.64238C14.6426 9.55236 14.6426 9.55236 14.4311 9.64467C14.2294 9.76185 14.2294 9.76185 14.1824 10.0269C14.1744 10.1034 14.1663 10.18 14.158 10.2588C14.5333 10.5763 14.9221 10.8241 15.3482 11.0645C15.4096 11.1 15.4709 11.1355 15.5342 11.1721C15.8513 11.3666 15.8513 11.3666 16.2088 11.4307C16.171 11.5195 16.1333 11.6082 16.0943 11.6996C15.5986 12.8868 15.2408 14.0475 15.1346 15.337C15.0348 15.3399 15.0348 15.3399 14.933 15.3428C14.6319 15.3521 14.3309 15.3628 14.0298 15.3736C13.9252 15.3766 13.8205 15.3796 13.7126 15.3827C13.6122 15.3865 13.5119 15.3903 13.4084 15.3942C13.3159 15.3972 13.2233 15.4003 13.1279 15.4035C12.8638 15.4199 12.8638 15.4199 12.5955 15.6299C12.5548 15.8741 12.5548 15.8741 12.5955 16.1182C12.7731 16.3373 12.7731 16.3373 13.0281 16.3357C13.1253 16.3347 13.2225 16.3337 13.3226 16.3326C13.4277 16.332 13.5328 16.3313 13.6411 16.3307C13.7513 16.3291 13.8614 16.3274 13.9749 16.3257C14.0858 16.3248 14.1967 16.324 14.311 16.3231C14.5855 16.3208 14.86 16.3175 15.1346 16.3135C15.143 16.4082 15.1514 16.5029 15.1601 16.6004C15.2335 17.3304 15.3475 18.0233 15.5679 18.7244C15.588 18.7887 15.608 18.8529 15.6286 18.9192C15.7493 19.2848 15.8846 19.6141 16.1111 19.9268C16.3595 19.9838 16.3595 19.9838 16.5994 19.9268C16.6639 19.8624 16.7283 19.7979 16.7947 19.7315C16.7693 19.1588 16.5749 18.6311 16.398 18.0893C15.7554 15.9071 16.2213 13.4843 17.2725 11.5225C18.3932 9.55968 20.2664 8.21399 22.4233 7.60037C24.7267 7.06799 27.049 7.34529 29.1086 8.51781C29.5212 8.77737 29.8994 9.06551 30.2713 9.37993C30.3652 9.45433 30.4591 9.52872 30.5559 9.60538C32.0852 10.884 33.0226 12.9931 33.201 14.9463C33.301 16.4924 33.1623 18.0178 32.4914 19.4343C32.4038 19.678 32.3942 19.865 32.4197 20.1221C32.4842 20.1866 32.5486 20.251 32.615 20.3174C32.8952 20.3031 33.0491 20.2759 33.2468 20.0714C33.4573 19.7304 33.5724 19.373 33.6954 18.993C33.7339 18.8752 33.7339 18.8752 33.7732 18.755C34.038 17.9267 34.1775 17.1866 34.1775 16.3135C34.9832 16.3135 35.7889 16.3135 36.6189 16.3135C36.6834 16.1524 36.7478 15.9913 36.8143 15.8252C36.7272 15.5898 36.7272 15.5898 36.5213 15.4346C36.2669 15.3808 36.2669 15.3808 35.98 15.3965C35.8752 15.3977 35.7704 15.399 35.6624 15.4003C35.5531 15.4036 35.4437 15.4068 35.3311 15.4102C35.2206 15.412 35.1102 15.4137 34.9964 15.4155C34.7233 15.4202 34.4505 15.4266 34.1775 15.4346C34.1741 15.3522 34.1706 15.2698 34.167 15.185C34.1041 13.8575 33.7027 12.6501 33.201 11.4307C33.2671 11.4065 33.3332 11.3824 33.4012 11.3575C33.7462 11.2112 34.0672 11.0317 34.3912 10.8448C34.4525 10.81 34.5139 10.7753 34.5771 10.7395C34.8286 10.5953 35.0458 10.4648 35.2518 10.2588C35.2509 10.0101 35.2509 10.0101 35.1541 9.77055C34.9882 9.62979 34.9882 9.62979 34.7635 9.57524C34.5108 9.65655 34.5108 9.65655 34.2554 9.81252C34.1597 9.86602 34.064 9.91952 33.9654 9.97464C33.8166 10.0609 33.8166 10.0609 33.6648 10.149C33.5641 10.2057 33.4634 10.2625 33.3597 10.321C33.1106 10.4617 32.8625 10.6037 32.615 10.7471C32.5735 10.6347 32.5735 10.6347 32.5311 10.52C32.3897 10.1883 32.1761 9.95566 31.9314 9.69731C31.8604 9.62113 31.8604 9.62113 31.788 9.54341C31.2293 8.95188 30.6358 8.39581 29.9783 7.91508C30.1338 7.37615 30.3971 6.93105 30.6953 6.46226C30.8636 6.18342 30.9583 6.0113 30.9354 5.68158C30.8753 5.47831 30.8753 5.47831 30.7596 5.37602C30.5234 5.33681 30.5234 5.33681 30.2713 5.37602C30.1048 5.52919 30.1048 5.52919 29.9844 5.74834C29.936 5.82739 29.8875 5.90645 29.8376 5.9879C29.5847 6.43148 29.3375 6.87746 29.0994 7.32915C28.7742 7.22261 28.4513 7.11163 28.1301 6.99345C27.1194 6.6295 26.1662 6.43119 25.0955 6.35258C25.097 6.24762 25.097 6.24762 25.0986 6.14054C25.1027 5.82467 25.1052 5.5088 25.1077 5.19292C25.1102 5.02769 25.1102 5.02769 25.1127 4.85913C25.1136 4.70146 25.1136 4.70146 25.1146 4.5406C25.1161 4.39485 25.1161 4.39485 25.1177 4.24616C25.1193 3.99109 25.1193 3.99109 24.9002 3.81352C24.6561 3.77283 24.6561 3.77283 24.4119 3.81352Z" fill="url(#paint0_linear_4538_357)"/>
<path d="M48.334 32.5082C48.6819 32.7633 48.8404 33.0712 48.9165 33.4829C48.9315 34.0787 48.6813 34.5598 48.2977 35.0028C47.9797 35.3222 47.6129 35.5794 47.2495 35.8442C47.1633 35.9079 47.077 35.9717 46.9882 36.0374C46.7218 36.2341 46.4547 36.4299 46.1875 36.6254C45.9555 36.7958 45.7236 36.9663 45.4917 37.1368C45.3403 37.2482 45.1887 37.3595 45.0372 37.4707C44.453 37.9004 43.8761 38.3389 43.3005 38.78C42.5828 39.3299 41.8581 39.8683 41.1214 40.3927C41.0225 40.4632 41.0225 40.4632 40.9217 40.5351C40.8294 40.6008 40.8294 40.6008 40.7353 40.6677C40.5959 40.771 40.4593 40.8782 40.3262 40.9893C39.8056 41.4219 39.3211 41.6729 38.6805 41.8817C38.5884 41.9132 38.4964 41.9447 38.4015 41.9772C38.1 42.0799 37.7977 42.18 37.4953 42.2799C37.2833 42.3511 37.0713 42.4224 36.8594 42.4938C36.416 42.6426 35.9722 42.7901 35.5281 42.9367C34.9621 43.1237 34.3974 43.3142 33.833 43.5058C33.3956 43.6537 32.9576 43.7995 32.5194 43.9448C32.3111 44.0142 32.1029 44.0842 31.895 44.155C30.7347 44.5486 29.7469 44.8462 28.5117 44.7309C28.3779 44.721 28.244 44.7112 28.1101 44.7017C27.7454 44.674 27.3816 44.6402 27.0176 44.6043C26.776 44.5806 26.5342 44.5578 26.2925 44.5354C25.606 44.4714 24.9197 44.4061 24.2336 44.3394C23.8103 44.2983 23.3868 44.2586 22.9633 44.2197C22.8057 44.2049 22.6481 44.1897 22.4906 44.1739C20.9393 44.0183 19.4415 44.0473 17.8672 44.0473C17.8672 41.3403 17.8672 38.6332 17.8672 35.8442C22.812 33.2263 22.812 33.2263 25.1176 33.8954C26.4457 34.2728 27.8206 34.3122 29.1914 34.3631C34.182 34.5535 34.182 34.5535 35.25 35.6489C35.4758 35.967 35.4915 36.2409 35.4453 36.6254C35.2259 37.1025 34.9597 37.3291 34.4812 37.5105C34.1057 37.623 33.7329 37.6892 33.3461 37.7496C33.2653 37.7623 33.1845 37.7749 33.1013 37.7879C32.1451 37.9304 31.1848 37.9929 30.2207 38.0536C29.9522 38.0714 29.6837 38.0893 29.4152 38.1073C29.2447 38.1186 29.0742 38.1299 28.9037 38.1411C28.3164 38.18 27.7302 38.2264 27.1445 38.2856C27.1929 38.624 27.1929 38.624 27.2422 38.9692C28.2385 38.9907 29.2231 38.9335 30.2162 38.8601C30.4745 38.8412 30.7329 38.8236 30.9913 38.8061C31.8426 38.7458 32.686 38.6636 33.5296 38.5328C33.6047 38.5212 33.6798 38.5097 33.7571 38.4978C34.5784 38.3627 35.3244 38.1966 35.8329 37.5046C36.1928 37.0893 36.4764 37.009 37.0133 36.956C37.1622 36.9461 37.1622 36.9461 37.3141 36.9359C37.53 36.9137 37.7458 36.8913 37.9617 36.8688C38.2974 36.8379 38.6332 36.8089 38.9694 36.7824C40.6192 36.6456 41.6769 36.2832 42.9594 35.2262C43.229 35.0069 43.51 34.8135 43.7976 34.6185C43.8862 34.5568 43.9749 34.4952 44.0662 34.4316C44.4304 34.1786 44.7946 33.9255 45.1589 33.6725C45.3784 33.5198 45.5977 33.3666 45.8167 33.2132C45.8755 33.1721 45.9343 33.1311 45.9949 33.0887C46.143 32.9853 46.2909 32.8816 46.4389 32.7779C47.015 32.3976 47.6637 32.224 48.334 32.5082Z" fill="url(#paint1_linear_4538_357)"/>
<path d="M0 34.5781C3.38745 34.804 3.38745 34.804 4.776 34.9173C4.93243 34.9299 5.08886 34.9425 5.24529 34.9551C5.56555 34.981 5.8858 35.007 6.20604 35.0331C6.61508 35.0665 7.02415 35.0995 7.43324 35.1323C7.75295 35.158 8.07264 35.1839 8.39233 35.21C8.54338 35.2222 8.69445 35.2344 8.84552 35.2465C9.05465 35.2633 9.26375 35.2804 9.47285 35.2976C9.59109 35.3072 9.70933 35.3168 9.83115 35.3267C10.1364 35.3574 10.4396 35.4066 10.7422 35.457C10.7422 38.6475 10.7422 41.8379 10.7422 45.125C8.83433 45.3495 8.83433 45.3495 8.13346 45.4052C8.0524 45.4119 7.97134 45.4186 7.88783 45.4255C7.6275 45.447 7.36714 45.468 7.10678 45.4889C6.92249 45.504 6.73821 45.519 6.55393 45.5341C6.17135 45.5653 5.78875 45.5963 5.40614 45.6271C4.91699 45.6666 4.42788 45.7065 3.93878 45.7466C3.55979 45.7777 3.18077 45.8084 2.80174 45.8391C2.62132 45.8538 2.4409 45.8685 2.26048 45.8833C2.00894 45.9039 1.75738 45.9241 1.5058 45.9443C1.39561 45.9534 1.39561 45.9534 1.28318 45.9627C1.17937 45.9709 1.17937 45.9709 1.07346 45.9793C1.01432 45.9841 0.955172 45.9888 0.894233 45.9938C0.59648 46.0081 0.298097 46.0039 0 46.0039C0 42.2334 0 38.4629 0 34.5781Z" fill="url(#paint2_linear_4538_357)"/>
<path d="M28.1995 10.9283C29.591 11.9982 30.532 13.4778 30.7653 15.2362C30.8642 17.0034 30.4297 18.3811 29.5934 19.9237C29.5115 20.0783 29.5115 20.0783 29.428 20.236C29.2487 20.5663 29.0597 20.8889 28.8671 21.2115C28.8108 21.3161 28.7545 21.4206 28.6965 21.5283C28.5135 21.82 28.5135 21.82 28.0309 22.2674C27.4508 22.2674 26.8707 22.2674 26.2731 22.2674C26.2731 20.9462 26.2731 19.6249 26.2731 18.2635C26.7243 18.2313 27.1754 18.1991 27.6403 18.1659C28.0782 18.0407 28.0782 18.0407 28.4215 17.8729C28.4981 17.8427 28.5746 17.8125 28.6535 17.7814C28.8633 17.6442 28.9149 17.5184 29.0075 17.287C29.0571 17.1771 29.0571 17.1771 29.1078 17.065C29.2971 16.5344 29.3135 15.9209 29.1139 15.3907C28.8307 14.9053 28.4731 14.5928 27.9455 14.3817C27.1605 14.2894 26.6433 14.3948 25.9801 14.8456C25.5177 15.3311 25.4711 15.883 25.4369 16.524C25.4306 16.6338 25.4306 16.6338 25.4241 16.7459C25.4138 16.9262 25.4039 17.1066 25.3942 17.287C24.943 17.287 24.4918 17.287 24.027 17.287C24.0119 16.9728 24.0119 16.9728 23.9965 16.6522C23.9402 15.9076 23.8837 15.3332 23.3068 14.809C22.7587 14.3887 22.2712 14.2679 21.5856 14.3573C21.0285 14.5173 20.6519 14.8308 20.3294 15.3079C20.0859 15.7932 20.0568 16.247 20.1864 16.7712C20.4251 17.4367 20.6989 17.7253 21.3353 18.0377C21.9234 18.2235 21.9234 18.2235 23.1481 18.2635C23.1481 19.5848 23.1481 20.9061 23.1481 22.2674C21.3903 22.2674 21.3903 22.2674 20.9966 21.9661C20.8686 21.7665 20.8686 21.7665 20.7555 21.5472C20.7106 21.4728 20.6656 21.3984 20.6193 21.3217C20.4794 21.0866 20.3492 20.8475 20.2184 20.6073C20.1286 20.4557 20.0382 20.3045 19.9472 20.1537C18.8909 18.3712 18.2988 16.496 18.7597 14.4122C19.3091 12.6323 20.4086 11.3121 22.0434 10.4327C24.0491 9.4763 26.3728 9.66421 28.1995 10.9283Z" fill="url(#paint3_linear_4538_357)"/>
<path d="M12.3848 33.7675C12.5304 33.7666 12.5304 33.7666 12.6791 33.7656C12.7842 33.766 12.8894 33.7664 12.9978 33.7668C13.1054 33.7666 13.2131 33.7664 13.324 33.7663C13.5519 33.7661 13.7798 33.7665 14.0076 33.7673C14.3574 33.7683 14.7072 33.7673 15.057 33.7661C15.278 33.7662 15.499 33.7664 15.72 33.7668C15.8777 33.7662 15.8777 33.7662 16.0387 33.7656C16.1358 33.7662 16.2329 33.7669 16.333 33.7675C16.4187 33.7676 16.5044 33.7678 16.5927 33.768C16.8003 33.7928 16.8003 33.7928 16.9956 33.9881C17.0204 34.205 17.0204 34.205 17.0211 34.4804C17.0217 34.5846 17.0224 34.6888 17.0232 34.7962C17.0229 34.911 17.0227 35.0258 17.0224 35.1441C17.0229 35.2646 17.0234 35.3851 17.0239 35.5093C17.0251 35.8404 17.0253 36.1715 17.025 36.5026C17.0249 36.7788 17.0254 37.055 17.0259 37.3312C17.027 37.9826 17.027 38.6341 17.0264 39.2856C17.0258 39.9581 17.027 40.6307 17.0291 41.3032C17.0308 41.8802 17.0314 42.4572 17.0311 43.0342C17.0309 43.379 17.0312 43.7237 17.0325 44.0686C17.034 44.453 17.0331 44.8373 17.032 45.2218C17.0331 45.3937 17.0331 45.3937 17.0342 45.5691C17.0335 45.6735 17.0328 45.778 17.0321 45.8857C17.0322 45.9766 17.0322 46.0675 17.0322 46.1612C16.9887 46.4337 16.9217 46.5205 16.7026 46.6834C16.487 46.7199 16.487 46.7199 16.2332 46.7197C16.1381 46.7204 16.0429 46.721 15.9449 46.7216C15.7911 46.7202 15.7911 46.7202 15.6341 46.7189C15.5288 46.7189 15.4235 46.719 15.3149 46.719C15.0922 46.7188 14.8695 46.7178 14.6468 46.7162C14.305 46.7139 13.9632 46.7142 13.6213 46.7149C13.4052 46.7143 13.1891 46.7136 12.973 46.7128C12.8703 46.7129 12.7675 46.7129 12.6617 46.713C12.5668 46.7121 12.472 46.7112 12.3743 46.7102C12.2906 46.7098 12.2069 46.7093 12.1206 46.7088C11.9175 46.6834 11.9175 46.6834 11.7222 46.4881C11.6976 46.2694 11.6976 46.2694 11.6974 45.9914C11.6965 45.8336 11.6965 45.8336 11.6957 45.6727C11.6961 45.5568 11.6965 45.4409 11.6969 45.3215C11.6965 45.1999 11.6962 45.0783 11.6958 44.953C11.6951 44.6188 11.6953 44.2847 11.6959 43.9506C11.6964 43.6014 11.696 43.2522 11.6957 42.903C11.6953 42.3165 11.6958 41.73 11.6967 41.1435C11.6978 40.4648 11.6974 39.7862 11.6963 39.1075C11.6955 38.5255 11.6953 37.9435 11.6958 37.3614C11.6961 37.0135 11.6962 36.6656 11.6955 36.3177C11.6949 35.93 11.6958 35.5423 11.6969 35.1546C11.6965 35.0387 11.6961 34.9229 11.6957 34.8035C11.6962 34.6983 11.6968 34.5931 11.6974 34.4848C11.6974 34.3931 11.6975 34.3013 11.6976 34.2068C11.7473 33.7639 12.0028 33.7682 12.3848 33.7675Z" fill="url(#paint4_linear_4538_357)"/>
<path d="M21.637 25.4405C21.7475 25.4395 21.7475 25.4395 21.8604 25.4384C22.1037 25.4367 22.3469 25.4379 22.5903 25.4392C22.7595 25.4389 22.9288 25.4385 23.0981 25.438C23.4528 25.4375 23.8074 25.4383 24.162 25.4401C24.6165 25.4424 25.0709 25.4411 25.5254 25.4387C25.875 25.4373 26.2245 25.4378 26.574 25.4388C26.7416 25.439 26.9092 25.4387 27.0767 25.4378C27.311 25.4368 27.5451 25.4383 27.7794 25.4405C27.8486 25.4397 27.9178 25.4389 27.9891 25.4381C28.3173 25.4438 28.4902 25.471 28.7551 25.6712C28.9074 25.8817 28.9074 25.8817 28.9562 26.1746C28.8948 26.543 28.8134 26.6348 28.5168 26.8582C28.254 26.8963 28.0313 26.9108 27.7689 26.9072C27.6566 26.908 27.6566 26.908 27.5421 26.9088C27.2951 26.9101 27.0483 26.9084 26.8013 26.9067C26.6296 26.9067 26.4579 26.9068 26.2862 26.9071C25.9265 26.9073 25.5669 26.906 25.2073 26.9038C24.746 26.901 24.2847 26.9013 23.8234 26.9025C23.469 26.9032 23.1145 26.9025 22.7601 26.9012C22.5899 26.9008 22.4198 26.9008 22.2497 26.9012C22.0122 26.9014 21.7747 26.8998 21.5372 26.8977C21.4667 26.8981 21.3962 26.8986 21.3236 26.899C21.0435 26.8948 20.8481 26.8894 20.6122 26.7303C20.4337 26.445 20.469 26.207 20.509 25.8817C20.8173 25.4474 21.1384 25.4348 21.637 25.4405Z" fill="url(#paint5_linear_4538_357)"/>
<path d="M21.545 23.2077C21.6207 23.207 21.6965 23.2064 21.7746 23.2057C22.0252 23.2039 22.2758 23.2043 22.5265 23.2048C22.7005 23.2044 22.8746 23.2039 23.0486 23.2033C23.4134 23.2024 23.7782 23.2026 24.1431 23.2036C24.611 23.2047 25.079 23.2028 25.5469 23.1999C25.9063 23.1981 26.2657 23.1981 26.6251 23.1987C26.7977 23.1987 26.9703 23.1981 27.1428 23.1969C27.3839 23.1955 27.6248 23.1965 27.8659 23.1982C27.9374 23.1972 28.009 23.1963 28.0827 23.1953C28.3989 23.1999 28.5672 23.205 28.8017 23.4272C28.9448 23.72 28.9582 23.9022 28.9047 24.2237C28.6321 24.5093 28.4685 24.6069 28.0748 24.6633C27.9422 24.6653 27.8095 24.6652 27.6769 24.6634C27.6041 24.6639 27.5313 24.6644 27.4563 24.6649C27.2167 24.6662 26.9772 24.6646 26.7375 24.6628C26.5706 24.6628 26.4036 24.663 26.2367 24.6632C25.8872 24.6634 25.5378 24.6621 25.1883 24.6599C24.7405 24.6571 24.2927 24.6574 23.8449 24.6587C23.5003 24.6593 23.1558 24.6586 22.8112 24.6574C22.6461 24.6569 22.4809 24.6569 22.3158 24.6573C22.0851 24.6576 21.8544 24.6559 21.6237 24.6538C21.5556 24.6543 21.4874 24.6547 21.4172 24.6551C21.0234 24.6491 20.7865 24.607 20.5062 24.3214C20.4578 24.1322 20.4578 24.1322 20.4635 23.9308C20.4636 23.8643 20.4637 23.7978 20.4639 23.7293C20.5906 23.1629 21.0551 23.2047 21.545 23.2077Z" fill="url(#paint6_linear_4538_357)"/>
<path d="M24.0234 18.2656C24.4746 18.2656 24.9258 18.2656 25.3906 18.2656C25.3906 19.5869 25.3906 20.9082 25.3906 22.2695C24.9395 22.2695 24.4883 22.2695 24.0234 22.2695C24.0234 20.9482 24.0234 19.627 24.0234 18.2656Z" fill="url(#paint7_linear_4538_357)"/>
<path d="M22.9453 27.8359C24.0732 27.8359 25.2012 27.8359 26.3633 27.8359C26.2895 28.205 26.2218 28.4562 26.0703 28.7881C26.019 28.9021 26.019 28.9021 25.9666 29.0185C25.875 29.2031 25.875 29.2031 25.7773 29.3008C25.4241 29.3281 25.0695 29.3234 24.7153 29.3252C24.566 29.3282 24.566 29.3282 24.4136 29.3313C24.318 29.3318 24.2225 29.3323 24.1241 29.3328C24.0362 29.3337 23.9483 29.3347 23.8578 29.3356C23.6289 29.3008 23.6289 29.3008 23.3359 29.0078C23.207 28.6211 23.0781 28.2344 22.9453 27.8359Z" fill="url(#paint8_linear_4538_357)"/>
<path d="M27.9331 15.2408C28.253 15.502 28.3853 15.6433 28.4641 16.0438C28.4854 16.4433 28.4535 16.6542 28.2383 16.9986C27.8638 17.3511 27.5315 17.3032 27.042 17.2977C26.9683 17.2972 26.8947 17.2968 26.8188 17.2963C26.6369 17.2952 26.4549 17.2934 26.2729 17.2916C26.2057 15.9284 26.2057 15.9284 26.4438 15.5582C26.9 15.102 27.3251 15.0591 27.9331 15.2408Z" fill="url(#paint9_linear_4538_357)"/>
<path d="M22.1114 15.1487C22.1838 15.1539 22.2562 15.159 22.3307 15.1644C22.6758 15.2802 22.8268 15.439 23.0452 15.7286C23.1019 16.0025 23.0919 16.2621 23.0758 16.5403C23.0735 16.6126 23.0713 16.685 23.0691 16.7595C23.0634 16.9368 23.0546 17.1139 23.0452 17.2911C21.5798 17.3749 21.5798 17.3749 21.202 17.1018C20.9309 16.7111 20.8459 16.3977 20.8968 15.9239C21.1709 15.3655 21.4802 15.0886 22.1114 15.1487Z" fill="url(#paint10_linear_4538_357)"/>
<defs>
<linearGradient id="paint0_linear_4538_357" x1="24.4186" y1="0" x2="24.4186" y2="22.307" gradientUnits="userSpaceOnUse">
<stop stop-color="#FA612F"/>
<stop offset="0.58" stop-color="#FB4A55"/>
<stop offset="1" stop-color="#E620AF"/>
</linearGradient>
<linearGradient id="paint1_linear_4538_357" x1="33.3922" y1="32.3672" x2="33.3922" y2="44.756" gradientUnits="userSpaceOnUse">
<stop stop-color="#FA612F"/>
<stop offset="0.58" stop-color="#FB4A55"/>
<stop offset="1" stop-color="#E620AF"/>
</linearGradient>
<linearGradient id="paint2_linear_4538_357" x1="5.37109" y1="34.5781" x2="5.37109" y2="46.0045" gradientUnits="userSpaceOnUse">
<stop stop-color="#FA612F"/>
<stop offset="0.58" stop-color="#FB4A55"/>
<stop offset="1" stop-color="#E620AF"/>
</linearGradient>
<linearGradient id="paint3_linear_4538_357" x1="24.6904" y1="9.82812" x2="24.6904" y2="22.2674" gradientUnits="userSpaceOnUse">
<stop stop-color="#FA612F"/>
<stop offset="0.58" stop-color="#FB4A55"/>
<stop offset="1" stop-color="#E620AF"/>
</linearGradient>
<linearGradient id="paint4_linear_4538_357" x1="14.3648" y1="33.7656" x2="14.3648" y2="46.7216" gradientUnits="userSpaceOnUse">
<stop stop-color="#FA612F"/>
<stop offset="0.58" stop-color="#FB4A55"/>
<stop offset="1" stop-color="#E620AF"/>
</linearGradient>
<linearGradient id="paint5_linear_4538_357" x1="24.7164" y1="25.4375" x2="24.7164" y2="26.9093" gradientUnits="userSpaceOnUse">
<stop stop-color="#FA612F"/>
<stop offset="0.58" stop-color="#FB4A55"/>
<stop offset="1" stop-color="#E620AF"/>
</linearGradient>
<linearGradient id="paint6_linear_4538_357" x1="24.6973" y1="23.1953" x2="24.6973" y2="24.6654" gradientUnits="userSpaceOnUse">
<stop stop-color="#FA612F"/>
<stop offset="0.58" stop-color="#FB4A55"/>
<stop offset="1" stop-color="#E620AF"/>
</linearGradient>
<linearGradient id="paint7_linear_4538_357" x1="24.707" y1="18.2656" x2="24.707" y2="22.2695" gradientUnits="userSpaceOnUse">
<stop stop-color="#FA612F"/>
<stop offset="0.58" stop-color="#FB4A55"/>
<stop offset="1" stop-color="#E620AF"/>
</linearGradient>
<linearGradient id="paint8_linear_4538_357" x1="24.6543" y1="27.8359" x2="24.6543" y2="29.3356" gradientUnits="userSpaceOnUse">
<stop stop-color="#FA612F"/>
<stop offset="0.58" stop-color="#FB4A55"/>
<stop offset="1" stop-color="#E620AF"/>
</linearGradient>
<linearGradient id="paint9_linear_4538_357" x1="27.3521" y1="15.1406" x2="27.3521" y2="17.3028" gradientUnits="userSpaceOnUse">
<stop stop-color="#FA612F"/>
<stop offset="0.58" stop-color="#FB4A55"/>
<stop offset="1" stop-color="#E620AF"/>
</linearGradient>
<linearGradient id="paint10_linear_4538_357" x1="21.9856" y1="15.1406" x2="21.9856" y2="17.3402" gradientUnits="userSpaceOnUse">
<stop stop-color="#FA612F"/>
<stop offset="0.58" stop-color="#FB4A55"/>
<stop offset="1" stop-color="#E620AF"/>
</linearGradient>
</defs>
</svg>
