<svg width="47" height="48" viewBox="0 0 47 48" fill="none" xmlns="http://www.w3.org/2000/svg">
<path d="M1.52683 1.56704C1.63855 1.56643 1.75027 1.56582 1.86537 1.56519C2.17552 1.5639 2.4856 1.56437 2.79575 1.56558C3.1302 1.56646 3.46464 1.5651 3.79908 1.56402C4.45428 1.56228 5.10946 1.56266 5.76465 1.56379C6.29706 1.56468 6.82946 1.5648 7.36187 1.56437C7.47545 1.56428 7.47545 1.56428 7.59133 1.56419C7.74515 1.56406 7.89897 1.56394 8.05279 1.56381C9.49579 1.56269 10.9388 1.56398 12.3818 1.56607C13.6204 1.56782 14.859 1.56752 16.0976 1.56572C17.5354 1.56363 18.9732 1.5628 20.4109 1.564C20.5642 1.56413 20.7174 1.56425 20.8707 1.56437C20.9461 1.56443 21.0215 1.56449 21.0992 1.56455C21.6311 1.56489 22.163 1.56432 22.6949 1.5634C23.3429 1.56231 23.9909 1.5626 24.6389 1.56468C24.9697 1.56571 25.3004 1.56611 25.6311 1.56482C25.9894 1.56376 26.3475 1.56508 26.7057 1.56704C26.8107 1.56617 26.9157 1.5653 27.0239 1.5644C27.7238 1.57184 27.7238 1.57184 28.0482 1.79775C28.2245 2.08056 28.2258 2.27496 28.2231 2.60741C28.2231 2.7892 28.2231 2.7892 28.223 2.97466C28.221 3.1064 28.219 3.23814 28.2169 3.36988C28.2162 3.50507 28.2156 3.64025 28.2153 3.77544C28.2138 4.1306 28.2099 4.48569 28.2056 4.84081C28.2016 5.20346 28.1998 5.56611 28.1979 5.92878C28.1937 6.63986 28.187 7.3509 28.1788 8.06195C28.079 8.04618 27.9792 8.0304 27.8764 8.01415C27.2483 7.93621 26.6169 7.94824 25.985 7.94789C25.8481 7.94758 25.7111 7.94725 25.5742 7.94691C25.2884 7.94633 25.0025 7.94614 24.7166 7.9462C24.3524 7.94621 23.9882 7.94488 23.6239 7.9432C23.3415 7.94211 23.0591 7.94191 22.7766 7.94197C22.6424 7.94185 22.5083 7.94142 22.3741 7.94066C20.9368 7.9204 20.9368 7.9204 19.6827 8.55024C19.4247 8.82333 19.2076 9.11639 18.9991 9.42914C18.7294 9.46617 18.7294 9.46617 18.3783 9.46677C18.3139 9.46728 18.2494 9.46779 18.1831 9.46832C17.9662 9.46968 17.7493 9.46896 17.5324 9.46827C17.3773 9.46883 17.2222 9.46952 17.0671 9.47033C16.7326 9.47181 16.3981 9.47237 16.0635 9.47223C15.5346 9.47203 15.0057 9.47394 14.4768 9.47616C13.4491 9.48016 12.4215 9.48198 11.3939 9.4836C10.0869 9.48578 8.77995 9.48905 7.47297 9.49406C6.94716 9.49601 6.42135 9.49695 5.89554 9.49709C5.56827 9.49736 5.24101 9.49841 4.91375 9.49968C4.76199 9.50009 4.61023 9.50018 4.45847 9.4999C4.25123 9.49957 4.04403 9.50043 3.83679 9.50157C3.66285 9.50181 3.66285 9.50181 3.4854 9.50206C3.17802 9.52686 2.96352 9.58074 2.69051 9.72211C2.55385 9.99542 2.56818 10.2011 2.59285 10.5034C2.77385 10.7533 2.87972 10.7943 3.17879 10.894C3.38808 10.9041 3.59767 10.9083 3.8072 10.9094C3.90329 10.9102 3.90329 10.9102 4.00131 10.9109C4.21633 10.9124 4.43135 10.9132 4.64637 10.914C4.80036 10.915 4.95434 10.9159 5.10832 10.917C5.52676 10.9196 5.94519 10.9217 6.36364 10.9236C6.80078 10.9257 7.23792 10.9284 7.67506 10.931C8.50304 10.9359 9.33101 10.9403 10.159 10.9445C11.1015 10.9493 12.0441 10.9547 12.9866 10.9601C14.9257 10.9712 16.8647 10.9816 18.8038 10.9916C18.8038 13.0541 18.8038 15.1166 18.8038 17.2416C18.333 17.2436 17.8622 17.2455 17.3772 17.2475C15.8239 17.254 14.2706 17.2616 12.7173 17.2697C11.7753 17.2746 10.8333 17.2792 9.89134 17.2828C9.07035 17.2861 8.24936 17.2899 7.42837 17.2946C6.99361 17.2971 6.55886 17.2992 6.1241 17.3006C5.71491 17.3018 5.30573 17.304 4.89654 17.3068C4.74636 17.3077 4.59617 17.3083 4.44598 17.3085C4.24087 17.3088 4.0358 17.3103 3.83069 17.3121C3.71592 17.3126 3.60114 17.3132 3.48289 17.3137C3.1772 17.3394 2.96231 17.3943 2.69051 17.5346C2.55385 17.8079 2.56818 18.0136 2.59285 18.3159C2.77385 18.5658 2.87972 18.6068 3.17879 18.7065C3.38808 18.7166 3.59767 18.7208 3.8072 18.7219C3.87126 18.7224 3.93532 18.7229 4.00131 18.7234C4.21633 18.7249 4.43135 18.7257 4.64637 18.7265C4.80036 18.7275 4.95434 18.7284 5.10832 18.7295C5.52676 18.7321 5.94519 18.7342 6.36364 18.7361C6.80078 18.7382 7.23792 18.7409 7.67506 18.7435C8.50304 18.7484 9.33101 18.7528 10.159 18.757C11.1015 18.7618 12.0441 18.7672 12.9866 18.7726C14.9257 18.7837 16.8647 18.7942 18.8038 18.8041C18.8053 18.9337 18.8053 18.9337 18.8068 19.0658C18.8164 19.8819 18.8264 20.6979 18.8369 21.5139C18.8423 21.9334 18.8475 22.3529 18.8524 22.7724C18.857 23.1776 18.8621 23.5829 18.8676 23.9881C18.8695 24.1423 18.8714 24.2965 18.873 24.4506C18.8754 24.6675 18.8783 24.8844 18.8814 25.1013C18.8829 25.2244 18.8844 25.3476 18.886 25.4745C18.9024 25.8567 18.9516 26.237 18.9991 26.6166C18.1612 26.6166 17.3233 26.6166 16.46 26.6166C16.46 31.7729 16.46 36.9291 16.46 42.2416C19.6563 42.2262 19.6563 42.2262 22.8526 42.2065C23.4707 42.2047 23.4707 42.2047 23.7601 42.2044C23.9622 42.2038 24.1644 42.2024 24.3665 42.2004C24.6726 42.1975 24.9787 42.1971 25.2849 42.1973C25.3749 42.1959 25.465 42.1945 25.5578 42.193C26.161 42.197 26.161 42.197 26.4766 42.4149C26.625 42.6458 26.6656 42.7579 26.6668 43.029C26.6687 43.1444 26.6687 43.1444 26.6706 43.2621C26.6694 43.3854 26.6694 43.3854 26.6682 43.5112C26.6685 43.5964 26.6689 43.6816 26.6693 43.7694C26.6696 43.9494 26.6688 44.1293 26.6672 44.3092C26.6651 44.5845 26.6672 44.8595 26.6697 45.1347C26.6694 45.3097 26.6689 45.4846 26.6682 45.6596C26.669 45.7418 26.6697 45.824 26.6706 45.9087C26.6687 46.0241 26.6687 46.0241 26.6668 46.1418C26.6665 46.2091 26.6662 46.2765 26.6659 46.3459C26.5883 46.6472 26.4775 46.7432 26.2257 46.9291C25.905 46.9887 25.5872 46.9818 25.2619 46.9787C25.1629 46.9794 25.064 46.98 24.962 46.9806C24.6294 46.9822 24.2969 46.9809 23.9643 46.9797C23.7263 46.9802 23.4883 46.9809 23.2502 46.9818C22.6702 46.9834 22.0902 46.9831 21.5102 46.982C21.0389 46.9811 20.5676 46.981 20.0963 46.9814C20.0292 46.9815 19.9622 46.9815 19.8931 46.9816C19.7569 46.9817 19.6207 46.9818 19.4845 46.982C18.2069 46.9831 16.9294 46.9818 15.6518 46.9797C14.5553 46.978 13.4588 46.9783 12.3623 46.9801C11.0893 46.9822 9.81638 46.983 8.54342 46.9818C8.40771 46.9817 8.27201 46.9815 8.1363 46.9814C8.06952 46.9814 8.00275 46.9813 7.93395 46.9812C7.46313 46.9809 6.99231 46.9815 6.52149 46.9824C5.88794 46.9836 5.25441 46.9827 4.62086 46.9805C4.38796 46.98 4.15506 46.9801 3.92216 46.981C3.60497 46.982 3.28788 46.9807 2.9707 46.9787C2.83145 46.9801 2.83145 46.9801 2.68939 46.9814C2.06757 46.9739 2.06757 46.9739 1.75446 46.7428C1.6031 46.519 1.56698 46.4092 1.56574 46.1418C1.56451 46.0649 1.56328 45.988 1.56201 45.9087C1.5628 45.8265 1.56359 45.7443 1.56441 45.6596C1.56403 45.5744 1.56366 45.4892 1.56328 45.4014C1.56301 45.2214 1.56373 45.0415 1.56536 44.8616C1.56745 44.5863 1.56538 44.3113 1.56288 44.0361C1.56314 43.8611 1.56364 43.6861 1.56441 43.5112C1.56322 43.3879 1.56322 43.3879 1.56201 43.2621C1.56324 43.1852 1.56447 43.1082 1.56574 43.029C1.56605 42.9616 1.56637 42.8943 1.56669 42.8249C1.64499 42.5208 1.74737 42.4209 2.00691 42.2416C2.32055 42.1853 2.62985 42.1923 2.94771 42.1973C3.09298 42.1972 3.09298 42.1972 3.24119 42.1972C3.55459 42.1974 3.8679 42.2004 4.18129 42.2035C4.37481 42.2041 4.56832 42.2045 4.76184 42.2047C5.47928 42.2067 6.19671 42.2122 6.91414 42.2172C9.31905 42.2293 9.31905 42.2293 11.7725 42.2416C11.7725 37.0854 11.7725 31.9291 11.7725 26.6166C8.06202 26.6321 8.06202 26.6321 4.35152 26.6518C3.63422 26.6536 3.63422 26.6536 3.29852 26.6539C3.06383 26.6545 2.82914 26.6559 2.59447 26.6579C2.23917 26.6607 1.88395 26.6611 1.52865 26.661C1.37157 26.6631 1.37157 26.6631 1.21131 26.6652C1.11566 26.6647 1.02 26.6642 0.921447 26.6636C0.796681 26.6642 0.796681 26.6642 0.669394 26.6647C0.340635 26.5945 0.241502 26.5073 0.0537884 26.226C-0.00406789 25.9049 0.00112988 25.5877 0.00418543 25.2622C0.00357606 25.1633 0.00296673 25.0643 0.00233889 24.9624C0.000777051 24.6298 0.00201652 24.2973 0.00324367 23.9647C0.00271454 23.7266 0.00201913 23.4886 0.00116943 23.2506C-0.000429419 22.6706 -0.000191905 22.0906 0.000939953 21.5106C0.0018217 21.0393 0.00194201 20.568 0.00151663 20.0966C0.00145677 20.0296 0.00139688 19.9625 0.00133521 19.8935C0.00121032 19.7572 0.0010837 19.621 0.00095532 19.4848C-0.000158891 18.2073 0.00112272 16.9297 0.00322113 15.6521C0.00496638 14.5556 0.00466322 13.4591 0.0028622 12.3626C0.00077234 11.0897 -5.16387e-05 9.81674 0.0011482 8.54378C0.00127263 8.40807 0.00139548 8.27236 0.00151663 8.13665C0.00157689 8.06988 0.00163717 8.0031 0.00169926 7.93431C0.00203671 7.46348 0.00146686 6.99267 0.000548053 6.52184C-0.000661122 5.88829 0.000198261 5.25476 0.00245987 4.62121C0.0029776 4.38831 0.00282597 4.15541 0.00196664 3.92251C0.000903981 3.60532 0.00223223 3.28823 0.00418543 2.97105C0.00331405 2.87822 0.00244263 2.78539 0.00154485 2.68975C0.00586106 2.33001 0.0177819 2.07678 0.18455 1.75482C0.614485 1.52621 1.04765 1.56306 1.52683 1.56704ZM4.99764 5.77924C4.79138 6.08069 4.77918 6.23855 4.83894 6.59711C4.98543 6.84125 4.98543 6.84125 5.22957 6.98774C5.58813 7.0475 5.74599 7.0353 6.04744 6.82904C6.2537 6.52759 6.26589 6.36974 6.20613 6.01117C6.05965 5.76703 6.05965 5.76703 5.81551 5.62055C5.45694 5.56079 5.29909 5.57298 4.99764 5.77924ZM8.12264 5.77924C7.91638 6.08069 7.90418 6.23855 7.96394 6.59711C8.11043 6.84125 8.11043 6.84125 8.35457 6.98774C8.71314 7.0475 8.87099 7.0353 9.17244 6.82904C9.3787 6.52759 9.39089 6.36974 9.33113 6.01117C9.18465 5.76703 9.18465 5.76703 8.94051 5.62055C8.58194 5.56079 8.42409 5.57298 8.12264 5.77924ZM4.99764 13.5917C4.79138 13.8932 4.77918 14.051 4.83894 14.4096C4.98543 14.6538 4.98543 14.6538 5.22957 14.8002C5.58813 14.86 5.74599 14.8478 6.04744 14.6415C6.2537 14.3401 6.26589 14.1822 6.20613 13.8237C6.05965 13.5795 6.05965 13.5795 5.81551 13.433C5.45694 13.3733 5.29909 13.3855 4.99764 13.5917ZM8.12264 13.5917C7.91638 13.8932 7.90418 14.051 7.96394 14.4096C8.11043 14.6538 8.11043 14.6538 8.35457 14.8002C8.71314 14.86 8.87099 14.8478 9.17244 14.6415C9.3787 14.3401 9.39089 14.1822 9.33113 13.8237C9.18465 13.5795 9.18465 13.5795 8.94051 13.433C8.58194 13.3733 8.42409 13.3855 8.12264 13.5917ZM4.99764 21.4042C4.79138 21.7057 4.77918 21.8635 4.83894 22.2221C4.98543 22.4663 4.98543 22.4663 5.22957 22.6127C5.58813 22.6725 5.74599 22.6603 6.04744 22.454C6.2537 22.1526 6.26589 21.9947 6.20613 21.6362C6.05965 21.392 6.05965 21.392 5.81551 21.2455C5.45694 21.1858 5.29909 21.198 4.99764 21.4042ZM8.12264 21.4042C7.91638 21.7057 7.90418 21.8635 7.96394 22.2221C8.11043 22.4663 8.11043 22.4663 8.35457 22.6127C8.71314 22.6725 8.87099 22.6603 9.17244 22.454C9.3787 22.1526 9.39089 21.9947 9.33113 21.6362C9.18465 21.392 9.18465 21.392 8.94051 21.2455C8.58194 21.1858 8.42409 21.198 8.12264 21.4042Z" fill="url(#paint0_linear_4538_380)"/>
<path d="M40.1856 0.00300684C40.2537 0.00232234 40.3217 0.00163784 40.3917 0.000932595C40.616 -0.000783577 40.8402 0.000350481 41.0646 0.00167169C41.2207 0.00140849 41.3768 0.00102934 41.533 0.000539204C41.8601 -3.63955e-05 42.1871 0.000799433 42.5141 0.00262537C42.9332 0.00485095 43.3521 0.00356935 43.7712 0.00122987C44.0936 -0.000182292 44.4159 0.000267868 44.7383 0.00127979C44.8928 0.0015402 45.0473 0.00122118 45.2018 0.000311216C45.4178 -0.000681998 45.6337 0.000832639 45.8497 0.00300684C46.034 0.003473 46.034 0.003473 46.222 0.00394859C46.5333 0.0535516 46.5333 0.0535516 46.745 0.18802C47.0265 0.590975 46.9778 0.987011 46.9735 1.46728C46.9741 1.57262 46.9747 1.67795 46.9754 1.78648C46.9769 2.14066 46.9757 2.49478 46.9745 2.84896C46.975 3.10239 46.9757 3.35581 46.9765 3.60923C46.9783 4.22683 46.9779 4.84441 46.9768 5.46201C46.9759 5.96387 46.9758 6.46573 46.9762 6.9676C46.9763 7.03898 46.9763 7.11037 46.9764 7.18392C46.9765 7.32893 46.9766 7.47395 46.9768 7.61896C46.9779 8.97924 46.9766 10.3395 46.9745 11.6998C46.9727 12.8674 46.9731 14.0349 46.9749 15.2025C46.9769 16.5578 46.9778 17.9132 46.9766 19.2686C46.9764 19.413 46.9763 19.5575 46.9762 19.702C46.9761 19.7731 46.9761 19.8442 46.976 19.9174C46.9757 20.4188 46.9762 20.9201 46.9772 21.4215C46.9784 22.0961 46.9775 22.7706 46.9753 23.4452C46.9747 23.6932 46.9749 23.9413 46.9757 24.1893C46.9768 24.527 46.9755 24.8646 46.9735 25.2023C46.9744 25.3012 46.9753 25.4001 46.9762 25.502C46.9687 26.1613 46.9687 26.1613 46.745 26.4816C46.4409 26.6747 46.2084 26.6657 45.8497 26.6666C45.7817 26.6673 45.7137 26.668 45.6436 26.6687C45.4193 26.6704 45.1951 26.6693 44.9708 26.6679C44.8147 26.6682 44.6585 26.6686 44.5024 26.6691C44.1753 26.6696 43.8483 26.6688 43.5212 26.667C43.1022 26.6648 42.6832 26.666 42.2642 26.6684C41.9418 26.6698 41.6194 26.6693 41.2971 26.6683C41.1426 26.6681 40.9881 26.6684 40.8336 26.6693C40.6175 26.6703 40.4017 26.6688 40.1856 26.6666C40.0628 26.6663 39.9399 26.666 39.8133 26.6657C39.5021 26.6161 39.5021 26.6161 39.2904 26.4816C39.0089 26.0786 39.0576 25.6826 39.0618 25.2023C39.0609 25.0443 39.0609 25.0443 39.06 24.8831C39.0584 24.5289 39.0597 24.1748 39.0609 23.8206C39.0604 23.5672 39.0597 23.3138 39.0588 23.0604C39.0571 22.4428 39.0574 21.8252 39.0586 21.2076C39.0595 20.7057 39.0596 20.2039 39.0592 19.702C39.0591 19.6306 39.059 19.5592 39.059 19.4857C39.0588 19.3407 39.0587 19.1957 39.0586 19.0506C39.0575 17.6904 39.0588 16.3301 39.0609 14.9698C39.0626 13.8022 39.0623 12.6347 39.0605 11.4671C39.0584 10.1118 39.0576 8.75641 39.0588 7.40105C39.0589 7.25656 39.059 7.11208 39.0592 6.9676C39.0592 6.8965 39.0593 6.82541 39.0593 6.75216C39.0597 6.25081 39.0591 5.74947 39.0582 5.24812C39.057 4.57353 39.0578 3.89896 39.0601 3.22438C39.0606 2.97636 39.0605 2.72834 39.0596 2.48032C39.0585 2.14261 39.0599 1.80499 39.0618 1.46728C39.061 1.36837 39.0601 1.26946 39.0592 1.16755C39.0666 0.508317 39.0666 0.508317 39.2904 0.18802C39.5944 -0.00512399 39.827 0.00391401 40.1856 0.00300684Z" fill="url(#paint1_linear_4538_380)"/>
<path d="M30.8155 4.69051C30.8835 4.68982 30.9515 4.68914 31.0216 4.68843C31.2459 4.68672 31.4701 4.68785 31.6944 4.68917C31.8505 4.68891 32.0067 4.68853 32.1628 4.68804C32.4899 4.68746 32.8169 4.6883 33.144 4.69013C33.563 4.69235 33.982 4.69107 34.401 4.68873C34.7234 4.68732 35.0457 4.68777 35.3681 4.68878C35.5226 4.68904 35.6771 4.68872 35.8316 4.68781C36.0476 4.68682 36.2635 4.68833 36.4795 4.69051C36.6638 4.69097 36.6638 4.69097 36.8518 4.69145C37.2363 4.75271 37.3254 4.81905 37.5538 5.13168C37.5921 5.42535 37.6065 5.68319 37.6034 5.97682C37.604 6.06302 37.6046 6.14921 37.6052 6.23802C37.6068 6.52743 37.6055 6.81676 37.6043 7.10616C37.6048 7.31341 37.6055 7.52065 37.6064 7.72789C37.6082 8.29122 37.6075 8.85453 37.6062 9.41786C37.6052 10.0068 37.6062 10.5957 37.6068 11.1846C37.6075 12.1737 37.6065 13.1628 37.6047 14.1519C37.6026 15.2962 37.6032 16.4405 37.6054 17.5848C37.6072 18.5664 37.6074 19.548 37.6064 20.5296C37.6058 21.1163 37.6057 21.7029 37.607 22.2896C37.6081 22.8411 37.6073 23.3925 37.6051 23.944C37.6046 24.1466 37.6047 24.3493 37.6056 24.552C37.6066 24.8281 37.6053 25.1041 37.6034 25.3803C37.6042 25.461 37.6051 25.5416 37.606 25.6247C37.6012 25.975 37.5843 26.1837 37.3748 26.4705C37.072 26.6788 36.8451 26.6657 36.4795 26.6666C36.3775 26.6676 36.3775 26.6676 36.2734 26.6687C36.0491 26.6704 35.8249 26.6693 35.6006 26.6679C35.4445 26.6682 35.2883 26.6686 35.1322 26.6691C34.8051 26.6696 34.4781 26.6688 34.151 26.667C33.732 26.6648 33.313 26.666 32.894 26.6684C32.5716 26.6698 32.2493 26.6693 31.9269 26.6683C31.7724 26.6681 31.6179 26.6684 31.4634 26.6693C31.2474 26.6703 31.0315 26.6688 30.8155 26.6666C30.6926 26.6663 30.5697 26.666 30.4432 26.6657C30.0587 26.6044 29.9696 26.538 29.7413 26.2254C29.7029 25.9318 29.6885 25.6739 29.6916 25.3803C29.691 25.2941 29.6904 25.2079 29.6898 25.1191C29.6882 24.8297 29.6895 24.5403 29.6907 24.2509C29.6902 24.0437 29.6895 23.8365 29.6886 23.6292C29.6868 23.0659 29.6875 22.5026 29.6888 21.9392C29.6898 21.3503 29.6889 20.7614 29.6882 20.1725C29.6875 19.1834 29.6885 18.1943 29.6903 17.2052C29.6925 16.0609 29.6918 14.9166 29.6896 13.7723C29.6878 12.7907 29.6876 11.8091 29.6886 10.8275C29.6892 10.2408 29.6893 9.65417 29.688 9.06751C29.6869 8.51604 29.6877 7.96459 29.6899 7.41312C29.6904 7.21045 29.6903 7.00779 29.6894 6.80512C29.6884 6.52898 29.6897 6.25296 29.6916 5.97682C29.6908 5.89615 29.6899 5.81548 29.689 5.73237C29.6938 5.38208 29.7107 5.17345 29.9202 4.88664C30.223 4.67834 30.4499 4.69143 30.8155 4.69051Z" fill="url(#paint2_linear_4538_380)"/>
<path d="M21.4405 9.37801C21.5085 9.37732 21.5765 9.37664 21.6466 9.37593C21.8709 9.37422 22.0951 9.37535 22.3194 9.37667C22.4755 9.37641 22.6317 9.37603 22.7878 9.37554C23.1149 9.37496 23.4419 9.3758 23.769 9.37763C24.188 9.37985 24.607 9.37857 25.026 9.37623C25.3484 9.37482 25.6707 9.37527 25.9931 9.37628C26.1476 9.37654 26.3021 9.37622 26.4566 9.37531C26.6726 9.37432 26.8885 9.37583 27.1045 9.37801C27.2888 9.37847 27.2888 9.37847 27.4768 9.37895C27.8564 9.43943 27.9475 9.51697 28.1788 9.81918C28.2279 10.1224 28.2279 10.1224 28.2284 10.4864C28.229 10.5534 28.2296 10.6205 28.2302 10.6896C28.2318 10.9142 28.2305 11.1387 28.2293 11.3634C28.2298 11.5244 28.2305 11.6855 28.2314 11.8465C28.2332 12.284 28.2325 12.7214 28.2312 13.1588C28.2302 13.6164 28.2312 14.0739 28.2318 14.5315C28.2325 15.2999 28.2315 16.0683 28.2297 16.8367C28.2276 17.7254 28.2282 18.614 28.2304 19.5027C28.2322 20.2654 28.2324 21.0281 28.2314 21.7907C28.2308 22.2464 28.2307 22.702 28.232 23.1577C28.2331 23.5861 28.2323 24.0144 28.2301 24.4427C28.2296 24.6001 28.2297 24.7574 28.2306 24.9147C28.2316 25.1292 28.2303 25.3437 28.2284 25.5582C28.2282 25.6784 28.2281 25.7985 28.2279 25.9222C28.1692 26.2841 28.0798 26.4001 27.7881 26.6161C27.4768 26.6657 27.4768 26.6657 27.1045 26.6666C27.0025 26.6676 27.0025 26.6676 26.8984 26.6687C26.6741 26.6704 26.4499 26.6693 26.2256 26.6679C26.0695 26.6682 25.9133 26.6686 25.7572 26.6691C25.4301 26.6696 25.1031 26.6688 24.776 26.667C24.357 26.6648 23.938 26.666 23.519 26.6684C23.1966 26.6698 22.8743 26.6693 22.5519 26.6683C22.3974 26.6681 22.2429 26.6684 22.0884 26.6693C21.8724 26.6703 21.6565 26.6688 21.4405 26.6666C21.3176 26.6663 21.1947 26.666 21.0682 26.6657C20.6886 26.6052 20.5975 26.5276 20.3663 26.2254C20.3171 25.9222 20.3171 25.9222 20.3166 25.5582C20.3157 25.4577 20.3157 25.4577 20.3148 25.355C20.3132 25.1304 20.3145 24.9059 20.3157 24.6812C20.3152 24.5202 20.3145 24.3591 20.3136 24.1981C20.3119 23.7606 20.3125 23.3232 20.3138 22.8858C20.3148 22.4282 20.3139 21.9707 20.3132 21.5131C20.3125 20.7447 20.3135 19.9763 20.3153 19.2079C20.3175 18.3192 20.3168 17.4306 20.3146 16.5419C20.3128 15.7792 20.3126 15.0165 20.3136 14.2539C20.3142 13.7982 20.3143 13.3426 20.313 12.8869C20.3119 12.4585 20.3127 12.0302 20.3149 11.6019C20.3154 11.4446 20.3153 11.2872 20.3144 11.1299C20.3134 10.9154 20.3147 10.7009 20.3166 10.4864C20.3168 10.3662 20.3169 10.2461 20.3171 10.1224C20.4253 9.45512 20.8304 9.37955 21.4405 9.37801Z" fill="url(#paint3_linear_4538_380)"/>
<path d="M36.4122 29.7012C36.4904 29.7027 36.5685 29.7041 36.649 29.7056C39.4246 29.792 41.7995 31.1422 43.6883 33.1085C45.2505 34.8033 46.1495 37.1372 46.1778 39.4302C46.1807 39.5077 46.1835 39.5852 46.1864 39.665C46.1872 39.74 46.188 39.815 46.1889 39.8922C46.1903 39.9595 46.1917 40.0267 46.1932 40.096C46.1213 40.4011 46.0104 40.4947 45.7567 40.6815C45.4338 40.7411 45.1138 40.7348 44.7862 40.732C44.6877 40.7327 44.5892 40.7334 44.4878 40.7341C44.162 40.7358 43.8363 40.7347 43.5106 40.7333C43.2844 40.7336 43.0582 40.734 42.8319 40.7345C42.3578 40.7351 41.8836 40.7342 41.4094 40.7324C40.8012 40.7302 40.1931 40.7314 39.5849 40.7338C39.1178 40.7352 38.6506 40.7347 38.1835 40.7337C37.9592 40.7335 37.735 40.7338 37.5107 40.7347C37.1974 40.7357 36.8842 40.7342 36.5709 40.732C36.4315 40.7332 36.4315 40.7332 36.2892 40.7344C35.9235 40.7297 35.6717 40.7203 35.3476 40.5436C35.1308 40.1459 35.1555 39.7665 35.1593 39.3204C35.1586 39.2219 35.1579 39.1234 35.1572 39.0219C35.1555 38.6962 35.1566 38.3705 35.1579 38.0447C35.1577 37.8185 35.1573 37.5923 35.1568 37.3661C35.1562 36.8919 35.1571 36.4178 35.1589 35.9436C35.1611 35.3354 35.1598 34.7273 35.1575 34.1191C35.1561 33.6519 35.1565 33.1848 35.1575 32.7177C35.1578 32.4934 35.1575 32.2691 35.1566 32.0448C35.1556 31.7315 35.1571 31.4183 35.1593 31.105C35.1585 31.0121 35.1577 30.9191 35.1569 30.8234C35.1649 30.1994 35.1649 30.1994 35.3851 29.8817C35.713 29.672 36.036 29.6903 36.4122 29.7012Z" fill="url(#paint4_linear_4538_380)"/>
<path d="M26.7642 31.2357C26.9787 31.2356 27.1926 31.2297 27.4071 31.2236C28.5526 31.2081 28.5526 31.2081 28.9841 31.5758C29.1082 31.7104 29.2294 31.8475 29.3488 31.9863C29.4871 32.1235 29.6255 32.2607 29.7651 32.3966C30.0199 32.6455 30.2698 32.8992 30.5206 33.1521C30.6253 33.2572 30.7299 33.3623 30.8346 33.4674C31.0883 33.7221 31.3416 33.9772 31.5948 34.2324C31.6856 34.1783 31.7764 34.1241 31.8699 34.0684C31.9918 33.9969 32.1138 33.9254 32.2357 33.854C32.2952 33.8184 32.3547 33.7827 32.416 33.746C32.4754 33.7114 32.5349 33.6768 32.5962 33.6411C32.6499 33.6094 32.7036 33.5777 32.7589 33.545C33.0411 33.4146 33.3467 33.3412 33.6456 33.2558C33.6456 34.3193 33.6456 35.3828 33.6456 36.4785C32.8766 35.8193 32.8766 35.8193 32.6176 35.5576C32.5625 35.5022 32.5074 35.4468 32.4507 35.3898C32.3959 35.3341 32.341 35.2785 32.2845 35.2212C32.2271 35.1633 32.1696 35.1054 32.1104 35.0457C31.9709 34.905 31.8317 34.7641 31.6925 34.623C31.4027 34.7528 31.2037 34.8944 30.9845 35.1235C30.8959 35.2162 30.8073 35.3088 30.7159 35.4043C30.9509 35.9447 31.3889 36.3204 31.7963 36.7348C31.8765 36.8199 31.9568 36.905 32.0395 36.9927C32.5575 37.5193 32.9052 37.7666 33.6456 37.8457C33.6485 37.932 33.6485 37.932 33.6515 38.02C33.6609 38.2854 33.6716 38.5508 33.6823 38.8161C33.6853 38.9066 33.6883 38.997 33.6914 39.0902C33.7295 39.9951 33.793 40.8295 34.4677 41.4986C35.1246 42.0796 35.8147 42.1515 36.6655 42.1626C36.7628 42.1641 36.7628 42.1641 36.862 42.1655C37.0744 42.1686 37.2868 42.171 37.4992 42.1735C37.6473 42.1755 37.7953 42.1775 37.9434 42.1796C38.3316 42.185 38.7198 42.1898 39.108 42.1945C39.5047 42.1995 39.9014 42.2049 40.2981 42.2103C41.0754 42.2207 41.8527 42.2307 42.63 42.2402C42.5838 42.3814 42.5374 42.5225 42.491 42.6635C42.4651 42.7421 42.4393 42.8207 42.4127 42.9016C41.8586 44.4934 40.3879 45.6523 38.9297 46.3646C37.3401 47.1107 35.371 47.2117 33.6891 46.6717C31.8163 45.9222 30.3111 44.6652 29.4764 42.7919C28.7546 41.0905 28.6502 38.9959 29.3488 37.2597C29.5504 36.8215 29.7842 36.4037 30.0323 35.9902C30.13 35.8275 30.2277 35.6647 30.3253 35.5019C28.9755 33.7557 28.9755 33.7557 27.1095 32.7862C26.6174 32.759 26.1419 32.8082 25.6534 32.8642C25.4425 32.8652 25.4425 32.8652 25.1854 32.6997C25.0486 32.4691 24.9989 32.3492 25.0031 32.084C25.0015 31.9873 25.0015 31.9873 25 31.8886C25.2149 31.0794 26.0995 31.2336 26.7642 31.2357Z" fill="url(#paint5_linear_4538_380)"/>
<path d="M19.9478 37.503C20.0234 37.5023 20.0991 37.5016 20.177 37.5009C20.4267 37.4992 20.6762 37.5004 20.9259 37.5017C21.0996 37.5014 21.2732 37.501 21.4469 37.5005C21.8107 37.5 22.1745 37.5008 22.5384 37.5026C23.0047 37.5049 23.471 37.5036 23.9373 37.5012C24.2959 37.4998 24.6544 37.5003 25.013 37.5013C25.1849 37.5015 25.3569 37.5012 25.5288 37.5003C25.7691 37.4993 26.0094 37.5008 26.2497 37.503C26.3207 37.5022 26.3918 37.5014 26.465 37.5006C26.8012 37.5062 26.9754 37.5305 27.2443 37.7398C27.4085 37.9615 27.4487 38.0624 27.4445 38.3348C27.446 38.4315 27.446 38.4315 27.4475 38.5301C27.3697 38.8232 27.2439 38.9301 27.005 39.1161C26.74 39.1546 26.5145 39.1695 26.2497 39.1666C26.1363 39.1676 26.1363 39.1676 26.0205 39.1687C25.7708 39.1704 25.5213 39.1693 25.2716 39.1679C25.0979 39.1682 24.9243 39.1686 24.7506 39.1691C24.3868 39.1696 24.023 39.1688 23.6591 39.167C23.1928 39.1648 22.7266 39.166 22.2602 39.1684C21.9016 39.1698 21.5431 39.1693 21.1845 39.1683C21.0126 39.1681 20.8406 39.1684 20.6687 39.1693C20.4284 39.1703 20.1882 39.1688 19.9478 39.1666C19.8768 39.1674 19.8057 39.1682 19.7326 39.169C19.3963 39.1634 19.2221 39.1391 18.9532 38.9298C18.789 38.7081 18.7488 38.6072 18.7531 38.3348C18.7515 38.2381 18.7515 38.2381 18.75 38.1395C18.9127 37.527 19.4 37.4969 19.9478 37.503Z" fill="url(#paint6_linear_4538_380)"/>
<path d="M19.9478 34.378C20.0234 34.3773 20.0991 34.3766 20.177 34.3759C20.4267 34.3742 20.6762 34.3754 20.9259 34.3767C21.0996 34.3764 21.2732 34.376 21.4469 34.3755C21.8107 34.375 22.1745 34.3758 22.5384 34.3776C23.0047 34.3799 23.471 34.3786 23.9373 34.3762C24.2959 34.3748 24.6544 34.3753 25.013 34.3763C25.1849 34.3765 25.3569 34.3762 25.5288 34.3753C25.7691 34.3743 26.0094 34.3758 26.2497 34.378C26.3207 34.3772 26.3918 34.3764 26.465 34.3756C26.8012 34.3812 26.9754 34.4055 27.2443 34.6148C27.4085 34.8365 27.4487 34.9374 27.4445 35.2098C27.446 35.3065 27.446 35.3065 27.4475 35.4051C27.3697 35.6982 27.2439 35.8051 27.005 35.9911C26.74 36.0296 26.5145 36.0445 26.2497 36.0416C26.1363 36.0426 26.1363 36.0426 26.0205 36.0437C25.7708 36.0454 25.5213 36.0443 25.2716 36.0429C25.0979 36.0432 24.9243 36.0436 24.7506 36.0441C24.3868 36.0446 24.023 36.0438 23.6591 36.042C23.1928 36.0398 22.7266 36.041 22.2602 36.0434C21.9016 36.0448 21.5431 36.0443 21.1845 36.0433C21.0126 36.0431 20.8406 36.0434 20.6687 36.0443C20.4284 36.0453 20.1882 36.0438 19.9478 36.0416C19.8768 36.0424 19.8057 36.0432 19.7326 36.044C19.3963 36.0384 19.2221 36.0141 18.9532 35.8048C18.789 35.5831 18.7488 35.4822 18.7531 35.2098C18.7515 35.1131 18.7515 35.1131 18.75 35.0145C18.9127 34.402 19.4 34.3719 19.9478 34.378Z" fill="url(#paint7_linear_4538_380)"/>
<path d="M20.0714 31.2524C20.1566 31.252 20.2419 31.2516 20.3297 31.2513C20.5096 31.251 20.6895 31.2517 20.8694 31.2533C21.1447 31.2554 21.4197 31.2534 21.6949 31.2509C21.8699 31.2511 22.0449 31.2516 22.2198 31.2524C22.3021 31.2516 22.3843 31.2508 22.4689 31.25C23.0389 31.2591 23.0389 31.2591 23.3458 31.4906C23.5012 31.7118 23.5424 31.818 23.5382 32.0855C23.5392 32.15 23.5402 32.2144 23.5413 32.2808C23.462 32.5791 23.3458 32.6804 23.0988 32.8668C22.806 32.9255 22.5176 32.9215 22.2198 32.9187C22.1346 32.919 22.0494 32.9194 21.9616 32.9198C21.7817 32.9201 21.6017 32.9193 21.4218 32.9177C21.1466 32.9156 20.8716 32.9177 20.5963 32.9202C20.4213 32.9199 20.2464 32.9194 20.0714 32.9187C19.9892 32.9194 19.907 32.9202 19.8223 32.9211C19.2524 32.9119 19.2524 32.9119 18.9455 32.6804C18.79 32.4593 18.7489 32.353 18.7531 32.0855C18.7515 31.9888 18.7515 31.9888 18.75 31.8902C18.9297 31.2135 19.4904 31.2468 20.0714 31.2524Z" fill="url(#paint8_linear_4538_380)"/>
<defs>
<linearGradient id="paint0_linear_4538_380" x1="14.1118" y1="1.5625" x2="14.1118" y2="46.9829" gradientUnits="userSpaceOnUse">
<stop stop-color="#FA612F"/>
<stop offset="0.58" stop-color="#FB4A55"/>
<stop offset="1" stop-color="#E620AF"/>
</linearGradient>
<linearGradient id="paint1_linear_4538_380" x1="43.0177" y1="0" x2="43.0177" y2="26.6696" gradientUnits="userSpaceOnUse">
<stop stop-color="#FA612F"/>
<stop offset="0.58" stop-color="#FB4A55"/>
<stop offset="1" stop-color="#E620AF"/>
</linearGradient>
<linearGradient id="paint2_linear_4538_380" x1="33.6475" y1="4.6875" x2="33.6475" y2="26.6696" gradientUnits="userSpaceOnUse">
<stop stop-color="#FA612F"/>
<stop offset="0.58" stop-color="#FB4A55"/>
<stop offset="1" stop-color="#E620AF"/>
</linearGradient>
<linearGradient id="paint3_linear_4538_380" x1="24.2725" y1="9.375" x2="24.2725" y2="26.6696" gradientUnits="userSpaceOnUse">
<stop stop-color="#FA612F"/>
<stop offset="0.58" stop-color="#FB4A55"/>
<stop offset="1" stop-color="#E620AF"/>
</linearGradient>
<linearGradient id="paint4_linear_4538_380" x1="40.6747" y1="29.6953" x2="40.6747" y2="40.735" gradientUnits="userSpaceOnUse">
<stop stop-color="#FA612F"/>
<stop offset="0.58" stop-color="#FB4A55"/>
<stop offset="1" stop-color="#E620AF"/>
</linearGradient>
<linearGradient id="paint5_linear_4538_380" x1="33.815" y1="31.2188" x2="33.815" y2="47.0126" gradientUnits="userSpaceOnUse">
<stop stop-color="#FA612F"/>
<stop offset="0.58" stop-color="#FB4A55"/>
<stop offset="1" stop-color="#E620AF"/>
</linearGradient>
<linearGradient id="paint6_linear_4538_380" x1="23.0988" y1="37.5" x2="23.0988" y2="39.1696" gradientUnits="userSpaceOnUse">
<stop stop-color="#FA612F"/>
<stop offset="0.58" stop-color="#FB4A55"/>
<stop offset="1" stop-color="#E620AF"/>
</linearGradient>
<linearGradient id="paint7_linear_4538_380" x1="23.0988" y1="34.375" x2="23.0988" y2="36.0446" gradientUnits="userSpaceOnUse">
<stop stop-color="#FA612F"/>
<stop offset="0.58" stop-color="#FB4A55"/>
<stop offset="1" stop-color="#E620AF"/>
</linearGradient>
<linearGradient id="paint8_linear_4538_380" x1="21.1456" y1="31.25" x2="21.1456" y2="32.9211" gradientUnits="userSpaceOnUse">
<stop stop-color="#FA612F"/>
<stop offset="0.58" stop-color="#FB4A55"/>
<stop offset="1" stop-color="#E620AF"/>
</linearGradient>
</defs>
</svg>
