<svg width="30" height="30" viewBox="0 0 30 30" fill="none" xmlns="http://www.w3.org/2000/svg">
<path d="M28.8125 7.5625H11.8125C11.2257 7.5625 10.75 8.03824 10.75 8.625V11.8125H29.875V8.625C29.875 8.03824 29.3993 7.5625 28.8125 7.5625ZM12.875 10.75C12.2882 10.75 11.8125 10.2743 11.8125 9.6875C11.8125 9.10067 12.2882 8.625 12.875 8.625C13.4618 8.625 13.9375 9.10067 13.9375 9.6875C13.9375 10.2743 13.4618 10.75 12.875 10.75ZM16.0625 10.75C15.4757 10.75 15 10.2743 15 9.6875C15 9.10067 15.4757 8.625 16.0625 8.625C16.6493 8.625 17.125 9.10067 17.125 9.6875C17.125 10.2743 16.6493 10.75 16.0625 10.75Z" fill="url(#paint0_linear_1167_305)"/>
<path d="M10.75 12.875V21.375C10.75 21.9618 11.2257 22.4375 11.8125 22.4375H28.8125C29.3993 22.4375 29.875 21.9618 29.875 21.375V12.875H10.75ZM18.0319 19.4056C18.2394 19.6132 18.2394 19.9493 18.0319 20.1569C17.9281 20.2606 17.7922 20.3125 17.6562 20.3125C17.5203 20.3125 17.3844 20.2606 17.2806 20.1569L15.1556 18.0319C14.9481 17.8243 14.9481 17.4882 15.1556 17.2806L17.2806 15.1556C17.4882 14.9481 17.8243 14.9481 18.0319 15.1556C18.2394 15.3632 18.2394 15.6993 18.0319 15.9069L16.2825 17.6562L18.0319 19.4056ZM21.359 15.6599L20.2965 19.9099C20.2363 20.1517 20.02 20.3125 19.7818 20.3125C19.7393 20.3125 19.6957 20.3073 19.6527 20.2964C19.3678 20.2253 19.1946 19.9369 19.2661 19.6526L20.3286 15.4026C20.3992 15.1172 20.6882 14.9409 20.9725 15.0161C21.2573 15.0872 21.4306 15.3756 21.359 15.6599ZM25.4694 18.0319L23.3444 20.1569C23.2406 20.2606 23.1047 20.3125 22.9688 20.3125C22.8328 20.3125 22.6969 20.2606 22.5931 20.1569C22.3856 19.9493 22.3856 19.6132 22.5931 19.4056L24.3425 17.6562L22.5931 15.9069C22.3856 15.6993 22.3856 15.3632 22.5931 15.1556C22.8007 14.9481 23.1368 14.9481 23.3444 15.1556L25.4694 17.2806C25.6769 17.4882 25.6769 17.8243 25.4694 18.0319Z" fill="url(#paint1_linear_1167_305)"/>
<path d="M11.8125 23.5C10.6389 23.5 9.6875 22.5486 9.6875 21.375V8.625C9.6875 7.45141 10.6389 6.5 11.8125 6.5H17.125V3.3125C17.125 2.72567 16.6493 2.25 16.0625 2.25H11.8125C11.8125 3.42359 10.8611 4.375 9.6875 4.375C8.51391 4.375 7.5625 3.42359 7.5625 2.25H3.3125C2.72574 2.25 2.25 2.72567 2.25 3.3125V26.6875C2.25 27.2743 2.72574 27.75 3.3125 27.75H16.0625C16.6493 27.75 17.125 27.2743 17.125 26.6875V23.5H11.8125Z" fill="url(#paint2_linear_1167_305)"/>
<path d="M18.1875 23.5V26.6875C18.1875 27.8595 17.2345 28.8125 16.0625 28.8125H3.3125C2.14053 28.8125 1.1875 27.8595 1.1875 26.6875V3.3125C1.1875 2.14053 2.14053 1.1875 3.3125 1.1875H16.0625C17.2345 1.1875 18.1875 2.14053 18.1875 3.3125V6.5H19.25V3.3125C19.25 1.55481 17.8202 0.125 16.0625 0.125H3.3125C1.55481 0.125 0.125 1.55481 0.125 3.3125V26.6875C0.125 28.4452 1.55481 29.875 3.3125 29.875H16.0625C17.8202 29.875 19.25 28.4452 19.25 26.6875V23.5H18.1875Z" fill="url(#paint3_linear_1167_305)"/>
<defs>
<linearGradient id="paint0_linear_1167_305" x1="20.3125" y1="7.5625" x2="20.3125" y2="11.8125" gradientUnits="userSpaceOnUse">
<stop stop-color="#FA612F"/>
<stop offset="0.58" stop-color="#FB4A55"/>
<stop offset="1" stop-color="#E620AF"/>
</linearGradient>
<linearGradient id="paint1_linear_1167_305" x1="20.3125" y1="12.875" x2="20.3125" y2="22.4375" gradientUnits="userSpaceOnUse">
<stop stop-color="#FA612F"/>
<stop offset="0.58" stop-color="#FB4A55"/>
<stop offset="1" stop-color="#E620AF"/>
</linearGradient>
<linearGradient id="paint2_linear_1167_305" x1="9.6875" y1="2.25" x2="9.6875" y2="27.75" gradientUnits="userSpaceOnUse">
<stop stop-color="#FA612F"/>
<stop offset="0.58" stop-color="#FB4A55"/>
<stop offset="1" stop-color="#E620AF"/>
</linearGradient>
<linearGradient id="paint3_linear_1167_305" x1="9.6875" y1="0.125" x2="9.6875" y2="29.875" gradientUnits="userSpaceOnUse">
<stop stop-color="#FA612F"/>
<stop offset="0.58" stop-color="#FB4A55"/>
<stop offset="1" stop-color="#E620AF"/>
</linearGradient>
</defs>
</svg>
