<svg width="43" height="55" viewBox="0 0 43 55" fill="none" xmlns="http://www.w3.org/2000/svg">
<path fill-rule="evenodd" clip-rule="evenodd" d="M21.384 29.9129C19.6818 29.9125 18.0178 30.4187 16.6023 31.3675C15.1868 32.3163 14.0835 33.6651 13.4319 35.2432C12.7803 36.8213 12.6097 38.558 12.9416 40.2334C13.2735 41.9089 14.093 43.448 15.2966 44.656C16.5001 45.8639 18.0336 46.6866 19.703 47.0199C21.3725 47.3532 23.1029 47.1821 24.6755 46.5283C26.2481 45.8746 27.5921 44.7674 28.5377 43.347C29.4832 41.9266 29.9878 40.2566 29.9876 38.5483C29.9849 36.2591 29.0777 34.0644 27.4648 32.4455C25.852 30.8267 23.6652 29.9159 21.3841 29.9129H21.384ZM21.384 45.3792C20.038 45.3794 18.7221 44.9791 17.6028 44.2288C16.4834 43.4785 15.611 42.4119 15.0956 41.164C14.5803 39.916 14.4453 38.5428 14.7077 37.2178C14.9701 35.8929 15.6181 34.6758 16.5697 33.7204C17.5214 32.7651 18.7339 32.1144 20.054 31.8506C21.3742 31.5869 22.7426 31.722 23.9862 32.2387C25.2299 32.7555 26.2929 33.6308 27.0409 34.7539C27.7888 35.877 28.1882 37.1975 28.1883 38.5483C28.1865 40.3591 27.4691 42.0951 26.1935 43.3757C24.9179 44.6563 23.1883 45.3768 21.384 45.3792ZM36.967 40.4441L34.8814 40.9107C34.7158 40.9465 34.5639 41.029 34.4435 41.1486C34.3231 41.2682 34.2393 41.4198 34.202 41.5856C33.8772 42.9688 33.3304 44.2898 32.5832 45.4969C32.4942 45.6413 32.4476 45.808 32.4485 45.9778C32.4495 46.1476 32.498 46.3138 32.5886 46.4572L33.7403 48.2719L31.0706 50.9512L29.2607 49.7975C29.118 49.7068 28.9528 49.6582 28.7838 49.6572C28.6149 49.6563 28.4491 49.7031 28.3054 49.7922C27.1021 50.5396 25.7867 51.0874 24.4097 51.4146C24.2444 51.4526 24.0932 51.537 23.9738 51.6579C23.8545 51.7788 23.7718 51.9313 23.7355 52.0976L23.2682 54.1935H19.4945L19.0275 52.097C18.9912 51.9308 18.9086 51.7783 18.7892 51.6574C18.6699 51.5364 18.5187 51.4521 18.3534 51.4141C16.9762 51.0874 15.6607 50.5395 14.4577 49.7917C14.314 49.7025 14.1482 49.6558 13.9792 49.6567C13.8103 49.6576 13.645 49.7063 13.5023 49.797L11.6925 50.9507L9.02275 48.2714L10.1745 46.4567C10.265 46.3132 10.3135 46.1471 10.3144 45.9773C10.3154 45.8075 10.2688 45.6408 10.1798 45.4963C9.43225 44.2894 8.88548 42.9684 8.56101 41.5851C8.52275 41.4197 8.43861 41.2686 8.31833 41.1493C8.19805 41.03 8.04655 40.9472 7.88136 40.9107L5.79045 40.4441V36.6547L7.88136 36.1876C8.04652 36.1509 8.19796 36.0681 8.31819 35.9487C8.43842 35.8292 8.52252 35.6781 8.56079 35.5128C8.88565 34.1295 9.4324 32.8085 10.1796 31.6014C10.2685 31.4568 10.3152 31.2901 10.3142 31.1202C10.3133 30.9503 10.2648 30.7841 10.1743 30.6405L9.02254 28.8263L11.6923 26.147L13.5021 27.3013C13.6448 27.3921 13.81 27.4408 13.979 27.4418C14.148 27.4427 14.3138 27.3959 14.4574 27.3067C15.6602 26.5584 16.9758 26.0104 18.3531 25.6841C18.5185 25.6462 18.6696 25.5618 18.789 25.4409C18.9083 25.32 18.991 25.1676 19.0273 25.0013L19.4945 22.9052H23.2682L23.7352 25.0019C23.7715 25.1681 23.8542 25.3206 23.9735 25.4415C24.0929 25.5624 24.2441 25.6467 24.4094 25.6847C25.7865 26.0115 27.102 26.5594 28.3051 27.3072C28.4487 27.3964 28.6146 27.4433 28.7835 27.4423C28.9525 27.4414 29.1177 27.3927 29.2604 27.3018L31.0703 26.1475L33.74 28.8268L32.5883 30.6411C32.4977 30.7846 32.4492 30.9508 32.4482 31.1207C32.4473 31.2906 32.4939 31.4574 32.5829 31.6019C33.3281 32.8101 33.8747 34.1308 34.2017 35.5133C34.2393 35.679 34.3232 35.8305 34.4436 35.9499C34.564 36.0694 34.7159 36.1518 34.8814 36.1876L36.9673 36.6542V40.4441H36.967ZM41.9773 17.7833C42.2274 18.0332 42.4257 18.3304 42.5605 18.6577C42.6953 18.985 42.7641 19.336 42.7628 19.6901L42.7469 37.6465H38.7716V35.9303C38.7719 35.7246 38.702 35.5249 38.5736 35.3646C38.4451 35.2042 38.2659 35.0928 38.0656 35.0488L35.8095 34.5449C35.4828 33.3566 35.0104 32.2137 34.403 31.1423L35.645 29.1853C35.7552 29.012 35.8032 28.806 35.781 28.6015C35.7588 28.3971 35.6678 28.2063 35.5229 28.0608L31.8289 24.3579C31.6843 24.2122 31.4944 24.1204 31.2908 24.0977C31.0871 24.0751 30.8818 24.1229 30.7089 24.2332L28.7611 25.4791C27.6929 24.8702 26.5537 24.3961 25.3696 24.0675L24.8711 21.8044C24.8259 21.6038 24.7141 21.4246 24.554 21.2963C24.3938 21.1679 24.195 21.098 23.99 21.0981H18.7727C18.5676 21.0972 18.3683 21.1668 18.208 21.2953C18.0477 21.4238 17.9361 21.6034 17.8916 21.8044L17.3927 24.0671C16.2084 24.3951 15.0692 24.8692 14.0012 25.4787L12.048 24.2328C11.876 24.1226 11.6716 24.0748 11.4688 24.0975C11.266 24.1202 11.077 24.212 10.9334 24.3575L7.23938 28.0604C7.09454 28.2059 7.0035 28.3967 6.98132 28.6011C6.95913 28.8056 7.00712 29.0115 7.11735 29.1849L8.35935 31.1419C7.75027 32.2126 7.27786 33.3559 6.95324 34.5449L4.69747 35.0488C4.49722 35.0928 4.31799 35.2042 4.18959 35.3646C4.06119 35.525 3.99135 35.7246 3.99168 35.9303V37.6465H0.0105471L0 19.6901C5.43868e-05 18.9748 0.282856 18.2888 0.786351 17.7825C1.28985 17.2762 1.97291 16.991 2.68566 16.9896H40.0772C40.4305 16.9892 40.7804 17.0591 41.1065 17.1954C41.4327 17.3316 41.7287 17.5315 41.9773 17.7834V17.7833ZM10.0308 15.0768V0H32.7316V15.0768C32.7307 15.1122 32.7325 15.1476 32.7369 15.1827H10.0259C10.0303 15.1476 10.032 15.1122 10.0311 15.0768H10.0308ZM18.8095 5.54923C18.8108 5.42985 18.7885 5.31139 18.7438 5.20072C18.6992 5.09005 18.6332 4.98937 18.5495 4.90449C18.4658 4.81961 18.3662 4.75223 18.2564 4.70625C18.1467 4.66026 18.0289 4.63658 17.9099 4.63658C17.791 4.63658 17.6732 4.66026 17.5634 4.70625C17.4536 4.75223 17.354 4.81961 17.2703 4.90449C17.1867 4.98937 17.1206 5.09005 17.076 5.20072C17.0313 5.31139 17.009 5.42985 17.0103 5.54923V8.62471C17.009 8.7441 17.0313 8.86255 17.076 8.97322C17.1206 9.08389 17.1867 9.18457 17.2703 9.26945C17.354 9.35433 17.4536 9.42171 17.5634 9.4677C17.6732 9.51368 17.791 9.53736 17.9099 9.53736C18.0289 9.53736 18.1467 9.51368 18.2564 9.4677C18.3662 9.42171 18.4658 9.35433 18.5495 9.26945C18.6332 9.18457 18.6992 9.08389 18.7438 8.97322C18.7885 8.86255 18.8108 8.7441 18.8095 8.62471V5.54923ZM25.7518 5.54923C25.7518 5.30907 25.6567 5.07875 25.4875 4.90893C25.3183 4.73911 25.0888 4.64371 24.8495 4.64371C24.6102 4.64371 24.3807 4.73911 24.2115 4.90893C24.0423 5.07875 23.9472 5.30907 23.9472 5.54923V8.62471C23.9472 8.86487 24.0423 9.09519 24.2115 9.26501C24.3807 9.43483 24.6102 9.53023 24.8495 9.53023C25.0888 9.53023 25.3183 9.43483 25.4875 9.26501C25.6567 9.09519 25.7518 8.86487 25.7518 8.62471V5.54923Z" fill="url(#paint0_linear_4538_301)"/>
<defs>
<linearGradient id="paint0_linear_4538_301" x1="21.3814" y1="0" x2="21.3814" y2="54.1935" gradientUnits="userSpaceOnUse">
<stop stop-color="#FA612F"/>
<stop offset="0.58" stop-color="#FB4A55"/>
<stop offset="1" stop-color="#E620AF"/>
</linearGradient>
</defs>
</svg>
