<svg width="47" height="47" viewBox="0 0 47 47" fill="none" xmlns="http://www.w3.org/2000/svg">
<path d="M5.20093 19.1133C18.9617 19.1133 32.7224 19.1133 46.9001 19.1133C46.9082 22.9362 46.9163 26.759 46.9246 30.6978C46.9281 31.9058 46.9317 33.1139 46.9353 34.3586C46.9371 35.8313 46.9371 35.8313 46.9374 36.5202C46.9378 37.0024 46.9393 37.4847 46.9414 37.9669C46.9441 38.5816 46.9449 39.1964 46.9443 39.8111C46.9444 40.0369 46.9452 40.2628 46.9467 40.4886C46.9487 40.7933 46.9482 41.0979 46.9471 41.4026C46.9483 41.4913 46.9494 41.58 46.9506 41.6714C46.9455 42.2087 46.8681 42.5155 46.5095 42.9414C46.1252 43.2799 45.901 43.4419 45.3916 43.4417C45.2538 43.442 45.2538 43.442 45.1132 43.4423C45.0115 43.442 44.9099 43.4417 44.8051 43.4414C44.6977 43.4415 44.5903 43.4416 44.4796 43.4417C44.1171 43.4418 43.7547 43.4413 43.3923 43.4408C43.1335 43.4407 42.8746 43.4408 42.6158 43.4408C42.0573 43.4409 41.4988 43.4406 40.9403 43.44C40.1328 43.4392 39.3252 43.439 38.5177 43.4388C37.2077 43.4386 35.8977 43.438 34.5876 43.4371C33.3148 43.4362 32.042 43.4355 30.7692 43.4351C30.6516 43.435 30.6516 43.435 30.5316 43.435C30.1382 43.4348 29.7448 43.4347 29.3515 43.4346C26.0864 43.4336 22.8214 43.4319 19.5564 43.4297C19.4387 43.1964 19.3231 42.9625 19.2085 42.7278C19.1751 42.662 19.1417 42.5962 19.1072 42.5285C18.8675 42.0321 18.8675 42.0321 18.8945 41.6889C18.9827 41.4424 19.0772 41.2063 19.1902 40.97C19.229 40.886 19.2677 40.802 19.3077 40.7155C19.5033 40.4364 19.6197 40.4016 19.947 40.3047C20.2414 40.2767 20.5343 40.2777 20.8299 40.2788C20.9189 40.2784 21.008 40.278 21.0998 40.2775C21.3983 40.2763 21.6968 40.2765 21.9953 40.2766C22.2093 40.2761 22.4233 40.2754 22.6373 40.2746C23.0981 40.2732 23.559 40.2723 24.0198 40.2719C24.7481 40.2713 25.4763 40.2691 26.2046 40.2668C27.2253 40.2636 28.246 40.261 29.2667 40.259C29.3314 40.2588 29.3962 40.2587 29.4629 40.2586C29.9883 40.2575 30.5137 40.2565 31.0391 40.2555C31.4986 40.2546 31.958 40.2537 32.4174 40.2528C32.4821 40.2526 32.5468 40.2525 32.6135 40.2524C33.6919 40.2502 34.7703 40.2472 35.8486 40.2437C36.573 40.2415 37.2974 40.2401 38.0218 40.2395C38.4718 40.2389 38.9219 40.2375 39.372 40.2359C39.5811 40.2354 39.7902 40.2351 39.9993 40.2352C40.2842 40.2354 40.5691 40.2343 40.8539 40.2329C40.9372 40.2332 41.0205 40.2336 41.1062 40.2339C41.643 40.2361 41.643 40.2361 42.115 40.0117C42.2516 39.7384 42.2373 39.5327 42.2126 39.2305C42.1222 39.0514 42.1222 39.0514 41.9197 38.9375C41.639 38.9082 41.3793 38.8969 41.0985 38.8986C41.0137 38.8979 40.9289 38.8973 40.8415 38.8966C40.5563 38.8948 40.2712 38.895 39.9859 38.8953C39.7819 38.8944 39.5779 38.8934 39.3739 38.8923C38.8191 38.8896 38.2642 38.8887 37.7094 38.8881C37.1299 38.8872 36.5505 38.8846 35.971 38.8822C34.8733 38.8779 33.7755 38.8752 32.6778 38.8729C31.4282 38.8703 30.1786 38.866 28.9291 38.8616C26.3582 38.8525 23.7874 38.8455 21.2166 38.8398C21.2166 37.6475 21.2166 36.4551 21.2166 35.2266C20.8943 35.1299 20.572 35.0332 20.24 34.9336C20.24 34.9014 20.24 34.8691 20.24 34.8359C20.3498 34.8355 20.4595 34.8351 20.5726 34.8347C23.2418 34.8246 25.911 34.814 28.5801 34.8028C29.8709 34.7974 31.1617 34.7922 32.4525 34.7874C33.5773 34.7832 34.7022 34.7787 35.827 34.7737C36.4228 34.7711 37.0186 34.7687 37.6144 34.7667C38.1749 34.7648 38.7354 34.7624 39.2959 34.7597C39.5018 34.7588 39.7078 34.7581 39.9137 34.7575C40.1945 34.7567 40.4753 34.7553 40.7561 34.7537C40.8379 34.7536 40.9197 34.7535 41.0039 34.7534C41.3872 34.7507 41.7408 34.735 42.115 34.6406C42.1394 34.5006 42.1613 34.3601 42.1821 34.2195C42.1946 34.1413 42.2071 34.0631 42.2199 33.9826C42.2341 33.7576 42.2341 33.7576 42.0905 33.6038C41.8831 33.4399 41.7853 33.4319 41.5237 33.4312C41.4428 33.4303 41.362 33.4293 41.2787 33.4284C41.1898 33.4289 41.101 33.4293 41.0095 33.4298C40.9151 33.4292 40.8208 33.4285 40.7235 33.4278C40.406 33.426 40.0884 33.4263 39.7708 33.4265C39.5437 33.4256 39.3166 33.4246 39.0895 33.4235C38.4717 33.4208 37.8539 33.4199 37.2361 33.4193C36.6563 33.4185 36.0765 33.4163 35.4966 33.4142C34.3481 33.41 33.1995 33.407 32.0509 33.4049C30.9351 33.4029 29.8192 33.4002 28.7034 33.3967C28.6346 33.3965 28.5659 33.3963 28.495 33.3961C28.1501 33.395 27.8051 33.3939 27.4601 33.3928C24.5977 33.3837 21.7353 33.3767 18.8728 33.3711C18.9189 33.2301 18.9653 33.0891 19.0117 32.9482C19.0375 32.8697 19.0633 32.7912 19.0899 32.7103C19.1992 32.3962 19.3474 32.1073 19.5003 31.8128C19.5774 31.6144 19.5774 31.6144 19.4875 31.4315C19.3378 31.1842 19.1651 31.008 18.9575 30.8069C18.8395 30.6911 18.8395 30.6911 18.7191 30.573C18.6369 30.4933 18.5547 30.4136 18.47 30.3315C18.3065 30.173 18.1435 30.0141 17.9809 29.8547C17.9085 29.7846 17.8361 29.7144 17.7615 29.6422C17.6033 29.4648 17.6033 29.4648 17.6033 29.2695C17.6858 29.2692 17.7684 29.2688 17.8534 29.2685C18.6308 29.2648 19.4082 29.2592 20.1856 29.2516C20.5853 29.2477 20.9849 29.2446 21.3846 29.2431C21.7703 29.2416 22.1558 29.2382 22.5415 29.2336C22.6887 29.2321 22.8359 29.2313 22.9831 29.2313C23.1891 29.231 23.395 29.2284 23.601 29.2252C23.7184 29.2243 23.8357 29.2235 23.9566 29.2226C24.2514 29.1981 24.2514 29.1981 24.4306 28.9919C24.5593 28.7761 24.5593 28.7761 24.5369 28.4822C24.464 28.19 24.464 28.19 24.2552 28.0335C23.8034 27.8387 23.3786 27.8594 22.8915 27.8601C22.7847 27.8591 22.678 27.8581 22.568 27.8571C22.2155 27.8542 21.8631 27.8533 21.5107 27.8524C21.2661 27.8507 21.0216 27.849 20.7771 27.8471C20.1995 27.8429 19.622 27.84 19.0444 27.8378C18.3221 27.8348 17.5998 27.8299 16.8775 27.8251C15.5895 27.8167 14.3015 27.8101 13.0134 27.8047C12.8845 27.4502 12.7556 27.0957 12.6228 26.7305C11.1082 26.6982 9.59351 26.666 8.03296 26.6328C7.93628 26.9551 7.8396 27.2773 7.73999 27.6094C7.4983 28.3848 7.4983 28.3848 7.10942 28.655C6.58103 28.9174 6.17547 29.0577 5.59155 28.8789C5.46265 28.8145 5.33374 28.75 5.20093 28.6836C5.20093 25.5254 5.20093 22.3672 5.20093 19.1133ZM9.98608 22.5312C9.79985 22.7796 9.7902 22.9078 9.80298 23.2209C9.90449 23.5617 9.97657 23.6252 10.2791 23.8008C10.5486 23.8452 10.5486 23.8452 10.8492 23.8393C11.024 23.841 11.024 23.841 11.2023 23.8427C11.3298 23.8424 11.4573 23.8421 11.5886 23.8418C11.7245 23.8425 11.8604 23.8433 11.9963 23.8443C12.3651 23.8465 12.7339 23.8468 13.1028 23.8466C13.4107 23.8466 13.7187 23.8474 14.0267 23.8482C14.7533 23.8501 15.4798 23.8504 16.2064 23.8497C16.9559 23.8491 17.7053 23.8513 18.4547 23.8549C19.0983 23.8579 19.7419 23.859 20.3855 23.8586C20.7698 23.8584 21.1541 23.859 21.5384 23.8614C21.8999 23.8635 22.2612 23.8634 22.6227 23.8614C22.8184 23.8609 23.0141 23.8628 23.2098 23.8648C23.8949 23.8833 23.8949 23.8833 24.473 23.572C24.6614 23.3203 24.6614 23.3203 24.6345 23.0073C24.5099 22.6491 24.3837 22.5035 24.0486 22.3359C23.8688 22.3264 23.6887 22.3232 23.5087 22.3229C23.3939 22.3225 23.2792 22.322 23.161 22.3216C23.0345 22.3217 22.9079 22.3217 22.7776 22.3218C22.6435 22.3215 22.5094 22.3211 22.3753 22.3208C22.0105 22.3199 21.6457 22.3197 21.2809 22.3196C20.9766 22.3195 20.6722 22.3192 20.3679 22.3188C19.65 22.318 18.932 22.3178 18.2141 22.3178C17.4731 22.3179 16.7321 22.3169 15.9911 22.3153C15.3553 22.3141 14.7195 22.3135 14.0837 22.3136C13.7038 22.3136 13.3239 22.3133 12.944 22.3123C12.5867 22.3114 12.2294 22.3113 11.872 22.3121C11.6783 22.3122 11.4845 22.3114 11.2908 22.3106C11.1755 22.311 11.0602 22.3114 10.9414 22.3118C10.8412 22.3117 10.741 22.3117 10.6377 22.3116C10.3696 22.3366 10.2119 22.3877 9.98608 22.5312ZM35.572 22.6289C35.4656 22.8703 35.3915 23.0789 35.3248 23.3308C35.2949 23.4347 35.2949 23.4347 35.2644 23.5408C35.2025 23.7573 35.1431 23.9743 35.0837 24.1914C35.0468 24.321 35.0097 24.4505 34.9724 24.5799C34.8604 24.9707 34.7521 25.3625 34.6447 25.7547C34.6255 25.8247 34.6063 25.8947 34.5865 25.9669C34.4857 26.3353 34.3853 26.7039 34.2852 27.0726C34.2028 27.3755 34.1195 27.6781 34.0354 27.9805C33.9327 28.3498 33.8316 28.7195 33.7317 29.0896C33.6936 29.2294 33.6551 29.369 33.6159 29.5085C33.5615 29.7026 33.5092 29.8972 33.4574 30.092C33.4272 30.2022 33.397 30.3125 33.3659 30.426C33.3194 30.7851 33.3763 30.9913 33.5212 31.3203C33.6809 31.5214 33.6809 31.5214 33.9119 31.6133C34.2136 31.6213 34.2136 31.6213 34.4978 31.5156C34.7433 31.2446 34.8487 30.9964 34.9422 30.6459C34.9695 30.5454 34.9969 30.4449 35.025 30.3413C35.0545 30.2293 35.0839 30.1173 35.1143 30.002C35.1636 29.8176 35.2129 29.6332 35.2622 29.4488C35.2995 29.3095 35.3367 29.1701 35.3737 29.0306C35.5243 28.4653 35.6806 27.9016 35.8384 27.3382C35.9668 26.8791 36.0938 26.4196 36.2206 25.96C36.2846 25.7292 36.3491 25.4986 36.4142 25.2682C36.5066 24.9403 36.5968 24.6119 36.6867 24.2833C36.7151 24.1843 36.7435 24.0852 36.7728 23.9831C36.9101 23.4727 37.0031 23.1207 36.7439 22.6289C36.3291 22.2275 36.0126 22.2813 35.572 22.6289ZM31.2751 23.7764C31.1822 23.8567 31.0893 23.937 30.9936 24.0197C30.9197 24.0852 30.9197 24.0852 30.8444 24.152C30.6286 24.3426 30.4093 24.5289 30.1901 24.7156C30.0749 24.814 29.9601 24.9128 29.8457 25.0121C29.5541 25.265 29.2599 25.5121 28.9562 25.7505C28.8977 25.7973 28.8392 25.844 28.779 25.8922C28.6681 25.9806 28.5562 26.0675 28.443 26.1527C28.1526 26.3867 28.0549 26.5262 27.9583 26.8911C27.9545 27.2513 28.0176 27.3869 28.265 27.6445C28.5702 27.919 28.8873 28.1772 29.208 28.4333C29.5504 28.7077 29.8813 28.9947 30.2131 29.2817C30.3848 29.4288 30.5566 29.5756 30.7286 29.7222C30.8683 29.8416 31.0073 29.9618 31.1462 30.0821C31.4654 30.3475 31.6764 30.521 32.0869 30.6062C32.4237 30.52 32.5465 30.4387 32.74 30.1484C32.7924 29.8167 32.7924 29.8167 32.74 29.4648C32.5469 29.2029 32.5469 29.2029 32.27 28.9888C32.1722 28.9059 32.0744 28.8231 31.9736 28.7378C31.8711 28.6545 31.7685 28.5713 31.6658 28.4883C31.524 28.3708 31.524 28.3708 31.3793 28.251C31.1997 28.103 31.0194 27.9559 30.8384 27.8096C30.5228 27.5536 30.215 27.2896 29.908 27.0234C30.6724 26.2508 31.4816 25.5371 32.3284 24.8567C32.682 24.583 32.682 24.583 32.7766 24.1548C32.768 23.8027 32.768 23.8027 32.5813 23.5627C32.0743 23.2292 31.6965 23.405 31.2751 23.7764ZM37.5251 23.8008C37.4727 24.1325 37.4727 24.1325 37.5251 24.4844C37.7182 24.7463 37.7182 24.7463 37.9951 24.9604C38.0929 25.0433 38.1907 25.1261 38.2915 25.2115C38.394 25.2948 38.4966 25.3779 38.5994 25.4609C38.7412 25.5784 38.7412 25.5784 38.8858 25.6982C39.0655 25.8462 39.2457 25.9933 39.4268 26.1396C39.7423 26.3956 40.0501 26.6596 40.3572 26.9258C39.5928 27.6984 38.7836 28.4122 37.9368 29.0925C37.5831 29.3662 37.5831 29.3662 37.4885 29.7944C37.4972 30.1465 37.4972 30.1465 37.6838 30.3865C37.9895 30.5876 38.1394 30.5845 38.5017 30.5391C38.7264 30.3848 38.9086 30.2402 39.106 30.0569C39.2183 29.9571 39.3307 29.8574 39.4432 29.7578C39.4986 29.708 39.5541 29.6581 39.6112 29.6068C39.8357 29.4077 40.0685 29.2196 40.3022 29.0315C40.3875 28.9614 40.4727 28.8913 40.5605 28.819C40.714 28.6934 40.8679 28.5682 41.0234 28.445C41.2136 28.2942 41.4019 28.1412 41.5901 27.9878C41.6503 27.941 41.7105 27.8943 41.7726 27.8461C42.0875 27.5858 42.1997 27.4613 42.3111 27.054C42.3102 26.6983 42.2447 26.5593 42.0002 26.3047C41.695 26.0303 41.3778 25.772 41.0572 25.5159C40.7148 25.2415 40.3838 24.9545 40.052 24.6675C39.8804 24.5204 39.7085 24.3736 39.5365 24.227C39.3968 24.1076 39.2578 23.9874 39.1189 23.8672C38.7997 23.6017 38.5888 23.4282 38.1782 23.343C37.8414 23.4292 37.7186 23.5106 37.5251 23.8008Z" fill="url(#paint0_linear_4538_342)"/>
<path d="M2.78111 0.00788106C2.9437 0.0073881 3.10629 0.00668198 3.26888 0.00578163C3.71472 0.00393454 4.1605 0.00512799 4.60634 0.00682879C5.0875 0.00813496 5.56866 0.00662728 6.04982 0.00547899C6.99198 0.00368417 7.93413 0.00451582 8.87629 0.00626886C9.64189 0.0076384 10.4075 0.00801878 11.1731 0.00769051C11.282 0.00764389 11.391 0.00759726 11.5032 0.00754922C11.7245 0.007449 11.9459 0.00734593 12.1672 0.00724007C14.1242 0.00640341 16.0812 0.00803207 18.0382 0.0109343C19.9377 0.0137512 21.8372 0.0144419 23.7367 0.012937C25.8049 0.0113008 27.8731 0.0109053 29.9412 0.0126158C30.1617 0.0127959 30.3821 0.0129751 30.6026 0.0131533C30.7653 0.0132869 30.7653 0.0132869 30.9313 0.0134232C31.6962 0.013971 32.4611 0.0136473 33.2259 0.0130024C34.1578 0.012248 35.0896 0.0129038 36.0214 0.0153632C36.4969 0.0165852 36.9725 0.0171816 37.448 0.0160916C37.8832 0.015113 38.3183 0.0159325 38.7534 0.0181991C38.911 0.0187041 39.0686 0.0185484 39.2262 0.0176723C39.4401 0.0165814 39.654 0.0178884 39.8679 0.0197982C39.9869 0.0199145 40.1058 0.0200309 40.2283 0.0201508C40.8799 0.118794 41.2525 0.543327 41.6267 1.04579C42.1415 2.59018 41.7244 4.30067 41.7244 5.9286C27.9636 5.9286 14.2029 5.9286 0.0251465 5.9286C0.0251465 0.99413 0.0251465 0.99413 0.569126 0.386097C1.23582 -0.0713461 2.00621 0.00170942 2.78111 0.00788106ZM4.8103 2.31532C4.58291 2.62934 4.56181 2.91202 4.61499 3.29188C4.84172 3.64532 4.99195 3.83755 5.39014 3.98158C5.75954 3.97404 5.96499 3.87988 6.27515 3.68251C6.5166 3.32032 6.5343 3.02819 6.47046 2.60829C6.32051 2.31464 6.21471 2.16534 5.89711 2.05859C5.45067 1.97842 5.16743 2.01071 4.8103 2.31532ZM8.71655 2.31532C8.47692 2.67476 8.4415 2.97213 8.52124 3.38954C8.7415 3.68532 8.90709 3.8358 9.24756 3.97548C9.67308 3.97548 9.96577 3.79655 10.2668 3.50551C10.4157 3.21597 10.4162 3.02806 10.3767 2.70595C10.2504 2.42812 10.151 2.26473 9.90063 2.08949C9.41711 1.93306 9.12315 2.01862 8.71655 2.31532ZM12.4275 2.51063C12.3126 2.88922 12.2908 3.09309 12.4336 3.46278C12.6753 3.74344 12.8557 3.86006 13.2087 3.97548C13.6486 3.9224 13.8338 3.84308 14.1365 3.51771C14.3193 3.11389 14.323 2.93124 14.1853 2.51063C13.9036 2.20272 13.7169 2.04684 13.3064 1.96132C12.8959 2.04684 12.7092 2.20272 12.4275 2.51063Z" fill="url(#paint1_linear_4538_342)"/>
<path d="M7.31866 11.7731C7.3845 11.7729 7.45034 11.7726 7.51817 11.7724C7.73979 11.7717 7.96141 11.7718 8.18304 11.7718C8.34314 11.7715 8.50324 11.7711 8.66334 11.7707C9.10409 11.7698 9.54485 11.7694 9.98561 11.7691C10.4607 11.7687 10.9357 11.7678 11.4107 11.767C12.5583 11.765 13.7058 11.764 14.8534 11.7632C15.3936 11.7628 15.9338 11.7622 16.474 11.7617C18.2695 11.7601 20.0649 11.7586 21.8603 11.7579C22.3263 11.7577 22.7922 11.7576 23.2582 11.7574C23.374 11.7573 23.4898 11.7573 23.6091 11.7572C25.486 11.7564 27.3629 11.7539 29.2398 11.7508C31.1661 11.7475 33.0924 11.7458 35.0188 11.7455C36.1006 11.7453 37.1824 11.7444 38.2643 11.7419C39.1854 11.7398 40.1065 11.739 41.0276 11.7399C41.4977 11.7404 41.9677 11.7402 42.4377 11.7383C42.8681 11.7366 43.2984 11.7367 43.7288 11.7382C43.8844 11.7384 44.04 11.738 44.1956 11.7369C45.6528 11.7267 45.6528 11.7267 46.3142 12.1768C46.5529 12.4124 46.7492 12.6562 46.9001 12.9581C46.9001 14.5049 46.9001 16.0518 46.9001 17.6456C33.1394 17.6456 19.3787 17.6456 5.20093 17.6456C5.20093 13.0557 5.20093 13.0557 5.68921 12.2745C6.23847 11.8373 6.63068 11.7741 7.31866 11.7731ZM9.88843 14.3253C9.77114 14.6771 9.75636 14.8333 9.90674 15.1736C10.1674 15.5062 10.3316 15.6676 10.7551 15.7413C11.1797 15.6733 11.358 15.5192 11.6462 15.2042C11.7762 14.8722 11.7762 14.8722 11.7439 14.5206C11.5261 14.1047 11.5261 14.1047 11.158 13.837C10.5465 13.7768 10.2692 13.7945 9.88843 14.3253ZM13.7947 14.2276C13.6433 14.5304 13.6687 14.7724 13.697 15.1065C13.8214 15.4023 13.8214 15.4023 14.0876 15.5948C14.3861 15.69 14.6545 15.7225 14.9666 15.6924C15.2518 15.5201 15.404 15.4035 15.5525 15.1065C15.6105 14.5327 15.6105 14.5327 15.3572 14.0323C15.0298 13.814 14.8563 13.7706 14.4718 13.7946C14.1749 13.8612 14.003 14.013 13.7947 14.2276ZM17.6033 14.3253C17.4666 14.6584 17.4926 14.7794 17.6216 15.1187C17.7971 15.3971 17.8985 15.543 18.1892 15.6924C18.5332 15.7364 18.7274 15.7142 19.0437 15.5704C19.3745 15.3131 19.4428 15.134 19.4954 14.722C19.4499 14.351 19.3255 14.1996 19.0681 13.9346C18.4621 13.6316 17.9825 13.8081 17.6033 14.3253Z" fill="url(#paint2_linear_4538_342)"/>
<path d="M0.0252111 7.39453C13.786 7.39453 27.5467 7.39453 41.7244 7.39453C41.7244 8.36133 41.7244 9.32813 41.7244 10.3242C41.2862 10.3248 40.8479 10.3254 40.3963 10.326C36.377 10.3313 32.3576 10.3382 28.3382 10.3466C27.8114 10.3477 27.2845 10.3488 26.7577 10.3498C26.6004 10.3502 26.6004 10.3502 26.4399 10.3505C24.7418 10.354 23.0437 10.3564 21.3457 10.3584C19.6032 10.3606 17.8607 10.3638 16.1183 10.368C15.0431 10.3706 13.968 10.3724 12.8929 10.373C12.1555 10.3735 11.4182 10.3751 10.6809 10.3775C10.2555 10.3789 9.83017 10.3798 9.40482 10.3794C9.01504 10.3791 8.62528 10.3801 8.2355 10.3822C8.09485 10.3827 7.9542 10.3827 7.81355 10.3822C6.64509 10.3783 5.61677 10.5041 4.71271 11.3008C3.87648 12.2867 3.79593 13.2285 3.83342 14.469C3.83686 14.6217 3.84013 14.7743 3.84324 14.927C3.85002 15.255 3.85749 15.5829 3.86534 15.9109C3.87727 16.4322 3.88434 16.9535 3.89017 17.4749C3.89166 17.6075 3.89166 17.6075 3.89319 17.7427C3.89621 18.0149 3.89916 18.287 3.90209 18.5592C3.91419 19.6804 3.92962 20.8012 3.96069 21.922C3.98338 22.7414 3.99635 23.5604 3.99859 24.3801C4.00013 24.8126 4.00614 25.2439 4.02406 25.6761C4.08857 27.2937 4.10174 28.635 2.97151 29.8914C2.5711 30.3106 2.14779 30.7049 1.70492 31.0789C1.6501 31.1253 1.59528 31.1716 1.5388 31.2194C1.161 31.5177 1.161 31.5177 0.882296 31.5082C0.475668 31.2967 0.198156 30.9568 0.0252111 30.5391C0.00095357 30.3421 0.00095357 30.3421 0.00117831 30.1295C0.000789468 30.0481 0.000400625 29.9667 0 29.8828C0.000568879 29.7939 0.00113776 29.705 0.00172388 29.6134C0.00155669 29.5188 0.0013895 29.4242 0.00121724 29.3267C0.000893289 29.0078 0.00197386 28.689 0.00303816 28.3701C0.00309797 28.1383 0.00307195 27.9066 0.00296682 27.6748C0.00292266 27.053 0.0040562 26.4313 0.0054298 25.8096C0.00654054 25.2265 0.00659438 24.6435 0.00673365 24.0605C0.00775928 22.3545 0.0104861 20.6484 0.0130041 18.9424C0.0170324 15.1316 0.0210607 11.3208 0.0252111 7.39453Z" fill="url(#paint3_linear_4538_342)"/>
<path d="M9.00952 28.0977C9.87964 28.0977 10.7498 28.0977 11.6462 28.0977C11.8074 28.4844 11.9685 28.8711 12.1345 29.2695C12.2873 29.6777 12.2873 29.6777 12.6205 29.7914C12.7381 29.8286 12.8557 29.8659 12.9768 29.9043C13.3815 30.0346 13.7545 30.1683 14.1182 30.3926C14.5577 30.5714 14.7263 30.518 15.1516 30.3453C15.3308 30.2588 15.5061 30.1646 15.6807 30.0691C15.9431 29.9531 15.9431 29.9531 16.1309 30.0221C16.5171 30.2627 16.8229 30.5933 17.1455 30.9114C17.2191 30.9809 17.2927 31.0505 17.3685 31.1221C17.4375 31.1902 17.5066 31.2582 17.5777 31.3283C17.6412 31.39 17.7047 31.4516 17.7701 31.5152C17.8962 31.7109 17.8962 31.7109 17.8733 31.9651C17.7735 32.2779 17.6353 32.5616 17.49 32.8553C17.3632 33.1997 17.3595 33.4501 17.501 33.7899C17.5428 33.8652 17.5846 33.9405 17.6277 34.0181C17.8262 34.3815 17.9353 34.7029 18.0305 35.1045C18.1227 35.3824 18.1975 35.5591 18.447 35.7213C18.872 35.9312 19.2951 36.0575 19.7517 36.2031C19.7517 37.1055 19.7517 38.0078 19.7517 38.9375C18.4822 39.4258 18.4822 39.4258 18.1892 39.4258C18.156 39.6101 18.156 39.6101 18.1221 39.7981C18.0186 40.2736 17.8318 40.6836 17.6151 41.1176C17.4396 41.5365 17.3614 41.8262 17.5087 42.2647C17.556 42.3631 17.6033 42.4616 17.6521 42.563C17.9022 43.0857 17.9022 43.0857 17.8744 43.3252C17.7187 43.7405 17.3549 44.0294 17.0479 44.3391C16.9787 44.4127 16.9095 44.4863 16.8382 44.5621C16.3201 45.0869 16.3201 45.0869 15.9202 45.1009C15.6006 44.9722 15.2965 44.8322 14.9906 44.674C14.4027 44.4798 13.7884 44.9113 13.2644 45.1509C12.9047 45.2894 12.6128 45.3439 12.2322 45.3828C12.2144 45.4465 12.1967 45.5102 12.1784 45.5758C12.1538 45.6612 12.1293 45.7465 12.104 45.8345C12.0802 45.9183 12.0564 46.0022 12.0319 46.0885C11.9392 46.3594 11.9392 46.3594 11.6462 46.9453C10.7761 46.9453 9.90601 46.9453 9.00952 46.9453C8.94507 46.7157 8.88062 46.4861 8.81421 46.2495C8.65772 45.796 8.50003 45.4798 8.05737 45.263C7.72703 45.1329 7.38904 45.0382 7.04541 44.9501C6.7724 44.8678 6.52886 44.7301 6.27515 44.6016C5.80506 44.612 5.43183 44.8079 5.02011 45.0174C4.76277 45.1063 4.67334 45.086 4.41968 44.9922C4.22293 44.8287 4.22293 44.8287 4.01837 44.6195C3.90791 44.5076 3.90791 44.5076 3.79521 44.3935C3.7193 44.3151 3.64339 44.2367 3.56519 44.156C3.44906 44.0379 3.44906 44.0379 3.33058 43.9174C3.13955 43.7229 2.94924 43.5278 2.75952 43.332C2.80425 43.192 2.84949 43.0522 2.89494 42.9124C2.92008 42.8345 2.94522 42.7566 2.97112 42.6764C3.05249 42.4531 3.05249 42.4531 3.22949 42.1357C3.37658 41.8771 3.37658 41.8771 3.27031 41.6417C3.23066 41.555 3.191 41.4683 3.15015 41.3789C2.65412 40.2263 2.65412 40.2263 2.59473 39.7615C2.50652 39.4161 2.50652 39.4161 2.25865 39.3235C2.00562 39.2458 2.00562 39.2458 1.75397 39.198C1.48999 39.1328 1.48999 39.1328 0.904053 38.8398C0.904053 37.9697 0.904053 37.0996 0.904053 36.2031C1.25452 36.0883 1.25452 36.0883 1.61206 35.9712C2.13269 35.7777 2.13269 35.7777 2.53255 35.4089C2.62452 35.1767 2.62452 35.1767 2.68285 34.9229C2.75952 34.6406 2.75952 34.6406 2.9308 34.3217C3.26734 33.7373 3.26734 33.7373 3.31084 33.0851C3.20081 32.7663 3.05504 32.49 2.88922 32.1954C2.75952 31.9062 2.75952 31.9062 2.82652 31.7166C2.96953 31.4926 3.12627 31.3221 3.3157 31.1357C3.38557 31.0664 3.45544 30.9972 3.52742 30.9259C3.60031 30.8546 3.67319 30.7834 3.74829 30.71C3.85876 30.6008 3.85876 30.6008 3.97145 30.4895C4.15298 30.3102 4.33495 30.1315 4.51733 29.9531C4.65747 29.9978 4.79744 30.0431 4.93733 30.0885C5.01529 30.1137 5.09326 30.1388 5.17358 30.1647C5.39624 30.2461 5.39624 30.2461 5.70752 30.4231C6.13568 30.6039 6.44206 30.3941 6.85765 30.2282C6.95345 30.1878 7.04925 30.1473 7.14795 30.1057C7.29127 30.0455 7.29127 30.0455 7.43748 29.984C7.53731 29.9416 7.63714 29.8992 7.73999 29.8555C7.91711 29.7984 7.91711 29.7984 8.09781 29.7403C8.53233 29.5032 8.60969 29.2649 8.75928 28.8118C8.84186 28.5761 8.92444 28.3405 9.00952 28.0977ZM6.95874 34.7383C6.11441 35.8087 5.86771 36.9054 5.98218 38.2539C6.18254 39.366 6.79661 40.3989 7.69879 41.081C8.82166 41.829 9.9321 42.1095 11.2739 41.855C12.4706 41.5607 13.4676 40.8713 14.1304 39.8164C14.217 39.6554 14.3007 39.4926 14.3806 39.3281C14.4137 39.2637 14.4468 39.1992 14.4809 39.1328C14.8555 38.2492 14.8175 36.9972 14.5149 36.0994C13.9407 34.7864 13.0667 33.9175 11.7439 33.3711C10.0043 32.706 8.16761 33.4526 6.95874 34.7383Z" fill="url(#paint4_linear_4538_342)"/>
<defs>
<linearGradient id="paint0_linear_4538_342" x1="26.0757" y1="19.1133" x2="26.0757" y2="43.4423" gradientUnits="userSpaceOnUse">
<stop stop-color="#FA612F"/>
<stop offset="0.58" stop-color="#FB4A55"/>
<stop offset="1" stop-color="#E620AF"/>
</linearGradient>
<linearGradient id="paint1_linear_4538_342" x1="20.9545" y1="0" x2="20.9545" y2="5.9286" gradientUnits="userSpaceOnUse">
<stop stop-color="#FA612F"/>
<stop offset="0.58" stop-color="#FB4A55"/>
<stop offset="1" stop-color="#E620AF"/>
</linearGradient>
<linearGradient id="paint2_linear_4538_342" x1="26.0505" y1="11.7344" x2="26.0505" y2="17.6456" gradientUnits="userSpaceOnUse">
<stop stop-color="#FA612F"/>
<stop offset="0.58" stop-color="#FB4A55"/>
<stop offset="1" stop-color="#E620AF"/>
</linearGradient>
<linearGradient id="paint3_linear_4538_342" x1="20.8622" y1="7.39453" x2="20.8622" y2="31.5109" gradientUnits="userSpaceOnUse">
<stop stop-color="#FA612F"/>
<stop offset="0.58" stop-color="#FB4A55"/>
<stop offset="1" stop-color="#E620AF"/>
</linearGradient>
<linearGradient id="paint4_linear_4538_342" x1="10.3279" y1="28.0977" x2="10.3279" y2="46.9453" gradientUnits="userSpaceOnUse">
<stop stop-color="#FA612F"/>
<stop offset="0.58" stop-color="#FB4A55"/>
<stop offset="1" stop-color="#E620AF"/>
</linearGradient>
</defs>
</svg>
