<svg width="52" height="51" viewBox="0 0 52 51" fill="none" xmlns="http://www.w3.org/2000/svg">
<path d="M9.91802 0.347656C9.91614 0.478163 9.91425 0.60867 9.91231 0.743131C9.89534 1.98437 9.8861 3.22546 9.88408 4.46682C9.8828 5.10476 9.87898 5.74246 9.86893 6.38033C9.69838 10.1938 9.69838 10.1938 11.27 13.5369C11.5347 13.872 11.7356 14.2387 11.9429 14.6108C12.0232 14.747 12.1038 14.883 12.1849 15.0187C12.5948 15.7112 12.9939 16.41 13.3941 17.1081C13.7152 17.6668 14.0401 18.2225 14.3753 18.7729C14.468 18.9261 14.468 18.9261 14.5626 19.0823C14.6799 19.2753 14.7982 19.4678 14.9177 19.6595C14.9698 19.7454 15.0219 19.8313 15.0755 19.9199C15.1216 19.9945 15.1678 20.0692 15.2153 20.1461C15.3008 20.3555 15.3008 20.3555 15.2783 20.5773C15.1993 20.7617 15.1993 20.7617 14.9719 20.8982C12.08 21.9859 9.00733 22.0021 6.16021 20.7617C5.26468 20.3354 4.47091 19.7858 3.72271 19.1367C3.59781 19.0338 3.59781 19.0338 3.47039 18.9288C1.58149 17.3215 0.414329 14.9788 0.0664618 12.5352C-0.0236946 10.9229 -0.0460717 9.30442 0.472712 7.76172C0.508322 7.64965 0.543932 7.53758 0.580622 7.42212C1.51133 4.75926 3.47558 2.57525 6.00668 1.33551C7.21925 0.777561 8.57177 0.347656 9.91802 0.347656Z" fill="url(#paint0_linear_4538_280)"/>
<path d="M37.6198 22.0224C39.798 23.909 41.377 26.3723 41.6061 29.3032C41.7814 32.2226 41.0385 35.0273 39.0946 37.2635C37.3316 39.2267 34.8894 40.6628 32.2131 40.8722C28.9227 40.9897 26.1188 40.1487 23.6771 37.8809C21.6638 35.8771 20.5593 33.2113 20.5319 30.3696C20.5605 27.4041 21.7719 24.6895 23.8832 22.6158C25.2225 21.3403 26.9262 20.512 28.7076 20.061C28.8035 20.0361 28.8993 20.0113 28.998 19.9856C31.9376 19.3654 35.269 20.1552 37.6198 22.0224ZM24.8483 24.7329C23.2398 26.5823 22.566 28.8094 22.7155 31.2329C22.9552 33.4701 24.0665 35.3814 25.7322 36.8593C27.5202 38.2907 29.7815 38.9687 32.065 38.7263C32.9978 38.6001 33.8523 38.3515 34.6998 37.936C34.7936 37.8911 34.8873 37.8462 34.9839 37.7999C36.9043 36.8207 38.3448 35.1241 39.0638 33.0983C39.7605 30.8234 39.6166 28.5254 38.5211 26.3904C37.292 24.2462 35.4416 22.8674 33.0784 22.166C30.0681 21.4454 26.9427 22.4945 24.8483 24.7329Z" fill="url(#paint1_linear_4538_280)"/>
<path d="M10.4208 27.4525C10.5464 27.4506 10.5464 27.4506 10.6746 27.4486C10.7652 27.4478 10.8559 27.4471 10.9493 27.4463C11.0425 27.4455 11.1357 27.4447 11.2317 27.4438C11.4292 27.4424 11.6266 27.4413 11.8241 27.4405C12.1257 27.4388 12.4272 27.4343 12.7288 27.4298C12.9206 27.4288 13.1125 27.4279 13.3043 27.4273C13.4394 27.4246 13.4394 27.4246 13.5772 27.4219C14.0008 27.4234 14.2216 27.434 14.5884 27.6636C14.9576 28.0585 14.9038 28.4233 14.9028 28.9383C14.903 29.0281 14.9033 29.118 14.9035 29.2106C14.9041 29.5136 14.9041 29.8166 14.904 30.1196C14.9043 30.3361 14.9046 30.5526 14.905 30.7691C14.9059 31.3586 14.9061 31.948 14.9062 32.5374C14.9063 33.0289 14.9067 33.5203 14.907 34.0117C14.9079 35.1708 14.9081 36.3299 14.908 37.489C14.908 38.6861 14.909 39.8832 14.9107 41.0803C14.912 42.1068 14.9125 43.1333 14.9125 44.1597C14.9124 44.7734 14.9127 45.387 14.9138 46.0007C14.9148 46.5777 14.9148 47.1547 14.9141 47.7317C14.9139 47.9438 14.9142 48.1559 14.9148 48.368C14.9156 48.6569 14.9151 48.9458 14.9143 49.2348C14.9148 49.3192 14.9154 49.4036 14.9159 49.4906C14.9116 50.2085 14.9116 50.2085 14.6861 50.5252C14.2444 50.894 13.8101 50.8774 13.2614 50.8775C13.1734 50.8783 13.0854 50.879 12.9947 50.8798C12.8091 50.8809 12.6234 50.8812 12.4378 50.8808C12.1546 50.8807 11.8717 50.8849 11.5886 50.8894C11.4078 50.8899 11.2269 50.8902 11.0461 50.8902C10.962 50.8918 10.8779 50.8935 10.7912 50.8952C10.366 50.8902 10.0959 50.8572 9.75929 50.5849C9.34882 50.1583 9.38977 49.8275 9.38989 49.2612C9.38952 49.1714 9.38915 49.0816 9.38876 48.9891C9.38764 48.6863 9.38725 48.3836 9.38686 48.0808C9.38623 47.8645 9.38555 47.6482 9.38484 47.4318C9.38307 46.8428 9.382 46.2538 9.38117 45.6647C9.38064 45.297 9.38003 44.9293 9.37939 44.5616C9.37745 43.4119 9.37601 42.2622 9.37516 41.1125C9.37417 39.7839 9.37149 38.4552 9.36739 37.1266C9.36433 36.1006 9.36282 35.0746 9.36249 34.0486C9.36225 33.4354 9.36133 32.8222 9.35878 32.2089C9.35643 31.6321 9.35599 31.0554 9.35703 30.4786C9.35708 30.2667 9.35644 30.0548 9.35505 29.843C9.35326 29.554 9.35396 29.2652 9.3553 28.9763C9.35419 28.8921 9.35308 28.808 9.35193 28.7213C9.35646 28.3178 9.37592 28.1253 9.59837 27.7763C9.88436 27.5017 10.0361 27.4577 10.4208 27.4525Z" fill="url(#paint2_linear_4538_280)"/>
<path d="M1.63912 32.1182C1.72531 32.1174 1.81149 32.1165 1.90029 32.1157C2.08299 32.1143 2.26569 32.1132 2.4484 32.1124C2.72684 32.1107 3.00515 32.1062 3.28356 32.1017C3.46116 32.1007 3.63876 32.0998 3.81637 32.0991C3.94066 32.0965 3.94066 32.0965 4.06745 32.0938C4.60684 32.0958 4.92234 32.1819 5.34457 32.5486C5.583 32.9059 5.5737 33.225 5.57485 33.6474C5.57531 33.717 5.57577 33.7866 5.57625 33.8583C5.57753 34.0914 5.57737 34.3245 5.5772 34.5576C5.57781 34.7248 5.5785 34.892 5.57926 35.0591C5.58106 35.5132 5.58154 35.9673 5.58166 36.4214C5.58186 36.8005 5.5826 37.1796 5.58332 37.5587C5.58498 38.4531 5.58547 39.3475 5.58533 40.2419C5.58521 41.1645 5.58735 42.0871 5.59056 43.0097C5.59322 43.8019 5.59431 44.594 5.59418 45.3862C5.59412 45.8593 5.5947 46.3324 5.59685 46.8055C5.59882 47.2505 5.59883 47.6954 5.59736 48.1404C5.59714 48.3036 5.59762 48.4668 5.59885 48.63C5.60042 48.8531 5.59948 49.076 5.59791 49.2991C5.59802 49.4238 5.59813 49.5485 5.59825 49.6771C5.52989 50.1372 5.33476 50.4733 4.96822 50.7643C4.59958 50.8681 4.23048 50.863 3.85049 50.864C3.76459 50.8647 3.67869 50.8654 3.59019 50.866C3.4087 50.8671 3.22721 50.8676 3.04572 50.8675C2.76907 50.868 2.49259 50.8717 2.21596 50.8755C2.03929 50.8761 1.86261 50.8765 1.68594 50.8767C1.5626 50.8789 1.5626 50.8789 1.43678 50.8811C0.89893 50.8768 0.591402 50.7811 0.164879 50.4236C0.0167997 50.1275 0.0491491 49.8672 0.0476857 49.5363C0.0472406 49.4652 0.0467955 49.394 0.046337 49.3207C0.0449753 49.0811 0.0443493 48.8415 0.0437277 48.6019C0.0429255 48.4306 0.0420856 48.2593 0.041211 48.088C0.0385463 47.5244 0.0369932 46.9608 0.0355452 46.3972C0.035001 46.2034 0.0344548 46.0095 0.0339068 45.8157C0.0317099 45.0095 0.0298069 44.2034 0.0286639 43.3972C0.0270138 42.2409 0.0236428 41.0847 0.0178576 39.9285C0.0139305 39.116 0.0119438 38.3035 0.0114064 37.4909C0.0110349 37.0054 0.00980931 36.5199 0.00652088 36.0344C0.0034717 35.5776 0.00282265 35.1209 0.00402079 34.6642C0.00404326 34.4965 0.00319573 34.3289 0.00141532 34.1612C-0.000883563 33.9323 -4.98053e-05 33.7036 0.00156603 33.4746C0.00122985 33.3465 0.000893661 33.2185 0.000547286 33.0865C0.0801658 32.6619 0.241693 32.5136 0.571129 32.2439C0.904067 32.0775 1.27301 32.1215 1.63912 32.1182Z" fill="url(#paint3_linear_4538_280)"/>
<path d="M35.5866 24.6489C37.1475 25.9221 38.1688 27.5906 38.3862 29.612C38.5212 31.4572 37.987 33.1674 36.8698 34.645C36.8263 34.6895 36.7829 34.734 36.7381 34.7799C36.671 34.7799 36.604 34.7799 36.5349 34.7799C36.4954 34.6902 36.4559 34.6005 36.4151 34.5081C35.7253 33.0042 34.7723 31.9932 33.2088 31.3966C31.9173 30.9619 30.5943 31.025 29.3323 31.5521C27.9586 32.2496 27.0223 33.3452 26.4803 34.7799C25.8784 34.5793 25.6071 33.8229 25.3163 33.2886C24.4932 31.61 24.4173 29.7295 24.9898 27.9674C25.6025 26.2238 26.8808 24.7988 28.5432 23.9825C30.8101 23.014 33.5631 23.1289 35.5866 24.6489ZM29.47 26.1507C28.9151 26.9092 28.8001 27.6536 28.9178 28.5846C29.0136 28.8893 29.144 29.1344 29.324 29.3971C29.3806 29.4872 29.4371 29.5772 29.4954 29.67C30.0283 30.2029 30.7171 30.5256 31.4695 30.546C32.2082 30.5382 32.7024 30.2897 33.3103 29.8922C33.8912 29.2849 34.1284 28.7034 34.1546 27.861C34.1181 26.9753 33.8399 26.4014 33.1957 25.796C32.0269 24.9458 30.4375 25.0506 29.47 26.1507Z" fill="url(#paint4_linear_4538_280)"/>
<path d="M11.4399 0.347656C14.2675 0.701103 16.3869 1.60599 18.4478 3.59766C18.5153 3.66259 18.5829 3.72753 18.6525 3.79443C20.2621 5.46954 21.2915 7.88422 21.2915 10.1992C18.0405 10.1992 14.7895 10.1992 11.4399 10.1992C11.4399 6.9482 11.4399 3.69719 11.4399 0.347656Z" fill="url(#paint5_linear_4538_280)"/>
<path d="M19.7657 34.9844C20.0704 35.0859 20.0704 35.0859 20.268 35.4307C20.3423 35.58 20.4161 35.7296 20.4893 35.8794C20.891 36.6668 21.3323 37.3488 21.8985 38.0312C21.972 38.1225 22.0454 38.2138 22.1211 38.3078C22.8103 39.1183 23.6308 39.7292 24.4868 40.3537C24.6407 40.4687 24.6407 40.4687 24.7423 40.5703C24.7541 40.8607 24.7593 41.1487 24.7602 41.4392C24.7612 41.576 24.7612 41.576 24.7623 41.7155C24.7643 42.0186 24.7655 42.3218 24.7665 42.625C24.7669 42.7283 24.7673 42.8317 24.7677 42.9382C24.7698 43.4854 24.7713 44.0327 24.7722 44.58C24.7734 45.1454 24.7769 45.7108 24.7809 46.2763C24.7835 46.7108 24.7844 47.1453 24.7848 47.5798C24.7853 47.7882 24.7864 47.9967 24.7883 48.2051C24.7908 48.4971 24.7907 48.789 24.79 49.081C24.7913 49.167 24.7926 49.2529 24.7939 49.3415C24.7892 49.8855 24.6948 50.1916 24.336 50.625C23.9667 50.9182 23.4962 50.861 23.0451 50.8622C22.9592 50.8629 22.8733 50.8636 22.7848 50.8643C22.6033 50.8653 22.4218 50.8658 22.2403 50.8658C21.9636 50.8662 21.6872 50.8699 21.4105 50.8737C21.2339 50.8743 21.0572 50.8747 20.8805 50.8749C20.7572 50.8771 20.7572 50.8771 20.6314 50.8794C20.0935 50.875 19.786 50.7793 19.3595 50.4219C19.2238 50.1506 19.2439 49.9425 19.2423 49.6387C19.2414 49.5152 19.2405 49.3917 19.2396 49.2646C19.2392 49.127 19.2387 48.9894 19.2383 48.8519C19.2375 48.7076 19.2367 48.5633 19.2358 48.419C19.2331 47.9445 19.2316 47.4699 19.2301 46.9953C19.2296 46.832 19.229 46.6688 19.2285 46.5055C19.2263 45.8263 19.2244 45.1472 19.2232 44.4681C19.2216 43.4943 19.2182 42.5206 19.2124 41.5469C19.2085 40.8625 19.2065 40.1781 19.206 39.4936C19.2056 39.0847 19.2044 38.6759 19.2011 38.267C19.198 37.8822 19.1974 37.4976 19.1986 37.1128C19.1986 36.9717 19.1978 36.8306 19.196 36.6895C19.1832 35.6193 19.1832 35.6193 19.3749 35.293C19.5155 35.1504 19.5155 35.1504 19.7657 34.9844Z" fill="url(#paint6_linear_4538_280)"/>
<path d="M40.7915 37.4219C41.2922 37.8459 41.7787 38.2813 42.2578 38.7295C42.3224 38.7897 42.387 38.8499 42.4536 38.912C42.6106 39.0584 42.7675 39.205 42.9243 39.3516C43.0178 39.3016 43.1113 39.2515 43.2076 39.2C43.6274 39.0029 43.8021 39.0111 44.2446 39.1484C45.0397 39.7314 45.7105 40.5068 46.4001 41.2063C46.8472 41.6573 47.2976 42.0938 47.7793 42.5075C48.2338 42.9059 48.6714 43.3216 49.1051 43.7424C49.2169 43.8498 49.3295 43.9562 49.4432 44.0616C50.3801 44.9323 50.3801 44.9323 50.5235 45.4313C50.5359 45.8106 50.5196 46.0482 50.291 46.3581C50.1132 46.5406 49.9225 46.7014 49.729 46.8672C49.6124 46.9963 49.4982 47.1276 49.3862 47.2607C48.1242 48.7193 48.1242 48.7193 47.4185 48.8477C46.6733 48.733 46.0904 48.0303 45.5808 47.5087C45.5185 47.4459 45.4562 47.383 45.392 47.3183C45.1953 47.1198 44.9992 46.9205 44.8032 46.7212C44.5444 46.4586 44.2852 46.1964 44.0256 45.9345C43.9636 45.8719 43.9017 45.8094 43.8378 45.7449C43.4724 45.3784 43.0993 45.0284 42.7043 44.6937C42.3219 44.36 41.9681 43.9959 41.6104 43.6362C41.5325 43.5588 41.4547 43.4814 41.3745 43.4016C41.3006 43.3275 41.2267 43.2535 41.1505 43.1772C41.0839 43.1105 41.0173 43.0437 40.9486 42.975C40.6622 42.6646 40.6752 42.4141 40.6665 41.9993C40.6935 41.7569 40.7802 41.597 40.8931 41.3828C40.8377 41.329 40.7823 41.2752 40.7253 41.2198C40.4757 40.9766 40.2274 40.7322 39.979 40.4878C39.8482 40.3608 39.8482 40.3608 39.7148 40.2313C39.6323 40.1498 39.5498 40.0683 39.4648 39.9843C39.3883 39.9094 39.3117 39.8344 39.2328 39.7571C39.0649 39.5547 39.0649 39.5547 39.0649 39.25C39.2105 39.104 39.2105 39.104 39.4141 38.9453C39.9495 38.4999 40.3642 37.9689 40.7915 37.4219Z" fill="url(#paint7_linear_4538_280)"/>
<path d="M34.4937 41.8906C34.5055 42.9677 34.5145 44.0448 34.52 45.1219C34.5227 45.622 34.5263 46.1221 34.532 46.6223C34.5375 47.105 34.5406 47.5876 34.5419 48.0704C34.5428 48.2545 34.5447 48.4386 34.5474 48.6227C34.5511 48.8807 34.5516 49.1386 34.5514 49.3966C34.5541 49.5107 34.5541 49.5107 34.5569 49.6271C34.5529 50.0315 34.5087 50.2005 34.2489 50.5177C33.8074 50.8683 33.4602 50.846 32.9143 50.8488C32.7847 50.8496 32.7847 50.8496 32.6524 50.8505C32.4693 50.8515 32.2862 50.8521 32.103 50.8525C31.8235 50.8535 31.5441 50.8567 31.2645 50.8599C31.0866 50.8605 30.9087 50.8611 30.7307 50.8615C30.6057 50.8633 30.6057 50.8633 30.4781 50.8653C30.0082 50.8634 29.6882 50.8385 29.314 50.5234C28.9985 50.1055 28.967 49.7474 28.9747 49.2401C28.9747 49.1637 28.9747 49.0874 28.9746 49.0087C28.9748 48.7576 28.9772 48.5065 28.9796 48.2553C28.9801 48.0807 28.9806 47.9061 28.9809 47.7315C28.982 47.2729 28.985 46.8142 28.9884 46.3556C28.9915 45.8872 28.9929 45.4188 28.9945 44.9504C28.9977 44.032 29.0029 43.1137 29.0093 42.1953C29.0846 42.2024 29.1598 42.2095 29.2373 42.2168C29.3368 42.226 29.4363 42.2353 29.5387 42.2448C29.6862 42.2586 29.6862 42.2586 29.8365 42.2726C31.2871 42.3939 32.713 42.2865 34.1259 41.9315C34.2906 41.8906 34.2906 41.8906 34.4937 41.8906Z" fill="url(#paint8_linear_4538_280)"/>
<path d="M12.0493 11.8281C15.0992 11.8281 18.1492 11.8281 21.2915 11.8281C21.2915 12.7445 21.2915 12.7445 21.2241 13.0441C21.2089 13.1115 21.1938 13.179 21.1782 13.2484C21.1611 13.3181 21.1441 13.3877 21.1265 13.4595C21.1082 13.5342 21.09 13.6088 21.0712 13.6858C20.4477 16.1253 18.9688 18.4637 16.8228 19.8516C16.7557 19.8516 16.6887 19.8516 16.6196 19.8516C16.5809 19.7843 16.5422 19.7171 16.5023 19.6478C15.7996 18.4276 15.0958 17.208 14.3853 15.9922C13.9001 15.1613 13.4154 14.3303 12.9332 13.4977C12.832 13.3232 12.7306 13.1488 12.6291 12.9745C12.5681 12.8689 12.507 12.7633 12.4441 12.6545C12.3898 12.561 12.3356 12.4675 12.2797 12.3711C12.1509 12.1328 12.1509 12.1328 12.0493 11.8281Z" fill="url(#paint9_linear_4538_280)"/>
<path d="M34.9623 8.4301C35.03 8.42946 35.0976 8.42883 35.1673 8.42818C35.394 8.42656 35.6204 8.42784 35.8471 8.42912C36.0096 8.42857 36.172 8.42784 36.3345 8.42696C36.7758 8.42511 37.2171 8.42583 37.6584 8.42711C38.12 8.42814 38.5816 8.42719 39.0433 8.42655C39.8185 8.42581 40.5937 8.42679 41.369 8.42872C42.2655 8.43093 43.162 8.43021 44.0585 8.42798C44.828 8.42613 45.5975 8.42587 46.3669 8.42694C46.8266 8.42757 47.2863 8.42765 47.746 8.42631C48.1782 8.42514 48.6103 8.42595 49.0424 8.4283C49.2011 8.42884 49.3598 8.42868 49.5185 8.42779C49.735 8.42668 49.9513 8.42807 50.1678 8.4301C50.3496 8.43033 50.3496 8.43033 50.535 8.43056C50.9037 8.49188 51.0231 8.59578 51.2486 8.88793C51.343 9.26817 51.2998 9.60542 51.1153 9.94799C50.7805 10.258 50.4267 10.2214 49.993 10.2225C49.8942 10.223 49.8942 10.223 49.7935 10.2234C49.5724 10.2243 49.3514 10.2245 49.1304 10.2246C48.972 10.2251 48.8137 10.2256 48.6554 10.2261C48.225 10.2275 47.7946 10.2281 47.3643 10.2286C47.0954 10.2289 46.8266 10.2293 46.5578 10.2297C45.7169 10.2311 44.876 10.2321 44.0351 10.2325C43.064 10.233 42.093 10.2347 41.1219 10.2377C40.3715 10.2399 39.6211 10.2409 38.8707 10.241C38.4224 10.2412 37.9741 10.2418 37.5258 10.2436C37.1042 10.2452 36.6826 10.2455 36.2609 10.2446C36.1062 10.2445 35.9515 10.2449 35.7968 10.2459C35.5854 10.2472 35.3742 10.2466 35.1629 10.2456C35.0447 10.2457 34.9265 10.2459 34.8047 10.246C34.455 10.2039 34.2637 10.1128 33.983 9.90356C33.8241 9.58573 33.8107 9.23215 33.8815 8.88793C34.2061 8.4654 34.441 8.43076 34.9623 8.4301Z" fill="url(#paint10_linear_4538_280)"/>
<path d="M35.1483 0.0359205C35.2145 0.0355471 35.2808 0.0351737 35.3491 0.034789C35.5715 0.0336688 35.7939 0.0332778 36.0164 0.0328908C36.1757 0.0322545 36.335 0.0315794 36.4943 0.0308684C37.0178 0.0287323 37.5413 0.0276794 38.0647 0.0266671C38.2449 0.0262561 38.4251 0.0258379 38.6052 0.0254128C39.4515 0.0234783 40.2977 0.0220327 41.1439 0.0211866C42.1211 0.0201934 43.0983 0.0175185 44.0755 0.013417C44.8307 0.0103561 45.5858 0.00885016 46.341 0.00851354C46.7921 0.00827459 47.2432 0.00736168 47.6943 0.00481045C48.1187 0.0024495 48.5429 0.00201463 48.9673 0.00305965C49.123 0.00311005 49.2787 0.00246538 49.4344 0.00107349C49.647 -0.000721317 49.8595 -6.94489e-06 50.0722 0.00133074C50.1912 0.00108818 50.3102 0.00084561 50.4327 0.000595692C50.8145 0.0614481 50.9839 0.187318 51.256 0.457118C51.3234 0.682459 51.3234 0.682459 51.3194 0.914149C51.3207 0.990606 51.3221 1.06706 51.3234 1.14584C51.2224 1.48342 51.0388 1.58608 50.7481 1.77743C50.4317 1.82884 50.4317 1.82884 50.0697 1.8297C50.0029 1.83041 49.936 1.83111 49.8672 1.83184C49.6439 1.83369 49.4208 1.83265 49.1975 1.83161C49.0372 1.83233 48.8768 1.83321 48.7165 1.83426C48.2815 1.83654 47.8465 1.83625 47.4115 1.83534C47.0483 1.83483 46.6851 1.83557 46.3219 1.83631C45.4651 1.83803 44.6084 1.83767 43.7516 1.83597C42.8677 1.83425 41.9838 1.83586 41.0999 1.83914C40.3409 1.84185 39.5819 1.84259 38.8228 1.84173C38.3695 1.84123 37.9163 1.84146 37.463 1.84354C37.0368 1.8454 36.6107 1.8448 36.1846 1.8423C36.0282 1.84179 35.8718 1.84215 35.7155 1.84343C35.5019 1.84505 35.2886 1.84353 35.075 1.84123C34.8958 1.84114 34.8958 1.84114 34.713 1.84105C34.2993 1.75788 34.1468 1.59714 33.8888 1.26962C33.8345 0.883075 33.8323 0.660805 34.0221 0.317469C34.3538 -0.002001 34.7115 0.0375152 35.1483 0.0359205Z" fill="url(#paint11_linear_4538_280)"/>
<path d="M35.2311 16.7937C35.3648 16.7931 35.4985 16.7925 35.6363 16.7919C35.7848 16.7918 35.9334 16.7917 36.0819 16.7916C36.238 16.7911 36.3942 16.7906 36.5503 16.7901C36.9749 16.7887 37.3994 16.7881 37.8239 16.7876C38.0891 16.7873 38.3543 16.7869 38.6195 16.7865C39.4493 16.7851 40.2791 16.7841 41.1089 16.7837C42.0668 16.7832 43.0247 16.7815 43.9826 16.7785C44.723 16.7763 45.4634 16.7753 46.2038 16.7752C46.646 16.775 47.0882 16.7744 47.5304 16.7726C47.9465 16.771 48.3625 16.7707 48.7786 16.7716C48.9311 16.7717 49.0837 16.7713 49.2362 16.7703C49.4448 16.769 49.6534 16.7696 49.862 16.7706C49.9786 16.7705 50.0952 16.7703 50.2154 16.7702C50.5851 16.8134 50.8307 16.9206 51.1479 17.1126C51.3068 17.4305 51.3203 17.7841 51.2495 18.1283C51.0246 18.4211 50.9046 18.5243 50.5358 18.5856C50.4147 18.5858 50.2935 18.5859 50.1686 18.5861C50.101 18.5867 50.0333 18.5874 49.9636 18.588C49.737 18.5896 49.5105 18.5884 49.2839 18.5871C49.1214 18.5876 48.9589 18.5884 48.7964 18.5892C48.3551 18.5911 47.9138 18.5904 47.4725 18.5891C47.0109 18.5881 46.5493 18.589 46.0877 18.5896C45.3124 18.5904 44.5372 18.5894 43.762 18.5875C42.8654 18.5853 41.9689 18.586 41.0724 18.5882C40.3029 18.5901 39.5335 18.5903 38.764 18.5893C38.3043 18.5886 37.8446 18.5885 37.3849 18.5899C36.9528 18.5911 36.5207 18.5902 36.0885 18.5879C35.9298 18.5874 35.7711 18.5875 35.6124 18.5884C35.3959 18.5895 35.1796 18.5881 34.9631 18.5861C34.7814 18.5859 34.7814 18.5859 34.5959 18.5856C34.2272 18.5243 34.108 18.4203 33.8823 18.1283C33.8084 17.8499 33.824 17.5971 33.8823 17.3158C34.2553 16.8142 34.6372 16.7952 35.2311 16.7937Z" fill="url(#paint12_linear_4538_280)"/>
<path d="M27.9293 0.0243077C28.0384 0.0234394 28.0384 0.0234394 28.1498 0.0225534C28.3036 0.021595 28.4575 0.0209306 28.6113 0.0205388C28.8458 0.0195535 29.0802 0.0164018 29.3147 0.0131993C29.4644 0.012536 29.6141 0.0120028 29.7638 0.0116124C29.8335 0.0103584 29.9033 0.00910447 29.9751 0.0078125C30.5138 0.0102973 30.8195 0.157555 31.2214 0.501969C31.5121 0.850834 31.4695 1.27112 31.4741 1.70049C31.4749 1.773 31.4757 1.84552 31.4766 1.92023C31.478 2.07363 31.4791 2.22704 31.4799 2.38045C31.481 2.53677 31.4831 2.69309 31.4861 2.84939C31.4905 3.07582 31.4921 3.30214 31.4931 3.52861C31.4949 3.59782 31.4967 3.66703 31.4985 3.73834C31.4962 4.24572 31.3619 4.53013 31.0436 4.91994C30.3816 5.35098 29.6261 5.26959 28.86 5.26271C28.6631 5.26448 28.6631 5.26448 28.4621 5.26628C27.2024 5.2624 27.2024 5.2624 26.6764 4.91994C26.2963 4.45264 26.219 4.13314 26.2198 3.53575C26.2197 3.46343 26.2195 3.3911 26.2194 3.31659C26.2195 3.16457 26.2207 3.01255 26.2228 2.86054C26.2258 2.62871 26.2249 2.3971 26.2236 2.16525C26.2292 0.85451 26.2292 0.85451 26.7272 0.273453C27.0777 -0.0185889 27.4984 0.0269591 27.9293 0.0243077Z" fill="url(#paint13_linear_4538_280)"/>
<path d="M27.8841 8.43559C27.9608 8.43505 28.0376 8.43452 28.1166 8.43397C28.2784 8.43332 28.4402 8.43345 28.6019 8.43432C28.8483 8.43519 29.0944 8.43226 29.3407 8.42904C29.4984 8.42888 29.6561 8.42894 29.8138 8.42924C29.8868 8.4281 29.9598 8.42696 30.035 8.42578C30.5514 8.43286 30.8535 8.54732 31.2424 8.88587C31.5761 9.45065 31.4795 10.1505 31.4776 10.7871C31.4773 11.0113 31.4797 11.2354 31.4822 11.4596C31.4825 11.6035 31.4825 11.7473 31.4824 11.8911C31.4827 12.0208 31.483 12.1506 31.4833 12.2842C31.4307 12.7847 31.3072 13.1128 30.9183 13.4407C30.5521 13.5909 30.2169 13.6034 29.8273 13.6018C29.7505 13.6023 29.6738 13.6029 29.5947 13.6034C29.433 13.604 29.2712 13.6039 29.1095 13.6031C28.8631 13.6022 28.617 13.6051 28.3707 13.6083C28.213 13.6085 28.0553 13.6084 27.8976 13.6081C27.8246 13.6093 27.7516 13.6104 27.6763 13.6116C27.16 13.6045 26.8579 13.4901 26.469 13.1515C26.1352 12.5867 26.2319 11.8868 26.2338 11.2503C26.2341 11.0261 26.2317 10.8019 26.2291 10.5777C26.2289 10.4339 26.2288 10.2901 26.2289 10.1463C26.2286 10.0165 26.2283 9.88681 26.228 9.75315C26.2807 9.25262 26.4042 8.92457 26.7931 8.59663C27.1593 8.44643 27.4945 8.434 27.8841 8.43559Z" fill="url(#paint14_linear_4538_280)"/>
<path d="M35.272 11.8163C35.3929 11.8158 35.3929 11.8158 35.5162 11.8153C35.7835 11.8143 36.0509 11.8141 36.3182 11.814C36.5036 11.8137 36.6891 11.8134 36.8745 11.813C37.2637 11.8124 37.6529 11.8122 38.042 11.8123C38.5409 11.8123 39.0397 11.8109 39.5386 11.8091C39.9218 11.808 40.3049 11.8078 40.6881 11.8079C40.8721 11.8077 41.056 11.8073 41.2399 11.8065C41.4971 11.8055 41.7543 11.8058 42.0116 11.8064C42.0877 11.8058 42.1638 11.8053 42.2422 11.8047C42.6174 11.807 42.9147 11.8107 43.2252 12.0342C43.4792 12.4151 43.4828 12.5988 43.4283 13.0498C43.151 13.4195 42.9994 13.5443 42.539 13.6221C42.3886 13.6251 42.2382 13.6254 42.0878 13.6234C42.0053 13.6242 41.9229 13.6251 41.8379 13.6261C41.5661 13.6283 41.2944 13.6268 41.0226 13.6251C40.8333 13.6254 40.6439 13.6259 40.4546 13.6266C40.0581 13.6273 39.6617 13.6262 39.2652 13.6239C38.7573 13.621 38.2496 13.6226 37.7417 13.6257C37.3508 13.6275 36.96 13.6269 36.5691 13.6256C36.3819 13.6253 36.1946 13.6257 36.0074 13.6269C35.7455 13.6282 35.4839 13.6262 35.222 13.6234C35.1449 13.6244 35.0677 13.6254 34.9882 13.6265C34.5888 13.6185 34.4058 13.5705 34.0869 13.3223C33.8815 13.0498 33.8815 13.0498 33.8243 12.688C33.8895 12.29 33.9724 12.1738 34.2877 11.9327C34.6003 11.7763 34.9289 11.8161 35.272 11.8163Z" fill="url(#paint15_linear_4538_280)"/>
<path d="M35.1292 3.45102C35.2561 3.4497 35.2561 3.4497 35.3855 3.44837C35.665 3.44606 35.9443 3.44675 36.2237 3.44767C36.418 3.44714 36.6123 3.4465 36.8066 3.44576C37.2136 3.4447 37.6207 3.44517 38.0278 3.44665C38.5497 3.4484 39.0714 3.44601 39.5933 3.44244C39.9944 3.44021 40.3956 3.44035 40.7967 3.4412C40.9891 3.44128 41.1816 3.44058 41.374 3.43909C41.6429 3.43732 41.9117 3.43879 42.1806 3.4411C42.2602 3.43991 42.3398 3.43872 42.4218 3.4375C42.8108 3.44431 42.9855 3.47113 43.2746 3.74049C43.4765 4.09834 43.4872 4.31917 43.4283 4.72394C43.203 5.0192 43.0709 5.11393 42.7174 5.23176C42.4596 5.24254 42.2045 5.24773 41.9466 5.24812C41.8683 5.24863 41.79 5.24913 41.7093 5.24965C41.4501 5.25113 41.1909 5.25183 40.9317 5.25239C40.7515 5.25297 40.5712 5.25356 40.3909 5.25414C40.0128 5.25521 39.6346 5.2558 39.2565 5.25616C38.7726 5.25671 38.2887 5.25915 37.8048 5.26204C37.4323 5.26394 37.0598 5.26446 36.6873 5.26462C36.509 5.26493 36.3306 5.26574 36.1522 5.26708C35.9023 5.26881 35.6525 5.26862 35.4026 5.26796C35.3293 5.26889 35.256 5.26983 35.1805 5.27079C34.7081 5.26691 34.3837 5.17752 33.983 4.92707C33.8241 4.60924 33.8107 4.25566 33.8815 3.91144C34.2207 3.44012 34.5887 3.44652 35.1292 3.45102Z" fill="url(#paint16_linear_4538_280)"/>
<path d="M28.8618 16.7722C29.0588 16.7704 29.0588 16.7704 29.2597 16.7686C30.4761 16.7724 30.4761 16.7724 31.0454 17.115C31.4103 17.536 31.4707 17.7889 31.4517 18.3337C31.391 18.3372 31.3304 18.3407 31.2679 18.3443C29.9296 18.4268 28.6898 18.601 27.4047 18.9836C27.0309 19.088 26.6517 19.1681 26.272 19.2478C26.2609 19.0064 26.2529 18.7656 26.2466 18.5241C26.2432 18.4566 26.2398 18.389 26.2363 18.3194C26.226 17.7959 26.3292 17.5035 26.6782 17.115C27.3403 16.6839 28.0958 16.7653 28.8618 16.7722Z" fill="url(#paint17_linear_4538_280)"/>
<path d="M37.7488 20.2568C38.4771 20.2439 39.2054 20.235 39.9339 20.2289C40.1817 20.2263 40.4294 20.2229 40.6772 20.2185C41.0334 20.2123 41.3895 20.2094 41.7458 20.2072C41.8565 20.2046 41.9672 20.2019 42.0812 20.1992C42.8485 20.199 42.8485 20.199 43.2527 20.4912C43.4936 20.8499 43.5056 21.0517 43.4363 21.4755C43.2467 21.7157 43.099 21.8473 42.8269 21.9833C40.0097 22.2649 40.0097 22.2649 39.2238 21.752C38.9232 21.4937 38.6944 21.1846 38.4597 20.8661C38.2419 20.6834 38.2419 20.6834 38.0281 20.5488C37.9359 20.4859 37.8437 20.4231 37.7488 20.3583C37.7488 20.3248 37.7488 20.2913 37.7488 20.2568Z" fill="url(#paint18_linear_4538_280)"/>
<defs>
<linearGradient id="paint0_linear_4538_280" x1="7.65362" y1="0.347656" x2="7.65362" y2="21.7036" gradientUnits="userSpaceOnUse">
<stop stop-color="#FA612F"/>
<stop offset="0.58" stop-color="#FB4A55"/>
<stop offset="1" stop-color="#E620AF"/>
</linearGradient>
<linearGradient id="paint1_linear_4538_280" x1="31.0814" y1="19.7773" x2="31.0814" y2="40.8829" gradientUnits="userSpaceOnUse">
<stop stop-color="#FA612F"/>
<stop offset="0.58" stop-color="#FB4A55"/>
<stop offset="1" stop-color="#E620AF"/>
</linearGradient>
<linearGradient id="paint2_linear_4538_280" x1="12.1339" y1="27.4219" x2="12.1339" y2="50.8952" gradientUnits="userSpaceOnUse">
<stop stop-color="#FA612F"/>
<stop offset="0.58" stop-color="#FB4A55"/>
<stop offset="1" stop-color="#E620AF"/>
</linearGradient>
<linearGradient id="paint3_linear_4538_280" x1="2.79983" y1="32.0938" x2="2.79983" y2="50.8811" gradientUnits="userSpaceOnUse">
<stop stop-color="#FA612F"/>
<stop offset="0.58" stop-color="#FB4A55"/>
<stop offset="1" stop-color="#E620AF"/>
</linearGradient>
<linearGradient id="paint4_linear_4538_280" x1="31.5127" y1="23.3594" x2="31.5127" y2="34.7799" gradientUnits="userSpaceOnUse">
<stop stop-color="#FA612F"/>
<stop offset="0.58" stop-color="#FB4A55"/>
<stop offset="1" stop-color="#E620AF"/>
</linearGradient>
<linearGradient id="paint5_linear_4538_280" x1="16.3657" y1="0.347656" x2="16.3657" y2="10.1992" gradientUnits="userSpaceOnUse">
<stop stop-color="#FA612F"/>
<stop offset="0.58" stop-color="#FB4A55"/>
<stop offset="1" stop-color="#E620AF"/>
</linearGradient>
<linearGradient id="paint6_linear_4538_280" x1="21.9926" y1="34.9844" x2="21.9926" y2="50.8794" gradientUnits="userSpaceOnUse">
<stop stop-color="#FA612F"/>
<stop offset="0.58" stop-color="#FB4A55"/>
<stop offset="1" stop-color="#E620AF"/>
</linearGradient>
<linearGradient id="paint7_linear_4538_280" x1="44.7957" y1="37.4219" x2="44.7957" y2="48.8477" gradientUnits="userSpaceOnUse">
<stop stop-color="#FA612F"/>
<stop offset="0.58" stop-color="#FB4A55"/>
<stop offset="1" stop-color="#E620AF"/>
</linearGradient>
<linearGradient id="paint8_linear_4538_280" x1="31.7653" y1="41.8906" x2="31.7653" y2="50.8653" gradientUnits="userSpaceOnUse">
<stop stop-color="#FA612F"/>
<stop offset="0.58" stop-color="#FB4A55"/>
<stop offset="1" stop-color="#E620AF"/>
</linearGradient>
<linearGradient id="paint9_linear_4538_280" x1="16.6704" y1="11.8281" x2="16.6704" y2="19.8516" gradientUnits="userSpaceOnUse">
<stop stop-color="#FA612F"/>
<stop offset="0.58" stop-color="#FB4A55"/>
<stop offset="1" stop-color="#E620AF"/>
</linearGradient>
<linearGradient id="paint10_linear_4538_280" x1="42.5688" y1="8.42578" x2="42.5688" y2="10.2467" gradientUnits="userSpaceOnUse">
<stop stop-color="#FA612F"/>
<stop offset="0.58" stop-color="#FB4A55"/>
<stop offset="1" stop-color="#E620AF"/>
</linearGradient>
<linearGradient id="paint11_linear_4538_280" x1="42.5902" y1="0" x2="42.5902" y2="1.84463" gradientUnits="userSpaceOnUse">
<stop stop-color="#FA612F"/>
<stop offset="0.58" stop-color="#FB4A55"/>
<stop offset="1" stop-color="#E620AF"/>
</linearGradient>
<linearGradient id="paint12_linear_4538_280" x1="42.5614" y1="16.7695" x2="42.5614" y2="18.5904" gradientUnits="userSpaceOnUse">
<stop stop-color="#FA612F"/>
<stop offset="0.58" stop-color="#FB4A55"/>
<stop offset="1" stop-color="#E620AF"/>
</linearGradient>
<linearGradient id="paint13_linear_4538_280" x1="28.8589" y1="0.0078125" x2="28.8589" y2="5.27318" gradientUnits="userSpaceOnUse">
<stop stop-color="#FA612F"/>
<stop offset="0.58" stop-color="#FB4A55"/>
<stop offset="1" stop-color="#E620AF"/>
</linearGradient>
<linearGradient id="paint14_linear_4538_280" x1="28.8557" y1="8.42578" x2="28.8557" y2="13.6116" gradientUnits="userSpaceOnUse">
<stop stop-color="#FA612F"/>
<stop offset="0.58" stop-color="#FB4A55"/>
<stop offset="1" stop-color="#E620AF"/>
</linearGradient>
<linearGradient id="paint15_linear_4538_280" x1="38.6404" y1="11.8047" x2="38.6404" y2="13.6273" gradientUnits="userSpaceOnUse">
<stop stop-color="#FA612F"/>
<stop offset="0.58" stop-color="#FB4A55"/>
<stop offset="1" stop-color="#E620AF"/>
</linearGradient>
<linearGradient id="paint16_linear_4538_280" x1="38.65" y1="3.4375" x2="38.65" y2="5.27079" gradientUnits="userSpaceOnUse">
<stop stop-color="#FA612F"/>
<stop offset="0.58" stop-color="#FB4A55"/>
<stop offset="1" stop-color="#E620AF"/>
</linearGradient>
<linearGradient id="paint17_linear_4538_280" x1="28.8452" y1="16.7617" x2="28.8452" y2="19.2478" gradientUnits="userSpaceOnUse">
<stop stop-color="#FA612F"/>
<stop offset="0.58" stop-color="#FB4A55"/>
<stop offset="1" stop-color="#E620AF"/>
</linearGradient>
<linearGradient id="paint18_linear_4538_280" x1="40.6109" y1="20.1992" x2="40.6109" y2="22.172" gradientUnits="userSpaceOnUse">
<stop stop-color="#FA612F"/>
<stop offset="0.58" stop-color="#FB4A55"/>
<stop offset="1" stop-color="#E620AF"/>
</linearGradient>
</defs>
</svg>
