<svg width="51" height="44" viewBox="0 0 51 44" fill="none" xmlns="http://www.w3.org/2000/svg">
<path d="M2.90171 0.0214489C3.0207 0.0213147 3.1397 0.0211804 3.2623 0.0210421C3.39335 0.0213877 3.5244 0.0217427 3.65545 0.0221061C3.79406 0.0221336 3.93268 0.0221181 4.0713 0.0220629C4.44695 0.0220349 4.8226 0.0226086 5.19826 0.0232908C5.59108 0.0239017 5.98391 0.0239587 6.37674 0.0240745C7.12032 0.0243779 7.8639 0.0251792 8.60748 0.0261594C9.45414 0.0272513 10.3008 0.027788 11.1475 0.0282781C12.8889 0.0292986 14.6302 0.0310161 16.3716 0.0331925C16.3721 0.200384 16.3721 0.200384 16.3726 0.370954C16.3805 3.07999 16.3895 5.78902 16.3997 8.49805C16.4007 8.75859 16.4016 9.01913 16.4026 9.27966C16.4029 9.34442 16.4031 9.40918 16.4033 9.4759C16.4072 10.5252 16.4104 11.5746 16.4134 12.6239C16.4164 13.7002 16.4202 14.7765 16.4246 15.8528C16.4271 16.4575 16.4292 17.0622 16.4305 17.6669C16.4318 18.2356 16.4339 18.8043 16.4368 19.373C16.4377 19.5822 16.4382 19.7913 16.4384 20.0005C16.4388 20.2852 16.4403 20.5699 16.4421 20.8546C16.4418 20.9799 16.4418 20.9799 16.4415 21.1076C16.4452 21.4896 16.4479 21.6808 16.6646 22.0058C16.9393 22.0509 16.9393 22.0509 17.2664 22.0438C17.456 22.0451 17.456 22.0451 17.6495 22.0466C17.7881 22.046 17.9267 22.0454 18.0653 22.0448C18.2069 22.045 18.3485 22.0452 18.4901 22.0456C18.7869 22.046 19.0837 22.0454 19.3806 22.044C19.7616 22.0424 20.1425 22.0433 20.5234 22.0451C20.8158 22.0461 21.1082 22.0458 21.4006 22.0451C21.541 22.0449 21.6815 22.0451 21.822 22.0458C22.0182 22.0465 22.2143 22.0452 22.4105 22.0438C22.5781 22.0434 22.5781 22.0434 22.7491 22.0431C22.8359 22.0308 22.9228 22.0185 23.0122 22.0058C23.2674 21.6231 23.2358 21.2988 23.2348 20.8546C23.2356 20.7214 23.2356 20.7214 23.2365 20.5856C23.2381 20.2869 23.2384 19.9882 23.2387 19.6895C23.2396 19.4759 23.2406 19.2622 23.2417 19.0486C23.2443 18.4675 23.2458 17.8865 23.2471 17.3054C23.2486 16.6986 23.2512 16.0917 23.2537 15.4849C23.2578 14.466 23.2612 13.4471 23.264 12.4282C23.267 11.3787 23.2703 10.3292 23.2742 9.27966C23.2745 9.21498 23.2747 9.1503 23.2749 9.08366C23.2762 8.75918 23.2774 8.43471 23.2786 8.11023C23.2887 5.41789 23.2974 2.72554 23.3052 0.0331925C24.4654 0.0331925 25.6255 0.0331925 26.8208 0.0331925C26.8187 0.575253 26.8165 1.11731 26.8143 1.6758C26.8079 3.46958 26.8068 5.26334 26.8084 7.05713C26.8093 8.1444 26.8084 9.2316 26.8031 10.3189C26.7985 11.2671 26.7974 12.2153 26.8003 13.1635C26.8018 13.6651 26.8015 14.1666 26.7972 14.6681C26.7931 15.1414 26.7937 15.6145 26.7976 16.0878C26.7983 16.2604 26.7974 16.433 26.7945 16.6055C26.7758 17.8326 27.0389 18.606 27.7721 19.593C27.9605 19.8485 28.1328 20.1138 28.3074 20.3789C28.4321 20.5613 28.5571 20.7435 28.6824 20.9255C28.7471 21.0201 28.8117 21.1147 28.8783 21.2122C29.1446 21.6277 29.1446 21.6277 29.4576 22.0058C29.6854 22.0098 29.9133 22.01 30.1412 22.0058C30.1635 21.9377 30.1858 21.8695 30.2088 21.7993C30.3629 21.4592 30.5805 21.2004 30.8174 20.9164C32.5326 18.7586 32.7937 16.9837 32.7225 14.2806C32.7116 13.7774 32.7132 13.2742 32.7134 12.771C32.7119 11.8236 32.6996 10.8766 32.6831 9.92937C32.6614 8.64547 32.657 7.3615 32.6515 6.07745C32.6424 4.06237 32.6107 2.04831 32.5826 0.0331925C36.063 0.0331925 39.5435 0.0331925 43.1294 0.0331925C43.1331 1.26347 43.1367 2.49374 43.1405 3.7613C43.1435 4.5388 43.1465 5.31629 43.1498 6.09379C43.1552 7.32898 43.1602 8.56417 43.1633 9.79937C43.1655 10.6988 43.1688 11.5983 43.1733 12.4977C43.1756 12.9742 43.1774 13.4506 43.178 13.9271C43.1786 14.3752 43.1806 14.8234 43.1836 15.2715C43.1844 15.4363 43.1848 15.601 43.1846 15.7658C43.1845 15.9902 43.1861 16.2146 43.1882 16.439C43.1886 16.5648 43.1891 16.6905 43.1895 16.8201C43.2027 17.1197 43.2027 17.1197 43.36 17.3134C43.5245 17.4414 43.5245 17.4414 43.7764 17.3977C44.0245 17.3431 44.0245 17.3431 44.106 17.123C44.1164 16.8991 44.1203 16.6749 44.1214 16.4508C44.1222 16.3458 44.1222 16.3458 44.1229 16.2388C44.1244 16.0032 44.1252 15.7676 44.126 15.5321C44.127 15.3637 44.128 15.1953 44.129 15.0269C44.1316 14.5687 44.1337 14.1105 44.1356 13.6523C44.1378 13.1738 44.1404 12.6954 44.143 12.2169C44.1479 11.3104 44.1523 10.4039 44.1565 9.49745C44.1613 8.46564 44.1667 7.43383 44.1721 6.40202C44.1832 4.27908 44.1937 2.15614 44.2037 0.0331925C44.7021 0.0258987 45.2006 0.0206091 45.6991 0.0170993C45.8684 0.0156347 46.0376 0.013642 46.2069 0.0110911C46.4515 0.00749898 46.6961 0.0058667 46.9407 0.00458231C47.0152 0.00307021 47.0897 0.00155812 47.1665 1.99961e-07C47.9492 -0.000239446 48.6714 0.214912 49.2818 0.716786C49.9423 1.47081 50.0921 2.04633 50.0865 3.03491C50.0867 3.14155 50.0869 3.24818 50.087 3.35805C50.0873 3.71713 50.0863 4.0762 50.0852 4.43528C50.0851 4.6964 50.0852 4.95753 50.0853 5.21865C50.0854 5.84782 50.0845 6.47699 50.0832 7.10616C50.0818 7.83394 50.0817 8.56171 50.0815 9.2895C50.0805 11.211 50.0778 13.1325 50.0752 15.0539C50.0712 19.3461 50.0672 23.6383 50.063 28.0605C35.4644 28.0605 20.8658 28.0605 5.82475 28.0605C5.79252 21.2607 5.76029 14.4609 5.72709 7.45507C5.54846 7.23647 5.54846 7.23647 5.28764 7.22924C5.20707 7.23931 5.1265 7.24938 5.0435 7.25975C4.79488 7.63268 4.81996 7.93426 4.82099 8.36651C4.82042 8.45051 4.81986 8.5345 4.81928 8.62104C4.81761 8.90354 4.81733 9.18603 4.81705 9.46854C4.81614 9.67062 4.81515 9.87271 4.81407 10.0748C4.8114 10.6244 4.80993 11.174 4.80866 11.7236C4.80714 12.2975 4.80452 12.8715 4.80202 13.4455C4.79744 14.5329 4.79386 15.6203 4.79062 16.7076C4.78689 17.9454 4.78207 19.1831 4.77715 20.4209C4.76705 22.9674 4.75848 25.514 4.75053 28.0605C3.20365 28.0605 1.65678 28.0605 0.063028 28.0605C0.0519841 24.7555 0.0432448 21.4504 0.0380937 18.1453C0.037483 17.7549 0.0368511 17.3645 0.0362059 16.9741C0.0360138 16.8575 0.0360137 16.8575 0.0358177 16.7386C0.0336945 15.4809 0.0298455 14.2234 0.0253558 12.9658C0.0207857 11.6748 0.0180767 10.3839 0.0170864 9.09302C0.0164172 8.29679 0.0143054 7.50058 0.0103343 6.70435C0.00774847 6.15796 0.00697436 5.61159 0.00760742 5.06519C0.00791943 4.75018 0.00718037 4.43524 0.0048222 4.12023C0.00238604 3.77799 0.00297939 3.43588 0.00430997 3.09363C0.00288769 2.99502 0.00146538 2.89641 0 2.79482C0.00791464 2.03956 0.201491 1.38727 0.724506 0.822845C1.37197 0.230021 2.03576 0.020694 2.90171 0.0214489ZM4.55522 3.35351C4.49882 3.39177 4.44242 3.43004 4.38432 3.46947C4.18105 3.76421 4.14277 4.07858 4.16459 4.42772C4.37331 4.85319 4.59862 5.13075 5.0435 5.30663C5.4694 5.30663 5.69251 5.23011 6.05668 5.00756C6.33527 4.69581 6.40676 4.54052 6.42671 4.13399C6.40012 3.81116 6.30614 3.61487 6.11772 3.35351C5.52867 2.96934 5.12741 2.94695 4.55522 3.35351ZM42.7388 19.7598C42.5506 20.0625 42.5429 20.2316 42.5557 20.5898C42.6489 20.9626 42.7663 21.1464 43.0318 21.4199C43.3699 21.589 43.7363 21.5643 44.106 21.5176C44.4409 21.3181 44.6837 21.1175 44.7896 20.7363C44.7818 20.2443 44.7707 20.05 44.4539 19.6682C43.8645 19.1938 43.3063 19.2714 42.7388 19.7598Z" fill="url(#paint0_linear_4538_334)"/>
<path d="M0.0625 29.1328C13.8877 29.1328 27.7129 29.1328 41.957 29.1328C41.957 31.0664 41.957 33 41.957 34.9922C36.882 34.9988 31.807 35.0041 26.732 35.0071C26.1331 35.0075 25.5341 35.0079 24.9351 35.0083C24.8159 35.0084 24.6966 35.0084 24.5738 35.0085C22.6423 35.0098 20.7107 35.0121 18.7792 35.0148C16.7977 35.0175 14.8162 35.0192 12.8347 35.0198C11.6117 35.0202 10.3887 35.0214 9.16575 35.0238C8.32745 35.0254 7.48914 35.0258 6.65084 35.0254C6.16697 35.0253 5.68311 35.0255 5.19924 35.0271C4.75622 35.0285 4.31322 35.0286 3.87021 35.0276C3.70997 35.0275 3.54974 35.0279 3.38951 35.0288C2.45602 35.0338 1.71625 35.0299 0.923096 34.4856C0.52899 34.0915 0.239213 33.6669 0.0625 33.1367C0.0625 31.8154 0.0625 30.4941 0.0625 29.1328ZM24.0859 31.4766C23.9279 31.7927 23.9324 32.1114 23.9883 32.4531C24.2109 32.8067 24.3909 32.9925 24.7573 33.1917C25.1746 33.2501 25.3836 33.1495 25.7461 32.9414C26.0686 32.652 26.1299 32.5009 26.1917 32.0686C26.1699 31.6094 25.9705 31.4003 25.6484 31.0859C25.0001 30.7618 24.5408 31.0106 24.0859 31.4766Z" fill="url(#paint1_linear_4538_334)"/>
<path d="M17.4453 0.0390625C19.0244 0.0390625 20.6035 0.0390625 22.2305 0.0390625C22.2305 6.96777 22.2305 13.8965 22.2305 21.0352C20.6514 21.0352 19.0723 21.0352 17.4453 21.0352C17.4453 19.875 17.4453 18.7148 17.4453 17.5195C18.4036 17.489 18.4036 17.489 18.7045 17.4816C18.783 17.4784 18.8616 17.4752 18.9426 17.4718C19.0229 17.4693 19.1032 17.4667 19.1859 17.4641C19.4441 17.4128 19.5372 17.34 19.6914 17.1289C19.6678 16.8049 19.6678 16.8049 19.4961 16.543C19.3438 16.5277 19.1909 16.5185 19.0379 16.5121C18.9549 16.5083 18.8719 16.5046 18.7863 16.5008C18.6802 16.4966 18.574 16.4924 18.4646 16.488C18.1282 16.4739 17.7919 16.4598 17.4453 16.4453C17.4453 15.6396 17.4453 14.834 17.4453 14.0039C18.4585 13.9734 18.4585 13.9734 18.7775 13.966C18.8603 13.9628 18.9431 13.9596 19.0284 13.9562C19.1133 13.9537 19.1982 13.9511 19.2857 13.9485C19.5338 13.9245 19.5338 13.9245 19.6914 13.6133C19.6761 13.3575 19.6761 13.3575 19.5938 13.125C19.3643 13.0103 19.2079 13.0078 18.9521 12.9964C18.8733 12.9927 18.7945 12.989 18.7133 12.9852C18.6131 12.981 18.5129 12.9767 18.4097 12.9724C18.0914 12.9583 17.7732 12.9442 17.4453 12.9297C17.4453 12.124 17.4453 11.3184 17.4453 10.4883C18.4585 10.4517 18.4585 10.4517 18.7775 10.4416C18.9017 10.4364 18.9017 10.4364 19.0284 10.4311C19.1133 10.428 19.1982 10.4249 19.2857 10.4218C19.5166 10.409 19.5166 10.409 19.6914 10.1953C19.6825 9.94731 19.6825 9.94731 19.5938 9.70703C19.2933 9.50671 19.2093 9.4851 18.8663 9.47128C18.7917 9.46781 18.7171 9.46433 18.6402 9.46074C18.4989 9.45576 18.4989 9.45576 18.3547 9.45068C18.0546 9.4386 17.7545 9.42651 17.4453 9.41406C17.4453 8.64062 17.4453 7.86719 17.4453 7.07031C18.3547 7.02759 18.3547 7.02759 18.6402 7.01483C18.7148 7.01111 18.7894 7.00739 18.8663 7.00356C18.9425 6.99998 19.0187 6.9964 19.0972 6.99271C19.3197 6.97839 19.3197 6.97839 19.5938 6.875C19.66 6.59173 19.66 6.59173 19.6914 6.28906C19.4492 6.04682 19.3631 6.06541 19.0284 6.05331C18.9456 6.04984 18.8628 6.04636 18.7775 6.04278C18.6723 6.03946 18.567 6.03614 18.4585 6.03271C18.1241 6.02063 17.7898 6.00854 17.4453 5.99609C17.4453 5.19043 17.4453 4.38477 17.4453 3.55469C18.4036 3.52417 18.4036 3.52417 18.7045 3.5168C18.783 3.51357 18.8616 3.51034 18.9426 3.507C19.0229 3.50445 19.1032 3.50189 19.1859 3.49926C19.4441 3.44795 19.5368 3.3749 19.6914 3.16406C19.684 2.90749 19.684 2.90749 19.5938 2.67578C19.3643 2.56106 19.2079 2.55856 18.9521 2.54723C18.8733 2.5435 18.7945 2.53978 18.7133 2.53595C18.563 2.52963 18.563 2.52963 18.4097 2.52319C18.0914 2.50909 17.7732 2.495 17.4453 2.48047C17.4453 1.6748 17.4453 0.869141 17.4453 0.0390625Z" fill="url(#paint2_linear_4538_334)"/>
<path d="M21.9375 36.0703C24 36.0703 26.0625 36.0703 28.1875 36.0703C28.6749 37.7646 28.6749 37.7646 28.8818 38.486C29.023 38.9786 29.1643 39.4711 29.3062 39.9635C29.4205 40.3604 29.5344 40.7575 29.6481 41.1546C29.6916 41.3062 29.7352 41.4577 29.7789 41.6093C29.8401 41.8212 29.9008 42.0333 29.9613 42.2455C30.0134 42.4267 30.0134 42.4267 30.0665 42.6115C30.1406 42.9062 30.1406 42.9062 30.1406 43.1992C26.7891 43.1992 23.4375 43.1992 19.9844 43.1992C20.0981 42.6305 20.2048 42.0983 20.3632 41.547C20.3984 41.4239 20.4336 41.3008 20.4698 41.174C20.5076 41.0431 20.5455 40.9123 20.5833 40.7815C20.6224 40.6449 20.6616 40.5084 20.7007 40.3718C20.8028 40.0157 20.9053 39.6596 21.008 39.3036C21.1315 38.8747 21.2545 38.4456 21.3775 38.0166C21.5638 37.3677 21.7507 36.719 21.9375 36.0703Z" fill="url(#paint3_linear_4538_334)"/>
<path d="M27.8906 0.0390625C29.083 0.0390625 30.2754 0.0390625 31.5039 0.0390625C31.5039 4.29297 31.5039 8.54687 31.5039 12.9297C30.3115 12.9297 29.1191 12.9297 27.8906 12.9297C27.8906 8.67578 27.8906 4.42188 27.8906 0.0390625Z" fill="url(#paint4_linear_4538_334)"/>
<path d="M43.0312 29.1328C45.3516 29.1328 47.6719 29.1328 50.0625 29.1328C50.0706 29.7773 50.0786 30.4219 50.0869 31.0859C50.0905 31.2879 50.094 31.4898 50.0977 31.6978C50.0988 31.8601 50.0998 32.0223 50.1006 32.1846C50.1026 32.267 50.1046 32.3495 50.1067 32.4344C50.1071 33.1404 49.8758 33.5932 49.5071 34.1804C49.093 34.5945 48.478 34.9732 47.8814 35.0039C47.7918 35.0037 47.7022 35.0035 47.61 35.0033C47.5069 35.0033 47.4038 35.0033 47.2976 35.0032C47.1354 35.0025 47.1354 35.0025 46.9699 35.0017C46.8704 35.0016 46.7709 35.0015 46.6683 35.0014C46.2962 35.0009 45.9241 34.9996 45.552 34.9983C44.7202 34.9963 43.8883 34.9943 43.0312 34.9922C43.0312 33.0586 43.0312 31.125 43.0312 29.1328Z" fill="url(#paint5_linear_4538_334)"/>
<path d="M27.8982 14C29.0906 14 30.283 14 31.5115 14C31.8178 18.2574 31.8178 18.2574 30.2431 20.1531C30.037 20.3839 30.037 20.3839 29.8514 20.543C29.5584 20.543 29.5584 20.543 29.3727 20.3734C29.1408 20.0976 28.9199 19.8165 28.71 19.5237C28.6521 19.4432 28.6521 19.4432 28.5931 19.3611C27.4894 17.759 27.7609 15.8503 27.8982 14Z" fill="url(#paint6_linear_4538_334)"/>
<defs>
<linearGradient id="paint0_linear_4538_334" x1="25.0435" y1="0" x2="25.0435" y2="28.0605" gradientUnits="userSpaceOnUse">
<stop stop-color="#FA612F"/>
<stop offset="0.585" stop-color="#FB4A55"/>
<stop offset="1" stop-color="#E620AF" stop-opacity="0.8"/>
</linearGradient>
<linearGradient id="paint1_linear_4538_334" x1="21.0098" y1="29.1328" x2="21.0098" y2="35.0295" gradientUnits="userSpaceOnUse">
<stop stop-color="#FA612F"/>
<stop offset="0.585" stop-color="#FB4A55"/>
<stop offset="1" stop-color="#E620AF" stop-opacity="0.8"/>
</linearGradient>
<linearGradient id="paint2_linear_4538_334" x1="19.8379" y1="0.0390625" x2="19.8379" y2="21.0352" gradientUnits="userSpaceOnUse">
<stop stop-color="#FA612F"/>
<stop offset="0.585" stop-color="#FB4A55"/>
<stop offset="1" stop-color="#E620AF" stop-opacity="0.8"/>
</linearGradient>
<linearGradient id="paint3_linear_4538_334" x1="25.0625" y1="36.0703" x2="25.0625" y2="43.1992" gradientUnits="userSpaceOnUse">
<stop stop-color="#FA612F"/>
<stop offset="0.585" stop-color="#FB4A55"/>
<stop offset="1" stop-color="#E620AF" stop-opacity="0.8"/>
</linearGradient>
<linearGradient id="paint4_linear_4538_334" x1="29.6973" y1="0.0390625" x2="29.6973" y2="12.9297" gradientUnits="userSpaceOnUse">
<stop stop-color="#FA612F"/>
<stop offset="0.585" stop-color="#FB4A55"/>
<stop offset="1" stop-color="#E620AF" stop-opacity="0.8"/>
</linearGradient>
<linearGradient id="paint5_linear_4538_334" x1="46.569" y1="29.1328" x2="46.569" y2="35.0039" gradientUnits="userSpaceOnUse">
<stop stop-color="#FA612F"/>
<stop offset="0.585" stop-color="#FB4A55"/>
<stop offset="1" stop-color="#E620AF" stop-opacity="0.8"/>
</linearGradient>
<linearGradient id="paint6_linear_4538_334" x1="29.718" y1="14" x2="29.718" y2="20.543" gradientUnits="userSpaceOnUse">
<stop stop-color="#FA612F"/>
<stop offset="0.585" stop-color="#FB4A55"/>
<stop offset="1" stop-color="#E620AF" stop-opacity="0.8"/>
</linearGradient>
</defs>
</svg>
