<svg width="54" height="56" viewBox="0 0 54 56" fill="none" xmlns="http://www.w3.org/2000/svg">
<path d="M38.9811 41.6137C38.9765 41.3105 38.8528 41.0213 38.6368 40.8086C38.4208 40.5958 38.1297 40.4766 37.8265 40.4766C37.5233 40.4766 37.2323 40.5958 37.0162 40.8085C36.8002 41.0213 36.6765 41.3105 36.6719 41.6136C36.6765 41.9168 36.8002 42.206 37.0162 42.4187C37.2322 42.6315 37.5233 42.7507 37.8265 42.7507C38.1297 42.7508 38.4207 42.6315 38.6367 42.4188C38.8528 42.206 38.9765 41.9169 38.9811 41.6137Z" fill="url(#paint0_linear_4538_272)"/>
<path d="M43.2836 30.827C43.281 30.5239 43.1587 30.2341 42.9434 30.0207C42.7281 29.8072 42.4372 29.6875 42.134 29.6875C41.8309 29.6875 41.54 29.8072 41.3247 30.0206C41.1094 30.234 40.9871 30.5238 40.9844 30.827C40.987 31.1301 41.1093 31.4199 41.3246 31.6333C41.5399 31.8467 41.8308 31.9665 42.134 31.9665C42.4371 31.9665 42.728 31.8468 42.9433 31.6334C43.1586 31.42 43.2809 31.1302 43.2836 30.827Z" fill="url(#paint1_linear_4538_272)"/>
<path d="M43.2836 22.202C43.281 21.8989 43.1587 21.6091 42.9434 21.3957C42.7281 21.1822 42.4372 21.0625 42.134 21.0625C41.8309 21.0625 41.54 21.1822 41.3247 21.3956C41.1094 21.609 40.9871 21.8988 40.9844 22.202C40.987 22.5051 41.1093 22.7949 41.3246 23.0083C41.5399 23.2217 41.8308 23.3415 42.134 23.3415C42.4371 23.3415 42.728 23.2218 42.9433 23.0084C43.1586 22.795 43.2809 22.5052 43.2836 22.202Z" fill="url(#paint2_linear_4538_272)"/>
<path d="M38.9811 11.4097C38.9742 11.108 38.8495 10.8211 38.6337 10.6102C38.418 10.3993 38.1282 10.2813 37.8265 10.2813C37.5248 10.2812 37.2351 10.3993 37.0193 10.6102C36.8035 10.821 36.6788 11.108 36.6719 11.4096C36.6788 11.7112 36.8035 11.9982 37.0193 12.2091C37.235 12.4199 37.5248 12.538 37.8265 12.538C38.1282 12.538 38.4179 12.42 38.6337 12.2091C38.8495 11.9982 38.9742 11.7113 38.9811 11.4097Z" fill="url(#paint3_linear_4538_272)"/>
<path d="M53.3883 31.8542L50.0148 22.7679C49.9754 22.6549 49.955 22.5362 49.9546 22.4165L49.9544 18.9929C50.0264 7.08551 38.9581 0.125515 28.0469 0.046875V12.5671H29.8641L31.7216 10.7096C31.8145 10.6147 31.9254 10.5392 32.0478 10.4875C32.1702 10.4358 32.3016 10.4089 32.4344 10.4084L34.844 10.4085C35.0823 9.69897 35.565 9.0973 36.2059 8.71095C36.8469 8.3246 37.6044 8.17873 38.343 8.29942C39.0816 8.4201 39.7532 8.79948 40.2379 9.36975C40.7225 9.94003 40.9886 10.6641 40.9886 11.4125C40.9886 12.1609 40.7225 12.8849 40.2379 13.4552C39.7532 14.0254 39.0816 14.4048 38.343 14.5255C37.6044 14.6462 36.8469 14.5003 36.2059 14.114C35.565 13.7276 35.0823 13.1259 34.844 12.4165H32.846L30.9886 14.2839C30.7961 14.4673 30.5415 14.5713 30.2757 14.5751H28.0469V17.9587H33.5087C33.6742 17.9591 33.837 18.0006 33.9824 18.0794C34.1278 18.1583 34.2514 18.2721 34.342 18.4105L36.1995 21.1916L39.1614 21.1917C39.4031 20.4841 39.8885 19.8855 40.5309 19.5028C41.1733 19.1201 41.9309 18.9782 42.6682 19.1026C43.4056 19.2269 44.0747 19.6094 44.5561 20.1816C45.0374 20.7538 45.2996 21.4786 45.2959 22.2263C45.2921 22.9741 45.0227 23.6962 44.5356 24.2635C44.0486 24.8309 43.3756 25.2067 42.6371 25.3236C41.8985 25.4406 41.1424 25.2912 40.5039 24.9021C39.8654 24.513 39.386 23.9095 39.1513 23.1995L35.6673 23.1996C35.5026 23.2011 35.3402 23.1615 35.1947 23.0844C35.0492 23.0073 34.9252 22.895 34.834 22.7578L32.9766 19.9667H28.0469V25.5089H34.593C34.8557 25.5144 35.1057 25.6226 35.2895 25.8103C35.4733 25.998 35.5762 26.2502 35.5762 26.5129C35.5762 26.7756 35.4732 27.0279 35.2894 27.2155C35.1056 27.4032 34.8556 27.5114 34.593 27.5169H28.0469V33.0591H32.9766L34.834 30.268C34.9252 30.1308 35.0491 30.0186 35.1946 29.9414C35.3402 29.8643 35.5026 29.8247 35.6673 29.8262H39.1613C39.403 29.1198 39.8879 28.5222 40.5295 28.1403C41.1711 27.7584 41.9276 27.617 42.6638 27.7414C43.4 27.8657 44.068 28.2477 44.5486 28.8192C45.0291 29.3906 45.2909 30.1143 45.2872 30.8609C45.2835 31.6075 45.0144 32.3285 44.5282 32.8951C44.0419 33.4617 43.3701 33.837 42.6327 33.954C41.8953 34.0709 41.1403 33.922 40.5025 33.5337C39.8648 33.1454 39.3859 32.543 39.1513 31.8342H36.1995L34.342 34.6153C34.2514 34.7537 34.1278 34.8675 33.9824 34.9464C33.8369 35.0252 33.6742 35.0667 33.5087 35.0671H28.0469V38.4507H30.2758C30.5425 38.4499 30.7987 38.5546 30.9886 38.7419L32.846 40.6093L34.844 40.6095C35.0822 39.9 35.5649 39.2983 36.2059 38.9119C36.8469 38.5256 37.6043 38.3797 38.3429 38.5004C39.0815 38.6211 39.7532 39.0004 40.2379 39.5707C40.7225 40.141 40.9886 40.865 40.9886 41.6134C40.9886 42.3618 40.7225 43.0859 40.2379 43.6561C39.7532 44.2264 39.0815 44.6058 38.3429 44.7265C37.6043 44.8471 36.8469 44.7013 36.2059 44.3149C35.5649 43.9285 35.0822 43.3269 34.844 42.6174H32.4344C32.3016 42.6169 32.1702 42.59 32.0478 42.5383C31.9254 42.4866 31.8145 42.4111 31.7216 42.3162L29.8641 40.4587H28.0469V54.2841L35.9284 56.001V51.6636C35.9283 51.2245 36.0146 50.7897 36.1826 50.384C36.3506 49.9783 36.5968 49.6096 36.9073 49.2991C37.2178 48.9886 37.5865 48.7424 37.9922 48.5744C38.3979 48.4064 38.8327 48.3201 39.2718 48.3202H46.2899C47.2638 48.3154 48.1962 47.925 48.883 47.2344C49.5698 46.5439 49.9551 45.6094 49.9546 44.6355L49.9545 35.278C50.0145 33.6145 52.9365 34.4791 53.4586 33.0893C53.5478 32.8931 53.588 32.6782 53.5757 32.4631C53.5635 32.248 53.4992 32.039 53.3883 31.8542Z" fill="url(#paint4_linear_4538_272)"/>
<path d="M26.0375 41.2285V12.875C8.50443 14.6247 8.49143 39.4637 26.0375 41.2285Z" fill="url(#paint5_linear_4538_272)"/>
<path d="M23.4237 1.00979C23.5523 1.75107 23.3962 2.51356 22.9866 3.14465C22.577 3.77575 21.9443 4.2289 21.2149 4.41343C19.0801 4.95425 17.0344 5.79961 15.1406 6.92349C14.5023 7.30027 13.7472 7.4277 13.0207 7.28127C12.2941 7.13483 11.6473 6.72487 11.2048 6.13027C11.1143 6.02974 11.0044 5.94864 10.8816 5.8919C10.7588 5.83517 10.6258 5.80397 10.4906 5.80022C10.3553 5.79647 10.2208 5.82023 10.095 5.87006C9.96929 5.9199 9.85498 5.99477 9.75905 6.09013L6.07431 9.77487C5.9735 9.87546 5.89559 9.99663 5.8459 10.1301C5.79621 10.2636 5.77591 10.4062 5.7864 10.5482C5.79688 10.6902 5.8379 10.8283 5.90665 10.953C5.97539 11.0778 6.07025 11.1862 6.18474 11.2709C6.75279 11.7228 7.13937 12.364 7.27392 13.0773C7.40847 13.7907 7.28202 14.5286 6.91765 15.1564C5.78466 17.0504 4.93559 19.1004 4.39755 21.2408C4.21597 21.9439 3.78466 22.5569 3.18417 22.9652C2.58368 23.3735 1.85509 23.5493 1.13448 23.4597C0.993795 23.4413 0.850806 23.4529 0.714936 23.4938C0.579066 23.5346 0.453398 23.6038 0.34621 23.6968C0.239023 23.7898 0.15275 23.9044 0.0930758 24.0331C0.0334011 24.1618 0.0016793 24.3017 0 24.4436V29.6545C0.00144791 29.7959 0.0325735 29.9355 0.0913634 30.0642C0.150153 30.1929 0.235298 30.3078 0.34129 30.4014C0.447283 30.4951 0.571762 30.5655 0.706676 30.6081C0.841589 30.6506 0.983933 30.6644 1.1245 30.6485C1.84857 30.5532 2.58238 30.7278 3.18601 31.1388C3.78964 31.5499 4.22088 32.1687 4.3975 32.8774C4.94016 35.0115 5.78539 37.057 6.9075 38.9517C7.28525 39.5906 7.41224 40.347 7.26382 41.0743C7.11541 41.8015 6.70219 42.4477 6.1043 42.8875C6.0059 42.9796 5.92692 43.0904 5.872 43.2135C5.81709 43.3365 5.78736 43.4693 5.78455 43.604C5.78175 43.7388 5.80593 43.8727 5.85568 43.9979C5.90542 44.1232 5.97973 44.2372 6.07421 44.3333L9.75905 48.018C9.86053 48.1171 9.98192 48.1935 10.1152 48.2421C10.2484 48.2908 10.3905 48.3105 10.5319 48.3001C10.6734 48.2896 10.811 48.2492 10.9357 48.1816C11.0604 48.1139 11.1692 48.0205 11.2551 47.9076C11.7052 47.3371 12.3466 46.9487 13.0607 46.814C13.7748 46.6793 14.5135 46.8073 15.1406 47.1746C17.0367 48.3034 19.086 49.1522 21.225 49.6947C21.8691 49.8559 22.4407 50.2283 22.8484 50.7524C23.2561 51.2766 23.4763 51.9222 23.474 52.5863C23.4199 52.7832 23.4098 52.9897 23.4445 53.191C23.4792 53.3923 23.5578 53.5834 23.6748 53.7509C24.1069 54.3039 25.4303 54.0099 26.0343 54.0822V43.2389C5.82435 41.37 5.84279 12.729 26.0344 10.8693L26.0342 0.0158217C25.1313 0.0857417 23.4981 -0.358418 23.4237 1.00979Z" fill="url(#paint6_linear_4538_272)"/>
<defs>
<linearGradient id="paint0_linear_4538_272" x1="37.8265" y1="40.4766" x2="37.8265" y2="42.7507" gradientUnits="userSpaceOnUse">
<stop stop-color="#FA612F"/>
<stop offset="0.58" stop-color="#FB4A55"/>
<stop offset="1" stop-color="#E620AF"/>
</linearGradient>
<linearGradient id="paint1_linear_4538_272" x1="42.134" y1="29.6875" x2="42.134" y2="31.9665" gradientUnits="userSpaceOnUse">
<stop stop-color="#FA612F"/>
<stop offset="0.58" stop-color="#FB4A55"/>
<stop offset="1" stop-color="#E620AF"/>
</linearGradient>
<linearGradient id="paint2_linear_4538_272" x1="42.134" y1="21.0625" x2="42.134" y2="23.3415" gradientUnits="userSpaceOnUse">
<stop stop-color="#FA612F"/>
<stop offset="0.58" stop-color="#FB4A55"/>
<stop offset="1" stop-color="#E620AF"/>
</linearGradient>
<linearGradient id="paint3_linear_4538_272" x1="37.8265" y1="10.2812" x2="37.8265" y2="12.538" gradientUnits="userSpaceOnUse">
<stop stop-color="#FA612F"/>
<stop offset="0.58" stop-color="#FB4A55"/>
<stop offset="1" stop-color="#E620AF"/>
</linearGradient>
<linearGradient id="paint4_linear_4538_272" x1="40.8124" y1="0.046875" x2="40.8124" y2="56.001" gradientUnits="userSpaceOnUse">
<stop stop-color="#FA612F"/>
<stop offset="0.58" stop-color="#FB4A55"/>
<stop offset="1" stop-color="#E620AF"/>
</linearGradient>
<linearGradient id="paint5_linear_4538_272" x1="19.4601" y1="12.875" x2="19.4601" y2="41.2285" gradientUnits="userSpaceOnUse">
<stop stop-color="#FA612F"/>
<stop offset="0.58" stop-color="#FB4A55"/>
<stop offset="1" stop-color="#E620AF"/>
</linearGradient>
<linearGradient id="paint6_linear_4538_272" x1="13.0172" y1="0" x2="13.0172" y2="54.0971" gradientUnits="userSpaceOnUse">
<stop stop-color="#FA612F"/>
<stop offset="0.58" stop-color="#FB4A55"/>
<stop offset="1" stop-color="#E620AF"/>
</linearGradient>
</defs>
</svg>
