<svg width="40" height="51" viewBox="0 0 40 51" fill="none" xmlns="http://www.w3.org/2000/svg">
<path d="M6.43452 5.73438C15.2968 5.73438 24.1591 5.73438 33.29 5.73438C33.298 8.84827 33.3061 11.9622 33.3144 15.1704C33.318 16.1542 33.3215 17.1379 33.3252 18.1515C33.3269 19.3514 33.3269 19.3514 33.3273 19.9129C33.3276 20.3056 33.3291 20.6983 33.3312 21.091C33.3339 21.5918 33.3347 22.0926 33.3342 22.5935C33.3343 22.7773 33.335 22.9612 33.3366 23.1451C33.3385 23.3934 33.338 23.6416 33.337 23.89C33.3381 23.962 33.3392 24.034 33.3404 24.1081C33.3347 24.6047 33.2081 24.8814 32.8994 25.2656C32.2437 25.8859 31.6151 25.9927 30.7496 25.9864C30.6042 25.9871 30.6042 25.9871 30.4559 25.9878C30.1319 25.989 29.8079 25.988 29.4839 25.9871C29.2513 25.9875 29.0186 25.988 28.786 25.9887C28.2202 25.9899 27.6544 25.9897 27.0886 25.9889C26.6286 25.9882 26.1687 25.9881 25.7087 25.9884C25.6431 25.9885 25.5776 25.9885 25.51 25.9886C25.3769 25.9887 25.2437 25.9887 25.1106 25.9888C23.8626 25.9897 22.6147 25.9887 21.3668 25.9871C20.2969 25.9858 19.227 25.9861 18.1572 25.9874C16.9138 25.989 15.6704 25.9896 14.427 25.9887C14.2943 25.9886 14.1616 25.9885 14.0289 25.9884C13.9636 25.9884 13.8984 25.9883 13.8311 25.9883C13.3719 25.988 12.9127 25.9885 12.4535 25.9891C11.8349 25.99 11.2164 25.9894 10.5978 25.9877C10.3709 25.9873 10.144 25.9874 9.9171 25.9881C9.60713 25.9889 9.29723 25.9879 8.98726 25.9864C8.89767 25.9871 8.80808 25.9877 8.71577 25.9884C7.94695 25.9814 7.29702 25.8189 6.72748 25.2656C6.41614 24.8543 6.39342 24.4947 6.39928 23.9957C6.39903 23.9177 6.39878 23.8397 6.39852 23.7593C6.39804 23.4975 6.39966 23.2357 6.40126 22.9738C6.40135 22.7831 6.40131 22.5924 6.40115 22.4017C6.40108 21.8908 6.40278 21.3799 6.40484 20.8691C6.40651 20.3898 6.40659 19.9104 6.4068 19.4311C6.40834 18.0292 6.41243 16.6273 6.41621 15.2253C6.42225 12.0933 6.42829 8.9613 6.43452 5.73438ZM15.6142 7.78516C15.4027 8.10754 15.3944 8.37759 15.3941 8.7577C15.3935 8.87682 15.393 8.99594 15.3924 9.11867C15.3928 9.25037 15.3932 9.38208 15.3936 9.51379C15.3934 9.65272 15.393 9.79165 15.3926 9.93058C15.3917 10.3077 15.392 10.6848 15.3927 11.0619C15.3931 11.4565 15.3927 11.8511 15.3924 12.2457C15.392 12.9083 15.3925 13.571 15.3934 14.2337C15.3945 14.9999 15.3941 15.766 15.3931 16.5322C15.3922 17.19 15.3921 17.8478 15.3926 18.5055C15.3929 18.8984 15.3929 19.2913 15.3923 19.6842C15.3917 20.0535 15.3921 20.4229 15.3932 20.7922C15.3935 20.9278 15.3934 21.0634 15.393 21.199C15.3924 21.384 15.3932 21.569 15.3941 21.754C15.3942 21.8576 15.3942 21.9611 15.3943 22.0678C15.4193 22.3402 15.465 22.4992 15.6142 22.7266C16.0065 22.9512 16.3997 22.9503 16.8404 22.9487C16.9131 22.9492 16.9857 22.9497 17.0605 22.9502C17.2997 22.9516 17.5388 22.9515 17.7779 22.9512C17.9446 22.9516 18.1113 22.9521 18.2781 22.9525C18.6271 22.9532 18.9761 22.9532 19.3252 22.9527C19.7721 22.9521 20.219 22.9538 20.6659 22.9561C21.0101 22.9575 21.3542 22.9576 21.6984 22.9573C21.8632 22.9573 22.028 22.9578 22.1927 22.9588C22.4232 22.96 22.6536 22.9594 22.8841 22.9582C22.9519 22.959 23.0196 22.9597 23.0895 22.9605C23.5114 22.9559 23.7755 22.8878 24.1103 22.6289C24.3354 22.2912 24.3303 22.1645 24.3311 21.7664C24.3318 21.6476 24.3325 21.5287 24.3332 21.4063C24.3329 21.2744 24.3327 21.1425 24.3324 21.0106C24.3329 20.8718 24.3334 20.7331 24.3339 20.5943C24.3353 20.2172 24.3353 19.8401 24.3351 19.463C24.335 19.1482 24.3354 18.8334 24.3359 18.5187C24.337 17.776 24.337 17.0334 24.3364 16.2908C24.3358 15.5247 24.337 14.7585 24.3391 13.9924C24.3409 13.3347 24.3414 12.677 24.3411 12.0194C24.3409 11.6265 24.3412 11.2337 24.3426 10.8409C24.3438 10.4713 24.3436 10.1018 24.3423 9.73231C24.3421 9.59677 24.3424 9.46123 24.3432 9.32569C24.3442 9.1405 24.3432 8.9553 24.3422 8.7701C24.3422 8.61472 24.3422 8.61472 24.3422 8.45619C24.3001 8.13368 24.2033 7.94867 24.0126 7.6875C23.6716 7.5284 23.2664 7.57542 22.8951 7.57566C22.8225 7.57533 22.7499 7.575 22.6751 7.57466C22.4354 7.57374 22.1958 7.57355 21.9561 7.57344C21.7893 7.57313 21.6224 7.5728 21.4556 7.57246C21.1059 7.57187 20.7563 7.57169 20.4067 7.57175C19.959 7.57176 19.5113 7.57042 19.0636 7.56874C18.719 7.56766 18.3745 7.56746 18.0299 7.56751C17.8648 7.5674 17.6998 7.56696 17.5348 7.56621C17.3038 7.56525 17.0729 7.56553 16.842 7.56612C16.774 7.56557 16.7061 7.56502 16.6361 7.56446C16.2546 7.56692 15.9481 7.59353 15.6142 7.78516ZM26.2587 12.5703C26.1357 12.8446 26.1357 12.8446 26.1611 13.1562C26.3581 13.4106 26.3581 13.4106 26.6494 13.6445C26.7579 13.7536 26.8657 13.8636 26.9728 13.9741C27.2855 14.2902 27.6195 14.5715 27.9673 14.8481C28.1142 15.0117 28.1142 15.0117 28.1142 15.4023C27.9754 15.5765 27.9754 15.5765 27.7827 15.7506C27.7135 15.8141 27.6444 15.8776 27.5731 15.9431C27.4633 16.041 27.4633 16.041 27.3513 16.1409C27.2082 16.2712 27.0651 16.4015 26.9221 16.5319C26.8262 16.6179 26.8262 16.6179 26.7284 16.7057C26.2946 17.093 26.2946 17.093 26.1611 17.6484C26.3208 17.9443 26.3208 17.9443 26.5334 18.0208C26.8773 18.0502 27.1218 17.9347 27.3903 17.7196C27.5637 17.5627 27.7326 17.4022 27.9006 17.2395C28.0219 17.1243 28.1434 17.0093 28.2649 16.8943C28.323 16.839 28.381 16.7837 28.4409 16.7268C29.1843 16.025 29.1843 16.025 29.5943 15.7487C29.8117 15.5967 29.8117 15.5967 29.8598 15.2437C29.8378 14.8286 29.654 14.6561 29.3532 14.3831C29.1699 14.2323 28.9847 14.0838 28.7978 13.9375C28.6104 13.7852 28.4232 13.6326 28.2363 13.4797C28.1469 13.4079 28.0575 13.336 27.9654 13.2619C27.7598 13.089 27.5767 12.9131 27.394 12.7168C27.0341 12.3741 26.6745 12.2288 26.2587 12.5703ZM12.4465 12.7412C12.0738 13.0891 11.693 13.4237 11.3051 13.7544C11.2479 13.8035 11.1907 13.8525 11.1318 13.9031C11.0759 13.9509 11.0201 13.9988 10.9626 14.0481C10.908 14.095 10.8534 14.142 10.7972 14.1903C10.6882 14.2822 10.5775 14.3724 10.4655 14.4606C10.1742 14.6911 10.0545 14.7966 9.93183 15.1582C9.95617 15.6126 10.1079 15.6846 10.4384 15.9883C10.5377 16.0816 10.637 16.1749 10.7363 16.2683C10.8424 16.3663 10.9486 16.4642 11.0549 16.562C11.1104 16.6132 11.1658 16.6643 11.223 16.717C11.595 17.0589 11.971 17.3957 12.3534 17.7259C12.4334 17.7953 12.512 17.8665 12.5869 17.9414C12.7352 17.9484 12.8839 17.9496 13.0324 17.9475C13.1131 17.9466 13.1938 17.9457 13.2769 17.9448C13.3393 17.9437 13.4016 17.9426 13.4658 17.9414C13.5578 17.6234 13.5578 17.6234 13.5634 17.2578C13.4053 17.0506 13.2749 16.9309 13.0751 16.7695C12.9141 16.6234 12.7534 16.4769 12.593 16.3301C12.2388 16.013 11.881 15.7028 11.5126 15.4023C11.6443 15.1018 11.7833 14.9202 12.0337 14.7096C12.0974 14.6553 12.1611 14.6011 12.2268 14.5452C12.3265 14.4619 12.3265 14.4619 12.4282 14.377C13.1933 13.8243 13.1933 13.8243 13.6061 13.0525C13.584 12.7707 13.584 12.7707 13.4475 12.5825C13.0641 12.3446 12.7522 12.4447 12.4465 12.7412Z" fill="url(#paint0_linear_4538_324)"/>
<path d="M36.1764 8.93376C36.2999 8.93092 36.4233 8.92809 36.5505 8.92517C37.4199 8.91926 37.9512 9.00627 38.6301 9.57463C39.2318 10.2902 39.4567 10.8414 39.4536 11.7794C39.4536 11.8683 39.4537 11.9573 39.4538 12.049C39.454 12.3492 39.4534 12.6495 39.4529 12.9498C39.4529 13.1678 39.4529 13.3859 39.4529 13.604C39.453 14.1893 39.4524 14.7746 39.4517 15.36C39.4512 15.9087 39.4511 16.4574 39.4511 17.0062C39.4505 18.6123 39.4492 20.2183 39.4479 21.8244C39.4459 25.4116 39.4439 28.9988 39.4418 32.6947C26.4545 32.6947 13.4672 32.6947 0.0863508 32.6947C0.07628 29.1377 0.0662092 25.5807 0.0558332 21.9159C0.0513879 20.793 0.0469426 19.6701 0.0423625 18.5131C0.0401572 17.1413 0.0401557 17.1413 0.0397459 16.4991C0.0392912 16.0507 0.0374621 15.6024 0.0347987 15.154C0.0314441 14.5816 0.0304472 14.0094 0.031139 13.437C0.0309944 13.2272 0.0300307 13.0174 0.0281409 12.8076C0.00951263 10.6386 0.00951097 10.6386 0.768964 9.83212C1.54668 9.07948 2.24374 9.01793 3.29566 9.03446C3.49366 9.03754 3.69158 9.03847 3.8896 9.03904C4.85645 9.04687 4.85645 9.04687 4.96916 9.15959C4.97937 9.35141 4.98264 9.54361 4.9833 9.7357C4.98397 9.86096 4.98465 9.98623 4.98534 10.1153C4.98561 10.2554 4.98586 10.3956 4.98612 10.5357C4.98673 10.6823 4.98739 10.8289 4.98809 10.9755C4.98953 11.2921 4.99067 11.6087 4.9916 11.9252C4.99311 12.4264 4.99545 12.9275 4.99794 13.4287C5.0049 14.8541 5.01072 16.2795 5.01573 17.705C5.0185 18.4916 5.02196 19.2781 5.02614 20.0647C5.02875 20.5622 5.0305 21.0597 5.03161 21.5572C5.03251 21.8681 5.03421 22.1789 5.03612 22.4898C5.03685 22.6332 5.03725 22.7765 5.03729 22.9199C5.03801 24.2281 5.10488 25.2062 5.97624 26.2189C7.09225 27.1792 8.28918 27.3393 9.71649 27.3367C9.85206 27.337 9.85206 27.337 9.99037 27.3374C10.291 27.338 10.5917 27.3379 10.8923 27.3378C11.1088 27.3381 11.3253 27.3385 11.5418 27.3388C12.1283 27.3397 12.7149 27.3399 13.3014 27.34C13.6683 27.3401 14.0352 27.3403 14.4021 27.3405C15.6172 27.3414 16.8323 27.3418 18.0474 27.3418C18.1128 27.3418 18.1781 27.3417 18.2455 27.3417C18.3437 27.3417 18.3437 27.3417 18.4439 27.3417C19.5042 27.3417 20.5645 27.3426 21.6248 27.344C22.7159 27.3454 23.807 27.3461 24.8981 27.346C25.5097 27.346 26.1213 27.3462 26.7329 27.3473C27.3085 27.3482 27.884 27.3482 28.4595 27.3475C28.67 27.3474 28.8805 27.3477 29.091 27.3482C31.0285 27.4049 31.0285 27.4049 32.85 26.8476C32.9417 26.7995 33.0333 26.7514 33.1277 26.7019C33.5749 26.427 33.9104 26.1558 34.1867 25.7062C34.2344 25.6316 34.2821 25.5569 34.3313 25.48C34.7195 24.5705 34.686 23.5718 34.6863 22.6001C34.687 22.4519 34.6878 22.3037 34.6887 22.1556C34.6905 21.8388 34.6917 21.522 34.6924 21.2052C34.6935 20.7046 34.696 20.2041 34.6987 19.7035C34.7027 18.9127 34.7059 18.1218 34.7087 17.331C34.7137 15.9118 34.7197 14.4926 34.7268 13.0734C34.7292 12.5754 34.7311 12.0773 34.7326 11.5792C34.7336 11.2706 34.735 10.9621 34.7365 10.6535C34.7371 10.5099 34.7375 10.3663 34.7378 10.2228C34.7381 10.0276 34.7391 9.83251 34.7402 9.63739C34.7406 9.52797 34.7409 9.41855 34.7413 9.30582C34.7736 8.69931 35.7141 8.93722 36.1764 8.93376Z" fill="url(#paint1_linear_4538_324)"/>
<path d="M0.0840685 34.25C13.0714 34.25 26.0587 34.25 39.4395 34.25C39.5639 37.8578 39.5639 37.8578 38.7559 38.7422C37.9733 39.4847 37.1863 39.4684 36.1589 39.4643C36.0124 39.4648 35.8659 39.4654 35.7194 39.4661C35.3175 39.4677 34.9157 39.4675 34.5138 39.4669C34.0801 39.4667 33.6464 39.4681 33.2127 39.4693C32.3633 39.4714 31.5139 39.4718 30.6644 39.4716C29.9739 39.4715 29.2835 39.4719 28.593 39.4726C28.394 39.4728 28.1951 39.473 27.9962 39.4732C27.8972 39.4733 27.7982 39.4734 27.6962 39.4735C25.8237 39.4754 23.9512 39.4753 22.0787 39.4746C20.3661 39.474 18.6536 39.4761 16.941 39.4793C15.1822 39.4826 13.4234 39.4841 11.6646 39.4836C10.6773 39.4834 9.68998 39.4839 8.70269 39.4864C7.86212 39.4884 7.02157 39.4888 6.181 39.4869C5.75228 39.486 5.32358 39.4859 4.89486 39.4879C4.50202 39.4898 4.10925 39.4893 3.71641 39.4871C3.57466 39.4867 3.43291 39.4871 3.29116 39.4884C2.34301 39.4967 1.56849 39.41 0.851766 38.7432C-0.37485 37.4576 0.0840685 36.1388 0.0840685 34.25Z" fill="url(#paint2_linear_4538_324)"/>
<path d="M10.9516 42.7351C11.0806 42.7351 11.0806 42.7351 11.2123 42.7351C11.3052 42.7356 11.3982 42.7361 11.494 42.7366C11.6367 42.7368 11.6367 42.7368 11.7822 42.7371C12.0867 42.7376 12.3912 42.7388 12.6957 42.7401C12.9018 42.7406 13.1079 42.741 13.314 42.7414C13.82 42.7425 14.3259 42.7441 14.8319 42.7462C14.8348 42.9079 14.8348 42.9079 14.8378 43.0729C14.8452 43.4764 14.8539 43.8799 14.8629 44.2834C14.8666 44.4573 14.87 44.6313 14.8731 44.8053C14.8776 45.0567 14.8832 45.3081 14.8891 45.5595C14.8902 45.6361 14.8914 45.7128 14.8925 45.7917C14.915 46.6509 15.0187 47.323 15.6269 47.9551C16.3825 48.6298 17.3818 48.5234 18.3315 48.5243C18.452 48.5246 18.5725 48.5249 18.6966 48.5253C18.9509 48.5258 19.2052 48.526 19.4595 48.526C19.847 48.5262 20.2344 48.528 20.6218 48.5298C20.8695 48.5301 21.1172 48.5303 21.3649 48.5304C21.5376 48.5314 21.5376 48.5314 21.7137 48.5325C22.6361 48.53 23.3563 48.4729 24.1092 47.9219C24.1737 47.9219 24.2381 47.9219 24.3045 47.9219C24.6911 47.2083 24.8368 46.5998 24.8428 45.7979C24.8445 45.7102 24.8463 45.6224 24.8481 45.532C24.8534 45.2544 24.8567 44.9769 24.86 44.6993C24.8632 44.51 24.8666 44.3206 24.8701 44.1313C24.8783 43.6696 24.8849 43.2079 24.8905 42.7462C25.4971 42.7389 26.1036 42.7336 26.7102 42.7301C26.9166 42.7286 27.123 42.7266 27.3294 42.7241C27.6259 42.7205 27.9223 42.7189 28.2188 42.7176C28.3113 42.716 28.4038 42.7145 28.499 42.713C28.628 42.7129 28.628 42.7129 28.7597 42.7129C28.8353 42.7123 28.911 42.7116 28.989 42.7109C29.2407 42.7556 29.3244 42.8404 29.4803 43.0391C29.5565 43.2676 29.5565 43.2676 29.6131 43.5423C29.6351 43.6468 29.6571 43.7512 29.6798 43.8589C29.7026 43.9731 29.7254 44.0873 29.7489 44.2049C29.7732 44.3234 29.7976 44.4419 29.8227 44.5639C29.8759 44.8245 29.9287 45.0851 29.9807 45.3459C30.04 45.6433 30.1003 45.9404 30.1614 46.2373C30.2432 46.635 30.3238 47.0328 30.4036 47.4309C30.4349 47.5867 30.4666 47.7425 30.4985 47.8982C30.5435 48.1183 30.5872 48.3386 30.6305 48.559C30.6441 48.6242 30.6576 48.6894 30.6717 48.7566C30.7484 49.1565 30.7425 49.4783 30.6522 49.8751C30.5877 49.8751 30.5233 49.8751 30.4569 49.8751C30.4569 49.9395 30.4569 50.004 30.4569 50.0704C30.1407 50.2285 29.7941 50.1825 29.4467 50.1824C29.3187 50.183 29.3187 50.183 29.1882 50.1835C28.9007 50.1846 28.6132 50.185 28.3256 50.1853C28.1202 50.1859 27.9147 50.1866 27.7093 50.1873C27.15 50.189 26.5907 50.19 26.0314 50.1908C25.6824 50.1913 25.3333 50.1919 24.9842 50.1925C23.8932 50.1944 22.8021 50.1958 21.711 50.1966C20.4495 50.1975 19.1881 50.2001 17.9266 50.2041C16.9528 50.207 15.979 50.2084 15.0051 50.2088C14.4229 50.209 13.8407 50.2099 13.2584 50.2123C12.7111 50.2146 12.1637 50.215 11.6163 50.214C11.415 50.214 11.2137 50.2146 11.0125 50.2159C10.7384 50.2176 10.4645 50.217 10.1904 50.2157C10.1101 50.2167 10.0298 50.2178 9.94702 50.2189C9.41042 50.2128 9.41042 50.2128 9.16724 49.9827C8.8251 49.2592 9.14799 48.2688 9.29829 47.5264C9.32167 47.4075 9.34505 47.2887 9.36914 47.1662C9.41845 46.9166 9.46821 46.667 9.5184 46.4175C9.59514 46.0356 9.67036 45.6535 9.74537 45.2713C9.7936 45.0281 9.84192 44.7849 9.89033 44.5417C9.91282 44.4277 9.93531 44.3137 9.95848 44.1962C9.97997 44.0899 10.0015 43.9836 10.0236 43.8741C10.0423 43.7809 10.0609 43.6878 10.0801 43.5919C10.1455 43.3278 10.2234 43.0898 10.3397 42.8438C10.5672 42.7301 10.6983 42.7344 10.9516 42.7351Z" fill="url(#paint3_linear_4538_324)"/>
<path d="M16.6875 8.76562C18.7822 8.76562 20.877 8.76562 23.0352 8.76562C23.0352 13.0195 23.0352 17.2734 23.0352 21.6562C20.9404 21.6562 18.8457 21.6562 16.6875 21.6562C16.6875 17.4023 16.6875 13.1484 16.6875 8.76562Z" fill="url(#paint4_linear_4538_324)"/>
<path d="M21.4998 0.0405652C21.8557 0.0461106 22.2115 0.0453303 22.5674 0.0453745C23.165 0.0463678 23.7624 0.0518155 24.36 0.0602384C25.0487 0.0699198 25.7373 0.0738738 26.426 0.0744478C27.1622 0.0750874 27.8983 0.079457 28.6344 0.0851594C28.8452 0.0865771 29.056 0.0873612 29.2668 0.0880214C29.6613 0.089517 30.0557 0.0952445 30.4502 0.101437C30.6237 0.101565 30.6237 0.101565 30.8007 0.101696C31.5872 0.118832 32.281 0.262977 32.8714 0.818406C33.8204 1.92199 33.293 2.51226 33.293 4.47234C27.5244 4.47234 21.7559 4.47234 15.8125 4.47234C15.9908 4.02649 16.1533 3.77309 16.4473 3.40423C16.8812 2.85311 17.2923 2.2899 17.6958 1.71622C17.7383 1.66138 17.7809 1.60654 17.8247 1.55004C17.9745 1.34207 17.9745 1.34207 18.0781 1.0596C18.7509 -0.261901 20.2067 0.0163431 21.4998 0.0405652ZM20.4023 2.61687C20.3442 3.0159 20.3715 3.15657 20.5977 3.49578C21.1156 3.66843 21.6557 3.66532 22.1724 3.48968C22.388 3.30208 22.388 3.30208 22.4165 2.95867C22.388 2.61526 22.388 2.61526 22.1724 2.42766C21.6015 2.23357 20.8596 2.1596 20.4023 2.61687ZM23.5273 2.61687C23.5045 3.08462 23.5045 3.08462 23.7227 3.49578C24.2707 3.67845 24.8138 3.66727 25.3462 3.44695C25.4227 3.39861 25.4993 3.35027 25.5781 3.30047C25.6158 2.89351 25.6158 2.89351 25.45 2.53753C24.8635 2.12481 24.0997 2.26468 23.5273 2.61687ZM26.6523 2.71453C26.6804 2.94299 26.7128 3.17097 26.75 3.39812C27.2172 3.64732 27.6986 3.65107 28.2148 3.59343C28.4571 3.47973 28.6147 3.38892 28.8008 3.20281C28.7727 2.97435 28.7403 2.74637 28.7031 2.51922C28.0451 2.16825 27.1957 2.17117 26.6523 2.71453Z" fill="url(#paint5_linear_4538_324)"/>
<path d="M16.2949 40.8906C18.6474 40.8906 20.9999 40.8906 23.4238 40.8906C23.4318 41.8655 23.4399 42.8403 23.4482 43.8447C23.4517 44.1522 23.4553 44.4596 23.459 44.7764C23.4601 45.0197 23.4611 45.2631 23.4619 45.5064C23.4639 45.633 23.4659 45.7597 23.468 45.8901C23.468 46.011 23.4681 46.1319 23.4681 46.2565C23.469 46.3614 23.4698 46.4664 23.4707 46.5745C23.4238 46.8477 23.4238 46.8477 23.2645 47.0768C22.9636 47.2868 22.7779 47.2878 22.4123 47.2888C22.2865 47.2901 22.1607 47.2913 22.0311 47.2926C21.8941 47.2919 21.7572 47.2911 21.6202 47.2902C21.4794 47.2904 21.3385 47.2908 21.1977 47.2913C20.9028 47.2919 20.608 47.291 20.3131 47.2892C19.9355 47.287 19.5579 47.2883 19.1802 47.2906C18.8895 47.292 18.5988 47.2916 18.3081 47.2906C18.1689 47.2903 18.0296 47.2906 17.8904 47.2915C17.6957 47.2925 17.501 47.2907 17.3063 47.2888C17.1956 47.2885 17.0849 47.2882 16.9708 47.2879C16.6855 47.2383 16.6855 47.2383 16.4541 47.0768C16.2503 46.7836 16.2476 46.612 16.2505 46.2565C16.2506 46.1356 16.2506 46.0147 16.2507 45.8901C16.2527 45.7635 16.2547 45.6369 16.2567 45.5064C16.2571 45.3897 16.2575 45.273 16.2579 45.1527C16.26 44.7167 16.2654 44.2807 16.2704 43.8447C16.2785 42.8699 16.2866 41.895 16.2949 40.8906Z" fill="url(#paint6_linear_4538_324)"/>
<path d="M8.92459 0.149129C9.01611 0.1491 9.10764 0.149072 9.20193 0.149042C9.50312 0.149178 9.80429 0.150695 10.1055 0.152228C10.3148 0.152593 10.5242 0.152871 10.7335 0.153066C11.2836 0.15381 11.8336 0.155728 12.3836 0.157891C12.9453 0.159891 13.5069 0.160781 14.0686 0.161765C15.1699 0.163857 16.2712 0.167189 17.3725 0.171302C17.215 0.590241 17.0177 0.888081 16.7377 1.23942C16.3038 1.79053 15.8926 2.35374 15.4892 2.92742C15.4274 3.00965 15.4274 3.00965 15.3644 3.09353C15.2124 3.30487 15.2124 3.30487 15.0697 3.58465C14.5926 4.3794 14.5926 4.3794 14.1618 4.53395C13.6219 4.63464 13.075 4.60262 12.5289 4.58262C12.3529 4.58043 12.1768 4.57876 12.0007 4.57759C11.5396 4.57314 11.0789 4.56165 10.6179 4.54864C10.1466 4.5366 9.67527 4.53129 9.20387 4.5254C8.28071 4.51287 7.35788 4.4929 6.43497 4.46818C6.42527 4.04777 6.4182 3.62743 6.41351 3.20694C6.41156 3.0641 6.4089 2.92127 6.4055 2.77846C6.40073 2.57238 6.39854 2.36641 6.39682 2.16028C6.39478 2.03652 6.39273 1.91276 6.39062 1.78525C6.45997 1.24668 6.72239 0.953616 7.10636 0.586341C7.69336 0.163697 8.22725 0.143405 8.92459 0.149129Z" fill="url(#paint7_linear_4538_324)"/>
<defs>
<linearGradient id="paint0_linear_4538_324" x1="19.8694" y1="5.73438" x2="19.8694" y2="25.9895" gradientUnits="userSpaceOnUse">
<stop stop-color="#FA612F"/>
<stop offset="0.81" stop-color="#FB4A55"/>
<stop offset="1" stop-color="#E620AF"/>
</linearGradient>
<linearGradient id="paint1_linear_4538_324" x1="19.7386" y1="8.89062" x2="19.7386" y2="32.6947" gradientUnits="userSpaceOnUse">
<stop stop-color="#FA612F"/>
<stop offset="0.81" stop-color="#FB4A55"/>
<stop offset="1" stop-color="#E620AF"/>
</linearGradient>
<linearGradient id="paint2_linear_4538_324" x1="19.7499" y1="34.25" x2="19.7499" y2="39.4891" gradientUnits="userSpaceOnUse">
<stop stop-color="#FA612F"/>
<stop offset="0.81" stop-color="#FB4A55"/>
<stop offset="1" stop-color="#E620AF"/>
</linearGradient>
<linearGradient id="paint3_linear_4538_324" x1="19.8703" y1="42.7109" x2="19.8703" y2="50.2189" gradientUnits="userSpaceOnUse">
<stop stop-color="#FA612F"/>
<stop offset="0.81" stop-color="#FB4A55"/>
<stop offset="1" stop-color="#E620AF"/>
</linearGradient>
<linearGradient id="paint4_linear_4538_324" x1="19.8613" y1="8.76562" x2="19.8613" y2="21.6562" gradientUnits="userSpaceOnUse">
<stop stop-color="#FA612F"/>
<stop offset="0.81" stop-color="#FB4A55"/>
<stop offset="1" stop-color="#E620AF"/>
</linearGradient>
<linearGradient id="paint5_linear_4538_324" x1="24.6258" y1="0" x2="24.6258" y2="4.47234" gradientUnits="userSpaceOnUse">
<stop stop-color="#FA612F"/>
<stop offset="0.81" stop-color="#FB4A55"/>
<stop offset="1" stop-color="#E620AF"/>
</linearGradient>
<linearGradient id="paint6_linear_4538_324" x1="19.8604" y1="40.8906" x2="19.8604" y2="47.2926" gradientUnits="userSpaceOnUse">
<stop stop-color="#FA612F"/>
<stop offset="0.81" stop-color="#FB4A55"/>
<stop offset="1" stop-color="#E620AF"/>
</linearGradient>
<linearGradient id="paint7_linear_4538_324" x1="11.8815" y1="0.148437" x2="11.8815" y2="4.60376" gradientUnits="userSpaceOnUse">
<stop stop-color="#FA612F"/>
<stop offset="0.81" stop-color="#FB4A55"/>
<stop offset="1" stop-color="#E620AF"/>
</linearGradient>
</defs>
</svg>
