<svg width="109" height="24" viewBox="0 0 109 24" fill="none" xmlns="http://www.w3.org/2000/svg">
<path d="M54.8401 12.7148V5.51484H57.7303C58.4778 5.51484 59.0469 5.6897 59.4378 6.03941C59.8355 6.38227 60.0343 6.82456 60.0343 7.36627C60.0343 7.81884 59.9109 8.18227 59.6641 8.45656C59.4241 8.72399 59.1292 8.9057 58.7795 9.0017C59.1909 9.08399 59.5303 9.2897 59.7978 9.61884C60.0652 9.94113 60.1989 10.3183 60.1989 10.7503C60.1989 11.3194 59.9932 11.7891 59.5818 12.1594C59.1703 12.5297 58.5875 12.7148 57.8332 12.7148H54.8401ZM56.1566 8.53884H57.5349C57.9052 8.53884 58.1898 8.45313 58.3886 8.2817C58.5875 8.11027 58.6869 7.86684 58.6869 7.55141C58.6869 7.2497 58.5875 7.01313 58.3886 6.8417C58.1966 6.66342 57.9052 6.57427 57.5143 6.57427H56.1566V8.53884ZM56.1566 11.6451H57.6275C58.0183 11.6451 58.3201 11.556 58.5326 11.3777C58.7521 11.1926 58.8618 10.9354 58.8618 10.6063C58.8618 10.2703 58.7486 10.0063 58.5223 9.81427C58.2961 9.62227 57.9909 9.52627 57.6069 9.52627H56.1566V11.6451ZM61.3289 12.7148V5.51484H66.0295V6.57427H62.6455V8.54913H65.7209V9.5777H62.6455V11.6554H66.0295V12.7148H61.3289ZM69.7336 12.8383C69.2056 12.8383 68.7393 12.7491 68.3347 12.5708C67.9302 12.3857 67.6113 12.1251 67.3782 11.7891C67.145 11.4463 67.025 11.0314 67.0182 10.5446H68.4067C68.4205 10.8806 68.5405 11.1651 68.7667 11.3983C68.9999 11.6246 69.3187 11.7377 69.7233 11.7377C70.073 11.7377 70.3507 11.6554 70.5565 11.4908C70.7622 11.3194 70.865 11.0931 70.865 10.812C70.865 10.5171 70.7725 10.2874 70.5873 10.1228C70.409 9.95827 70.169 9.82456 69.8673 9.7217C69.5656 9.61884 69.2433 9.50913 68.9005 9.39256C68.345 9.20056 67.9199 8.9537 67.625 8.65199C67.337 8.35027 67.193 7.94913 67.193 7.44856C67.1862 7.02342 67.2856 6.65999 67.4913 6.35827C67.7039 6.0497 67.9919 5.81313 68.3553 5.64856C68.7187 5.47713 69.137 5.39142 69.6102 5.39142C70.0902 5.39142 70.5119 5.47713 70.8753 5.64856C71.2456 5.81999 71.5336 6.05999 71.7393 6.36856C71.9519 6.67713 72.065 7.04399 72.0787 7.46913H70.6696C70.6627 7.21541 70.5633 6.99256 70.3713 6.80056C70.1862 6.6017 69.9256 6.50227 69.5896 6.50227C69.3016 6.49542 69.0582 6.56742 68.8593 6.71827C68.6673 6.86227 68.5713 7.07484 68.5713 7.35599C68.5713 7.59599 68.6467 7.78799 68.7976 7.93199C68.9485 8.06913 69.1542 8.1857 69.4147 8.2817C69.6753 8.3777 69.9736 8.48056 70.3096 8.59027C70.6662 8.7137 70.9919 8.8577 71.2867 9.02227C71.5816 9.18684 71.8182 9.40627 71.9965 9.68056C72.1747 9.94799 72.2639 10.2943 72.2639 10.7194C72.2639 11.0966 72.1679 11.4463 71.9759 11.7686C71.7839 12.0908 71.4993 12.3514 71.1222 12.5503C70.745 12.7423 70.2822 12.8383 69.7336 12.8383ZM74.9988 12.7148V6.57427H72.9005V5.51484H78.4239V6.57427H76.3153V12.7148H74.9988Z" fill="white"/>
<path d="M56.5503 18.4914C56.1869 18.4914 55.8749 18.4143 55.6143 18.26C55.3537 18.1023 55.1532 17.8845 55.0126 17.6068C54.872 17.3257 54.8017 17.0017 54.8017 16.6348C54.8017 16.268 54.872 15.944 55.0126 15.6628C55.1532 15.3817 55.3537 15.1623 55.6143 15.0045C55.8749 14.8468 56.1869 14.768 56.5503 14.768C56.9823 14.768 57.3355 14.876 57.6097 15.092C57.8875 15.3045 58.0606 15.6045 58.1292 15.992H57.404C57.3595 15.7965 57.2635 15.644 57.116 15.5343C56.972 15.4211 56.78 15.3645 56.54 15.3645C56.2075 15.3645 55.9469 15.4777 55.7583 15.704C55.5697 15.9303 55.4755 16.2405 55.4755 16.6348C55.4755 17.0291 55.5697 17.3394 55.7583 17.5657C55.9469 17.7885 56.2075 17.9 56.54 17.9C56.78 17.9 56.972 17.8485 57.116 17.7457C57.2635 17.6394 57.3595 17.4937 57.404 17.3085H58.1292C58.0606 17.6788 57.8875 17.9685 57.6097 18.1777C57.3355 18.3868 56.9823 18.4914 56.5503 18.4914ZM58.7119 18.4297V14.8297H59.3702V16.3263H60.985V14.8297H61.6433V18.4297H60.985V16.8611H59.3702V18.4297H58.7119ZM64.0299 18.4914C63.6699 18.4914 63.3544 18.4125 63.0836 18.2548C62.8162 18.0971 62.6053 17.8794 62.451 17.6017C62.3002 17.3205 62.2247 16.9965 62.2247 16.6297C62.2247 16.2628 62.3002 15.9405 62.451 15.6628C62.6053 15.3817 62.8162 15.1623 63.0836 15.0045C63.3544 14.8468 63.6699 14.768 64.0299 14.768C64.3864 14.768 64.7002 14.8468 64.971 15.0045C65.2419 15.1623 65.4527 15.3817 65.6036 15.6628C65.7544 15.9405 65.8299 16.2628 65.8299 16.6297C65.8299 16.9965 65.7544 17.3205 65.6036 17.6017C65.4527 17.8794 65.2419 18.0971 64.971 18.2548C64.7002 18.4125 64.3864 18.4914 64.0299 18.4914ZM64.0299 17.9C64.3727 17.9 64.6453 17.7868 64.8476 17.5605C65.0533 17.3343 65.1562 17.024 65.1562 16.6297C65.1562 16.2354 65.0533 15.9251 64.8476 15.6988C64.6453 15.4725 64.3727 15.3594 64.0299 15.3594C63.687 15.3594 63.4127 15.4725 63.207 15.6988C63.0013 15.9251 62.8984 16.2354 62.8984 16.6297C62.8984 17.024 63.0013 17.3343 63.207 17.5605C63.4127 17.7868 63.687 17.9 64.0299 17.9ZM66.4111 18.4297V14.8297H67.0694V18.4297H66.4111ZM69.3974 18.4914C69.034 18.4914 68.722 18.4143 68.4614 18.26C68.2008 18.1023 68.0003 17.8845 67.8597 17.6068C67.7191 17.3257 67.6488 17.0017 67.6488 16.6348C67.6488 16.268 67.7191 15.944 67.8597 15.6628C68.0003 15.3817 68.2008 15.1623 68.4614 15.0045C68.722 14.8468 69.034 14.768 69.3974 14.768C69.8294 14.768 70.1826 14.876 70.4568 15.092C70.7346 15.3045 70.9077 15.6045 70.9763 15.992H70.2511C70.2066 15.7965 70.1106 15.644 69.9631 15.5343C69.8191 15.4211 69.6271 15.3645 69.3871 15.3645C69.0546 15.3645 68.794 15.4777 68.6054 15.704C68.4168 15.9303 68.3226 16.2405 68.3226 16.6348C68.3226 17.0291 68.4168 17.3394 68.6054 17.5657C68.794 17.7885 69.0546 17.9 69.3871 17.9C69.6271 17.9 69.8191 17.8485 69.9631 17.7457C70.1106 17.6394 70.2066 17.4937 70.2511 17.3085H70.9763C70.9077 17.6788 70.7346 17.9685 70.4568 18.1777C70.1826 18.3868 69.8294 18.4914 69.3974 18.4914ZM71.559 18.4297V14.8297H73.9093V15.3594H72.2173V16.3468H73.755V16.8611H72.2173V17.9H73.9093V18.4297H71.559Z" fill="#CCCCCC"/>
<mask id="mask0_1292_495" style="mask-type:alpha" maskUnits="userSpaceOnUse" x="31" y="1" width="21" height="22">
<rect x="31" y="1.71484" width="20.5714" height="20.5714" fill="#69B100"/>
</mask>
<g mask="url(#mask0_1292_495)">
<path d="M37.5324 7.20112L39.9324 4.09397C40.1038 3.8654 40.3074 3.69754 40.5431 3.5904C40.7788 3.48326 41.0252 3.42969 41.2824 3.42969C41.5395 3.42969 41.7859 3.48326 42.0217 3.5904C42.2574 3.69754 42.4609 3.8654 42.6324 4.09397L45.0324 7.20112L48.6752 8.42255C49.0467 8.53683 49.3395 8.74755 49.5538 9.05469C49.7681 9.36183 49.8752 9.70112 49.8752 10.0725C49.8752 10.244 49.8502 10.4154 49.8002 10.5868C49.7502 10.7583 49.6681 10.9225 49.5538 11.0797L47.1967 14.4225L47.2824 17.9368C47.2967 18.4368 47.1324 18.8583 46.7895 19.2011C46.4467 19.544 46.0467 19.7154 45.5895 19.7154C45.5609 19.7154 45.4038 19.694 45.1181 19.6511L41.2824 18.5797L37.4467 19.6511C37.3752 19.6797 37.2967 19.6975 37.2109 19.7047C37.1252 19.7118 37.0467 19.7154 36.9752 19.7154C36.5181 19.7154 36.1181 19.544 35.7752 19.2011C35.4324 18.8583 35.2681 18.4368 35.2824 17.9368L35.3681 14.4011L33.0324 11.0797C32.9181 10.9225 32.8359 10.7583 32.7859 10.5868C32.7359 10.4154 32.7109 10.244 32.7109 10.0725C32.7109 9.7154 32.8145 9.38326 33.0217 9.07612C33.2288 8.76897 33.5181 8.55112 33.8895 8.42255L37.5324 7.20112ZM38.5824 8.67969L34.4252 10.0511L37.0824 13.8868L36.9967 17.9797L41.2824 16.8011L45.5681 18.0011L45.4824 13.8868L48.1395 10.094L43.9824 8.67969L41.2824 5.14397L38.5824 8.67969Z" fill="url(#paint0_linear_1292_495)"/>
</g>
<defs>
<linearGradient id="paint0_linear_1292_495" x1="33.1669" y1="9.30322" x2="50.0724" y2="10.1101" gradientUnits="userSpaceOnUse">
<stop stop-color="#F87708"/>
<stop offset="0.591159" stop-color="#FB4A55"/>
<stop offset="0.996" stop-color="#E620AF"/>
</linearGradient>
</defs>
</svg>
