<svg width="109" height="24" viewBox="0 0 109 24" fill="none" xmlns="http://www.w3.org/2000/svg">
<g clip-path="url(#clip0_1292_460)">
<g clip-path="url(#clip1_1292_460)">
<path d="M38.7344 1.50391C41.7973 1.50391 44.8603 1.50391 48.0161 1.50391C48.0412 4.43221 48.0663 7.36051 48.0922 10.3776C48.4761 10.2062 48.4761 10.2062 48.5206 9.987C48.5208 9.92345 48.521 9.8599 48.5212 9.79442C48.5224 9.72151 48.5235 9.6486 48.5247 9.57348C48.5241 9.4933 48.5234 9.41312 48.5227 9.33051C48.5235 9.24478 48.5243 9.15905 48.5252 9.07072C48.5273 8.79262 48.5269 8.51458 48.5264 8.23647C48.5273 8.06501 48.5284 7.89356 48.5297 7.72211C48.5333 7.08566 48.5337 6.4492 48.5344 5.81275C48.5391 4.39083 48.5438 2.96891 48.5486 1.50391C51.6367 1.50391 54.7248 1.50391 57.9064 1.50391C57.9064 4.58238 57.9064 7.66085 57.9064 10.8326C56.6637 10.8702 56.6637 10.8702 55.3958 10.9085C54.9303 11.4782 54.9303 11.4782 54.6908 12.102C54.6113 12.3467 54.4916 12.5461 54.3592 12.7666C54.2183 13.0003 54.2183 13.0003 54.1785 13.2596C54.61 12.9025 54.61 12.9025 54.9821 12.4869C55.2436 12.1862 55.5095 11.9909 55.9189 11.9466C56.0805 11.9703 56.0805 11.9703 56.1566 12.0461C56.1566 12.2973 56.1566 12.2973 56.0805 12.577C55.8469 12.783 55.5512 12.9072 55.2437 12.9562C55.2437 13.0563 55.2437 13.1564 55.2437 13.2596C55.3943 13.2596 55.5449 13.2596 55.7001 13.2596C55.7001 13.3097 55.7001 13.3597 55.7001 13.4113C55.2093 13.439 55.2093 13.439 55.0249 13.3165C54.9314 13.1715 54.9013 13.0472 54.8633 12.8804C54.8237 12.9196 54.7842 12.9588 54.7435 12.9992C54.6904 13.0491 54.6374 13.0991 54.5827 13.1506C54.5306 13.2007 54.4786 13.2509 54.4249 13.3026C54.2546 13.4113 54.2546 13.4113 54.0487 13.3991C53.8742 13.3354 53.8742 13.3354 53.7981 13.1838C53.7558 13.2213 53.7134 13.2588 53.6698 13.2975C53.4618 13.432 53.3568 13.4496 53.1134 13.4113C52.9266 13.1319 52.8739 12.99 52.8852 12.6529C53.0607 12.4381 53.2647 12.2774 53.4938 12.1219C53.5398 12.0904 53.5858 12.0588 53.6332 12.0263C53.8776 11.9433 54.0815 11.9983 54.3307 12.0461C54.4308 11.8867 54.5306 11.7271 54.6303 11.5673C54.6587 11.5222 54.687 11.4771 54.7163 11.4306C54.8395 11.2325 54.9412 11.0547 55.0154 10.8326C52.0403 10.8702 52.0403 10.8702 49.0051 10.9085C48.9047 11.1087 48.8043 11.3089 48.7008 11.5152C48.9705 11.4092 48.9705 11.4092 49.2334 11.2877C49.1449 11.5522 49.0833 11.5961 48.853 11.7427C48.7911 11.7635 48.7292 11.7842 48.6654 11.8055C48.4371 11.9108 48.3815 11.9969 48.2586 12.212C47.8702 12.8249 47.363 13.2418 46.6467 13.4113C46.205 13.4621 45.7547 13.4948 45.3485 13.288C45.0177 13.0214 44.8437 12.813 44.7827 12.3874C44.8401 11.9866 45.0166 11.7667 45.3105 11.4962C45.7152 11.2207 46.0851 11.1411 46.5706 11.2118C46.8599 11.3639 46.998 11.4717 47.1792 11.7427C47.2391 12.2711 47.2391 12.2711 47.0128 12.5675C46.6088 12.8718 46.3063 12.9197 45.8098 12.8804C45.6389 12.7651 45.6389 12.7651 45.5055 12.6529C45.5533 12.661 45.6012 12.6691 45.6505 12.6774C46.1321 12.7447 46.4398 12.7258 46.8749 12.5012C47.0109 12.3317 47.0231 12.2205 47.0603 12.0082C47.0411 11.8056 47.0411 11.8056 46.8796 11.6432C46.5619 11.4686 46.3171 11.4569 45.9619 11.5152C45.6489 11.6164 45.4204 11.7433 45.2011 11.9892C45.0723 12.3425 45.0811 12.6729 45.2011 13.0321C45.6609 13.2454 46.1909 13.3657 46.6776 13.1956C47.2602 12.9367 47.6777 12.5574 47.9353 11.9703C47.9619 11.8952 47.9886 11.8201 48.0161 11.7427C47.9549 11.7193 47.8937 11.6958 47.8306 11.6716C47.6357 11.591 47.6357 11.591 47.5596 11.5152C47.5416 11.0203 47.5416 11.0203 47.6357 10.8326C44.6983 10.8326 41.7608 10.8326 38.7344 10.8326C38.7344 7.75414 38.7344 4.67567 38.7344 1.50391Z" fill="#D82D34"/>
<path d="M28.8594 1.4375C31.9474 1.4375 35.0355 1.4375 38.2172 1.4375C38.2172 4.51597 38.2172 7.59445 38.2172 10.7662C35.1291 10.7662 32.041 10.7662 28.8594 10.7662C28.8594 7.68774 28.8594 4.60926 28.8594 1.4375Z" fill="#D8282F"/>
<path d="M38.7344 1.50391C41.7973 1.50391 44.8603 1.50391 48.0161 1.50391C48.0224 2.98683 48.0286 4.46975 48.0351 5.99761C48.0379 6.46604 48.0406 6.93446 48.0435 7.41708C48.0449 7.98861 48.0449 7.98861 48.0451 8.25607C48.0456 8.44308 48.0467 8.63008 48.0482 8.81708C48.0504 9.10017 48.0508 9.38321 48.0506 9.6663C48.0517 9.74976 48.0528 9.83323 48.054 9.91922C48.0533 10.0335 48.0533 10.0335 48.0527 10.1501C48.053 10.2164 48.0532 10.2827 48.0535 10.351C48.0023 10.5949 47.9097 10.6839 47.7118 10.8326C47.5341 10.8699 47.5341 10.8699 47.3344 10.8691C47.2586 10.8695 47.1828 10.8699 47.1047 10.8704C47.0217 10.8693 46.9386 10.8682 46.8531 10.8671C46.7196 10.8671 46.7196 10.8671 46.5834 10.8672C46.295 10.8669 46.0066 10.8646 45.7182 10.8622C45.5403 10.8618 45.3623 10.8615 45.1844 10.8613C44.5243 10.8597 43.8642 10.8555 43.2041 10.8516C40.9916 10.8422 40.9916 10.8422 38.7344 10.8326C38.7344 7.75414 38.7344 4.67567 38.7344 1.50391Z" fill="#D8282F"/>
<path d="M55.1041 3.70065C55.1712 3.7511 55.1712 3.7511 55.2396 3.80257C55.3021 3.84813 55.3646 3.89369 55.4289 3.94063C55.6327 4.1169 55.7582 4.28588 55.9006 4.5136C55.9448 4.58301 55.989 4.65243 56.0346 4.72394C56.4471 5.48012 56.4493 6.32221 56.2287 7.13967C55.9118 7.9889 55.3691 8.56631 54.5549 8.9599C53.7925 9.29672 52.8542 9.31831 52.0695 9.03812C51.2399 8.6724 50.657 8.18265 50.2992 7.33875C49.9858 6.51912 49.9584 5.70328 50.306 4.8857C50.7572 3.97876 51.4524 3.53549 52.3724 3.17212C53.3373 2.99278 54.2837 3.15049 55.1041 3.70065Z" fill="#D82930"/>
<path d="M55.7626 2.96333C56.6276 3.68845 57.1957 4.56108 57.3223 5.69435C57.399 6.80527 57.2058 7.76852 56.4586 8.63379C55.9328 9.1817 55.4156 9.54044 54.7165 9.8461C54.6557 9.87367 54.5949 9.90124 54.5322 9.92965C53.4772 10.2962 52.2988 10.0997 51.3036 9.67812C50.252 9.16731 49.6564 8.32168 49.2387 7.26743C48.966 6.1367 49.1246 5.01708 49.7142 4.02988C50.31 3.14962 51.1304 2.53075 52.1678 2.26178C53.4135 2.02734 54.7265 2.19711 55.7626 2.96333ZM50.7365 4.17682C50.3883 4.61378 50.11 5.19039 50.0756 5.75057C50.07 5.8149 50.0644 5.87923 50.0587 5.94551C50.0174 6.75418 50.2716 7.49895 50.7921 8.12422C51.367 8.74113 52.0646 9.1211 52.917 9.18158C53.9111 9.20138 54.7149 8.99443 55.4773 8.32924C56.0404 7.75928 56.3419 7.04892 56.3926 6.25096C56.3819 5.36878 56.1109 4.562 55.4773 3.93033C54.0215 2.76114 52.0406 2.79748 50.7365 4.17682Z" fill="#FDF9F9"/>
<path d="M36.6233 3.0985C36.7688 3.22356 36.911 3.3507 37.0507 3.48216C36.9455 3.72565 36.8282 3.86512 36.6227 4.03202C36.5747 4.07152 36.5266 4.11101 36.4771 4.15171C36.4404 4.18104 36.4037 4.21037 36.366 4.24059C36.3133 4.1897 36.3133 4.1897 36.2596 4.13778C35.3689 3.31481 34.531 3.19971 33.3607 3.24104C32.6036 3.29517 32.0263 3.69919 31.5159 4.23111C30.9894 4.96 30.8084 5.69542 30.8882 6.59173C31.0429 7.39852 31.3753 7.99352 32.0152 8.5115C32.1196 8.58205 32.2259 8.65006 32.3337 8.71533C32.3838 8.74672 32.4338 8.7781 32.4853 8.81043C33.2006 9.17457 34.1898 9.11754 34.9603 8.96597C35.491 8.78962 35.9309 8.48365 36.3089 8.07541C36.442 7.9569 36.442 7.9569 36.5847 7.95216C36.8237 8.0713 37.0029 8.23531 37.2028 8.41196C36.9828 9.05873 36.4178 9.39533 35.8286 9.69181C35.2322 9.98469 34.6973 10.1093 34.036 10.1042C33.9766 10.1038 33.9171 10.1034 33.8559 10.1029C32.7289 10.0798 31.686 9.77026 30.8882 8.94286C30.0647 8.02244 29.7643 6.96997 29.7996 5.75982C29.8601 4.70794 30.4053 3.81573 31.1584 3.10324C32.697 1.84826 35.0927 1.85533 36.6233 3.0985Z" fill="#FDF9F9"/>
<path d="M57.9859 16.5933C58.3324 16.8104 58.5572 17.0823 58.7402 17.443C58.8108 17.9737 58.816 18.5199 58.5333 18.9889C58.3374 19.2354 58.111 19.4252 57.8272 19.5666C57.8837 19.6042 57.9402 19.6417 57.9984 19.6804C58.4651 20.1033 58.5852 20.6921 58.7164 21.2873C58.7406 21.3924 58.7406 21.3924 58.7653 21.4996C58.8375 21.8151 58.9055 22.1311 58.9684 22.4487C58.7174 22.4487 58.4663 22.4487 58.2076 22.4487C58.1947 22.3962 58.1817 22.3437 58.1684 22.2896C58.1291 22.1314 58.0893 21.9733 58.0492 21.8153C58.0007 21.6231 57.9534 21.4308 57.9072 21.2381C57.8821 21.1376 57.8571 21.0371 57.832 20.9365C57.8093 20.8436 57.7867 20.7506 57.7633 20.6548C57.67 20.3864 57.5685 20.2248 57.3707 20.0217C56.9828 19.8928 56.5612 19.9013 56.1535 19.87C56.1535 20.721 56.1535 21.5719 56.1535 22.4487C55.9275 22.4487 55.7016 22.4487 55.4688 22.4487C55.4688 20.4965 55.4688 18.5443 55.4688 16.5329C56.2711 16.3044 57.211 16.2164 57.9859 16.5933Z" fill="white"/>
<path d="M31.3765 16.5933C31.723 16.8104 31.9479 17.0823 32.1308 17.443C32.2014 17.9737 32.2066 18.5199 31.924 18.9889C31.728 19.2354 31.5016 19.4252 31.2178 19.5666C31.2743 19.6042 31.3308 19.6417 31.389 19.6804C31.8557 20.1033 31.9758 20.6921 32.107 21.2873C32.1312 21.3924 32.1312 21.3924 32.1559 21.4996C32.2282 21.8151 32.2962 22.1311 32.359 22.4487C32.108 22.4487 31.8569 22.4487 31.5982 22.4487C31.5853 22.3962 31.5724 22.3437 31.559 22.2896C31.5197 22.1314 31.4799 21.9733 31.4398 21.8153C31.3913 21.6231 31.3441 21.4308 31.2978 21.2381C31.2728 21.1376 31.2477 21.0371 31.2226 20.9365C31.1999 20.8436 31.1773 20.7506 31.1539 20.6548C31.0606 20.3864 30.9591 20.2248 30.7614 20.0217C30.3734 19.8928 29.9518 19.9013 29.5441 19.87C29.5441 20.721 29.5441 21.5719 29.5441 22.4487C29.3181 22.4487 29.0922 22.4487 28.8594 22.4487C28.8594 20.4965 28.8594 18.5443 28.8594 16.5329C29.6617 16.3044 30.6016 16.2164 31.3765 16.5933Z" fill="white"/>
<path d="M71.8414 16.8237C72.3013 17.2822 72.3259 17.7425 72.3266 18.3667C72.3164 18.8645 72.2129 19.1711 71.881 19.5363C71.2202 20.1573 70.6468 20.0897 69.716 20.0897C69.716 20.8656 69.716 21.6415 69.716 22.4409C69.49 22.4409 69.2641 22.4409 69.0312 22.4409C69.0312 20.4636 69.0312 18.4864 69.0312 16.4493C70.0313 16.2831 70.9705 16.2511 71.8414 16.8237Z" fill="white"/>
<path d="M35.9977 16.8237C36.4576 17.2822 36.4822 17.7425 36.4829 18.3667C36.4726 18.8645 36.3691 19.1711 36.0372 19.5363C35.3765 20.1573 34.8031 20.0897 33.8722 20.0897C33.8722 20.8656 33.8722 21.6415 33.8722 22.4409C33.6463 22.4409 33.4203 22.4409 33.1875 22.4409C33.1875 20.4636 33.1875 18.4864 33.1875 16.4493C34.1875 16.2831 35.1268 16.2511 35.9977 16.8237Z" fill="white"/>
<path d="M51.9764 16.4648C52.2777 16.4648 52.5789 16.4648 52.8893 16.4648C52.9452 16.6275 53.0005 16.7903 53.0558 16.9531C53.0867 17.0437 53.1176 17.1343 53.1494 17.2277C53.2537 17.5446 53.3474 17.8644 53.4409 18.1846C53.5892 18.6921 53.7445 19.1971 53.9036 19.7012C53.9253 19.7699 53.9469 19.8387 53.9692 19.9095C54.0583 20.1926 54.1475 20.4757 54.2375 20.7585C54.3042 20.9684 54.3703 21.1786 54.4362 21.3887C54.4566 21.4524 54.4771 21.5161 54.4981 21.5817C54.5914 21.881 54.6667 22.1389 54.6392 22.4565C54.4132 22.4565 54.1873 22.4565 53.9545 22.4565C53.8185 22.0565 53.687 21.6553 53.5598 21.2524C53.5336 21.1697 53.5074 21.087 53.4805 21.0018C53.4219 20.7879 53.4219 20.7879 53.4219 20.5604C52.7691 20.5604 52.1164 20.5604 51.4438 20.5604C51.4187 20.7105 51.3936 20.8607 51.3678 21.0154C51.3406 21.123 51.3114 21.2302 51.2798 21.3366C51.2632 21.3926 51.2466 21.4486 51.2296 21.5063C51.2038 21.5918 51.2038 21.5918 51.1776 21.6791C51.1604 21.7372 51.1432 21.7954 51.1256 21.8553C50.9979 22.2837 50.9979 22.2837 50.9113 22.4565C50.6853 22.4565 50.4594 22.4565 50.2266 22.4565C50.3089 21.9717 50.4325 21.5239 50.5941 21.0597C50.7568 20.584 50.8914 20.1015 51.0254 19.6171C51.2268 18.8898 51.4418 18.1695 51.6721 17.4508C51.7746 17.1225 51.8752 16.7936 51.9764 16.4648Z" fill="white"/>
<path d="M38.1092 16.4648C38.4105 16.4648 38.7118 16.4648 39.0222 16.4648C39.078 16.6275 39.1333 16.7903 39.1886 16.9531C39.2195 17.0437 39.2504 17.1343 39.2822 17.2277C39.3865 17.5446 39.4802 17.8644 39.5737 18.1846C39.722 18.6921 39.8773 19.1971 40.0365 19.7012C40.0581 19.7699 40.0797 19.8387 40.102 19.9095C40.1911 20.1926 40.2803 20.4757 40.3703 20.7585C40.437 20.9684 40.5031 21.1786 40.569 21.3887C40.5895 21.4524 40.6099 21.5161 40.631 21.5817C40.7242 21.881 40.7995 22.1389 40.772 22.4565C40.546 22.4565 40.3201 22.4565 40.0873 22.4565C39.9513 22.0565 39.8198 21.6553 39.6926 21.2524C39.6664 21.1697 39.6402 21.087 39.6133 21.0018C39.5547 20.7879 39.5547 20.7879 39.5547 20.5604C38.902 20.5604 38.2492 20.5604 37.5766 20.5604C37.5515 20.7105 37.5264 20.8607 37.5006 21.0154C37.4734 21.123 37.4442 21.2302 37.4126 21.3366C37.396 21.3926 37.3795 21.4486 37.3624 21.5063C37.3366 21.5918 37.3366 21.5918 37.3104 21.6791C37.2932 21.7372 37.276 21.7954 37.2584 21.8553C37.1307 22.2837 37.1307 22.2837 37.0441 22.4565C36.8181 22.4565 36.5922 22.4565 36.3594 22.4565C36.4417 21.9717 36.5653 21.5239 36.7269 21.0597C36.8896 20.584 37.0242 20.1015 37.1582 19.6171C37.3596 18.8898 37.5746 18.1695 37.8049 17.4508C37.9074 17.1225 38.008 16.7936 38.1092 16.4648Z" fill="white"/>
<path d="M63.8524 16.4648C64.0784 16.4648 64.3043 16.4648 64.5371 16.4648C64.5376 16.5145 64.538 16.5641 64.5385 16.6152C64.5434 17.1345 64.5498 17.6537 64.5571 18.173C64.5596 18.3664 64.5617 18.5599 64.5635 18.7534C64.566 19.0324 64.57 19.3114 64.5743 19.5904C64.5748 19.6761 64.5752 19.7618 64.5757 19.85C64.5879 20.514 64.6426 21.2116 65.1458 21.698C65.472 21.8907 65.7643 21.8977 66.1348 21.8497C66.4248 21.7656 66.606 21.6459 66.7651 21.3875C66.9668 20.9551 67.0554 20.5493 67.0634 20.0725C67.0649 19.992 67.0664 19.9116 67.068 19.8287C67.0692 19.7427 67.0705 19.6568 67.0718 19.5682C67.0734 19.4795 67.075 19.3908 67.0766 19.2995C67.0816 19.0166 67.0861 18.7338 67.0905 18.451C67.0938 18.2591 67.0971 18.0671 67.1005 17.8752C67.1086 17.4051 67.1164 16.935 67.1238 16.4648C67.3498 16.4648 67.5757 16.4648 67.8085 16.4648C67.8144 17.0206 67.8183 17.5764 67.8211 18.1322C67.8222 18.321 67.8238 18.5097 67.8258 18.6985C67.8286 18.9711 67.8298 19.2437 67.8308 19.5163C67.832 19.5996 67.8332 19.6828 67.8344 19.7686C67.8346 20.5671 67.7349 21.455 67.1515 22.0532C66.6397 22.5147 66.1823 22.5744 65.5012 22.5557C65.0017 22.5139 64.7038 22.3437 64.3612 21.9872C63.9473 21.4647 63.8422 20.7832 63.8438 20.1328C63.8438 20.0508 63.8438 19.9688 63.8438 19.8844C63.8442 19.7972 63.8446 19.7099 63.845 19.62C63.8451 19.5298 63.8452 19.4395 63.8453 19.3465C63.8457 19.0591 63.8467 18.7716 63.8476 18.4842C63.848 18.2889 63.8484 18.0937 63.8487 17.8985C63.8495 17.4206 63.8508 16.9427 63.8524 16.4648Z" fill="white"/>
<path d="M75.1902 9.10674C75.6909 9.40887 75.9809 9.84051 76.1478 10.3916C76.2836 11.065 76.1623 11.7858 75.7989 12.368C75.4958 12.6751 75.2208 12.8325 74.786 12.8468C74.3202 12.84 74.0876 12.6366 73.7685 12.3111C73.3339 11.7022 73.2923 11.1297 73.3643 10.3961C73.4906 9.81246 73.7823 9.43803 74.2773 9.10674C74.6009 8.99922 74.8626 9.0132 75.1902 9.10674Z" fill="black"/>
<path d="M42.8359 2.20312C43.1623 2.20312 43.4887 2.20312 43.825 2.20312C43.825 4.83109 43.825 7.45906 43.825 10.1667C43.4986 10.1667 43.1722 10.1667 42.8359 10.1667C42.8359 7.53869 42.8359 4.91073 42.8359 2.20312Z" fill="#FEFEFE"/>
<path d="M75.928 16.6165C75.8778 16.8418 75.8276 17.067 75.7759 17.2991C75.6911 17.2616 75.6064 17.224 75.5191 17.1853C75.076 17.0206 74.6234 16.9795 74.183 17.1664C73.9179 17.3906 73.8088 17.5042 73.7693 17.8585C73.8022 18.1756 73.8472 18.3228 74.0261 18.5884C74.2622 18.7512 74.5153 18.8749 74.7726 19.0008C75.3602 19.2897 75.8035 19.5627 76.1087 20.1575C76.2251 20.772 76.2413 21.3172 75.8942 21.8568C75.5406 22.289 75.0919 22.5013 74.536 22.5578C73.9439 22.5644 73.4896 22.5009 72.9609 22.2289C72.986 22.0037 73.0112 21.7784 73.037 21.5463C73.1607 21.5825 73.2843 21.6189 73.4079 21.6554C73.4768 21.6756 73.5456 21.6958 73.6165 21.7167C73.7978 21.7739 73.7978 21.7739 73.95 21.8497C74.3797 21.8943 74.7275 21.8751 75.0912 21.6222C75.352 21.3279 75.4467 21.0936 75.4246 20.7085C75.3577 20.3684 75.1649 20.1641 74.901 19.9536C74.7451 19.8572 74.5879 19.7804 74.421 19.7036C73.8052 19.4185 73.2991 19.088 73.037 18.4368C72.965 17.9146 72.992 17.4413 73.287 16.9943C73.9681 16.2101 75.0339 16.183 75.928 16.6165Z" fill="white"/>
<path d="M46.053 16.6165C46.0028 16.8418 45.9526 17.067 45.9009 17.2991C45.8161 17.2616 45.7314 17.224 45.6441 17.1853C45.201 17.0206 44.7484 16.9795 44.308 17.1664C44.0429 17.3906 43.9338 17.5042 43.8943 17.8585C43.9272 18.1756 43.9722 18.3228 44.1511 18.5884C44.3872 18.7512 44.6403 18.8749 44.8976 19.0008C45.4852 19.2897 45.9285 19.5627 46.2337 20.1575C46.3501 20.772 46.3663 21.3172 46.0192 21.8568C45.6656 22.289 45.2169 22.5013 44.661 22.5578C44.0689 22.5644 43.6146 22.5009 43.0859 22.2289C43.111 22.0037 43.1362 21.7784 43.162 21.5463C43.2857 21.5825 43.4093 21.6189 43.5329 21.6554C43.6018 21.6756 43.6706 21.6958 43.7415 21.7167C43.9228 21.7739 43.9228 21.7739 44.075 21.8497C44.5047 21.8943 44.8525 21.8751 45.2162 21.6222C45.477 21.3279 45.5717 21.0936 45.5496 20.7085C45.4827 20.3684 45.2899 20.1641 45.026 19.9536C44.8701 19.8572 44.7129 19.7804 44.546 19.7036C43.9302 19.4185 43.4241 19.088 43.162 18.4368C43.09 17.9146 43.117 17.4413 43.412 16.9943C44.0931 16.2101 45.1589 16.183 46.053 16.6165Z" fill="white"/>
<path d="M64.3091 9.25611C64.7155 9.41816 64.8991 9.70081 65.0761 10.0868C65.2654 10.7131 65.2439 11.4187 64.9341 12.0013C64.7649 12.2518 64.5815 12.4574 64.3091 12.5932C63.4458 12.6834 63.4458 12.6834 63.1299 12.4415C62.7313 11.9647 62.5846 11.5422 62.5973 10.9247C62.5961 10.8674 62.595 10.8101 62.5938 10.7511C62.5975 10.2074 62.7838 9.82179 63.1299 9.4078C63.472 9.15117 63.9056 9.19912 64.3091 9.25611Z" fill="black"/>
<path d="M59.2656 16.4648C60.5712 16.4648 61.8767 16.4648 63.2218 16.4648C63.2218 16.6901 63.2218 16.9154 63.2218 17.1474C62.6945 17.1474 62.1673 17.1474 61.6241 17.1474C61.6241 18.8994 61.6241 20.6514 61.6241 22.4565C61.373 22.4565 61.122 22.4565 60.8633 22.4565C60.8633 20.7045 60.8633 18.9525 60.8633 17.1474C60.3361 17.1474 59.8088 17.1474 59.2656 17.1474C59.2656 16.9222 59.2656 16.6969 59.2656 16.4648Z" fill="white"/>
<path d="M46.6406 16.4648C47.9462 16.4648 49.2517 16.4648 50.5968 16.4648C50.5968 16.6901 50.5968 16.9154 50.5968 17.1474C50.0695 17.1474 49.5423 17.1474 48.9991 17.1474C48.9991 18.8994 48.9991 20.6514 48.9991 22.4565C48.748 22.4565 48.497 22.4565 48.2383 22.4565C48.2383 20.7045 48.2383 18.9525 48.2383 17.1474C47.7111 17.1474 47.1838 17.1474 46.6406 17.1474C46.6406 16.9222 46.6406 16.6969 46.6406 16.4648Z" fill="white"/>
<path d="M81.0184 9.09375C81.1189 9.09375 81.2193 9.09375 81.3228 9.09375C81.3228 9.21889 81.3228 9.34403 81.3228 9.47297C81.7747 9.47297 82.2266 9.47297 82.6922 9.47297C82.6922 9.67319 82.6922 9.87342 82.6922 10.0797C82.2403 10.0797 81.7884 10.0797 81.3228 10.0797C81.3228 10.7555 81.3228 11.4312 81.3228 12.1275C81.1006 12.0168 80.9264 11.9176 80.7293 11.7746C80.6742 11.7349 80.6192 11.6952 80.5625 11.6543C80.443 11.567 80.3235 11.4797 80.2042 11.3922C79.9084 11.1759 79.6123 10.9634 79.3052 10.7632C79.2524 10.7277 79.1996 10.6923 79.1452 10.6558C79.0461 10.5894 78.9457 10.5248 78.8441 10.4622C78.7093 10.37 78.7093 10.37 78.5078 10.1556C78.5078 9.9303 78.5078 9.70505 78.5078 9.47297C79.3363 9.47297 80.1648 9.47297 81.0184 9.47297C81.0184 9.34782 81.0184 9.22268 81.0184 9.09375Z" fill="white"/>
<path d="M82.0115 15.9778C82.3515 16.1883 82.6146 16.487 82.7934 16.8435C82.8313 17.2568 82.8513 17.629 82.6745 18.0096C82.1598 18.5622 81.6356 18.9181 80.8575 18.9825C80.0541 18.9965 79.3789 18.8163 78.7612 18.2845C78.512 18.0114 78.4365 17.7445 78.4141 17.3791C78.434 16.9695 78.558 16.6887 78.8373 16.3884C79.7076 15.6707 80.9683 15.5324 82.0115 15.9778ZM78.823 16.9051C78.6652 17.1398 78.6652 17.1398 78.6708 17.4171C78.7814 17.7361 78.9333 17.8895 79.2177 18.057C79.6822 18.2644 80.0661 18.3237 80.5728 18.3177C80.6396 18.3172 80.7064 18.3168 80.7752 18.3163C81.3612 18.3023 81.8928 18.2231 82.3553 17.8398C82.5462 17.6086 82.5422 17.4513 82.5274 17.1608C82.4759 16.9384 82.3637 16.8179 82.176 16.6905C81.6638 16.4243 81.1639 16.3484 80.5918 16.3553C80.4918 16.3561 80.4918 16.3561 80.3897 16.357C79.7822 16.3724 79.2665 16.4618 78.823 16.9051Z" fill="white"/>
<path d="M66.1719 9.09375C67.8329 9.09375 67.8329 9.09375 68.2546 9.49193C68.4144 9.76159 68.4169 9.92246 68.3782 10.2314C68.2507 10.5111 68.1064 10.6757 67.8456 10.8381C67.6174 10.914 67.6174 10.914 66.7044 10.914C66.7044 11.5147 66.7044 12.1153 66.7044 12.7342C66.5287 12.7342 66.3529 12.7342 66.1719 12.7342C66.1719 11.5329 66.1719 10.3315 66.1719 9.09375Z" fill="white"/>
<path d="M69.7039 17.0706C69.8474 17.0659 69.9909 17.0613 70.1344 17.0567C70.2443 17.053 70.3542 17.0484 70.464 17.0433C70.8535 17.0372 71.069 17.1191 71.3777 17.374C71.6491 17.7527 71.6603 18.1381 71.6059 18.5875C71.4587 18.9837 71.2628 19.2538 70.8784 19.4407C70.5133 19.5201 70.1525 19.5248 69.78 19.4976C69.7039 19.4218 69.7039 19.4218 69.6953 19.1973C69.6957 19.0992 69.6961 19.0011 69.6965 18.9C69.6966 18.848 69.6967 18.7959 69.6968 18.7422C69.6973 18.5753 69.6982 18.4084 69.6992 18.2414C69.6996 18.1285 69.6999 18.0156 69.7002 17.9027C69.7011 17.6253 69.7024 17.348 69.7039 17.0706Z" fill="black"/>
<path d="M33.8758 17.0706C34.0193 17.0659 34.1628 17.0613 34.3063 17.0567C34.4162 17.053 34.5261 17.0484 34.6359 17.0433C35.0254 17.0372 35.2409 17.1191 35.5496 17.374C35.8209 17.7527 35.8321 18.1381 35.7778 18.5875C35.6306 18.9837 35.4347 19.2538 35.0503 19.4407C34.6852 19.5201 34.3244 19.5248 33.9519 19.4976C33.8758 19.4218 33.8758 19.4218 33.8672 19.1973C33.8676 19.0992 33.868 19.0011 33.8684 18.9C33.8685 18.848 33.8686 18.7959 33.8687 18.7422C33.8691 18.5753 33.8701 18.4084 33.8711 18.2414C33.8715 18.1285 33.8718 18.0156 33.8721 17.9027C33.873 17.6253 33.8743 17.348 33.8758 17.0706Z" fill="black"/>
<path d="M49.901 9.93651C49.7419 10.0951 49.5837 10.2514 49.416 10.401C49.11 10.7351 48.8864 11.1252 48.6837 11.5292C48.9534 11.4232 48.9534 11.4232 49.2163 11.3017C49.1278 11.5662 49.0662 11.6101 48.8359 11.7567C48.774 11.7775 48.7121 11.7982 48.6484 11.8196C48.42 11.9248 48.3644 12.0109 48.2415 12.226C47.8531 12.8389 47.3459 13.2558 46.6296 13.4253C46.1879 13.4761 45.7376 13.5088 45.3315 13.302C45.0007 13.0354 44.8266 12.827 44.7656 12.4014C44.8231 12.0007 44.9995 11.7807 45.2934 11.5103C45.6981 11.2347 46.068 11.1551 46.5535 11.2258C46.8428 11.3779 46.9809 11.4857 47.1621 11.7567C47.222 12.2851 47.222 12.2851 46.9957 12.5815C46.5917 12.8859 46.2892 12.9337 45.7927 12.8944C45.6218 12.7791 45.6218 12.7791 45.4884 12.6669C45.5362 12.675 45.5841 12.6831 45.6334 12.6915C46.115 12.7587 46.4228 12.7398 46.8578 12.5152C46.9938 12.3457 47.006 12.2345 47.0433 12.0222C47.024 11.8196 47.024 11.8196 46.8626 11.6572C46.5448 11.4827 46.3001 11.4709 45.9449 11.5292C45.6318 11.6304 45.4033 11.7573 45.1841 12.0032C45.0552 12.3565 45.064 12.6869 45.1841 13.0461C45.6438 13.2594 46.1738 13.3797 46.6605 13.2096C47.2432 12.9507 47.6607 12.5714 47.9182 11.9843C47.9448 11.9092 47.9715 11.8341 47.999 11.7567C47.9378 11.7333 47.8766 11.7098 47.8136 11.6856C47.6186 11.6051 47.6186 11.6051 47.5425 11.5292C47.5132 11.1492 47.5207 10.9137 47.7708 10.6191C48.4295 10.0848 49.0594 9.88922 49.901 9.93651Z" fill="white"/>
<path d="M63.8661 9.04782C63.923 9.04846 63.9798 9.04909 64.0384 9.04975C64.5258 9.06963 64.8665 9.18793 65.207 9.55028C65.6585 10.1205 65.7254 10.6541 65.6635 11.3705C65.5363 11.9173 65.2995 12.2801 64.8266 12.584C64.3628 12.856 63.9057 12.8722 63.3811 12.8115C62.8716 12.6747 62.534 12.325 62.2399 11.9014C61.9964 11.4727 61.9438 11.0214 62.0117 10.5362C62.1928 9.93331 62.5179 9.46688 63.0778 9.15894C63.3378 9.04932 63.5867 9.04356 63.8661 9.04782ZM62.9246 9.62613C62.6521 10.0519 62.572 10.4151 62.5823 10.9155C62.5811 10.9728 62.5799 11.03 62.5787 11.0891C62.5824 11.6327 62.7687 12.0183 63.1148 12.4323C63.4047 12.6498 63.728 12.6319 64.0777 12.6151C64.3795 12.5717 64.5344 12.4961 64.7505 12.2806C65.1431 11.6512 65.1955 11.0358 65.1309 10.3087C65.015 9.91705 64.8404 9.64208 64.5556 9.35119C63.953 9.1109 63.3521 9.11474 62.9246 9.62613Z" fill="white"/>
<path d="M75.1902 9.10674C75.6909 9.40887 75.9809 9.84051 76.1478 10.3916C76.2836 11.065 76.1623 11.7858 75.7989 12.368C75.4958 12.6751 75.2208 12.8325 74.786 12.8468C74.3202 12.84 74.0876 12.6366 73.7685 12.3111C73.3339 11.7022 73.2923 11.1297 73.3643 10.3961C73.4906 9.81246 73.7823 9.43803 74.2773 9.10674C74.6009 8.99922 74.8626 9.0132 75.1902 9.10674ZM74.3724 9.36271C74.1409 9.63191 74.0616 9.90539 73.9729 10.2444C73.9589 10.2928 73.9449 10.3412 73.9304 10.391C73.7904 11.0445 73.887 11.7044 74.2012 12.2922C74.4166 12.5449 74.4166 12.5449 74.729 12.6334C75.0358 12.5835 75.1348 12.5263 75.3424 12.2922C75.7499 11.5154 75.7453 10.7169 75.4874 9.89213C75.3956 9.65422 75.312 9.49863 75.1141 9.33427C74.8101 9.24057 74.6592 9.21974 74.3724 9.36271Z" fill="white"/>
<path d="M56.6689 16.9786C57.1676 16.9834 57.4826 17.0487 57.8672 17.3815C58.1135 17.6743 58.092 17.9338 58.0886 18.3047C58.0508 18.6697 57.8738 18.8721 57.6056 19.107C57.2994 19.2941 57.0342 19.2808 56.6832 19.2776C56.5864 19.2769 56.4896 19.2763 56.3899 19.2756C56.2785 19.2742 56.2785 19.2742 56.1649 19.2729C56.163 18.961 56.1616 18.6492 56.1607 18.3373C56.1603 18.2312 56.1598 18.125 56.1591 18.0189C56.1582 17.8666 56.1578 17.7143 56.1575 17.562C56.1571 17.4702 56.1567 17.3785 56.1562 17.2839C56.1714 16.9152 56.3375 16.9836 56.6689 16.9786Z" fill="black"/>
<path d="M30.0361 16.9786C30.5348 16.9834 30.8498 17.0487 31.2344 17.3815C31.4806 17.6743 31.4592 17.9338 31.4558 18.3047C31.418 18.6697 31.241 18.8721 30.9728 19.107C30.6666 19.2941 30.4014 19.2808 30.0504 19.2776C29.9536 19.2769 29.8568 19.2763 29.757 19.2756C29.6457 19.2742 29.6457 19.2742 29.5321 19.2729C29.5302 18.961 29.5288 18.6492 29.5279 18.3373C29.5275 18.2312 29.527 18.125 29.5263 18.0189C29.5254 17.8666 29.525 17.7143 29.5246 17.562C29.5242 17.4702 29.5238 17.3785 29.5234 17.2839C29.5386 16.9152 29.7047 16.9836 30.0361 16.9786Z" fill="black"/>
<path d="M79.9716 19.482C80.7063 19.773 81.3489 20.3439 81.97 20.8221C82.1145 20.9327 82.2604 21.0416 82.4061 21.1506C82.4312 20.5999 82.4563 20.0493 82.4822 19.482C82.5575 19.482 82.6328 19.482 82.7104 19.482C82.7104 20.3079 82.7104 21.1339 82.7104 21.9848C81.9419 21.4741 81.9419 21.4741 81.664 21.2664C81.6038 21.2217 81.5435 21.1769 81.4814 21.1309C81.3589 21.0395 81.2365 20.948 81.1141 20.8565C80.2216 20.1626 80.2216 20.1626 79.1347 20.0129C78.9548 20.1545 78.8562 20.2648 78.7543 20.468C78.7258 20.8443 78.7361 21.0833 78.9825 21.3781C79.2159 21.5166 79.2159 21.5166 79.439 21.6056C79.439 21.7057 79.439 21.8058 79.439 21.909C79.1025 21.8707 78.9231 21.7611 78.6782 21.5298C78.3675 21.1021 78.3915 20.6743 78.45 20.1646C78.7067 19.4678 79.3115 19.3765 79.9716 19.482Z" fill="white"/>
<path d="M79.9716 12.7398C80.7063 13.0308 81.3489 13.6017 81.97 14.0799C82.1145 14.1906 82.2604 14.2994 82.4061 14.4084C82.4312 13.8578 82.4563 13.3071 82.4822 12.7398C82.5575 12.7398 82.6328 12.7398 82.7104 12.7398C82.7104 13.5658 82.7104 14.3917 82.7104 15.2427C81.9419 14.7319 81.9419 14.7319 81.664 14.5242C81.6038 14.4795 81.5435 14.4348 81.4814 14.3887C81.3589 14.2973 81.2365 14.2058 81.1141 14.1143C80.2216 13.4204 80.2216 13.4204 79.1347 13.2707C78.9548 13.4123 78.8562 13.5226 78.7543 13.7258C78.7258 14.1021 78.7361 14.3411 78.9825 14.6359C79.2159 14.7744 79.2159 14.7744 79.439 14.8634C79.439 14.9635 79.439 15.0637 79.439 15.1668C79.1025 15.1285 78.9231 15.0189 78.6782 14.7876C78.3675 14.3599 78.3915 13.9321 78.45 13.4224C78.7067 12.7256 79.3115 12.6343 79.9716 12.7398Z" fill="white"/>
<path d="M55.3422 10.3867C55.4427 10.3867 55.5431 10.3867 55.6466 10.3867C55.5489 10.7078 55.4266 10.9803 55.2546 11.2684C55.208 11.347 55.1615 11.4256 55.1136 11.5066C55.0651 11.5875 55.0166 11.6685 54.9666 11.7519C54.8707 11.913 54.7749 12.0742 54.6792 12.2354C54.6155 12.3419 54.6155 12.3419 54.5506 12.4505C54.303 12.8372 54.303 12.8372 54.201 13.2688C54.6325 12.9117 54.6325 12.9117 55.0046 12.4961C55.2661 12.1953 55.532 12.0001 55.9414 11.9557C56.103 11.9794 56.103 11.9794 56.1791 12.0553C56.1791 12.3065 56.1791 12.3065 56.103 12.5862C55.8694 12.7922 55.5737 12.9163 55.2662 12.9654C55.2662 13.0655 55.2662 13.1656 55.2662 13.2688C55.4168 13.2688 55.5674 13.2688 55.7226 13.2688C55.7226 13.3188 55.7226 13.3689 55.7226 13.4204C55.2318 13.4481 55.2318 13.4481 55.0474 13.3256C54.954 13.1807 54.9238 13.0564 54.8858 12.8895C54.8462 12.9287 54.8067 12.968 54.766 13.0083C54.7129 13.0583 54.6599 13.1083 54.6052 13.1597C54.5531 13.2099 54.5011 13.26 54.4474 13.3117C54.2771 13.4204 54.2771 13.4204 54.0712 13.4083C53.8967 13.3446 53.8967 13.3446 53.8207 13.1929C53.7783 13.2305 53.7359 13.268 53.6923 13.3067C53.4843 13.4412 53.3793 13.4587 53.1359 13.4204C52.9491 13.1411 52.8964 12.9992 52.9077 12.662C53.0832 12.4472 53.2872 12.2865 53.5163 12.1311C53.5623 12.0995 53.6083 12.068 53.6557 12.0354C53.9001 11.9525 54.104 12.0075 54.3532 12.0553C54.3778 12.0128 54.4023 11.9703 54.4276 11.9266C54.539 11.734 54.6506 11.5415 54.7621 11.349C54.8008 11.2822 54.8394 11.2153 54.8792 11.1465C54.9165 11.0822 54.9538 11.0179 54.9922 10.9517C55.0264 10.8925 55.0607 10.8333 55.096 10.7724C55.174 10.6413 55.2575 10.5135 55.3422 10.3867Z" fill="white"/>
<path d="M52.3722 17.2969C52.5244 17.3727 52.5244 17.3727 52.6117 17.6275C52.6434 17.7383 52.6745 17.8494 52.7051 17.9605C52.7384 18.0781 52.7718 18.1958 52.8052 18.3134C52.8218 18.3721 52.8384 18.4308 52.8555 18.4914C52.9482 18.8126 53.0526 19.1301 53.1559 19.448C53.2091 19.648 53.2091 19.648 53.2091 19.9514C52.707 19.9514 52.2048 19.9514 51.6875 19.9514C51.7987 19.1976 52.0207 18.486 52.248 17.7607C52.2941 17.607 52.3345 17.4528 52.3722 17.2969Z" fill="black"/>
<path d="M38.5207 17.2969C38.6728 17.3727 38.6728 17.3727 38.7602 17.6275C38.7919 17.7383 38.8229 17.8494 38.8535 17.9605C38.8868 18.0781 38.9202 18.1958 38.9537 18.3134C38.9702 18.3721 38.9868 18.4308 39.0039 18.4914C39.0967 18.8126 39.201 19.1301 39.3043 19.448C39.3575 19.648 39.3575 19.648 39.3575 19.9514C38.8554 19.9514 38.3533 19.9514 37.8359 19.9514C37.9471 19.1976 38.1691 18.486 38.3964 17.7607C38.4426 17.607 38.4829 17.4528 38.5207 17.2969Z" fill="black"/>
<path d="M72.1453 9.09375C72.1453 10.2951 72.1453 11.4965 72.1453 12.7342C71.9695 12.7342 71.7938 12.7342 71.6127 12.7342C71.6127 11.633 71.6127 10.5317 71.6127 9.39712C71.4621 9.39712 71.3115 9.39712 71.1562 9.39712C71.1562 9.34707 71.1562 9.29701 71.1562 9.24544C71.5148 9.14851 71.7681 9.09375 72.1453 9.09375Z" fill="white"/>
<path d="M78.9297 10.0938C79.6578 10.0938 80.3859 10.0938 81.136 10.0938C81.136 10.6193 81.136 11.1449 81.136 11.6865C80.799 11.5521 80.5664 11.4052 80.2896 11.184C80.2028 11.1159 80.1159 11.0478 80.029 10.9799C79.9637 10.9288 79.9637 10.9288 79.8971 10.8767C79.6297 10.6711 79.3534 10.4778 79.078 10.2831C79.029 10.2456 78.9801 10.2082 78.9297 10.1696C78.9297 10.1446 78.9297 10.1195 78.9297 10.0938Z" fill="black"/>
<path d="M59.875 9.09375C60.4776 9.09375 61.0801 9.09375 61.7009 9.09375C61.7009 9.14381 61.7009 9.19386 61.7009 9.24544C61.475 9.24544 61.249 9.24544 61.0162 9.24544C61.0162 10.3967 61.0162 11.548 61.0162 12.7342C60.8656 12.7342 60.7149 12.7342 60.5597 12.7342C60.5597 11.5829 60.5597 10.4316 60.5597 9.24544C60.3338 9.24544 60.1078 9.24544 59.875 9.24544C59.875 9.19538 59.875 9.14532 59.875 9.09375Z" fill="white"/>
<path d="M64.3787 9.17969C64.7777 9.20809 65.0262 9.3432 65.2917 9.63475C65.683 10.1883 65.7294 10.7167 65.6721 11.3791C65.5454 11.9237 65.306 12.288 64.8352 12.5926C64.5589 12.749 64.5589 12.749 64.3597 12.7159C64.3158 12.7002 64.2718 12.6846 64.2266 12.6685C64.5309 12.3651 64.5309 12.3651 64.6878 12.2324C65.1016 11.7533 65.1077 11.2067 65.0955 10.5988C65.0501 10.2002 64.9268 9.87865 64.683 9.5589C64.5819 9.48271 64.4805 9.4068 64.3787 9.33137C64.3787 9.28132 64.3787 9.23126 64.3787 9.17969Z" fill="white"/>
<path d="M66.7266 9.25C67.4874 9.25 67.4874 9.25 67.7204 9.39221C67.9122 9.60199 67.9411 9.66883 67.9629 9.95629C67.9427 10.2531 67.8957 10.3825 67.7156 10.6152C67.4874 10.7669 67.4874 10.7669 66.7266 10.7669C66.7266 10.2663 66.7266 9.76573 66.7266 9.25Z" fill="black"/>
<path d="M49.2493 11.9766C49.3919 11.9955 49.3919 11.9955 49.5536 12.0524C49.6487 12.2088 49.6487 12.2088 49.7057 12.3558C49.8093 12.2596 49.8093 12.2596 49.915 12.1614C50.1371 11.9746 50.1371 11.9746 50.3429 11.9908C50.3837 12.0111 50.4245 12.0315 50.4665 12.0524C50.5056 12.3714 50.4663 12.5364 50.2763 12.7871C50.2234 12.8509 50.2234 12.8509 50.1693 12.916C50.0648 13.0451 50.0648 13.0451 50.0861 13.2659C50.1257 13.2311 50.1652 13.1963 50.2059 13.1604C50.4907 12.9107 50.7762 12.6645 51.0752 12.4316C50.9081 12.8098 50.6341 13.0838 50.3144 13.3417C50.0481 13.4176 50.0481 13.4176 49.8579 13.4176C49.7704 13.1247 49.7353 12.9769 49.8784 12.6994C49.9934 12.5298 50.1118 12.3653 50.2383 12.2041C49.836 12.4446 49.5789 12.7346 49.3026 13.1089C49.0657 13.4119 49.0657 13.4119 48.8073 13.4448C48.7523 13.4358 48.6973 13.4268 48.6406 13.4176C48.8803 12.9784 49.131 12.5493 49.4014 12.1282C49.2759 12.1783 49.1504 12.2284 49.021 12.2799C49.0963 12.1798 49.1717 12.0797 49.2493 11.9766Z" fill="white"/>
<path d="M66.1719 9.09375C67.8329 9.09375 67.8329 9.09375 68.2546 9.49193C68.4144 9.76159 68.4169 9.92246 68.3782 10.2314C68.2515 10.5093 68.1099 10.6831 67.8456 10.8381C67.6364 10.8903 67.6364 10.8903 67.4652 10.914C67.4652 10.8389 67.4652 10.7638 67.4652 10.6865C67.5655 10.6091 67.667 10.5333 67.7695 10.4589C67.861 10.1855 67.8705 9.98792 67.8456 9.7005C67.7012 9.48885 67.7012 9.48885 67.5413 9.32128C67.5413 9.27122 67.5413 9.22117 67.5413 9.16959C67.1145 9.16959 66.6877 9.16959 66.248 9.16959C66.248 10.3459 66.248 11.5222 66.248 12.7342C66.2228 12.7342 66.1977 12.7342 66.1719 12.7342C66.1719 11.5329 66.1719 10.3315 66.1719 9.09375Z" fill="white"/>
<path d="M51.4463 11.8281C51.5216 11.8281 51.5969 11.8281 51.6745 11.8281C51.6745 11.9032 51.6745 11.9783 51.6745 12.0557C51.5992 12.0932 51.5992 12.0932 51.5223 12.1315C51.5592 12.4839 51.5592 12.4839 51.6745 12.8141C51.725 12.7539 51.7755 12.6936 51.8275 12.6316C51.8953 12.5533 51.9632 12.4751 52.0311 12.3969C52.0642 12.3572 52.0973 12.3174 52.1314 12.2764C52.301 12.0835 52.3902 11.9853 52.6507 11.9537C52.7052 11.9623 52.7596 11.9709 52.8157 11.9798C52.7076 12.2769 52.5657 12.5261 52.3925 12.7904C52.2129 13.0616 52.2129 13.0616 52.0549 13.345C52.1804 13.32 52.306 13.2949 52.4353 13.2691C52.4102 13.3192 52.3851 13.3693 52.3592 13.4208C52.2324 13.4241 52.1056 13.4239 51.9788 13.4208C51.9027 13.345 51.9027 13.345 51.898 13.0748C51.8995 12.9888 51.9011 12.9027 51.9027 12.8141C51.8462 12.872 51.7898 12.9298 51.7315 12.9895C51.2926 13.4171 51.2926 13.4171 50.9327 13.4351C50.8511 13.4304 50.7695 13.4257 50.6855 13.4208C50.6603 13.3207 50.6352 13.2206 50.6094 13.1175C50.6847 13.0924 50.76 13.0674 50.8376 13.0416C50.8376 13.1417 50.8376 13.2418 50.8376 13.345C51.0455 13.1802 51.1974 13.0524 51.2602 12.7886C51.2778 12.6197 51.29 12.4529 51.2941 12.2832C51.2188 12.3332 51.1435 12.3833 51.0659 12.4349C51.1701 12.2111 51.2809 12.0128 51.4463 11.8281Z" fill="white"/>
<path d="M56.936 11.9766C57.0977 12.005 57.0977 12.005 57.2403 12.0524C57.2403 12.2276 57.2403 12.4028 57.2403 12.5833C57.391 12.3831 57.5416 12.1829 57.6968 11.9766C57.7972 12.0016 57.8977 12.0266 58.0011 12.0524C57.9251 12.2799 57.9251 12.2799 57.7349 12.4269C57.5404 12.5868 57.4947 12.6439 57.4686 12.8867C57.6192 12.8366 57.7699 12.7866 57.9251 12.735C57.9251 12.7851 57.9251 12.8351 57.9251 12.8867C57.6968 13.0384 57.6968 13.0384 57.4971 13.0194C57.4077 12.9912 57.4077 12.9912 57.3164 12.9625C57.2913 12.9125 57.2662 12.8624 57.2403 12.8108C57.1893 12.8765 57.1893 12.8765 57.1372 12.9436C57.0912 12.9999 57.0452 13.0562 56.9978 13.1142C56.9528 13.1705 56.9078 13.2268 56.8614 13.2849C56.7078 13.4176 56.7078 13.4176 56.4995 13.4365C56.4427 13.4303 56.3859 13.424 56.3274 13.4176C56.567 12.9784 56.8177 12.5493 57.0882 12.1282C57.038 12.1282 56.9878 12.1282 56.936 12.1282C56.9205 12.1693 56.905 12.2104 56.8891 12.2527C56.7418 12.5032 56.5338 12.6774 56.3179 12.8677C56.275 12.9061 56.2322 12.9446 56.188 12.9842C56.0827 13.0785 55.9768 13.1722 55.8709 13.2659C55.8207 13.2409 55.7705 13.2158 55.7188 13.1901C56.1245 12.7856 56.5303 12.3811 56.936 11.9766Z" fill="white"/>
<path d="M49.4546 10.1593C49.4186 10.1861 49.3826 10.213 49.3455 10.2407C48.8398 10.6466 48.5112 11.1391 48.1612 11.6761C47.8664 11.5339 47.8664 11.5339 47.7808 11.4486C47.7424 11.2186 47.7411 11.0591 47.864 10.8561C48.1706 10.4789 48.5036 10.2395 48.9743 10.0976C49.1561 10.0829 49.2804 10.1114 49.4546 10.1593Z" fill="black"/>
<path d="M54.2 12.1359C54.1774 12.5861 53.9723 12.8807 53.6674 13.1978C53.4487 13.3115 53.4487 13.3115 53.287 13.3494C53.2252 13.1978 53.2252 13.1978 53.2109 12.9702C53.4252 12.5147 53.6576 12.0921 54.2 12.1359Z" fill="black"/>
<path d="M51.4463 11.8281C51.5216 11.8281 51.5969 11.8281 51.6745 11.8281C51.6745 11.9032 51.6745 11.9783 51.6745 12.0557C51.5992 12.0932 51.5992 12.0932 51.5223 12.1315C51.5372 12.233 51.5372 12.233 51.5523 12.3365C51.5628 12.4253 51.5733 12.5141 51.5841 12.6055C51.5956 12.6935 51.6071 12.7815 51.6189 12.8722C51.5984 13.1175 51.5984 13.1175 51.4272 13.3C51.1653 13.4513 50.9833 13.4441 50.6855 13.4208C50.6603 13.3207 50.6352 13.2206 50.6094 13.1175C50.6847 13.0924 50.76 13.0674 50.8376 13.0416C50.8376 13.1417 50.8376 13.2418 50.8376 13.345C51.0455 13.1802 51.1974 13.0524 51.2602 12.7886C51.2778 12.6197 51.29 12.4529 51.2941 12.2832C51.2188 12.3332 51.1435 12.3833 51.0659 12.4349C51.1701 12.2111 51.2809 12.0128 51.4463 11.8281Z" fill="white"/>
<path d="M51.2941 12.2148C51.3192 12.2148 51.3443 12.2148 51.3702 12.2148C51.394 12.6109 51.3611 12.8653 51.1419 13.2008C50.9755 13.3051 50.9755 13.3051 50.8376 13.3525C50.8376 13.2524 50.8376 13.1523 50.8376 13.0491C50.7623 13.0741 50.687 13.0992 50.6094 13.125C50.7189 12.8813 50.8551 12.6987 51.0326 12.4993C51.0797 12.4457 51.1269 12.3921 51.1755 12.3369C51.2146 12.2966 51.2538 12.2563 51.2941 12.2148Z" fill="black"/>
<path d="M46.7329 11.3828C46.9734 11.4867 47.0367 11.5337 47.1894 11.762C47.2492 12.2904 47.2492 12.2904 47.023 12.5868C46.6189 12.8911 46.3165 12.939 45.8199 12.8997C45.6491 12.7844 45.6491 12.7844 45.5156 12.6721C45.5635 12.6803 45.6113 12.6884 45.6607 12.6967C46.1423 12.764 46.45 12.7451 46.8851 12.5205C47.0198 12.3526 47.0327 12.2421 47.0705 12.0322C47.0227 11.7529 46.8655 11.6407 46.6568 11.4587C46.6819 11.4336 46.707 11.4086 46.7329 11.3828Z" fill="white"/>
<path d="M57.6711 11.9766C57.7716 12.0016 57.872 12.0266 57.9755 12.0524C57.8994 12.2799 57.8994 12.2799 57.7092 12.4269C57.5147 12.5868 57.469 12.6439 57.4429 12.8867C57.5935 12.8366 57.7442 12.7866 57.8994 12.735C57.8994 12.7851 57.8994 12.8351 57.8994 12.8867C57.6711 13.0384 57.6711 13.0384 57.4809 13.0289C57.2541 12.9497 57.1861 12.8603 57.0625 12.6592C57.1496 12.5747 57.1496 12.5747 57.2384 12.4885C57.4002 12.3234 57.5385 12.1645 57.6711 11.9766Z" fill="white"/>
<path d="M48.0986 10.3867C48.1739 10.4117 48.2492 10.4368 48.3268 10.4626C48.2939 10.4956 48.2609 10.5287 48.227 10.5627C47.9471 10.8579 47.9471 10.8579 47.8323 11.24C47.8589 11.464 47.8589 11.464 48.0225 11.6761C47.9723 11.7011 47.9221 11.7261 47.8704 11.7519C47.7182 11.6713 47.7182 11.6713 47.5661 11.5244C47.5283 11.2344 47.5395 11.0518 47.6612 10.7849C47.7961 10.612 47.9069 10.4942 48.0986 10.3867Z" fill="white"/>
<path d="M44.819 12.1328C44.8441 12.2079 44.8692 12.283 44.895 12.3603C44.9452 12.3603 44.9955 12.3603 45.0472 12.3603C45.0974 12.5856 45.1476 12.8109 45.1994 13.0429C45.4504 13.118 45.7015 13.1931 45.9601 13.2705C45.8095 13.3455 45.8095 13.3455 45.6558 13.4221C45.25 13.2488 45.0181 13.0687 44.819 12.6637C44.7999 12.3698 44.7999 12.3698 44.819 12.1328Z" fill="white"/>
<path d="M55.6909 12.1328C55.7913 12.1328 55.8917 12.1328 55.9952 12.1328C55.8933 12.4652 55.7576 12.6289 55.4626 12.8154C55.3873 12.7904 55.312 12.7653 55.2344 12.7396C55.5197 12.3035 55.5197 12.3035 55.6909 12.1328Z" fill="black"/>
<path d="M56.6317 12.2148C56.7321 12.2399 56.8326 12.2649 56.936 12.2907C56.5957 12.6393 56.2452 12.9645 55.8709 13.2766C55.8207 13.2516 55.7705 13.2266 55.7188 13.2008C55.7655 13.1551 55.8123 13.1093 55.8605 13.0622C55.922 13.0015 55.9835 12.9409 56.0468 12.8785C56.1077 12.8186 56.1686 12.7588 56.2314 12.6972C56.3797 12.5429 56.508 12.3888 56.6317 12.2148Z" fill="white"/>
<path d="M49.6096 10.0055C49.4292 10.1853 49.3797 10.1766 49.1341 10.1903C48.8186 10.2178 48.5919 10.2985 48.3162 10.4605C48.266 10.4105 48.2158 10.3604 48.1641 10.3088C48.2717 10.2596 48.3795 10.2106 48.4874 10.1619C48.5474 10.1346 48.6074 10.1073 48.6693 10.0792C49.0192 9.93544 49.2352 9.92913 49.6096 10.0055Z" fill="white"/>
<path d="M47.2658 13.1168C47.0249 13.357 46.7794 13.4148 46.4411 13.4297C46.234 13.4297 46.0274 13.4268 45.8203 13.4202C45.8203 13.3951 45.8203 13.3701 45.8203 13.3443C45.8827 13.3351 45.9451 13.326 46.0093 13.3165C46.0913 13.3038 46.1733 13.2911 46.2578 13.278C46.339 13.2657 46.4202 13.2533 46.5038 13.2406C46.7293 13.204 46.7293 13.204 46.9009 13.1067C47.0376 13.041 47.0376 13.041 47.2658 13.1168Z" fill="white"/>
<path d="M51.4507 11.8281C51.526 11.8281 51.6013 11.8281 51.6789 11.8281C51.6789 11.9032 51.6789 11.9783 51.6789 12.0557C51.6036 12.0932 51.6036 12.0932 51.5268 12.1315C51.4406 12.2845 51.4406 12.2845 51.3746 12.4349C51.3495 12.3848 51.3244 12.3348 51.2986 12.2832C51.2232 12.3332 51.1479 12.3833 51.0703 12.4349C51.1745 12.2111 51.2853 12.0128 51.4507 11.8281Z" fill="white"/>
<path d="M57.0625 12.6719C57.188 12.6719 57.3136 12.6719 57.4429 12.6719C57.4429 12.747 57.4429 12.822 57.4429 12.8994C57.5935 12.8493 57.7442 12.7993 57.8994 12.7477C57.8994 12.7978 57.8994 12.8478 57.8994 12.8994C57.6711 13.0511 57.6711 13.0511 57.4809 13.0416C57.2541 12.9625 57.1861 12.873 57.0625 12.6719Z" fill="white"/>
<path d="M50.1555 12.1328C50.2057 12.1578 50.2559 12.1829 50.3077 12.2087C50.0777 12.4555 49.8316 12.6348 49.5469 12.8154C49.6673 12.4912 49.8897 12.3402 50.1555 12.1328Z" fill="black"/>
<path d="M51.8882 12.5898C51.9635 12.6149 52.0388 12.6399 52.1164 12.6657C51.9405 12.8553 51.9405 12.8553 51.7361 13.0449C51.6607 13.0449 51.5854 13.0449 51.5078 13.0449C51.5078 12.9198 51.5078 12.7946 51.5078 12.6657C51.558 12.7157 51.6082 12.7658 51.66 12.8174C51.7353 12.7423 51.8106 12.6672 51.8882 12.5898Z" fill="white"/>
<path d="M55.9252 12.2812C55.9754 12.3063 56.0257 12.3313 56.0774 12.3571C56.0774 12.4322 56.0774 12.5073 56.0774 12.5846C55.7761 12.7348 55.7761 12.7348 55.4688 12.888C55.4688 12.8379 55.4688 12.7879 55.4688 12.7363C55.5943 12.6336 55.7211 12.5325 55.8491 12.4329C55.8743 12.3829 55.8994 12.3328 55.9252 12.2812Z" fill="white"/>
<path d="M53.0581 10.9922C53.1083 10.9922 53.1584 10.9922 53.21 10.9922C53.21 11.1171 53.21 11.242 53.21 11.3707C53.1098 11.3707 53.0095 11.3707 52.9062 11.3707C52.9727 11.0774 52.9727 11.0774 53.0581 10.9922Z" fill="white"/>
</g>
</g>
<defs>
<clipPath id="clip0_1292_460">
<rect width="109" height="24" rx="2.05446" fill="white"/>
</clipPath>
<clipPath id="clip1_1292_460">
<rect width="56.375" height="24.0423" fill="white" transform="translate(27.625)"/>
</clipPath>
</defs>
</svg>
