<svg width="82" height="82" viewBox="0 0 82 82" fill="none" xmlns="http://www.w3.org/2000/svg">
<path d="M79.5572 47.091C71.1454 33.7705 72.2706 20.2633 68.2162 13.8445C64.1617 7.42576 51.9574 -3.72624 22.426 14.9219C-7.10536 33.5701 0.012694 54.4414 4.47258 61.5025C25.3507 94.5667 94.4539 70.6842 79.5572 47.091Z" fill="#EFEFEF"/>
<path d="M62.7991 50.4072L58.2208 44.0066L57.8108 42.8678C57.788 42.3666 57.9247 41.8428 58.2208 41.41L62.7991 35.0094C63.7558 33.6883 62.9586 31.7978 61.3414 31.5244L53.7564 30.2716L53.5969 30.2489C53.5058 30.2261 53.4375 30.2033 53.3464 30.1805C52.5264 29.9528 51.8886 29.2466 51.7519 28.4039L50.9091 23.2561L50.4764 20.6594C50.203 19.0194 48.3125 18.245 46.9914 19.2016L40.5908 23.78C40.4086 23.9166 40.1808 24.0078 39.9758 24.0989C39.5202 24.2355 39.0647 24.2355 38.6091 24.0989C38.4041 24.0078 38.1764 23.9166 37.9941 23.78L31.5936 19.2016C30.2725 18.245 28.3819 19.0194 28.1086 20.6594L26.833 28.4039C26.7647 28.7455 26.628 29.0872 26.423 29.3605C26.3091 29.5428 26.1269 29.725 25.9447 29.8389C25.6714 30.0439 25.3297 30.1805 24.988 30.2489L17.2436 31.5244C16.6741 31.6155 16.2186 31.9116 15.8769 32.3216C15.7175 32.5039 15.6036 32.7316 15.5125 32.9822C15.3758 33.3466 15.3302 33.7111 15.3986 34.0755C15.4441 34.3033 15.5125 34.5083 15.6036 34.7133C15.6491 34.8044 15.7175 34.9183 15.7858 35.0094L17.403 37.2644L20.3641 41.41C20.9108 42.1844 20.9108 43.2322 20.3641 44.0066L15.7858 50.4072C14.8291 51.7283 15.6036 53.6189 17.2436 53.8922L24.988 55.1678H25.0108L26.1269 55.7144C26.4914 56.0333 26.7419 56.4889 26.833 56.99L28.1086 64.7572C28.3819 66.3972 30.2497 67.1716 31.6164 66.215L37.9941 61.6366C38.0625 61.5911 38.1536 61.5455 38.2219 61.5C38.9736 61.09 39.8847 61.1355 40.5908 61.6366L44.7819 64.6433L44.8275 64.6661L46.9914 66.215C47.0825 66.2833 47.1964 66.3516 47.2875 66.3972C47.4925 66.4883 47.6975 66.5566 47.9253 66.6022C48.2897 66.6705 48.6541 66.625 49.0186 66.4883C49.2691 66.3972 49.4969 66.2833 49.6791 66.1239C50.0891 65.7822 50.3853 65.3266 50.4764 64.7572L51.7519 57.0128C51.9114 56.0561 52.6403 55.3272 53.5969 55.1678L61.3414 53.8922C62.9814 53.6189 63.7558 51.7283 62.7991 50.4072Z" fill="url(#paint0_linear_1835_777)"/>
<path d="M33.2336 64.7572L31.958 56.99C31.8669 56.4889 31.6164 56.0333 31.2519 55.7144L30.1358 55.1678H30.113L22.3686 53.8922C20.7286 53.6189 19.9541 51.7283 20.9108 50.4072L25.4891 44.0066C26.0358 43.2322 26.0358 42.1844 25.4891 41.41L22.528 37.2644L20.9108 35.0094C20.8425 34.9183 20.7741 34.8044 20.7286 34.7133C20.6375 34.5083 20.5691 34.3033 20.5236 34.0755C20.4552 33.7111 20.5008 33.3466 20.6375 32.9822C20.7286 32.7316 20.8425 32.5039 21.0019 32.3216C21.3436 31.9116 21.7991 31.6155 22.3686 31.5244L30.113 30.2489C30.4547 30.1805 30.7964 30.0439 31.0697 29.8389C31.2519 29.725 31.4341 29.5428 31.548 29.3605C31.753 29.0872 31.8897 28.7455 31.958 28.4039L33.2336 20.6594C33.2472 20.5751 33.2814 20.5045 33.3042 20.4248L31.5936 19.2016C30.2725 18.245 28.3819 19.0194 28.1086 20.6594L26.833 28.4039C26.7647 28.7455 26.628 29.0872 26.423 29.3605C26.3091 29.5428 26.1269 29.725 25.9447 29.8389C25.6714 30.0439 25.3297 30.1805 24.988 30.2489L17.2436 31.5244C16.6741 31.6155 16.2186 31.9116 15.8769 32.3216C15.7175 32.5039 15.6036 32.7316 15.5125 32.9822C15.3758 33.3466 15.3302 33.7111 15.3986 34.0755C15.4441 34.3033 15.5125 34.5083 15.6036 34.7133C15.6491 34.8044 15.7175 34.9183 15.7858 35.0094L17.403 37.2644L20.3641 41.41C20.9108 42.1844 20.9108 43.2322 20.3641 44.0066L15.7858 50.4072C14.8291 51.7283 15.6036 53.6189 17.2436 53.8922L24.988 55.1678H25.0108L26.1269 55.7144C26.4914 56.0333 26.7419 56.4889 26.833 56.99L28.1086 64.7572C28.3819 66.3972 30.2497 67.1716 31.6164 66.215L33.3065 65.0009C33.2837 64.9189 33.2472 64.8438 33.2336 64.7572Z" fill="#BFBFBF"/>
<path d="M49.953 64.666L49.9074 64.6432L45.7163 61.6366C45.0102 61.1354 44.0991 61.0899 43.3474 61.4999C43.2791 61.5455 43.188 61.591 43.1196 61.6366L41.8555 62.5431L44.7824 64.6432L44.828 64.666L46.9919 66.2149C47.083 66.2832 47.1969 66.3516 47.288 66.3971C47.493 66.4882 47.698 66.5566 47.9257 66.6021C48.2902 66.6704 48.6546 66.6249 49.0191 66.4882C49.2696 66.3971 49.4974 66.2832 49.6796 66.1238C50.0304 65.8322 50.2673 65.4404 50.3949 64.9826L49.953 64.666Z" fill="#BFBFBF"/>
<path d="M68.3346 17.0833C66.4509 17.0833 64.918 15.5504 64.918 13.6667C64.918 11.7829 66.4509 10.25 68.3346 10.25C70.2184 10.25 71.7513 11.7829 71.7513 13.6667C71.7513 15.5504 70.2184 17.0833 68.3346 17.0833ZM68.3346 12.5278C67.706 12.5278 67.1957 13.0403 67.1957 13.6667C67.1957 14.2931 67.706 14.8056 68.3346 14.8056C68.9633 14.8056 69.4735 14.2931 69.4735 13.6667C69.4735 13.0403 68.9633 12.5278 68.3346 12.5278Z" fill="url(#paint1_linear_1835_777)"/>
<path d="M48.2647 68.3355C47.4584 68.3355 46.6635 68.085 45.9824 67.5975L39.5978 63.0147C39.4315 62.9008 39.1536 62.9053 38.9577 63.0352L32.6027 67.5975C31.4639 68.397 30.0425 68.5565 28.7829 68.0258C27.5301 67.5019 26.6486 66.3835 26.4277 65.0396L25.1385 57.2792C25.102 57.0651 24.9335 56.8965 24.7171 56.8601L16.9544 55.5709C15.6128 55.3499 14.4967 54.4707 13.9705 53.2157C13.4421 51.9538 13.5992 50.5324 14.3919 49.4095L18.9816 43.0112C19.0955 42.8449 19.0955 42.5693 18.9611 42.3712L14.401 36.0184C13.6015 34.9069 13.4421 33.4855 13.966 32.2191C14.4899 30.9527 15.6082 30.0666 16.9567 29.8434L24.7171 28.5542C24.9312 28.5177 25.0997 28.3492 25.1362 28.135L26.4254 20.3724C26.6464 19.0308 27.5256 17.9147 28.7806 17.3885C30.0402 16.86 31.4639 17.0172 32.5868 17.8099L38.9828 22.4019C39.165 22.534 39.4133 22.534 39.5955 22.3996L45.9756 17.819C47.0894 17.0218 48.5107 16.8578 49.7749 17.3862C51.0413 17.9101 51.9274 19.0285 52.1506 20.3747L52.5834 22.9827L49.2146 23.543L48.7818 20.9327C48.7454 20.689 48.5722 20.5819 48.472 20.5432C48.3718 20.5045 48.1736 20.4521 47.9732 20.5956L41.5909 25.1785C40.2151 26.1625 38.3724 26.1602 36.9989 25.1808L30.612 20.5956C30.4092 20.4498 30.2065 20.4977 30.1063 20.5432C29.9879 20.591 29.8398 20.6981 29.8011 20.9304L28.5096 28.6954C28.234 30.3513 26.9379 31.6497 25.282 31.9253L17.517 33.2168C17.271 33.2578 17.1662 33.4286 17.1252 33.5288C17.082 33.629 17.0341 33.8272 17.1776 34.0299L21.6694 40.2779C22.7104 41.7972 22.7104 43.6217 21.781 44.9747L17.1776 51.3889C17.0341 51.5939 17.082 51.7943 17.123 51.8945C17.1731 52.013 17.2801 52.161 17.5125 52.1998L25.2797 53.489C26.9356 53.7646 28.2317 55.0629 28.5073 56.7189L29.7965 64.4815C29.8352 64.7184 29.9856 64.8232 30.1017 64.8733C30.1997 64.9143 30.4001 64.9644 30.6188 64.8118L36.9897 60.238C38.3769 59.2882 40.1991 59.2882 41.5544 60.2175L47.9686 64.8209C48.1668 64.9644 48.365 64.9166 48.4675 64.8733C48.5654 64.8323 48.7408 64.7275 48.7795 64.4838L50.071 56.7189C50.3466 55.0629 51.6427 53.7646 53.2986 53.489L61.0636 52.1998C61.2982 52.161 61.4052 52.013 61.4553 51.8945C61.4963 51.7943 61.5465 51.5939 61.3938 51.3752L56.8201 45.0043L59.5967 43.0112L64.1796 49.3958C64.9791 50.5324 65.1362 51.9538 64.6078 53.2157C64.0816 54.4707 62.9655 55.3522 61.6216 55.5709L53.8612 56.8601C53.6471 56.8965 53.4786 57.0651 53.4421 57.2792L52.1529 65.0419C51.932 66.388 51.0436 67.5042 49.7795 68.0303C49.2897 68.2353 48.775 68.3355 48.2647 68.3355Z" fill="black"/>
<path d="M41.5705 48.9721C41.1332 48.9721 40.6958 48.8058 40.3633 48.471L30.1133 38.221L32.53 35.8043L41.5728 44.847L65.4188 21.001L67.8356 23.4177L42.78 48.4733C42.4452 48.8058 42.0078 48.9721 41.5705 48.9721Z" fill="black"/>
<defs>
<linearGradient id="paint0_linear_1835_777" x1="15.2039" y1="35.8116" x2="63.5073" y2="36.275" gradientUnits="userSpaceOnUse">
<stop offset="0.041" stop-color="#F87708"/>
<stop offset="0.5993" stop-color="#FB4A55"/>
<stop offset="0.9817" stop-color="#E620AF"/>
</linearGradient>
<linearGradient id="paint1_linear_1835_777" x1="64.8946" y1="12.6816" x2="71.7929" y2="12.7478" gradientUnits="userSpaceOnUse">
<stop offset="0.041" stop-color="#F87708"/>
<stop offset="0.5993" stop-color="#FB4A55"/>
<stop offset="0.9817" stop-color="#E620AF"/>
</linearGradient>
</defs>
</svg>
