<svg width="64" height="64" viewBox="0 0 64 64" fill="none" xmlns="http://www.w3.org/2000/svg">
<g clip-path="url(#clip0_1536_312)">
<path d="M39.5925 31.221H24.4075C23.6481 31.221 23.0325 30.6054 23.0325 29.846C23.0325 29.0866 23.6481 28.471 24.4075 28.471H39.5925C40.3518 28.471 40.9675 29.0866 40.9675 29.846C40.9675 30.6054 40.3518 31.221 39.5925 31.221Z" fill="url(#paint0_linear_1536_312)"/>
<path d="M39.5925 23.5967H24.4075C23.6481 23.5967 23.0325 22.9811 23.0325 22.2217C23.0325 21.4623 23.6481 20.8467 24.4075 20.8467H39.5925C40.3518 20.8467 40.9675 21.4623 40.9675 22.2217C40.9675 22.9811 40.3518 23.5967 39.5925 23.5967Z" fill="url(#paint1_linear_1536_312)"/>
<path d="M63.7356 24.0438C63.7363 23.6155 63.5267 23.1976 63.1832 22.942L51.8799 14.5024V11.5674C51.8799 10.8081 51.2643 10.1924 50.5049 10.1924H46.1074L32.8226 0.273233C32.3347 -0.0910153 31.6653 -0.0911403 31.1773 0.273233L17.8924 10.1924H13.4949C12.7355 10.1924 12.1199 10.8081 12.1199 11.5674V14.5024L0.816704 22.942C0.473205 23.1976 0.263581 23.6155 0.264331 24.0438V62.6247C0.252081 63.3626 0.901078 64.013 1.63933 63.9997H62.3606C63.099 64.013 63.7477 63.3626 63.7356 62.6247V24.0438ZM3.01432 26.8321L20.3744 40.1542L3.01432 59.0902V26.8321ZM22.5644 41.8349L28.5872 46.4568C29.5921 47.2279 30.7958 47.6133 32 47.6133C33.2038 47.6133 34.4081 47.2278 35.4127 46.4568L41.4355 41.8349L59.2346 61.2497H4.76531L22.5644 41.8349ZM43.6255 40.1542L60.9856 26.8321V59.0902L43.6255 40.1542ZM60.0825 24.0588L51.8799 30.3534V17.9343L60.0825 24.0588ZM32 3.09097L41.5109 10.1924H22.4889L32 3.09097ZM49.1299 12.9424V32.4637L33.7384 44.2752C32.7147 45.0607 31.2851 45.0607 30.2615 44.2752L14.8699 32.4637V12.9424H49.1299ZM12.1199 30.3534L3.91744 24.0588L12.12 17.9343L12.1199 30.3534Z" fill="#474747"/>
</g>
<defs>
<linearGradient id="paint0_linear_1536_312" x1="22.9739" y1="29.437" x2="41.0093" y2="30.5303" gradientUnits="userSpaceOnUse">
<stop offset="0.041" stop-color="#F87708"/>
<stop offset="0.5993" stop-color="#FB4A55"/>
<stop offset="0.9817" stop-color="#E620AF"/>
</linearGradient>
<linearGradient id="paint1_linear_1536_312" x1="22.9739" y1="21.8127" x2="41.0093" y2="22.906" gradientUnits="userSpaceOnUse">
<stop offset="0.041" stop-color="#F87708"/>
<stop offset="0.5993" stop-color="#FB4A55"/>
<stop offset="0.9817" stop-color="#E620AF"/>
</linearGradient>
<clipPath id="clip0_1536_312">
<rect width="64" height="64" fill="white"/>
</clipPath>
</defs>
</svg>
