<svg width="109" height="24" viewBox="0 0 109 24" fill="none" xmlns="http://www.w3.org/2000/svg">
<g clip-path="url(#clip0_1292_477)">
<path d="M46.6911 11.1232C46.1641 11.1232 45.6986 11.0342 45.2948 10.8563C44.8909 10.6714 44.5726 10.4113 44.3399 10.0759C44.1072 9.73369 43.9874 9.31957 43.9806 8.83359H45.3667C45.3803 9.16899 45.5001 9.45305 45.726 9.68578C45.9587 9.91166 46.277 10.0246 46.6809 10.0246C47.03 10.0246 47.3072 9.94246 47.5125 9.77818C47.7179 9.60706 47.8206 9.38118 47.8206 9.10054C47.8206 8.80621 47.7281 8.5769 47.5433 8.41262C47.3654 8.24835 47.1258 8.11487 46.8246 8.0122C46.5234 7.90952 46.2017 7.8 45.8595 7.68364C45.305 7.49198 44.8807 7.24557 44.5863 6.94439C44.2988 6.64321 44.1551 6.24279 44.1551 5.74311C44.1483 5.31872 44.2475 4.95594 44.4529 4.65477C44.6651 4.34675 44.9525 4.1106 45.3153 3.94632C45.6781 3.7752 46.0956 3.68963 46.5679 3.68963C47.0471 3.68963 47.468 3.7752 47.8308 3.94632C48.2004 4.11744 48.4879 4.35701 48.6933 4.66503C48.9055 4.97306 49.0184 5.33926 49.0321 5.76364H47.6255C47.6186 5.51038 47.5194 5.28792 47.3277 5.09626C47.1429 4.89776 46.8828 4.79851 46.5474 4.79851C46.2599 4.79167 46.0169 4.86354 45.8184 5.01413C45.6268 5.15787 45.5309 5.37006 45.5309 5.6507C45.5309 5.89027 45.6062 6.08193 45.7568 6.22567C45.9074 6.36257 46.1127 6.47894 46.3729 6.57476C46.633 6.67059 46.9307 6.77327 47.2661 6.88279C47.6221 7.00599 47.9472 7.14974 48.2415 7.31402C48.5358 7.47829 48.772 7.69733 48.95 7.97113C49.1279 8.23808 49.2169 8.58375 49.2169 9.00813C49.2169 9.3846 49.1211 9.73369 48.9294 10.0554C48.7378 10.3771 48.4537 10.6372 48.0772 10.8357C47.7008 11.0274 47.2387 11.1232 46.6911 11.1232ZM50.3636 11V3.81284H55.0558V4.87038H51.6778V6.84172H54.7477V7.86845H51.6778V9.94246H55.0558V11H50.3636ZM59.5541 11.1232C58.8286 11.1232 58.2057 10.9692 57.6855 10.6612C57.1653 10.3463 56.7648 9.91166 56.4842 9.35722C56.2036 8.79594 56.0632 8.14909 56.0632 7.41669C56.0632 6.68428 56.2036 6.03744 56.4842 5.47616C56.7648 4.91487 57.1653 4.4768 57.6855 4.16193C58.2057 3.84707 58.8286 3.68963 59.5541 3.68963C60.4166 3.68963 61.1216 3.90525 61.6692 4.33648C62.2237 4.76086 62.5693 5.35979 62.7062 6.13327H61.2585C61.1695 5.74311 60.9779 5.43851 60.6836 5.21947C60.3961 4.99359 60.0128 4.88065 59.5336 4.88065C58.8697 4.88065 58.3494 5.10653 57.973 5.5583C57.5965 6.01006 57.4083 6.62952 57.4083 7.41669C57.4083 8.20385 57.5965 8.82332 57.973 9.27508C58.3494 9.72 58.8697 9.94246 59.5336 9.94246C60.0128 9.94246 60.3961 9.83979 60.6836 9.63444C60.9779 9.42225 61.1695 9.13134 61.2585 8.76171H62.7062C62.5693 9.50096 62.2237 10.0794 61.6692 10.4969C61.1216 10.9144 60.4166 11.1232 59.5541 11.1232ZM66.6418 11.1232C66.1147 11.1232 65.639 11.0205 65.2146 10.8152C64.7902 10.603 64.4514 10.2847 64.1981 9.86032C63.9517 9.43594 63.8285 8.89861 63.8285 8.24835V3.81284H65.1427V8.25861C65.1427 8.8199 65.2762 9.23744 65.5432 9.51123C65.8169 9.78503 66.1934 9.92193 66.6726 9.92193C67.1449 9.92193 67.5179 9.78503 67.7917 9.51123C68.0655 9.23744 68.2024 8.8199 68.2024 8.25861V3.81284H69.5166V8.24835C69.5166 8.89861 69.3866 9.43594 69.1265 9.86032C68.8664 10.2847 68.5173 10.603 68.0792 10.8152C67.648 11.0205 67.1688 11.1232 66.6418 11.1232ZM70.8582 11V3.81284H73.4969C74.0719 3.81284 74.5442 3.91209 74.9138 4.1106C75.2903 4.30225 75.5709 4.56578 75.7557 4.90118C75.9405 5.22974 76.033 5.59594 76.033 5.99979C76.033 6.43787 75.9166 6.83829 75.6839 7.20107C75.458 7.56385 75.102 7.82738 74.6161 7.99166L76.1048 11H74.5955L73.2608 8.16621H72.1724V11H70.8582ZM72.1724 7.20107H73.4148C73.8528 7.20107 74.1746 7.09498 74.3799 6.88279C74.5853 6.67059 74.6879 6.38995 74.6879 6.04086C74.6879 5.69862 74.5853 5.42482 74.3799 5.21947C74.1814 5.01412 73.8563 4.91145 73.4045 4.91145H72.1724V7.20107ZM77.2552 11V3.81284H81.9474V4.87038H78.5695V6.84172H81.6394V7.86845H78.5695V9.94246H81.9474V11H77.2552Z" fill="white"/>
<path d="M45.1151 18.4757C44.8516 18.4757 44.6188 18.4312 44.4169 18.3422C44.215 18.2498 44.0559 18.1197 43.9395 17.952C43.8231 17.7809 43.7632 17.5738 43.7598 17.3309H44.4529C44.4597 17.4986 44.5196 17.6406 44.6325 17.757C44.7489 17.8699 44.908 17.9264 45.11 17.9264C45.2845 17.9264 45.4231 17.8853 45.5258 17.8032C45.6285 17.7176 45.6798 17.6047 45.6798 17.4643C45.6798 17.3172 45.6336 17.2025 45.5412 17.1204C45.4522 17.0382 45.3324 16.9715 45.1818 16.9202C45.0313 16.8688 44.8704 16.8141 44.6993 16.7559C44.4221 16.6601 44.2099 16.5368 44.0627 16.3863C43.919 16.2357 43.8471 16.0355 43.8471 15.7856C43.8437 15.5734 43.8933 15.392 43.996 15.2414C44.1021 15.0874 44.2458 14.9694 44.4272 14.8872C44.6086 14.8017 44.8173 14.7589 45.0535 14.7589C45.2931 14.7589 45.5036 14.8017 45.6849 14.8872C45.8698 14.9728 46.0135 15.0926 46.1162 15.2466C46.2223 15.4006 46.2787 15.5837 46.2856 15.7959H45.5823C45.5788 15.6693 45.5292 15.558 45.4334 15.4622C45.341 15.3629 45.2109 15.3133 45.0432 15.3133C44.8995 15.3099 44.778 15.3458 44.6787 15.4211C44.5829 15.493 44.535 15.5991 44.535 15.7394C44.535 15.8592 44.5726 15.955 44.6479 16.0269C44.7232 16.0953 44.8259 16.1535 44.956 16.2014C45.086 16.2494 45.2349 16.3007 45.4026 16.3555C45.5806 16.4171 45.7431 16.4889 45.8903 16.5711C46.0375 16.6532 46.1555 16.7627 46.2445 16.8996C46.3335 17.0331 46.378 17.2059 46.378 17.4181C46.378 17.6064 46.3301 17.7809 46.2342 17.9418C46.1384 18.1026 45.9964 18.2327 45.8082 18.3319C45.6199 18.4278 45.3889 18.4757 45.1151 18.4757ZM48.1783 18.4757C47.9147 18.4757 47.682 18.4312 47.4801 18.3422C47.2782 18.2498 47.119 18.1197 47.0027 17.952C46.8863 17.7809 46.8264 17.5738 46.823 17.3309H47.516C47.5229 17.4986 47.5828 17.6406 47.6957 17.757C47.8121 17.8699 47.9712 17.9264 48.1731 17.9264C48.3477 17.9264 48.4863 17.8853 48.589 17.8032C48.6916 17.7176 48.743 17.6047 48.743 17.4643C48.743 17.3172 48.6968 17.2025 48.6044 17.1204C48.5154 17.0382 48.3956 16.9715 48.245 16.9202C48.0944 16.8688 47.9336 16.8141 47.7624 16.7559C47.4852 16.6601 47.273 16.5368 47.1259 16.3863C46.9821 16.2357 46.9102 16.0355 46.9102 15.7856C46.9068 15.5734 46.9565 15.392 47.0591 15.2414C47.1652 15.0874 47.309 14.9694 47.4904 14.8872C47.6717 14.8017 47.8805 14.7589 48.1167 14.7589C48.3562 14.7589 48.5667 14.8017 48.7481 14.8872C48.9329 14.9728 49.0767 15.0926 49.1793 15.2466C49.2854 15.4006 49.3419 15.5837 49.3487 15.7959H48.6454C48.642 15.6693 48.5924 15.558 48.4966 15.4622C48.4041 15.3629 48.2741 15.3133 48.1064 15.3133C47.9627 15.3099 47.8412 15.3458 47.7419 15.4211C47.6461 15.493 47.5982 15.5991 47.5982 15.7394C47.5982 15.8592 47.6358 15.955 47.7111 16.0269C47.7864 16.0953 47.8891 16.1535 48.0191 16.2014C48.1492 16.2494 48.2981 16.3007 48.4658 16.3555C48.6437 16.4171 48.8063 16.4889 48.9535 16.5711C49.1006 16.6532 49.2187 16.7627 49.3077 16.8996C49.3967 17.0331 49.4412 17.2059 49.4412 17.4181C49.4412 17.6064 49.3932 17.7809 49.2974 17.9418C49.2016 18.1026 49.0596 18.2327 48.8713 18.3319C48.6831 18.4278 48.4521 18.4757 48.1783 18.4757ZM50.0145 18.4141V14.8205H50.6716V17.9007H52.263V18.4141H50.0145ZM54.0653 18.4141V14.8205H56.4114V15.3493H54.7224V16.3349H56.2574V16.8483H54.7224V17.8853H56.4114V18.4141H54.0653ZM57.0332 18.4141V14.8205H57.6903L59.3793 17.3514V14.8205H60.0364V18.4141H59.3793L57.6903 15.8883V18.4141H57.0332ZM62.3604 18.4757C61.9976 18.4757 61.6862 18.3987 61.4261 18.2447C61.166 18.0872 60.9658 17.8699 60.8255 17.5927C60.6851 17.312 60.615 16.9886 60.615 16.6224C60.615 16.2562 60.6851 15.9328 60.8255 15.6521C60.9658 15.3715 61.166 15.1525 61.4261 14.995C61.6862 14.8376 61.9976 14.7589 62.3604 14.7589C62.7917 14.7589 63.1442 14.8667 63.418 15.0823C63.6952 15.2945 63.868 15.594 63.9365 15.9807H63.2126C63.1681 15.7856 63.0723 15.6333 62.9251 15.5238C62.7814 15.4109 62.5897 15.3544 62.3502 15.3544C62.0182 15.3544 61.7581 15.4673 61.5698 15.6932C61.3816 15.9191 61.2875 16.2288 61.2875 16.6224C61.2875 17.016 61.3816 17.3257 61.5698 17.5516C61.7581 17.7741 62.0182 17.8853 62.3502 17.8853C62.5897 17.8853 62.7814 17.834 62.9251 17.7313C63.0723 17.6252 63.1681 17.4797 63.2126 17.2949H63.9365C63.868 17.6645 63.6952 17.9537 63.418 18.1625C63.1442 18.3713 62.7917 18.4757 62.3604 18.4757ZM64.5181 18.4141V14.8205H65.8375C66.125 14.8205 66.3611 14.8701 66.5459 14.9694C66.7342 15.0652 66.8745 15.197 66.9669 15.3647C67.0593 15.5289 67.1055 15.712 67.1055 15.914C67.1055 16.133 67.0473 16.3332 66.931 16.5146C66.818 16.696 66.6401 16.8278 66.3971 16.9099L67.1415 18.4141H66.3868L65.7194 16.9972H65.1753V18.4141H64.5181ZM65.1753 16.5146H65.7964C66.0155 16.5146 66.1763 16.4616 66.279 16.3555C66.3817 16.2494 66.433 16.109 66.433 15.9345C66.433 15.7634 66.3817 15.6265 66.279 15.5238C66.1797 15.4211 66.0172 15.3698 65.7913 15.3698H65.1753V16.5146ZM68.5205 18.4141V17.1358L67.3141 14.8205H68.0585L68.8542 16.4787L69.6448 14.8205H70.3789L69.1776 17.1358V18.4141H68.5205ZM70.7999 18.4141V14.8205H72.1295C72.417 14.8205 72.6549 14.8684 72.8431 14.9642C73.0313 15.0601 73.1716 15.1918 73.2641 15.3595C73.3565 15.5272 73.4027 15.7155 73.4027 15.9242C73.4027 16.1227 73.3582 16.3058 73.2692 16.4735C73.1802 16.6378 73.0416 16.7713 72.8534 16.874C72.6651 16.9732 72.4238 17.0228 72.1295 17.0228H71.457V18.4141H70.7999ZM71.457 16.4889H72.0884C72.3177 16.4889 72.482 16.4393 72.5813 16.3401C72.6839 16.2374 72.7353 16.0988 72.7353 15.9242C72.7353 15.7463 72.6839 15.6076 72.5813 15.5084C72.482 15.4057 72.3177 15.3544 72.0884 15.3544H71.457V16.4889ZM74.755 18.4141V15.3493H73.7077V14.8205H76.4645V15.3493H75.4121V18.4141H74.755ZM76.9513 18.4141V14.8205H77.6084V18.4141H76.9513ZM79.9887 18.4757C79.6294 18.4757 79.3145 18.397 79.0441 18.2395C78.7772 18.0821 78.5667 17.8648 78.4127 17.5875C78.2621 17.3069 78.1868 16.9835 78.1868 16.6173C78.1868 16.2511 78.2621 15.9294 78.4127 15.6521C78.5667 15.3715 78.7772 15.1525 79.0441 14.995C79.3145 14.8376 79.6294 14.7589 79.9887 14.7589C80.3447 14.7589 80.6578 14.8376 80.9282 14.995C81.1986 15.1525 81.4091 15.3715 81.5596 15.6521C81.7102 15.9294 81.7855 16.2511 81.7855 16.6173C81.7855 16.9835 81.7102 17.3069 81.5596 17.5875C81.4091 17.8648 81.1986 18.0821 80.9282 18.2395C80.6578 18.397 80.3447 18.4757 79.9887 18.4757ZM79.9887 17.8853C80.331 17.8853 80.6031 17.7724 80.805 17.5465C81.0103 17.3206 81.113 17.0109 81.113 16.6173C81.113 16.2237 81.0103 15.914 80.805 15.6881C80.6031 15.4622 80.331 15.3493 79.9887 15.3493C79.6465 15.3493 79.3727 15.4622 79.1673 15.6881C78.962 15.914 78.8593 16.2237 78.8593 16.6173C78.8593 17.0109 78.962 17.3206 79.1673 17.5465C79.3727 17.7724 79.6465 17.8853 79.9887 17.8853ZM82.3657 18.4141V14.8205H83.0228L84.7118 17.3514V14.8205H85.3689V18.4141H84.7118L83.0228 15.8883V18.4141H82.3657Z" fill="white" fill-opacity="0.8"/>
<mask id="mask0_1292_477" style="mask-type:alpha" maskUnits="userSpaceOnUse" x="22" y="1" width="21" height="22">
<rect x="22" y="1.71094" width="20.5347" height="20.5347" fill="#D9D9D9"/>
</mask>
<g mask="url(#mask0_1292_477)">
<path d="M30.9834 14.5449H33.5502L33.0582 11.7855C33.3434 11.6429 33.568 11.4361 33.732 11.1652C33.896 10.8942 33.978 10.5948 33.978 10.2668C33.978 9.7962 33.8105 9.39335 33.4753 9.05823C33.1402 8.72312 32.7374 8.55556 32.2668 8.55556C31.7962 8.55556 31.3933 8.72312 31.0582 9.05823C30.7231 9.39335 30.5556 9.7962 30.5556 10.2668C30.5556 10.5948 30.6376 10.8942 30.8015 11.1652C30.9655 11.4361 31.1901 11.6429 31.4753 11.7855L30.9834 14.5449ZM32.2668 20.5342C30.2846 20.035 28.6483 18.8978 27.3577 17.1224C26.0672 15.347 25.4219 13.3755 25.4219 11.208V5.98872L32.2668 3.42188L39.1117 5.98872V11.208C39.1117 13.3755 38.4664 15.347 37.1759 17.1224C35.8853 18.8978 34.249 20.035 32.2668 20.5342ZM32.2668 18.7374C33.7499 18.2668 34.9762 17.3256 35.9459 15.9138C36.9156 14.5021 37.4005 12.9334 37.4005 11.208V7.16519L32.2668 5.24005L27.1331 7.16519V11.208C27.1331 12.9334 27.618 14.5021 28.5876 15.9138C29.5573 17.3256 30.7837 18.2668 32.2668 18.7374Z" fill="url(#paint0_linear_1292_477)"/>
</g>
</g>
<defs>
<linearGradient id="paint0_linear_1292_477" x1="25.7855" y1="9.59352" x2="39.282" y2="10.0825" gradientUnits="userSpaceOnUse">
<stop stop-color="#F87708"/>
<stop offset="0.591159" stop-color="#FB4A55"/>
<stop offset="0.996" stop-color="#E620AF"/>
</linearGradient>
<clipPath id="clip0_1292_477">
<rect width="109" height="24" rx="2.05446" fill="white"/>
</clipPath>
</defs>
</svg>
