<svg width="24" height="24" viewBox="0 0 24 24" fill="none" xmlns="http://www.w3.org/2000/svg">
<path d="M8.25 8.25C8.25 8.05109 8.32902 7.86032 8.46967 7.71967C8.61032 7.57902 8.80109 7.5 9 7.5H15C15.1185 7.49986 15.2353 7.5278 15.3409 7.58151C15.4465 7.63521 15.5378 7.71317 15.6075 7.809C14.946 8.0685 14.3625 8.4795 13.896 9H9C8.80109 9 8.61032 8.92098 8.46967 8.78033C8.32902 8.63968 8.25 8.44891 8.25 8.25ZM12.75 12H9C8.80109 12 8.61032 12.079 8.46967 12.2197C8.32902 12.3603 8.25 12.5511 8.25 12.75C8.25 12.9489 8.32902 13.1397 8.46967 13.2803C8.61032 13.421 8.80109 13.5 9 13.5H13.005C12.84 13.0305 12.75 12.525 12.75 12ZM11.112 21H6.75C6.55109 21 6.36032 20.921 6.21967 20.7803C6.07902 20.6397 6 20.4489 6 20.25V5.25C6 5.05109 6.07902 4.86032 6.21967 4.71967C6.36032 4.57902 6.55109 4.5 6.75 4.5H17.25C17.4489 4.5 17.6397 4.57902 17.7803 4.71967C17.921 4.86032 18 5.05109 18 5.25V7.5615C18.5385 7.6515 19.044 7.839 19.5 8.1015V5.25C19.5 4.65326 19.2629 4.08097 18.841 3.65901C18.419 3.23705 17.8467 3 17.25 3V2.25C17.25 2.05109 17.171 1.86032 17.0303 1.71967C16.8897 1.57902 16.6989 1.5 16.5 1.5C16.3011 1.5 16.1103 1.57902 15.9697 1.71967C15.829 1.86032 15.75 2.05109 15.75 2.25V3H12.75V2.25C12.75 2.05109 12.671 1.86032 12.5303 1.71967C12.3897 1.57902 12.1989 1.5 12 1.5C11.8011 1.5 11.6103 1.57902 11.4697 1.71967C11.329 1.86032 11.25 2.05109 11.25 2.25V3H8.25V2.25C8.25 2.05109 8.17098 1.86032 8.03033 1.71967C7.88968 1.57902 7.69891 1.5 7.5 1.5C7.30109 1.5 7.11032 1.57902 6.96967 1.71967C6.82902 1.86032 6.75 2.05109 6.75 2.25V3C6.15326 3 5.58097 3.23705 5.15901 3.65901C4.73705 4.08097 4.5 4.65326 4.5 5.25V20.25C4.5 20.8467 4.73705 21.419 5.15901 21.841C5.58097 22.2629 6.15326 22.5 6.75 22.5H12.129C12.188 22.5 12.247 22.4975 12.306 22.4925C11.82 22.0722 11.4153 21.5664 11.112 21ZM13.815 21.7455C13.2647 21.4157 12.8086 20.9498 12.4907 20.3925C12.1728 19.8353 12.0038 19.2055 12 18.564C12 17.5545 12.7965 16.728 13.815 16.6395C13.873 16.6345 13.932 16.632 13.992 16.632H20.508C21.6075 16.632 22.5 17.4975 22.5 18.564C22.5 20.2875 21.2895 21.7905 19.563 22.209L19.4385 22.239C18.0003 22.5872 16.4997 22.5872 15.0615 22.239L14.937 22.209C14.5411 22.114 14.1625 21.9576 13.815 21.7455ZM19.5 13.9845C19.0969 14.4415 18.5642 14.765 17.9728 14.9118C17.3814 15.0586 16.7593 15.0219 16.1893 14.8064C15.6192 14.5909 15.1284 14.207 14.7819 13.7057C14.4355 13.2043 14.25 12.6094 14.25 12C14.25 11.5146 14.3678 11.0365 14.5933 10.6066C14.8188 10.1768 15.1452 9.80805 15.5445 9.53211C15.9439 9.25617 16.4042 9.08125 16.886 9.02235C17.3678 8.96346 17.8567 9.02235 18.3107 9.19398C18.7648 9.3656 19.1704 9.64484 19.4928 10.0077C19.8152 10.3706 20.0447 10.8063 20.1616 11.2774C20.2786 11.7485 20.2795 12.2409 20.1642 12.7124C20.049 13.1839 19.8211 13.6205 19.5 13.9845ZM8.25 17.25C8.25 17.0511 8.32902 16.8603 8.46967 16.7197C8.61032 16.579 8.80109 16.5 9 16.5H9.75C9.94891 16.5 10.1397 16.579 10.2803 16.7197C10.421 16.8603 10.5 17.0511 10.5 17.25C10.5 17.4489 10.421 17.6397 10.2803 17.7803C10.1397 17.921 9.94891 18 9.75 18H9C8.80109 18 8.61032 17.921 8.46967 17.7803C8.32902 17.6397 8.25 17.4489 8.25 17.25Z" fill="url(#paint0_linear_1304_310)"/>
<defs>
<linearGradient id="paint0_linear_1304_310" x1="4.97813" y1="9.07383" x2="22.7205" y2="9.76251" gradientUnits="userSpaceOnUse">
<stop stop-color="#F87708"/>
<stop offset="0.591159" stop-color="#FB4A55"/>
<stop offset="0.996" stop-color="#E620AF"/>
</linearGradient>
</defs>
</svg>
