<svg width="1" height="346" viewBox="0 0 1 346" fill="none" xmlns="http://www.w3.org/2000/svg">
<rect width="1" height="2" fill="#BBBBBB"/>
<rect y="4" width="1" height="4" fill="#BBBBBB"/>
<rect y="10" width="1" height="4" fill="#BBBBBB"/>
<rect y="16" width="1" height="4" fill="#BBBBBB"/>
<rect y="22" width="1" height="4" fill="#BBBBBB"/>
<rect y="28" width="1" height="4" fill="#BBBBBB"/>
<rect y="34" width="1" height="4" fill="#BBBBBB"/>
<rect y="40" width="1" height="4" fill="#BBBBBB"/>
<rect y="46" width="1" height="4" fill="#BBBBBB"/>
<rect y="52" width="1" height="4" fill="#BBBBBB"/>
<rect y="58" width="1" height="4" fill="#BBBBBB"/>
<rect y="64" width="1" height="4" fill="#BBBBBB"/>
<rect y="70" width="1" height="4" fill="#BBBBBB"/>
<rect y="76" width="1" height="3" fill="#BBBBBB"/>
<rect y="82" width="1" height="3" fill="#BBBBBB"/>
<rect y="88" width="1" height="3" fill="#BBBBBB"/>
<rect y="94" width="1" height="3" fill="#BBBBBB"/>
<rect y="99" width="1" height="4" fill="#BBBBBB"/>
<rect y="105" width="1" height="4" fill="#BBBBBB"/>
<rect y="111" width="1" height="4" fill="#BBBBBB"/>
<rect y="117" width="1" height="4" fill="#BBBBBB"/>
<rect y="123" width="1" height="4" fill="#BBBBBB"/>
<rect y="129" width="1" height="4" fill="#BBBBBB"/>
<rect y="135" width="1" height="4" fill="#BBBBBB"/>
<rect y="141" width="1" height="4" fill="#BBBBBB"/>
<rect y="147" width="1" height="4" fill="#BBBBBB"/>
<rect y="153" width="1" height="4" fill="#BBBBBB"/>
<rect y="159" width="1" height="4" fill="#BBBBBB"/>
<rect y="165" width="1" height="4" fill="#BBBBBB"/>
<rect y="171" width="1" height="4" fill="#BBBBBB"/>
<rect y="177" width="1" height="4" fill="#BBBBBB"/>
<rect y="183" width="1" height="4" fill="#BBBBBB"/>
<rect y="189" width="1" height="4" fill="#BBBBBB"/>
<rect y="195" width="1" height="4" fill="#BBBBBB"/>
<rect y="201" width="1" height="4" fill="#BBBBBB"/>
<rect y="207" width="1" height="4" fill="#BBBBBB"/>
<rect y="213" width="1" height="4" fill="#BBBBBB"/>
<rect y="219" width="1" height="4" fill="#BBBBBB"/>
<rect y="225" width="1" height="4" fill="#BBBBBB"/>
<rect y="231" width="1" height="4" fill="#BBBBBB"/>
<rect y="237" width="1" height="4" fill="#BBBBBB"/>
<rect y="243" width="1" height="4" fill="#BBBBBB"/>
<rect y="249" width="1" height="3" fill="#BBBBBB"/>
<rect y="255" width="1" height="3" fill="#BBBBBB"/>
<rect y="261" width="1" height="3" fill="#BBBBBB"/>
<rect y="267" width="1" height="3" fill="#BBBBBB"/>
<rect y="273" width="1" height="3" fill="#BBBBBB"/>
<rect y="279" width="1" height="3" fill="#BBBBBB"/>
<rect y="285" width="1" height="3" fill="#BBBBBB"/>
<rect y="291" width="1" height="3" fill="#BBBBBB"/>
<rect y="297" width="1" height="3" fill="#BBBBBB"/>
<rect y="303" width="1" height="3" fill="#BBBBBB"/>
<rect y="308" width="1" height="4" fill="#BBBBBB"/>
<rect y="314" width="1" height="4" fill="#BBBBBB"/>
<rect y="320" width="1" height="4" fill="#BBBBBB"/>
<rect y="326" width="1" height="4" fill="#BBBBBB"/>
<rect y="332" width="1" height="4" fill="#BBBBBB"/>
<rect y="338" width="1" height="4" fill="#BBBBBB"/>
<rect y="344" width="1" height="2" fill="#BBBBBB"/>
</svg>
