<svg width="1" height="346" viewBox="0 0 1 346" fill="none" xmlns="http://www.w3.org/2000/svg">
<rect width="1" height="16" rx="0.5" fill="#DADADA"/>
<rect y="18" width="1" height="16" rx="0.5" fill="#DADADA"/>
<rect y="36" width="1" height="16" rx="0.5" fill="#DADADA"/>
<rect y="54" width="1" height="16" rx="0.5" fill="#DADADA"/>
<rect y="72" width="1" height="16" rx="0.5" fill="#DADADA"/>
<rect y="90" width="1" height="16" rx="0.5" fill="#DADADA"/>
<rect y="108" width="1" height="16" rx="0.5" fill="#DADADA"/>
<rect y="126" width="1" height="16" rx="0.5" fill="#DADADA"/>
<rect y="144" width="1" height="16" rx="0.5" fill="#DADADA"/>
<rect y="162" width="1" height="16" rx="0.5" fill="#DADADA"/>
<rect y="180" width="1" height="16" rx="0.5" fill="#DADADA"/>
<rect y="198" width="1" height="16" rx="0.5" fill="#DADADA"/>
<rect y="216" width="1" height="16" rx="0.5" fill="#DADADA"/>
<rect y="234" width="1" height="16" rx="0.5" fill="#DADADA"/>
<rect y="252" width="1" height="16" rx="0.5" fill="#DADADA"/>
<rect y="270" width="1" height="16" rx="0.5" fill="#DADADA"/>
<rect y="288" width="1" height="16" rx="0.5" fill="#DADADA"/>
<rect y="306" width="1" height="16" rx="0.5" fill="#DADADA"/>
<rect y="324" width="1" height="16" rx="0.5" fill="#DADADA"/>
<rect y="342" width="1" height="4" rx="0.5" fill="#DADADA"/>
</svg>
