<svg width="12" height="12" viewBox="0 0 12 12" fill="none" xmlns="http://www.w3.org/2000/svg">
<g clip-path="url(#clip0_1821_793)">
<path d="M6.00078 0.299805C2.84196 0.299805 0.300781 2.8586 0.300781 5.9998C0.300781 9.15863 2.85957 11.6998 6.00078 11.6998C9.1596 11.6998 11.7008 9.14101 11.7008 5.9998C11.7008 2.85875 9.14199 0.299804 6.00078 0.299805ZM6.00078 10.2175C3.67131 10.2175 1.78313 8.32915 1.78313 5.9998C1.78313 3.67033 3.67143 1.78216 6.00078 1.78216C8.33026 1.78216 10.2184 3.67046 10.2184 5.9998C10.2008 8.32915 8.31255 10.2175 6.00078 10.2175Z" fill="url(#paint0_linear_1821_793)"/>
<path d="M9.03304 4.36894L8.47833 3.80468C8.34816 3.67227 8.13511 3.67108 8.00346 3.80202L4.94224 6.84688L3.99663 5.90127C3.86588 5.77052 3.65389 5.77052 3.52314 5.90127L2.95549 6.46892C2.82473 6.59967 2.82473 6.81166 2.95549 6.94241L4.70549 8.69242C4.83624 8.82317 5.04823 8.82317 5.17898 8.69242L9.03103 4.8404C9.16099 4.71044 9.16189 4.50001 9.03304 4.36894Z" fill="white"/>
</g>
<defs>
<linearGradient id="paint0_linear_1821_793" x1="6.00078" y1="0.299805" x2="6.00078" y2="11.6998" gradientUnits="userSpaceOnUse">
<stop stop-color="#FA612F"/>
<stop offset="0.58" stop-color="#FB4A55"/>
<stop offset="1" stop-color="#E620AF"/>
</linearGradient>
<clipPath id="clip0_1821_793">
<rect width="12" height="12" fill="white"/>
</clipPath>
</defs>
</svg>
