<svg width="109" height="24" viewBox="0 0 109 24" fill="none" xmlns="http://www.w3.org/2000/svg">
<mask id="mask0_1292_520" style="mask-type:alpha" maskUnits="userSpaceOnUse" x="25" y="1" width="21" height="22">
<rect x="25" y="1.71484" width="20.5714" height="20.5714" fill="#D9D9D9"/>
</mask>
<g mask="url(#mask0_1292_520)">
<path d="M30.7965 13.1883C30.9122 12.8797 31.0054 12.555 31.0762 12.2143C31.1469 11.8736 31.1822 11.5168 31.1822 11.144C31.1822 10.7711 31.1469 10.4143 31.0762 10.0736C31.0054 9.7329 30.9122 9.40826 30.7965 9.09969L29.3694 9.67826C29.4465 9.90969 29.5108 10.1475 29.5622 10.3918C29.6137 10.6361 29.6394 10.8868 29.6394 11.144C29.6394 11.4011 29.6137 11.6518 29.5622 11.8961C29.5108 12.1404 29.4465 12.3783 29.3694 12.6097L30.7965 13.1883ZM33.2651 14.2297C33.4837 13.7411 33.6412 13.2397 33.7376 12.7254C33.834 12.2111 33.8822 11.684 33.8822 11.144C33.8822 10.604 33.834 10.0768 33.7376 9.56255C33.6412 9.04826 33.4837 8.54683 33.2651 8.05826L31.8379 8.63683C32.0179 9.02255 32.1465 9.42433 32.2237 9.84219C32.3008 10.26 32.3394 10.694 32.3394 11.144C32.3394 11.594 32.3008 12.0279 32.2237 12.4458C32.1465 12.8636 32.0179 13.2654 31.8379 13.6511L33.2651 14.2297ZM35.7722 15.2711C36.0422 14.6283 36.2447 13.9629 36.3797 13.275C36.5147 12.5872 36.5822 11.8768 36.5822 11.144C36.5822 10.4111 36.5147 9.70076 36.3797 9.0129C36.2447 8.32505 36.0422 7.65969 35.7722 7.01683L34.3451 7.63397C34.5765 8.17397 34.7501 8.73969 34.8658 9.33112C34.9815 9.92255 35.0394 10.5268 35.0394 11.144C35.0394 11.7611 34.9815 12.3654 34.8658 12.9568C34.7501 13.5483 34.5765 14.114 34.3451 14.654L35.7722 15.2711ZM33.5737 18.8583C32.5065 18.8583 31.5037 18.6558 30.5651 18.2508C29.6265 17.8458 28.8101 17.2961 28.1158 16.6018C27.4215 15.9075 26.8719 15.0911 26.4669 14.1525C26.0619 13.214 25.8594 12.2111 25.8594 11.144C25.8594 10.0768 26.0619 9.07397 26.4669 8.1354C26.8719 7.19683 27.4215 6.3804 28.1158 5.68612C28.8101 4.99183 29.6265 4.44219 30.5651 4.03719C31.5037 3.63219 32.5065 3.42969 33.5737 3.42969C34.6408 3.42969 35.6437 3.63219 36.5822 4.03719C37.5208 4.44219 38.3372 4.99183 39.0315 5.68612C39.7258 6.3804 40.2754 7.19683 40.6804 8.1354C41.0854 9.07397 41.2879 10.0768 41.2879 11.144C41.2879 12.2111 41.0854 13.214 40.6804 14.1525C40.2754 15.0911 39.7258 15.9075 39.0315 16.6018C38.3372 17.2961 37.5208 17.8458 36.5822 18.2508C35.6437 18.6558 34.6408 18.8583 33.5737 18.8583ZM33.5737 17.3154C35.2965 17.3154 36.7558 16.7175 37.9515 15.5218C39.1472 14.3261 39.7451 12.8668 39.7451 11.144C39.7451 9.42112 39.1472 7.96183 37.9515 6.76612C36.7558 5.5704 35.2965 4.97254 33.5737 4.97254C31.8508 4.97254 30.3915 5.5704 29.1958 6.76612C28.0001 7.96183 27.4022 9.42112 27.4022 11.144C27.4022 12.8668 28.0001 14.3261 29.1958 15.5218C30.3915 16.7175 31.8508 17.3154 33.5737 17.3154Z" fill="url(#paint0_linear_1292_520)"/>
</g>
<path d="M46.8417 11.1166C46.343 11.1166 45.9026 11.0324 45.5205 10.864C45.1384 10.6891 44.8373 10.443 44.6171 10.1257C44.3969 9.8019 44.2836 9.4101 44.2771 8.95029H45.5885C45.6015 9.26762 45.7148 9.53638 45.9285 9.75657C46.1487 9.97029 46.4499 10.0771 46.8319 10.0771C47.1622 10.0771 47.4245 9.99943 47.6188 9.844C47.8131 9.6821 47.9102 9.46838 47.9102 9.20286C47.9102 8.92438 47.8228 8.70743 47.6479 8.552C47.4796 8.39657 47.2529 8.27029 46.9679 8.17314C46.683 8.076 46.3786 7.97238 46.0548 7.86229C45.5302 7.68095 45.1287 7.44781 44.8502 7.16286C44.5782 6.8779 44.4422 6.49905 44.4422 6.02629C44.4358 5.62476 44.5297 5.28152 44.7239 4.99657C44.9247 4.70514 45.1967 4.48171 45.5399 4.32629C45.8832 4.16438 46.2782 4.08343 46.7251 4.08343C47.1784 4.08343 47.5767 4.16438 47.9199 4.32629C48.2697 4.48819 48.5417 4.71486 48.7359 5.00629C48.9367 5.29771 49.0436 5.64419 49.0565 6.04571H47.7257C47.7192 5.80609 47.6253 5.59562 47.4439 5.41429C47.2691 5.22648 47.023 5.13257 46.7057 5.13257C46.4337 5.12609 46.2038 5.1941 46.0159 5.33657C45.8346 5.47257 45.7439 5.67333 45.7439 5.93886C45.7439 6.16552 45.8152 6.34686 45.9577 6.48286C46.1001 6.61238 46.2944 6.72248 46.5405 6.81314C46.7866 6.90381 47.0683 7.00095 47.3857 7.10457C47.7224 7.22114 48.03 7.35714 48.3085 7.51257C48.587 7.668 48.8104 7.87524 48.9788 8.13429C49.1472 8.38686 49.2314 8.7139 49.2314 9.11543C49.2314 9.47162 49.1407 9.8019 48.9594 10.1063C48.778 10.4107 48.5093 10.6568 48.1531 10.8446C47.7969 11.0259 47.3598 11.1166 46.8417 11.1166ZM50.3163 11V4.2H54.7557V5.20057H51.5597V7.06571H54.4643V8.03714H51.5597V9.99943H54.7557V11H50.3163ZM59.0118 11.1166C58.3253 11.1166 57.736 10.9709 57.2438 10.6794C56.7516 10.3815 56.3727 9.97029 56.1072 9.44571C55.8417 8.91467 55.7089 8.30267 55.7089 7.60971C55.7089 6.91676 55.8417 6.30476 56.1072 5.77371C56.3727 5.24267 56.7516 4.82819 57.2438 4.53029C57.736 4.23238 58.3253 4.08343 59.0118 4.08343C59.8278 4.08343 60.4948 4.28743 61.0129 4.69543C61.5375 5.09695 61.8645 5.66362 61.994 6.39543H60.6243C60.5401 6.02629 60.3588 5.73809 60.0803 5.53086C59.8083 5.31714 59.4457 5.21029 58.9923 5.21029C58.3641 5.21029 57.872 5.424 57.5158 5.85143C57.1596 6.27886 56.9815 6.86495 56.9815 7.60971C56.9815 8.35448 57.1596 8.94057 57.5158 9.368C57.872 9.78895 58.3641 9.99943 58.9923 9.99943C59.4457 9.99943 59.8083 9.90229 60.0803 9.708C60.3588 9.50724 60.5401 9.232 60.6243 8.88229H61.994C61.8645 9.58171 61.5375 10.129 61.0129 10.524C60.4948 10.919 59.8278 11.1166 59.0118 11.1166ZM65.7176 11.1166C65.2189 11.1166 64.7688 11.0194 64.3673 10.8251C63.9658 10.6244 63.6452 10.3232 63.4056 9.92171C63.1724 9.52019 63.0559 9.01181 63.0559 8.39657V4.2H64.2993V8.40629C64.2993 8.93733 64.4256 9.33238 64.6782 9.59143C64.9372 9.85048 65.2934 9.98 65.7467 9.98C66.1936 9.98 66.5465 9.85048 66.8056 9.59143C67.0646 9.33238 67.1942 8.93733 67.1942 8.40629V4.2H68.4376V8.39657C68.4376 9.01181 68.3145 9.52019 68.0684 9.92171C67.8223 10.3232 67.4921 10.6244 67.0776 10.8251C66.6696 11.0194 66.2162 11.1166 65.7176 11.1166ZM69.7069 11V4.2H72.2035C72.7475 4.2 73.1943 4.2939 73.544 4.48171C73.9002 4.66305 74.1657 4.91238 74.3406 5.22971C74.5155 5.54057 74.6029 5.88705 74.6029 6.26914C74.6029 6.68362 74.4928 7.06248 74.2726 7.40571C74.0589 7.74895 73.7221 7.99829 73.2623 8.15371L74.6709 11H73.2429L71.98 8.31886H70.9503V11H69.7069ZM70.9503 7.40571H72.1257C72.5402 7.40571 72.8446 7.30533 73.0389 7.10457C73.2332 6.90381 73.3303 6.63829 73.3303 6.308C73.3303 5.98419 73.2332 5.72514 73.0389 5.53086C72.8511 5.33657 72.5435 5.23943 72.116 5.23943H70.9503V7.40571ZM75.7593 11V4.2H80.1988V5.20057H77.0028V7.06571H79.9073V8.03714H77.0028V9.99943H80.1988V11H75.7593Z" fill="white"/>
<path d="M43.896 19.4297V14.6297H45.672C46.056 14.6297 46.3737 14.6937 46.6251 14.8217C46.8765 14.9497 47.064 15.1257 47.1874 15.3497C47.3108 15.5737 47.3725 15.8251 47.3725 16.104C47.3725 16.3691 47.3131 16.6137 47.1943 16.8377C47.0754 17.0571 46.8903 17.2354 46.6388 17.3725C46.3874 17.5051 46.0651 17.5714 45.672 17.5714H44.7737V19.4297H43.896ZM44.7737 16.8583H45.6171C45.9234 16.8583 46.1428 16.792 46.2754 16.6594C46.4125 16.5223 46.4811 16.3371 46.4811 16.104C46.4811 15.8663 46.4125 15.6811 46.2754 15.5485C46.1428 15.4114 45.9234 15.3428 45.6171 15.3428H44.7737V16.8583ZM47.237 19.4297L48.9924 14.6297H49.9798L51.7352 19.4297H50.8027L50.4187 18.3188H48.5467L48.1558 19.4297H47.237ZM48.7867 17.6331H50.1787L49.4792 15.6377L48.7867 17.6331ZM53.0389 19.4297V17.7223L51.4275 14.6297H52.4218L53.4846 16.8445L54.5406 14.6297H55.5212L53.9166 17.7223V19.4297H53.0389ZM56.0835 19.4297V14.6297H57.1258L58.6549 17.6743L60.1635 14.6297H61.2058V19.4297H60.328V16.1177L58.9909 18.744H58.2983L56.9612 16.1177V19.4297H56.0835ZM62.137 19.4297V14.6297H65.2708V15.336H63.0148V16.6525H65.065V17.3383H63.0148V18.7234H65.2708V19.4297H62.137ZM66.1013 19.4297V14.6297H66.979L69.235 18.0103V14.6297H70.1128V19.4297H69.235L66.979 16.056V19.4297H66.1013ZM72.161 19.4297V15.336H70.7622V14.6297H74.4444V15.336H73.0387V19.4297H72.161Z" fill="#CCCCCC"/>
<defs>
<linearGradient id="paint0_linear_1292_520" x1="26.2692" y1="8.99409" x2="41.4687" y2="9.6824" gradientUnits="userSpaceOnUse">
<stop stop-color="#F87708"/>
<stop offset="0.591159" stop-color="#FB4A55"/>
<stop offset="0.996" stop-color="#E620AF"/>
</linearGradient>
</defs>
</svg>
