<svg width="109" height="37" viewBox="0 0 109 37" fill="none" xmlns="http://www.w3.org/2000/svg">
<g clip-path="url(#clip0_1353_330)">
<path d="M10.3933 8.56842L15.5668 1.50921C15.9363 0.989912 16.3752 0.608553 16.8833 0.365132C17.3914 0.121711 17.9226 0 18.4769 0C19.0312 0 19.5624 0.121711 20.0705 0.365132C20.5787 0.608553 21.0175 0.989912 21.387 1.50921L26.5606 8.56842L34.4132 11.3434C35.2139 11.6031 35.8452 12.0818 36.3071 12.7796C36.769 13.4774 37 14.2482 37 15.0921C37 15.4816 36.9461 15.8711 36.8383 16.2605C36.7305 16.65 36.5535 17.0232 36.3071 17.3803L31.226 24.975L31.4107 32.9592C31.4415 34.0952 31.0874 35.0526 30.3483 35.8316C29.6092 36.6105 28.747 37 27.7616 37C27.7 37 27.3612 36.9513 26.7453 36.8539L18.4769 34.4197L10.2085 36.8539C10.0545 36.9189 9.88514 36.9594 9.70037 36.9757C9.51561 36.9919 9.34623 37 9.19226 37C8.20682 37 7.34457 36.6105 6.60549 35.8316C5.86642 35.0526 5.51228 34.0952 5.54307 32.9592L5.72784 24.9263L0.692884 17.3803C0.446525 17.0232 0.269455 16.65 0.161673 16.2605C0.053891 15.8711 0 15.4816 0 15.0921C0 14.2807 0.223263 13.5261 0.669788 12.8283C1.11631 12.1305 1.73991 11.6355 2.54057 11.3434L10.3933 8.56842ZM12.6567 11.9276L3.69538 15.0434L9.42322 23.7579L9.23845 33.0566L18.4769 30.3789L27.7154 33.1053L27.5306 23.7579L33.2584 15.1408L24.2971 11.9276L18.4769 3.89474L12.6567 11.9276Z" fill="url(#paint0_linear_1353_330)"/>
<path d="M39.292 18V4.7H44.631C46.0117 4.7 47.063 5.023 47.785 5.669C48.5197 6.30233 48.887 7.11933 48.887 8.12C48.887 8.956 48.659 9.62733 48.203 10.134C47.7597 10.628 47.215 10.9637 46.569 11.141C47.329 11.293 47.956 11.673 48.45 12.281C48.944 12.8763 49.191 13.573 49.191 14.371C49.191 15.4223 48.811 16.29 48.051 16.974C47.291 17.658 46.2143 18 44.821 18H39.292ZM41.724 10.286H44.27C44.954 10.286 45.4797 10.1277 45.847 9.811C46.2143 9.49433 46.398 9.04467 46.398 8.462C46.398 7.90467 46.2143 7.46767 45.847 7.151C45.4923 6.82167 44.954 6.657 44.232 6.657H41.724V10.286ZM41.724 16.024H44.441C45.163 16.024 45.7203 15.8593 46.113 15.53C46.5183 15.188 46.721 14.713 46.721 14.105C46.721 13.4843 46.512 12.9967 46.094 12.642C45.676 12.2873 45.1123 12.11 44.403 12.11H41.724V16.024ZM51.2783 18V4.7H59.9613V6.657H53.7103V10.305H59.3913V12.205H53.7103V16.043H59.9613V18H51.2783ZM66.8037 18.228C65.8284 18.228 64.967 18.0633 64.2197 17.734C63.4724 17.392 62.8834 16.9107 62.4527 16.29C62.022 15.6567 61.8004 14.8903 61.7877 13.991H64.3527C64.378 14.6117 64.5997 15.1373 65.0177 15.568C65.4484 15.986 66.0374 16.195 66.7847 16.195C67.4307 16.195 67.9437 16.043 68.3237 15.739C68.7037 15.4223 68.8937 15.0043 68.8937 14.485C68.8937 13.9403 68.7227 13.516 68.3807 13.212C68.0514 12.908 67.608 12.661 67.0507 12.471C66.4934 12.281 65.898 12.0783 65.2647 11.863C64.2387 11.5083 63.4534 11.0523 62.9087 10.495C62.3767 9.93767 62.1107 9.19667 62.1107 8.272C62.098 7.48667 62.2817 6.81533 62.6617 6.258C63.0544 5.688 63.5864 5.251 64.2577 4.947C64.929 4.63033 65.7017 4.472 66.5757 4.472C67.4624 4.472 68.2414 4.63033 68.9127 4.947C69.5967 5.26367 70.1287 5.707 70.5087 6.277C70.9014 6.847 71.1104 7.52467 71.1357 8.31H68.5327C68.52 7.84133 68.3364 7.42967 67.9817 7.075C67.6397 6.70767 67.1584 6.524 66.5377 6.524C66.0057 6.51133 65.556 6.64433 65.1887 6.923C64.834 7.189 64.6567 7.58167 64.6567 8.101C64.6567 8.54433 64.796 8.899 65.0747 9.165C65.3534 9.41833 65.7334 9.63367 66.2147 9.811C66.696 9.98833 67.247 10.1783 67.8677 10.381C68.5264 10.609 69.128 10.875 69.6727 11.179C70.2174 11.483 70.6544 11.8883 70.9837 12.395C71.313 12.889 71.4777 13.5287 71.4777 14.314C71.4777 15.0107 71.3004 15.6567 70.9457 16.252C70.591 16.8473 70.0654 17.3287 69.3687 17.696C68.672 18.0507 67.817 18.228 66.8037 18.228ZM76.5296 18V6.657H72.6536V4.7H82.8566V6.657H78.9616V18H76.5296Z" fill="white"/>
<path d="M43.4659 34.656C42.5473 34.656 41.7586 34.461 41.0999 34.071C40.4413 33.6723 39.9343 33.122 39.5789 32.42C39.2236 31.7093 39.0459 30.8903 39.0459 29.963C39.0459 29.0357 39.2236 28.2167 39.5789 27.506C39.9343 26.7953 40.4413 26.2407 41.0999 25.842C41.7586 25.4433 42.5473 25.244 43.4659 25.244C44.5579 25.244 45.4506 25.517 46.1439 26.063C46.8459 26.6003 47.2836 27.3587 47.4569 28.338H45.6239C45.5113 27.844 45.2686 27.4583 44.8959 27.181C44.5319 26.895 44.0466 26.752 43.4399 26.752C42.5993 26.752 41.9406 27.038 41.4639 27.61C40.9873 28.182 40.7489 28.9663 40.7489 29.963C40.7489 30.9597 40.9873 31.744 41.4639 32.316C41.9406 32.8793 42.5993 33.161 43.4399 33.161C44.0466 33.161 44.5319 33.031 44.8959 32.771C45.2686 32.5023 45.5113 32.134 45.6239 31.666H47.4569C47.2836 32.602 46.8459 33.3343 46.1439 33.863C45.4506 34.3917 44.5579 34.656 43.4659 34.656ZM48.9299 34.5V25.4H50.5939V29.183H54.6759V25.4H56.3399V34.5H54.6759V30.535H50.5939V34.5H48.9299ZM62.3726 34.656C61.4626 34.656 60.6653 34.4567 59.9806 34.058C59.3046 33.6593 58.7716 33.109 58.3816 32.407C58.0003 31.6963 57.8096 30.8773 57.8096 29.95C57.8096 29.0227 58.0003 28.208 58.3816 27.506C58.7716 26.7953 59.3046 26.2407 59.9806 25.842C60.6653 25.4433 61.4626 25.244 62.3726 25.244C63.2739 25.244 64.0669 25.4433 64.7516 25.842C65.4363 26.2407 65.9693 26.7953 66.3506 27.506C66.7319 28.208 66.9226 29.0227 66.9226 29.95C66.9226 30.8773 66.7319 31.6963 66.3506 32.407C65.9693 33.109 65.4363 33.6593 64.7516 34.058C64.0669 34.4567 63.2739 34.656 62.3726 34.656ZM62.3726 33.161C63.2393 33.161 63.9283 32.875 64.4396 32.303C64.9596 31.731 65.2196 30.9467 65.2196 29.95C65.2196 28.9533 64.9596 28.169 64.4396 27.597C63.9283 27.025 63.2393 26.739 62.3726 26.739C61.5059 26.739 60.8126 27.025 60.2926 27.597C59.7726 28.169 59.5126 28.9533 59.5126 29.95C59.5126 30.9467 59.7726 31.731 60.2926 32.303C60.8126 32.875 61.5059 33.161 62.3726 33.161ZM68.3918 34.5V25.4H70.0558V34.5H68.3918ZM75.9405 34.656C75.0219 34.656 74.2332 34.461 73.5745 34.071C72.9159 33.6723 72.4089 33.122 72.0535 32.42C71.6982 31.7093 71.5205 30.8903 71.5205 29.963C71.5205 29.0357 71.6982 28.2167 72.0535 27.506C72.4089 26.7953 72.9159 26.2407 73.5745 25.842C74.2332 25.4433 75.0219 25.244 75.9405 25.244C77.0325 25.244 77.9252 25.517 78.6185 26.063C79.3205 26.6003 79.7582 27.3587 79.9315 28.338H78.0985C77.9859 27.844 77.7432 27.4583 77.3705 27.181C77.0065 26.895 76.5212 26.752 75.9145 26.752C75.0739 26.752 74.4152 27.038 73.9385 27.61C73.4619 28.182 73.2235 28.9663 73.2235 29.963C73.2235 30.9597 73.4619 31.744 73.9385 32.316C74.4152 32.8793 75.0739 33.161 75.9145 33.161C76.5212 33.161 77.0065 33.031 77.3705 32.771C77.7432 32.5023 77.9859 32.134 78.0985 31.666H79.9315C79.7582 32.602 79.3205 33.3343 78.6185 33.863C77.9252 34.3917 77.0325 34.656 75.9405 34.656ZM81.4045 34.5V25.4H87.3455V26.739H83.0685V29.235H86.9555V30.535H83.0685V33.161H87.3455V34.5H81.4045Z" fill="#E9E9E9"/>
</g>
<defs>
<linearGradient id="paint0_linear_1353_330" x1="0.982813" y1="13.3443" x2="37.4334" y2="14.9949" gradientUnits="userSpaceOnUse">
<stop stop-color="#F87708"/>
<stop offset="0.591159" stop-color="#FB4A55"/>
<stop offset="0.996" stop-color="#E620AF"/>
</linearGradient>
<clipPath id="clip0_1353_330">
<rect width="109" height="37" rx="2.05446" fill="white"/>
</clipPath>
</defs>
</svg>
