<svg width="109" height="37" viewBox="0 0 109 37" fill="none" xmlns="http://www.w3.org/2000/svg">
<rect width="109" height="37" rx="2.05446" fill="#141414"/>
<g clip-path="url(#clip0_1292_460)">
<path d="M25.5156 -0.359375C30.8945 -0.359375 36.2734 -0.359375 41.8152 -0.359375C41.8593 4.78301 41.9034 9.9254 41.9488 15.2236C42.623 14.9227 42.623 14.9227 42.7011 14.5378C42.7015 14.4262 42.7019 14.3146 42.7022 14.1996C42.7043 14.0715 42.7063 13.9435 42.7084 13.8116C42.7073 13.6708 42.7061 13.53 42.7049 13.3849C42.7063 13.2344 42.7077 13.0838 42.7092 12.9287C42.713 12.4403 42.7122 11.9521 42.7113 11.4637C42.713 11.1626 42.7149 10.8615 42.7172 10.5604C42.7236 9.44273 42.7241 8.32505 42.7254 7.20737C42.7337 4.71034 42.7419 2.21332 42.7504 -0.359375C48.1734 -0.359375 53.5964 -0.359375 59.1836 -0.359375C59.1836 5.04672 59.1836 10.4528 59.1836 16.0227C57.0012 16.0887 57.0012 16.0887 54.7747 16.1559C53.9573 17.1564 53.9573 17.1564 53.5367 18.252C53.397 18.6816 53.1869 19.0319 52.9544 19.419C52.707 19.8294 52.707 19.8294 52.6371 20.2848C53.3948 19.6577 53.3948 19.6577 54.0483 18.9279C54.5074 18.3997 54.9744 18.0568 55.6933 17.9789C55.9772 18.0206 55.9772 18.0206 56.1108 18.1538C56.1108 18.5949 56.1108 18.5949 55.9772 19.0861C55.5668 19.4479 55.0475 19.6659 54.5075 19.752C54.5075 19.9278 54.5075 20.1036 54.5075 20.2848C54.7721 20.2848 55.0366 20.2848 55.3091 20.2848C55.3091 20.3727 55.3091 20.4606 55.3091 20.5511C54.4471 20.5998 54.4471 20.5998 54.1234 20.3847C53.9593 20.1301 53.9063 19.9118 53.8395 19.6188C53.7701 19.6877 53.7007 19.7565 53.6292 19.8274C53.536 19.9152 53.4428 20.0029 53.3468 20.0933C53.2554 20.1814 53.1639 20.2695 53.0697 20.3602C52.7707 20.5511 52.7707 20.5511 52.409 20.5298C52.1027 20.4179 52.1027 20.4179 51.9691 20.1516C51.8947 20.2175 51.8203 20.2834 51.7436 20.3514C51.3784 20.5875 51.1939 20.6184 50.7666 20.5511C50.4385 20.0605 50.346 19.8114 50.3658 19.2193C50.6741 18.8421 51.0323 18.5598 51.4347 18.2869C51.5154 18.2315 51.5962 18.176 51.6794 18.1189C52.1086 17.9732 52.4667 18.0699 52.9043 18.1538C53.0801 17.8738 53.2554 17.5935 53.4303 17.313C53.4802 17.2338 53.5301 17.1545 53.5814 17.0729C53.7979 16.725 53.9763 16.4127 54.1067 16.0227C48.8822 16.0887 48.8822 16.0887 43.5521 16.1559C43.3757 16.5075 43.1993 16.8592 43.0176 17.2214C43.4913 17.0353 43.4913 17.0353 43.9529 16.8219C43.7976 17.2864 43.6893 17.3634 43.2849 17.621C43.1762 17.6574 43.0675 17.6938 42.9555 17.7313C42.5546 17.9161 42.457 18.0673 42.2411 18.4451C41.559 19.5213 40.6682 20.2535 39.4104 20.5511C38.6347 20.6404 37.8439 20.6978 37.1308 20.3347C36.5498 19.8665 36.2442 19.5005 36.1371 18.7531C36.2379 18.0493 36.5478 17.6631 37.064 17.1881C37.7747 16.7043 38.4242 16.5645 39.2768 16.6887C39.7848 16.9557 40.0273 17.1451 40.3456 17.621C40.4507 18.5488 40.4507 18.5488 40.0533 19.0694C39.3438 19.6038 38.8127 19.6878 37.9407 19.6188C37.6406 19.4164 37.6406 19.4164 37.4063 19.2193C37.4904 19.2335 37.5744 19.2478 37.661 19.2624C38.5067 19.3805 39.0472 19.3473 39.8112 18.9529C40.05 18.6553 40.0714 18.46 40.1368 18.0872C40.1031 17.7314 40.1031 17.7314 39.8195 17.4462C39.2615 17.1397 38.8317 17.119 38.2079 17.2214C37.6581 17.3991 37.2569 17.6221 36.8719 18.0539C36.6456 18.6742 36.661 19.2545 36.8719 19.8852C37.6793 20.2599 38.61 20.4711 39.4646 20.1724C40.4879 19.7177 41.221 19.0516 41.6733 18.0206C41.7201 17.8887 41.767 17.7569 41.8152 17.621C41.7078 17.5798 41.6003 17.5386 41.4896 17.4961C41.1472 17.3546 41.1472 17.3546 41.0136 17.2214C40.9819 16.3523 40.9819 16.3523 41.1472 16.0227C35.9888 16.0227 30.8304 16.0227 25.5156 16.0227C25.5156 10.6166 25.5156 5.21055 25.5156 -0.359375Z" fill="#D82D34"/>
<path d="M8.16406 -0.476562C13.587 -0.476562 19.01 -0.476562 24.5973 -0.476562C24.5973 4.92954 24.5973 10.3356 24.5973 15.9056C19.1743 15.9056 13.7514 15.9056 8.16406 15.9056C8.16406 10.4995 8.16406 5.09336 8.16406 -0.476562Z" fill="#D8282F"/>
<path d="M25.5156 -0.359375C30.8945 -0.359375 36.2734 -0.359375 41.8152 -0.359375C41.8262 2.24478 41.8373 4.84894 41.8486 7.53201C41.8535 8.35461 41.8584 9.17721 41.8634 10.0247C41.8658 11.0284 41.8658 11.0284 41.8662 11.4981C41.867 11.8265 41.8689 12.1549 41.8716 12.4833C41.8755 12.9804 41.8761 13.4774 41.8759 13.9746C41.8778 14.1212 41.8797 14.2677 41.8817 14.4187C41.8806 14.6194 41.8806 14.6194 41.8795 14.8242C41.88 14.9406 41.8805 15.057 41.881 15.1769C41.791 15.6053 41.6284 15.7617 41.2808 16.0227C40.9688 16.0883 40.9688 16.0883 40.618 16.0868C40.4849 16.0875 40.3518 16.0883 40.2147 16.089C40.0689 16.0871 39.9231 16.0852 39.7729 16.0832C39.5384 16.0833 39.5384 16.0833 39.2992 16.0834C38.7928 16.083 38.2864 16.079 37.78 16.0748C37.4675 16.074 37.155 16.0734 36.8425 16.0731C35.6832 16.0704 34.524 16.0629 33.3648 16.056C29.4795 16.0396 29.4795 16.0396 25.5156 16.0227C25.5156 10.6166 25.5156 5.21055 25.5156 -0.359375Z" fill="#D8282F"/>
<path d="M54.2579 3.49737C54.3757 3.58596 54.3757 3.58596 54.4959 3.67634C54.6056 3.75635 54.7153 3.83636 54.8283 3.91879C55.1861 4.22835 55.4065 4.52509 55.6565 4.92498C55.7342 5.04688 55.8119 5.16878 55.8919 5.29437C56.6163 6.62229 56.6202 8.10109 56.2327 9.53662C55.6763 11.0279 54.7233 12.0419 53.2934 12.7331C51.9545 13.3246 50.3068 13.3625 48.9289 12.8705C47.4721 12.2282 46.4484 11.3682 45.82 9.88623C45.2697 8.44688 45.2216 7.01417 45.832 5.57844C46.6242 3.98576 47.8452 3.20733 49.4607 2.56922C51.1552 2.25428 52.8173 2.53123 54.2579 3.49737Z" fill="#D82930"/>
<path d="M55.418 2.20438C56.9371 3.47775 57.9348 5.01018 58.1571 7.00032C58.2918 8.95118 57.9525 10.6428 56.6403 12.1623C55.7169 13.1244 54.8088 13.7544 53.581 14.2912C53.4742 14.3396 53.3674 14.388 53.2574 14.4379C51.4046 15.0816 49.3354 14.7364 47.5876 13.9962C45.741 13.0992 44.695 11.6142 43.9615 9.7628C43.4825 7.77712 43.7612 5.81096 44.7966 4.07733C45.8428 2.53151 47.2835 1.44471 49.1053 0.97239C51.2928 0.560682 53.5985 0.858822 55.418 2.20438ZM46.5919 4.33539C45.9802 5.10273 45.4916 6.11531 45.4312 7.09904C45.4214 7.21201 45.4115 7.32498 45.4014 7.44137C45.3289 8.86148 45.7754 10.1694 46.6894 11.2674C47.6989 12.3508 48.9241 13.018 50.4209 13.1242C52.1667 13.159 53.5782 12.7956 54.917 11.6274C55.9058 10.6265 56.4353 9.37906 56.5244 7.97776C56.5057 6.42858 56.0297 5.01179 54.917 3.90253C52.3606 1.84931 48.8818 1.91312 46.5919 4.33539Z" fill="#FDF9F9"/>
<path d="M21.8082 2.44174C22.0637 2.66137 22.3134 2.88464 22.5587 3.11548C22.3741 3.54307 22.168 3.788 21.8072 4.08109C21.7228 4.15046 21.6384 4.21982 21.5514 4.29128C21.487 4.34279 21.4226 4.39429 21.3563 4.44736C21.2638 4.358 21.2638 4.358 21.1694 4.26683C19.6053 2.8216 18.1339 2.61949 16.0787 2.69205C14.7492 2.78711 13.7353 3.49662 12.8391 4.43071C11.9146 5.71072 11.5967 7.00219 11.7368 8.57619C12.0084 9.993 12.5923 11.0379 13.7158 11.9475C13.8993 12.0714 14.0859 12.1908 14.2753 12.3055C14.3631 12.3606 14.451 12.4157 14.5415 12.4725C15.7975 13.1119 17.5347 13.0118 18.8877 12.7456C19.8197 12.4359 20.5922 11.8986 21.2561 11.1817C21.4899 10.9736 21.4899 10.9736 21.7404 10.9652C22.1601 11.1745 22.4748 11.4625 22.8259 11.7727C22.4395 12.9085 21.4472 13.4996 20.4127 14.0202C19.3652 14.5346 18.426 14.7533 17.2647 14.7445C17.1603 14.7437 17.0559 14.743 16.9484 14.7422C14.9693 14.7015 13.1377 14.158 11.7368 12.705C10.2907 11.0887 9.76318 9.24043 9.82515 7.11528C9.93127 5.26808 10.8888 3.70127 12.2112 2.45006C14.9132 0.246204 19.1204 0.258614 21.8082 2.44174Z" fill="#FDF9F9"/>
<path d="M59.3188 26.1356C59.9273 26.5169 60.3221 26.9943 60.6434 27.6277C60.7674 28.5597 60.7766 29.5188 60.2801 30.3425C59.9361 30.7754 59.5384 31.1086 59.0401 31.357C59.1393 31.4229 59.2385 31.4888 59.3407 31.5568C60.1602 32.2995 60.3712 33.3335 60.6016 34.3787C60.6441 34.5632 60.6441 34.5632 60.6875 34.7515C60.8143 35.3056 60.9338 35.8605 61.0442 36.4181C60.6033 36.4181 60.1624 36.4181 59.7082 36.4181C59.6854 36.3259 59.6627 36.2337 59.6393 36.1387C59.5702 35.8609 59.5004 35.5833 59.43 35.3058C59.3448 34.9683 59.2618 34.6307 59.1805 34.2923C59.1366 34.1158 59.0926 33.9392 59.0485 33.7627C59.0087 33.5994 58.9689 33.4361 58.9279 33.2679C58.7641 32.7965 58.5857 32.5127 58.2385 32.1561C57.5573 31.9297 56.8168 31.9446 56.1009 31.8897C56.1009 33.3841 56.1009 34.8785 56.1009 36.4181C55.7041 36.4181 55.3073 36.4181 54.8984 36.4181C54.8984 32.9899 54.8984 29.5616 54.8984 26.0295C56.3074 25.6282 57.958 25.4736 59.3188 26.1356Z" fill="white"/>
<path d="M12.5845 26.1356C13.1929 26.5169 13.5877 26.9943 13.909 27.6277C14.033 28.5597 14.0422 29.5188 13.5458 30.3425C13.2017 30.7754 12.8041 31.1086 12.3058 31.357C12.405 31.4229 12.5042 31.4888 12.6064 31.5568C13.4259 32.2995 13.6368 33.3335 13.8673 34.3787C13.9097 34.5632 13.9097 34.5632 13.9531 34.7515C14.08 35.3056 14.1994 35.8605 14.3098 36.4181C13.8689 36.4181 13.428 36.4181 12.9738 36.4181C12.951 36.3259 12.9283 36.2337 12.9049 36.1387C12.8359 35.8609 12.766 35.5833 12.6956 35.3058C12.6104 34.9683 12.5274 34.6307 12.4462 34.2923C12.4022 34.1158 12.3582 33.9392 12.3141 33.7627C12.2743 33.5994 12.2345 33.4361 12.1936 33.2679C12.0297 32.7965 11.8513 32.5127 11.5041 32.1561C10.8229 31.9297 10.0825 31.9446 9.36649 31.8897C9.36649 33.3841 9.36649 34.8785 9.36649 36.4181C8.96969 36.4181 8.57289 36.4181 8.16406 36.4181C8.16406 32.9899 8.16406 29.5616 8.16406 26.0295C9.57301 25.6282 11.2236 25.4736 12.5845 26.1356Z" fill="white"/>
<path d="M83.6459 26.546C84.4535 27.3511 84.4967 28.1594 84.4979 29.2556C84.4799 30.1298 84.2982 30.6682 83.7153 31.3096C82.555 32.4001 81.548 32.2815 79.9134 32.2815C79.9134 33.644 79.9134 35.0065 79.9134 36.4103C79.5166 36.4103 79.1198 36.4103 78.7109 36.4103C78.7109 32.9381 78.7109 29.4659 78.7109 25.8884C80.467 25.5967 82.1165 25.5404 83.6459 26.546Z" fill="white"/>
<path d="M20.7006 26.546C21.5082 27.3511 21.5514 28.1594 21.5526 29.2556C21.5346 30.1298 21.3529 30.6682 20.77 31.3096C19.6097 32.4001 18.6027 32.2815 16.9681 32.2815C16.9681 33.644 16.9681 35.0065 16.9681 36.4103C16.5713 36.4103 16.1745 36.4103 15.7656 36.4103C15.7656 32.9381 15.7656 29.4659 15.7656 25.8884C17.5217 25.5967 19.1712 25.5404 20.7006 26.546Z" fill="white"/>
<path d="M48.7682 25.9141C49.2973 25.9141 49.8263 25.9141 50.3714 25.9141C50.4694 26.1997 50.5667 26.4855 50.6637 26.7715C50.7179 26.9306 50.7722 27.0898 50.8281 27.2537C51.0112 27.8103 51.1759 28.3719 51.34 28.9342C51.6005 29.8253 51.8731 30.7121 52.1526 31.5974C52.1906 31.7181 52.2286 31.8388 52.2678 31.9632C52.4243 32.4603 52.5809 32.9575 52.7389 33.4541C52.8561 33.8228 52.9721 34.1918 53.0879 34.5609C53.1237 34.6727 53.1596 34.7845 53.1966 34.8997C53.3605 35.4253 53.4926 35.8783 53.4443 36.4359C53.0475 36.4359 52.6507 36.4359 52.2419 36.4359C52.003 35.7335 51.7721 35.029 51.5488 34.3216C51.5028 34.1763 51.4568 34.0311 51.4095 33.8814C51.3066 33.5058 51.3066 33.5058 51.3066 33.1062C50.1603 33.1062 49.014 33.1062 47.833 33.1062C47.7889 33.3699 47.7448 33.6336 47.6994 33.9053C47.6516 34.0943 47.6004 34.2825 47.5449 34.4693C47.5158 34.5677 47.4867 34.6661 47.4567 34.7674C47.4115 34.9176 47.4115 34.9176 47.3654 35.0707C47.3352 35.1729 47.3051 35.275 47.274 35.3803C47.0499 36.1325 47.0499 36.1325 46.8977 36.4359C46.5009 36.4359 46.1041 36.4359 45.6953 36.4359C45.8398 35.5846 46.057 34.7983 46.3407 33.9831C46.6264 33.1477 46.8629 32.3004 47.0981 31.4497C47.4519 30.1725 47.8294 28.9076 48.2338 27.6455C48.4137 27.0689 48.5905 26.4914 48.7682 25.9141Z" fill="white"/>
<path d="M24.4088 25.9141C24.9379 25.9141 25.4669 25.9141 26.0121 25.9141C26.1101 26.1997 26.2073 26.4855 26.3043 26.7715C26.3586 26.9306 26.4128 27.0898 26.4687 27.2537C26.6518 27.8103 26.8165 28.3719 26.9807 28.9342C27.2411 29.8253 27.5137 30.7121 27.7933 31.5974C27.8312 31.7181 27.8692 31.8388 27.9084 31.9632C28.0649 32.4603 28.2215 32.9575 28.3796 33.4541C28.4967 33.8228 28.6127 34.1918 28.7285 34.5609C28.7644 34.6727 28.8003 34.7845 28.8373 34.8997C29.0011 35.4253 29.1332 35.8783 29.0849 36.4359C28.6881 36.4359 28.2913 36.4359 27.8825 36.4359C27.6437 35.7335 27.4127 35.029 27.1894 34.3216C27.1434 34.1763 27.0975 34.0311 27.0501 33.8814C26.9473 33.5058 26.9473 33.5058 26.9473 33.1062C25.801 33.1062 24.6546 33.1062 23.4736 33.1062C23.4295 33.3699 23.3854 33.6336 23.34 33.9053C23.2922 34.0943 23.241 34.2825 23.1855 34.4693C23.1564 34.5677 23.1273 34.6661 23.0973 34.7674C23.0521 34.9176 23.0521 34.9176 23.006 35.0707C22.9758 35.1729 22.9457 35.275 22.9146 35.3803C22.6905 36.1325 22.6905 36.1325 22.5384 36.4359C22.1416 36.4359 21.7448 36.4359 21.3359 36.4359C21.4805 35.5846 21.6976 34.7983 21.9813 33.9831C22.267 33.1477 22.5035 32.3004 22.7388 31.4497C23.0925 30.1725 23.47 28.9076 23.8744 27.6455C24.0544 27.0689 24.2311 26.4914 24.4088 25.9141Z" fill="white"/>
<path d="M69.6246 25.9141C70.0214 25.9141 70.4182 25.9141 70.827 25.9141C70.8278 26.0012 70.8286 26.0884 70.8294 26.1781C70.838 27.09 70.8492 28.0019 70.8621 28.9137C70.8665 29.2534 70.8702 29.5932 70.8733 29.9329C70.8778 30.4229 70.8848 30.9129 70.8922 31.4029C70.8931 31.5533 70.8939 31.7038 70.8948 31.8588C70.9163 33.0247 71.0122 34.2498 71.8958 35.104C72.4688 35.4424 72.982 35.4548 73.6327 35.3704C74.142 35.2226 74.4602 35.0126 74.7396 34.5588C75.0938 33.7993 75.2493 33.0868 75.2633 32.2494C75.266 32.1082 75.2687 31.9669 75.2714 31.8213C75.2736 31.6704 75.2759 31.5194 75.2782 31.3638C75.281 31.2081 75.2837 31.0524 75.2866 30.8919C75.2953 30.3953 75.3032 29.8986 75.3111 29.4019C75.3168 29.0649 75.3227 28.7278 75.3285 28.3908C75.3428 27.5652 75.3564 26.7396 75.3695 25.9141C75.7663 25.9141 76.1631 25.9141 76.5719 25.9141C76.5822 26.8901 76.5892 27.8661 76.594 28.8422C76.596 29.1736 76.5987 29.5051 76.6022 29.8365C76.6071 30.3153 76.6093 30.794 76.6111 31.2728C76.6131 31.419 76.6152 31.5651 76.6173 31.7157C76.6177 33.118 76.4426 34.6772 75.418 35.7278C74.5193 36.5383 73.7161 36.643 72.52 36.6102C71.6428 36.5367 71.1198 36.2379 70.518 35.6118C69.7912 34.6943 69.6067 33.4976 69.6094 32.3553C69.6094 32.2113 69.6094 32.0674 69.6094 31.9191C69.6101 31.7659 69.6108 31.6127 69.6115 31.4549C69.6117 31.2964 69.6119 31.1379 69.6121 30.9746C69.6128 30.4698 69.6145 29.965 69.6162 29.4602C69.6169 29.1173 69.6175 28.7745 69.618 28.4316C69.6195 27.5924 69.6218 26.7532 69.6246 25.9141Z" fill="white"/>
<path d="M89.5297 12.9919C90.4091 13.5225 90.9183 14.2805 91.2113 15.2483C91.4498 16.4308 91.2367 17.6966 90.5986 18.719C90.0663 19.2583 89.5835 19.5348 88.82 19.5598C88.0019 19.5479 87.5934 19.1908 87.033 18.6191C86.2698 17.5498 86.1968 16.5444 86.3233 15.2561C86.5451 14.2313 87.0574 13.5737 87.9265 12.9919C88.4947 12.8031 88.9544 12.8277 89.5297 12.9919Z" fill="#141414"/>
<path d="M32.7109 0.867188C33.2841 0.867188 33.8573 0.867188 34.4478 0.867188C34.4478 5.48215 34.4478 10.0971 34.4478 14.8519C33.8746 14.8519 33.3015 14.8519 32.7109 14.8519C32.7109 10.237 32.7109 5.622 32.7109 0.867188Z" fill="#FEFEFE"/>
<path d="M90.8199 26.1763C90.7317 26.5719 90.6435 26.9675 90.5527 27.375C90.4039 27.3091 90.2551 27.2432 90.1018 27.1752C89.3236 26.8859 88.5289 26.8138 87.7554 27.1419C87.2899 27.5357 87.0983 27.7351 87.0289 28.3573C87.0867 28.9142 87.1658 29.1728 87.4798 29.6392C87.8944 29.9249 88.339 30.1422 88.7908 30.3634C89.8227 30.8707 90.6012 31.3502 91.1372 32.3945C91.3415 33.4738 91.37 34.4312 90.7604 35.3788C90.1395 36.1378 89.3515 36.5106 88.3754 36.6097C87.3356 36.6215 86.5377 36.5099 85.6094 36.0322C85.6535 35.6367 85.6976 35.2411 85.743 34.8336C85.9602 34.8971 86.1773 34.961 86.3943 35.025C86.5152 35.0605 86.6361 35.0961 86.7607 35.1327C87.079 35.2331 87.079 35.2331 87.3462 35.3663C88.1009 35.4446 88.7117 35.4109 89.3503 34.9667C89.8084 34.45 89.9747 34.0385 89.9358 33.3622C89.8184 32.7649 89.4797 32.4062 89.0163 32.0366C88.7426 31.8672 88.4665 31.7324 88.1734 31.5975C87.0919 31.0968 86.2031 30.5165 85.743 29.3728C85.6165 28.4558 85.664 27.6248 86.1819 26.8397C87.378 25.4625 89.2496 25.415 90.8199 26.1763Z" fill="white"/>
<path d="M38.359 26.1763C38.2708 26.5719 38.1826 26.9675 38.0918 27.375C37.943 27.3091 37.7942 27.2432 37.6408 27.1752C36.8627 26.8859 36.068 26.8138 35.2944 27.1419C34.829 27.5357 34.6373 27.7351 34.568 28.3573C34.6258 28.9142 34.7048 29.1728 35.0189 29.6392C35.4335 29.9249 35.878 30.1422 36.3299 30.3634C37.3618 30.8707 38.1403 31.3502 38.6763 32.3945C38.8805 33.4738 38.909 34.4312 38.2995 35.3788C37.6785 36.1378 36.8905 36.5106 35.9144 36.6097C34.8746 36.6215 34.0768 36.5099 33.1484 36.0322C33.1925 35.6367 33.2366 35.2411 33.282 34.8336C33.4992 34.8971 33.7163 34.961 33.9334 35.025C34.0543 35.0606 34.1752 35.0961 34.2997 35.1327C34.6181 35.2331 34.6181 35.2331 34.8853 35.3663C35.64 35.4446 36.2507 35.4109 36.8893 34.9667C37.3474 34.45 37.5137 34.0385 37.4749 33.3622C37.3574 32.7649 37.0187 32.4062 36.5553 32.0366C36.2816 31.8672 36.0055 31.7324 35.7125 31.5975C34.631 31.0968 33.7422 30.5165 33.282 29.3728C33.1556 28.4558 33.2031 27.6248 33.7209 26.8397C34.9171 25.4625 36.7887 25.415 38.359 26.1763Z" fill="white"/>
<path d="M70.4186 13.2551C71.1322 13.5397 71.4548 14.0361 71.7656 14.7139C72.098 15.8137 72.0602 17.0528 71.5161 18.0759C71.219 18.5159 70.897 18.8769 70.4186 19.1154C68.9025 19.2738 68.9025 19.2738 68.3477 18.849C67.6478 18.0117 67.3902 17.2697 67.4125 16.1852C67.4104 16.0846 67.4084 15.984 67.4062 15.8804C67.4128 14.9257 67.74 14.2485 68.3477 13.5215C68.9485 13.0708 69.7099 13.155 70.4186 13.2551Z" fill="#141414"/>
<path d="M61.5625 25.9141C63.8551 25.9141 66.1478 25.9141 68.5099 25.9141C68.5099 26.3096 68.5099 26.7052 68.5099 27.1128C67.584 27.1128 66.6581 27.1128 65.7042 27.1128C65.7042 30.1894 65.7042 33.266 65.7042 36.4359C65.2633 36.4359 64.8224 36.4359 64.3682 36.4359C64.3682 33.3593 64.3682 30.2826 64.3682 27.1128C63.4423 27.1128 62.5164 27.1128 61.5625 27.1128C61.5625 26.7172 61.5625 26.3216 61.5625 25.9141Z" fill="white"/>
<path d="M39.3906 25.9141C41.6833 25.9141 43.9759 25.9141 46.338 25.9141C46.338 26.3096 46.338 26.7052 46.338 27.1128C45.4121 27.1128 44.4863 27.1128 43.5323 27.1128C43.5323 30.1894 43.5323 33.266 43.5323 36.4359C43.0914 36.4359 42.6505 36.4359 42.1963 36.4359C42.1963 33.3593 42.1963 30.2826 42.1963 27.1128C41.2704 27.1128 40.3446 27.1128 39.3906 27.1128C39.3906 26.7172 39.3906 26.3216 39.3906 25.9141Z" fill="white"/>
<path d="M99.7683 12.9688C99.9446 12.9688 100.121 12.9688 100.303 12.9688C100.303 13.1885 100.303 13.4083 100.303 13.6347C101.096 13.6347 101.89 13.6347 102.708 13.6347C102.708 13.9863 102.708 14.3379 102.708 14.7002C101.914 14.7002 101.12 14.7002 100.303 14.7002C100.303 15.8869 100.303 17.0736 100.303 18.2963C99.9126 18.1019 99.6066 17.9277 99.2605 17.6766C99.1638 17.6069 99.0672 17.5371 98.9676 17.4653C98.7577 17.3121 98.548 17.1587 98.3384 17.0051C97.8189 16.6251 97.2989 16.252 96.7596 15.9004C96.6669 15.8382 96.5742 15.776 96.4787 15.7118C96.3046 15.5952 96.1284 15.4817 95.95 15.3719C95.7132 15.2101 95.7132 15.2101 95.3594 14.8334C95.3594 14.4378 95.3594 14.0422 95.3594 13.6347C96.8143 13.6347 98.2693 13.6347 99.7683 13.6347C99.7683 13.4149 99.7683 13.1952 99.7683 12.9688Z" fill="white"/>
<path d="M101.505 25.0575C102.102 25.4271 102.564 25.9516 102.878 26.5777C102.945 27.3034 102.98 27.9571 102.669 28.6255C101.765 29.5958 100.845 30.2209 99.4785 30.334C98.0675 30.3586 96.8819 30.0422 95.7971 29.1083C95.3595 28.6285 95.2269 28.1599 95.1875 27.5183C95.2225 26.7989 95.4403 26.3059 95.9307 25.7786C97.4591 24.5182 99.673 24.2752 101.505 25.0575ZM95.9056 26.6859C95.6285 27.098 95.6285 27.098 95.6384 27.5849C95.8326 28.1452 96.0994 28.4146 96.5987 28.7087C97.4145 29.073 98.0886 29.177 98.9785 29.1665C99.0958 29.1657 99.2131 29.1649 99.3339 29.1641C100.363 29.1394 101.296 29.0003 102.109 28.3273C102.444 27.9213 102.437 27.645 102.411 27.1349C102.321 26.7443 102.124 26.5328 101.794 26.3091C100.894 25.8415 100.016 25.7082 99.0119 25.7203C98.8362 25.7218 98.8362 25.7218 98.657 25.7234C97.5901 25.7505 96.6845 25.9073 95.9056 26.6859Z" fill="white"/>
<path d="M73.6953 12.9688C76.6123 12.9688 76.6123 12.9688 77.3527 13.668C77.6334 14.1415 77.6378 14.424 77.5698 14.9666C77.3459 15.4577 77.0925 15.7468 76.6346 16.0321C76.2338 16.1653 76.2338 16.1653 74.6305 16.1653C74.6305 17.2201 74.6305 18.275 74.6305 19.3618C74.3219 19.3618 74.0133 19.3618 73.6953 19.3618C73.6953 17.2521 73.6953 15.1424 73.6953 12.9688Z" fill="white"/>
<path d="M79.898 26.9782C80.15 26.97 80.402 26.9618 80.654 26.9538C80.8469 26.9473 81.0399 26.9392 81.2328 26.9302C81.9167 26.9195 82.2951 27.0633 82.8373 27.511C83.3138 28.176 83.3335 28.8528 83.2381 29.642C82.9795 30.3378 82.6356 30.8121 81.9605 31.1404C81.3193 31.2798 80.6857 31.288 80.0316 31.2402C79.898 31.1071 79.898 31.1071 79.8828 30.7129C79.8835 30.5407 79.8842 30.3684 79.8849 30.1909C79.8851 30.0994 79.8853 30.008 79.8855 29.9137C79.8863 29.6206 79.8879 29.3275 79.8896 29.0343C79.8903 28.836 79.8909 28.6377 79.8915 28.4394C79.8929 27.9523 79.8952 27.4653 79.898 26.9782Z" fill="#141414"/>
<path d="M16.9761 26.9782C17.2281 26.97 17.4801 26.9618 17.7321 26.9538C17.9251 26.9473 18.118 26.9392 18.3109 26.9302C18.9949 26.9195 19.3732 27.0633 19.9154 27.511C20.3919 28.176 20.4116 28.8528 20.3162 29.642C20.0577 30.3378 19.7137 30.8121 19.0386 31.1404C18.3974 31.2798 17.7638 31.288 17.1097 31.2402C16.9761 31.1071 16.9761 31.1071 16.9609 30.7129C16.9616 30.5407 16.9623 30.3684 16.9631 30.1909C16.9632 30.0994 16.9634 30.008 16.9636 29.9137C16.9644 29.6206 16.9661 29.3275 16.9678 29.0343C16.9684 28.836 16.969 28.6377 16.9696 28.4394C16.9711 27.9523 16.9734 27.4653 16.9761 26.9782Z" fill="#141414"/>
<path d="M45.1198 14.4495C44.8404 14.728 44.5626 15.0025 44.2681 15.2653C43.7308 15.8519 43.338 16.5369 42.9821 17.2464C43.4558 17.0603 43.4558 17.0603 43.9174 16.8469C43.762 17.3114 43.6538 17.3884 43.2493 17.646C43.1407 17.6824 43.032 17.7188 42.92 17.7563C42.519 17.9411 42.4214 18.0923 42.2056 18.4701C41.5234 19.5463 40.6327 20.2785 39.3748 20.5761C38.5992 20.6654 37.8084 20.7228 37.0952 20.3597C36.5143 19.8915 36.2087 19.5255 36.1016 18.7781C36.2024 18.0743 36.5123 17.6881 37.0284 17.2131C37.7392 16.7293 38.3887 16.5895 39.2412 16.7137C39.7493 16.9807 39.9918 17.1701 40.3101 17.646C40.4151 18.5738 40.4151 18.5738 40.0178 19.0944C39.3083 19.6288 38.7771 19.7128 37.9052 19.6438C37.6051 19.4414 37.6051 19.4414 37.3708 19.2442C37.4548 19.2585 37.5389 19.2727 37.6255 19.2874C38.4712 19.4055 39.0117 19.3723 39.7757 18.9779C40.0144 18.6803 40.0359 18.485 40.1013 18.1121C40.0676 17.7564 40.0676 17.7564 39.784 17.4712C39.226 17.1647 38.7962 17.144 38.1724 17.2464C37.6226 17.4241 37.2214 17.647 36.8364 18.0789C36.6101 18.6992 36.6255 19.2795 36.8364 19.9102C37.6438 20.2849 38.5745 20.4961 39.4291 20.1974C40.4523 19.7427 41.1855 19.0766 41.6377 18.0456C41.6846 17.9137 41.7314 17.7818 41.7797 17.646C41.6722 17.6048 41.5648 17.5636 41.454 17.5211C41.1117 17.3796 41.1117 17.3796 40.9781 17.2464C40.9266 16.5791 40.9397 16.1656 41.3789 15.6482C42.5357 14.7098 43.6418 14.3664 45.1198 14.4495Z" fill="white"/>
<path d="M69.6404 12.8884C69.7403 12.8895 69.8401 12.8906 69.943 12.8918C70.7989 12.9267 71.3973 13.1344 71.9952 13.7708C72.788 14.7722 72.9056 15.7092 72.7968 16.9673C72.5735 17.9274 72.1577 18.5645 71.3272 19.0983C70.5127 19.5759 69.7099 19.6044 68.7887 19.4978C67.8941 19.2575 67.3012 18.6434 66.7847 17.8996C66.357 17.1467 66.2646 16.3541 66.3839 15.5022C66.702 14.4434 67.2728 13.6243 68.2561 13.0835C68.7127 12.891 69.1499 12.8809 69.6404 12.8884ZM67.9871 13.9039C67.5086 14.6516 67.3678 15.2894 67.3859 16.1681C67.3838 16.2687 67.3817 16.3694 67.3796 16.473C67.3862 17.4277 67.7134 18.1049 68.3211 18.8319C68.8301 19.2138 69.3978 19.1825 70.012 19.1529C70.5421 19.0767 70.814 18.9439 71.1936 18.5655C71.8829 17.4602 71.975 16.3794 71.8616 15.1026C71.6579 14.4148 71.3514 13.932 70.8512 13.4211C69.793 12.9991 68.7378 13.0059 67.9871 13.9039Z" fill="white"/>
<path d="M89.5297 12.9919C90.4091 13.5225 90.9183 14.2805 91.2113 15.2483C91.4498 16.4308 91.2367 17.6966 90.5986 18.719C90.0663 19.2583 89.5835 19.5348 88.82 19.5598C88.0019 19.5479 87.5934 19.1908 87.033 18.6191C86.2698 17.5498 86.1968 16.5444 86.3233 15.2561C86.5451 14.2313 87.0574 13.5737 87.9265 12.9919C88.4947 12.8031 88.9544 12.8277 89.5297 12.9919ZM88.0935 13.4415C87.687 13.9142 87.5477 14.3944 87.3921 14.9898C87.3675 15.0748 87.3428 15.1597 87.3175 15.2473C87.0716 16.3949 87.2411 17.5537 87.7929 18.5858C88.1712 19.0296 88.1712 19.0296 88.7198 19.1852C89.2586 19.0975 89.4324 18.9971 89.7969 18.5858C90.5126 17.2217 90.5045 15.8196 90.0516 14.3712C89.8904 13.9534 89.7436 13.6801 89.3961 13.3915C88.8621 13.227 88.5972 13.1904 88.0935 13.4415Z" fill="white"/>
<path d="M57.0097 26.8122C57.8854 26.8205 58.4386 26.9352 59.1139 27.5198C59.5464 28.0339 59.5087 28.4896 59.5027 29.1409C59.4364 29.782 59.1255 30.1373 58.6547 30.5498C58.1169 30.8784 57.6512 30.8551 57.0347 30.8495C56.8647 30.8483 56.6947 30.8471 56.5196 30.8458C56.3241 30.8435 56.3241 30.8435 56.1245 30.8412C56.1212 30.2935 56.1188 29.7459 56.1172 29.1983C56.1165 29.0118 56.1156 28.8254 56.1145 28.639C56.1128 28.3715 56.1122 28.1041 56.1115 27.8366C56.1108 27.6755 56.1101 27.5144 56.1094 27.3484C56.1359 26.7009 56.4277 26.8209 57.0097 26.8122Z" fill="#141414"/>
<path d="M10.244 26.8122C11.1198 26.8205 11.673 26.9352 12.3483 27.5198C12.7808 28.0339 12.7431 28.4896 12.7371 29.1409C12.6708 29.782 12.3599 30.1373 11.889 30.5498C11.3513 30.8784 10.8855 30.8551 10.2691 30.8495C10.0991 30.8483 9.92912 30.8471 9.75399 30.8458C9.55843 30.8435 9.55843 30.8435 9.35892 30.8412C9.35562 30.2935 9.35319 29.7459 9.35158 29.1983C9.35091 29.0118 9.34999 28.8254 9.34884 28.639C9.34722 28.3715 9.34653 28.1041 9.34587 27.8366C9.34517 27.6755 9.34447 27.5144 9.34375 27.3484C9.37032 26.7009 9.66211 26.8209 10.244 26.8122Z" fill="#141414"/>
<path d="M97.9226 31.2129C99.2129 31.7239 100.341 32.7265 101.432 33.5662C101.686 33.7605 101.942 33.9516 102.198 34.143C102.242 33.1761 102.286 32.2091 102.332 31.2129C102.464 31.2129 102.596 31.2129 102.732 31.2129C102.732 32.6633 102.732 34.1137 102.732 35.6081C101.383 34.7111 101.383 34.7111 100.895 34.3464C100.789 34.2679 100.683 34.1894 100.574 34.1084C100.359 33.9479 100.144 33.7873 99.929 33.6267C98.3617 32.4081 98.3617 32.4081 96.453 32.1452C96.137 32.3939 95.964 32.5875 95.785 32.9443C95.735 33.6051 95.7531 34.0249 96.1858 34.5426C96.5955 34.7858 96.5955 34.7858 96.9874 34.9422C96.9874 35.118 96.9874 35.2938 96.9874 35.4749C96.3964 35.4076 96.0815 35.2152 95.6514 34.809C95.1057 34.0579 95.1478 33.3067 95.2506 32.4116C95.7014 31.1879 96.7634 31.0277 97.9226 31.2129Z" fill="white"/>
<path d="M97.9226 19.373C99.2129 19.8841 100.341 20.8867 101.432 21.7263C101.686 21.9207 101.942 22.1118 102.198 22.3032C102.242 21.3362 102.286 20.3693 102.332 19.373C102.464 19.373 102.596 19.373 102.732 19.373C102.732 20.8235 102.732 22.2739 102.732 23.7682C101.383 22.8713 101.383 22.8713 100.895 22.5066C100.789 22.4281 100.683 22.3495 100.574 22.2686C100.359 22.1081 100.144 21.9475 99.929 21.7868C98.3617 20.5683 98.3617 20.5683 96.453 20.3054C96.137 20.554 95.964 20.7476 95.785 21.1045C95.735 21.7653 95.7531 22.1851 96.1858 22.7027C96.5955 22.946 96.5955 22.946 96.9874 23.1023C96.9874 23.2781 96.9874 23.4539 96.9874 23.6351C96.3964 23.5677 96.0815 23.3753 95.6514 22.9691C95.1057 22.218 95.1478 21.4669 95.2506 20.5717C95.7014 19.348 96.7634 19.1878 97.9226 19.373Z" fill="white"/>
<path d="M54.6763 15.2383C54.8526 15.2383 55.029 15.2383 55.2107 15.2383C55.0392 15.8022 54.8243 16.2807 54.5223 16.7866C54.4406 16.9246 54.3589 17.0627 54.2747 17.2049C54.1895 17.347 54.1044 17.4892 54.0166 17.6357C53.8482 17.9186 53.6799 18.2016 53.5119 18.4847C53.4001 18.6717 53.4001 18.6717 53.286 18.8625C52.8513 19.5416 52.8513 19.5416 52.6722 20.2994C53.4299 19.6724 53.4299 19.6724 54.0834 18.9426C54.5426 18.4144 55.0096 18.0715 55.7284 17.9936C56.0123 18.0352 56.0123 18.0352 56.1459 18.1684C56.1459 18.6096 56.1459 18.6096 56.0123 19.1007C55.602 19.4625 55.0827 19.6805 54.5427 19.7667C54.5427 19.9425 54.5427 20.1183 54.5427 20.2994C54.8072 20.2994 55.0717 20.2994 55.3443 20.2994C55.3443 20.3873 55.3443 20.4752 55.3443 20.5658C54.4823 20.6144 54.4823 20.6144 54.1586 20.3993C53.9944 20.1447 53.9415 19.9265 53.8747 19.6335C53.8053 19.7023 53.7358 19.7712 53.6643 19.8421C53.5712 19.9298 53.478 20.0176 53.382 20.108C53.2905 20.196 53.1991 20.2841 53.1049 20.3749C52.8058 20.5658 52.8058 20.5658 52.4442 20.5445C52.1378 20.4326 52.1378 20.4326 52.0042 20.1662C51.9298 20.2322 51.8554 20.2981 51.7788 20.366C51.4135 20.6022 51.2291 20.6331 50.8018 20.5658C50.4737 20.0752 50.3812 19.8261 50.401 19.2339C50.7093 18.8568 51.0675 18.5745 51.4698 18.3016C51.5506 18.2461 51.6313 18.1907 51.7146 18.1336C52.1437 17.9879 52.5018 18.0845 52.9394 18.1684C52.9826 18.0939 53.0257 18.0193 53.0701 17.9425C53.2658 17.6043 53.4617 17.2662 53.6576 16.9281C53.7254 16.8108 53.7933 16.6934 53.8632 16.5725C53.9286 16.4596 53.9941 16.3467 54.0615 16.2304C54.1217 16.1265 54.1818 16.0226 54.2438 15.9155C54.3808 15.6854 54.5274 15.4609 54.6763 15.2383Z" fill="white"/>
<path d="M49.4524 27.3711C49.7196 27.5043 49.7196 27.5043 49.8731 27.9517C49.9287 28.1463 49.9833 28.3413 50.0369 28.5365C50.0954 28.7431 50.1541 28.9496 50.2128 29.1561C50.2419 29.2593 50.2711 29.3625 50.3011 29.4687C50.464 30.0328 50.6472 30.5904 50.8286 31.1487C50.9221 31.4999 50.9221 31.4999 50.9221 32.0327C50.0403 32.0327 49.1585 32.0327 48.25 32.0327C48.4453 30.709 48.8351 29.4593 49.2343 28.1856C49.3153 27.9156 49.3862 27.645 49.4524 27.3711Z" fill="#141414"/>
<path d="M25.1321 27.3711C25.3993 27.5043 25.3993 27.5043 25.5528 27.9517C25.6084 28.1463 25.663 28.3413 25.7166 28.5365C25.7751 28.7431 25.8338 28.9496 25.8925 29.1561C25.9216 29.2593 25.9508 29.3625 25.9808 29.4687C26.1437 30.0328 26.3269 30.5904 26.5083 31.1487C26.6018 31.4999 26.6018 31.4999 26.6018 32.0327C25.72 32.0327 24.8382 32.0327 23.9297 32.0327C24.1249 30.709 24.5147 29.4593 24.914 28.1856C24.995 27.9156 25.0659 27.645 25.1321 27.3711Z" fill="#141414"/>
<path d="M84.1822 12.9688C84.1822 15.0784 84.1822 17.1881 84.1822 19.3618C83.8735 19.3618 83.5649 19.3618 83.2469 19.3618C83.2469 17.4279 83.2469 15.494 83.2469 13.5015C82.9824 13.5015 82.7179 13.5015 82.4453 13.5015C82.4453 13.4136 82.4453 13.3257 82.4453 13.2351C83.0749 13.0649 83.5198 12.9688 84.1822 12.9688Z" fill="white"/>
<path d="M96.0938 14.7266C97.3723 14.7266 98.6509 14.7266 99.9682 14.7266C99.9682 15.6496 99.9682 16.5725 99.9682 17.5235C99.3764 17.2875 98.9679 17.0295 98.4819 16.6411C98.3295 16.5215 98.1769 16.402 98.0242 16.2827C97.9096 16.193 97.9096 16.193 97.7927 16.1016C97.3231 15.7405 96.8379 15.4009 96.3542 15.059C96.2682 14.9933 96.1823 14.9275 96.0938 14.8598C96.0938 14.8158 96.0938 14.7718 96.0938 14.7266Z" fill="#141414"/>
<path d="M62.6328 12.9688C63.6909 12.9688 64.7491 12.9688 65.8393 12.9688C65.8393 13.0567 65.8393 13.1446 65.8393 13.2351C65.4425 13.2351 65.0457 13.2351 64.6369 13.2351C64.6369 15.2569 64.6369 17.2787 64.6369 19.3618C64.3723 19.3618 64.1078 19.3618 63.8352 19.3618C63.8352 17.34 63.8352 15.3182 63.8352 13.2351C63.4384 13.2351 63.0416 13.2351 62.6328 13.2351C62.6328 13.1472 62.6328 13.0593 62.6328 12.9688Z" fill="white"/>
<path d="M70.5406 13.125C71.2412 13.1749 71.6776 13.4121 72.1439 13.9241C72.831 14.8962 72.9125 15.8242 72.8119 16.9875C72.5895 17.9437 72.169 18.5835 71.3423 19.1185C70.8571 19.393 70.8571 19.393 70.5072 19.3349C70.4301 19.3074 70.3529 19.2799 70.2734 19.2516C70.8079 18.7189 70.8079 18.7189 71.0834 18.4858C71.8101 17.6445 71.8208 16.6847 71.7994 15.6171C71.7196 14.9171 71.5031 14.3524 71.0751 13.7909C70.8974 13.6571 70.7193 13.5238 70.5406 13.3914C70.5406 13.3035 70.5406 13.2156 70.5406 13.125Z" fill="white"/>
<path d="M74.6719 13.2422C76.0079 13.2422 76.0079 13.2422 76.4171 13.4919C76.754 13.8603 76.8047 13.9777 76.8429 14.4825C76.8075 15.0038 76.7249 15.2309 76.4087 15.6396C76.0079 15.9059 76.0079 15.9059 74.6719 15.9059C74.6719 15.0269 74.6719 14.1479 74.6719 13.2422Z" fill="#141414"/>
<path d="M43.9673 18.0312C44.2178 18.0645 44.2178 18.0645 44.5017 18.1644C44.6687 18.4391 44.6687 18.4391 44.7689 18.6972C44.9508 18.5282 44.9508 18.5282 45.1363 18.3559C45.5264 18.0278 45.5264 18.0278 45.8878 18.0562C45.9595 18.0919 46.0311 18.1276 46.1049 18.1644C46.1734 18.7246 46.1046 19.0143 45.7709 19.4547C45.6779 19.5667 45.6779 19.5667 45.583 19.681C45.3994 19.9077 45.3994 19.9077 45.4369 20.2954C45.5063 20.2343 45.5757 20.1732 45.6472 20.1102C46.1473 19.6716 46.6487 19.2393 47.1737 18.8304C46.8803 19.4945 46.3991 19.9757 45.8377 20.4286C45.3701 20.5618 45.3701 20.5618 45.0361 20.5618C44.8824 20.0475 44.8207 19.788 45.0721 19.3007C45.274 19.0028 45.4819 18.714 45.7041 18.4308C44.9976 18.8532 44.5462 19.3625 44.0609 20.0197C43.6448 20.5518 43.6448 20.5518 43.1912 20.6097C43.0946 20.5939 42.998 20.5781 42.8984 20.5618C43.3193 19.7905 43.7595 19.0371 44.2345 18.2976C44.014 18.3855 43.7936 18.4734 43.5665 18.564C43.6987 18.3882 43.831 18.2124 43.9673 18.0312Z" fill="white"/>
<path d="M73.6953 12.9688C76.6123 12.9688 76.6123 12.9688 77.3527 13.668C77.6334 14.1415 77.6378 14.424 77.5698 14.9666C77.3473 15.4546 77.0988 15.7599 76.6346 16.0321C76.2672 16.1236 76.2672 16.1236 75.9666 16.1653C75.9666 16.0334 75.9666 15.9015 75.9666 15.7657C76.1426 15.6298 76.3209 15.4967 76.501 15.3661C76.6616 14.8859 76.6782 14.539 76.6346 14.0343C76.381 13.6626 76.381 13.6626 76.1002 13.3683C76.1002 13.2804 76.1002 13.1925 76.1002 13.1019C75.3507 13.1019 74.6011 13.1019 73.8289 13.1019C73.8289 15.1677 73.8289 17.2334 73.8289 19.3618C73.7848 19.3618 73.7407 19.3618 73.6953 19.3618C73.6953 17.2521 73.6953 15.1424 73.6953 12.9688Z" fill="white"/>
<path d="M47.829 17.7695C47.9613 17.7695 48.0935 17.7695 48.2298 17.7695C48.2298 17.9014 48.2298 18.0332 48.2298 18.1691C48.0976 18.235 48.0976 18.235 47.9626 18.3023C48.0274 18.9211 48.0274 18.9211 48.2298 19.501C48.3185 19.3952 48.4072 19.2895 48.4986 19.1805C48.6177 19.0431 48.7368 18.9057 48.8561 18.7684C48.9142 18.6986 48.9723 18.6287 49.0322 18.5567C49.3301 18.2179 49.4866 18.0455 49.9442 17.9901C50.0398 18.0052 50.1354 18.0203 50.2339 18.0359C50.0441 18.5577 49.7949 18.9953 49.4907 19.4594C49.1754 19.9355 49.1754 19.9355 48.8978 20.4333C49.1183 20.3893 49.3387 20.3454 49.5659 20.3001C49.5218 20.388 49.4777 20.4759 49.4322 20.5665C49.2097 20.5722 48.9868 20.5719 48.7642 20.5665C48.6306 20.4333 48.6306 20.4333 48.6223 19.9588C48.625 19.8077 48.6278 19.6566 48.6306 19.501C48.5314 19.6026 48.4322 19.7043 48.33 19.809C47.5592 20.56 47.5592 20.56 46.9272 20.5915C46.7839 20.5832 46.6406 20.575 46.493 20.5665C46.4489 20.3907 46.4048 20.2149 46.3594 20.0337C46.4916 19.9898 46.6239 19.9458 46.7602 19.9005C46.7602 20.0763 46.7602 20.2522 46.7602 20.4333C47.1253 20.144 47.392 19.9194 47.5023 19.4562C47.5333 19.1596 47.5546 18.8667 47.5618 18.5687C47.4295 18.6566 47.2973 18.7445 47.161 18.835C47.344 18.4421 47.5386 18.0938 47.829 17.7695Z" fill="white"/>
<path d="M57.4814 18.0312C57.7653 18.0812 57.7653 18.0812 58.0158 18.1644C58.0158 18.4721 58.0158 18.7798 58.0158 19.0968C58.2803 18.7451 58.5449 18.3935 58.8174 18.0312C58.9938 18.0752 59.1701 18.1192 59.3518 18.1644C59.2182 18.564 59.2182 18.564 58.8842 18.8221C58.5428 19.1029 58.4624 19.2032 58.4166 19.6295C58.6812 19.5416 58.9457 19.4537 59.2182 19.3631C59.2182 19.451 59.2182 19.5389 59.2182 19.6295C58.8174 19.8959 58.8174 19.8959 58.4667 19.8626C58.3097 19.8131 58.3097 19.8131 58.1494 19.7627C58.1053 19.6748 58.0612 19.5869 58.0158 19.4963C57.9262 19.6117 57.9262 19.6117 57.8347 19.7294C57.7539 19.8283 57.6732 19.9272 57.59 20.0291C57.5109 20.128 57.4319 20.2269 57.3504 20.3287C57.0806 20.5618 57.0806 20.5618 56.7147 20.5951C56.615 20.5841 56.5153 20.5731 56.4126 20.5618C56.8334 19.7905 57.2736 19.0371 57.7486 18.2976C57.6604 18.2976 57.5723 18.2976 57.4814 18.2976C57.4542 18.3697 57.427 18.4418 57.3989 18.5161C57.1403 18.9561 56.775 19.2621 56.3959 19.5962C56.3206 19.6637 56.2454 19.7312 56.1678 19.8007C55.9828 19.9663 55.797 20.131 55.611 20.2954C55.5228 20.2515 55.4346 20.2075 55.3438 20.1623C56.0563 19.4519 56.7689 18.7416 57.4814 18.0312Z" fill="white"/>
<path d="M44.3312 14.8416C44.268 14.8888 44.2048 14.936 44.1397 14.9847C43.2516 15.6974 42.6746 16.5622 42.06 17.5054C41.5423 17.2556 41.5423 17.2556 41.392 17.1058C41.3245 16.702 41.3222 16.4219 41.5381 16.0653C42.0765 15.4029 42.6613 14.9825 43.4879 14.7334C43.8071 14.7076 44.0254 14.7575 44.3312 14.8416Z" fill="#141414"/>
<path d="M52.6665 18.3102C52.6269 19.1007 52.2668 19.618 51.7313 20.1748C51.3472 20.3746 51.3472 20.3746 51.0633 20.4412C50.9547 20.1748 50.9547 20.1748 50.9297 19.7753C51.3059 18.9753 51.714 18.2332 52.6665 18.3102Z" fill="#141414"/>
<path d="M47.829 17.7695C47.9613 17.7695 48.0935 17.7695 48.2298 17.7695C48.2298 17.9014 48.2298 18.0332 48.2298 18.1691C48.0976 18.235 48.0976 18.235 47.9626 18.3023C47.9887 18.4805 47.9887 18.4805 48.0153 18.6623C48.0338 18.8182 48.0522 18.9741 48.0712 19.1347C48.0913 19.2892 48.1115 19.4437 48.1322 19.6029C48.0962 20.0337 48.0962 20.0337 47.7956 20.3542C47.3356 20.62 47.0161 20.6074 46.493 20.5665C46.4489 20.3907 46.4048 20.2149 46.3594 20.0337C46.4916 19.9898 46.6239 19.9458 46.7602 19.9005C46.7602 20.0763 46.7602 20.2522 46.7602 20.4333C47.1253 20.144 47.392 19.9194 47.5023 19.4562C47.5333 19.1596 47.5546 18.8667 47.5618 18.5687C47.4295 18.6566 47.2973 18.7445 47.161 18.835C47.344 18.4421 47.5386 18.0938 47.829 17.7695Z" fill="white"/>
<path d="M47.5618 18.4492C47.6059 18.4492 47.65 18.4492 47.6954 18.4492C47.7373 19.1447 47.6794 19.5916 47.2946 20.1807C47.0023 20.3638 47.0023 20.3638 46.7602 20.447C46.7602 20.2712 46.7602 20.0954 46.7602 19.9143C46.6279 19.9582 46.4957 20.0022 46.3594 20.0475C46.5518 19.6196 46.7909 19.2989 47.1025 18.9487C47.1854 18.8546 47.2682 18.7605 47.3536 18.6636C47.4223 18.5928 47.491 18.5221 47.5618 18.4492Z" fill="#141414"/>
<path d="M39.5517 16.9922C39.9741 17.1746 40.0852 17.2571 40.3533 17.6581C40.4584 18.586 40.4584 18.586 40.0611 19.1065C39.3516 19.641 38.8204 19.7249 37.9485 19.6559C37.6484 19.4536 37.6484 19.4536 37.4141 19.2564C37.4981 19.2706 37.5822 19.2849 37.6687 19.2996C38.5145 19.4177 39.0549 19.3844 39.8189 18.99C40.0555 18.6952 40.0782 18.5011 40.1446 18.1326C40.0606 17.6421 39.7846 17.4451 39.4181 17.1254C39.4622 17.0814 39.5063 17.0375 39.5517 16.9922Z" fill="white"/>
<path d="M58.7641 18.0312C58.9405 18.0752 59.1169 18.1192 59.2986 18.1644C59.1649 18.564 59.1649 18.564 58.8309 18.8221C58.4895 19.1029 58.4091 19.2032 58.3633 19.6295C58.6279 19.5416 58.8924 19.4537 59.1649 19.3631C59.1649 19.451 59.1649 19.5389 59.1649 19.6295C58.7641 19.8959 58.7641 19.8959 58.4301 19.8792C58.0317 19.7402 57.9125 19.5831 57.6953 19.2299C57.8482 19.0816 57.8482 19.0816 58.0043 18.9303C58.2884 18.6404 58.5311 18.3613 58.7641 18.0312Z" fill="white"/>
<path d="M41.9611 15.2383C42.0934 15.2822 42.2256 15.3262 42.3619 15.3715C42.304 15.4295 42.2462 15.4875 42.1865 15.5473C41.6951 16.0658 41.6951 16.0658 41.4935 16.7366C41.5401 17.13 41.5401 17.13 41.8275 17.5025C41.7393 17.5464 41.6511 17.5904 41.5603 17.6357C41.2931 17.4942 41.2931 17.4942 41.0259 17.2361C40.9596 16.7269 40.9792 16.4062 41.1929 15.9375C41.4298 15.6338 41.6245 15.427 41.9611 15.2383Z" fill="white"/>
<path d="M36.1891 18.3047C36.2332 18.4365 36.2773 18.5684 36.3227 18.7043C36.4109 18.7043 36.4991 18.7043 36.5899 18.7043C36.6781 19.0998 36.7663 19.4954 36.8571 19.9029C37.298 20.0348 37.7389 20.1667 38.1932 20.3025C37.9286 20.4344 37.9286 20.4344 37.6587 20.5689C36.9462 20.2644 36.5388 19.9482 36.1891 19.237C36.1557 18.7209 36.1557 18.7209 36.1891 18.3047Z" fill="white"/>
<path d="M55.2938 18.3047C55.4702 18.3047 55.6465 18.3047 55.8282 18.3047C55.6493 18.8884 55.4111 19.1759 54.893 19.5034C54.7607 19.4594 54.6285 19.4155 54.4922 19.3702C54.9932 18.6044 54.9932 18.6044 55.2938 18.3047Z" fill="#141414"/>
<path d="M56.947 18.4492C57.1233 18.4932 57.2997 18.5371 57.4814 18.5824C56.8837 19.1945 56.2682 19.7656 55.611 20.3139C55.5228 20.2699 55.4346 20.2259 55.3438 20.1807C55.4259 20.1003 55.5081 20.02 55.5927 19.9372C55.7007 19.8307 55.8087 19.7243 55.9199 19.6146C56.0269 19.5095 56.1338 19.4045 56.244 19.2962C56.5044 19.0254 56.7298 18.7548 56.947 18.4492Z" fill="white"/>
<path d="M44.601 14.5733C44.2842 14.8891 44.1973 14.8739 43.7659 14.898C43.2119 14.9462 42.8138 15.0879 42.3297 15.3725C42.2415 15.2846 42.1534 15.1967 42.0625 15.1061C42.2515 15.0195 42.4409 14.9337 42.6303 14.848C42.7357 14.8001 42.8411 14.7522 42.9497 14.7029C43.5642 14.4504 43.9435 14.4393 44.601 14.5733Z" fill="white"/>
<path d="M40.4994 20.0358C40.0763 20.4576 39.6451 20.5592 39.0512 20.5852C38.6874 20.5852 38.3245 20.5802 37.9609 20.5686C37.9609 20.5246 37.9609 20.4807 37.9609 20.4354C38.0705 20.4192 38.18 20.4031 38.2929 20.3865C38.4368 20.3642 38.5808 20.3418 38.7292 20.3188C38.8718 20.2972 39.0144 20.2756 39.1613 20.2533C39.5571 20.189 39.5571 20.189 39.8585 20.0181C40.0986 19.9026 40.0986 19.9026 40.4994 20.0358Z" fill="white"/>
<path d="M47.8477 17.7695C47.98 17.7695 48.1122 17.7695 48.2485 17.7695C48.2485 17.9014 48.2485 18.0332 48.2485 18.1691C48.1162 18.235 48.1162 18.235 47.9813 18.3023C47.8299 18.5709 47.8299 18.5709 47.7141 18.835C47.67 18.7471 47.6259 18.6592 47.5805 18.5687C47.4482 18.6566 47.316 18.7445 47.1797 18.835C47.3627 18.4421 47.5573 18.0938 47.8477 17.7695Z" fill="white"/>
<path d="M57.6953 19.25C57.9158 19.25 58.1362 19.25 58.3633 19.25C58.3633 19.3819 58.3633 19.5137 58.3633 19.6496C58.6279 19.5617 58.8924 19.4738 59.1649 19.3832C59.1649 19.4711 59.1649 19.559 59.1649 19.6496C58.7641 19.9159 58.7641 19.9159 58.4301 19.8993C58.0317 19.7603 57.9125 19.6032 57.6953 19.25Z" fill="white"/>
<path d="M45.5688 18.3047C45.657 18.3486 45.7452 18.3926 45.836 18.4379C45.4322 18.8714 45.0001 19.1862 44.5 19.5034C44.7115 18.9341 45.102 18.6689 45.5688 18.3047Z" fill="black"/>
<path d="M48.6133 19.1055C48.7456 19.1494 48.8779 19.1934 49.0141 19.2387C48.7052 19.5716 48.7052 19.5716 48.3461 19.9046C48.2139 19.9046 48.0816 19.9046 47.9453 19.9046C47.9453 19.6848 47.9453 19.4651 47.9453 19.2387C48.0335 19.3266 48.1217 19.4145 48.2125 19.505C48.3448 19.3732 48.4771 19.2413 48.6133 19.1055Z" fill="white"/>
<path d="M55.7001 18.5703C55.7882 18.6143 55.8764 18.6582 55.9673 18.7035C55.9673 18.8354 55.9673 18.9672 55.9673 19.1031C55.4382 19.3668 55.4382 19.3668 54.8984 19.6358C54.8984 19.5479 54.8984 19.46 54.8984 19.3694C55.1189 19.1891 55.3417 19.0116 55.5665 18.8367C55.6105 18.7488 55.6546 18.6609 55.7001 18.5703Z" fill="white"/>
<path d="M50.6652 16.3008C50.7532 16.3008 50.8412 16.3008 50.9319 16.3008C50.9319 16.5202 50.9319 16.7395 50.9319 16.9656C50.7559 16.9656 50.5798 16.9656 50.3984 16.9656C50.5151 16.4504 50.5151 16.4504 50.6652 16.3008Z" fill="white"/>
</g>
<defs>
<clipPath id="clip0_1292_460">
<rect width="99" height="37" fill="white" transform="translate(6)"/>
</clipPath>
</defs>
</svg>
