<svg width="109" height="37" viewBox="0 0 109 37" fill="none" xmlns="http://www.w3.org/2000/svg">
<g clip-path="url(#clip0_1292_520)">
<path d="M11.84 23.4025C12.1175 22.6625 12.341 21.884 12.5106 21.0669C12.6802 20.2498 12.765 19.3942 12.765 18.5C12.765 17.6058 12.6802 16.7502 12.5106 15.9331C12.341 15.116 12.1175 14.3375 11.84 13.5975L8.4175 14.985C8.6025 15.54 8.75667 16.1104 8.88 16.6963C9.00333 17.2821 9.065 17.8833 9.065 18.5C9.065 19.1167 9.00333 19.7179 8.88 20.3038C8.75667 20.8896 8.6025 21.46 8.4175 22.015L11.84 23.4025ZM17.76 25.9C18.2842 24.7283 18.6619 23.5258 18.8931 22.2925C19.1244 21.0592 19.24 19.795 19.24 18.5C19.24 17.205 19.1244 15.9408 18.8931 14.7075C18.6619 13.4742 18.2842 12.2717 17.76 11.1L14.3375 12.4875C14.7692 13.4125 15.0775 14.376 15.2625 15.3781C15.4475 16.3802 15.54 17.4208 15.54 18.5C15.54 19.5792 15.4475 20.6198 15.2625 21.6219C15.0775 22.624 14.7692 23.5875 14.3375 24.5125L17.76 25.9ZM23.7725 28.3975C24.42 26.8558 24.9056 25.2602 25.2294 23.6106C25.5531 21.961 25.715 20.2575 25.715 18.5C25.715 16.7425 25.5531 15.039 25.2294 13.3894C24.9056 11.7398 24.42 10.1442 23.7725 8.6025L20.35 10.0825C20.905 11.3775 21.3213 12.7342 21.5988 14.1525C21.8763 15.5708 22.015 17.02 22.015 18.5C22.015 19.98 21.8763 21.4292 21.5988 22.8475C21.3213 24.2658 20.905 25.6225 20.35 26.9175L23.7725 28.3975ZM18.5 37C15.9408 37 13.5358 36.5144 11.285 35.5431C9.03417 34.5719 7.07625 33.2538 5.41125 31.5888C3.74625 29.9238 2.42813 27.9658 1.45688 25.715C0.485625 23.4642 0 21.0592 0 18.5C0 15.9408 0.485625 13.5358 1.45688 11.285C2.42813 9.03417 3.74625 7.07625 5.41125 5.41125C7.07625 3.74625 9.03417 2.42813 11.285 1.45688C13.5358 0.485625 15.9408 0 18.5 0C21.0592 0 23.4642 0.485625 25.715 1.45688C27.9658 2.42813 29.9238 3.74625 31.5888 5.41125C33.2538 7.07625 34.5719 9.03417 35.5431 11.285C36.5144 13.5358 37 15.9408 37 18.5C37 21.0592 36.5144 23.4642 35.5431 25.715C34.5719 27.9658 33.2538 29.9238 31.5888 31.5888C29.9238 33.2538 27.9658 34.5719 25.715 35.5431C23.4642 36.5144 21.0592 37 18.5 37ZM18.5 33.3C22.6317 33.3 26.1313 31.8663 28.9988 28.9988C31.8663 26.1313 33.3 22.6317 33.3 18.5C33.3 14.3683 31.8663 10.8688 28.9988 8.00125C26.1313 5.13375 22.6317 3.7 18.5 3.7C14.3683 3.7 10.8688 5.13375 8.00125 8.00125C5.13375 10.8688 3.7 14.3683 3.7 18.5C3.7 22.6317 5.13375 26.1313 8.00125 28.9988C10.8688 31.8663 14.3683 33.3 18.5 33.3Z" fill="url(#paint0_linear_1292_520)"/>
<path d="M42.833 20.228C41.8577 20.228 40.9963 20.0633 40.249 19.734C39.5017 19.392 38.9127 18.9107 38.482 18.29C38.0513 17.6567 37.8297 16.8903 37.817 15.991H40.382C40.4073 16.6117 40.629 17.1373 41.047 17.568C41.4777 17.986 42.0667 18.195 42.814 18.195C43.46 18.195 43.973 18.043 44.353 17.739C44.733 17.4223 44.923 17.0043 44.923 16.485C44.923 15.9403 44.752 15.516 44.41 15.212C44.0807 14.908 43.6373 14.661 43.08 14.471C42.5227 14.281 41.9273 14.0783 41.294 13.863C40.268 13.5083 39.4827 13.0523 38.938 12.495C38.406 11.9377 38.14 11.1967 38.14 10.272C38.1273 9.48667 38.311 8.81533 38.691 8.258C39.0837 7.688 39.6157 7.251 40.287 6.947C40.9583 6.63033 41.731 6.472 42.605 6.472C43.4917 6.472 44.2707 6.63033 44.942 6.947C45.626 7.26367 46.158 7.707 46.538 8.277C46.9307 8.847 47.1397 9.52467 47.165 10.31H44.562C44.5493 9.84133 44.3657 9.42967 44.011 9.075C43.669 8.70767 43.1877 8.524 42.567 8.524C42.035 8.51133 41.5853 8.64433 41.218 8.923C40.8633 9.189 40.686 9.58167 40.686 10.101C40.686 10.5443 40.8253 10.899 41.104 11.165C41.3827 11.4183 41.7627 11.6337 42.244 11.811C42.7253 11.9883 43.2763 12.1783 43.897 12.381C44.5557 12.609 45.1573 12.875 45.702 13.179C46.2467 13.483 46.6837 13.8883 47.013 14.395C47.3423 14.889 47.507 15.5287 47.507 16.314C47.507 17.0107 47.3297 17.6567 46.975 18.252C46.6203 18.8473 46.0947 19.3287 45.398 19.696C44.7013 20.0507 43.8463 20.228 42.833 20.228ZM49.6289 20V6.7H58.3119V8.657H52.0609V12.305H57.7419V14.205H52.0609V18.043H58.3119V20H49.6289ZM66.6363 20.228C65.2936 20.228 64.141 19.943 63.1783 19.373C62.2156 18.7903 61.4746 17.986 60.9553 16.96C60.436 15.9213 60.1763 14.7243 60.1763 13.369C60.1763 12.0137 60.436 10.8167 60.9553 9.778C61.4746 8.73933 62.2156 7.92867 63.1783 7.346C64.141 6.76333 65.2936 6.472 66.6363 6.472C68.2323 6.472 69.537 6.871 70.5503 7.669C71.5763 8.45433 72.216 9.56267 72.4693 10.994H69.7903C69.6256 10.272 69.271 9.70833 68.7263 9.303C68.1943 8.885 67.485 8.676 66.5983 8.676C65.3696 8.676 64.407 9.094 63.7103 9.93C63.0136 10.766 62.6653 11.9123 62.6653 13.369C62.6653 14.8257 63.0136 15.972 63.7103 16.808C64.407 17.6313 65.3696 18.043 66.5983 18.043C67.485 18.043 68.1943 17.853 68.7263 17.473C69.271 17.0803 69.6256 16.542 69.7903 15.858H72.4693C72.216 17.226 71.5763 18.2963 70.5503 19.069C69.537 19.8417 68.2323 20.228 66.6363 20.228ZM79.7521 20.228C78.7767 20.228 77.8964 20.038 77.1111 19.658C76.3257 19.2653 75.6987 18.6763 75.2301 17.891C74.7741 17.1057 74.5461 16.1113 74.5461 14.908V6.7H76.9781V14.927C76.9781 15.9657 77.2251 16.7383 77.7191 17.245C78.2257 17.7517 78.9224 18.005 79.8091 18.005C80.6831 18.005 81.3734 17.7517 81.8801 17.245C82.3867 16.7383 82.6401 15.9657 82.6401 14.927V6.7H85.0721V14.908C85.0721 16.1113 84.8314 17.1057 84.3501 17.891C83.8687 18.6763 83.2227 19.2653 82.4121 19.658C81.6141 20.038 80.7274 20.228 79.7521 20.228ZM87.5547 20V6.7H92.4377C93.5017 6.7 94.3757 6.88367 95.0597 7.251C95.7564 7.60567 96.2757 8.09333 96.6177 8.714C96.9597 9.322 97.1307 9.99967 97.1307 10.747C97.1307 11.5577 96.9154 12.2987 96.4847 12.97C96.0667 13.6413 95.408 14.129 94.5087 14.433L97.2637 20H94.4707L92.0007 14.756H89.9867V20H87.5547ZM89.9867 12.97H92.2857C93.0964 12.97 93.6917 12.7737 94.0717 12.381C94.4517 11.9883 94.6417 11.469 94.6417 10.823C94.6417 10.1897 94.4517 9.683 94.0717 9.303C93.7044 8.923 93.1027 8.733 92.2667 8.733H89.9867V12.97ZM99.3926 20V6.7H108.076V8.657H101.825V12.305H107.506V14.205H101.825V18.043H108.076V20H99.3926Z" fill="white"/>
<path d="M38.884 33V23.9H42.251C42.979 23.9 43.5813 24.0213 44.058 24.264C44.5347 24.5067 44.89 24.8403 45.124 25.265C45.358 25.6897 45.475 26.1663 45.475 26.695C45.475 27.1977 45.3623 27.6613 45.137 28.086C44.9117 28.502 44.5607 28.84 44.084 29.1C43.6073 29.3513 42.9963 29.477 42.251 29.477H40.548V33H38.884ZM40.548 28.125H42.147C42.7277 28.125 43.1437 27.9993 43.395 27.748C43.655 27.488 43.785 27.137 43.785 26.695C43.785 26.2443 43.655 25.8933 43.395 25.642C43.1437 25.382 42.7277 25.252 42.147 25.252H40.548V28.125ZM45.2179 33L48.5459 23.9H50.4179L53.7459 33H51.9779L51.2499 30.894H47.7009L46.9599 33H45.2179ZM48.1559 29.594H50.7949L49.4689 25.811L48.1559 29.594ZM56.2175 33V29.763L53.1625 23.9H55.0475L57.0625 28.099L59.0645 23.9H60.9235L57.8815 29.763V33H56.2175ZM61.9895 33V23.9H63.9655L66.8645 29.672L69.7245 23.9H71.7005V33H70.0365V26.721L67.5015 31.7H66.1885L63.6535 26.721V33H61.9895ZM73.466 33V23.9H79.407V25.239H75.13V27.735H79.017V29.035H75.13V31.661H79.407V33H73.466ZM80.9817 33V23.9H82.6457L86.9227 30.309V23.9H88.5867V33H86.9227L82.6457 26.604V33H80.9817ZM92.4698 33V25.239H89.8178V23.9H96.7988V25.239H94.1338V33H92.4698Z" fill="#E9E9E9"/>
</g>
<defs>
<linearGradient id="paint0_linear_1292_520" x1="0.982813" y1="13.3443" x2="37.4334" y2="14.9949" gradientUnits="userSpaceOnUse">
<stop stop-color="#F87708"/>
<stop offset="0.591159" stop-color="#FB4A55"/>
<stop offset="0.996" stop-color="#E620AF"/>
</linearGradient>
<clipPath id="clip0_1292_520">
<rect width="109" height="37" rx="2.05446" fill="white"/>
</clipPath>
</defs>
</svg>
