<svg width="109" height="37" viewBox="0 0 109 37" fill="none" xmlns="http://www.w3.org/2000/svg">
<g clip-path="url(#clip0_1353_302)">
<path d="M14.025 24.05H19.575L18.5113 18.0838C19.1279 17.7754 19.6135 17.3283 19.9681 16.7425C20.3227 16.1567 20.5 15.5092 20.5 14.8C20.5 13.7825 20.1377 12.9115 19.4131 12.1869C18.6885 11.4623 17.8175 11.1 16.8 11.1C15.7825 11.1 14.9115 11.4623 14.1869 12.1869C13.4623 12.9115 13.1 13.7825 13.1 14.8C13.1 15.5092 13.2773 16.1567 13.6319 16.7425C13.9865 17.3283 14.4721 17.7754 15.0888 18.0838L14.025 24.05ZM16.8 37C12.5142 35.9208 8.97604 33.4619 6.18563 29.6231C3.39521 25.7844 2 21.5217 2 16.835V5.55L16.8 0L31.6 5.55V16.835C31.6 21.5217 30.2048 25.7844 27.4144 29.6231C24.624 33.4619 21.0858 35.9208 16.8 37ZM16.8 33.115C20.0067 32.0975 22.6583 30.0625 24.755 27.01C26.8517 23.9575 27.9 20.5658 27.9 16.835V8.09375L16.8 3.93125L5.7 8.09375V16.835C5.7 20.5658 6.74833 23.9575 8.845 27.01C10.9417 30.0625 13.5933 32.0975 16.8 33.115Z" fill="url(#paint0_linear_1353_302)"/>
<path d="M37.833 19.228C36.8577 19.228 35.9963 19.0633 35.249 18.734C34.5017 18.392 33.9127 17.9107 33.482 17.29C33.0513 16.6567 32.8297 15.8903 32.817 14.991H35.382C35.4073 15.6117 35.629 16.1373 36.047 16.568C36.4777 16.986 37.0667 17.195 37.814 17.195C38.46 17.195 38.973 17.043 39.353 16.739C39.733 16.4223 39.923 16.0043 39.923 15.485C39.923 14.9403 39.752 14.516 39.41 14.212C39.0807 13.908 38.6373 13.661 38.08 13.471C37.5227 13.281 36.9273 13.0783 36.294 12.863C35.268 12.5083 34.4827 12.0523 33.938 11.495C33.406 10.9377 33.14 10.1967 33.14 9.272C33.1273 8.48667 33.311 7.81533 33.691 7.258C34.0837 6.688 34.6157 6.251 35.287 5.947C35.9583 5.63033 36.731 5.472 37.605 5.472C38.4917 5.472 39.2707 5.63033 39.942 5.947C40.626 6.26367 41.158 6.707 41.538 7.277C41.9307 7.847 42.1397 8.52467 42.165 9.31H39.562C39.5493 8.84133 39.3657 8.42967 39.011 8.075C38.669 7.70767 38.1877 7.524 37.567 7.524C37.035 7.51133 36.5853 7.64433 36.218 7.923C35.8633 8.189 35.686 8.58167 35.686 9.101C35.686 9.54433 35.8253 9.899 36.104 10.165C36.3827 10.4183 36.7627 10.6337 37.244 10.811C37.7253 10.9883 38.2763 11.1783 38.897 11.381C39.5557 11.609 40.1573 11.875 40.702 12.179C41.2467 12.483 41.6837 12.8883 42.013 13.395C42.3423 13.889 42.507 14.5287 42.507 15.314C42.507 16.0107 42.3297 16.6567 41.975 17.252C41.6203 17.8473 41.0947 18.3287 40.398 18.696C39.7013 19.0507 38.8463 19.228 37.833 19.228ZM44.6289 19V5.7H53.3119V7.657H47.0609V11.305H52.7419V13.205H47.0609V17.043H53.3119V19H44.6289ZM61.6363 19.228C60.2936 19.228 59.141 18.943 58.1783 18.373C57.2156 17.7903 56.4746 16.986 55.9553 15.96C55.436 14.9213 55.1763 13.7243 55.1763 12.369C55.1763 11.0137 55.436 9.81667 55.9553 8.778C56.4746 7.73933 57.2156 6.92867 58.1783 6.346C59.141 5.76333 60.2936 5.472 61.6363 5.472C63.2323 5.472 64.537 5.871 65.5503 6.669C66.5763 7.45433 67.216 8.56267 67.4693 9.994H64.7903C64.6256 9.272 64.271 8.70833 63.7263 8.303C63.1943 7.885 62.485 7.676 61.5983 7.676C60.3696 7.676 59.407 8.094 58.7103 8.93C58.0136 9.766 57.6653 10.9123 57.6653 12.369C57.6653 13.8257 58.0136 14.972 58.7103 15.808C59.407 16.6313 60.3696 17.043 61.5983 17.043C62.485 17.043 63.1943 16.853 63.7263 16.473C64.271 16.0803 64.6256 15.542 64.7903 14.858H67.4693C67.216 16.226 66.5763 17.2963 65.5503 18.069C64.537 18.8417 63.2323 19.228 61.6363 19.228ZM74.7521 19.228C73.7767 19.228 72.8964 19.038 72.1111 18.658C71.3257 18.2653 70.6987 17.6763 70.2301 16.891C69.7741 16.1057 69.5461 15.1113 69.5461 13.908V5.7H71.9781V13.927C71.9781 14.9657 72.2251 15.7383 72.7191 16.245C73.2257 16.7517 73.9224 17.005 74.8091 17.005C75.6831 17.005 76.3734 16.7517 76.8801 16.245C77.3867 15.7383 77.6401 14.9657 77.6401 13.927V5.7H80.0721V13.908C80.0721 15.1113 79.8314 16.1057 79.3501 16.891C78.8687 17.6763 78.2227 18.2653 77.4121 18.658C76.6141 19.038 75.7274 19.228 74.7521 19.228ZM82.5547 19V5.7H87.4377C88.5017 5.7 89.3757 5.88367 90.0597 6.251C90.7564 6.60567 91.2757 7.09333 91.6177 7.714C91.9597 8.322 92.1307 8.99967 92.1307 9.747C92.1307 10.5577 91.9154 11.2987 91.4847 11.97C91.0667 12.6413 90.408 13.129 89.5087 13.433L92.2637 19H89.4707L87.0007 13.756H84.9867V19H82.5547ZM84.9867 11.97H87.2857C88.0964 11.97 88.6917 11.7737 89.0717 11.381C89.4517 10.9883 89.6417 10.469 89.6417 9.823C89.6417 9.18967 89.4517 8.683 89.0717 8.303C88.7044 7.923 88.1027 7.733 87.2667 7.733H84.9867V11.97ZM94.3926 19V5.7H103.076V7.657H96.8246V11.305H102.506V13.205H96.8246V17.043H103.076V19H94.3926Z" fill="white"/>
<path d="M34.763 31.108C34.301 31.108 33.893 31.03 33.539 30.874C33.185 30.712 32.906 30.484 32.702 30.19C32.498 29.89 32.393 29.527 32.387 29.101H33.602C33.614 29.395 33.719 29.644 33.917 29.848C34.121 30.046 34.4 30.145 34.754 30.145C35.06 30.145 35.303 30.073 35.483 29.929C35.663 29.779 35.753 29.581 35.753 29.335C35.753 29.077 35.672 28.876 35.51 28.732C35.354 28.588 35.144 28.471 34.88 28.381C34.616 28.291 34.334 28.195 34.034 28.093C33.548 27.925 33.176 27.709 32.918 27.445C32.666 27.181 32.54 26.83 32.54 26.392C32.534 26.02 32.621 25.702 32.801 25.438C32.987 25.168 33.239 24.961 33.557 24.817C33.875 24.667 34.241 24.592 34.655 24.592C35.075 24.592 35.444 24.667 35.762 24.817C36.086 24.967 36.338 25.177 36.518 25.447C36.704 25.717 36.803 26.038 36.815 26.41H35.582C35.576 26.188 35.489 25.993 35.321 25.825C35.159 25.651 34.931 25.564 34.637 25.564C34.385 25.558 34.172 25.621 33.998 25.753C33.83 25.879 33.746 26.065 33.746 26.311C33.746 26.521 33.812 26.689 33.944 26.815C34.076 26.935 34.256 27.037 34.484 27.121C34.712 27.205 34.973 27.295 35.267 27.391C35.579 27.499 35.864 27.625 36.122 27.769C36.38 27.913 36.587 28.105 36.743 28.345C36.899 28.579 36.977 28.882 36.977 29.254C36.977 29.584 36.893 29.89 36.725 30.172C36.557 30.454 36.308 30.682 35.978 30.856C35.648 31.024 35.243 31.108 34.763 31.108ZM40.1331 31.108C39.6711 31.108 39.2631 31.03 38.9091 30.874C38.5551 30.712 38.2761 30.484 38.0721 30.19C37.8681 29.89 37.7631 29.527 37.7571 29.101H38.9721C38.9841 29.395 39.0891 29.644 39.2871 29.848C39.4911 30.046 39.7701 30.145 40.1241 30.145C40.4301 30.145 40.6731 30.073 40.8531 29.929C41.0331 29.779 41.1231 29.581 41.1231 29.335C41.1231 29.077 41.0421 28.876 40.8801 28.732C40.7241 28.588 40.5141 28.471 40.2501 28.381C39.9861 28.291 39.7041 28.195 39.4041 28.093C38.9181 27.925 38.5461 27.709 38.2881 27.445C38.0361 27.181 37.9101 26.83 37.9101 26.392C37.9041 26.02 37.9911 25.702 38.1711 25.438C38.3571 25.168 38.6091 24.961 38.9271 24.817C39.2451 24.667 39.6111 24.592 40.0251 24.592C40.4451 24.592 40.8141 24.667 41.1321 24.817C41.4561 24.967 41.7081 25.177 41.8881 25.447C42.0741 25.717 42.1731 26.038 42.1851 26.41H40.9521C40.9461 26.188 40.8591 25.993 40.6911 25.825C40.5291 25.651 40.3011 25.564 40.0071 25.564C39.7551 25.558 39.5421 25.621 39.3681 25.753C39.2001 25.879 39.1161 26.065 39.1161 26.311C39.1161 26.521 39.1821 26.689 39.3141 26.815C39.4461 26.935 39.6261 27.037 39.8541 27.121C40.0821 27.205 40.3431 27.295 40.6371 27.391C40.9491 27.499 41.2341 27.625 41.4921 27.769C41.7501 27.913 41.9571 28.105 42.1131 28.345C42.2691 28.579 42.3471 28.882 42.3471 29.254C42.3471 29.584 42.2631 29.89 42.0951 30.172C41.9271 30.454 41.6781 30.682 41.3481 30.856C41.0181 31.024 40.6131 31.108 40.1331 31.108ZM43.3522 31V24.7H44.5042V30.1H47.2942V31H43.3522ZM50.4538 31V24.7H54.5668V25.627H51.6058V27.355H54.2968V28.255H51.6058V30.073H54.5668V31H50.4538ZM55.6569 31V24.7H56.8089L59.7699 29.137V24.7H60.9219V31H59.7699L56.8089 26.572V31H55.6569ZM64.9963 31.108C64.3603 31.108 63.8143 30.973 63.3583 30.703C62.9023 30.427 62.5513 30.046 62.3053 29.56C62.0593 29.068 61.9363 28.501 61.9363 27.859C61.9363 27.217 62.0593 26.65 62.3053 26.158C62.5513 25.666 62.9023 25.282 63.3583 25.006C63.8143 24.73 64.3603 24.592 64.9963 24.592C65.7523 24.592 66.3703 24.781 66.8503 25.159C67.3363 25.531 67.6393 26.056 67.7593 26.734H66.4902C66.4123 26.392 66.2443 26.125 65.9863 25.933C65.7343 25.735 65.3983 25.636 64.9783 25.636C64.3963 25.636 63.9403 25.834 63.6103 26.23C63.2803 26.626 63.1153 27.169 63.1153 27.859C63.1153 28.549 63.2803 29.092 63.6103 29.488C63.9403 29.878 64.3963 30.073 64.9783 30.073C65.3983 30.073 65.7343 29.983 65.9863 29.803C66.2443 29.617 66.4123 29.362 66.4902 29.038H67.7593C67.6393 29.686 67.3363 30.193 66.8503 30.559C66.3703 30.925 65.7523 31.108 64.9963 31.108ZM68.779 31V24.7H71.092C71.596 24.7 72.01 24.787 72.334 24.961C72.664 25.129 72.91 25.36 73.072 25.654C73.234 25.942 73.315 26.263 73.315 26.617C73.315 27.001 73.213 27.352 73.009 27.67C72.811 27.988 72.499 28.219 72.073 28.363L73.378 31H72.055L70.885 28.516H69.931V31H68.779ZM69.931 27.67H71.02C71.404 27.67 71.686 27.577 71.866 27.391C72.046 27.205 72.136 26.959 72.136 26.653C72.136 26.353 72.046 26.113 71.866 25.933C71.692 25.753 71.407 25.663 71.011 25.663H69.931V27.67ZM75.7957 31V28.759L73.6807 24.7H74.9857L76.3807 27.607L77.7667 24.7H79.0537L76.9477 28.759V31H75.7957ZM79.7917 31V24.7H82.1227C82.6267 24.7 83.0437 24.784 83.3737 24.952C83.7037 25.12 83.9497 25.351 84.1117 25.645C84.2737 25.939 84.3547 26.269 84.3547 26.635C84.3547 26.983 84.2767 27.304 84.1207 27.598C83.9647 27.886 83.7217 28.12 83.3917 28.3C83.0617 28.474 82.6387 28.561 82.1227 28.561H80.9437V31H79.7917ZM80.9437 27.625H82.0507C82.4527 27.625 82.7407 27.538 82.9147 27.364C83.0947 27.184 83.1847 26.941 83.1847 26.635C83.1847 26.323 83.0947 26.08 82.9147 25.906C82.7407 25.726 82.4527 25.636 82.0507 25.636H80.9437V27.625ZM86.7255 31V25.627H84.8895V24.7H89.7225V25.627H87.8775V31H86.7255ZM90.5759 31V24.7H91.7279V31H90.5759ZM95.9009 31.108C95.2709 31.108 94.7189 30.97 94.2449 30.694C93.7769 30.418 93.4079 30.037 93.1379 29.551C92.8739 29.059 92.7419 28.492 92.7419 27.85C92.7419 27.208 92.8739 26.644 93.1379 26.158C93.4079 25.666 93.7769 25.282 94.2449 25.006C94.7189 24.73 95.2709 24.592 95.9009 24.592C96.5249 24.592 97.0739 24.73 97.5479 25.006C98.0219 25.282 98.3909 25.666 98.6549 26.158C98.9189 26.644 99.0509 27.208 99.0509 27.85C99.0509 28.492 98.9189 29.059 98.6549 29.551C98.3909 30.037 98.0219 30.418 97.5479 30.694C97.0739 30.97 96.5249 31.108 95.9009 31.108ZM95.9009 30.073C96.5009 30.073 96.9779 29.875 97.3319 29.479C97.6919 29.083 97.8719 28.54 97.8719 27.85C97.8719 27.16 97.6919 26.617 97.3319 26.221C96.9779 25.825 96.5009 25.627 95.9009 25.627C95.3009 25.627 94.8209 25.825 94.4609 26.221C94.1009 26.617 93.9209 27.16 93.9209 27.85C93.9209 28.54 94.1009 29.083 94.4609 29.479C94.8209 29.875 95.3009 30.073 95.9009 30.073ZM100.068 31V24.7H101.22L104.181 29.137V24.7H105.333V31H104.181L101.22 26.572V31H100.068Z" fill="#E9E9E9"/>
</g>
<defs>
<linearGradient id="paint0_linear_1353_302" x1="2.78625" y1="13.3443" x2="31.9682" y2="14.4015" gradientUnits="userSpaceOnUse">
<stop stop-color="#F87708"/>
<stop offset="0.591159" stop-color="#FB4A55"/>
<stop offset="0.996" stop-color="#E620AF"/>
</linearGradient>
<clipPath id="clip0_1353_302">
<rect width="109" height="37" rx="2.05446" fill="white"/>
</clipPath>
</defs>
</svg>
