<svg width="500" height="500" viewBox="0 0 500 500" fill="none" xmlns="http://www.w3.org/2000/svg">
<path d="M500 382.398H0V382.648H500V382.398Z" fill="#EBEBEB"/>
<path d="M449.901 398.494H416.779V398.744H449.901V398.494Z" fill="#EBEBEB"/>
<path d="M301.442 398.619H292.749V398.869H301.442V398.619Z" fill="#EBEBEB"/>
<path d="M415.778 389.208H354.333V389.458H415.778V389.208Z" fill="#EBEBEB"/>
<path d="M225.147 395.111H212.454V395.361H225.147V395.111Z" fill="#EBEBEB"/>
<path d="M203.55 395.111H166.717V395.361H203.55V395.111Z" fill="#EBEBEB"/>
<path d="M77.889 390.888H52.459V391.138H77.889V390.888Z" fill="#EBEBEB"/>
<path d="M158.778 390.888H83.8887V391.138H158.778V390.888Z" fill="#EBEBEB"/>
<path d="M237.014 337.8H43.915C40.768 337.8 38.207 335.239 38.207 332.092V60.66C38.207 57.513 40.768 54.952 43.915 54.952H237.014C240.16 54.952 242.721 57.513 242.721 60.66V332.092C242.721 335.239 240.16 337.8 237.014 337.8ZM43.915 55.203C40.905 55.203 38.457 57.651 38.457 60.661V332.093C38.457 335.103 40.905 337.551 43.915 337.551H237.014C240.023 337.551 242.471 335.103 242.471 332.093V60.66C242.471 57.651 240.023 55.202 237.014 55.202L43.915 55.203Z" fill="#EBEBEB"/>
<path d="M453.31 337.8H260.212C257.065 337.8 254.505 335.239 254.505 332.092V60.66C254.505 57.513 257.066 54.952 260.212 54.952H453.31C456.458 54.952 459.018 57.513 459.018 60.66V332.092C459.019 335.239 456.458 337.8 453.31 337.8ZM260.212 55.203C257.203 55.203 254.755 57.651 254.755 60.661V332.093C254.755 335.103 257.203 337.551 260.212 337.551H453.31C456.32 337.551 458.768 335.103 458.768 332.093V60.66C458.768 57.651 456.32 55.202 453.31 55.202L260.212 55.203Z" fill="#EBEBEB"/>
<path d="M190.778 249.505L433.818 249.505V71.9716L190.778 71.9716L190.778 249.505Z" fill="#E8E8E8" fill-opacity="0.5"/>
<path d="M180.033 249.505L431.325 249.505V71.9716L180.033 71.9716L180.033 249.505Z" fill="#0F0F0F" fill-opacity="0.5"/>
<path d="M416.283 234.463V87.015L195.076 87.015L195.076 234.463L416.283 234.463Z" fill="#282828" fill-opacity="0.5"/>
<path d="M362.511 234.463L312.153 87.0151H264.063L314.422 234.463H362.511Z" fill="black" fill-opacity="0.5"/>
<path d="M304.091 234.463L253.733 87.0151H234.985L285.344 234.463H304.091Z" fill="black" fill-opacity="0.5"/>
<path d="M196.986 234.463L196.986 87.0154H195.076L195.076 234.463H196.986Z" fill="#E6E6E6"/>
<path d="M64.5765 201.214H150.396L150.396 79.5435L64.5765 79.5435L64.5765 201.214Z" fill="#E0E0E0"/>
<path d="M58.498 201.214H146.96L146.96 79.5435L58.498 79.5435L58.498 201.214Z" fill="#F5F5F5"/>
<path d="M138.229 191.626L138.229 89.1322L67.2305 89.1322L67.2305 191.626H138.229Z" fill="black" fill-opacity="0.5"/>
<path d="M97.9304 286.396C104.301 270.678 119.452 264.826 124.686 254.902C131.544 241.899 131.505 222.394 125.666 215.355C120.593 209.239 103.792 250.597 101.9 255.218C95.3914 271.111 93.4994 282.905 92.2794 294.332C92.4184 284.619 92.5514 275.701 92.6604 268.82C93.0164 246.377 93.4614 239.158 93.6644 236.937C94.3654 235.852 95.1944 234.588 95.6754 233.91C99.7414 228.178 108.762 221.354 113.27 213.021C119.853 200.854 118.789 186.292 114.172 180.87C109.344 175.201 100.81 188.6 96.2784 201.877C91.7474 215.154 93.6834 227.862 92.4124 238.888C92.1464 241.051 91.8734 249.265 91.6174 260.659C90.2424 248.399 87.5044 240.186 82.4304 232.532C76.1894 223.118 70.8014 211.655 65.6584 213.137C60.5164 214.619 63.2844 229.786 67.3524 240.435C70.9754 249.918 88.8494 259.376 91.4824 267.001C91.1724 282.445 90.8954 302.012 90.6984 320.229C89.2894 310.819 90.2584 310.029 84.4844 295.623C81.0514 287.058 66.9784 276.496 65.3004 282.381C63.6534 288.156 66.1734 299.388 71.4864 307.177C75.7724 313.461 85.2814 313.454 87.4814 317.353C87.9944 318.263 89.6924 321.75 90.6614 323.755C90.4314 345.996 90.3294 365.628 90.4424 372.322L91.3644 372.389C91.3204 370.661 91.4314 359.347 91.6124 344.375C93.9214 336.408 109.466 331.758 114.268 323.473C119.294 314.803 122.905 304.685 120.75 297.91C118.953 292.262 104.787 299.943 99.0384 309.303C95.2094 315.537 92.8704 322.191 91.7784 331.13C91.9094 320.931 92.0584 309.973 92.2034 299.631C93.3674 297.052 96.0214 291.107 97.9304 286.396Z" fill="#5D5D5D" fill-opacity="0.8"/>
<path d="M107.06 382.398H74.3847C72.5997 382.398 71.0607 381.14 70.7067 379.391L68.3867 367.955H113.059L110.739 379.391C110.384 381.141 108.846 382.398 107.06 382.398Z" fill="#0F0F0F" fill-opacity="0.5"/>
<path d="M113.993 372.389H67.4516C66.3366 372.389 65.3986 371.551 65.2746 370.443L64.3226 361.989C64.1766 360.69 65.1926 359.553 66.4996 359.553H114.944C116.251 359.553 117.268 360.69 117.121 361.989L116.169 370.443C116.045 371.551 115.108 372.389 113.993 372.389Z" fill="#0F0F0F" fill-opacity="0.5"/>
<path d="M405.638 375.109H415.627V267.617H405.638V375.109Z" fill="#0F0F0F" fill-opacity="0.5"/>
<path d="M202.061 382.272H411.79V375.108H202.061V382.272Z" fill="#0F0F0F" fill-opacity="0.5"/>
<path d="M405.637 267.616H198.226V375.108H405.637V267.616Z" fill="#6D6D6D" fill-opacity="0.7"/>
<path d="M407.988 267.617H418.311V260.842H407.988V267.617Z" fill="#E0E0E0"/>
<path d="M407.988 260.841H195.542V267.616H407.988V260.841Z" fill="#EBEBEB"/>
<path d="M390.751 314.041H213.111C208.683 314.041 205.081 310.439 205.081 306.01V282.99C205.081 278.561 208.684 274.959 213.111 274.959H390.751C395.18 274.959 398.782 278.561 398.782 282.99V306.01C398.782 310.439 395.18 314.041 390.751 314.041ZM213.111 276.959C209.786 276.959 207.081 279.665 207.081 282.99V306.01C207.081 309.335 209.786 312.041 213.111 312.041H390.751C394.076 312.041 396.782 309.335 396.782 306.01V282.99C396.782 279.665 394.076 276.959 390.751 276.959H213.111Z" fill="black" fill-opacity="0.5"/>
<path d="M390.751 362.191H213.111C208.683 362.191 205.081 358.588 205.081 354.16V331.14C205.081 326.711 208.684 323.109 213.111 323.109H390.751C395.18 323.109 398.782 326.712 398.782 331.14V354.16C398.782 358.589 395.18 362.191 390.751 362.191ZM213.111 325.109C209.786 325.109 207.081 327.815 207.081 331.14V354.16C207.081 357.485 209.786 360.191 213.111 360.191H390.751C394.076 360.191 396.782 357.485 396.782 354.16V331.14C396.782 327.815 394.076 325.109 390.751 325.109H213.111Z" fill="black" fill-opacity="0.5"/>
<path d="M350.382 298.042H253.482C252.05 298.042 250.885 296.877 250.885 295.445V293.553C250.885 292.121 252.05 290.956 253.482 290.956H350.382C351.814 290.956 352.979 292.121 352.979 293.553V295.445C352.979 296.877 351.814 298.042 350.382 298.042ZM253.482 292.957C253.159 292.957 252.885 293.23 252.885 293.554V295.446C252.885 295.769 253.158 296.043 253.482 296.043H350.382C350.705 296.043 350.979 295.77 350.979 295.446V293.554C350.979 293.231 350.706 292.957 350.382 292.957H253.482Z" fill="black" fill-opacity="0.5"/>
<path d="M350.382 346.192H253.482C252.05 346.192 250.885 345.027 250.885 343.595V341.703C250.885 340.271 252.05 339.106 253.482 339.106H350.382C351.814 339.106 352.979 340.271 352.979 341.703V343.595C352.979 345.027 351.814 346.192 350.382 346.192ZM253.482 341.107C253.159 341.107 252.885 341.38 252.885 341.704V343.596C252.885 343.919 253.158 344.193 253.482 344.193H350.382C350.705 344.193 350.979 343.92 350.979 343.596V341.704C350.979 341.381 350.706 341.107 350.382 341.107H253.482Z" fill="black" fill-opacity="0.5"/>
<path d="M245 427.561C352.082 427.561 438.889 422.492 438.889 416.238C438.889 409.985 352.082 404.915 245 404.915C137.918 404.915 51.1113 409.985 51.1113 416.238C51.1113 422.492 137.918 427.561 245 427.561Z" fill="#0A0A0A" fill-opacity="0.6"/>
<path d="M374.772 167.75L374.392 173.64L375.39 173.704L375.77 167.815L374.772 167.75Z" fill="#F27B01"/>
<path d="M376.319 143.857L375.07 163.209L376.068 163.274L377.317 143.921L376.319 143.857Z" fill="#F27B01"/>
<path d="M364.439 115.736H246.885C240.727 115.736 235.363 120.774 234.964 126.932L219.782 361.431C219.383 367.589 224.095 372.627 230.253 372.627H347.807C353.965 372.627 359.329 367.589 359.728 361.431L374.91 126.932C375.309 120.774 370.597 115.736 364.439 115.736Z" fill="#F27B01"/>
<path opacity="0.7" d="M360.707 115.736H246.885C240.727 115.736 235.363 120.774 234.964 126.932L219.782 361.431C219.383 367.589 224.095 372.627 230.253 372.627H344.076C350.234 372.627 355.598 367.589 355.997 361.431L371.179 126.932C371.577 120.774 366.865 115.736 360.707 115.736Z" fill="white"/>
<path d="M351.112 355.3H225.906C223.928 355.3 222.362 353.629 222.49 351.656L236.228 139.464C236.345 137.663 237.839 136.262 239.644 136.262H364.85C366.828 136.262 368.394 137.933 368.266 139.906L354.528 352.098C354.411 353.899 352.917 355.3 351.112 355.3Z" fill="white" fill-opacity="0.5"/>
<path d="M323.287 129.316H277.779C276.777 129.316 276.017 128.504 276.082 127.502C276.147 126.5 277.012 125.688 278.014 125.688H323.522C324.524 125.688 325.284 126.5 325.219 127.502C325.154 128.504 324.289 129.316 323.287 129.316Z" fill="white"/>
<path d="M287.768 364.215C287.641 366.677 285.542 368.672 283.08 368.672C280.618 368.672 278.726 366.676 278.853 364.215C278.98 361.753 281.079 359.757 283.541 359.757C286.003 359.757 287.896 361.753 287.768 364.215Z" fill="white"/>
<path opacity="0.2" d="M337.471 195.036H230.556L223.764 299.943H337.471C343.629 299.943 348.667 294.905 348.667 288.747V206.231C348.667 200.074 343.629 195.036 337.471 195.036Z" fill="#F27B01"/>
<path d="M327.512 290.614H196.482C190.324 290.614 185.286 285.576 185.286 279.418V196.902C185.286 190.744 190.324 185.706 196.482 185.706H327.513C333.671 185.706 338.709 190.744 338.709 196.902V279.418C338.708 285.576 333.67 290.614 327.512 290.614Z" fill="#F27B01"/>
<path d="M181.712 184.503C181.456 184.503 181.2 184.405 181.005 184.21L179.212 182.417C178.821 182.026 178.821 181.394 179.212 181.003C179.603 180.612 180.235 180.612 180.626 181.003L182.419 182.796C182.81 183.187 182.81 183.819 182.419 184.21C182.224 184.406 181.968 184.503 181.712 184.503Z" fill="#F27B01"/>
<path d="M179.011 190.778H176.476C175.923 190.778 175.476 190.33 175.476 189.778C175.476 189.226 175.923 188.778 176.476 188.778H179.011C179.564 188.778 180.011 189.226 180.011 189.778C180.011 190.33 179.564 190.778 179.011 190.778Z" fill="#F27B01"/>
<path d="M188.076 181.798C187.556 181.798 187.117 181.396 187.08 180.869L186.899 178.34C186.859 177.789 187.274 177.311 187.825 177.271C188.387 177.23 188.854 177.647 188.893 178.197L189.074 180.726C189.114 181.277 188.699 181.755 188.148 181.795C188.124 181.797 188.1 181.798 188.076 181.798Z" fill="#F27B01"/>
<path d="M273.193 279.833L313.414 320.054V279.833H273.193Z" fill="#F27B01"/>
<path d="M284.217 262.209L282.269 253.716C281.758 251.488 281.752 249.174 282.252 246.944L284.962 234.846C287.378 224.06 281.904 213.284 272.419 208.542C272.5 208.317 272.592 208.098 272.646 207.859C273.337 204.774 271.396 201.713 268.312 201.022C265.227 200.331 262.166 202.271 261.475 205.356C261.421 205.595 261.412 205.833 261.389 206.071C250.787 206.313 241.238 213.723 238.822 224.509L236.112 236.607C235.612 238.837 234.619 240.928 233.207 242.725L227.821 249.575C225.525 252.496 227.062 256.814 230.688 257.626L278.189 268.268C281.815 269.08 285.048 265.831 284.217 262.209Z" fill="white"/>
<path d="M248.345 264.832C246.782 264.482 245.378 265.838 245.647 267.417C246.189 270.605 248.599 273.305 251.95 274.056C255.301 274.807 258.632 273.393 260.483 270.741C261.4 269.428 260.709 267.602 259.146 267.252L248.345 264.832Z" fill="white"/>
<path d="M211.867 247.981C211.383 247.981 210.908 247.747 210.619 247.314C205.86 240.187 204.162 231.635 205.837 223.232C207.512 214.829 212.359 207.581 219.485 202.823C220.174 202.363 221.104 202.549 221.565 203.238C222.025 203.927 221.839 204.859 221.151 205.319C214.691 209.632 210.297 216.202 208.779 223.819C207.261 231.436 208.8 239.189 213.113 245.649C213.573 246.338 213.387 247.269 212.699 247.729C212.443 247.899 212.153 247.981 211.867 247.981Z" fill="white"/>
<path d="M218.224 243.736C217.74 243.736 217.265 243.502 216.976 243.069C213.352 237.641 212.058 231.127 213.334 224.726C214.609 218.326 218.302 212.805 223.729 209.181C224.417 208.72 225.349 208.906 225.809 209.596C226.269 210.285 226.083 211.217 225.395 211.677C220.633 214.856 217.395 219.699 216.275 225.313C215.156 230.928 216.291 236.642 219.469 241.404C219.929 242.093 219.743 243.024 219.055 243.484C218.8 243.654 218.51 243.736 218.224 243.736Z" fill="white"/>
<path d="M224.583 239.492C224.099 239.492 223.624 239.258 223.335 238.825C220.844 235.096 219.955 230.619 220.832 226.221C221.708 221.823 224.245 218.03 227.975 215.539C228.663 215.078 229.594 215.264 230.055 215.954C230.515 216.643 230.329 217.575 229.641 218.035C226.577 220.08 224.495 223.196 223.775 226.808C223.054 230.42 223.785 234.097 225.83 237.16C226.29 237.849 226.104 238.78 225.416 239.24C225.159 239.41 224.87 239.492 224.583 239.492Z" fill="white"/>
<path d="M298.347 269.093C297.804 269.093 297.28 268.797 297.013 268.282C296.633 267.546 296.922 266.64 297.658 266.26C304.56 262.697 309.661 256.659 312.022 249.26C314.382 241.86 313.719 233.984 310.156 227.082C309.776 226.346 310.065 225.441 310.801 225.061C311.537 224.683 312.442 224.969 312.822 225.706C316.753 233.319 317.484 242.008 314.88 250.171C312.276 258.335 306.648 264.995 299.035 268.926C298.814 269.039 298.578 269.093 298.347 269.093Z" fill="white"/>
<path d="M294.84 262.301C294.297 262.301 293.773 262.005 293.506 261.489C293.126 260.753 293.415 259.847 294.151 259.468C299.239 256.841 302.999 252.391 304.739 246.937C306.478 241.482 305.99 235.676 303.363 230.589C302.983 229.853 303.272 228.948 304.008 228.568C304.744 228.19 305.649 228.476 306.029 229.213C309.023 235.012 309.58 241.63 307.596 247.848C305.613 254.066 301.326 259.139 295.528 262.134C295.307 262.247 295.072 262.301 294.84 262.301Z" fill="white"/>
<path d="M291.333 255.508C290.79 255.508 290.266 255.212 289.999 254.697C289.619 253.961 289.908 253.055 290.644 252.676C293.917 250.987 296.336 248.123 297.455 244.614C298.574 241.104 298.261 237.37 296.57 234.097C296.19 233.361 296.479 232.455 297.215 232.076C297.952 231.698 298.856 231.984 299.236 232.721C303.483 240.947 300.246 251.094 292.02 255.342C291.8 255.454 291.565 255.508 291.333 255.508Z" fill="white"/>
<path d="M203.36 125.847H195.72C195.32 125.847 194.958 126.174 194.916 126.575L193.314 141.815C193.272 142.215 193.565 142.543 193.965 142.543H201.605C202.005 142.543 202.367 142.216 202.409 141.815L204.011 126.575C204.053 126.175 203.76 125.847 203.36 125.847Z" fill="#F27B01"/>
<path opacity="0.4" d="M202.673 125.847H195.72C195.32 125.847 194.958 126.174 194.916 126.575L193.314 141.815C193.272 142.215 193.565 142.543 193.965 142.543H200.918C201.318 142.543 201.68 142.216 201.722 141.815L203.324 126.575C203.366 126.175 203.073 125.847 202.673 125.847Z" fill="white"/>
<path d="M165.07 407.647C166.109 407.647 167.107 407.504 167.423 407.037C167.534 406.874 167.614 406.595 167.37 406.199C167.234 405.976 167.022 405.825 166.743 405.75C165.379 405.384 162.62 406.996 162.503 407.065C162.436 407.105 162.402 407.183 162.418 407.262C162.434 407.341 162.498 407.404 162.577 407.419C163.097 407.523 164.101 407.647 165.07 407.647ZM166.285 406.077C166.42 406.077 166.546 406.091 166.658 406.121C166.837 406.169 166.964 406.257 167.045 406.389C167.191 406.627 167.147 406.745 167.101 406.813C166.747 407.336 164.701 407.348 163.186 407.136C163.92 406.75 165.339 406.077 166.285 406.077Z" fill="#F27B01"/>
<path d="M162.614 407.424C162.641 407.424 162.667 407.418 162.692 407.407C163.65 406.968 165.51 405.217 165.322 404.302C165.278 404.087 165.114 403.819 164.584 403.766C164.189 403.726 163.838 403.837 163.535 404.095C162.542 404.941 162.419 407.122 162.414 407.215C162.41 407.283 162.444 407.349 162.501 407.389C162.535 407.411 162.574 407.424 162.614 407.424ZM164.446 404.141C164.484 404.141 164.522 404.143 164.561 404.147C164.908 404.182 164.936 404.318 164.944 404.363C165.057 404.912 163.802 406.289 162.831 406.888C162.907 406.251 163.138 404.946 163.791 404.391C163.987 404.223 164.203 404.141 164.446 404.141Z" fill="#F27B01"/>
<path d="M161.792 388.479H153.694V407.231H161.792V388.479Z" fill="#FF8B7B"/>
<path d="M94.9482 398.294L103.036 399.169L108.313 380.966L100.225 380.091L94.9482 398.294Z" fill="#FF8B7B"/>
<path d="M106.799 401.013C107.817 401.269 108.83 401.378 109.255 401.009C109.404 400.88 109.551 400.633 109.41 400.193C109.332 399.946 109.161 399.749 108.906 399.608C107.66 398.92 104.558 399.785 104.426 399.822C104.35 399.844 104.297 399.91 104.294 399.99C104.291 400.07 104.337 400.145 104.411 400.18C104.896 400.408 105.85 400.775 106.799 401.013ZM108.378 399.808C108.51 399.841 108.63 399.886 108.732 399.942C108.896 400.032 108.998 400.148 109.045 400.295C109.129 400.559 109.057 400.662 108.995 400.715C108.519 401.129 106.511 400.636 105.079 400.058C105.894 399.87 107.451 399.575 108.378 399.808Z" fill="#F27B01"/>
<path d="M104.447 400.193C104.473 400.2 104.5 400.201 104.527 400.196C105.574 400.012 107.829 398.792 107.871 397.869C107.881 397.652 107.786 397.355 107.281 397.173C106.904 397.037 106.532 397.057 106.172 397.229C104.99 397.795 104.33 399.855 104.303 399.942C104.283 400.006 104.299 400.078 104.345 400.13C104.373 400.162 104.409 400.183 104.447 400.193ZM107.054 397.499C107.091 397.508 107.129 397.52 107.166 397.533C107.497 397.652 107.491 397.789 107.488 397.834C107.463 398.388 105.893 399.398 104.793 399.732C105.025 399.14 105.574 397.947 106.351 397.576C106.584 397.465 106.816 397.439 107.054 397.499Z" fill="#F27B01"/>
<path d="M103.47 398.421L94.6233 395.882C94.3013 395.79 93.9683 395.93 93.8213 396.221L90.5593 402.686C90.2213 403.357 90.6243 404.199 91.3713 404.4C94.4733 405.234 96.0173 405.486 99.9083 406.603C102.302 407.29 107.172 408.951 110.477 409.899C113.71 410.827 115.011 407.744 113.73 407.064C107.986 404.012 106.147 401.549 104.63 399.267C104.357 398.854 103.941 398.556 103.47 398.421Z" fill="#263238"/>
<path d="M161.704 406.294H152.861C152.53 406.294 152.253 406.524 152.196 406.847L150.911 414.045C150.778 414.791 151.375 415.498 152.139 415.485C155.327 415.431 159.928 415.244 163.937 415.244C168.625 415.244 171.189 415.5 176.687 415.5C180.011 415.5 180.787 412.139 179.382 411.835C172.987 410.449 169.304 410.301 163.682 406.925C163.072 406.558 162.403 406.294 161.704 406.294Z" fill="#263238"/>
<path opacity="0.2" d="M161.788 388.484H153.688V398.15H161.788V388.484Z" fill="black"/>
<path opacity="0.2" d="M100.222 380.096L108.313 380.972L105.382 391.069L97.498 389.478L100.222 380.096Z" fill="black"/>
<path d="M148.467 202.029C148.467 202.029 144.004 263.139 139.973 286.323C135.559 311.711 109.904 389.448 109.904 389.448L95.2002 386.765C95.2002 386.765 113.728 313.761 115.781 288.624C118.009 261.343 120.69 205.107 120.69 205.107L148.467 202.029Z" fill="#F27B01"/>
<path opacity="0.3" d="M140.936 227.405C141.745 224.038 143.583 228.269 145.72 235.601C144.103 253.742 141.988 274.753 139.972 286.327C139.518 288.919 138.842 292.064 138.001 295.619C138.743 269.736 138.766 236.487 140.936 227.405Z" fill="black"/>
<path d="M163.738 200.336C163.738 200.336 169.615 261.798 169.814 286.492C170.021 312.177 164.728 396.278 164.728 396.278H151.01C151.01 396.278 146.894 313.678 145.181 288.452C143.313 260.952 135.441 203.471 135.441 203.471L163.738 200.336Z" fill="#F27B01"/>
<path d="M113.005 384.501C113.068 384.512 110.702 389.825 110.702 389.825L94.1592 386.807L95.1632 381.864L113.005 384.501Z" fill="#263238"/>
<path d="M167.128 390.815C167.191 390.815 166.603 396.51 166.603 396.51H149.916L149.243 391.427L167.128 390.815Z" fill="#263238"/>
<path d="M121.119 145.56C120.021 147.695 118.813 149.931 117.706 152.143L114.347 158.799C113.259 161.025 112.194 163.251 111.163 165.477C110.168 167.711 109.191 169.934 108.326 172.153L108.251 168.648C108.871 170.403 109.485 172.195 110.353 173.913C110.744 174.789 111.236 175.627 111.67 176.499C112.165 177.34 112.64 178.198 113.183 179.024C114.227 180.701 115.379 182.342 116.619 183.931C117.242 184.723 117.863 185.525 118.523 186.292C119.168 187.04 119.9 187.838 120.484 188.487L120.685 188.71C121.749 189.895 121.652 191.718 120.467 192.782C119.528 193.625 118.184 193.736 117.139 193.157C115.995 192.521 115.079 191.931 114.112 191.253C113.165 190.586 112.23 189.901 111.332 189.168C109.534 187.705 107.856 186.089 106.274 184.354C104.702 182.615 103.22 180.755 101.925 178.74C100.585 176.756 99.4679 174.591 98.4619 172.363C98.0139 171.371 97.9659 170.3 98.2479 169.332L98.3869 168.858C99.1499 166.249 99.9999 163.715 100.94 161.236C101.876 158.762 102.878 156.331 103.938 153.937C104.991 151.542 106.113 149.187 107.278 146.856C108.477 144.526 109.628 142.246 110.985 139.917C112.598 137.149 116.149 136.214 118.916 137.826C121.591 139.385 122.555 142.754 121.16 145.476L121.119 145.56Z" fill="#FF8B7B"/>
<path d="M126.864 142.019C127.262 149.645 118.601 163.659 118.601 163.659L100.769 154.749C100.769 154.749 103.811 145.084 110.646 137.522C120.086 127.081 126.495 134.956 126.864 142.019Z" fill="#263238"/>
<path d="M114.777 191.735L118.367 197.737L125.837 192.957C125.837 192.957 123.852 189.14 120.03 187.73C118.894 187.311 117.606 187.851 116.992 188.998L114.777 191.735Z" fill="#FF8B7B"/>
<path d="M121.363 200.291L124.834 199.641C126.063 199.411 126.869 198.223 126.629 196.996L125.837 192.957L118.367 197.737L118.873 198.946C119.282 199.926 120.32 200.486 121.363 200.291Z" fill="#FF8B7B"/>
<path d="M142.425 103.66C142.503 104.315 142.909 104.818 143.331 104.785C143.753 104.751 144.032 104.194 143.953 103.539C143.875 102.884 143.469 102.381 143.047 102.414C142.626 102.447 142.347 103.005 142.425 103.66Z" fill="#263238"/>
<path d="M142.851 104.823C142.851 104.823 144.77 108.483 146.604 110.177C145.591 111.348 143.59 111.008 143.59 111.008L142.851 104.823Z" fill="#FF5652"/>
<path d="M139.628 100.212C139.731 100.225 139.836 100.196 139.917 100.124C141.156 99.024 142.497 99.394 142.553 99.409C142.759 99.467 142.964 99.351 143.015 99.148C143.066 98.944 142.943 98.731 142.739 98.67C142.669 98.648 140.952 98.158 139.4 99.536C139.244 99.673 139.235 99.917 139.378 100.079C139.446 100.155 139.536 100.201 139.628 100.212Z" fill="#263238"/>
<path d="M122.271 110.902C124.183 116.686 126.722 127.365 123.096 131.637C123.096 131.637 125.476 137.467 136.445 136.543C148.506 135.527 141.443 130.092 141.443 130.092C134.659 129.08 134.204 124.2 134.764 119.534L122.271 110.902Z" fill="#FF8B7B"/>
<path d="M120.513 133.753C119.376 131.943 118.117 129.87 120.258 129.099C122.614 128.251 135.807 126.87 140.506 128.026C145.205 129.182 144.253 133.008 144.253 133.008L120.513 133.753Z" fill="#F27B01"/>
<path d="M159.16 136.19C160.881 137.772 162.741 139.516 164.589 141.121C166.437 142.76 168.313 144.361 170.191 145.942C172.085 147.497 173.993 149.012 175.919 150.461C177.861 151.869 179.806 153.227 181.773 154.417L177.761 154.043C179.244 153.669 180.844 152.954 182.407 151.889C183.965 150.826 185.524 149.513 186.977 148.009C188.455 146.527 189.846 144.866 191.189 143.137C191.856 142.269 192.528 141.389 193.158 140.48C193.777 139.587 194.422 138.611 194.974 137.775L195.083 137.61C195.961 136.278 197.753 135.911 199.085 136.789C200.168 137.503 200.611 138.824 200.268 140.007C199.89 141.306 199.494 142.416 199.028 143.584C198.57 144.735 198.093 145.882 197.549 147.003C196.461 149.246 195.209 151.437 193.722 153.548C192.223 155.643 190.518 157.692 188.419 159.519C186.334 161.343 183.839 162.996 180.876 164.04C179.621 164.482 178.305 164.369 177.196 163.829L176.864 163.666C174.327 162.419 171.935 161.05 169.647 159.579C167.368 158.109 165.177 156.556 163.052 154.942C160.929 153.33 158.879 151.645 156.879 149.91C154.883 148.136 152.959 146.431 151.011 144.444C148.77 142.156 148.807 138.484 151.095 136.243C153.306 134.077 156.81 134.039 159.066 136.105L159.16 136.19Z" fill="#FF8B7B"/>
<path d="M153.055 131.007C153.055 131.007 163.13 140.79 164.296 201.285C148.185 205.188 132.669 206.629 120.691 205.107C120.116 197.518 119.272 171.182 111.569 143.408C110.196 138.457 113.312 133.394 118.357 132.42C119.889 132.124 121.498 131.851 123.097 131.638C128.578 130.909 136.539 130.061 141.443 130.094C147.908 130.136 153.055 131.007 153.055 131.007Z" fill="#263238"/>
<path d="M145.228 141.54C146.195 149.115 159.181 163.659 159.181 163.659L174.614 147.664C174.614 147.664 167.94 140.484 159.787 134.366C148.528 125.92 144.332 134.524 145.228 141.54Z" fill="#263238"/>
<path d="M199.324 142.659L204.481 137.935L198.295 131.58C198.295 131.58 194.955 134.293 194.343 138.32C194.161 139.517 194.95 140.67 196.197 141.041L199.324 142.659Z" fill="#FF8B7B"/>
<path d="M206.38 134.486L205.045 131.217C204.572 130.059 203.247 129.509 202.093 129.991L198.296 131.579L204.482 137.934L205.565 137.196C206.441 136.598 206.781 135.468 206.38 134.486Z" fill="#FF8B7B"/>
<path d="M120.728 103.979C122.176 111.98 122.624 116.72 127.121 120.529C133.886 126.259 143.232 121.801 144.164 113.626C145.003 106.268 142.494 94.419 134.351 91.835C126.329 89.289 119.28 95.978 120.728 103.979Z" fill="#FF8B7B"/>
<path d="M136.505 106.877C139.316 107.524 141.532 104.275 141.796 103.349C140.429 103.481 138.004 102.776 137.519 102.158C139.018 102.29 140.473 100.438 140.65 99.733C139.018 99.513 137.211 98.101 136.726 97.175C139.151 97.131 142.077 92.854 139.401 89.017C136.726 85.181 125.57 88.4 123.982 85.666C121.645 87.033 123.717 88.841 123.717 88.841C123.717 88.841 107.931 91.795 115.207 97.925C109.872 98.41 109.122 104.723 113.575 107.938C118.029 111.153 118.249 113.27 116.485 113.005C117.19 114.372 120.36 114.548 120.539 113.226C121.291 116.004 123.452 119.752 128.435 119.135C133.418 118.518 138.312 111.551 136.505 106.877Z" fill="#263238"/>
<path d="M116.611 97.003C112.854 97.52 111.138 95.398 112.083 93.531C107.425 95.909 112.511 101.173 116.611 97.003Z" fill="#263238"/>
<path d="M132.607 105.664C133.25 107.408 134.574 108.897 135.888 109.776C137.864 111.098 139.702 109.79 139.357 107.743C139.046 105.901 137.644 102.993 135.562 102.474C133.511 101.963 131.872 103.67 132.607 105.664Z" fill="#FF8B7B"/>
<path d="M386.785 387.517C379.384 370.056 376.394 349.543 384.865 350.368C393.555 351.214 392.531 382.172 393.945 385.572C391.228 387.901 386.785 387.517 386.785 387.517Z" fill="#F27B01"/>
<path d="M389.181 354.391C387.355 361.046 385.434 371.34 383.956 380.06C384.796 382.558 385.745 385.069 386.778 387.519C386.778 387.519 391.223 387.903 393.949 385.573C392.833 382.895 393.229 363.051 389.181 354.391Z" fill="#263238"/>
<path d="M389.216 384.32C386.904 347.217 393.247 312.831 409.86 314.384C424.141 315.719 403.32 378.181 403.721 385.388C397.181 387.924 389.216 384.32 389.216 384.32Z" fill="#F27B01"/>
<path d="M400.016 384.077C402.634 357.412 416.696 326.294 422.741 336.69C430.414 349.886 410.757 381.329 410.214 386.503C405.269 387.556 400.016 384.077 400.016 384.077Z" fill="#F27B01"/>
<path d="M397.367 324.286C395.683 324.01 394.743 322.956 394.849 321.468C394.97 319.792 396.349 318.123 397.633 318.098C398.244 318.103 399.288 318.415 399.546 320.735L398.552 320.846C398.43 319.749 398.098 319.098 397.661 319.098C397.658 319.098 397.655 319.098 397.652 319.098C396.969 319.111 395.932 320.344 395.846 321.539C395.776 322.513 396.342 323.104 397.528 323.3L397.367 324.286Z" fill="#F27B01"/>
<path d="M415.331 331.013C414.826 331.013 414.16 330.817 413.287 330.244L413.835 329.408C414.765 330.014 415.481 330.174 415.755 329.827C416.18 329.293 415.89 327.708 415.023 326.881C414.316 326.206 413.5 326.265 412.593 327.056L411.938 326.302C413.222 325.182 414.636 325.128 415.714 326.157C416.929 327.317 417.336 329.443 416.537 330.449C416.331 330.711 415.956 331.013 415.331 331.013Z" fill="#F27B01"/>
<path d="M390.815 346.103C389.464 346.103 388.506 345.398 388.2 344.14C387.802 342.508 388.603 340.498 389.818 340.081C390.389 339.887 391.489 339.875 392.446 342.006L391.534 342.416C391.08 341.403 390.564 340.885 390.142 341.026C389.496 341.248 388.887 342.739 389.171 343.904C389.401 344.851 390.124 345.239 391.31 345.065L391.458 346.053C391.235 346.086 391.021 346.103 390.815 346.103Z" fill="#F27B01"/>
<path d="M380.174 366.814C379.149 366.814 378.331 366.295 377.882 365.317C377.182 363.79 377.589 361.663 378.702 361.023C379.227 360.723 380.305 360.504 381.647 362.416L380.829 362.99C380.191 362.082 379.581 361.671 379.2 361.89C378.608 362.23 378.292 363.809 378.791 364.899C379.199 365.788 379.98 366.032 381.112 365.634L381.444 366.577C380.996 366.735 380.569 366.814 380.174 366.814Z" fill="#F27B01"/>
<path d="M397.888 336.621C397.787 336.621 397.686 336.591 397.597 336.528C396.223 335.546 395.729 334.188 396.277 332.897C396.855 331.535 398.424 330.629 399.772 330.876C400.389 330.989 401.835 331.54 401.936 334.202C401.946 334.477 401.731 334.71 401.455 334.721C401.186 334.729 400.947 334.515 400.936 334.24C400.884 332.855 400.407 332.01 399.591 331.86C398.708 331.699 397.589 332.365 397.196 333.289C396.835 334.143 397.183 335.004 398.178 335.715C398.403 335.876 398.454 336.189 398.294 336.413C398.197 336.549 398.043 336.621 397.888 336.621Z" fill="white"/>
<path d="M409.744 363.611C409.513 363.611 409.305 363.449 409.256 363.213C409.199 362.943 409.373 362.678 409.644 362.622C411.001 362.34 411.754 361.727 411.766 360.899C411.78 360.001 410.935 359.009 409.958 358.777C409.061 358.562 408.265 359.049 407.729 360.149C407.609 360.399 407.307 360.499 407.061 360.379C406.813 360.258 406.709 359.959 406.831 359.711C407.571 358.191 408.821 357.477 410.191 357.804C411.631 358.147 412.786 359.541 412.766 360.913C412.757 361.54 412.455 363.058 409.847 363.599C409.813 363.608 409.778 363.611 409.744 363.611Z" fill="white"/>
<path d="M423.799 355.185C423.225 355.185 422.454 354.841 421.586 353.548L422.416 352.991C423.035 353.913 423.631 354.329 424.022 354.125C424.621 353.797 424.97 352.225 424.494 351.124C424.106 350.228 423.329 349.967 422.189 350.341L421.876 349.392C423.494 348.858 424.817 349.358 425.41 350.727C426.079 352.269 425.628 354.386 424.501 355.002C424.325 355.099 424.087 355.185 423.799 355.185Z" fill="#F27B01"/>
<path d="M420.821 393.874C420.821 388.316 418.786 383.239 415.429 379.334C416.124 379.217 416.667 378.636 416.667 377.91C416.667 377.1 416.005 376.438 415.195 376.438H381.714C380.904 376.438 380.242 377.101 380.242 377.91C380.242 378.639 380.789 379.222 381.487 379.336C378.123 383.24 376.088 388.317 376.088 393.874C376.088 402.451 380.924 409.9 388.015 413.652C387.497 413.925 387.137 414.463 387.137 415.087C387.137 415.982 387.869 416.714 388.764 416.714H408.147C409.042 416.714 409.774 415.982 409.774 415.087C409.774 414.464 409.415 413.926 408.898 413.653C415.989 409.902 420.821 402.452 420.821 393.874Z" fill="#263238"/>
</svg>
