<svg width="300" height="200" viewBox="0 0 300 200" fill="none" xmlns="http://www.w3.org/2000/svg">
<path d="M116.679 74.2547C114.897 76.9675 113.699 79.9479 113.061 83.0219L108.165 83.4831L108.165 92.9643L113.061 93.4255C113.699 96.4987 114.898 99.4791 116.679 102.193L113.552 105.97L120.257 112.674L124.033 109.547C126.747 111.329 129.727 112.527 132.8 113.165L133.261 118.061L142.742 118.061L143.203 113.166C146.277 112.527 149.257 111.329 151.971 109.548L155.748 112.674L162.452 105.97L159.325 102.193C161.107 99.4791 162.305 96.4991 162.943 93.4259L167.838 92.9647L167.839 83.4835L162.943 83.0219C162.305 79.9487 161.107 76.9687 159.325 74.2555L162.452 70.4783L155.747 63.7743L151.971 66.9011C149.257 65.1195 146.277 63.9207 143.204 63.2827L142.743 58.3867L133.261 58.3871L132.801 63.2827C129.727 63.9211 126.747 65.1187 124.034 66.9007L120.257 63.7735L113.552 70.4779L116.679 74.2547ZM147.078 79.1475C152.089 84.1599 152.09 92.2867 147.078 97.2991C142.065 102.312 133.938 102.312 128.926 97.2995C123.913 92.2871 123.914 84.1603 128.926 79.1475C133.939 74.1359 142.065 74.1355 147.078 79.1475Z" fill="#E0E0E0"/>
<path d="M73.4219 57.6784C72.4191 59.2052 71.7447 60.8824 71.3855 62.6124L68.6303 62.872L68.6299 68.208L71.3855 68.4676C71.7443 70.1972 72.4191 71.8744 73.4219 73.402L71.6619 75.5276L75.4351 79.3008L77.5607 77.5412C79.0879 78.544 80.7651 79.2184 82.4947 79.5772L82.7539 82.3328L88.0899 82.3324L88.3495 79.5772C90.0795 79.218 91.7567 78.5436 93.2839 77.5408L95.4095 79.3004L99.1827 75.5272L97.4231 73.4016C98.4255 71.8744 99.0999 70.1972 99.4591 68.4676L102.214 68.208L102.215 62.872L99.4595 62.6124C99.1003 60.8828 98.4255 59.2056 97.4231 57.6788L99.1827 55.5532L95.4095 51.78L93.2839 53.5396C91.7567 52.5368 90.0795 51.862 88.3499 51.5032L88.0903 48.7476L82.7543 48.748L82.4951 51.5036C80.7655 51.8628 79.0883 52.5368 77.5611 53.5396L75.4351 51.7796L71.6619 55.5528L73.4219 57.6784ZM90.5307 60.432C93.3515 63.2528 93.3515 67.8268 90.5307 70.648C87.7095 73.4692 83.1355 73.4688 80.3147 70.648C77.4935 67.8268 77.4939 63.2532 80.3147 60.432C83.1359 57.6116 87.7095 57.6112 90.5307 60.432Z" fill="#E0E0E0"/>
<path d="M87.8177 34.4885C87.3165 35.2517 86.9796 36.0901 86.8 36.9545L85.4229 37.0841V39.7509L86.8 39.8805C86.9796 40.7449 87.3165 41.5833 87.8177 42.3465L86.938 43.4089L88.824 45.2945L89.8865 44.4149C90.6497 44.9161 91.488 45.2533 92.3524 45.4325L92.4821 46.8097H95.1488L95.2784 45.4329C96.1428 45.2533 96.9812 44.9161 97.7444 44.4153L98.8068 45.2949L100.693 43.4093L99.8133 42.3469C100.314 41.5837 100.651 40.7453 100.831 39.8809L102.208 39.7513L102.208 37.0845L100.831 36.9545C100.651 36.0901 100.314 35.2517 99.8133 34.4885L100.693 33.4261L98.8073 31.5405L97.7448 32.4201C96.9816 31.9189 96.1433 31.5817 95.2789 31.4021L95.1493 30.0249H92.4824L92.3529 31.4021C91.4885 31.5817 90.65 31.9185 89.8868 32.4197L88.8245 31.5401L86.9384 33.4261L87.8177 34.4885ZM96.3685 35.8649C97.7781 37.2749 97.7785 39.5609 96.3685 40.9705C94.9585 42.3805 92.6724 42.3805 91.2628 40.9705C89.8528 39.5605 89.8528 37.2749 91.2628 35.8649C92.6724 34.4549 94.9581 34.4549 96.3685 35.8649Z" fill="#E0E0E0"/>
<path d="M66.226 112.931L49.016 116.317C48.2548 116.467 47.5164 115.971 47.3664 115.21L42.8616 92.3138C42.712 91.5526 43.2076 90.8142 43.9688 90.6646L61.1788 87.2786C61.94 87.129 62.6784 87.6246 62.8284 88.3858L67.3332 111.282C67.4828 112.043 66.9872 112.781 66.226 112.931Z" fill="#E6E6E6"/>
<path d="M59.6009 95.1619L48.4161 97.3623C48.0313 97.4379 47.6581 97.1875 47.5825 96.8027L47.5213 96.4923C47.4457 96.1075 47.6961 95.7343 48.0809 95.6587L59.2657 93.4583C59.6505 93.3827 60.0237 93.6331 60.0993 94.0175L60.1605 94.3283C60.2357 94.7131 59.9853 95.0863 59.6009 95.1619Z" fill="#F0F0F0"/>
<path d="M60.4583 99.5197L49.2735 101.721C48.8887 101.796 48.5159 101.546 48.4399 101.161L48.3787 100.85C48.3031 100.465 48.5535 100.093 48.9383 100.017L60.1231 97.8157C60.5079 97.7401 60.8811 97.9905 60.9567 98.3753L61.0179 98.6861C61.0935 99.0709 60.8431 99.4441 60.4583 99.5197Z" fill="#F0F0F0"/>
<path d="M61.3157 103.878L50.1309 106.078C49.7461 106.154 49.3729 105.904 49.2973 105.519L49.2361 105.208C49.1605 104.823 49.4109 104.45 49.7957 104.374L60.9805 102.174C61.3653 102.098 61.7385 102.348 61.8141 102.733L61.8753 103.044C61.9509 103.429 61.7005 103.802 61.3157 103.878Z" fill="#F0F0F0"/>
<path d="M56.2231 109.407L50.9883 110.437C50.6035 110.512 50.2307 110.262 50.1547 109.877L50.0935 109.567C50.0179 109.182 50.2683 108.809 50.6531 108.733L55.8879 107.703C56.2727 107.627 56.6459 107.878 56.7215 108.263L56.7827 108.573C56.8579 108.958 56.6075 109.331 56.2231 109.407Z" fill="#F0F0F0"/>
<path d="M82.9791 135.974L72.0871 134.673C71.3167 134.581 70.7667 133.883 70.8587 133.112L72.6243 118.324C72.7163 117.553 73.4151 117.004 74.1855 117.095L85.0775 118.396C85.8479 118.488 86.3979 119.187 86.3059 119.957L84.5403 134.745C84.4483 135.516 83.7495 136.066 82.9791 135.974Z" fill="#E6E6E6"/>
<path d="M82.7614 123.186L75.3102 122.297C74.9878 122.258 74.7578 121.966 74.7962 121.644C74.8346 121.321 75.127 121.091 75.4494 121.13L82.9006 122.019C83.223 122.058 83.453 122.35 83.4146 122.672C83.3762 122.995 83.0834 123.225 82.7614 123.186Z" fill="#F0F0F0"/>
<path d="M82.404 126.173L74.9528 125.283C74.6304 125.245 74.4004 124.952 74.4388 124.63C74.4772 124.308 74.7696 124.078 75.092 124.116L82.5432 125.006C82.8656 125.044 83.0956 125.336 83.0572 125.659C83.0188 125.981 82.7264 126.212 82.404 126.173Z" fill="#F0F0F0"/>
<path d="M82.0475 129.159L74.5963 128.27C74.2739 128.231 74.0439 127.939 74.0823 127.616C74.1207 127.294 74.4131 127.064 74.7355 127.102L82.1867 127.992C82.5091 128.03 82.7391 128.323 82.7007 128.645C82.6623 128.968 82.3699 129.198 82.0475 129.159Z" fill="#F0F0F0"/>
<path d="M77.6143 131.659L74.2399 131.256C73.9175 131.217 73.6875 130.925 73.7259 130.603C73.7643 130.28 74.0567 130.05 74.3791 130.089L77.7535 130.491C78.0759 130.53 78.3059 130.823 78.2675 131.145C78.2291 131.467 77.9367 131.697 77.6143 131.659Z" fill="#F0F0F0"/>
<path d="M263.249 90.0459L250.371 85.1603C249.646 84.8851 249.28 84.0739 249.556 83.3487L256.117 66.0547C256.392 65.3295 257.203 64.9647 257.928 65.2395L270.807 70.1255C271.532 70.4007 271.897 71.2119 271.622 71.9371L265.061 89.2311C264.786 89.9563 263.974 90.3211 263.249 90.0459Z" fill="#E6E6E6"/>
<path d="M266.553 74.9884L257.885 71.6996C257.582 71.5844 257.429 71.2452 257.544 70.9416L257.629 70.718C257.744 70.4144 258.083 70.2616 258.387 70.3768L267.055 73.6656C267.359 73.7808 267.511 74.12 267.396 74.4236L267.311 74.6472C267.196 74.9508 266.857 75.1036 266.553 74.9884Z" fill="#F0F0F0"/>
<path d="M265.269 78.3727L256.601 75.0843C256.298 74.9691 256.145 74.6299 256.26 74.3263L256.345 74.1027C256.46 73.7991 256.799 73.6463 257.103 73.7615L265.771 77.0499C266.074 77.1651 266.227 77.5043 266.112 77.8079L266.027 78.0315C265.912 78.3351 265.573 78.4879 265.269 78.3727Z" fill="#F0F0F0"/>
<path d="M263.985 81.757L255.317 78.4686C255.014 78.3534 254.861 78.0142 254.976 77.7106L255.061 77.487C255.176 77.1834 255.515 77.0306 255.819 77.1458L264.487 80.4342C264.79 80.5494 264.943 80.8886 264.828 81.1922L264.743 81.4158C264.628 81.7194 264.289 81.8722 263.985 81.757Z" fill="#F0F0F0"/>
<path d="M258.082 83.3885L254.034 81.8529C253.73 81.7377 253.577 81.3985 253.693 81.0949L253.778 80.8713C253.893 80.5677 254.232 80.4149 254.535 80.5301L258.583 82.0657C258.887 82.1809 259.04 82.5201 258.924 82.8237L258.839 83.0473C258.725 83.3509 258.385 83.5037 258.082 83.3885Z" fill="#F0F0F0"/>
<path d="M159.1 33.2295H155.042C154.695 33.2295 154.414 32.9479 154.414 32.6011V27.5683C154.414 27.2211 154.695 26.9399 155.042 26.9399H159.1C159.448 26.9399 159.729 27.2211 159.729 27.5683V32.6007C159.729 32.9479 159.447 33.2295 159.1 33.2295Z" fill="#E0E0E0"/>
<path d="M167.094 33.2291H163.036C162.688 33.2291 162.407 32.9475 162.407 32.6007V22.6767C162.407 22.3295 162.689 22.0483 163.036 22.0483H167.094C167.441 22.0483 167.722 22.3299 167.722 22.6767V32.6007C167.722 32.9475 167.441 33.2291 167.094 33.2291Z" fill="#E0E0E0"/>
<path d="M175.7 33.3694H171.642C171.295 33.3694 171.014 33.0882 171.014 32.741V17.8462C171.014 17.499 171.295 17.2178 171.642 17.2178H175.7C176.047 17.2178 176.328 17.499 176.328 17.8462V32.741C176.328 33.0878 176.047 33.3694 175.7 33.3694Z" fill="#E0E0E0"/>
<path d="M190.639 109.759C189.674 111.229 189.026 112.843 188.68 114.507L186.029 114.757L186.028 119.891L188.68 120.141C189.025 121.805 189.674 123.419 190.639 124.889L188.946 126.934L192.576 130.565L194.622 128.872C196.091 129.836 197.705 130.485 199.369 130.831L199.619 133.483L204.753 133.482L205.003 130.831C206.667 130.485 208.281 129.837 209.751 128.872L211.796 130.565L215.427 126.935L213.734 124.889C214.698 123.419 215.347 121.806 215.693 120.141L218.344 119.892L218.344 114.757L215.693 114.507C215.348 112.843 214.698 111.229 213.734 109.76L215.427 107.715L211.796 104.084L209.751 105.777C208.281 104.813 206.667 104.163 205.003 103.818L204.754 101.167L199.619 101.167L199.37 103.818C197.705 104.164 196.092 104.813 194.622 105.777L192.576 104.084L188.946 107.715L190.639 109.759ZM207.102 112.409C209.816 115.124 209.816 119.525 207.102 122.239C204.387 124.954 199.986 124.954 197.272 122.239C194.557 119.525 194.557 115.124 197.272 112.409C199.986 109.695 204.387 109.695 207.102 112.409Z" fill="#E0E0E0"/>
<path d="M222.428 121.911C221.972 122.604 221.666 123.366 221.503 124.152L220.252 124.269V126.692L221.503 126.81C221.666 127.595 221.972 128.357 222.428 129.05L221.628 130.016L223.342 131.729L224.307 130.93C225 131.385 225.762 131.692 226.547 131.854L226.665 133.106H229.088L229.206 131.855C229.991 131.692 230.752 131.386 231.446 130.93L232.411 131.729L234.124 130.016L233.326 129.051C233.781 128.358 234.087 127.596 234.25 126.81L235.501 126.692V124.27L234.25 124.152C234.086 123.366 233.78 122.605 233.325 121.912L234.124 120.946L232.41 119.233L231.445 120.032C230.752 119.577 229.99 119.27 229.205 119.107L229.087 117.856H226.664L226.546 119.107C225.761 119.27 224.999 119.576 224.306 120.032L223.341 119.232L221.628 120.946L222.428 121.911ZM230.196 123.162C231.476 124.442 231.476 126.519 230.196 127.8C228.915 129.081 226.838 129.081 225.557 127.8C224.276 126.519 224.276 124.443 225.557 123.162C226.838 121.881 228.915 121.881 230.196 123.162Z" fill="#E0E0E0"/>
<path d="M200.884 85.0415C200.428 85.7347 200.122 86.4963 199.959 87.2819L198.708 87.3995V89.8223L199.959 89.9403C200.122 90.7255 200.428 91.4871 200.884 92.1807L200.084 93.1459L201.798 94.8591L202.763 94.0603C203.456 94.5155 204.218 94.8219 205.003 94.9847L205.121 96.2359H207.544L207.662 94.9851C208.447 94.8219 209.208 94.5159 209.902 94.0607L210.867 94.8595L212.58 93.1463L211.782 92.1811C212.237 91.4875 212.543 90.7263 212.706 89.9407L213.957 89.8227V87.3999L212.706 87.2819C212.542 86.4967 212.236 85.7351 211.781 85.0419L212.58 84.0767L210.866 82.3635L209.901 83.1623C209.208 82.7071 208.446 82.4007 207.661 82.2375L207.543 80.9863H205.12L205.002 82.2375C204.217 82.4007 203.456 82.7067 202.762 83.1619L201.797 82.3627L200.084 84.0759L200.884 85.0415ZM208.652 86.2919C209.932 87.5727 209.932 89.6495 208.652 90.9303C207.371 92.2111 205.294 92.2111 204.013 90.9303C202.732 89.6495 202.732 87.5727 204.013 86.2919C205.294 85.0111 207.37 85.0111 208.652 86.2919Z" fill="#F5F5F5"/>
<path d="M220.639 93.9365C219.784 95.2381 219.209 96.6677 218.903 98.1425L216.554 98.3637V102.913L218.903 103.134C219.209 104.608 219.784 106.038 220.639 107.34L219.138 109.152L222.355 112.368L224.167 110.868C225.469 111.723 226.898 112.298 228.373 112.604L228.594 114.953L233.143 114.953L233.364 112.604C234.838 112.298 236.268 111.723 237.57 110.868L239.382 112.368L242.599 109.152L241.099 107.34C241.953 106.038 242.528 104.608 242.834 103.134L245.182 102.913L245.183 98.3637L242.834 98.1425C242.528 96.6681 241.953 95.2385 241.098 93.9369L242.598 92.1249L239.382 88.9085L237.57 90.4085C236.268 89.5537 234.838 88.9785 233.364 88.6725L233.143 86.3237L228.594 86.3241L228.373 88.6729C226.898 88.9793 225.469 89.5537 224.167 90.4085L222.355 88.9081L219.138 92.1245L220.639 93.9365ZM235.223 96.2841C237.627 98.6889 237.627 102.588 235.223 104.993C232.818 107.397 228.919 107.397 226.514 104.993C224.109 102.588 224.11 98.6889 226.514 96.2841C228.919 93.8797 232.818 93.8793 235.223 96.2841Z" fill="#F5F5F5"/>
<path d="M58.5083 30.4945C57.7615 31.6313 57.2595 32.8805 56.9919 34.1689L54.9399 34.3621L54.9395 38.3357L56.9915 38.5289C57.2587 39.8169 57.7611 41.0661 58.5079 42.2033L57.1971 43.7861L60.0071 46.5961L61.5899 45.2857C62.7271 46.0325 63.9759 46.5345 65.2643 46.8017L65.4575 48.8537L69.4311 48.8533L69.6243 46.8017C70.9127 46.5341 72.1615 46.0321 73.2987 45.2853L74.8815 46.5957L77.6915 43.7857L76.3811 42.2029C77.1275 41.0657 77.6299 39.8169 77.8971 38.5285L79.9487 38.3353L79.9491 34.3617L77.8971 34.1681C77.6295 32.8801 77.1271 31.6313 76.3807 30.4941L77.6911 28.9109L74.8811 26.1013L73.2983 27.4117C72.1607 26.6649 70.9119 26.1625 69.6239 25.8953L69.4307 23.8433H65.4571L65.2639 25.8953C63.9759 26.1629 62.7267 26.6649 61.5899 27.4117L60.0067 26.1013L57.1967 28.9113L58.5083 30.4945ZM71.2487 32.5453C73.3491 34.6461 73.3491 38.0521 71.2487 40.1529C69.1479 42.2537 65.7415 42.2537 63.6411 40.1529C61.5403 38.0521 61.5403 34.6461 63.6411 32.5453C65.7419 30.4449 69.1479 30.4445 71.2487 32.5453Z" fill="#F5F5F5"/>
<path d="M269.493 126.872H197.194C195.902 126.872 194.85 125.82 194.85 124.527V19.2174C194.85 17.9246 195.902 16.8726 197.194 16.8726H269.493C270.786 16.8726 271.838 17.9242 271.838 19.2174V124.527C271.838 125.82 270.786 126.872 269.493 126.872ZM197.194 16.973C195.956 16.973 194.95 17.9798 194.95 19.2178V124.527C194.95 125.765 195.957 126.772 197.194 126.772H269.493C270.731 126.772 271.738 125.765 271.738 124.527V19.2174C271.738 17.9798 270.73 16.9726 269.493 16.9726L197.194 16.973Z" fill="#E0E0E0"/>
<path d="M186.122 126.872H113.823C112.531 126.872 111.479 125.82 111.479 124.527V19.2174C111.479 17.9246 112.53 16.8726 113.823 16.8726H186.122C187.415 16.8726 188.467 17.9242 188.467 19.2174V124.527C188.467 125.82 187.415 126.872 186.122 126.872ZM113.823 16.973C112.586 16.973 111.579 17.9798 111.579 19.2178V124.527C111.579 125.765 112.586 126.772 113.823 126.772H186.122C187.36 126.772 188.367 125.765 188.367 124.527V19.2174C188.367 17.9798 187.36 16.9726 186.122 16.9726L113.823 16.973Z" fill="#E0E0E0"/>
<path d="M102.804 126.872H30.5059C29.2131 126.872 28.1611 125.82 28.1611 124.527V19.2174C28.1611 17.9246 29.2127 16.8726 30.5059 16.8726H102.804C104.097 16.8726 105.149 17.9242 105.149 19.2174V124.527C105.15 125.82 104.098 126.872 102.804 126.872ZM30.5059 16.973C29.2683 16.973 28.2611 17.9798 28.2611 19.2178V124.527C28.2611 125.765 29.2683 126.772 30.5059 126.772H102.804C104.042 126.772 105.049 125.765 105.049 124.527V19.2174C105.049 17.9798 104.042 16.9726 102.804 16.9726L30.5059 16.973Z" fill="#E0E0E0"/>
<path d="M300 151.3H0V151.348H300V151.3Z" fill="#E0E0E0"/>
<path d="M283.742 163.05H261.45V163.219H283.742V163.05Z" fill="#EBEBEB"/>
<path d="M203.868 164.876H198.018V165.045H203.868V164.876Z" fill="#EBEBEB"/>
<path d="M45.3274 157.931H16.2578V158.1H45.3274V157.931Z" fill="#EBEBEB"/>
<path d="M55.5817 157.931H51.3193V158.1H55.5817V157.931Z" fill="#EBEBEB"/>
<path d="M132.48 160.773H69.4346V160.941H132.48V160.773Z" fill="#EBEBEB"/>
<path d="M251.751 184.256C251.751 185.61 206.196 186.708 150 186.708C93.8036 186.708 48.248 185.61 48.248 184.256C48.248 182.901 93.8036 181.803 150 181.803C206.196 181.803 251.751 182.901 251.751 184.256Z" fill="#F5F5F5"/>
<path d="M72.2164 77.6778H30.1448C29.24 77.6778 28.5068 76.9446 28.5068 76.0398V52.4026C28.5068 51.4982 29.24 50.7646 30.1448 50.7646H72.2164C73.1208 50.7646 73.8544 51.4978 73.8544 52.4026V76.0398C73.8544 76.9446 73.1212 77.6778 72.2164 77.6778Z" fill="#F27B01"/>
<path opacity="0.8" d="M72.2164 77.6778H30.1448C29.24 77.6778 28.5068 76.9446 28.5068 76.0398V52.4026C28.5068 51.4982 29.24 50.7646 30.1448 50.7646H72.2164C73.1208 50.7646 73.8544 51.4978 73.8544 52.4026V76.0398C73.8544 76.9446 73.1212 77.6778 72.2164 77.6778Z" fill="white" fill-opacity="0.5"/>
<path d="M35.3252 65.7136C35.522 65.5364 40.8296 60.2961 40.8296 60.2961L46.0644 62.8724L51.1812 56.8521L56.416 64.3953L61.5216 61.0636" stroke="#263238" stroke-width="0.5" stroke-miterlimit="10"/>
<path d="M36.9647 68.0732H34.5107V73.5112H36.9647V68.0732Z" fill="#F27B01"/>
<path d="M42.0175 64.4795H39.5635V73.5107H42.0175V64.4795Z" fill="#F27B01"/>
<path d="M47.1673 65.3877H44.7129V73.5109H47.1673V65.3877Z" fill="#F27B01"/>
<path d="M52.4085 60.2959H49.9541V73.5107H52.4085V60.2959Z" fill="#F27B01"/>
<path d="M57.7054 67.3032H55.251V73.5108H57.7054V67.3032Z" fill="#F27B01"/>
<path d="M37.0557 65.0977C37.0557 65.8261 36.4653 66.4161 35.7373 66.4161C35.0089 66.4161 34.4189 65.8257 34.4189 65.0977C34.4189 64.3693 35.0093 63.7793 35.7373 63.7793C36.4653 63.7789 37.0557 64.3693 37.0557 65.0977Z" fill="#F27B01"/>
<path d="M42.1085 60.2959C42.1085 61.0239 41.5181 61.6143 40.7901 61.6143C40.0621 61.6143 39.4717 61.0239 39.4717 60.2959C39.4717 59.5675 40.0621 58.9775 40.7901 58.9775C41.5181 58.9775 42.1085 59.5679 42.1085 60.2959Z" fill="#F27B01"/>
<path d="M47.3829 62.4605C47.3829 63.1889 46.7925 63.7789 46.0645 63.7789C45.3361 63.7789 44.7461 63.1885 44.7461 62.4605C44.7461 61.7325 45.3365 61.1421 46.0645 61.1421C46.7929 61.1421 47.3829 61.7325 47.3829 62.4605Z" fill="#F27B01"/>
<path d="M52.4991 56.8521C52.4991 57.5801 51.9087 58.1705 51.1807 58.1705C50.4527 58.1705 49.8623 57.5801 49.8623 56.8521C49.8623 56.1237 50.4527 55.5337 51.1807 55.5337C51.9087 55.5333 52.4991 56.1237 52.4991 56.8521Z" fill="#F27B01"/>
<path d="M57.7345 64.3951C57.7345 65.1231 57.1441 65.7135 56.4161 65.7135C55.6877 65.7135 55.0977 65.1231 55.0977 64.3951C55.0977 63.6667 55.6881 63.0767 56.4161 63.0767C57.1441 63.0767 57.7345 63.6671 57.7345 64.3951Z" fill="#F27B01"/>
<path d="M62.9505 64.1909H60.4961V73.5109H62.9505V64.1909Z" fill="#F27B01"/>
<path opacity="0.3" d="M42.0175 64.4795H39.5635V73.5107H42.0175V64.4795Z" fill="black" fill-opacity="0.2"/>
<path opacity="0.3" d="M52.4085 60.2959H49.9541V73.5107H52.4085V60.2959Z" fill="black" fill-opacity="0.2"/>
<path opacity="0.3" d="M62.9505 64.1909H60.4961V73.5109H62.9505V64.1909Z" fill="black" fill-opacity="0.2"/>
<path d="M68.3798 67.3032H65.9258V73.5108H68.3798V67.3032Z" fill="#F27B01"/>
<path d="M61.5205 61.0635L67.1525 64.1911" stroke="#263238" stroke-width="0.5" stroke-miterlimit="10"/>
<path d="M63.1339 61.0635C63.1339 61.7915 62.5435 62.3819 61.8155 62.3819C61.0875 62.3819 60.4971 61.7915 60.4971 61.0635C60.4971 60.3351 61.0875 59.7451 61.8155 59.7451C62.5435 59.7451 63.1339 60.3355 63.1339 61.0635Z" fill="#F27B01"/>
<path d="M67.1524 65.5094C67.8805 65.5094 68.4708 64.9191 68.4708 64.191C68.4708 63.4628 67.8805 62.8726 67.1524 62.8726C66.4242 62.8726 65.834 63.4628 65.834 64.191C65.834 64.9191 66.4242 65.5094 67.1524 65.5094Z" fill="#F27B01"/>
<path d="M260.669 168.75C273.282 168.75 283.506 158.526 283.506 145.913C283.506 133.3 273.282 123.075 260.669 123.075C248.056 123.075 237.831 133.3 237.831 145.913C237.831 158.526 248.056 168.75 260.669 168.75Z" fill="white" fill-opacity="0.5" stroke="#263238" stroke-miterlimit="10"/>
<path d="M272.133 141.744H249.532V157.705H272.133V141.744Z" fill="#F27B01"/>
<path opacity="0.3" d="M260.235 141.744H249.532V157.705H260.235V141.744Z" fill="black" fill-opacity="0.2"/>
<path d="M249.532 141.744L245.853 147.924H256.48L260.235 141.744H249.532Z" fill="#F27B01"/>
<path d="M260.235 141.744L264.189 147.924H275.485L272.133 141.744H260.235Z" fill="#F27B01"/>
<path opacity="0.3" d="M260.235 141.744L264.189 147.924H275.485L272.133 141.744H260.235Z" fill="black" fill-opacity="0.2"/>
<path d="M256.819 137.883C255.903 136.597 254.987 135.31 254.071 134.024C253.96 133.868 253.7 134.018 253.812 134.176C254.728 135.462 255.644 136.748 256.56 138.034C256.671 138.19 256.931 138.04 256.819 137.883Z" fill="#263238"/>
<path d="M260.584 137.771C260.548 135.674 260.513 133.577 260.477 131.48C260.474 131.288 260.174 131.287 260.177 131.48C260.213 133.577 260.248 135.674 260.284 137.771C260.288 137.964 260.588 137.964 260.584 137.771Z" fill="#263238"/>
<path d="M264.352 137.901C265.025 136.703 265.697 135.506 266.37 134.308C266.465 134.139 266.206 133.988 266.111 134.157C265.438 135.354 264.765 136.552 264.093 137.75C263.998 137.919 264.257 138.07 264.352 137.901Z" fill="#263238"/>
<path d="M266.768 133.297C266.76 133.289 266.751 133.281 266.743 133.272C266.729 133.258 266.713 133.247 266.694 133.241C266.676 133.232 266.657 133.227 266.636 133.228C266.616 133.227 266.596 133.232 266.579 133.241C266.56 133.247 266.544 133.257 266.53 133.272C266.522 133.282 266.515 133.293 266.507 133.303C266.493 133.326 266.486 133.351 266.486 133.378C266.488 133.391 266.49 133.405 266.492 133.418C266.499 133.444 266.512 133.466 266.53 133.484C266.538 133.493 266.547 133.501 266.555 133.509C266.569 133.524 266.585 133.534 266.604 133.541C266.622 133.55 266.641 133.554 266.661 133.553C266.682 133.554 266.701 133.55 266.719 133.541C266.738 133.535 266.754 133.524 266.767 133.509C266.775 133.499 266.783 133.489 266.791 133.479C266.804 133.455 266.811 133.43 266.811 133.403C266.81 133.39 266.808 133.377 266.806 133.363C266.8 133.338 266.787 133.316 266.768 133.297Z" fill="#263238"/>
<path d="M217.111 74.8868L221.596 96.0068C221.8 96.9684 220.806 97.742 219.924 97.308L204.258 89.5984C203.574 89.2616 203.386 88.3732 203.874 87.7876L215.055 74.3768C215.684 73.622 216.907 73.9252 217.111 74.8868Z" fill="#F27B01"/>
<path opacity="0.3" d="M217.111 74.8868L221.596 96.0068C221.8 96.9684 220.806 97.742 219.924 97.308L204.258 89.5984C203.574 89.2616 203.386 88.3732 203.874 87.7876L215.055 74.3768C215.684 73.622 216.907 73.9252 217.111 74.8868Z" fill="black" fill-opacity="0.2"/>
<path d="M218.09 92.4482L216.35 80.3786C223.816 79.3026 230.252 74.6242 233.568 67.8642C239.098 56.5922 234.427 42.923 223.155 37.3934C211.883 31.8634 198.214 36.535 192.684 47.807C190.29 52.6858 189.72 58.2654 191.077 63.5178L179.27 66.5682C177.186 58.4978 178.061 49.9278 181.736 42.4362C190.228 25.1278 211.217 17.9542 228.526 26.4454C245.834 34.9366 253.008 55.9262 244.516 73.235C239.424 83.6146 229.545 90.797 218.09 92.4482Z" fill="#F27B01"/>
<g opacity="0.3">
<path d="M218.09 92.4482L216.35 80.3786C223.816 79.3026 230.252 74.6242 233.568 67.8642C239.098 56.5922 234.427 42.923 223.155 37.3934C211.883 31.8634 198.214 36.535 192.684 47.807C190.29 52.6858 189.72 58.2654 191.077 63.5178L179.27 66.5682C177.186 58.4978 178.061 49.9278 181.736 42.4362C190.228 25.1278 211.217 17.9542 228.526 26.4454C245.834 34.9366 253.008 55.9262 244.516 73.235C239.424 83.6146 229.545 90.797 218.09 92.4482Z" fill="black" fill-opacity="0.2"/>
</g>
<path d="M218.454 69.4966C225.969 67.3884 230.352 59.587 228.244 52.0718C226.136 44.5566 218.335 40.1735 210.819 42.2817C203.304 44.39 198.921 52.1914 201.029 59.7066C203.138 67.2218 210.939 71.6049 218.454 69.4966Z" fill="#F27B01"/>
<path opacity="0.3" d="M218.454 69.4966C225.969 67.3884 230.352 59.587 228.244 52.0718C226.136 44.5566 218.335 40.1735 210.819 42.2817C203.304 44.39 198.921 52.1914 201.029 59.7066C203.138 67.2218 210.939 71.6049 218.454 69.4966Z" fill="black" fill-opacity="0.2"/>
<path d="M222.705 66.1668C228.813 61.3063 229.824 52.4147 224.963 46.3069C220.103 40.199 211.211 39.1879 205.103 44.0484C198.995 48.9089 197.984 57.8005 202.845 63.9084C207.705 70.0162 216.597 71.0274 222.705 66.1668Z" fill="#F27B01"/>
<path d="M223.968 61.1488C227.299 55.5849 225.488 48.3746 219.924 45.044C214.36 41.7135 207.15 43.5239 203.82 49.0878C200.489 54.6517 202.299 61.862 207.863 65.1926C213.427 68.5231 220.638 66.7127 223.968 61.1488Z" fill="white" fill-opacity="0.5"/>
<path d="M208.265 63.4482L209.824 61.1374C209.87 61.1682 209.916 61.1986 209.962 61.2282L208.46 63.5762C208.394 63.5346 208.329 63.4918 208.265 63.4482ZM205.151 60.0786C205.113 60.0106 205.075 59.9422 205.038 59.873L207.497 58.5602C207.523 58.6086 207.55 58.6566 207.576 58.7042L205.151 60.0786ZM212.781 65.1134L213.087 62.3426L213.26 62.3602L213.005 65.1362C212.93 65.1294 212.855 65.1218 212.781 65.1134ZM203.846 55.4466C203.844 55.3694 203.842 55.2922 203.841 55.215L206.629 55.1874L206.632 55.3554L203.846 55.4466ZM217.551 64.4886L216.536 61.8922L216.693 61.8294L217.804 64.3862L217.738 64.4138C217.693 64.4322 217.622 64.4606 217.551 64.4886ZM204.844 50.7418C204.878 50.6718 204.913 50.6022 204.948 50.5334L207.431 51.801C207.406 51.8498 207.381 51.8998 207.357 51.9494L204.844 50.7418ZM219.403 59.8698C219.437 59.8302 219.471 59.7898 219.505 59.7494L221.658 61.521C221.607 61.583 221.555 61.6438 221.502 61.7042L219.403 59.8698ZM209.571 49.2754L207.917 47.0318L208.098 46.901L209.713 49.173L209.571 49.2754ZM220.979 56.775L221.016 56.609L223.742 57.1918C223.726 57.2662 223.71 57.341 223.692 57.415L220.979 56.775ZM212.784 47.9318L212.354 45.1774C212.428 45.1658 212.502 45.155 212.576 45.145L212.957 47.9062L212.784 47.9318ZM220.94 53.2974C220.926 53.245 220.912 53.193 220.897 53.141L223.578 52.375C223.599 52.451 223.62 52.527 223.64 52.603L220.94 53.2974ZM216.248 48.237L217.148 45.5986C217.224 45.6246 217.299 45.651 217.374 45.679L216.399 48.291C216.349 48.2718 216.299 48.2538 216.248 48.237ZM219.29 50.2358L219.177 50.1138L221.2 48.1954C221.253 48.2518 221.306 48.3082 221.357 48.3654L219.29 50.2358Z" fill="black" fill-opacity="0.2"/>
<path d="M210.945 50.7524L213.748 55.5736L218.282 51.1628" stroke="black" stroke-opacity="0.2" stroke-miterlimit="10" stroke-linecap="round" stroke-linejoin="round"/>
<path d="M214.566 55.7921C214.247 56.1561 213.693 56.1925 213.329 55.8733C212.965 55.5541 212.929 55.0001 213.248 54.6361C213.567 54.2721 214.121 54.2357 214.485 54.5549C214.849 54.8741 214.885 55.4281 214.566 55.7921Z" fill="black" fill-opacity="0.2"/>
<path opacity="0.3" d="M206.065 47.5593C210.718 43.0425 218.151 43.1529 222.668 47.8061C223.778 48.9493 224.605 50.2617 225.157 51.6561C224.634 49.9093 223.702 48.2565 222.344 46.8577C217.827 42.2049 210.394 42.0941 205.74 46.6109C202.231 50.0177 201.309 55.0833 203.004 59.3641C201.787 55.3009 202.811 50.7181 206.065 47.5593Z" fill="black" fill-opacity="0.2"/>
<path d="M96.0964 138.997C85.8976 127.686 80.2812 113.063 80.2812 97.821C80.2812 69.897 99.1201 45.4354 126.094 38.335L121.561 44.0254L129.503 51.2866C108.407 56.8394 93.674 75.975 93.674 97.821C93.674 109.744 98.0664 121.182 106.043 130.028L96.0964 138.997Z" fill="#F27B01"/>
<path d="M97.4187 139.763C97.9155 139.639 114.31 139.763 114.31 139.763L106.043 130.028L96.0967 138.997L97.4187 139.763Z" fill="#F27B01"/>
<g opacity="0.3">
<path d="M96.0964 138.997C85.8976 127.686 80.2812 113.063 80.2812 97.821C80.2812 69.897 99.1201 45.4354 126.094 38.335L121.561 44.0254L129.503 51.2866C108.407 56.8394 93.674 75.975 93.674 97.821C93.674 109.744 98.0664 121.182 106.043 130.028L96.0964 138.997Z" fill="black" fill-opacity="0.2"/>
<path d="M97.4187 139.763C97.9155 139.639 114.31 139.763 114.31 139.763L106.043 130.028L96.0967 138.997L97.4187 139.763Z" fill="black" fill-opacity="0.2"/>
</g>
<path d="M218.453 161.556V139.964C218.453 138.982 219.586 138.431 220.359 139.039L234.082 149.834C234.681 150.306 234.681 151.214 234.082 151.686L220.359 162.481C219.586 163.089 218.453 162.539 218.453 161.556Z" fill="#F27B01"/>
<path d="M220.679 144.342H144.403V157.178H220.679V144.342Z" fill="#F27B01"/>
<path opacity="0.3" d="M233.962 149.835L220.239 139.039C219.466 138.431 218.333 138.981 218.333 139.965V144.342H141.158V157.178H218.333V161.556C218.333 162.539 219.467 163.089 220.239 162.481L233.962 151.686C234.561 151.215 234.561 150.306 233.962 149.835Z" fill="black" fill-opacity="0.2"/>
<path d="M141.141 36.3486V49.5058C167.205 49.5058 188.41 70.7106 188.41 96.7746C188.41 122.839 167.205 144.043 141.141 144.043H56.6943V157.201H141.141C174.46 157.201 201.566 130.094 201.566 96.7746C201.566 63.4554 174.46 36.3486 141.141 36.3486Z" fill="#F27B01"/>
<path d="M143.698 32.1754L143.654 53.7666C143.652 54.7494 142.518 55.2978 141.746 54.6882L128.045 43.865C127.447 43.3922 127.449 42.4842 128.049 42.0138L141.793 31.2458C142.568 30.6398 143.7 31.1926 143.698 32.1754Z" fill="#F27B01"/>
<path opacity="0.3" d="M143.687 144.421C143.948 144.421 138.327 147.981 134.528 147.951L134.169 157.556H131.656L126.851 144.72L143.687 144.421Z" fill="black" fill-opacity="0.2"/>
<path d="M139.051 77.9632C140.814 80.7472 141.461 82.432 141.736 85.1672C142.057 88.364 142.043 91.2 141.367 92.0544C140.479 93.1752 130.382 94.6572 124.688 94.6904C124.482 94.6916 124.227 92.8952 124.227 92.8952C124.227 92.8952 123.503 94.6948 123.235 94.6952C121.681 94.6968 120.685 94.6856 120.685 94.6856C120.685 94.6856 121.847 91.9796 122.981 82.36C123.535 77.6616 128.138 75.5828 130.885 75.104C135.463 74.3064 139.051 77.9632 139.051 77.9632Z" fill="#263238"/>
<path d="M125.952 87.5957C124.345 85.0921 122.547 78.2277 128.647 75.8013C136.26 72.7725 139.954 77.5469 140.847 82.4061C141.739 87.2649 139.153 91.0885 134.023 90.9549C128.893 90.8213 127.064 89.3273 125.952 87.5957Z" fill="#263238"/>
<path d="M138.683 96.8276C138.683 96.8276 136.971 98.1448 134.765 100.045C134.306 100.441 133.8 100.784 133.264 101.068C131.819 101.836 130.502 102.275 130.145 101.578C130.066 101.425 130.005 101.259 129.959 101.085C129.657 99.918 129.781 98.278 130.724 97.5272C131.787 96.6808 132.3 95.9568 132.108 94.8112C132.007 94.1616 131.773 93.4912 131.498 92.84L132.335 91.8616L136.711 87.4448C136.602 90.3936 136.378 95.2264 138.683 96.8276Z" fill="#FFE2C2"/>
<path opacity="0.2" d="M132.143 95.0627C133.347 94.3483 134.668 93.1087 134.509 91.6931C134.439 91.0967 134.31 90.5319 134.167 90.1699L131.723 93.4067C131.923 93.9283 131.997 94.2731 132.143 95.0627Z" fill="black" fill-opacity="0.2"/>
<path d="M137.95 82.7062C137.538 87.203 137.459 89.1098 135.138 91.4678C131.648 95.0142 126.278 93.8214 125.354 89.3642C124.522 85.3526 125.335 78.673 129.75 76.7834C134.099 74.9214 138.362 78.2098 137.95 82.7062Z" fill="#FFE2C2"/>
<path d="M132.312 84.3354C132.287 84.7882 132.008 85.161 131.69 85.1674C131.372 85.1742 131.135 84.8126 131.16 84.3594C131.185 83.9066 131.464 83.5338 131.782 83.5274C132.1 83.5206 132.337 83.8826 132.312 84.3354Z" fill="#263238"/>
<path d="M127.637 84.2533C127.612 84.6857 127.339 85.0413 127.026 85.0481C126.714 85.0545 126.481 84.7097 126.506 84.2773C126.531 83.8449 126.805 83.4893 127.117 83.4825C127.429 83.4757 127.662 83.8209 127.637 84.2533Z" fill="#263238"/>
<path d="M132.948 82.6751C132.887 82.6875 132.823 82.6767 132.771 82.6403C131.973 82.0707 131.145 82.3747 131.136 82.3783C131.013 82.4235 130.882 82.3703 130.844 82.2551C130.807 82.1403 130.877 82.0091 131.001 81.9619C131.044 81.9459 132.083 81.5631 133.074 82.2703C133.173 82.3407 133.185 82.4811 133.102 82.5831C133.061 82.6323 133.006 82.6639 132.948 82.6751Z" fill="#263238"/>
<path d="M126.047 82.0696C125.998 82.0464 125.958 82.0056 125.939 81.952C125.901 81.8416 125.967 81.7196 126.086 81.6792C127.278 81.2748 128.098 81.8536 128.132 81.8788C128.23 81.9492 128.244 82.0824 128.165 82.1764C128.086 82.2704 127.944 82.2896 127.847 82.22C127.816 82.1968 127.173 81.7572 126.225 82.0788C126.163 82.0996 126.1 82.0944 126.047 82.0696Z" fill="#263238"/>
<path d="M134.193 78.7083C132.762 80.2107 133.474 85.8855 137.49 86.6267C142.116 85.5379 138.462 74.2243 134.193 78.7083Z" fill="#263238"/>
<path d="M128.822 88.4532C129.188 89.0168 129.629 90.1084 129.629 90.1084C129.735 90.0864 129.841 90.0644 129.945 90.0368C131.377 89.7016 131.931 89.0732 132.11 88.4784C132.207 88.1524 132.188 87.8336 132.139 87.5816C132.086 87.2892 131.981 87.0928 131.981 87.0928C131.328 87.724 130.018 88.1388 129.309 88.3316C129.012 88.4148 128.822 88.4532 128.822 88.4532Z" fill="#263238"/>
<path d="M129.31 88.3312L129.56 88.8132C130.908 88.4944 131.814 88.0892 132.14 87.5816C132.087 87.2892 131.982 87.0928 131.982 87.0928C131.329 87.7236 130.019 88.1388 129.31 88.3312Z" fill="white" fill-opacity="0.5"/>
<path d="M129.946 90.0369C131.378 89.7017 131.931 89.0733 132.111 88.4785C131.627 88.6117 131.059 88.8257 130.595 89.1657C130.239 89.4241 130.05 89.7385 129.946 90.0369Z" fill="#DC5753"/>
<path d="M128.898 83.9375C128.898 83.9375 128.051 85.9643 127.167 86.9563C127.742 87.5123 128.769 87.2199 128.769 87.2199L128.898 83.9375Z" fill="#E4873E"/>
<path d="M130.885 83.314L131.917 83.5576C131.449 84.0836 130.885 83.314 130.885 83.314Z" fill="#263238"/>
<path d="M126.272 83.2686L127.304 83.5122C126.837 84.0382 126.272 83.2686 126.272 83.2686Z" fill="#263238"/>
<path d="M129.781 75.8189C128.005 76.4213 126.119 79.4945 125.805 80.6769C128.33 81.0905 135.137 78.7249 135.137 78.7249C135.137 78.7249 139.679 79.9793 137.378 77.6765C135.077 75.3733 129.781 75.8189 129.781 75.8189Z" fill="#263238"/>
<path d="M139.311 86.3711C138.78 87.2931 137.917 87.8723 137.125 88.0707C135.935 88.3691 135.32 86.4555 135.726 85.2631C136.092 84.1895 137.262 83.4791 138.42 83.7131C139.562 83.9439 139.918 85.3167 139.311 86.3711Z" fill="#FFE2C2"/>
<path d="M123.625 81.4961C123.372 83.4757 123.115 85.4729 122.447 87.3537C121.78 89.2345 120.394 93.1137 118.734 94.2217" stroke="#263238" stroke-width="0.5" stroke-miterlimit="10"/>
<path d="M137.602 88.7915C138.065 88.7915 138.44 88.4162 138.44 87.9531C138.44 87.4901 138.065 87.1147 137.602 87.1147C137.139 87.1147 136.764 87.4901 136.764 87.9531C136.764 88.4162 137.139 88.7915 137.602 88.7915Z" fill="#F27B01"/>
<path opacity="0.1" d="M138.37 85.0887C137.973 84.9767 137.527 85.0571 137.194 85.2999C136.861 85.5431 136.649 85.9435 136.635 86.3555" stroke="black" stroke-opacity="0.2" stroke-width="0.5" stroke-miterlimit="10" stroke-linecap="round" stroke-linejoin="round"/>
<path d="M103.307 125.781C103.531 125.161 105.129 123.086 105.981 122.312C106.832 121.538 109.845 119.845 109.845 119.845L112.39 122.254C112.39 122.254 112.151 123.635 111.129 124.142C110.54 124.434 109.927 124.67 109.927 124.67C109.927 124.67 109.935 125.21 109.795 125.777C109.64 126.405 109.316 127.146 108.806 126.991C108.297 126.836 108.527 125.127 108.563 124.881C108.525 125.13 108.238 126.866 107.532 126.751C106.852 126.64 107.192 124.838 107.192 124.838C107.192 124.838 106.948 125.656 106.82 126.073C106.692 126.49 106.175 126.75 105.902 126.182C105.586 125.522 105.784 124.572 105.784 124.572C105.784 124.572 105.286 125.031 104.445 126.094C103.84 126.858 103.118 126.306 103.307 125.781Z" fill="#FFE2C2"/>
<path opacity="0.1" d="M108.504 125.204C108.569 124.881 108.635 124.556 108.759 124.251C108.883 123.946 109.07 123.658 109.337 123.465" stroke="black" stroke-opacity="0.2" stroke-width="0.5" stroke-miterlimit="10" stroke-linecap="round" stroke-linejoin="round"/>
<path opacity="0.1" d="M107.098 125.088C107.163 124.764 107.228 124.439 107.353 124.134C107.477 123.828 107.664 123.54 107.931 123.348" stroke="black" stroke-opacity="0.2" stroke-width="0.5" stroke-miterlimit="10" stroke-linecap="round" stroke-linejoin="round"/>
<path opacity="0.1" d="M105.783 124.629C105.848 124.306 105.914 123.981 106.038 123.676C106.162 123.37 106.35 123.082 106.617 122.89" stroke="black" stroke-opacity="0.2" stroke-width="0.5" stroke-miterlimit="10" stroke-linecap="round" stroke-linejoin="round"/>
<path d="M123.198 103.498C123.198 103.782 122.398 113.985 122.398 113.985C121.83 115.049 110.144 119.105 108.648 120.59L111.374 123.395C111.374 123.395 125.278 120.59 127.523 118.958C129.438 117.566 129.277 115.123 129.277 111.787C129.277 108.452 130.441 103.791 130.441 103.791L123.198 103.498Z" fill="#FFE2C2"/>
<path d="M128.491 97.4688C122.979 98.4115 122.222 106.572 122.222 106.572L121.384 113.051L118.258 115.332L121.181 121.576C121.181 121.576 127.422 119.2 130.167 117.576C132.911 115.952 132.982 103.504 132.982 103.504L128.491 97.4688Z" fill="#F27B01"/>
<path opacity="0.2" d="M127.501 118.564C127.604 118.61 125.192 119.955 125.192 119.955C125.163 119.972 124.321 116.393 124.292 116.409C122.964 110.41 123.862 105.629 123.862 105.629C124.869 107.722 127.247 116.81 127.501 118.564Z" fill="black" fill-opacity="0.2"/>
<path d="M128.714 125.947C133.308 125.488 139.284 125.121 147.062 124.946C147.062 124.946 152.861 138.604 145.984 142.684C143.906 143.917 140.477 144.405 136.703 144.485C132.323 144.578 128.714 141.069 128.714 136.688L128.714 125.947Z" fill="#263238"/>
<path d="M143.734 137.196V143.613C138.015 145.262 126.144 144.634 119.088 144.058C115.91 143.799 113.467 141.145 113.467 137.956V132.691C113.467 130.946 114.546 129.385 116.18 128.77C119.601 127.483 125.826 125.566 132.338 125.666C138.652 125.764 143.734 130.881 143.734 137.196Z" fill="#263238"/>
<path d="M148.098 124.946C147.209 123.773 145.151 120.968 144.89 118.017C144.89 118.008 144.889 118 144.889 117.991C144.873 117.802 144.863 117.612 144.863 117.422C144.816 116.167 144.824 114.681 144.906 112.897C144.918 112.619 144.934 112.324 144.951 112.029C145.001 111.093 145.074 110.085 145.163 108.987C145.33 107.021 145.57 104.777 145.892 102.225C145.965 101.635 146.521 100.719 146.604 100.095C146.978 97.3162 144.444 95.3074 141.709 95.419C140.98 95.447 140.205 95.497 139.42 95.575C136.351 95.8646 133.833 96.1266 131.165 96.7614C130.28 96.9674 129.366 97.2182 128.492 97.469C125.35 98.3714 123.902 102.393 123.863 105.629C123.824 108.645 125.939 114.801 127.388 120.208C127.601 123.309 125.907 124.999 126.417 126.08C126.927 127.161 141.92 124.223 148.097 127.907C148.097 127.907 149.046 126.197 148.098 124.946Z" fill="#F27B01"/>
<path opacity="0.3" d="M148.098 124.946C147.209 123.773 145.151 120.968 144.89 118.017C144.89 118.008 144.889 118 144.889 117.991C144.873 117.802 144.863 117.612 144.863 117.422C144.816 116.167 144.824 114.681 144.906 112.897C144.918 112.619 144.934 112.324 144.951 112.029C145.001 111.093 145.074 110.085 145.163 108.987C145.33 107.021 145.57 104.777 145.892 102.225C145.965 101.635 146.521 100.719 146.604 100.095C146.978 97.3162 144.444 95.3074 141.709 95.419C140.98 95.447 140.205 95.497 139.42 95.575C136.351 95.8646 133.833 96.1266 131.165 96.7614C130.28 96.9674 129.366 97.2182 128.492 97.469C125.35 98.3714 123.902 102.393 123.863 105.629C123.824 108.645 125.939 114.801 127.388 120.208C127.601 123.309 125.907 124.999 126.417 126.08C126.927 127.161 141.92 124.223 148.097 127.907C148.097 127.907 149.046 126.197 148.098 124.946Z" fill="white" fill-opacity="0.5"/>
<path opacity="0.2" d="M145.71 121.027C145.71 121.027 140.419 122.189 137.957 122.301C135.495 122.413 130.168 124.091 130.168 124.091L128.273 125.267L127.605 123.703L130.795 120.819L144.796 117.981C144.967 119.151 145.61 120.791 145.71 121.027Z" fill="black" fill-opacity="0.2"/>
<path opacity="0.2" d="M139.65 103.601L138.982 112.647L135.982 115.586L138.081 117.219L140.936 115.496L142.413 110.41L139.65 103.601Z" fill="black" fill-opacity="0.2"/>
<path d="M117.026 186.175L124.047 183.078L126.267 180.598L126.955 181.532L127.794 181.166C128.185 178.05 126.671 176.592 125.876 175.93C125.819 175.88 125.737 175.823 125.643 175.747C125.611 175.722 125.58 175.697 125.548 175.678C125.535 175.671 125.523 175.659 125.511 175.652C125.479 175.627 125.441 175.602 125.403 175.57C125.397 175.564 125.391 175.564 125.378 175.558V175.552C125.359 175.539 125.341 175.526 125.315 175.514L121.461 177.217C121.461 177.217 121.397 177.419 121.278 177.747C120.893 178.832 119.941 181.305 118.887 182.623C118.843 182.68 118.799 182.737 118.754 182.787C118.628 182.938 118.495 183.071 118.363 183.178C115.411 185.55 117.026 186.175 117.026 186.175Z" fill="#263238"/>
<path d="M118.739 182.769C119.837 183.198 121.389 182.113 122.568 180.693C123.231 179.892 123.868 178.611 124.429 177.577C124.795 176.908 125.13 176.34 125.42 176.069C125.584 175.924 125.735 175.861 125.868 175.924C125.868 175.924 125.861 175.918 125.861 175.911C125.804 175.861 125.722 175.804 125.628 175.728C125.603 175.709 125.571 175.684 125.533 175.659C125.52 175.652 125.508 175.64 125.496 175.634C125.464 175.608 125.426 175.583 125.388 175.552C125.382 175.545 125.376 175.545 125.363 175.539V175.533C125.344 175.52 125.326 175.508 125.3 175.495C124.897 175.193 124.449 174.883 124.449 174.883L120.823 175.791L121.105 177.179C120.702 178.611 119.85 181.336 118.872 182.604C118.827 182.662 118.783 182.718 118.739 182.769Z" fill="#FFE2C2"/>
<path d="M112.837 155.768C115.075 161.328 118.551 168.412 121.116 177.295C121.166 177.457 121.211 177.619 121.256 177.78C121.306 177.953 121.356 178.12 121.406 178.293L124.055 177.646L124.171 177.185C124.171 177.185 125.086 176.475 124.93 176.313C124.829 176.209 124.897 176.012 124.88 175.845V175.839C124.166 169.644 121.417 146.904 118.69 142.181C118.69 142.181 121.78 142.755 124.122 142.359C125.811 142.075 127.858 130.392 127.858 130.392C127.858 130.392 123.553 129.154 119.136 129.154H119.075C119.075 129.154 110.394 131.722 108.187 133.667C106.112 135.495 105.802 138.489 106.952 142.049C108.006 145.313 110.063 148.88 112.837 155.768Z" fill="#FFE2C2"/>
<path opacity="0.1" d="M110.356 136.477C110.87 134.457 114.589 132.481 118.432 131.422C119.056 130.614 117.459 129.659 117.459 129.659L125.023 128.974L126.343 129.924L128.599 130.394L126.589 139.431L118.326 140.878L123.553 165.133L124.171 169.925C124.171 169.925 115.318 150.923 113.466 146.882C111.614 142.841 109.465 139.98 110.356 136.477Z" fill="black" fill-opacity="0.2"/>
<path d="M127.859 130.395C127.859 130.395 116.056 132.895 113.751 134.716C111.787 136.267 111.734 138.292 112.37 140.203C114.129 145.488 120.441 154.301 127.665 179.593L131.805 178.293C131.408 178.293 130.367 165.088 130.06 154.481C129.915 149.478 127.35 145.164 126.346 143.422C126.346 143.422 130.565 143.991 132.906 143.599C135.914 143.095 137.816 133.057 127.859 130.395Z" fill="#FFE2C2"/>
<path opacity="0.2" d="M126.589 143.896C126.589 143.896 125.023 141.299 123.07 140.204C123.07 140.204 125.473 140.36 126.975 143.498L126.345 143.422L126.589 143.896Z" fill="black" fill-opacity="0.2"/>
<path d="M133.209 183.739L132.346 183.927L131.63 182.734C131.542 182.589 131.344 182.561 131.22 182.676L128.768 184.947L122.072 186.416C122.072 186.416 120.581 184.84 123.91 183.836C124.069 183.788 124.207 183.663 124.357 183.542C126.004 182.279 127.979 178.797 127.979 178.797L131.946 177.926C131.946 177.926 132.128 178.095 132.396 178.427C133.022 179.205 134.172 180.873 133.209 183.739Z" fill="#263238"/>
<path d="M132.396 178.427C132.398 178.433 132.399 178.439 132.399 178.439C131.747 177.97 129.926 181.058 128.372 182.314C126.983 183.433 125.306 184.161 124.356 183.542C126.004 182.279 128.066 177.886 128.066 177.886L131.256 177.186C131.256 177.186 132.128 178.095 132.396 178.427Z" fill="#FFE2C2"/>
<path d="M120.239 132.105L131.877 127.678C132.136 127.579 132.073 127.164 131.798 127.161L113.122 126.937C113.076 126.937 113.032 126.949 112.993 126.975L105.812 131.625C105.598 131.764 105.688 132.12 105.937 132.12H120.158C120.186 132.12 120.213 132.115 120.239 132.105Z" fill="#263238"/>
<path opacity="0.7" d="M120.239 132.105L131.877 127.678C132.136 127.579 132.073 127.164 131.798 127.161L113.122 126.937C113.076 126.937 113.032 126.949 112.993 126.975L105.812 131.625C105.598 131.764 105.688 132.12 105.937 132.12H120.158C120.186 132.12 120.213 132.115 120.239 132.105Z" fill="white" fill-opacity="0.5"/>
<path opacity="0.7" d="M120.281 130.786L127.785 128.019L118.994 127.835L120.281 130.786Z" fill="white" fill-opacity="0.5"/>
<path opacity="0.3" d="M131.877 127.678L120.239 132.105C120.213 132.115 120.185 132.12 120.158 132.12H119.977L119.758 131.479L131.798 127.161C132.073 127.164 132.136 127.58 131.877 127.678Z" fill="black" fill-opacity="0.2"/>
<path d="M105.048 132.12H120.2C120.461 132.118 120.671 131.947 120.669 131.737C120.669 131.697 120.661 131.658 120.645 131.621L113.905 116.168C113.734 115.727 113.227 115.425 112.652 115.423H97.4904C97.234 115.423 97.0264 115.59 97.0264 115.796C97.0264 115.839 97.0356 115.882 97.054 115.922L103.794 131.375C103.968 131.815 104.474 132.116 105.048 132.12Z" fill="#263238"/>
<path opacity="0.7" d="M97.4904 115.423H112.652C113.227 115.425 113.735 115.726 113.905 116.168L120.645 131.621C120.661 131.658 120.669 131.698 120.669 131.737C120.672 131.947 120.461 132.118 120.2 132.12H105.048C104.473 132.116 103.967 131.815 103.794 131.375L97.054 115.922C97.0356 115.882 97.0264 115.839 97.0264 115.796C97.0264 115.59 97.234 115.423 97.4904 115.423Z" fill="white" fill-opacity="0.5"/>
<path d="M106.881 124.116C107.209 124.857 107.872 125.366 108.367 125.263C108.862 125.159 108.994 124.483 108.676 123.74C108.358 122.996 107.687 122.498 107.192 122.602C106.697 122.706 106.549 123.354 106.881 124.116Z" fill="white" fill-opacity="0.5"/>
<path opacity="0.3" d="M112.562 115.423H112.652C113.227 115.425 113.735 115.726 113.905 116.168L120.645 131.621C120.661 131.658 120.669 131.698 120.669 131.737C120.672 131.947 120.461 132.118 120.2 132.12H119.714L112.562 115.423Z" fill="black" fill-opacity="0.2"/>
<path d="M139.942 102.747C139.942 103.031 140.854 113.137 140.854 113.137C140.286 114.202 128.6 118.258 127.104 119.743L129.83 122.547C129.83 122.547 143.734 119.743 145.979 118.111C147.894 116.718 147.733 114.275 147.733 110.94C147.733 107.604 147.004 102.747 147.004 102.747H139.942Z" fill="#FFE2C2"/>
<path d="M141.121 96.5101C138.251 97.7089 140.442 113.078 140.442 113.078L137.616 114.274L139.353 120.818C139.353 120.818 142.832 120.158 146.309 119.448C149.985 118.699 150.524 110.214 148.684 103.342C146.845 96.4709 144.479 95.1077 141.121 96.5101Z" fill="#F27B01"/>
<path d="M122.224 127.102C122.289 126.446 123.329 124.041 123.964 123.082C124.599 122.123 127.104 119.743 127.104 119.743L130.163 121.453C130.163 121.453 130.27 122.85 129.404 123.592C128.904 124.02 128.369 124.399 128.369 124.399C128.369 124.399 128.509 124.921 128.512 125.505C128.516 126.151 128.384 126.949 127.852 126.924C127.32 126.899 127.124 125.186 127.098 124.939C127.123 125.19 127.271 126.943 126.559 127.005C125.872 127.064 125.759 125.234 125.759 125.234C125.759 125.234 125.723 126.087 125.701 126.522C125.679 126.958 125.242 127.337 124.839 126.853C124.371 126.291 124.329 125.321 124.329 125.321C124.329 125.321 123.959 125.889 123.404 127.125C123.005 128.015 122.17 127.656 122.224 127.102Z" fill="#FFE2C2"/>
<path opacity="0.1" d="M127.121 125.267C127.105 124.937 127.089 124.606 127.134 124.279C127.179 123.953 127.29 123.628 127.502 123.375" stroke="black" stroke-opacity="0.2" stroke-width="0.5" stroke-miterlimit="10" stroke-linecap="round" stroke-linejoin="round"/>
<path opacity="0.1" d="M125.728 125.498C125.712 125.169 125.696 124.837 125.742 124.511C125.787 124.185 125.898 123.86 126.109 123.607" stroke="black" stroke-opacity="0.2" stroke-width="0.5" stroke-miterlimit="10" stroke-linecap="round" stroke-linejoin="round"/>
<path opacity="0.1" d="M124.342 125.377C124.326 125.048 124.309 124.716 124.355 124.39C124.4 124.063 124.511 123.739 124.723 123.486" stroke="black" stroke-opacity="0.2" stroke-width="0.5" stroke-miterlimit="10" stroke-linecap="round" stroke-linejoin="round"/>
<path d="M42.7976 168.75C55.4104 168.75 65.6352 158.526 65.6352 145.913C65.6352 133.3 55.4104 123.075 42.7976 123.075C30.1847 123.075 19.96 133.3 19.96 145.913C19.96 158.526 30.1847 168.75 42.7976 168.75Z" fill="white" fill-opacity="0.5" stroke="#263238" stroke-miterlimit="10"/>
<path d="M47.1249 160.508C47.1249 162 45.0509 163.196 42.5289 163.156C40.0069 163.115 37.9821 161.897 38.0001 160.405C38.0181 158.914 40.0741 157.718 42.5917 157.762C45.1093 157.807 47.1425 159.021 47.1249 160.508Z" fill="#263238"/>
<path d="M49.0954 155.59C49.343 155.355 49.4918 155.034 49.5118 154.694C49.5118 153.233 46.4342 152.006 42.5998 151.97C38.7654 151.934 35.643 153.076 35.625 154.537C35.6402 154.875 35.7826 155.195 36.0238 155.433C35.9514 155.572 35.9102 155.724 35.903 155.881C35.9126 156.222 36.0598 156.545 36.3106 156.777C36.2294 156.922 36.1846 157.085 36.1806 157.252C36.1906 157.596 36.343 157.92 36.6018 158.148C36.5114 158.293 36.4618 158.46 36.4586 158.631C36.4802 158.971 36.6426 159.286 36.9066 159.5C36.8118 159.646 36.7594 159.815 36.7542 159.989C36.7542 161.203 39.3122 162.228 42.5014 162.256C45.691 162.282 48.2846 161.36 48.2978 160.119C48.297 159.944 48.2474 159.774 48.1546 159.626C48.4174 159.414 48.5798 159.102 48.6026 158.766C48.601 158.596 48.5562 158.43 48.4726 158.282C48.7322 158.064 48.8934 157.751 48.9206 157.413C48.9194 157.246 48.8778 157.081 48.7998 156.934C49.059 156.714 49.2202 156.399 49.2478 156.06C49.2334 155.894 49.1814 155.733 49.0954 155.59Z" fill="#263238"/>
<path opacity="0.3" d="M49.0954 155.59C49.343 155.355 49.4918 155.034 49.5118 154.694C49.5118 153.233 46.4342 152.006 42.5998 151.97C38.7654 151.934 35.643 153.076 35.625 154.537C35.6402 154.875 35.7826 155.195 36.0238 155.433C35.9514 155.572 35.9102 155.724 35.903 155.881C35.9126 156.222 36.0598 156.545 36.3106 156.777C36.2294 156.922 36.1846 157.085 36.1806 157.252C36.1906 157.596 36.343 157.92 36.6018 158.148C36.5114 158.293 36.4618 158.46 36.4586 158.631C36.4802 158.971 36.6426 159.286 36.9066 159.5C36.8118 159.646 36.7594 159.815 36.7542 159.989C36.7542 161.203 39.3122 162.228 42.5014 162.256C45.691 162.282 48.2846 161.36 48.2978 160.119C48.297 159.944 48.2474 159.774 48.1546 159.626C48.4174 159.414 48.5798 159.102 48.6026 158.766C48.601 158.596 48.5562 158.43 48.4726 158.282C48.7322 158.064 48.8934 157.751 48.9206 157.413C48.9194 157.246 48.8778 157.081 48.7998 156.934C49.059 156.714 49.2202 156.399 49.2478 156.06C49.2334 155.894 49.1814 155.733 49.0954 155.59Z" fill="white" fill-opacity="0.5"/>
<path d="M54.8471 142.689C54.9267 135.903 49.4907 130.338 42.7051 130.258C35.9195 130.179 30.3539 135.615 30.2743 142.4C30.2311 146.083 31.8415 149.59 34.6627 151.957C35.1819 152.385 35.4539 153.043 35.3883 153.713C35.3859 153.746 35.3859 153.779 35.3883 153.811C35.3883 155.294 38.5239 156.535 42.4123 156.58C46.3007 156.625 49.4767 155.455 49.4943 153.968C49.4943 153.937 49.4943 153.905 49.4943 153.874C49.4339 153.19 49.7219 152.522 50.2603 152.096C53.1191 149.804 54.8019 146.353 54.8471 142.689Z" fill="#F27B01"/>
<path opacity="0.7" d="M54.8471 142.689C54.9267 135.903 49.4907 130.338 42.7051 130.258C35.9195 130.179 30.3539 135.615 30.2743 142.4C30.2311 146.083 31.8415 149.59 34.6627 151.957C35.1819 152.385 35.4539 153.043 35.3883 153.713C35.3859 153.746 35.3859 153.779 35.3883 153.811C35.3883 155.294 38.5239 156.535 42.4123 156.58C46.3007 156.625 49.4767 155.455 49.4943 153.968C49.4943 153.937 49.4943 153.905 49.4943 153.874C49.4339 153.19 49.7219 152.522 50.2603 152.096C53.1191 149.804 54.8019 146.353 54.8471 142.689Z" fill="white" fill-opacity="0.5"/>
<path opacity="0.2" d="M49.0688 135.553C49.0688 137.945 46.2692 139.89 42.7976 139.89C39.326 139.89 36.5264 137.946 36.5264 135.553C36.5264 133.161 39.326 131.212 42.7976 131.212C46.2688 131.212 49.0688 133.157 49.0688 135.553Z" fill="white" fill-opacity="0.5"/>
<path d="M33.1982 147.215C32.129 145.382 31.7042 143.181 32.0138 141.081C32.3238 138.982 33.3666 136.997 34.9198 135.551" stroke="white" stroke-opacity="0.5" stroke-miterlimit="10" stroke-linecap="round" stroke-linejoin="round"/>
<path d="M36.8867 159.529C40.4335 161.022 44.5299 161.072 48.1119 159.666C44.5835 161.195 40.3771 161.143 36.8867 159.529Z" fill="#263238"/>
<path d="M36.8027 158.21C40.3495 159.704 44.4459 159.752 48.0279 158.347C44.4995 159.876 40.2931 159.824 36.8027 158.21Z" fill="#263238"/>
<path d="M36.7197 156.892C40.2665 158.384 44.3629 158.434 47.9449 157.028C44.4161 158.558 40.2101 158.506 36.7197 156.892Z" fill="#263238"/>
<path d="M39.9038 153.976C40.8462 150.768 41.0118 147.268 40.3774 143.962C40.275 143.428 40.0338 142.784 39.5542 142.772C39.1254 142.762 38.8434 143.289 38.751 143.766C38.4238 145.455 39.2994 147.17 40.419 148.337C41.0254 148.968 41.7602 149.519 42.5806 149.559C43.4038 149.6 44.1898 149.112 44.7858 148.463C45.9266 147.221 46.4946 145.276 46.0814 143.541C45.9066 142.807 45.3858 142.019 44.7306 142.159C44.3358 142.243 44.047 142.66 43.9454 143.103C43.8438 143.546 43.8934 144.014 43.9514 144.467C44.3686 147.734 45.1662 150.937 46.3162 153.967" stroke="#263238" stroke-miterlimit="10"/>
<path d="M169.011 164.066C169.011 164.066 208.465 154.823 210.341 163.04C213.02 174.771 184.553 182.662 169.391 182.179C154.23 181.696 169.011 164.066 169.011 164.066Z" fill="#263238"/>
<path opacity="0.2" d="M169.011 164.066C169.011 164.066 208.465 154.823 210.341 163.04C213.02 174.771 184.553 182.662 169.391 182.179C154.23 181.696 169.011 164.066 169.011 164.066Z" fill="black" fill-opacity="0.2"/>
<path opacity="0.7" d="M197.395 165.576L178.867 177.351L181.34 180.865C181.34 180.865 180.037 182.795 177.558 176.866L189.021 169.288C189.021 169.288 185.433 168.928 185.523 168.367C185.675 167.446 193.558 165.694 197.152 164.904C197.338 164.837 197.542 164.933 197.61 165.119C197.677 165.304 197.581 165.509 197.395 165.576Z" fill="black" fill-opacity="0.2"/>
<path opacity="0.7" d="M178.195 176.024L181.409 181.232C177.446 181.924 173.421 182.241 169.392 182.178C168.067 182.17 166.755 181.932 165.52 181.477L164.391 179.412L166.822 174.521L178.195 176.024Z" fill="black" fill-opacity="0.2"/>
<path d="M184.329 173.953L176.088 179.18L177.565 183.179L187.241 178.831L184.329 173.953Z" fill="#B97964"/>
<path d="M171.552 180.519L172.361 183.396C172.361 183.396 172.968 183.524 173.157 184.129C173.264 184.469 173.013 185.407 173.013 185.407L175.179 193.334C175.191 193.331 175.723 193.187 175.934 193.035C176.191 192.849 176.4 192.659 176.567 192.466C177.153 191.789 177.217 190.81 177.239 190.084C177.275 188.868 177.975 185.315 177.975 185.315C177.975 185.315 178.241 184.389 179.219 183.573C179.764 183.119 180.016 182.545 179.965 182.189C179.863 181.464 179.342 181.192 178.664 181.273L177.876 181.369C177.313 180.95 177.141 180.241 177.497 179.558C177.497 179.558 177.963 177.831 177.239 178.122C176.825 178.288 175.006 179.099 173.55 179.698C173.211 179.837 172.889 179.969 172.607 180.085V180.085C171.981 180.342 171.552 180.519 171.552 180.519Z" fill="#263238"/>
<path d="M177.67 187.209C177.692 187.165 177.68 187.109 177.643 187.075C177.473 186.918 177.263 186.806 177.025 186.756C176.9 186.73 176.843 186.931 176.969 186.957C177.181 187.001 177.366 187.099 177.515 187.236C177.564 187.281 177.639 187.27 177.669 187.211C177.669 187.21 177.67 187.21 177.67 187.209Z" fill="#F27B01"/>
<path d="M177.832 186.507C177.854 186.463 177.842 186.407 177.805 186.373C177.635 186.217 177.425 186.104 177.188 186.055C177.062 186.029 177.005 186.229 177.132 186.256C177.342 186.3 177.528 186.398 177.677 186.535C177.727 186.58 177.801 186.569 177.831 186.509C177.832 186.509 177.832 186.508 177.832 186.507Z" fill="#F27B01"/>
<path d="M177.967 185.793C177.989 185.749 177.977 185.693 177.94 185.659C177.77 185.502 177.56 185.39 177.322 185.34C177.197 185.314 177.14 185.515 177.266 185.542C177.477 185.586 177.662 185.684 177.811 185.82C177.861 185.866 177.935 185.855 177.965 185.795C177.966 185.794 177.967 185.793 177.967 185.793Z" fill="#F27B01"/>
<path opacity="0.2" d="M172.607 180.084V180.085C171.981 180.342 171.552 180.519 171.552 180.519L172.361 183.396C172.361 183.396 172.968 183.524 173.157 184.129C173.264 184.469 173.013 185.406 173.013 185.406L175.179 193.334C175.191 193.33 175.723 193.187 175.934 193.034C176.053 192.949 176.158 192.863 176.256 192.776L172.765 180.02C172.713 180.041 172.656 180.064 172.607 180.084Z" fill="white" fill-opacity="0.5"/>
<path d="M177.854 185.745C178.123 185.645 178.393 185.546 178.674 185.495C178.956 185.444 179.252 185.444 179.522 185.542C179.647 185.588 179.776 185.67 179.803 185.8C179.832 185.937 179.734 186.07 179.62 186.151C179.401 186.308 179.113 186.346 178.848 186.296C178.584 186.246 178.073 185.901 177.854 185.745Z" stroke="#F27B01" stroke-width="0.25" stroke-miterlimit="10"/>
<path d="M177.845 185.711C178.07 185.534 178.295 185.355 178.485 185.141C178.675 184.927 178.829 184.673 178.885 184.392C178.911 184.262 178.908 184.109 178.811 184.018C178.709 183.922 178.544 183.937 178.416 183.992C178.169 184.097 177.986 184.324 177.891 184.576C177.797 184.827 177.825 185.443 177.845 185.711Z" stroke="#F27B01" stroke-width="0.25" stroke-miterlimit="10"/>
<path d="M185.311 138.963C185.311 138.963 186.752 151.791 187.137 152.479C188.439 154.806 197.065 158.796 197.065 158.796L201.464 157.875L204.615 160.507L202.537 162.135L200.099 161.213C198.769 161.451 197.42 161.569 196.068 161.567C193.796 161.567 182.84 158.79 181.012 155.735C179.183 152.681 178.343 138.536 178.343 138.536L185.311 138.963Z" fill="#B97964"/>
<path d="M178.156 144.005C178.156 144.005 174.776 132.74 178.987 129.612C183.199 126.485 186.548 141.974 186.548 141.974L178.156 144.005Z" fill="#F27B01"/>
<path opacity="0.5" d="M178.156 144.005C178.156 144.005 174.776 132.74 178.987 129.612C183.199 126.485 186.548 141.974 186.548 141.974L178.156 144.005Z" fill="white" fill-opacity="0.5"/>
<path d="M180.824 164.61L180.791 149.679L180.47 129.235L171.648 127.321L163.971 126.982L155.234 130.98L155.03 135.996C155.03 135.996 156.03 159.032 155.974 159.726C155.905 160.577 153.427 165.92 153.427 165.92C164.464 168.436 180.998 165.372 180.824 164.61Z" fill="#F27B01"/>
<path opacity="0.5" d="M180.824 164.61L180.791 149.679L180.47 129.235L171.648 127.321L163.971 126.982L155.234 130.98L155.03 135.996C155.03 135.996 156.03 159.032 155.974 159.726C155.905 160.577 153.427 165.92 153.427 165.92C164.464 168.436 180.998 165.372 180.824 164.61Z" fill="white" fill-opacity="0.5"/>
<path d="M180.01 114.952C180.494 114.906 180.91 114.468 180.931 113.982C180.953 113.496 180.577 113.024 180.099 112.935L177.837 112.708C177.945 114.16 178.052 115.612 178.16 117.064C178.597 117.176 179.069 117.199 179.496 117.053C179.924 116.906 180.3 116.573 180.429 116.14C180.558 115.707 180.398 115.185 180.01 114.952Z" fill="#263238"/>
<path d="M171.367 123.326L166.507 117.21C166.507 117.21 166.505 117.215 166.503 117.232C166.502 117.81 166.484 118.47 166.436 119.175C166.434 119.18 165.914 118.926 165.912 118.93C165.704 122.108 164.448 127.528 164.506 127.997L169.613 130.535H170.639L170.723 127.538C170.209 126.244 170.693 124.735 171.367 123.326Z" fill="#B97964"/>
<path opacity="0.2" d="M170.639 125.389L167.565 122.959C167.489 124.196 168.135 126.139 170.6 127.149C170.455 126.405 170.503 125.878 170.639 125.389Z" fill="black" fill-opacity="0.2"/>
<path d="M167.544 114.179C166.538 118.295 166.16 120.271 167.566 122.96C169.68 127.004 174.845 127.038 177.066 123.295C179.066 119.926 180.375 113.762 176.901 110.963C173.479 108.206 168.55 110.064 167.544 114.179Z" fill="#B97964"/>
<path d="M168.413 108.594C169.658 106.54 172.919 106.207 174.124 107.828C174.304 108.07 172.356 108.129 172.579 108.118L171.437 111.36C171.214 111.232 170.657 111.366 170.182 112.035C170.182 112.035 169.448 116.495 167.137 117.742C164.867 114.611 165.126 108.6 168.413 108.594Z" fill="#263238"/>
<path d="M164.904 117.05C164.904 118.19 165.434 119.22 166.112 119.867C167.131 120.839 168.314 120.087 168.595 118.779C168.848 117.602 168.622 115.678 167.328 115.2C166.053 114.73 164.904 115.747 164.904 117.05Z" fill="#B97964"/>
<path d="M173.117 117.628C172.988 118.041 173.104 118.442 173.376 118.524C173.647 118.605 173.971 118.336 174.099 117.923C174.228 117.51 174.112 117.109 173.84 117.027C173.569 116.946 173.245 117.215 173.117 117.628Z" fill="#263238"/>
<path d="M177.171 118.945C177.042 119.358 177.158 119.759 177.429 119.84C177.701 119.921 178.025 119.653 178.153 119.239C178.282 118.826 178.166 118.425 177.895 118.343C177.623 118.263 177.299 118.531 177.171 118.945Z" fill="#263238"/>
<path d="M175.743 117.841C175.743 117.841 176.257 119.724 176.492 120.842C176.549 121.11 176.349 121.37 176.075 121.378C175.48 121.394 174.921 121.06 174.921 121.06L175.743 117.841Z" fill="#DD6A57"/>
<path d="M172.685 115.149C172.739 115.193 172.816 115.209 172.887 115.182C173.736 114.862 174.346 115.291 174.352 115.296C174.443 115.361 174.57 115.341 174.637 115.251C174.703 115.161 174.683 115.035 174.593 114.97C174.561 114.947 173.797 114.408 172.744 114.805C172.639 114.845 172.586 114.961 172.625 115.065C172.638 115.099 172.659 115.127 172.685 115.149Z" fill="#263238"/>
<path d="M179.321 117.065C179.359 117.059 179.396 117.043 179.427 117.015C179.51 116.94 179.518 116.811 179.445 116.728C178.704 115.892 177.784 116.032 177.741 116.033C177.631 116.051 177.554 116.155 177.57 116.265C177.586 116.375 177.688 116.451 177.798 116.435C177.836 116.427 178.547 116.328 179.141 116.999C179.188 117.052 179.256 117.074 179.321 117.065Z" fill="#263238"/>
<path d="M172.776 121.903C172.917 122.018 173.068 122.121 173.228 122.209C173.28 122.237 173.344 122.223 173.38 122.176C173.403 122.121 173.381 122.056 173.329 122.026C172.503 121.583 171.939 120.771 171.81 119.842C171.803 119.785 171.754 119.741 171.695 119.743C171.642 119.741 171.597 119.781 171.595 119.834C171.594 119.842 171.595 119.85 171.597 119.858C171.694 120.672 172.12 121.411 172.776 121.903Z" fill="#263238"/>
<path d="M182.05 111.883C181.773 111.061 180.795 110.716 179.929 110.654C180.472 110.643 180.899 110.093 180.9 109.55C180.901 109.007 180.565 108.509 180.138 108.174C179.375 107.575 178.288 107.419 177.388 107.781C177.558 107.699 177.619 107.472 177.565 107.291C177.51 107.109 177.367 106.969 177.217 106.854C176.301 106.154 174.882 106.224 174.04 107.011C173.745 106.015 172.592 105.363 171.587 105.625C170.607 105.88 168.761 106.077 168.475 108.585C167.644 107.995 166.355 108.12 165.697 108.914C164.987 109.772 165.171 111.219 166.074 111.871C165.626 111.682 165.069 111.973 164.885 112.423C164.7 112.873 164.843 113.411 165.155 113.783C165.468 114.155 165.925 114.381 166.392 114.514C166.833 114.64 167.309 114.691 167.746 114.555C168.183 114.42 168.572 114.069 168.659 113.62C168.733 114.091 169.228 114.441 169.703 114.391C170.177 114.341 170.577 113.929 170.655 113.459C170.732 112.988 170.508 112.492 170.128 112.203C170.668 112.726 171.712 112.52 172.013 111.831C172.413 112.599 172.983 113.324 173.779 113.667C174.574 114.01 175.621 113.865 176.13 113.165C176.388 113.465 176.652 113.771 176.986 113.985C177.32 114.198 177.741 114.31 178.119 114.189C178.497 114.069 178.794 113.669 178.714 113.281C179.339 113.801 180.218 114.072 180.987 113.808C181.757 113.543 182.31 112.654 182.05 111.883Z" fill="#263238"/>
<path d="M168.323 130.291C168.323 130.291 170.465 132.199 171.562 129.733L172.133 130.178C172.133 130.178 172.077 132.012 171.039 132.625C171.291 133.643 175.639 148.452 176.417 155.916L175.229 158.943L172.071 156.45C172.071 156.45 170.538 143.645 170.013 132.765C168.749 132.337 167.749 131.389 167.284 130.178L168.323 130.291Z" fill="#F27B01"/>
<path opacity="0.2" d="M171.086 130.54L172.942 131.984L173.246 127.65L172.656 127.524L172.166 130.446L171.283 129.932L171.086 130.54Z" fill="black" fill-opacity="0.2"/>
<path opacity="0.2" d="M162.141 127.819C162.11 127.834 166.512 133.202 166.512 133.202L168.007 132.064L169.034 131.194L169.301 130.866L163.474 126.818C163.474 126.818 162.692 127.615 162.612 127.615C162.532 127.615 162.141 127.819 162.141 127.819Z" fill="black" fill-opacity="0.2"/>
<path d="M162.454 127.728L164.584 125.827L170.412 131.283L168.887 130.744L166.667 132.45L162.454 127.728Z" fill="#F27B01"/>
<path d="M170.412 131.283C170.282 131.037 170.538 126.178 170.538 126.178L172.943 127.492C172.833 127.47 172.761 131.589 172.694 131.589C172.628 131.589 171.326 130.182 171.326 130.182L170.412 131.283Z" fill="#F27B01"/>
<path opacity="0.2" d="M180.667 143.397L180.216 133.768L182.369 142.985L180.667 143.397Z" fill="black" fill-opacity="0.2"/>
<path opacity="0.2" d="M161.99 144.8C162.262 144.746 163.638 144.296 163.638 144.296L160.58 135.788L164.778 145.2L162.254 146.204L161.99 144.8Z" fill="black" fill-opacity="0.2"/>
<path opacity="0.5" d="M162.454 127.728L164.584 125.827L170.412 131.283L168.887 130.744L166.667 132.45L162.454 127.728Z" fill="white" fill-opacity="0.5"/>
<path opacity="0.5" d="M170.412 131.283C170.282 131.037 170.538 126.178 170.538 126.178L172.943 127.492C172.833 127.47 172.761 131.589 172.694 131.589C172.628 131.589 171.326 130.182 171.326 130.182L170.412 131.283Z" fill="white" fill-opacity="0.5"/>
<path opacity="0.3" d="M173.717 139.246L174.695 144.05L177.543 145.082L179.47 143.402L179.117 138.865L173.717 139.246Z" fill="white" fill-opacity="0.5"/>
<path d="M170.758 130.866L169.856 131.086C169.853 131.085 169.822 131.143 169.844 131.107C169.856 131.086 169.351 132.815 169.351 132.815C169.496 132.944 169.981 133.781 170.037 133.768C170.093 133.754 171.29 133.643 171.29 133.643L171.725 132.375C171.725 132.375 170.751 130.855 170.758 130.866Z" fill="#F27B01"/>
<path opacity="0.2" d="M170.758 130.866L169.856 131.086C169.853 131.085 169.822 131.143 169.844 131.107C169.856 131.086 169.351 132.815 169.351 132.815C169.496 132.944 169.981 133.781 170.037 133.768C170.093 133.754 171.29 133.643 171.29 133.643L171.725 132.375C171.725 132.375 170.751 130.855 170.758 130.866Z" fill="black" fill-opacity="0.2"/>
<path d="M160.808 137.744C160.808 137.744 162.948 151.985 164.184 153.317C166.273 155.566 176.621 161.535 176.621 161.535L181.786 159.725C182.148 159.606 182.548 159.671 182.844 159.897L186.375 162.592L186.038 162.876C185.892 162.999 185.681 163.024 185.509 162.939L184.961 162.665L185.574 163.267L185.38 163.431C185.187 163.594 184.918 163.653 184.67 163.586L183.091 163.163L184.548 164.133C184.223 164.407 183.77 164.502 183.354 164.383L181.044 163.725C179.469 164.085 177.864 164.315 176.248 164.412C173.528 164.58 160.683 160.091 158.289 156.805C155.895 153.519 153.426 139.875 153.426 139.875L160.808 137.744Z" fill="#B97964"/>
<path d="M153.973 147.218C153.973 147.218 150.772 134.311 154.984 131.184C159.195 128.056 163.366 144.385 163.366 144.385L153.973 147.218Z" fill="#F27B01"/>
<path opacity="0.5" d="M153.973 147.218C153.973 147.218 150.772 134.311 154.984 131.184C159.195 128.056 163.366 144.385 163.366 144.385L153.973 147.218Z" fill="white" fill-opacity="0.5"/>
<path d="M188.444 163.623H180.5H172.07C172.07 163.625 172.07 163.627 172.07 163.629C172.074 164.254 172.773 164.758 173.63 164.755H182.052H186.869C186.876 164.755 186.884 164.755 186.892 164.755H186.893H200.3C201.15 164.749 201.834 164.243 201.83 163.623H188.444V163.623Z" fill="#263238"/>
<path d="M200.546 164.692H185.588C185.33 164.69 185.122 164.52 185.124 164.313C185.124 164.274 185.132 164.236 185.148 164.199L191.802 148.944C191.97 148.508 192.471 148.21 193.039 148.208H208.006C208.259 148.208 208.464 148.373 208.464 148.576C208.464 148.618 208.455 148.661 208.437 148.701L201.783 163.956C201.612 164.39 201.113 164.687 200.546 164.692Z" fill="#263238"/>
<path opacity="0.7" d="M208.006 148.208H193.039C192.471 148.21 191.97 148.508 191.802 148.944L185.399 163.624H180.5H172.07C172.07 163.625 172.07 163.627 172.07 163.629C172.074 164.254 172.773 164.758 173.63 164.755H182.052H186.869C186.876 164.755 186.884 164.755 186.892 164.755H186.893H200.3C200.57 164.753 200.819 164.697 201.038 164.607C201.386 164.49 201.665 164.257 201.783 163.956L208.437 148.701C208.455 148.661 208.464 148.618 208.464 148.576C208.464 148.373 208.259 148.208 208.006 148.208Z" fill="white" fill-opacity="0.5"/>
<path d="M199.017 156.33C198.694 157.062 198.039 157.565 197.551 157.462C197.062 157.36 196.932 156.693 197.245 155.959C197.559 155.225 198.222 154.733 198.71 154.836C199.199 154.938 199.345 155.579 199.017 156.33Z" fill="white" fill-opacity="0.5"/>
<g opacity="0.3">
<path d="M191.802 148.944L185.398 163.624H186.092L193.039 148.208C192.471 148.21 191.97 148.508 191.802 148.944Z" fill="black" fill-opacity="0.2"/>
</g>
<path d="M192.574 180.544L202.209 182.095L203.755 178.121L193.628 174.962L192.574 180.544Z" fill="#B97964"/>
<path d="M206.493 184.099L207.794 181.409C207.794 181.409 207.424 180.911 207.683 180.332C207.829 180.007 208.638 179.471 208.638 179.471L212.272 172.1C212.261 172.095 211.768 171.849 211.509 171.823C211.193 171.792 210.911 171.796 210.658 171.829C209.771 171.948 209.073 172.639 208.576 173.167C207.742 174.054 204.863 176.251 204.863 176.251C204.863 176.251 204.05 176.767 202.778 176.729C202.068 176.709 201.499 176.971 201.301 177.271C200.897 177.882 201.107 178.431 201.669 178.819L202.322 179.269C202.465 179.957 202.125 180.601 201.405 180.877C201.405 180.877 199.912 181.861 200.647 182.123C201.066 182.273 202.966 182.871 204.453 183.389C204.8 183.509 205.127 183.624 205.415 183.724L205.415 183.723C206.053 183.947 206.493 184.099 206.493 184.099Z" fill="#263238"/>
<path d="M206.347 175.034C206.301 175.053 206.273 175.102 206.278 175.152C206.302 175.382 206.384 175.606 206.529 175.8C206.606 175.903 206.782 175.79 206.704 175.686C206.576 175.514 206.502 175.318 206.481 175.116C206.474 175.049 206.411 175.008 206.349 175.033C206.349 175.033 206.348 175.034 206.347 175.034Z" fill="#F27B01"/>
<path d="M205.761 175.452C205.715 175.47 205.687 175.52 205.692 175.57C205.716 175.8 205.798 176.024 205.943 176.218C206.02 176.32 206.196 176.208 206.118 176.104C205.99 175.932 205.916 175.736 205.895 175.534C205.888 175.467 205.825 175.426 205.763 175.451C205.763 175.451 205.762 175.452 205.761 175.452Z" fill="#F27B01"/>
<path d="M205.187 175.898C205.141 175.916 205.112 175.966 205.118 176.016C205.141 176.246 205.224 176.469 205.369 176.664C205.445 176.766 205.621 176.654 205.544 176.55C205.415 176.377 205.342 176.181 205.321 175.98C205.313 175.913 205.251 175.872 205.189 175.897C205.189 175.897 205.187 175.897 205.187 175.898Z" fill="#F27B01"/>
<path opacity="0.2" d="M207.684 180.332C207.83 180.007 208.639 179.471 208.639 179.471L212.273 172.101C212.262 172.095 211.768 171.85 211.51 171.824C211.364 171.81 211.228 171.805 211.097 171.805L205.255 183.669C205.308 183.687 205.365 183.707 205.415 183.725L205.416 183.725C206.054 183.947 206.493 184.099 206.493 184.099L207.794 181.409C207.794 181.409 207.424 180.911 207.684 180.332Z" fill="white" fill-opacity="0.5"/>
<path d="M205.239 176.008C204.972 175.904 204.704 175.8 204.459 175.651C204.215 175.502 203.993 175.306 203.857 175.054C203.793 174.937 203.75 174.79 203.817 174.674C203.886 174.553 204.048 174.518 204.187 174.533C204.454 174.561 204.695 174.724 204.86 174.936C205.024 175.149 205.179 175.746 205.239 176.008Z" stroke="#F27B01" stroke-width="0.25" stroke-miterlimit="10"/>
<path d="M205.223 176.039C204.937 176.024 204.649 176.008 204.365 176.043C204.081 176.078 203.798 176.165 203.57 176.338C203.464 176.419 203.364 176.535 203.377 176.667C203.39 176.807 203.523 176.905 203.656 176.949C203.911 177.034 204.198 176.985 204.435 176.859C204.673 176.733 205.06 176.253 205.223 176.039Z" stroke="#F27B01" stroke-width="0.25" stroke-miterlimit="10"/>
<path d="M156.37 176.151C154.292 172.842 149.595 163.873 159.126 162.126C168.657 160.379 200.5 175.512 200.5 175.512L198.482 181.589L168.844 176.917C168.844 176.917 172.9 182.331 167.981 182.084C160.826 181.376 159.108 179.665 156.37 176.151Z" fill="#263238"/>
<path opacity="0.7" d="M169.547 177.08L161.416 174.521C161.416 174.521 168.237 178.695 170.74 179.191L169.547 177.08Z" fill="black" fill-opacity="0.2"/>
</svg>
