<svg xmlns="http://www.w3.org/2000/svg" data-name="Layer 1" viewBox="0 0 512 512" id="time">
  <g data-name="&lt;Group&gt;">
    <path d="M448.5,166.2a20.038,20.038,0,0,0,0-28.3l-15.2-15.2a20.038,20.038,0,0,0-28.3,0l-18.6,18.7A202.022,202.022,0,0,0,286,96.2V74h10.6A20.684,20.684,0,0,0,317,53.6V32.1c0-11-9.4-20.1-20.4-20.1H215.4c-11,0-20.4,9.1-20.4,20.1V53.6A20.751,20.751,0,0,0,215.4,74H226V96.2C128,110.6,52.9,195.2,52.9,297c0,111.9,91.1,202.9,203,202.9s203-91,203-202.9a200.9,200.9,0,0,0-32-109.2Zm-29.4-29.3,15.2,15.2-19.1,19.1c-4.5-5.6-9.2-11-14.3-16.2ZM215,54V32h82V54H215Zm31,20h20V94.3c-4-.2-6.8-.2-10-.2s-6,.1-10,.2Zm10,405.9C155.1,479.9,73.1,397.8,73.1,297s82-183,182.9-183,182.9,82.1,182.9,183S356.9,479.9,256,479.9Z" data-name="&lt;Compound Path&gt;"></path>
    <path d="M256,134h-1.9c-87.8,1-159.1,71.8-161,159.4a9.969,9.969,0,0,0-1.1,4.5,9.392,9.392,0,0,0,1.2,4.7c3,86.4,73.6,156,160.4,157.2a6.6,6.6,0,0,0,1.4.1,4.869,4.869,0,0,0,1.2-.1C346,459.8,419,386.8,419,297,419,207.1,345.9,134,256,134Zm9,305.6V421a10,10,0,0,0-20,0v18.5c-70.1-5.4-126.2-61.4-131.5-131.5H131a10,10,0,0,0,0-20H113.3A143.185,143.185,0,0,1,245,154.4V173a10,10,0,0,0,20,0V154.3A143.216,143.216,0,0,1,398.7,288H379a10,10,0,0,0,0,20h19.5C393.1,378.7,336,435.2,265,439.6Z" data-name="&lt;Compound Path&gt;"></path>
    <path d="M312.9,289H266V222.9a10,10,0,1,0-20,0v76.2a9.691,9.691,0,0,0,9.7,9.9h57.1a10,10,0,0,0,.1-20Z" data-name="&lt;Path&gt;"></path>
  </g>
</svg>
