<svg width="35" height="35" viewBox="0 0 35 35" fill="none" xmlns="http://www.w3.org/2000/svg">
<mask id="mask0_2081_907" style="mask-type:alpha" maskUnits="userSpaceOnUse" x="0" y="0" width="35" height="35">
<rect x="17.2188" y="0.335938" width="24" height="24" transform="rotate(45 17.2188 0.335938)" fill="#D9D9D9"/>
</mask>
<g mask="url(#mask0_2081_907)">
<path d="M10.3228 18.8969C9.09712 17.6713 8.48429 16.1981 8.48429 14.4775C8.48429 12.7569 9.09712 11.2837 10.3228 10.0581C11.5484 8.83244 13.0216 8.21961 14.7422 8.21961C16.4628 8.21961 17.936 8.83244 19.1616 10.0581L25.7023 16.5988C26.5862 17.4827 27.0282 18.5434 27.0282 19.7808C27.0282 21.0182 26.5862 22.0789 25.7023 22.9628C24.8185 23.8467 23.7578 24.2886 22.5204 24.2886C21.2829 24.2886 20.2223 23.8467 19.3384 22.9628L13.1512 16.7756C12.6091 16.2335 12.338 15.5853 12.338 14.8311C12.338 14.0768 12.6091 13.4286 13.1512 12.8865C13.6933 12.3444 14.3415 12.0733 15.0957 12.0733C15.85 12.0733 16.4982 12.3444 17.0403 12.8865L23.581 19.4273L22.1668 20.8415L15.6261 14.3007C15.4729 14.1475 15.2961 14.0709 15.0957 14.0709C14.8954 14.0709 14.7186 14.1475 14.5654 14.3007C14.4122 14.4539 14.3356 14.6307 14.3356 14.8311C14.3356 15.0314 14.4122 15.2082 14.5654 15.3614L20.7526 21.5486C21.2594 22.0318 21.8516 22.2763 22.5292 22.2822C23.2068 22.2881 23.7932 22.0435 24.2881 21.5486C24.7831 21.0536 25.0306 20.4643 25.0306 19.7808C25.0306 19.0973 24.7831 18.508 24.2881 18.013L17.7474 11.4723C16.9224 10.6238 15.9236 10.2025 14.751 10.2083C13.5784 10.2142 12.5737 10.6356 11.737 11.4723C10.912 12.2973 10.5025 13.2902 10.5084 14.451C10.5143 15.6118 10.9238 16.6224 11.737 17.4827L18.6313 24.377L17.2171 25.7912L10.3228 18.8969Z" fill="white"/>
</g>
</svg>
