<svg width="43" height="44" viewBox="0 0 43 44" fill="none" xmlns="http://www.w3.org/2000/svg">
<path fill-rule="evenodd" clip-rule="evenodd" d="M27.7548 16.744C27.7548 17.0605 27.8778 17.364 28.0969 17.5878C28.3159 17.8116 28.613 17.9373 28.9228 17.9373C29.2325 17.9373 29.5296 17.8116 29.7486 17.5878C29.9677 17.364 30.0907 17.0605 30.0907 16.744C30.0879 16.0424 30.2207 15.3471 30.4815 14.698C30.7423 14.049 31.126 13.4589 31.6105 12.9618C32.0951 12.4646 32.671 12.0701 33.3051 11.801C33.9393 11.5318 34.6192 11.3932 35.3059 11.3932C35.9926 11.3932 36.6726 11.5318 37.3067 11.801C37.9409 12.0701 38.5168 12.4646 39.0013 12.9618C39.4859 13.4589 39.8696 14.049 40.1304 14.698C40.3912 15.3471 40.524 16.0424 40.5211 16.744C40.5211 17.0605 40.6442 17.364 40.8632 17.5878C41.0823 17.8116 41.3793 17.9373 41.6891 17.9373C41.9989 17.9373 42.2959 17.8116 42.515 17.5878C42.734 17.364 42.8571 17.0605 42.8571 16.744C42.8563 15.1999 42.4025 13.6916 41.5541 12.4138C40.7058 11.136 39.502 10.1475 38.0982 9.57583L36.9093 9.08527L37.9347 8.30049C38.6779 7.73584 39.228 6.94623 39.5069 6.04387C39.7857 5.14151 39.7792 4.17231 39.4881 3.27398C39.197 2.37565 38.6363 1.5939 37.8855 1.03982C37.1347 0.485732 36.2322 0.1875 35.306 0.1875C34.3799 0.1875 33.4773 0.485732 32.7265 1.03982C31.9758 1.5939 31.415 2.37565 31.1239 3.27398C30.8329 4.17231 30.8263 5.14151 31.1052 6.04387C31.384 6.94623 31.9341 7.73584 32.6773 8.30049L33.703 9.08527L32.5135 9.57583C31.1098 10.1474 29.906 11.136 29.0577 12.4138C28.2094 13.6916 27.7556 15.2 27.755 16.744H27.7548ZM32.2508 30.4917L31.6489 31.0672L32.2931 31.597C34.4839 33.3956 36.7349 35.122 39.0493 36.7507L39.7839 37.2674L40.1221 36.4238C40.2769 36.0382 40.4725 35.5342 40.5156 35.1156L40.522 35.0568L40.5095 34.854C40.4916 34.5662 40.4777 34.1931 40.4038 33.9188L40.3379 33.6702L34.5982 29.3738C34.4168 29.2347 34.1937 29.1645 33.9671 29.1752C33.7406 29.1859 33.5247 29.2769 33.3567 29.4326L33.3505 29.4391L33.3445 29.4456C32.9777 29.7923 32.6146 30.139 32.2508 30.4921V30.4917ZM12.118 10.982L12.634 11.6429L13.2 11.0279C13.5436 10.6616 13.8901 10.2888 14.2282 9.91603C14.3844 9.74451 14.4774 9.52282 14.4912 9.28894C14.505 9.05507 14.4388 8.82356 14.3039 8.63409H14.3007L10.0949 2.76735L9.85504 2.70199C9.58021 2.6235 9.22748 2.61019 8.93998 2.59082H8.92965L8.72965 2.57769L8.67332 2.5843C8.26274 2.6302 7.77327 2.82619 7.39242 2.98325L6.57053 3.32988L7.07428 4.08197C8.66775 6.44959 10.3568 8.74525 12.1177 10.982H12.118ZM4.86574 5.01086C6.67502 7.71887 8.60235 10.3412 10.618 12.8919L11.0138 13.389L10.5812 13.8534C10.1026 14.37 9.62459 14.8933 9.15417 15.4165C9.00288 15.5859 8.90223 15.796 8.86413 16.022C8.82603 16.248 8.85207 16.4805 8.93917 16.6918C9.68083 18.4774 10.7487 20.2105 11.8637 21.7801C13.2449 23.7038 14.7709 25.5144 16.4277 27.1955C18.074 28.8884 19.847 30.4475 21.7305 31.8588C23.2652 32.9971 24.9623 34.0894 26.7131 34.8477C26.9187 34.9373 27.1453 34.9645 27.3657 34.9263C27.5861 34.888 27.7911 34.7858 27.9563 34.6319C28.4696 34.1479 28.9792 33.6639 29.4848 33.1668L29.9424 32.722L30.433 33.1341C32.9224 35.1943 35.4928 37.163 38.1404 39.0138L38.6926 39.3993L38.3556 39.988C38.0156 40.5832 37.5567 41.3876 37.0978 41.8912L37.0218 41.9697L36.9248 42.0285C33.2154 44.1607 28.6558 43.3758 24.8774 41.8781C19.8752 39.8833 15.1149 36.2535 11.3395 32.3947C7.56097 28.5361 4.01456 23.6767 2.0637 18.5622C0.591428 14.7034 -0.172154 10.0467 1.91294 6.25333L1.96765 6.15529L2.04968 6.07672C2.54328 5.60589 3.32645 5.14149 3.9108 4.79486L4.48867 4.44824L4.86601 5.01068L4.86574 5.01086Z" fill="url(#paint0_linear_4589_275)"/>
<defs>
<linearGradient id="paint0_linear_4589_275" x1="21.7449" y1="0.1875" x2="21.7449" y2="43.3365" gradientUnits="userSpaceOnUse">
<stop stop-color="#FA612F"/>
<stop offset="0.58" stop-color="#FB4A55"/>
<stop offset="1" stop-color="#E620AF"/>
</linearGradient>
</defs>
</svg>
