<svg width="46" height="46" viewBox="0 0 46 46" fill="none" xmlns="http://www.w3.org/2000/svg">
<g clip-path="url(#clip0_1241_765)">
<path d="M23 0C10.2979 0 0 10.2979 0 23C0 35.7021 10.2979 46 23 46C35.7021 46 46 35.7021 46 23C46 10.2979 35.7021 0 23 0ZM37.9931 37.9931C33.9888 41.9984 28.6637 44.2031 23 44.2031C17.3363 44.2031 12.0121 41.9975 8.00688 37.9931C4.00254 33.9888 1.79688 28.6637 1.79688 23C1.79688 17.3363 4.00254 12.0121 8.00688 8.00688C12.0112 4.00164 17.3363 1.79688 23 1.79688C28.6637 1.79688 33.9879 4.00254 37.9931 8.00688C41.9984 12.0112 44.2031 17.3363 44.2031 23C44.2031 28.6637 41.9975 33.9879 37.9931 37.9931ZM36.2502 33.0445C36.2502 36.1801 30.3178 38.7236 23 38.7236C15.6822 38.7236 9.74984 36.181 9.74984 33.0445C9.74984 31.2315 11.7318 29.617 14.8188 28.5775C15.3166 28.4095 15.8646 28.6018 16.1557 29.0384C16.1602 29.0456 16.1647 29.0519 16.1692 29.0591C16.5825 29.6799 16.3138 30.5199 15.6202 30.7921C14.0884 31.3932 13.1576 32.1811 13.1576 33.0445C13.1576 34.9232 17.5725 36.4523 23 36.4523C28.4275 36.4523 32.8424 34.9241 32.8424 33.0445C32.8424 32.1811 31.9107 31.3932 30.378 30.7921C29.6844 30.5199 29.4175 29.679 29.8299 29.0591L29.8434 29.0384C30.1345 28.6009 30.6834 28.4095 31.1812 28.5775C34.2673 29.6179 36.2493 31.2315 36.2493 33.0445H36.2502ZM28.6808 16.9688C28.6808 13.8314 26.1373 11.288 23 11.288C19.8627 11.288 17.3192 13.8314 17.3192 16.9688C17.3192 20.1061 19.8627 22.6496 23 22.6496C26.1373 22.6496 28.6808 20.1061 28.6808 16.9688ZM23.6262 13.1837C25.3701 13.1855 26.7833 14.5969 26.7851 16.3381C26.7851 16.5124 26.6441 16.6534 26.4689 16.6534C26.2937 16.6534 26.1526 16.5124 26.1526 16.3381C26.1508 14.9455 25.0206 13.8162 23.6253 13.8153C23.451 13.8153 23.3091 13.6742 23.3091 13.4999C23.3091 13.3256 23.4501 13.1846 23.6253 13.1846L23.6262 13.1837ZM23.6262 14.4451C24.6729 14.4451 25.5219 15.2923 25.5219 16.3372C25.5219 16.5115 25.3809 16.6525 25.2057 16.6525C25.0305 16.6525 24.8894 16.5115 24.8894 16.3372C24.8894 15.64 24.3234 15.0758 23.6253 15.0758C23.451 15.0758 23.3091 14.9347 23.3091 14.7604C23.3091 14.5861 23.4501 14.4451 23.6253 14.4451H23.6262ZM19.7665 13.7704L20.1295 13.455C20.5122 13.0857 21.1214 13.0929 21.496 13.4694C21.5059 13.4793 22.0908 14.2366 22.0908 14.2366C22.452 14.6149 22.4511 15.2096 22.089 15.587L21.5832 16.1863C21.992 17.1781 22.7808 17.9661 23.7736 18.3766L24.3755 17.8699C24.7537 17.5087 25.3494 17.5079 25.7277 17.8681C25.7277 17.8681 26.4877 18.4521 26.4976 18.462C26.8786 18.8438 26.8786 19.4611 26.4976 19.8429L26.2101 20.1735C25.8418 20.5464 25.3377 20.7557 24.813 20.753C22.2408 20.8357 17.6184 16.2563 19.7647 13.7704H19.7665ZM24.5076 32.2943C27.2316 28.697 32.6905 20.9857 32.6905 16.9688C32.6905 11.6168 28.352 7.27734 22.9991 7.27734C17.6462 7.27734 13.3077 11.6159 13.3077 16.9688C13.3077 20.9857 18.7675 28.6979 21.4906 32.2943C22.2471 33.2934 23.7502 33.2934 24.5067 32.2943H24.5076ZM15.4756 16.9688C15.4756 12.8135 18.8438 9.44527 22.9991 9.44527C27.1544 9.44527 30.5226 12.8135 30.5226 16.9688C30.5226 21.1241 27.1544 24.4923 22.9991 24.4923C18.8438 24.4923 15.4756 21.1241 15.4756 16.9688Z" fill="url(#paint0_linear_1241_765)"/>
</g>
<defs>
<linearGradient id="paint0_linear_1241_765" x1="23" y1="0" x2="23" y2="46" gradientUnits="userSpaceOnUse">
<stop stop-color="#FA612F"/>
<stop offset="0.58" stop-color="#FB4A55"/>
<stop offset="1" stop-color="#E620AF"/>
</linearGradient>
<clipPath id="clip0_1241_765">
<rect width="46" height="46" fill="white"/>
</clipPath>
</defs>
</svg>
