<svg width="40" height="40" viewBox="0 0 40 40" fill="none" xmlns="http://www.w3.org/2000/svg">
<g clip-path="url(#clip0_1804_1075)">
<path d="M20 40C31.0457 40 40 31.0457 40 20C40 8.9543 31.0457 0 20 0C8.9543 0 0 8.9543 0 20C0 31.0457 8.9543 40 20 40Z" fill="url(#paint0_linear_1804_1075)"/>
<path fill-rule="evenodd" clip-rule="evenodd" d="M13.7817 29.8249L6.46703 21.9961C5.46561 20.9243 5.52309 19.2285 6.5949 18.2271C7.66671 17.2257 9.36246 17.2833 10.3639 18.355L16.0061 24.3937L24.9369 16.0493C25.0173 15.9742 25.1012 15.9054 25.188 15.8421L29.3878 11.9181C30.4596 10.9167 32.1555 10.9743 33.1568 12.0462C34.1582 13.1178 34.1006 14.8137 33.0289 15.8151L20.2015 27.8002L20.1878 27.7855L15.7507 31.9314L13.7817 29.824V29.8249Z" fill="white"/>
</g>
<defs>
<linearGradient id="paint0_linear_1804_1075" x1="20" y1="0" x2="20" y2="40" gradientUnits="userSpaceOnUse">
<stop stop-color="#FA612F"/>
<stop offset="0.58" stop-color="#FB4A55"/>
<stop offset="1" stop-color="#E620AF"/>
</linearGradient>
<clipPath id="clip0_1804_1075">
<rect width="40" height="40" fill="white"/>
</clipPath>
</defs>
</svg>
