<svg width="32" height="32" viewBox="0 0 32 32" fill="none" xmlns="http://www.w3.org/2000/svg">
<g clip-path="url(#clip0_1805_1084)">
<path d="M16 32C24.8366 32 32 24.8366 32 16C32 7.16344 24.8366 0 16 0C7.16344 0 0 7.16344 0 16C0 24.8366 7.16344 32 16 32Z" fill="url(#paint0_linear_1805_1084)"/>
<path fill-rule="evenodd" clip-rule="evenodd" d="M11.0253 23.8598L5.17362 17.5968C4.37249 16.7393 4.41847 15.3827 5.27592 14.5816C6.13337 13.7805 7.48997 13.8266 8.2911 14.6839L12.8049 19.5149L19.9496 12.8393C20.0138 12.7793 20.081 12.7242 20.1504 12.6736L23.5103 9.5344C24.3677 8.73327 25.7244 8.77938 26.5254 9.63683C27.3266 10.4942 27.2805 11.8509 26.4231 12.652L16.1612 22.24L16.1503 22.2283L12.6005 25.545L11.0253 23.8591V23.8598Z" fill="white"/>
</g>
<defs>
<linearGradient id="paint0_linear_1805_1084" x1="16" y1="0" x2="16" y2="32" gradientUnits="userSpaceOnUse">
<stop stop-color="#FA612F"/>
<stop offset="0.58" stop-color="#FB4A55"/>
<stop offset="1" stop-color="#E620AF"/>
</linearGradient>
<clipPath id="clip0_1805_1084">
<rect width="32" height="32" fill="white"/>
</clipPath>
</defs>
</svg>
