<svg xmlns="http://www.w3.org/2000/svg" width="100" height="100" viewBox="0 0 100 100">
  <g id="Group_100" data-name="Group 100" transform="translate(-3999 -4696)">
    <rect id="Rectangle_69" data-name="Rectangle 69" width="100" height="100" transform="translate(3999 4696)" fill="rgba(255,255,255,0)"/>
    <g id="Group_99" data-name="Group 99" transform="translate(-142.743 322.377)">
      <g id="Group_83" data-name="Group 83" transform="translate(4144.315 4396.945)">
        <g id="Group_81" data-name="Group 81" transform="translate(0 0)">
          <g id="money-svgrepo-com">
            <path id="Path_155" data-name="Path 155" d="M207.091,380.228a2.973,2.973,0,0,1-2.964,2.964H118.164a2.973,2.973,0,0,1-2.964-2.964V335.764a2.973,2.973,0,0,1,2.964-2.964h85.963a2.973,2.973,0,0,1,2.964,2.964Z" transform="translate(-113.718 -331.318)" fill="#fecf0d"/>
            <path id="Path_156" data-name="Path 156" d="M192.809,373.356H106.846a4.367,4.367,0,0,1-4.446-4.446V324.446A4.367,4.367,0,0,1,106.846,320h85.963a4.367,4.367,0,0,1,4.446,4.446V368.91A4.367,4.367,0,0,1,192.809,373.356Zm-85.963-50.392a1.4,1.4,0,0,0-1.482,1.482V368.91a1.4,1.4,0,0,0,1.482,1.482h85.963a1.4,1.4,0,0,0,1.482-1.482V324.446a1.4,1.4,0,0,0-1.482-1.482Z" transform="translate(-102.4 -320)" fill="#231c1c"/>
            <path id="Path_157" data-name="Path 157" d="M256.27,426.442V402.728a5.946,5.946,0,0,1-5.928-5.928H185.128a5.946,5.946,0,0,1-5.928,5.928v23.714a5.946,5.946,0,0,1,5.928,5.929h65.213A5.946,5.946,0,0,1,256.27,426.442Z" transform="translate(-170.307 -387.907)" fill="#fecf0d"/>
            <path id="Path_158" data-name="Path 158" d="M240.506,422.535H172.328v-1.482a4.367,4.367,0,0,0-4.446-4.446H166.4V389.928h1.482a4.367,4.367,0,0,0,4.446-4.446V384h68.177v1.482a4.367,4.367,0,0,0,4.446,4.446h1.482v26.678h-1.482a4.367,4.367,0,0,0-4.446,4.446Zm-65.361-2.964H237.69a7.271,7.271,0,0,1,5.78-5.78V392.745a7.271,7.271,0,0,1-5.78-5.78H175.144a7.271,7.271,0,0,1-5.78,5.78v21.046A7.271,7.271,0,0,1,175.144,419.571Z" transform="translate(-158.989 -376.589)" fill="#231c1c"/>
            <path id="Path_159" data-name="Path 159" d="M345.6,391.95c0,11.46,8.626,20.75,19.267,20.75s19.268-9.29,19.268-20.75-8.626-20.75-19.268-20.75S345.6,380.49,345.6,391.95Z" transform="translate(-317.44 -365.272)"/>
            <path id="Path_160" data-name="Path 160" d="M353.55,402.863c-11.412,0-20.75-9.93-20.75-22.232s9.337-22.232,20.75-22.232,20.75,9.93,20.75,22.232S364.962,402.863,353.55,402.863Zm0-41.5c-9.782,0-17.785,8.6-17.785,19.268s8,19.267,17.785,19.267,17.785-8.6,17.785-19.267S363.331,361.364,353.55,361.364Z" transform="translate(-306.122 -353.954)" fill="#231c1c"/>
            <path id="Path_161" data-name="Path 161" d="M499.2,371.2h2.964v41.5H499.2Z" transform="translate(-453.254 -365.272)" fill="#fff"/>
            <path id="Path_162" data-name="Path 162" d="M444.093,442.206a8.843,8.843,0,0,1-6.521-2.816,9.185,9.185,0,0,1-2.371-6.077h2.964a5.726,5.726,0,0,0,1.63,4,6.087,6.087,0,0,0,4.3,1.927,5.928,5.928,0,1,0,0-11.857,8.893,8.893,0,1,1,8.893-8.893h-2.964a5.928,5.928,0,1,0-5.928,5.928,8.893,8.893,0,1,1,0,17.785Z" transform="translate(-396.665 -399.225)" fill="#fff"/>
          </g>
        </g>
      </g>
    </g>
  </g>
</svg>
