<svg xmlns="http://www.w3.org/2000/svg" width="100" height="100" viewBox="0 0 100 100">
  <g id="Group_101" data-name="Group 101" transform="translate(-3879 -4696)">
    <rect id="Rectangle_69" data-name="Rectangle 69" width="100" height="100" transform="translate(3879 4696)" fill="rgba(255,255,255,0)"/>
    <g id="Group_97" data-name="Group 97" transform="translate(-124.609 325.561)">
      <g id="Group_84" data-name="Group 84" transform="translate(4005.1 4393)">
        <g id="Group_80" data-name="Group 80" transform="translate(0 0)">
          <g id="_icons">
            <path id="Path_154" data-name="Path 154" d="M94.608,23.55l-9.8-6.86a59.887,59.887,0,0,0-67.128,0l-9.8,6.86A11.517,11.517,0,0,0,2,33.839a12.132,12.132,0,0,0,5.39,10.29l9.8,6.86a60.483,60.483,0,0,0,33.319,10.29,59.306,59.306,0,0,0,33.319-10.29l9.8-6.86a12.783,12.783,0,0,0,5.39-10.29C99.018,29.919,98.038,26,94.608,23.55ZM35.319,48.539a56.383,56.383,0,0,1-12.25-5.88l-9.8-6.86a1.828,1.828,0,0,1-1.47-1.96,3.167,3.167,0,0,1,.98-2.45l9.8-6.86c4.41-1.96,8.33-3.92,12.74-5.39a23.1,23.1,0,0,0-5.88,14.7A22.075,22.075,0,0,0,35.319,48.539ZM51,45.6a11.76,11.76,0,1,1,11.76-11.76A11.923,11.923,0,0,1,51,45.6Zm38.219-9.31-9.8,6.86a56.383,56.383,0,0,1-12.25,5.88,23.1,23.1,0,0,0,5.88-14.7,22.075,22.075,0,0,0-5.88-14.7,56.383,56.383,0,0,1,12.25,5.88l9.8,6.86c.98,0,.98.98.98,1.47A3.167,3.167,0,0,1,89.218,36.289Z" transform="translate(-2 -6.4)"/>
          </g>
          <circle id="Ellipse_5" data-name="Ellipse 5" cx="13.49" cy="13.49" r="13.49" transform="translate(35.824 13.49)" fill="#fecf0d"/>
        </g>
      </g>
    </g>
  </g>
</svg>
