<svg xmlns="http://www.w3.org/2000/svg" width="100" height="100" viewBox="0 0 100 100">
  <g id="Group_102" data-name="Group 102" transform="translate(-3759 -4696)">
    <rect id="Rectangle_69" data-name="Rectangle 69" width="100" height="100" transform="translate(3759 4696)" fill="rgba(255,255,255,0)"/>
    <g id="Group_95" data-name="Group 95" transform="translate(-106 314)">
      <g id="Group_85" data-name="Group 85" transform="translate(3866.61 4383)">
        <g id="Group_82" data-name="Group 82">
          <path id="Path_165" data-name="Path 165" d="M3917.5,4434.6l3.937-2.03,3.149,5.552-4.352,2.238-2.735-1.367-1.285-2.072Z" transform="translate(-3841.363 -4357.769)" fill="#fecf0d"/>
          <g id="Layer" transform="translate(0 0)">
            <g id="Group_78" data-name="Group 78">
              <path id="Path_150" data-name="Path 150" d="M1394.62,1393.1h0a5.17,5.17,0,1,0-7.312,0A5.177,5.177,0,0,0,1394.62,1393.1Zm-5.7-1.609a2.9,2.9,0,1,1,4.1,0A2.876,2.876,0,0,1,1388.916,1391.494Z" transform="translate(-1312.151 -1310.629)" fill="#333"/>
              <path id="Path_151" data-name="Path 151" d="M100.942,40.635l0,0,.007-.007.3-.3-.007-.008a12.2,12.2,0,0,0-.3-16.9,12.128,12.128,0,0,0-16.869-.3l-.007-.007-.3.3-.007.007,0,0L12.383,94.93l.028.028a1.683,1.683,0,0,0-.757,1.189L9.306,113.325a1.687,1.687,0,0,0,1.9,1.9l17.145-2.352a1.679,1.679,0,0,0,1.187-.759l.028.028Zm-8.588-17.4a8.711,8.711,0,0,1,6.206,2.576,8.821,8.821,0,0,1,1.078,11.126L87.454,24.726A8.7,8.7,0,0,1,92.354,23.23Zm-8.285,4.659L96.482,40.325,29.566,107.367l-4.67-4.678L78.61,48.874l-3.216-3.221L21.681,99.468,17.152,94.93Zm-71.121,83.69,1.933-14.146,12.186,12.208Z" transform="translate(-9.291 -19.343)" fill="#080707"/>
              <path id="Path_152" data-name="Path 152" d="M40.346,55.8l3.216-3.216L17.827,26.849l10.5-10.5,4.979,4.98-3.613,3.612,2.852,2.852,3.613-3.612,2.9,2.9-3.613,3.612L38.3,33.546l3.613-3.612,2.9,2.9L39.472,38.18l2.853,2.852,5.344-5.344,3.539,3.539L47.6,42.841l2.852,2.852L54.06,42.08l0,0,3.216-3.216L29.935,11.524a2.273,2.273,0,0,0-3.216,0L13,25.241a2.273,2.273,0,0,0,0,3.216Z" transform="translate(-12.164 -10.858)"/>
              <path id="Path_153" data-name="Path 153" d="M1018.077,999.664c-.041-.041-.084-.081-.127-.118l-28.614-28.614-8.56,8.56,2.846,2.846,5.344-5.344,24.282,24.282-10.5,10.5-27.128-27.128-3.216,3.216,28.736,28.735a2.273,2.273,0,0,0,3.216,0l13.718-13.716,0,0A2.273,2.273,0,0,0,1018.077,999.664Z" transform="translate(-922.169 -920.692)" fill="#333"/>
            </g>
          </g>
          <path id="Path_164" data-name="Path 164" d="M3921.867,4385.433c5.455-.354,7.287,1.438,9.079,3.953,2.595,3.579.357,10.71.357,10.71l-13.165-13.292Z" transform="translate(-3840.384 -4381.785)" fill="#fecf0d"/>
        </g>
      </g>
    </g>
  </g>
</svg>
