<svg xmlns="http://www.w3.org/2000/svg" width="100" height="100" viewBox="0 0 100 100">
  <g id="ideate" transform="translate(-3519 -4942)">
    <rect id="Rectangle_70" data-name="Rectangle 70" width="100" height="100" transform="translate(3519 4942)" fill="#fff" opacity="0"/>
    <path id="Path_167" data-name="Path 167" d="M3563.469,5002.84l-.6-5.068-3.319-4.706-4.1-5.189-2.112-6.033.784-4.767,3.017-5.792,3.8-2.414,3.741-1.871,4.4-.483,7,1.931,4.887,4.585,2.956,3.318.3,4.1v3.74l-2.293,5.068-3.982,4.887-1.448,2.595-1.267,1.568-.724,2.534v1.991Z" fill="#fecf0d"/>
    <g id="ideate-svgrepo-com" transform="translate(3524 4947)">
      <path id="ideate_1_" d="M43.648,77.79a37.624,37.624,0,0,1-37.5-35.207L2.178,46.554.746,45.12l6.339-6.337,6.339,6.339-1.432,1.434L8.185,42.749a35.557,35.557,0,0,0,70.062,5.67l1.972.467A37.423,37.423,0,0,1,43.648,77.79ZM80.21,41.647,73.868,35.3,75.3,33.873l3.808,3.808A35.551,35.551,0,0,0,9.06,32.011l-1.974-.467a37.577,37.577,0,0,1,74.064,6.3l3.968-3.971L86.553,35.3ZM46.46,63.728H40.835V61.7H46.46ZM49.273,58.1H38.023V56.078h11.25Zm0-5.625H38.023a1.012,1.012,0,0,1-1.012-1.013v-.757c0-3.043-1.373-5.929-4.2-8.823-3.642-3.735-5.647-7.923-5.647-11.8a16.484,16.484,0,0,1,32.962,0c0,3.873-2.008,8.061-5.65,11.8-2.824,2.894-4.193,5.78-4.193,8.823v.757A1.012,1.012,0,0,1,49.273,52.478Zm-10.24-2.025h9.231c.073-3.5,1.634-6.767,4.767-9.979,1.9-1.941,5.074-5.873,5.074-10.381a14.459,14.459,0,0,0-28.912,0c0,4.506,3.178,8.438,5.074,10.381C37.4,43.683,38.959,46.954,39.033,50.452Z" transform="translate(1.352 4.785)"/>
      <rect id="_Transparent_Rectangle" width="90" height="90" fill="none"/>
    </g>
  </g>
</svg>
