<svg xmlns="http://www.w3.org/2000/svg" width="100" height="100" viewBox="0 0 100 100">
  <g id="implement" transform="translate(-3653 -4958)">
    <rect id="Rectangle_69" data-name="Rectangle 69" width="100" height="100" transform="translate(3653 4958)" fill="#fff" opacity="0"/>
    <g id="Group_107" data-name="Group 107">
      <rect id="Rectangle_71" data-name="Rectangle 71" width="82" height="24" transform="translate(3662 5018)" fill="#fecf0d"/>
      <path id="install-svgrepo-com" d="M96.755,48.427,80.21,7.066A8.051,8.051,0,0,0,72.727,2h-12.7L62.01,23.21H76.1L49.488,45.271,22.877,23.21H36.965L38.948,2h-12.7a8.049,8.049,0,0,0-7.482,5.066L2.22,48.427A22.175,22.175,0,0,0,.937,60.282L4.015,78.748a8.056,8.056,0,0,0,7.947,6.736H87.008a8.056,8.056,0,0,0,7.947-6.736l3.078-18.466a22.019,22.019,0,0,0-1.278-11.855ZM85.8,71.109a4.706,4.706,0,0,1-4.649,3.939H17.826a4.706,4.706,0,0,1-4.649-3.939l-1.9-11.443a4.706,4.706,0,0,1,4.649-5.489H83.059a4.713,4.713,0,0,1,4.649,5.489Z" transform="translate(3653.362 4964.24)"/>
    </g>
  </g>
</svg>
