<svg width="25" height="25" viewBox="0 0 25 25" fill="none" xmlns="http://www.w3.org/2000/svg">
<g clip-path="url(#clip0_104_23)">
<path d="M4.21611 24.6C3.15674 24.6 2.13877 24.1617 1.32783 23.35C-0.469824 21.5461 -0.469824 18.6125 1.32705 16.8094L15.3474 1.92111C17.5349 -0.269512 20.8856 -0.0734188 23.331 2.3758C24.4263 3.47346 25.0411 5.05627 25.0185 6.71877C24.9958 8.36486 24.3528 9.93986 23.2536 11.0399L12.6575 22.3203C12.363 22.636 11.8677 22.6508 11.5536 22.3547C11.2396 22.0586 11.2247 21.5625 11.52 21.2477L22.1325 9.95002C22.963 9.11799 23.4388 7.9383 23.4567 6.69689C23.4747 5.45549 23.0255 4.28283 22.2271 3.48283C20.7271 1.97971 18.2849 1.19221 16.4692 3.01252L2.44971 17.9008C1.24424 19.1094 1.24502 21.0508 2.43408 22.243C2.99189 22.8016 3.65439 23.0735 4.35908 23.0305C5.05674 22.9875 5.77393 22.6305 6.37861 22.0242L17.5341 10.1508C17.938 9.74611 18.7513 8.75236 17.9239 7.92346C17.456 7.45392 17.1271 7.48361 17.0185 7.49221C16.7099 7.51955 16.3481 7.73361 15.9739 8.10939L7.57705 17.0391C7.28018 17.3547 6.78564 17.3696 6.47236 17.0727C6.1583 16.7766 6.14346 16.2805 6.43955 15.9664L14.8513 7.01955C15.5122 6.35471 16.1888 5.99455 16.8771 5.93283C17.4146 5.88517 18.213 5.99924 19.0278 6.81642C20.2372 8.02814 20.0864 9.80549 18.6552 11.2406L7.49971 23.1133C6.60908 24.007 5.5333 24.5258 4.45439 24.5922C4.37549 24.5977 4.29502 24.6 4.21611 24.6Z" fill="#F27B01"/>
</g>
<defs>
<clipPath id="clip0_104_23">
<rect width="25" height="25" fill="white"/>
</clipPath>
</defs>
</svg>
