<svg width="400" height="267" viewBox="0 0 400 267" fill="none" xmlns="http://www.w3.org/2000/svg">
<path d="M82.4227 20.0714H25.1299V79.7941H82.4227V20.0714Z" fill="#E0E0E0"/>
<path d="M78.5438 20.0714H21.251V79.7941H78.5438V20.0714Z" fill="#FAFAFA"/>
<path d="M78.5604 79.8122H21.2324V20.0538H78.5604V79.8122ZM21.2682 79.7765H78.5252V20.0896H21.2682V79.7765Z" fill="#E0E0E0"/>
<path d="M70.8412 28.1002H28.9521V71.7658H70.8412V28.1002Z" fill="white"/>
<path d="M28.9517 72.0565C28.9848 72.0954 28.5869 72.5525 27.9181 73.2581C27.2493 73.9642 26.309 74.9194 25.2552 75.9573C24.2008 76.9957 23.2328 77.9205 22.5186 78.5765C21.8045 79.233 21.3442 79.6213 21.308 79.585C21.2717 79.5482 21.6669 79.0943 22.3362 78.3882C23.005 77.6826 23.948 76.7247 25.005 75.6837C26.0616 74.6426 27.0322 73.7157 27.7464 73.0597C28.461 72.4031 28.9186 72.017 28.9517 72.0565Z" fill="#E0E0E0"/>
<path d="M70.8406 71.9493C70.88 71.9162 71.3366 72.3141 72.0427 72.9829C72.7488 73.6522 73.704 74.592 74.7419 75.6458C75.7803 76.6997 76.7051 77.6682 77.3611 78.3824C78.0176 79.0965 78.4059 79.5568 78.3696 79.593C78.3334 79.6293 77.879 79.2341 77.1728 78.5653C76.4672 77.896 75.5089 76.9536 74.4678 75.8965C73.4273 74.8394 72.5003 73.8688 71.8438 73.1546C71.1878 72.44 70.8016 71.9824 70.8406 71.9493Z" fill="#E0E0E0"/>
<path d="M70.7265 28.2165C70.6935 28.1771 71.0913 27.7205 71.7601 27.0144C72.4289 26.3083 73.3692 25.3531 74.4231 24.3152C75.4769 23.2768 76.4455 22.352 77.1596 21.6955C77.8737 21.0389 78.334 20.6507 78.3703 20.6875C78.406 20.7237 78.0108 21.1781 77.342 21.8843C76.6732 22.5904 75.7303 23.5477 74.6732 24.5888C73.6161 25.6299 72.646 26.5563 71.9313 27.2133C71.2172 27.8699 70.7596 28.256 70.7265 28.2165Z" fill="#E0E0E0"/>
<path d="M28.8375 28.3236C28.7986 28.3567 28.3415 27.9588 27.6359 27.29C26.9298 26.6212 25.9746 25.681 24.9367 24.6271C23.8983 23.5727 22.9735 22.6047 22.3175 21.8906C21.661 21.1764 21.2727 20.7162 21.309 20.6799C21.3452 20.6436 21.7996 21.0388 22.5058 21.7076C23.2119 22.3764 24.1692 23.3194 25.2103 24.3764C26.2514 25.4335 27.1783 26.4042 27.8343 27.1183C28.4908 27.833 28.877 28.2906 28.8375 28.3236Z" fill="#E0E0E0"/>
<path d="M70.7266 71.7658C70.7234 71.7632 70.7207 71.6912 70.7175 71.5536C70.7154 71.4048 70.7122 71.2042 70.7085 70.944C70.7042 70.3962 70.6978 69.609 70.6898 68.5866C70.6802 66.5178 70.6658 63.5088 70.6477 59.6874C70.6279 52.0394 70.5997 41.1445 70.5655 28.0997L70.7271 28.2613C58.5325 28.2682 44.2119 28.2762 28.9565 28.2853H28.9522L29.1378 28.0997C29.1282 44.1269 29.1191 59.1205 29.1117 71.7653L28.9522 71.6064C41.4701 71.64 51.8925 71.6682 59.1997 71.6874C62.8503 71.705 65.7223 71.7194 67.6957 71.729C68.6706 71.737 69.421 71.7434 69.9437 71.7477C70.1906 71.7514 70.3821 71.7546 70.5245 71.7568C70.6557 71.76 70.7234 71.7632 70.7266 71.7658C70.7298 71.769 70.6674 71.7717 70.5421 71.7749C70.4039 71.777 70.2183 71.7797 69.9783 71.784C69.4631 71.7882 68.7229 71.7941 67.7607 71.8026C65.7954 71.8122 62.9362 71.8266 59.3005 71.8442C51.9687 71.864 41.5117 71.8917 28.9517 71.9258L28.7927 71.9264V71.7664C28.7853 59.1216 28.7762 44.128 28.7666 28.1008V27.9152H28.9522H28.9565C44.2114 27.9237 58.5325 27.9317 70.7271 27.9392H70.8893L70.8887 28.1008C70.8546 41.1888 70.8263 52.1189 70.8066 59.792C70.7879 63.5978 70.7741 66.5946 70.7639 68.6549C70.7559 69.664 70.7495 70.4405 70.7453 70.9808C70.7415 71.233 70.7383 71.4282 70.7362 71.5728C70.7325 71.704 70.7298 71.769 70.7266 71.7658Z" fill="#E0E0E0"/>
<path d="M56.8848 42.944H42.9072V56.9216H56.8848V42.944Z" fill="#EBEBEB"/>
<path d="M368.17 22.8112V76.8005H290.627L287.833 23.1888L368.17 22.8112Z" fill="#E0E0E0"/>
<path d="M287.833 23.189V76.6871H365.376V23.189L287.833 23.189Z" fill="white"/>
<path d="M365.744 77.0549H287.465V22.8213H365.744V77.0549ZM288.201 76.3189H365.008V23.5568H288.201V76.3189Z" fill="#E0E0E0"/>
<path d="M356.978 29.8357H296.231V70.04H356.978V29.8357Z" fill="white"/>
<path d="M356.978 29.8357C356.978 29.8357 356.873 29.8427 356.678 29.8459C356.472 29.8485 356.186 29.8517 355.814 29.856C355.044 29.8608 353.927 29.8683 352.478 29.8773C349.56 29.8885 345.317 29.9045 339.96 29.9248C329.247 29.9461 314.084 29.976 296.231 30.0112L296.406 29.8357C296.411 42.1195 296.417 55.7301 296.422 70.0352V70.04L296.231 69.8485C319.146 69.8635 340.273 69.8768 356.977 69.8875L356.825 70.04C356.858 57.8048 356.886 47.7733 356.905 40.7877C356.921 37.2965 356.934 34.5685 356.944 32.6987C356.951 31.7749 356.957 31.0656 356.961 30.5733C356.967 30.0917 356.978 29.8357 356.978 29.8357C356.978 29.8357 356.989 30.0699 356.994 30.5413C356.998 31.0272 357.004 31.7269 357.011 32.6384C357.02 34.5003 357.033 37.2165 357.05 40.6933C357.069 47.7019 357.097 57.7659 357.13 70.0405L357.131 70.1931H356.978C340.274 70.2037 319.147 70.2171 296.232 70.232H296.04V70.0405V70.0357C296.046 55.7301 296.051 42.12 296.056 29.8363V29.6603L296.232 29.6608C314.132 29.696 329.335 29.7259 340.076 29.7472C345.417 29.7675 349.645 29.7835 352.554 29.7947C353.988 29.8037 355.093 29.8112 355.855 29.816C356.219 29.8203 356.498 29.824 356.699 29.8261C356.888 29.8288 356.978 29.8357 356.978 29.8357Z" fill="#E0E0E0"/>
<path d="M287.833 23.0389C287.865 22.9973 288.373 23.3301 289.166 23.9024C289.959 24.4752 291.04 25.2874 292.206 26.2208C293.373 27.1546 294.399 28.0378 295.121 28.6992C295.843 29.3605 296.265 29.7968 296.231 29.8357C296.159 29.9173 294.295 28.3797 291.966 26.52C289.637 24.6629 287.765 23.1264 287.833 23.0389Z" fill="#E0E0E0"/>
<path d="M365.376 23.1887C365.441 23.2719 363.615 24.8271 361.296 26.6623C358.976 28.4981 357.043 29.9183 356.977 29.8357C356.912 29.7525 358.738 28.1978 361.058 26.3621C363.377 24.5269 365.31 23.1061 365.376 23.1887Z" fill="#E0E0E0"/>
<path d="M365.315 76.6948C362.433 74.3588 359.551 72.0234 356.669 69.6874L365.315 76.6948Z" fill="white"/>
<path d="M356.669 69.6874C356.735 69.6053 358.725 71.1071 361.112 73.0421C363.5 74.9775 365.381 76.6127 365.314 76.6949C365.247 76.777 363.259 75.2751 360.87 73.3397C358.484 71.4047 356.603 69.7696 356.669 69.6874Z" fill="#E0E0E0"/>
<path d="M287.833 76.6869C287.767 76.6037 289.575 75.0651 291.87 73.2496C294.166 71.4336 296.08 70.0293 296.145 70.1125C296.211 70.1957 294.403 71.7344 292.107 73.5499C289.813 75.3653 287.898 76.7701 287.833 76.6869Z" fill="#E0E0E0"/>
<path d="M308.565 42.3622V55.8241H346.788V42.3622H308.565Z" fill="#F5F5F5"/>
<path d="M90.6953 211.219V236.933H128.298H169.772V211.219H90.6953Z" fill="#F5F5F5"/>
<path d="M87.3779 204.03V211.219H172.537V204.03H128.298H87.3779Z" fill="#E0E0E0"/>
<path d="M129.957 236.933H169.772V211.219H172.537V204.03H128.298V210.554L129.957 236.933Z" fill="#E0E0E0"/>
<path d="M117.791 215.366H101.755V219.236H117.791V215.366Z" fill="#E0E0E0"/>
<path d="M120.283 224.076H99.6914V232.249H120.283V224.076Z" fill="white"/>
<path d="M330.193 164.887L312.02 238.372H316.804L335.425 164.887H330.193Z" fill="#F5F5F5"/>
<path d="M364.425 164.887L381.43 238.372H376.646L359.193 164.887H364.425Z" fill="#F5F5F5"/>
<path d="M350.216 237.293H344.648L343.818 152.951H349.387L350.216 237.293Z" fill="#F5F5F5"/>
<path d="M385.893 103.419H307.312V153.763H385.893V103.419Z" fill="#EBEBEB"/>
<path d="M366.346 164.115H326.904V168.977H366.346V164.115Z" fill="#F5F5F5"/>
<path d="M312.534 147.195C312.553 147.195 312.571 147.485 312.588 148.116H312.481C312.4 145.654 312.341 137.497 312.341 127.83C312.363 121.996 312.383 116.717 312.397 112.832C312.423 110.953 312.444 109.413 312.459 108.287C312.474 107.785 312.485 107.376 312.495 107.051C312.507 106.768 312.521 106.62 312.534 106.62C312.547 106.62 312.561 106.768 312.573 107.051C312.582 107.376 312.594 107.785 312.609 108.287C312.625 109.413 312.645 110.952 312.67 112.832C312.685 116.717 312.705 121.996 312.727 127.83C312.727 137.496 312.668 145.654 312.587 148.116H312.479C312.498 147.485 312.516 147.195 312.534 147.195Z" fill="#F5F5F5"/>
<path d="M318.383 147.195C318.402 147.195 318.42 147.485 318.437 148.116H318.329C318.249 145.654 318.189 137.497 318.189 127.83C318.211 121.996 318.232 116.717 318.246 112.832C318.272 110.953 318.292 109.413 318.307 108.287C318.322 107.785 318.334 107.376 318.344 107.051C318.356 106.768 318.369 106.62 318.383 106.62C318.396 106.62 318.409 106.768 318.421 107.051C318.431 107.376 318.443 107.785 318.458 108.287C318.473 109.413 318.494 110.952 318.519 112.832C318.533 116.717 318.554 121.996 318.576 127.83C318.576 137.496 318.516 145.654 318.436 148.116H318.328C318.346 147.485 318.364 147.195 318.383 147.195Z" fill="#F5F5F5"/>
<path d="M324.232 147.195C324.25 147.195 324.268 147.485 324.286 148.116H324.178C324.097 145.654 324.038 137.497 324.038 127.83C324.06 121.996 324.08 116.717 324.095 112.832C324.12 110.953 324.141 109.413 324.156 108.287C324.171 107.785 324.183 107.376 324.192 107.051C324.205 106.768 324.218 106.62 324.231 106.62C324.244 106.62 324.258 106.768 324.27 107.051C324.28 107.376 324.291 107.785 324.306 108.287C324.322 109.413 324.343 110.952 324.368 112.832C324.383 116.717 324.402 121.996 324.424 127.83C324.424 137.496 324.365 145.654 324.284 148.116H324.177C324.195 147.485 324.213 147.195 324.232 147.195Z" fill="#F5F5F5"/>
<path d="M330.08 147.195C330.099 147.195 330.117 147.485 330.134 148.116H330.026C329.946 145.654 329.887 137.497 329.887 127.83C329.909 121.996 329.929 116.717 329.943 112.832C329.969 110.953 329.99 109.413 330.005 108.287C330.02 107.785 330.031 107.376 330.041 107.051C330.054 106.768 330.066 106.62 330.08 106.62C330.093 106.62 330.106 106.768 330.119 107.051C330.128 107.376 330.14 107.785 330.155 108.287C330.17 109.413 330.191 110.952 330.217 112.832C330.232 116.717 330.252 121.996 330.273 127.83C330.273 137.496 330.215 145.654 330.134 148.116H330.026C330.044 147.485 330.062 147.195 330.08 147.195Z" fill="#F5F5F5"/>
<path d="M335.929 147.195C335.948 147.195 335.966 147.485 335.983 148.116H335.875C335.794 145.654 335.735 137.497 335.735 127.83C335.757 121.996 335.777 116.717 335.792 112.832C335.817 110.953 335.838 109.413 335.854 108.287C335.869 107.785 335.88 107.376 335.89 107.051C335.903 106.768 335.916 106.62 335.929 106.62C335.942 106.62 335.955 106.768 335.968 107.051C335.977 107.376 335.989 107.785 336.004 108.287C336.02 109.413 336.04 110.952 336.065 112.832C336.08 116.717 336.1 121.996 336.122 127.83C336.122 137.496 336.063 145.654 335.983 148.116H335.875C335.892 147.485 335.91 147.195 335.929 147.195Z" fill="#F5F5F5"/>
<path d="M341.778 147.195C341.796 147.195 341.814 147.485 341.831 148.116H341.724C341.643 145.654 341.584 137.497 341.584 127.83C341.606 121.996 341.626 116.717 341.641 112.832C341.666 110.953 341.687 109.413 341.702 108.287C341.717 107.785 341.729 107.376 341.739 107.051C341.751 106.768 341.764 106.62 341.778 106.62C341.791 106.62 341.804 106.768 341.817 107.051C341.826 107.376 341.838 107.785 341.853 108.287C341.868 109.413 341.889 110.952 341.915 112.832C341.929 116.717 341.949 121.996 341.971 127.83C341.971 137.496 341.912 145.654 341.831 148.116H341.724C341.741 147.485 341.759 147.195 341.778 147.195Z" fill="#F5F5F5"/>
<path d="M347.626 147.195C347.645 147.195 347.663 147.485 347.68 148.116H347.572C347.492 145.654 347.433 137.497 347.433 127.83C347.454 121.996 347.475 116.717 347.489 112.832C347.515 110.953 347.536 109.413 347.55 108.287C347.565 107.785 347.577 107.376 347.587 107.051C347.599 106.768 347.612 106.62 347.626 106.62C347.639 106.62 347.652 106.768 347.665 107.051C347.674 107.376 347.686 107.785 347.701 108.287C347.716 109.413 347.737 110.952 347.762 112.832C347.777 116.717 347.797 121.996 347.819 127.83C347.819 137.496 347.76 145.654 347.679 148.116H347.571C347.589 147.485 347.608 147.195 347.626 147.195Z" fill="#F5F5F5"/>
<path d="M353.475 147.195C353.494 147.195 353.512 147.485 353.529 148.116H353.421C353.34 145.654 353.281 137.497 353.281 127.83C353.303 121.996 353.323 116.717 353.338 112.832C353.363 110.953 353.384 109.413 353.399 108.287C353.414 107.785 353.426 107.376 353.435 107.051C353.448 106.768 353.461 106.62 353.474 106.62C353.488 106.62 353.5 106.768 353.513 107.051C353.523 107.376 353.535 107.785 353.55 108.287C353.565 109.413 353.586 110.952 353.611 112.832C353.626 116.717 353.646 121.996 353.668 127.83C353.668 137.496 353.609 145.654 353.529 148.116H353.421C353.439 147.485 353.456 147.195 353.475 147.195Z" fill="#F5F5F5"/>
<path d="M359.323 147.195C359.342 147.195 359.36 147.485 359.377 148.116H359.27C359.189 145.654 359.13 137.497 359.13 127.83C359.152 121.996 359.172 116.717 359.186 112.832C359.212 110.953 359.233 109.413 359.248 108.287C359.263 107.785 359.274 107.376 359.284 107.051C359.297 106.768 359.31 106.62 359.323 106.62C359.336 106.62 359.349 106.768 359.362 107.051C359.371 107.376 359.384 107.785 359.398 108.287C359.414 109.413 359.434 110.952 359.459 112.832C359.474 116.717 359.494 121.996 359.516 127.83C359.516 137.496 359.457 145.654 359.376 148.116H359.269C359.287 147.485 359.305 147.195 359.323 147.195Z" fill="#F5F5F5"/>
<path d="M365.172 147.195C365.191 147.195 365.209 147.485 365.226 148.116H365.118C365.038 145.654 364.979 137.497 364.979 127.83C365 121.996 365.021 116.717 365.035 112.832C365.061 110.953 365.081 109.413 365.096 108.287C365.111 107.785 365.123 107.376 365.133 107.051C365.145 106.768 365.158 106.62 365.172 106.62C365.185 106.62 365.198 106.768 365.211 107.051C365.22 107.376 365.232 107.785 365.247 108.287C365.262 109.413 365.283 110.952 365.308 112.832C365.323 116.717 365.343 121.996 365.365 127.83C365.365 137.496 365.305 145.654 365.225 148.116H365.117C365.135 147.485 365.153 147.195 365.172 147.195Z" fill="#F5F5F5"/>
<path d="M371.02 147.195C371.038 147.195 371.057 147.485 371.074 148.116H370.966C370.885 145.654 370.826 137.497 370.826 127.83C370.848 121.996 370.868 116.717 370.883 112.832C370.908 110.953 370.929 109.413 370.945 108.287C370.959 107.785 370.971 107.376 370.981 107.051C370.994 106.768 371.006 106.62 371.02 106.62C371.033 106.62 371.046 106.768 371.059 107.051C371.068 107.376 371.08 107.785 371.095 108.287C371.11 109.413 371.131 110.952 371.156 112.832C371.171 116.717 371.191 121.996 371.213 127.83C371.213 137.496 371.154 145.654 371.073 148.116H370.966C370.983 147.485 371.001 147.195 371.02 147.195Z" fill="#F5F5F5"/>
<path d="M376.868 147.195C376.887 147.195 376.905 147.485 376.922 148.116H376.815C376.734 145.654 376.675 137.497 376.675 127.83C376.697 121.996 376.717 116.717 376.731 112.832C376.757 110.953 376.778 109.413 376.793 108.287C376.808 107.785 376.819 107.376 376.829 107.051C376.842 106.768 376.855 106.62 376.868 106.62C376.881 106.62 376.894 106.768 376.907 107.051C376.916 107.376 376.929 107.785 376.943 108.287C376.959 109.413 376.979 110.952 377.004 112.832C377.019 116.717 377.039 121.996 377.061 127.83C377.061 137.496 377.002 145.654 376.921 148.116H376.813C376.832 147.485 376.85 147.195 376.868 147.195Z" fill="#F5F5F5"/>
<path d="M382.717 147.195C382.736 147.195 382.754 147.485 382.771 148.116H382.663C382.583 145.654 382.523 137.497 382.523 127.83C382.545 121.996 382.566 116.717 382.58 112.832C382.606 110.953 382.626 109.413 382.641 108.287C382.656 107.785 382.668 107.376 382.678 107.051C382.69 106.768 382.703 106.62 382.717 106.62C382.73 106.62 382.743 106.768 382.755 107.051C382.765 107.376 382.777 107.785 382.792 108.287C382.807 109.413 382.828 110.952 382.853 112.832C382.868 116.717 382.888 121.996 382.91 127.83C382.91 137.496 382.85 145.654 382.77 148.116H382.662C382.68 147.485 382.698 147.195 382.717 147.195Z" fill="#F5F5F5"/>
<path d="M369.239 236.933C369.239 237.01 293.462 237.072 200.009 237.072C106.522 237.072 30.7617 237.009 30.7617 236.933C30.7617 236.857 106.522 236.794 200.009 236.794C293.462 236.794 369.239 236.856 369.239 236.933Z" fill="#263238"/>
<path d="M316.61 54.3029H60.7803V181.408H316.61V54.3029Z" fill="white"/>
<path d="M316.61 54.3029H60.7803V70.0725H316.61V54.3029Z" fill="#E0E0E0"/>
<path d="M316.609 181.408C316.609 180.591 316.57 132.684 316.506 54.3029L316.609 54.4058C249.59 54.4154 159.556 54.4277 60.798 54.4416H60.7798L60.9185 54.3029C60.9158 99.105 60.9132 142.107 60.9105 181.408L60.7798 181.278C210.099 181.354 315.4 181.408 316.609 181.408C315.401 181.409 210.099 181.463 60.7798 181.539H60.6486V181.408C60.646 142.107 60.6433 99.1045 60.6406 54.3024V54.1637H60.7793H60.7974C159.556 54.1776 249.589 54.1904 316.609 54.1994H316.712V54.3024C316.649 132.684 316.61 180.591 316.609 181.408Z" fill="#263238"/>
<path d="M289.269 132.879H83.9548C82.3314 132.879 81.0156 131.564 81.0156 129.94V104.95C81.0156 103.326 82.3314 102.011 83.9548 102.011H289.269C290.892 102.011 292.208 103.326 292.208 104.95V129.94C292.208 131.563 290.892 132.879 289.269 132.879Z" fill="#FAFAFA"/>
<path d="M289.269 132.879C289.262 132.854 289.709 132.932 290.464 132.609C290.829 132.437 291.271 132.153 291.622 131.661C291.982 131.18 292.229 130.487 292.181 129.689C292.175 126.495 292.166 121.79 292.154 115.731C292.151 112.701 292.147 109.332 292.142 105.644C292.134 105.182 292.176 104.714 292.056 104.27C291.946 103.824 291.732 103.396 291.415 103.049C291.104 102.697 290.703 102.418 290.251 102.258C290.028 102.17 289.79 102.127 289.551 102.096C289.312 102.079 289.062 102.082 288.811 102.083C286.811 102.084 284.733 102.086 282.581 102.089C273.972 102.094 264.168 102.101 253.331 102.109C209.982 102.12 150.102 102.134 83.9672 102.15C82.9795 102.145 82.0083 102.693 81.5283 103.558C81.2798 103.982 81.1592 104.474 81.155 104.964V106.507C81.155 108.562 81.155 110.61 81.155 112.652C81.155 116.735 81.1544 120.791 81.1544 124.819C81.1544 125.826 81.1544 126.83 81.1544 127.833V129.336C81.155 129.844 81.1331 130.326 81.283 130.781C81.5688 131.69 82.3411 132.434 83.2691 132.654C83.7224 132.781 84.2174 132.733 84.7192 132.742H86.2078C90.1731 132.743 94.1064 132.743 98.0051 132.743C113.6 132.746 128.643 132.749 142.973 132.751C171.633 132.763 197.441 132.773 219.115 132.781C240.787 132.8 258.325 132.815 270.447 132.826C276.505 132.837 281.21 132.846 284.404 132.852C285.997 132.858 287.212 132.862 288.033 132.866C288.85 132.87 289.269 132.879 289.269 132.879C289.269 132.879 288.85 132.889 288.033 132.894C287.212 132.897 285.997 132.902 284.404 132.908C281.21 132.914 276.505 132.923 270.447 132.934C258.324 132.945 240.786 132.959 219.115 132.978C197.441 132.987 171.632 132.997 142.973 133.008C128.643 133.011 113.6 133.013 98.0051 133.016C94.1064 133.017 90.1731 133.017 86.2078 133.017H84.7192H83.9736C83.7155 133.01 83.4531 132.99 83.2019 132.921C82.1822 132.678 81.3347 131.863 81.0206 130.864C80.8547 130.36 80.8798 129.825 80.8787 129.336V127.833C80.8787 126.83 80.8787 125.825 80.8787 124.819C80.8787 120.792 80.8782 116.735 80.8782 112.652C80.8782 110.61 80.8782 108.562 80.8782 106.507V104.964C80.8819 104.428 81.0152 103.885 81.2883 103.419C81.8152 102.469 82.884 101.865 83.9678 101.872C150.103 101.888 209.983 101.902 253.332 101.913C264.168 101.92 273.972 101.927 282.582 101.933C284.734 101.935 286.811 101.937 288.812 101.939C289.062 101.939 289.31 101.936 289.565 101.954C289.816 101.986 290.066 102.033 290.301 102.125C290.774 102.294 291.194 102.587 291.519 102.956C291.85 103.321 292.074 103.77 292.189 104.237C292.313 104.71 292.268 105.188 292.276 105.644C292.271 109.331 292.267 112.7 292.263 115.731C292.252 121.79 292.243 126.495 292.237 129.689C292.281 130.493 292.025 131.202 291.657 131.685C291.296 132.182 290.846 132.466 290.476 132.634C290.098 132.801 289.786 132.842 289.582 132.869C289.374 132.88 289.269 132.879 289.269 132.879Z" fill="#263238"/>
<path d="M136.242 163.688H90.7845C84.5482 163.688 79.4922 158.632 79.4922 152.396C79.4922 146.159 84.5477 141.103 90.7845 141.103H136.242C142.478 141.103 147.534 146.159 147.534 152.396C147.534 158.632 142.478 163.688 136.242 163.688Z" fill="#FF725E"/>
<path d="M94.0342 152.111C94.0342 150.443 95.3115 149.237 97.0278 149.237C97.9382 149.237 98.72 149.564 99.239 150.171L98.5686 150.802C98.1611 150.363 97.6582 150.147 97.0758 150.147C95.9179 150.147 95.08 150.961 95.08 152.111C95.08 153.26 95.9184 154.075 97.0758 154.075C97.6587 154.075 98.1616 153.86 98.5686 153.413L99.239 154.051C98.72 154.658 97.9376 154.985 97.0192 154.985C95.3115 154.985 94.0342 153.78 94.0342 152.111Z" fill="#FAFAFA"/>
<path d="M97.0194 154.998C96.1869 154.998 95.4258 154.709 94.8765 154.184C94.3245 153.655 94.0205 152.919 94.0205 152.111C94.0205 151.302 94.325 150.566 94.8776 150.038C95.428 149.513 96.1912 149.224 97.0274 149.224C97.9421 149.224 98.7314 149.557 99.2493 150.162L99.2578 150.172L99.2482 150.181L98.5682 150.821L98.5586 150.811C98.1581 150.379 97.6594 150.161 97.0754 150.161C96.5176 150.161 96.0125 150.355 95.653 150.707C95.292 151.061 95.093 151.56 95.093 152.111C95.093 152.662 95.292 153.161 95.653 153.515C96.013 153.867 96.5181 154.061 97.0754 154.061C97.6616 154.061 98.1608 153.84 98.5586 153.404L98.5677 153.393L98.5778 153.403L99.2573 154.05L99.2493 154.06C98.7314 154.665 97.9394 154.998 97.0194 154.998ZM97.0274 149.251C96.1981 149.251 95.4413 149.537 94.8962 150.058C94.3485 150.582 94.0472 151.31 94.0472 152.112C94.0472 152.912 94.3485 153.641 94.8952 154.165C95.4397 154.686 96.1938 154.972 97.0194 154.972C97.9266 154.972 98.708 154.646 99.2205 154.053L98.5688 153.433C98.1672 153.868 97.6648 154.089 97.0754 154.089C95.9112 154.089 95.0664 153.258 95.0664 152.112C95.0664 150.966 95.9112 150.134 97.0754 150.134C97.6621 150.134 98.165 150.353 98.5688 150.784L99.2205 150.171C98.708 149.577 97.9298 149.251 97.0274 149.251Z" fill="#263238"/>
<path d="M99.6328 152.774C99.6328 151.496 100.591 150.595 101.9 150.595C103.225 150.595 104.175 151.496 104.175 152.774C104.175 154.052 103.225 154.962 101.9 154.962C100.591 154.961 99.6328 154.051 99.6328 152.774ZM103.169 152.774C103.169 151.96 102.626 151.441 101.9 151.441C101.182 151.441 100.639 151.96 100.639 152.774C100.639 153.588 101.182 154.107 101.9 154.107C102.626 154.107 103.169 153.588 103.169 152.774Z" fill="#FAFAFA"/>
<path d="M101.9 154.975C100.578 154.975 99.6191 154.049 99.6191 152.774C99.6191 151.503 100.578 150.581 101.9 150.581C102.545 150.581 103.129 150.799 103.543 151.196C103.959 151.593 104.188 152.154 104.188 152.774C104.188 153.395 103.959 153.957 103.543 154.356C103.128 154.755 102.544 154.975 101.9 154.975ZM101.9 150.608C100.594 150.608 99.6458 151.518 99.6458 152.773C99.6458 154.033 100.594 154.947 101.9 154.947C102.538 154.947 103.115 154.731 103.525 154.336C103.935 153.942 104.162 153.387 104.162 152.773C104.162 152.16 103.935 151.606 103.525 151.214C103.115 150.823 102.538 150.608 101.9 150.608ZM101.9 154.121C101.149 154.121 100.625 153.566 100.625 152.774C100.625 151.981 101.149 151.428 101.9 151.428C102.655 151.428 103.182 151.981 103.182 152.774C103.182 153.566 102.655 154.121 101.9 154.121ZM101.9 151.454C101.165 151.454 100.652 151.997 100.652 152.774C100.652 153.551 101.165 154.094 101.9 154.094C102.639 154.094 103.156 153.551 103.156 152.774C103.156 151.997 102.639 151.454 101.9 151.454Z" fill="#263238"/>
<path d="M109.335 152.462V154.905H108.337V152.59C108.337 151.831 107.961 151.465 107.323 151.465C106.612 151.465 106.134 151.895 106.134 152.749V154.905H105.136V150.642H106.086V151.193C106.413 150.802 106.931 150.594 107.554 150.594C108.576 150.595 109.335 151.177 109.335 152.462Z" fill="#FAFAFA"/>
<path d="M109.347 154.919H108.323V152.59C108.323 151.863 107.977 151.478 107.322 151.478C106.575 151.478 106.146 151.941 106.146 152.75V154.919H105.121V150.629H106.098V151.157C106.425 150.785 106.94 150.581 107.553 150.581C108.083 150.581 108.527 150.739 108.836 151.037C109.175 151.364 109.347 151.844 109.347 152.462V154.919H109.347ZM108.349 154.892H109.321V152.462C109.321 151.284 108.676 150.608 107.554 150.608C106.933 150.608 106.415 150.818 106.095 151.201L106.071 151.229V150.656H105.148V154.892H106.119V152.749C106.119 151.937 106.569 151.451 107.322 151.451C107.994 151.451 108.349 151.845 108.349 152.59V154.892Z" fill="#263238"/>
<path d="M113.169 154.674C112.93 154.865 112.57 154.961 112.211 154.961C111.277 154.961 110.742 154.466 110.742 153.524V151.472H110.04V150.674H110.742V149.7H111.74V150.674H112.882V151.472H111.74V153.5C111.74 153.915 111.948 154.139 112.331 154.139C112.539 154.139 112.738 154.083 112.89 153.963L113.169 154.674Z" fill="#FAFAFA"/>
<path d="M112.211 154.975C111.255 154.975 110.729 154.46 110.729 153.524V151.486H110.026V150.661H110.729V149.687H111.753V150.661H112.895V151.486H111.753V153.5C111.753 153.909 111.953 154.125 112.331 154.125C112.548 154.125 112.738 154.066 112.881 153.953L112.895 153.942L112.902 153.958L113.185 154.678L113.177 154.684C112.947 154.868 112.594 154.975 112.211 154.975ZM110.053 151.459H110.755V153.524C110.755 154.443 111.272 154.948 112.211 154.948C112.584 154.948 112.927 154.846 113.153 154.669L112.883 153.984C112.738 154.094 112.547 154.152 112.331 154.152C111.942 154.152 111.727 153.92 111.727 153.5V151.459H112.869V150.687H111.727V149.714H110.755V150.687H110.053L110.053 151.459Z" fill="#263238"/>
<path d="M113.857 149.341C113.857 149.006 114.129 148.742 114.496 148.742C114.863 148.742 115.135 148.99 115.135 149.317C115.135 149.668 114.871 149.94 114.496 149.94C114.129 149.94 113.857 149.676 113.857 149.341ZM113.993 150.642H114.991V154.905H113.993V150.642Z" fill="#FAFAFA"/>
<path d="M115.004 154.919H113.98V150.629H115.004V154.919ZM114.006 154.892H114.977V150.656H114.006V154.892ZM114.495 149.953C114.124 149.953 113.844 149.69 113.844 149.341C113.844 148.992 114.124 148.729 114.495 148.729C114.867 148.729 115.148 148.982 115.148 149.317C115.148 149.685 114.874 149.953 114.495 149.953ZM114.495 148.756C114.139 148.756 113.87 149.007 113.87 149.341C113.87 149.675 114.139 149.926 114.495 149.926C114.858 149.926 115.121 149.67 115.121 149.317C115.121 148.997 114.852 148.756 114.495 148.756Z" fill="#263238"/>
<path d="M120.5 152.462V154.905H119.502V152.59C119.502 151.831 119.127 151.465 118.489 151.465C117.778 151.465 117.299 151.895 117.299 152.749V154.905H116.301V150.642H117.251V151.193C117.578 150.802 118.097 150.594 118.719 150.594C119.742 150.595 120.5 151.177 120.5 152.462Z" fill="#FAFAFA"/>
<path d="M120.513 154.919H119.489V152.59C119.489 151.863 119.143 151.478 118.488 151.478C117.741 151.478 117.312 151.941 117.312 152.75V154.919H116.287V150.629H117.264V151.157C117.591 150.785 118.106 150.581 118.72 150.581C119.25 150.581 119.694 150.739 120.002 151.037C120.342 151.364 120.513 151.844 120.513 152.462V154.919ZM119.515 154.892H120.486V152.462C120.486 151.284 119.842 150.608 118.719 150.608C118.099 150.608 117.581 150.818 117.26 151.201L117.237 151.229V150.656H116.313V154.892H117.284V152.749C117.284 151.937 117.734 151.451 118.487 151.451C119.159 151.451 119.514 151.845 119.514 152.59L119.515 154.892Z" fill="#263238"/>
<path d="M125.9 150.642V154.905H124.95V154.362C124.63 154.753 124.127 154.96 123.576 154.96C122.483 154.96 121.74 154.362 121.74 153.077V150.642H122.738V152.941C122.738 153.716 123.105 154.083 123.736 154.083C124.43 154.083 124.902 153.652 124.902 152.798V150.643L125.9 150.642Z" fill="#FAFAFA"/>
<path d="M123.576 154.975C123.008 154.975 122.558 154.819 122.239 154.511C121.899 154.184 121.727 153.701 121.727 153.077V150.629H122.751V152.941C122.751 153.679 123.092 154.069 123.736 154.069C124.468 154.069 124.888 153.606 124.888 152.797V150.629H125.913V154.919H124.936V154.399C124.621 154.765 124.128 154.975 123.576 154.975ZM121.753 150.656V153.077C121.753 153.694 121.923 154.17 122.257 154.492C122.571 154.794 123.016 154.947 123.576 154.947C124.135 154.947 124.631 154.731 124.939 154.354L124.962 154.325V154.892H125.885V150.656H124.914V152.798C124.914 153.611 124.474 154.097 123.736 154.097C123.074 154.097 122.724 153.698 122.724 152.942V150.657L121.753 150.656Z" fill="#263238"/>
<path d="M131.202 153.093H127.857C127.977 153.716 128.496 154.115 129.239 154.115C129.718 154.115 130.093 153.963 130.396 153.652L130.931 154.267C130.547 154.722 129.949 154.961 129.215 154.961C127.785 154.961 126.859 154.043 126.859 152.773C126.859 151.504 127.794 150.594 129.063 150.594C130.308 150.594 131.218 151.465 131.218 152.797C131.218 152.878 131.21 152.997 131.202 153.093ZM127.849 152.43H130.268C130.188 151.816 129.717 151.393 129.063 151.393C128.416 151.393 127.945 151.808 127.849 152.43Z" fill="#FAFAFA"/>
<path d="M129.214 154.975C128.517 154.975 127.921 154.76 127.492 154.354C127.075 153.959 126.846 153.398 126.846 152.774C126.846 151.503 127.778 150.581 129.062 150.581C130.34 150.581 131.231 151.493 131.231 152.798C131.231 152.895 131.22 153.038 131.215 153.095L131.214 153.107H127.872C127.998 153.721 128.52 154.102 129.237 154.102C129.709 154.102 130.084 153.952 130.385 153.643L130.395 153.632L130.405 153.643L130.947 154.267L130.94 154.276C130.556 154.733 129.958 154.975 129.214 154.975ZM129.063 150.608C127.794 150.608 126.873 151.518 126.873 152.773C126.873 153.39 127.1 153.945 127.51 154.334C127.935 154.735 128.524 154.947 129.215 154.947C129.946 154.947 130.533 154.712 130.914 154.267L130.396 153.671C130.091 153.979 129.713 154.128 129.239 154.128C128.502 154.128 127.967 153.733 127.845 153.096L127.842 153.08H131.191C131.196 153.018 131.206 152.888 131.206 152.798C131.205 151.508 130.324 150.608 129.063 150.608ZM130.283 152.444H127.833L127.836 152.428C127.934 151.791 128.415 151.379 129.062 151.379C129.71 151.379 130.199 151.801 130.281 152.429L130.283 152.444ZM127.865 152.417H130.253C130.168 151.812 129.692 151.406 129.063 151.406C128.435 151.406 127.966 151.802 127.865 152.417Z" fill="#263238"/>
<path d="M70.1421 64.1034C71.5436 64.1034 72.6797 62.9673 72.6797 61.5658C72.6797 60.1643 71.5436 59.0282 70.1421 59.0282C68.7406 59.0282 67.6045 60.1643 67.6045 61.5658C67.6045 62.9673 68.7406 64.1034 70.1421 64.1034Z" fill="white"/>
<path d="M79.4927 64.1034C80.8942 64.1034 82.0303 62.9673 82.0303 61.5658C82.0303 60.1643 80.8942 59.0282 79.4927 59.0282C78.0912 59.0282 76.9551 60.1643 76.9551 61.5658C76.9551 62.9673 78.0912 64.1034 79.4927 64.1034Z" fill="white"/>
<path d="M88.8423 64.1034C90.2438 64.1034 91.3799 62.9673 91.3799 61.5658C91.3799 60.1643 90.2438 59.0282 88.8423 59.0282C87.4408 59.0282 86.3047 60.1643 86.3047 61.5658C86.3047 62.9673 87.4408 64.1034 88.8423 64.1034Z" fill="white"/>
<path d="M62.8309 177.529C66.1402 175.821 70.0368 175.599 73.7104 176.206C75.6842 176.533 77.7418 177.123 79.0848 178.605C80.4277 180.088 80.6821 182.697 79.1402 183.971C78.2224 184.729 76.9424 184.844 75.7514 184.83C72.8752 184.797 69.6848 184.291 67.3872 186.021C66.0762 187.008 65.2037 188.649 63.6362 189.135C62.1029 189.61 60.3728 188.705 59.56 187.321C58.7472 185.937 58.72 184.207 59.0986 182.648C59.0986 182.648 59.4976 179.248 62.8309 177.529Z" fill="#455A64"/>
<path d="M55.25 162.893C57.2734 165.783 61.2062 164.826 63.0297 163.062C64.8532 161.298 65.6238 158.742 66.3252 156.303C67.9284 150.733 69.5444 144.889 68.3524 139.217C67.9961 137.521 67.362 135.829 66.17 134.571C64.978 133.313 63.1454 132.565 61.4702 133.007C59.4873 133.531 58.2548 135.474 57.3641 137.321C54.746 142.751 53.3593 148.772 53.339 154.801C53.33 157.616 53.6617 160.568 55.25 162.893Z" fill="#455A64"/>
<path d="M49.6927 167.04C51.8895 164.432 52.3066 160.629 51.329 157.363C50.3514 154.096 48.1429 151.318 45.5978 149.049C42.6133 146.389 39.1055 144.319 35.3343 142.994C33.8501 142.472 32.2847 142.06 30.7189 142.21C29.1525 142.359 27.5754 143.159 26.8453 144.553C25.7653 146.613 26.801 149.112 27.921 151.15C29.8943 154.742 32.1503 158.178 34.6618 161.415C36.6821 164.02 38.9967 166.59 42.0762 167.767C45.1557 168.944 48.3541 168.806 49.9866 166.67" fill="#455A64"/>
<path d="M55.1122 206.487C55.1501 206.49 55.2114 206.021 55.2951 205.174C55.3879 204.219 55.5053 203.019 55.6439 201.59C55.8109 200.083 56.0311 198.288 56.4503 196.334C56.8679 194.385 57.5213 192.272 58.3607 190.13C59.2301 188 60.2903 186.064 61.5287 184.516C62.7586 182.961 64.1895 181.835 65.5341 181.186C66.8743 180.524 68.0765 180.255 68.9069 180.136C69.7448 180.05 70.2141 179.984 70.2146 179.947C70.2151 179.909 69.7448 179.903 68.884 179.926C68.0312 179.983 66.7794 180.199 65.3666 180.842C63.9495 181.47 62.4317 182.613 61.1415 184.201C59.8407 185.781 58.7421 187.759 57.8578 189.927C57.0039 192.108 56.3597 194.242 55.9607 196.233C55.5629 198.221 55.381 200.036 55.2621 201.556C55.1485 203.078 55.1053 204.31 55.0845 205.162C55.0658 206.014 55.0754 206.485 55.1122 206.487Z" fill="#263238"/>
<path d="M55.3596 203.73C55.3782 203.729 55.39 203.519 55.3948 203.121C55.3932 202.663 55.3921 202.086 55.39 201.378C55.3857 199.866 55.3868 197.678 55.4673 194.975C55.6012 189.571 56.0668 183.755 56.9654 175.554C57.8166 167.843 58.959 158.869 60.1644 153.035C60.423 151.708 60.6833 150.514 60.9286 149.469C61.1622 148.421 61.3617 147.517 61.5542 146.786C61.7196 146.098 61.8545 145.538 61.9612 145.092C62.0486 144.703 62.086 144.496 62.0678 144.491C62.0497 144.486 61.9772 144.683 61.8561 145.062C61.7233 145.501 61.5558 146.053 61.35 146.732C61.1254 147.457 60.8956 148.354 60.6332 149.398C60.3596 150.439 60.0721 151.63 59.7889 152.955C58.5958 158.242 57.3334 165.63 56.4257 173.851C55.5249 182.068 55.1196 189.55 55.0833 194.969C55.0513 197.677 55.1089 199.87 55.1777 201.383C55.2209 202.091 55.2561 202.667 55.2838 203.125C55.3158 203.523 55.3409 203.731 55.3596 203.73Z" fill="#263238"/>
<path d="M55.3961 189.299C55.434 189.298 55.4276 188.651 55.3833 187.479C55.3161 186.309 55.1556 184.619 54.826 182.548C54.4766 180.482 53.9886 178.028 53.2222 175.363C52.89 174.144 52.1092 171.224 50.218 166.861C47.7257 160.949 44.3401 156.116 41.3945 153.122C40.7038 152.327 39.9342 151.754 39.3188 151.192C39.0004 150.923 38.7188 150.654 38.4318 150.442C38.1438 150.243 37.875 150.058 37.6265 149.886C36.6569 149.223 36.114 148.874 36.0942 148.906C36.0073 149.023 38.2654 150.353 41.1172 153.387C43.9572 156.414 47.2484 161.214 49.7204 167.076C51.099 170.256 52.0601 173.092 52.7417 175.5C53.5294 178.14 54.0532 180.568 54.4484 182.613C54.8244 184.663 55.042 186.337 55.1732 187.497C55.2814 188.657 55.3588 189.301 55.3961 189.299Z" fill="#263238"/>
<path d="M41.4473 214.756L45.7502 236.707H66.0654L69.7897 214.756H41.4473Z" fill="#FF725E"/>
<path d="M72.8266 206.947H38.9893V214.755H72.8266V206.947Z" fill="#FF725E"/>
<path d="M68.7505 221.23C68.7558 221.235 68.7174 221.296 68.6363 221.412C68.5393 221.546 68.4193 221.712 68.2715 221.916C67.9243 222.379 67.4481 223.014 66.8481 223.813L66.7846 223.898L66.7233 223.81C65.8283 222.52 64.6337 220.799 63.2262 218.772H63.4273C62.3873 220.306 61.2283 222.015 59.9846 223.85L59.8769 224.008L59.7563 223.859C58.4859 222.284 57.1062 220.574 55.6731 218.798L55.9083 218.795C55.8374 218.888 55.7606 218.988 55.6838 219.089C54.4177 220.743 53.1921 222.343 52.0331 223.856L51.9115 224.015L51.799 223.85C50.5595 222.023 49.4017 220.317 48.3542 218.774L48.5547 218.784C46.8571 220.798 45.4177 222.507 44.3126 223.818L44.2374 223.908L44.1798 223.807C43.6209 222.828 43.175 222.048 42.8518 221.483C42.7131 221.23 42.6006 221.027 42.511 220.864C42.4358 220.723 42.4006 220.647 42.407 220.643C42.4134 220.639 42.4619 220.706 42.5494 220.839C42.6486 220.996 42.7729 221.192 42.9265 221.435C43.2657 221.99 43.7339 222.757 44.3206 223.717L44.1878 223.706C45.2747 222.379 46.6913 220.65 48.3617 218.611L48.4667 218.482L48.5622 218.62C49.6187 220.156 50.7873 221.855 52.0374 223.674L51.8033 223.667C52.9595 222.151 54.1819 220.549 55.4454 218.893C55.5222 218.792 55.599 218.692 55.6699 218.599L55.7862 218.447L55.9057 218.596C57.3345 220.374 58.7099 222.088 59.9771 223.666L59.7483 223.675C61.0049 221.849 62.175 220.149 63.2251 218.622L63.327 218.475L63.4267 218.622C64.8043 220.671 65.9739 222.412 66.8497 223.715L66.7254 223.71C67.3494 222.931 67.8449 222.312 68.2059 221.861C68.3665 221.668 68.4971 221.51 68.6022 221.383C68.695 221.278 68.7451 221.226 68.7505 221.23Z" fill="white"/>
<path d="M70.144 214.624C70.144 214.712 63.7669 214.783 55.9024 214.783C48.0346 214.783 41.6592 214.712 41.6592 214.624C41.6592 214.537 48.0346 214.466 55.9024 214.466C63.7669 214.466 70.144 214.537 70.144 214.624Z" fill="#263238"/>
<path d="M258.921 147.343L263.051 151.776C263.051 151.776 280.326 180.745 282.793 182.605C285.261 184.466 289.382 186.609 291.855 186.279C294.328 185.949 300.889 181.498 300.889 181.498L295.16 163.896L288.641 162.111L271.043 141.717L258.921 147.343Z" fill="#FFBE9D"/>
<path d="M262.226 150.835C260.759 149.068 256.976 145.437 256.976 145.437L255.383 143.735C255.309 143.872 255.254 144.023 255.206 144.171C255.113 144.453 255.018 144.751 254.8 144.953C254.388 145.334 253.715 145.21 253.224 144.935C252.197 144.359 251.521 143.205 251.521 142.027C251.52 140.895 252.148 139.791 253.107 139.194C253.189 138.907 253.325 138.617 253.545 138.333C254.899 136.597 258.068 136.83 258.068 136.83L257.594 136.156C257.594 136.156 255.433 134.809 251.839 137.088C251.303 137.428 250.656 137.588 250.029 137.483C249.646 137.418 249.273 137.254 249.063 136.897C248.538 136.007 249.033 135.403 251.257 133.95C253.482 132.497 256.106 131.832 257.773 132.45C259.44 133.068 260.052 133.418 260.052 133.418C260.052 133.418 256.127 127.083 255.895 126.673C255.223 125.484 255.191 124.186 255.94 123.659C256.42 123.321 257.274 123.25 258.098 124.61C258.813 125.787 267.66 136.91 267.66 136.91L271.285 142.061L262.226 150.835Z" fill="#FFBE9D"/>
<path d="M269.972 142.26C269.417 142.849 268.435 142.776 267.715 142.405C266.996 142.034 266.424 141.429 265.732 141.007C263.666 139.745 260.842 140.26 258.839 138.9C258.56 138.711 258.275 138.389 258.401 138.076C258.518 137.786 258.896 137.729 259.209 137.716C261.88 137.606 264.551 137.497 267.222 137.386" fill="#FFBE9D"/>
<path d="M267.223 137.386C267.222 137.355 266.912 137.337 266.352 137.333C265.793 137.328 264.985 137.337 263.987 137.357C262.948 137.386 261.768 137.418 260.48 137.453C260.149 137.464 259.811 137.475 259.467 137.487C259.146 137.522 258.712 137.426 258.308 137.807C258.115 138.007 258.107 138.352 258.225 138.562C258.334 138.779 258.492 138.926 258.661 139.053C258.993 139.275 259.334 139.464 259.705 139.606C261.191 140.18 262.675 140.205 263.928 140.521C264.557 140.669 265.133 140.874 265.619 141.161C266.104 141.447 266.518 141.806 266.934 142.098C267.745 142.726 268.669 142.909 269.235 142.747C269.819 142.594 269.992 142.26 269.972 142.26C269.944 142.223 269.733 142.49 269.201 142.572C268.67 142.66 267.883 142.468 267.126 141.838C266.736 141.541 266.334 141.164 265.815 140.837C265.296 140.51 264.681 140.277 264.029 140.112C262.728 139.766 261.247 139.717 259.875 139.182C259.533 139.053 259.214 138.873 258.928 138.686C258.656 138.494 258.51 138.22 258.645 138.102C258.772 137.951 259.14 137.935 259.483 137.924C259.827 137.908 260.165 137.891 260.496 137.875C261.782 137.804 262.961 137.739 263.998 137.681C264.995 137.619 265.801 137.562 266.358 137.511C266.917 137.461 267.224 137.418 267.223 137.386Z" fill="#EB996E"/>
<path d="M258.173 136.812C258.13 136.853 257.873 136.238 257.01 135.84C256.587 135.647 256.02 135.577 255.415 135.711C254.807 135.838 254.181 136.141 253.544 136.51C252.906 136.876 252.284 137.243 251.652 137.446C251.024 137.647 250.413 137.71 249.909 137.592C249.397 137.481 249.083 137.127 248.978 136.87C248.868 136.607 248.875 136.449 248.886 136.447C248.914 136.44 248.948 136.59 249.08 136.816C249.211 137.038 249.495 137.312 249.953 137.388C250.404 137.469 250.978 137.392 251.565 137.189C252.155 136.983 252.754 136.623 253.398 136.253C254.041 135.881 254.705 135.565 255.362 135.445C256.016 135.314 256.651 135.415 257.099 135.652C257.553 135.883 257.834 136.195 257.989 136.423C258.146 136.654 258.188 136.804 258.173 136.812Z" fill="#EB996E"/>
<path d="M255.642 126.21C255.68 126.191 255.968 126.677 256.431 127.465C256.95 128.338 257.568 129.38 258.252 130.53C258.953 131.671 259.587 132.703 260.119 133.569C260.6 134.345 260.896 134.826 260.862 134.851C260.83 134.874 260.472 134.433 259.945 133.684C259.416 132.937 258.722 131.878 257.999 130.683C257.277 129.487 256.664 128.381 256.248 127.565C255.831 126.75 255.607 126.228 255.642 126.21Z" fill="#EB996E"/>
<path d="M257.61 139.12C257.611 139.142 257.444 139.158 257.153 139.202C256.876 139.248 256.412 139.334 256.147 139.75C256.017 139.95 256.013 140.216 256.139 140.479C256.256 140.743 256.475 140.986 256.7 141.265C256.919 141.537 257.171 141.899 257.155 142.353C257.133 142.794 256.871 143.204 256.492 143.446C256.105 143.696 255.631 143.723 255.234 143.621C254.833 143.516 254.483 143.314 254.225 143.022C253.756 142.455 253.473 141.877 253.259 141.379C253.055 140.877 252.955 140.442 252.945 140.134C252.937 139.826 253.003 139.662 253.015 139.667C253.042 139.672 253.017 139.836 253.059 140.123C253.102 140.411 253.228 140.819 253.45 141.294C253.677 141.763 253.984 142.329 254.427 142.84C254.852 143.302 255.706 143.593 256.333 143.198C256.639 143.004 256.848 142.669 256.866 142.34C256.884 142.008 256.696 141.702 256.485 141.432C256.276 141.159 256.044 140.892 255.914 140.575C255.771 140.269 255.788 139.88 255.971 139.637C256.333 139.141 256.859 139.104 257.142 139.087C257.445 139.078 257.609 139.102 257.61 139.12Z" fill="#EB996E"/>
<path d="M255.22 143.365C255.231 143.355 255.348 143.469 255.404 143.746C255.456 144.012 255.419 144.465 255.062 144.849C254.713 145.223 254.062 145.435 253.407 145.266C252.752 145.102 252.158 144.611 251.766 143.97C251.373 143.324 251.22 142.589 251.276 141.94C251.326 141.285 251.579 140.735 251.857 140.338C252.138 139.938 252.446 139.684 252.67 139.535C252.896 139.388 253.038 139.339 253.046 139.355C253.082 139.4 252.526 139.669 252.031 140.453C251.791 140.841 251.579 141.359 251.547 141.958C251.51 142.554 251.658 143.227 252.017 143.816C252.374 144.403 252.912 144.85 253.475 145.003C254.036 145.163 254.602 145.001 254.915 144.7C255.232 144.397 255.304 144.003 255.288 143.759C255.275 143.507 255.197 143.377 255.22 143.365Z" fill="#EB996E"/>
<path d="M262.191 144.952C262.176 144.93 262.376 144.745 262.804 144.59C263.224 144.438 263.897 144.342 264.617 144.586L264.441 144.779C264.306 144.495 264.176 144.179 264.065 143.845C263.437 141.982 263.69 140.367 263.761 140.39C263.851 140.389 263.738 141.959 264.345 143.751C264.453 144.075 264.574 144.382 264.697 144.66L264.833 144.967L264.521 144.852C263.881 144.616 263.262 144.663 262.854 144.761C262.44 144.859 262.21 144.986 262.191 144.952Z" fill="#EB996E"/>
<path d="M255.48 134.194C255.558 134.187 255.59 134.793 255.177 135.372C254.768 135.956 254.186 136.127 254.167 136.052C254.13 135.974 254.583 135.711 254.936 135.202C255.298 134.699 255.395 134.185 255.48 134.194Z" fill="#EB996E"/>
<path d="M248.63 235.74C248.63 235.74 241.678 237.242 235.471 236.311C229.651 235.439 216.621 236.342 216.626 244.012C216.631 252.566 234.006 250.453 240.786 249.097C247.566 247.741 254.316 246.512 254.316 246.512L248.63 235.74Z" fill="#455A64"/>
<path d="M233.026 246.699C232.936 246.719 232.56 245.386 232.187 243.722C231.812 242.057 231.582 240.691 231.672 240.671C231.761 240.651 232.137 241.984 232.512 243.649C232.885 245.313 233.116 246.678 233.026 246.699Z" fill="#263238"/>
<path d="M235.397 246.812C235.306 246.825 235.043 245.458 234.811 243.759C234.577 242.061 234.463 240.674 234.553 240.661C234.645 240.649 234.908 242.015 235.14 243.714C235.374 245.412 235.488 246.799 235.397 246.812Z" fill="#263238"/>
<path d="M237.687 245.917C237.596 245.929 237.377 244.734 237.198 243.25C237.019 241.766 236.948 240.554 237.039 240.543C237.13 240.532 237.349 241.726 237.528 243.21C237.708 244.694 237.779 245.906 237.687 245.917Z" fill="#263238"/>
<path d="M241.284 245.02C241.203 245.055 240.71 244.057 240.39 242.73C240.065 241.403 240.046 240.29 240.134 240.284C240.23 240.275 240.395 241.353 240.713 242.651C241.026 243.951 241.373 244.984 241.284 245.02Z" fill="#263238"/>
<path d="M242.055 241.893C242.053 241.874 242.375 241.819 242.964 241.833C243.549 241.849 244.409 241.944 245.405 242.31C245.655 242.404 245.916 242.525 246.157 242.715C246.393 242.898 246.618 243.196 246.627 243.562C246.635 244.319 245.804 244.865 245.053 244.706C244.293 244.562 243.716 244.005 243.238 243.414C242.754 242.809 242.405 242.069 242.211 241.275C241.83 239.679 242.113 238.029 242.976 236.845C243.102 236.703 243.276 236.567 243.493 236.535C243.703 236.499 243.931 236.581 244.071 236.715C244.356 236.986 244.455 237.327 244.506 237.649C244.587 238.276 244.542 238.87 244.414 239.388C244.164 240.433 243.643 241.156 243.241 241.582C243.037 241.795 242.86 241.942 242.734 242.032C242.607 242.121 242.537 242.163 242.531 242.154C242.511 242.13 242.773 241.935 243.144 241.496C243.506 241.056 243.976 240.339 244.184 239.337C244.293 238.84 244.32 238.276 244.233 237.689C244.189 237.413 244.078 237.113 243.878 236.935C243.681 236.754 243.399 236.805 243.207 237.048C242.456 238.105 242.165 239.702 242.535 241.197C242.718 241.947 243.045 242.643 243.495 243.213C243.939 243.775 244.486 244.285 245.107 244.404C245.702 244.55 246.363 244.086 246.351 243.568C246.35 243.31 246.196 243.078 245.993 242.913C245.791 242.744 245.553 242.623 245.32 242.529C244.365 242.146 243.529 242.017 242.956 241.961C242.379 241.909 242.056 241.92 242.055 241.893Z" fill="#263238"/>
<path d="M253.628 245.381C253.629 245.386 253.57 245.405 253.453 245.436C253.317 245.47 253.146 245.513 252.931 245.566C252.447 245.676 251.773 245.83 250.916 246.025C249.162 246.411 246.618 246.952 243.458 247.563C240.297 248.168 236.522 248.862 232.289 249.438C230.179 249.722 227.918 249.979 225.579 249.773C224.411 249.687 223.222 249.486 222.063 249.101C221.49 248.894 220.914 248.67 220.377 248.351C219.838 248.033 219.321 247.685 218.895 247.158L218.921 247.187C218.706 246.979 218.481 246.741 218.316 246.461C217.605 245.325 217.582 243.915 217.962 242.717C218.352 241.494 219.223 240.519 220.191 239.804C221.173 239.089 222.264 238.591 223.359 238.234C223.914 238.076 224.454 237.886 225.003 237.762C225.556 237.652 226.095 237.505 226.639 237.43C230.997 236.742 234.961 237.092 238.253 237.093C239.905 237.123 241.396 237.078 242.702 236.998C244.008 236.9 245.127 236.752 246.031 236.578C246.479 236.483 246.879 236.399 247.23 236.326C247.565 236.23 247.853 236.148 248.094 236.08C248.314 236.02 248.489 235.971 248.627 235.933C248.748 235.902 248.811 235.889 248.813 235.894C248.815 235.899 248.756 235.924 248.638 235.965C248.502 236.012 248.33 236.07 248.114 236.144C247.875 236.221 247.589 236.314 247.256 236.422C246.905 236.505 246.505 236.599 246.058 236.705C245.152 236.9 244.028 237.068 242.717 237.185C241.405 237.283 239.907 237.344 238.252 237.329C234.952 237.356 230.991 237.035 226.691 237.733C226.153 237.809 225.623 237.956 225.078 238.066C224.537 238.19 224.007 238.38 223.462 238.535C222.388 238.889 221.327 239.378 220.386 240.067C219.456 240.756 218.637 241.683 218.278 242.819C217.922 243.94 217.953 245.259 218.598 246.284C218.747 246.538 218.95 246.75 219.142 246.939L219.153 246.949L219.168 246.967C219.521 247.405 220.035 247.769 220.542 248.063C221.055 248.369 221.613 248.586 222.169 248.787C223.293 249.163 224.457 249.363 225.605 249.449C227.908 249.656 230.138 249.411 232.249 249.136C236.474 248.578 240.25 247.909 243.414 247.333C246.578 246.753 249.128 246.246 250.889 245.9C251.752 245.73 252.43 245.597 252.917 245.501C253.134 245.461 253.308 245.428 253.445 245.403C253.565 245.383 253.627 245.375 253.628 245.381Z" fill="#263238"/>
<path d="M228.205 249.5C228.155 249.5 228.115 248.819 228.036 247.723C227.958 246.626 227.826 245.114 227.605 243.453C227.382 241.793 227.11 240.299 226.897 239.22C226.685 238.142 226.545 237.474 226.592 237.462C226.634 237.451 226.855 238.098 227.127 239.169C227.4 240.24 227.711 241.737 227.935 243.41C228.159 245.082 228.253 246.608 228.271 247.713C228.29 248.817 228.248 249.499 228.205 249.5Z" fill="#263238"/>
<g opacity="0.4">
<path d="M246.49 236.11L250.896 247.145L254.315 246.512L247.767 235.74L246.49 236.11Z" fill="black"/>
</g>
<path d="M291.188 210.363L301.536 187.275L295.545 167.464C293.728 161.456 294.152 154.993 296.741 149.274L306.841 129.695L315.861 126.481L337.025 123.659C337.4 123.784 338.462 123.847 344.73 125.931C349.998 127.682 354.459 131.269 357.302 136.038L340.204 185.909C340.204 185.909 351.8 211.283 350.346 222.916L291.188 210.363Z" fill="#FF725E"/>
<path d="M308.536 129.181C308.536 129.181 296.697 131.802 292.381 147.956L287.07 165.158L296.786 165.757L308.536 129.181Z" fill="#FF725E"/>
<path d="M295.906 166.316C295.898 166.319 295.861 166.237 295.798 166.076C295.739 165.915 295.639 165.68 295.542 165.367C295.356 164.74 295.129 163.812 295.041 162.639C294.851 160.304 295.315 156.99 296.862 153.747C297.247 152.94 297.679 152.171 298.113 151.457C298.54 150.734 298.948 150.036 299.314 149.359C300.057 148.011 300.576 146.727 300.941 145.622C301.306 144.517 301.57 143.61 301.762 142.986C301.853 142.695 301.927 142.459 301.987 142.268C302.041 142.105 302.073 142.02 302.081 142.022C302.089 142.025 302.073 142.114 302.035 142.282C301.987 142.475 301.928 142.716 301.854 143.012C301.69 143.644 301.453 144.558 301.107 145.676C300.762 146.793 300.251 148.103 299.514 149.467C299.151 150.15 298.746 150.853 298.321 151.579C297.886 152.301 297.467 153.051 297.084 153.852C295.556 157.058 295.072 160.319 295.214 162.628C295.279 163.788 295.477 164.71 295.634 165.341C295.813 165.965 295.925 166.309 295.906 166.316Z" fill="#263238"/>
<path d="M266.522 219.834C266.467 219.907 260.913 215.859 254.12 210.791C247.323 205.723 241.861 201.555 241.915 201.481C241.97 201.407 247.522 205.455 254.319 210.524C261.113 215.591 266.577 219.76 266.522 219.834Z" fill="#455A64"/>
<path d="M349.389 220.597L332.589 206.787C330.736 196.498 321.257 188.809 310.266 189.81C306.125 190.187 302.192 191.8 298.977 194.437L289.238 202.07C274.099 197.941 251.085 191.489 239.258 188.163C234.422 186.803 229.237 187.588 225.019 190.318L224.798 190.461C218.607 194.468 215.594 201.927 217.266 209.11C218.327 213.67 221.168 217.612 225.161 220.059C231.135 223.718 240.387 229.364 248.343 234.121L247.287 234.948L254.317 246.512L268.79 242.05C278.574 240.654 299.23 237.967 299.23 237.967L293.323 234.486L294.675 234.069C305.924 243.653 319.68 248.065 336.71 240.63C345.115 236.691 350.362 227.223 349.389 220.597Z" fill="#263238"/>
<path d="M320.602 219.056C320.606 219.06 320.56 219.103 320.466 219.183C320.356 219.273 320.217 219.388 320.043 219.531C319.648 219.846 319.097 220.285 318.398 220.844C318.037 221.129 317.638 221.444 317.202 221.788C316.766 222.134 316.252 222.454 315.721 222.829C315.184 223.197 314.611 223.59 314.004 224.006C313.698 224.213 313.39 224.433 313.063 224.644C312.729 224.845 312.387 225.051 312.037 225.262C310.632 226.1 309.117 227.061 307.398 227.929C306.546 228.374 305.677 228.86 304.758 229.315C303.832 229.754 302.879 230.205 301.902 230.669C297.967 232.462 293.559 234.267 288.834 235.874C279.393 239.127 270.664 241.469 264.412 243.364C262.845 243.825 261.432 244.257 260.194 244.649C258.954 245.032 257.887 245.362 257.022 245.656C256.171 245.932 255.502 246.149 255.021 246.306C254.806 246.372 254.633 246.425 254.498 246.467C254.379 246.501 254.318 246.516 254.315 246.511C254.313 246.506 254.371 246.48 254.486 246.435C254.619 246.385 254.788 246.322 254.999 246.242C255.474 246.072 256.137 245.834 256.981 245.532C257.84 245.219 258.902 244.87 260.138 244.47C261.37 244.062 262.78 243.614 264.343 243.139C270.582 241.185 279.299 238.806 288.724 235.558C293.441 233.954 297.841 232.163 301.773 230.389C302.749 229.932 303.702 229.485 304.627 229.052C305.546 228.603 306.415 228.124 307.267 227.684C308.987 226.829 310.505 225.884 311.913 225.06C312.265 224.853 312.608 224.651 312.943 224.454C313.271 224.247 313.581 224.03 313.888 223.828C314.498 223.42 315.074 223.035 315.615 222.675C316.149 222.308 316.667 221.996 317.108 221.658C317.549 221.324 317.953 221.017 318.318 220.74C319.034 220.203 319.597 219.78 320 219.477C320.183 219.344 320.328 219.238 320.443 219.155C320.545 219.085 320.599 219.051 320.602 219.056Z" fill="#455A64"/>
<path d="M321.857 224.462C321.866 224.484 321.68 224.58 321.336 224.735C320.992 224.893 320.486 225.099 319.853 225.334C318.587 225.806 316.801 226.365 314.784 226.801C312.765 227.233 310.907 227.457 309.56 227.546C308.886 227.591 308.339 227.612 307.962 227.609C307.584 227.609 307.375 227.597 307.374 227.574C307.372 227.523 308.203 227.461 309.538 227.312C310.873 227.163 312.711 226.904 314.714 226.475C316.716 226.043 318.498 225.524 319.776 225.112C321.055 224.7 321.838 224.415 321.857 224.462Z" fill="#455A64"/>
<path d="M296.908 196.38C296.965 196.453 285.902 205.146 272.201 215.795C258.496 226.447 247.343 235.02 247.287 234.948C247.231 234.875 258.292 226.184 271.997 215.532C285.697 204.883 296.852 196.308 296.908 196.38Z" fill="#455A64"/>
<path d="M336.691 233.688C336.678 233.688 336.666 233.563 336.656 233.328C336.649 233.049 336.64 232.709 336.63 232.297C336.62 231.402 336.582 230.107 336.503 228.51C336.351 225.316 335.946 220.91 335.052 216.114C334.15 211.318 332.933 207.064 331.92 204.031C331.415 202.514 330.983 201.293 330.667 200.456C330.528 200.067 330.414 199.747 330.319 199.485C330.243 199.261 330.209 199.141 330.221 199.137C330.233 199.132 330.29 199.242 330.388 199.457C330.5 199.712 330.636 200.025 330.801 200.403C331.159 201.225 331.629 202.435 332.167 203.946C333.247 206.965 334.51 211.228 335.416 216.045C336.314 220.862 336.679 225.293 336.764 228.499C336.809 230.102 336.808 231.401 336.773 232.297C336.756 232.709 336.742 233.05 336.73 233.329C336.717 233.564 336.704 233.688 336.691 233.688Z" fill="#455A64"/>
<path d="M294.024 233.512C294.028 233.507 294.077 233.544 294.168 233.618C294.273 233.708 294.404 233.819 294.564 233.956C294.914 234.249 295.4 234.716 296.071 235.263C297.42 236.348 299.428 237.865 302.145 239.348C304.857 240.828 308.293 242.243 312.278 243.158C312.772 243.29 313.281 243.379 313.797 243.468C314.312 243.557 314.831 243.66 315.359 243.741C316.423 243.852 317.502 244.031 318.615 244.06C320.832 244.224 323.142 244.129 325.479 243.855C326.063 243.774 326.642 243.693 327.219 243.613C327.789 243.497 328.356 243.381 328.918 243.266C330.042 243.04 331.131 242.725 332.189 242.389C334.3 241.696 336.271 240.83 338.039 239.812C341.595 237.794 344.265 235.138 345.968 232.571C347.699 230.006 348.507 227.591 348.895 225.915C349.084 225.071 349.184 224.405 349.238 223.953C349.263 223.745 349.284 223.576 349.301 223.437C349.317 223.321 349.328 223.262 349.335 223.262C349.341 223.263 349.342 223.323 349.338 223.44C349.332 223.579 349.323 223.75 349.312 223.96C349.282 224.417 349.205 225.09 349.036 225.945C348.688 227.644 347.91 230.1 346.186 232.715C344.492 235.333 341.799 238.049 338.209 240.107C336.425 241.146 334.433 242.028 332.302 242.733C331.233 243.075 330.135 243.395 328.998 243.625C328.43 243.741 327.858 243.858 327.282 243.976C326.701 244.057 326.114 244.139 325.525 244.221C323.164 244.498 320.831 244.59 318.593 244.421C317.471 244.389 316.382 244.205 315.309 244.09C314.776 244.007 314.253 243.901 313.733 243.809C313.213 243.717 312.7 243.625 312.203 243.489C308.187 242.548 304.735 241.096 302.02 239.576C299.299 238.053 297.304 236.496 295.979 235.372C295.319 234.806 294.848 234.32 294.513 234.009C294.363 233.861 294.241 233.741 294.142 233.644C294.059 233.562 294.019 233.516 294.024 233.512Z" fill="#455A64"/>
<path d="M301.967 236.934C299.051 235.379 295.778 236.298 292.988 237.238C291.131 237.865 289.201 238.855 287.316 238.324C285.952 237.94 284.937 236.835 283.896 235.875C279.695 232 273.901 229.886 268.183 230.245C266.558 230.347 264.971 231 263.868 232.196C261.004 235.298 263.164 239.334 265.723 241.943C270.241 246.548 276.393 249.516 282.81 250.186C288.143 250.742 295.476 250.005 300.885 247.69C304.219 246.262 305.93 242.329 304.181 239.151C303.671 238.225 302.926 237.445 301.967 236.934Z" fill="#455A64"/>
<g opacity="0.4">
<path d="M301.961 239.417C299.045 237.861 295.772 238.781 292.982 239.721C291.125 240.347 289.195 241.338 287.309 240.807C285.946 240.423 284.931 239.318 283.89 238.357C279.688 234.483 273.895 232.369 268.177 232.727C266.552 232.829 264.965 233.483 263.861 234.678C263.227 235.365 262.851 236.1 262.659 236.853C263.083 238.717 264.338 240.538 265.717 241.943C270.235 246.548 276.388 249.516 282.804 250.186C288.137 250.743 295.47 250.006 300.879 247.69C302.884 246.832 304.294 245.066 304.726 243.106C304.613 242.606 304.437 242.111 304.175 241.634C303.665 240.708 302.919 239.927 301.961 239.417Z" fill="black"/>
</g>
<path d="M304.726 243.105C304.672 243.123 304.687 242.393 304.011 241.378C303.672 240.882 303.168 240.323 302.451 239.852C301.745 239.374 300.831 238.962 299.77 238.826C297.606 238.571 295.097 239.483 292.31 240.237C290.933 240.602 289.428 241.159 287.781 240.953C286.976 240.848 286.17 240.581 285.451 240.146C284.735 239.717 284.083 239.187 283.449 238.638C281.047 236.294 278.199 234.826 275.475 233.9C274.112 233.443 272.774 233.142 271.507 232.979C270.24 232.812 269.047 232.792 267.978 232.958C266.912 233.124 265.985 233.475 265.249 233.911C264.515 234.355 263.971 234.87 263.577 235.329C262.803 236.266 262.542 236.907 262.5 236.883C262.5 236.883 262.706 236.219 263.459 235.232C263.843 234.748 264.387 234.202 265.134 233.724C265.883 233.256 266.837 232.874 267.934 232.685C269.031 232.494 270.259 232.501 271.547 232.657C272.838 232.808 274.201 233.102 275.589 233.557C276.978 234.01 278.389 234.627 279.775 235.405C280.46 235.804 281.159 236.218 281.812 236.731C282.461 237.24 283.075 237.798 283.705 238.342C284.334 238.886 284.97 239.402 285.651 239.811C286.327 240.223 287.072 240.469 287.83 240.572C289.356 240.774 290.819 240.252 292.216 239.889C294.99 239.163 297.542 238.254 299.805 238.551C302.051 238.909 303.498 240.258 304.139 241.295C304.467 241.825 304.614 242.293 304.679 242.612C304.733 242.933 304.736 243.105 304.726 243.105Z" fill="#263238"/>
<path d="M304.726 243.105C304.672 243.123 304.687 242.393 304.011 241.378C303.672 240.882 303.168 240.323 302.451 239.852C301.745 239.374 300.831 238.962 299.77 238.826C297.606 238.571 295.097 239.483 292.31 240.237C290.933 240.602 289.428 241.159 287.781 240.953C286.976 240.848 286.17 240.581 285.451 240.146C284.735 239.717 284.083 239.187 283.449 238.638C281.047 236.294 278.199 234.826 275.475 233.9C274.112 233.443 272.774 233.142 271.507 232.979C270.24 232.812 269.047 232.792 267.978 232.958C266.912 233.124 265.985 233.475 265.249 233.911C264.515 234.355 263.971 234.87 263.577 235.329C262.803 236.266 262.542 236.907 262.5 236.883C262.5 236.883 262.706 236.219 263.459 235.232C263.843 234.748 264.387 234.202 265.134 233.724C265.883 233.256 266.837 232.874 267.934 232.685C269.031 232.494 270.259 232.501 271.547 232.657C272.838 232.808 274.201 233.102 275.589 233.557C276.978 234.01 278.389 234.627 279.775 235.405C280.46 235.804 281.159 236.218 281.812 236.731C282.461 237.24 283.075 237.798 283.705 238.342C284.334 238.886 284.97 239.402 285.651 239.811C286.327 240.223 287.072 240.469 287.83 240.572C289.356 240.774 290.819 240.252 292.216 239.889C294.99 239.163 297.542 238.254 299.805 238.551C302.051 238.909 303.498 240.258 304.139 241.295C304.467 241.825 304.614 242.293 304.679 242.612C304.733 242.933 304.736 243.105 304.726 243.105Z" fill="#263238"/>
<path d="M268.562 242.403C268.536 242.359 269.098 241.952 270.055 241.369C271.012 240.785 272.37 240.035 273.918 239.306C275.467 238.579 276.911 238.011 277.972 237.647C279.031 237.282 279.704 237.109 279.72 237.157C279.739 237.211 279.1 237.477 278.07 237.906C277.04 238.335 275.624 238.939 274.085 239.661C272.547 240.385 271.179 241.091 270.192 241.61C269.205 242.129 268.592 242.452 268.562 242.403Z" fill="#263238"/>
<path d="M269.564 245.319C269.517 245.222 272.067 243.892 275.259 242.349C278.452 240.805 281.078 239.633 281.125 239.731C281.172 239.828 278.622 241.158 275.429 242.702C272.237 244.245 269.611 245.417 269.564 245.319Z" fill="#263238"/>
<path d="M281.644 246.584C281.587 246.676 278.48 244.822 274.705 242.444C270.93 240.065 267.917 238.063 267.974 237.972C268.032 237.88 271.139 239.734 274.914 242.113C278.689 244.49 281.702 246.492 281.644 246.584Z" fill="#263238"/>
<path d="M283.393 243.558C283.359 243.602 282.786 243.2 281.872 242.542C280.958 241.883 279.697 240.972 278.286 239.994C276.874 239.015 275.579 238.154 274.641 237.529C273.704 236.904 273.127 236.509 273.155 236.461C273.182 236.416 273.809 236.727 274.787 237.294C275.765 237.86 277.091 238.688 278.509 239.671C279.927 240.655 281.167 241.605 282.041 242.322C282.915 243.039 283.426 243.518 283.393 243.558Z" fill="#263238"/>
<path d="M305.678 123.659C305.614 123.642 305.95 123.141 305.792 122.192C305.711 121.727 305.505 121.171 305.125 120.615C304.745 120.058 304.181 119.515 303.539 118.92C302.897 118.331 302.181 117.623 301.638 116.705C301.093 115.794 300.691 114.707 300.534 113.519C300.371 112.336 300.482 111.04 300.896 109.811C301.296 108.575 301.93 107.406 302.554 106.228C303.183 105.053 303.756 103.894 304.082 102.712C304.417 101.532 304.447 100.345 304.153 99.2629C303.561 97.0875 302.264 95.3717 301.607 93.7168C300.885 92.0773 300.818 90.5419 301.069 89.5723C301.186 89.0827 301.357 88.7275 301.493 88.504C301.629 88.2789 301.726 88.1797 301.739 88.1888C301.792 88.216 301.453 88.6688 301.291 89.6176C301.121 90.5595 301.24 91.9888 301.984 93.5525C302.66 95.1371 304 96.8085 304.672 99.1275C305.005 100.284 304.984 101.614 304.632 102.862C304.294 104.12 303.7 105.321 303.069 106.501C302.441 107.683 301.822 108.822 301.438 109.989C301.04 111.151 300.929 112.338 301.065 113.453C301.199 114.566 301.559 115.594 302.054 116.46C302.547 117.334 303.195 118.011 303.824 118.623C304.447 119.237 305.016 119.822 305.397 120.437C305.777 121.05 305.965 121.657 306.016 122.162C306.066 122.67 305.978 123.066 305.88 123.311C305.785 123.559 305.688 123.665 305.678 123.659Z" fill="#263238"/>
<path d="M336.09 113.106C336.837 115.011 338.874 116.277 340.92 116.283C342.967 116.288 344.936 115.121 346.074 113.42C347.213 111.72 347.553 109.548 347.182 107.535C347.014 106.624 346.707 105.714 346.813 104.794C346.963 103.489 347.913 102.411 348.239 101.138C348.825 98.8465 347.15 96.4257 344.969 95.5089C342.788 94.5921 340.286 94.8753 338.007 95.5116" fill="#263238"/>
<path d="M302.879 86.5984C300.777 88.711 301.579 91.4838 302.56 93.3616C303.541 95.2395 304.718 97.143 304.74 99.2608C304.763 101.427 303.574 103.396 302.979 105.479C302.23 108.105 302.456 110.997 303.603 113.475C304.467 115.342 305.818 116.95 306.694 118.812C307.568 120.674 307.891 123.018 306.702 124.697C307.836 124.515 308.781 123.652 309.29 122.622C309.799 121.593 309.923 120.413 309.899 119.264C309.809 114.902 307.72 110.666 308.242 106.334C308.546 103.817 309.728 101.4 309.561 98.8688C309.394 96.3296 307.904 94.1046 306.827 91.799C305.751 89.4934 305.113 86.6182 306.548 84.5168" fill="#263238"/>
<path d="M308.042 78.3265C305.468 78.6593 302.916 80.0059 301.671 82.2833C300.427 84.5606 300.855 87.7841 302.982 89.2715C304.987 90.6742 307.83 90.2118 309.89 88.8902C311.41 87.9153 312.675 86.479 313.227 84.7595C313.778 83.0401 313.545 81.0363 312.428 79.6177C311.311 78.199 309.276 77.5025 307.586 78.1387" fill="#263238"/>
<path d="M305.941 78.0624C307.076 74.9312 309.859 72.5675 312.996 71.4491C316.133 70.3307 319.586 70.3515 322.859 70.9675C326.132 71.583 329.266 72.7686 332.38 73.9478C334.647 74.8064 336.964 75.6939 338.806 77.2688C340.63 78.8272 341.875 80.9739 342.704 83.2251C344.26 87.4555 344.325 90.5536 342.501 94.6763C341.708 96.471 342.354 98.479 341.643 100.308C340.932 102.137 337.632 104.313 338.657 105.986" fill="#263238"/>
<path d="M337.025 123.659L335.664 83.5227C335.602 81.7248 334.174 80.2731 332.378 80.1808L313.764 76.5328C307.85 76.2288 304.332 83.6811 304.279 89.6027C304.221 96.1819 304.409 104.217 305.45 109.067C307.545 118.819 315.152 119.663 315.152 119.663C315.153 119.644 315.367 123.469 315.566 126.905L315.249 142.022L337.025 123.659Z" fill="#FFBE9D"/>
<path d="M306.818 96.6789C306.83 97.3466 307.405 97.8863 308.103 97.8858C308.799 97.8853 309.354 97.3455 309.342 96.6778C309.329 96.0106 308.754 95.4698 308.058 95.4703C307.361 95.4703 306.805 96.0111 306.818 96.6789Z" fill="#263238"/>
<path d="M306.21 93.0442C306.375 93.2005 307.293 92.441 308.65 92.3717C310.006 92.2826 311.04 92.9269 311.178 92.7525C311.247 92.6752 311.071 92.3866 310.62 92.0944C310.176 91.8032 309.431 91.5365 308.585 91.5856C307.74 91.6357 307.046 91.9856 306.654 92.3264C306.254 92.6693 306.129 92.9749 306.21 93.0442Z" fill="#263238"/>
<path d="M319.386 96.4832C319.398 97.1504 319.974 97.6907 320.671 97.6907C321.367 97.6901 321.922 97.1504 321.91 96.4827C321.897 95.8155 321.321 95.2747 320.625 95.2747C319.928 95.2747 319.373 95.816 319.386 96.4832Z" fill="#263238"/>
<path d="M319.604 93.2133C319.77 93.3691 320.688 92.6101 322.045 92.5408C323.4 92.4512 324.434 93.096 324.573 92.9216C324.641 92.8443 324.467 92.5557 324.015 92.2635C323.571 91.9717 322.826 91.7056 321.981 91.7547C321.135 91.8053 320.441 92.1552 320.049 92.496C319.65 92.8384 319.524 93.1435 319.604 93.2133Z" fill="#263238"/>
<path d="M315.222 103.548C315.224 103.47 314.372 103.37 312.995 103.269C312.646 103.252 312.314 103.201 312.243 102.968C312.148 102.722 312.273 102.34 312.419 101.928C312.7 101.072 312.994 100.174 313.302 99.2331C314.522 95.3979 315.386 92.2518 315.231 92.2038C315.077 92.1563 313.961 95.2262 312.741 99.0614C312.448 100.007 312.168 100.908 311.903 101.77C311.793 102.171 311.591 102.63 311.797 103.14C311.904 103.394 312.169 103.569 312.394 103.617C312.619 103.673 312.815 103.666 312.987 103.667C314.367 103.665 315.221 103.625 315.222 103.548Z" fill="#263238"/>
<path d="M315.152 119.664C315.152 119.664 321.793 119.733 328.137 115.437C328.137 115.437 325.179 122.381 315.284 121.993L315.152 119.664Z" fill="#EB996E"/>
<path d="M318.785 89.2715C318.939 89.6331 320.285 89.3851 321.888 89.4907C323.493 89.5643 324.803 89.9611 324.996 89.6187C325.082 89.4549 324.84 89.12 324.301 88.7909C323.767 88.4619 322.927 88.1675 321.965 88.1125C321.003 88.0597 320.136 88.2587 319.568 88.5264C318.997 88.7936 318.718 89.0997 318.785 89.2715Z" fill="#263238"/>
<path d="M306.532 89.7254C306.788 90.0209 307.706 89.6502 308.829 89.5745C309.95 89.4593 310.917 89.6694 311.119 89.335C311.207 89.1734 311.04 88.8726 310.609 88.6033C310.183 88.3345 309.484 88.1339 308.713 88.199C307.941 88.2651 307.287 88.5814 306.913 88.9179C306.532 89.2561 306.419 89.5809 306.532 89.7254Z" fill="#263238"/>
<path d="M315.974 106.637C316.397 106.011 317.176 105.637 317.973 105.679C318.526 105.709 319.095 105.944 319.453 106.373C319.811 106.803 319.915 107.434 319.635 107.877C319.319 108.376 318.611 108.525 317.998 108.386C317.384 108.247 316.843 107.877 316.328 107.508C316.185 107.405 316.039 107.299 315.946 107.153C315.852 107.007 315.823 106.812 315.922 106.682" fill="#EB996E"/>
<path d="M319.047 104.29C318.84 104.289 318.912 105.663 317.788 106.702C316.667 107.744 315.194 107.669 315.194 107.861C315.179 107.949 315.535 108.11 316.153 108.094C316.761 108.082 317.636 107.839 318.323 107.204C319.009 106.567 319.274 105.752 319.29 105.186C319.312 104.609 319.14 104.277 319.047 104.29Z" fill="#263238"/>
<path d="M305.775 80.7029C306.418 83.7893 311.367 84.0213 314.423 83.2496C316.605 85.792 320.15 87.0875 323.456 86.5509C323.906 86.4779 324.378 86.3755 324.806 86.5301C325.26 86.6939 325.565 87.1088 325.875 87.4784C327.259 89.1312 329.277 90.2394 331.414 90.5205C332.005 93.6053 334.664 96.1829 337.766 96.6784C337.766 96.6784 338.748 96.1221 338.168 92.1664C337.588 88.2106 337.555 79.9168 337.555 79.9168L326.51 75.6325L313.5 73.9568C313.5 73.9568 304.686 75.4794 305.775 80.7029Z" fill="#263238"/>
<path d="M342.344 95.1313C342.258 95.1494 342.321 94.0428 341.52 92.4049C341.115 91.6012 340.464 90.6828 339.457 89.934C338.459 89.1862 337.101 88.6113 335.564 88.5446L335.391 88.5372L335.339 88.3686C334.859 86.8257 334.02 85.1542 332.539 84.0017C331.11 82.87 328.856 82.3932 327.102 83.3953L326.812 83.5612L326.681 83.2417C326.635 83.1308 326.586 83.0113 326.536 82.8913C325.356 80.1137 322.495 78.4497 319.924 78.3398C319.272 78.3153 318.656 78.383 318.023 78.4993C317.395 78.6044 316.723 78.7009 316.074 78.5196C315.418 78.3324 314.949 77.8854 314.556 77.4956C314.162 77.0902 313.802 76.734 313.39 76.471C311.717 75.398 309.931 75.5436 308.899 75.8641C307.827 76.2001 307.352 76.6518 307.317 76.5996C307.305 76.5841 307.419 76.4748 307.653 76.279C307.902 76.1089 308.276 75.8449 308.827 75.6492C309.883 75.2513 311.76 75.0081 313.612 76.1244C314.556 76.6476 315.159 77.7638 316.203 78.054C317.25 78.3265 318.532 77.7148 319.947 77.8033C322.717 77.8966 325.781 79.6444 327.073 82.6641C327.126 82.7948 327.18 82.9254 327.229 83.046L326.808 82.8924C328.849 81.7425 331.318 82.3126 332.881 83.5617C334.485 84.8348 335.337 86.615 335.811 88.2284L335.587 88.0524C337.238 88.1516 338.666 88.7964 339.701 89.6156C340.746 90.438 341.396 91.4289 341.778 92.2822C342.164 93.142 342.296 93.8753 342.346 94.3692C342.393 94.8657 342.365 95.1308 342.344 95.1313Z" fill="#455A64"/>
<path d="M324.762 85.6864C324.772 85.7184 324.497 85.8502 323.967 85.999C323.437 86.1488 322.64 86.279 321.645 86.2592C319.689 86.2443 316.793 85.4048 314.736 83.0256L315.098 83.0912C314.998 83.143 314.891 83.1995 314.782 83.2555C313.34 83.9627 311.76 84.1275 310.399 83.912C309.027 83.6976 307.895 83.0934 307.09 82.4518C306.278 81.8043 305.776 81.1211 305.486 80.6304C305.197 80.135 305.105 79.8304 305.136 79.815C305.228 79.7488 305.743 80.9552 307.338 82.1232C308.132 82.6902 309.203 83.2112 310.477 83.3814C311.742 83.5526 313.2 83.3824 314.526 82.7323C314.625 82.6806 314.724 82.6294 314.816 82.5819L315.027 82.472L315.178 82.6475C317.091 84.8699 319.793 85.7371 321.665 85.8534C323.577 85.9958 324.738 85.576 324.762 85.6864Z" fill="#455A64"/>
<path d="M318.896 80.1809C318.883 80.3526 317.454 80.3094 315.803 80.798C314.146 81.2652 312.96 82.0641 312.858 81.926C312.752 81.8193 313.858 80.7457 315.642 80.2385C317.42 79.7169 318.928 80.0348 318.896 80.1809Z" fill="#455A64"/>
<path d="M315.153 80.0688C315.031 80.1797 314.505 79.7915 313.844 79.3712C313.187 78.9445 312.616 78.6272 312.666 78.4699C312.71 78.3195 313.428 78.4085 314.159 78.8811C314.892 79.3499 315.272 79.9664 315.153 80.0688Z" fill="#455A64"/>
<path d="M330.761 84.9259C330.708 85.0896 329.442 84.7557 327.877 84.8971C326.31 85.016 325.116 85.5547 325.037 85.4021C324.948 85.28 326.118 84.4517 327.828 84.3163C329.538 84.1669 330.829 84.7904 330.761 84.9259Z" fill="#455A64"/>
<path d="M333.783 90.0395C333.797 90.1877 331.938 90.3712 329.76 89.7339C327.576 89.1115 326.102 87.9648 326.193 87.8464C326.285 87.6992 327.835 88.5813 329.922 89.1739C332.002 89.7856 333.785 89.8667 333.783 90.0395Z" fill="#455A64"/>
<path d="M340.712 93.4262C340.589 93.5457 339.623 92.5761 338.068 92.1366C336.522 91.6652 335.186 91.959 335.146 91.7916C335.07 91.6572 336.497 91.0577 338.232 91.5782C339.973 92.0785 340.849 93.3542 340.712 93.4262Z" fill="#455A64"/>
<path d="M339.721 79.3072C339.674 79.3259 339.546 78.9862 339.167 78.4827C338.787 77.9835 338.103 77.3568 337.087 76.8608C335.06 75.8752 331.867 75.2608 328.394 75.416C324.903 75.5712 321.813 76.4166 319.619 77.0859C317.421 77.7718 316.079 78.2726 316.046 78.1899C316.032 78.1542 316.348 77.9814 316.939 77.7158C317.53 77.4502 318.396 77.0886 319.488 76.6955C321.667 75.9211 324.791 74.9942 328.368 74.8347C331.936 74.679 335.191 75.3643 337.279 76.4966C338.322 77.0646 339.012 77.7867 339.354 78.3547C339.695 78.9286 339.749 79.3003 339.721 79.3072Z" fill="#455A64"/>
<path d="M340.822 84.5931C340.713 84.6379 340.41 83.4033 339.151 81.9057C337.925 80.4102 335.623 78.7889 332.719 78.1302C329.805 77.479 327.047 77.7329 325.099 77.9734C323.14 78.2283 321.93 78.4635 321.911 78.375C321.896 78.3067 323.071 77.9297 325.037 77.5665C326.989 77.2203 329.812 76.8859 332.848 77.5627C335.89 78.2507 338.274 80.0161 339.472 81.6486C340.082 82.4614 340.447 83.2065 340.626 83.7409C340.809 84.2742 340.854 84.5841 340.822 84.5931Z" fill="#455A64"/>
<path d="M304.21 90.7793C304.2 90.8321 303.298 90.5857 302.313 89.5227C301.346 88.5062 300.38 86.5094 300.829 84.2779C301.315 82.0529 303.003 80.6134 304.297 80.0721C305.627 79.495 306.551 79.6321 306.539 79.6843C306.553 79.7905 305.668 79.8107 304.477 80.4427C303.309 81.0411 301.83 82.4123 301.4 84.3979C300.995 86.3883 301.798 88.2385 302.627 89.2561C303.463 90.3137 304.265 90.6881 304.21 90.7793Z" fill="#455A64"/>
<path d="M345.219 103.964C345.164 103.875 346.16 103.348 347.568 102.292C348.256 101.753 349.025 101.026 349.551 100.024C350.084 99.0374 350.257 97.7403 349.721 96.559C349.214 95.3771 348.224 94.4987 347.19 94.103C346.139 93.7056 345.076 93.7366 344.236 93.9147C342.529 94.2971 341.695 95.1206 341.635 95.0251C341.612 95 341.788 94.7766 342.192 94.4619C342.598 94.1584 343.242 93.7568 344.139 93.5147C345.024 93.272 346.186 93.184 347.375 93.5995C348.558 94.0198 349.679 94.9883 350.256 96.3296C350.873 97.6694 350.645 99.2171 350.024 100.278C349.416 101.369 348.556 102.107 347.812 102.624C347.06 103.14 346.406 103.468 345.954 103.686C345.499 103.9 345.238 103.998 345.219 103.964Z" fill="#263238"/>
<path d="M345.677 104.02C345.713 104.006 345.878 104.306 346.131 104.869C346.382 105.433 346.728 106.259 347.055 107.322C347.375 108.383 347.682 109.695 347.674 111.192C347.666 112.671 347.337 114.367 346.348 115.831C345.352 117.29 343.796 118.219 342.272 118.414C340.728 118.646 339.323 117.978 338.551 117.145C337.743 116.316 337.433 115.378 337.398 114.748C337.357 114.109 337.496 113.774 337.52 113.782C337.573 113.788 337.517 114.132 337.623 114.718C337.721 115.298 338.067 116.131 338.838 116.85C339.591 117.575 340.823 118.114 342.198 117.882C343.554 117.683 344.966 116.824 345.866 115.503C346.77 114.167 347.102 112.591 347.137 111.183C347.175 109.765 346.922 108.486 346.658 107.433C346.097 105.326 345.583 104.054 345.677 104.02Z" fill="#263238"/>
<path d="M330.444 85.6085C329.216 88.0533 330.156 91.0155 331.413 93.4448C332.671 95.8741 334.276 98.2805 334.381 101.014C334.557 105.593 330.466 109.642 331.031 114.189C331.367 116.894 333.53 119.275 336.191 119.87C334.025 118.413 333.828 115.228 334.656 112.753C335.484 110.277 339.49 103.753 340.071 101.208C342.022 92.6597 341.189 91.6661 338.201 88.6608" fill="#263238"/>
<path d="M338.685 91.7029C338.692 91.7728 338.084 91.9131 337.098 91.7707C336.124 91.6363 334.768 91.1477 333.634 90.1019C332.5 89.0544 331.905 87.7424 331.693 86.7819C331.472 85.8107 331.563 85.1936 331.633 85.1941C331.727 85.1883 331.79 85.7824 332.099 86.6635C332.401 87.5397 333.007 88.7072 334.04 89.6613C335.074 90.6144 336.285 91.1248 337.183 91.3557C338.086 91.5931 338.684 91.6085 338.685 91.7029Z" fill="#455A64"/>
<path d="M335.125 117.15C335.111 117.166 335.008 117.1 334.82 116.955C334.635 116.81 334.38 116.566 334.101 116.209C333.56 115.501 332.923 114.257 332.944 112.602C332.948 111.783 333.144 110.874 333.61 110.012C334.078 109.154 334.796 108.411 335.512 107.658C336.236 106.907 336.927 106.099 337.361 105.089C337.804 104.09 338.023 102.947 337.972 101.789C337.921 100.627 337.59 99.5232 337.036 98.5707C336.493 97.6091 335.791 96.7739 335.126 95.9702C333.754 94.3878 332.665 92.7744 332.026 91.3008C331.369 89.8288 331.141 88.5216 331.102 87.6288C331.066 86.7312 331.172 86.2422 331.202 86.2459C331.325 86.2251 331.03 88.2843 332.41 91.1232C333.084 92.5366 334.156 94.0549 335.548 95.6144C336.226 96.4112 336.958 97.2592 337.546 98.2806C338.146 99.2918 338.519 100.51 338.571 101.763C338.626 103.016 338.385 104.25 337.898 105.329C337.42 106.422 336.645 107.303 335.91 108.042C335.176 108.789 334.487 109.485 334.042 110.258C333.604 111.027 333.396 111.854 333.368 112.616C333.294 114.155 333.831 115.359 334.292 116.076C334.772 116.798 335.163 117.109 335.125 117.15Z" fill="#455A64"/>
<path d="M339.684 91.3813C339.707 91.3563 339.948 91.5259 340.312 91.9109C340.679 92.2928 341.136 92.9243 341.535 93.7925C342.347 95.5131 342.71 98.2875 341.847 101.09C340.976 103.88 339.36 106.007 338.152 107.418C336.923 108.833 336.058 109.601 336.004 109.55C335.936 109.489 336.694 108.617 337.824 107.151C338.936 105.688 340.445 103.579 341.275 100.915C342.093 98.2549 341.818 95.632 341.145 93.9568C340.483 92.2512 339.593 91.4571 339.684 91.3813Z" fill="#455A64"/>
<path d="M298.777 164.479L293.27 154.318C292.904 153.644 292.198 153.224 291.431 153.224H252.222C251.446 153.224 250.734 153.653 250.372 154.34L289.24 180.461L306.438 182.436C306.807 181.734 306.82 180.898 306.471 180.186L298.777 164.479Z" fill="#263238"/>
<g opacity="0.3">
<path d="M340.241 187.736C333.353 184.734 325.437 184.298 318.961 180.487C316.485 179.029 314.293 177.115 311.761 175.757C309.229 174.399 306.154 173.637 303.482 174.693C300.81 175.749 298.785 179.761 300.17 182.278C300.701 183.619 303.234 184.877 304.671 184.754C306.108 184.63 307.468 184.038 308.898 183.857C311.97 183.468 314.922 184.983 317.692 186.367C323.66 189.347 329.832 191.917 336.152 194.051C337.629 194.549 339.178 195.03 340.719 194.801C342.26 194.571 343.777 193.407 343.88 191.853C344.009 189.9 342.036 188.518 340.241 187.736Z" fill="black"/>
</g>
<path d="M306.437 182.436L292.686 155.511C292.319 154.793 291.58 154.34 290.774 154.34H250.183L265.305 181.578L306.437 182.436Z" fill="#455A64"/>
<path d="M274.619 164.026C275.186 164.48 276.013 164.389 276.467 163.822C276.921 163.256 276.829 162.428 276.263 161.974C275.697 161.521 274.869 161.612 274.415 162.178C273.96 162.745 274.052 163.572 274.619 164.026Z" fill="#EBEBEB"/>
<path d="M310.338 168.388L306.253 165.234C304.575 163.152 302.045 161.942 299.372 161.942H297.147L295.629 163.65C295.629 163.65 284.736 164.125 284.335 165.468L284.325 165.902L284.319 166.156L293.636 166.782C293.636 166.782 285.71 166.757 285.236 166.775C284.714 166.794 283.024 166.642 283.059 167.572C283.087 168.337 283.992 168.94 285.362 169.14C285.925 169.222 292.79 169.819 292.79 169.819C292.79 169.819 285.582 169.75 285.234 169.748C284.387 169.744 284.494 171.102 284.997 171.272C285.395 171.406 295.074 174.231 295.074 174.231C295.074 174.231 293.446 175.322 292.118 175.227C290.789 175.132 288.512 173.424 288.037 174.231C287.563 175.038 287.658 175.512 287.942 175.702C288.227 175.892 291.358 177.505 292.402 177.789C293.446 178.074 301.967 179.423 301.967 179.423L309.036 178.517L310.338 168.388Z" fill="#FFBE9D"/>
<path d="M291.92 163.781C291.919 163.715 293.631 163.652 295.742 163.641C297.853 163.63 299.565 163.675 299.565 163.74C299.566 163.806 297.855 163.869 295.743 163.88C293.632 163.891 291.92 163.847 291.92 163.781Z" fill="#EB996E"/>
<path d="M310.337 168.388L340.323 174.095L343.331 136.395C343.331 136.395 351.418 129.593 355.696 134.234C359.974 138.875 360.29 144.367 360.016 147.104C359.742 149.841 357.017 182.058 354.757 187.51C351.596 195.133 343.501 194.723 341.24 194.169C338.98 193.615 306.724 178.361 306.724 178.361L310.337 168.388Z" fill="#FFBE9D"/>
<path d="M342.227 136.199C341.171 144.713 339.094 157.739 338.978 166.316C338.978 166.664 359.6 168.388 359.6 168.388C359.6 168.388 360.675 148.966 359.899 143.061C359.017 136.359 354.002 131.74 354.002 131.74H347.53L342.227 136.199Z" fill="#FF725E"/>
<path d="M359.6 168.388C359.599 168.397 359.455 168.392 359.182 168.373C358.884 168.35 358.486 168.318 357.986 168.279C356.92 168.182 355.424 168.047 353.582 167.88C349.835 167.515 344.689 167.013 338.964 166.454L338.83 166.442L338.839 166.307C338.857 166.042 338.876 165.757 338.896 165.471C339.312 159.541 339.689 154.176 339.964 150.258C340.113 148.333 340.233 146.766 340.32 145.65C340.366 145.126 340.403 144.71 340.431 144.398C340.459 144.113 340.479 143.963 340.488 143.963C340.498 143.964 340.497 144.115 340.487 144.402C340.472 144.715 340.452 145.133 340.428 145.658C340.363 146.775 340.272 148.344 340.161 150.272C339.906 154.19 339.558 159.558 339.174 165.491C339.154 165.777 339.135 166.062 339.117 166.326L338.993 166.179C344.714 166.77 349.857 167.302 353.602 167.689C355.441 167.892 356.934 168.057 357.998 168.174C358.496 168.235 358.892 168.283 359.189 168.32C359.459 168.355 359.601 168.379 359.6 168.388Z" fill="#263238"/>
<path d="M83.6896 96.8233H85.9896V97.9333H82.2896V90.9533H83.6896V96.8233ZM89.5395 98.0233C89.0061 98.0233 88.5261 97.9067 88.0995 97.6733C87.6728 97.4333 87.3361 97.0967 87.0895 96.6633C86.8495 96.23 86.7295 95.73 86.7295 95.1633C86.7295 94.5967 86.8528 94.0967 87.0995 93.6633C87.3528 93.23 87.6961 92.8967 88.1295 92.6633C88.5628 92.4233 89.0461 92.3033 89.5795 92.3033C90.1128 92.3033 90.5961 92.4233 91.0295 92.6633C91.4628 92.8967 91.8028 93.23 92.0495 93.6633C92.3028 94.0967 92.4295 94.5967 92.4295 95.1633C92.4295 95.73 92.2995 96.23 92.0395 96.6633C91.7861 97.0967 91.4395 97.4333 90.9995 97.6733C90.5661 97.9067 90.0795 98.0233 89.5395 98.0233ZM89.5395 96.8033C89.7928 96.8033 90.0295 96.7433 90.2495 96.6233C90.4761 96.4967 90.6561 96.31 90.7895 96.0633C90.9228 95.8167 90.9895 95.5167 90.9895 95.1633C90.9895 94.6367 90.8495 94.2333 90.5695 93.9533C90.2961 93.6667 89.9595 93.5233 89.5595 93.5233C89.1595 93.5233 88.8228 93.6667 88.5495 93.9533C88.2828 94.2333 88.1495 94.6367 88.1495 95.1633C88.1495 95.69 88.2795 96.0967 88.5395 96.3833C88.8061 96.6633 89.1395 96.8033 89.5395 96.8033ZM95.8264 92.3033C96.2397 92.3033 96.6031 92.3867 96.9164 92.5533C97.2297 92.7133 97.4764 92.9233 97.6564 93.1833V92.3933H99.0664V97.9733C99.0664 98.4867 98.9631 98.9433 98.7564 99.3433C98.5497 99.75 98.2397 100.07 97.8264 100.303C97.4131 100.543 96.9131 100.663 96.3264 100.663C95.5397 100.663 94.8931 100.48 94.3864 100.113C93.8864 99.7467 93.6031 99.2467 93.5364 98.6133H94.9264C94.9997 98.8667 95.1564 99.0667 95.3964 99.2133C95.6431 99.3667 95.9397 99.4433 96.2864 99.4433C96.6931 99.4433 97.0231 99.32 97.2764 99.0733C97.5297 98.8333 97.6564 98.4667 97.6564 97.9733V97.1133C97.4764 97.3733 97.2264 97.59 96.9064 97.7633C96.5931 97.9367 96.2331 98.0233 95.8264 98.0233C95.3597 98.0233 94.9331 97.9033 94.5464 97.6633C94.1597 97.4233 93.8531 97.0867 93.6264 96.6533C93.4064 96.2133 93.2964 95.71 93.2964 95.1433C93.2964 94.5833 93.4064 94.0867 93.6264 93.6533C93.8531 93.22 94.1564 92.8867 94.5364 92.6533C94.9231 92.42 95.3531 92.3033 95.8264 92.3033ZM97.6564 95.1633C97.6564 94.8233 97.5897 94.5333 97.4564 94.2933C97.3231 94.0467 97.1431 93.86 96.9164 93.7333C96.6897 93.6 96.4464 93.5333 96.1864 93.5333C95.9264 93.5333 95.6864 93.5967 95.4664 93.7233C95.2464 93.85 95.0664 94.0367 94.9264 94.2833C94.7931 94.5233 94.7264 94.81 94.7264 95.1433C94.7264 95.4767 94.7931 95.77 94.9264 96.0233C95.0664 96.27 95.2464 96.46 95.4664 96.5933C95.6931 96.7267 95.9331 96.7933 96.1864 96.7933C96.4464 96.7933 96.6897 96.73 96.9164 96.6033C97.1431 96.47 97.3231 96.2833 97.4564 96.0433C97.5897 95.7967 97.6564 95.5033 97.6564 95.1633ZM101.344 91.7333C101.097 91.7333 100.89 91.6567 100.724 91.5033C100.564 91.3433 100.484 91.1467 100.484 90.9133C100.484 90.68 100.564 90.4867 100.724 90.3333C100.89 90.1733 101.097 90.0933 101.344 90.0933C101.59 90.0933 101.794 90.1733 101.954 90.3333C102.12 90.4867 102.204 90.68 102.204 90.9133C102.204 91.1467 102.12 91.3433 101.954 91.5033C101.794 91.6567 101.59 91.7333 101.344 91.7333ZM102.034 92.3933V97.9333H100.634V92.3933H102.034ZM106.687 92.3133C107.347 92.3133 107.88 92.5233 108.287 92.9433C108.694 93.3567 108.897 93.9367 108.897 94.6833V97.9333H107.497V94.8733C107.497 94.4333 107.387 94.0967 107.167 93.8633C106.947 93.6233 106.647 93.5033 106.267 93.5033C105.88 93.5033 105.574 93.6233 105.347 93.8633C105.127 94.0967 105.017 94.4333 105.017 94.8733V97.9333H103.617V92.3933H105.017V93.0833C105.204 92.8433 105.44 92.6567 105.727 92.5233C106.02 92.3833 106.34 92.3133 106.687 92.3133ZM112.671 94.4333C112.671 93.7467 112.824 93.1333 113.131 92.5933C113.444 92.0467 113.868 91.6233 114.401 91.3233C114.941 91.0167 115.544 90.8633 116.211 90.8633C116.991 90.8633 117.674 91.0633 118.261 91.4633C118.848 91.8633 119.258 92.4167 119.491 93.1233H117.881C117.721 92.79 117.494 92.54 117.201 92.3733C116.914 92.2067 116.581 92.1233 116.201 92.1233C115.794 92.1233 115.431 92.22 115.111 92.4133C114.798 92.6 114.551 92.8667 114.371 93.2133C114.198 93.56 114.111 93.9667 114.111 94.4333C114.111 94.8933 114.198 95.3 114.371 95.6533C114.551 96 114.798 96.27 115.111 96.4633C115.431 96.65 115.794 96.7433 116.201 96.7433C116.581 96.7433 116.914 96.66 117.201 96.4933C117.494 96.32 117.721 96.0667 117.881 95.7333H119.491C119.258 96.4467 118.848 97.0033 118.261 97.4033C117.681 97.7967 116.998 97.9933 116.211 97.9933C115.544 97.9933 114.941 97.8433 114.401 97.5433C113.868 97.2367 113.444 96.8133 113.131 96.2733C112.824 95.7333 112.671 95.12 112.671 94.4333ZM122.287 93.2533C122.467 92.96 122.7 92.73 122.987 92.5633C123.28 92.3967 123.614 92.3133 123.987 92.3133V93.7833H123.617C123.177 93.7833 122.844 93.8867 122.617 94.0933C122.397 94.3 122.287 94.66 122.287 95.1733V97.9333H120.887V92.3933H122.287V93.2533ZM130.28 95.0433C130.28 95.2433 130.267 95.4233 130.24 95.5833H126.19C126.223 95.9833 126.363 96.2967 126.61 96.5233C126.857 96.75 127.16 96.8633 127.52 96.8633C128.04 96.8633 128.41 96.64 128.63 96.1933H130.14C129.98 96.7267 129.673 97.1667 129.22 97.5133C128.767 97.8533 128.21 98.0233 127.55 98.0233C127.017 98.0233 126.537 97.9067 126.11 97.6733C125.69 97.4333 125.36 97.0967 125.12 96.6633C124.887 96.23 124.77 95.73 124.77 95.1633C124.77 94.59 124.887 94.0867 125.12 93.6533C125.353 93.22 125.68 92.8867 126.1 92.6533C126.52 92.42 127.003 92.3033 127.55 92.3033C128.077 92.3033 128.547 92.4167 128.96 92.6433C129.38 92.87 129.703 93.1933 129.93 93.6133C130.163 94.0267 130.28 94.5033 130.28 95.0433ZM128.83 94.6433C128.823 94.2833 128.693 93.9967 128.44 93.7833C128.187 93.5633 127.877 93.4533 127.51 93.4533C127.163 93.4533 126.87 93.56 126.63 93.7733C126.397 93.98 126.253 94.27 126.2 94.6433H128.83ZM131.142 95.1433C131.142 94.5833 131.252 94.0867 131.472 93.6533C131.698 93.22 132.005 92.8867 132.392 92.6533C132.778 92.42 133.208 92.3033 133.682 92.3033C134.042 92.3033 134.385 92.3833 134.712 92.5433C135.038 92.6967 135.298 92.9033 135.492 93.1633V90.5333H136.912V97.9333H135.492V97.1133C135.318 97.3867 135.075 97.6067 134.762 97.7733C134.448 97.94 134.085 98.0233 133.672 98.0233C133.205 98.0233 132.778 97.9033 132.392 97.6633C132.005 97.4233 131.698 97.0867 131.472 96.6533C131.252 96.2133 131.142 95.71 131.142 95.1433ZM135.502 95.1633C135.502 94.8233 135.435 94.5333 135.302 94.2933C135.168 94.0467 134.988 93.86 134.762 93.7333C134.535 93.6 134.292 93.5333 134.032 93.5333C133.772 93.5333 133.532 93.5967 133.312 93.7233C133.092 93.85 132.912 94.0367 132.772 94.2833C132.638 94.5233 132.572 94.81 132.572 95.1433C132.572 95.4767 132.638 95.77 132.772 96.0233C132.912 96.27 133.092 96.46 133.312 96.5933C133.538 96.7267 133.778 96.7933 134.032 96.7933C134.292 96.7933 134.535 96.73 134.762 96.6033C134.988 96.47 135.168 96.2833 135.302 96.0433C135.435 95.7967 135.502 95.5033 135.502 95.1633ZM143.629 95.0433C143.629 95.2433 143.616 95.4233 143.589 95.5833H139.539C139.572 95.9833 139.712 96.2967 139.959 96.5233C140.206 96.75 140.509 96.8633 140.869 96.8633C141.389 96.8633 141.759 96.64 141.979 96.1933H143.489C143.329 96.7267 143.022 97.1667 142.569 97.5133C142.116 97.8533 141.559 98.0233 140.899 98.0233C140.366 98.0233 139.886 97.9067 139.459 97.6733C139.039 97.4333 138.709 97.0967 138.469 96.6633C138.236 96.23 138.119 95.73 138.119 95.1633C138.119 94.59 138.236 94.0867 138.469 93.6533C138.702 93.22 139.029 92.8867 139.449 92.6533C139.869 92.42 140.352 92.3033 140.899 92.3033C141.426 92.3033 141.896 92.4167 142.309 92.6433C142.729 92.87 143.052 93.1933 143.279 93.6133C143.512 94.0267 143.629 94.5033 143.629 95.0433ZM142.179 94.6433C142.172 94.2833 142.042 93.9967 141.789 93.7833C141.536 93.5633 141.226 93.4533 140.859 93.4533C140.512 93.4533 140.219 93.56 139.979 93.7733C139.746 93.98 139.602 94.27 139.549 94.6433H142.179ZM147.921 92.3133C148.581 92.3133 149.114 92.5233 149.521 92.9433C149.928 93.3567 150.131 93.9367 150.131 94.6833V97.9333H148.731V94.8733C148.731 94.4333 148.621 94.0967 148.401 93.8633C148.181 93.6233 147.881 93.5033 147.501 93.5033C147.114 93.5033 146.808 93.6233 146.581 93.8633C146.361 94.0967 146.251 94.4333 146.251 94.8733V97.9333H144.851V92.3933H146.251V93.0833C146.438 92.8433 146.674 92.6567 146.961 92.5233C147.254 92.3833 147.574 92.3133 147.921 92.3133ZM153.292 93.5433V96.2233C153.292 96.41 153.336 96.5467 153.422 96.6333C153.516 96.7133 153.669 96.7533 153.882 96.7533H154.532V97.9333H153.652C152.472 97.9333 151.882 97.36 151.882 96.2133V93.5433H151.222V92.3933H151.882V91.0233H153.292V92.3933H154.532V93.5433H153.292ZM156.449 91.7333C156.203 91.7333 155.996 91.6567 155.829 91.5033C155.669 91.3433 155.589 91.1467 155.589 90.9133C155.589 90.68 155.669 90.4867 155.829 90.3333C155.996 90.1733 156.203 90.0933 156.449 90.0933C156.696 90.0933 156.899 90.1733 157.059 90.3333C157.226 90.4867 157.309 90.68 157.309 90.9133C157.309 91.1467 157.226 91.3433 157.059 91.5033C156.899 91.6567 156.696 91.7333 156.449 91.7333ZM157.139 92.3933V97.9333H155.739V92.3933H157.139ZM158.362 95.1433C158.362 94.5833 158.472 94.0867 158.692 93.6533C158.919 93.22 159.222 92.8867 159.602 92.6533C159.989 92.42 160.419 92.3033 160.892 92.3033C161.306 92.3033 161.666 92.3867 161.972 92.5533C162.286 92.72 162.536 92.93 162.722 93.1833V92.3933H164.132V97.9333H162.722V97.1233C162.542 97.3833 162.292 97.6 161.972 97.7733C161.659 97.94 161.296 98.0233 160.882 98.0233C160.416 98.0233 159.989 97.9033 159.602 97.6633C159.222 97.4233 158.919 97.0867 158.692 96.6533C158.472 96.2133 158.362 95.71 158.362 95.1433ZM162.722 95.1633C162.722 94.8233 162.656 94.5333 162.522 94.2933C162.389 94.0467 162.209 93.86 161.982 93.7333C161.756 93.6 161.512 93.5333 161.252 93.5333C160.992 93.5333 160.752 93.5967 160.532 93.7233C160.312 93.85 160.132 94.0367 159.992 94.2833C159.859 94.5233 159.792 94.81 159.792 95.1433C159.792 95.4767 159.859 95.77 159.992 96.0233C160.132 96.27 160.312 96.46 160.532 96.5933C160.759 96.7267 160.999 96.7933 161.252 96.7933C161.512 96.7933 161.756 96.73 161.982 96.6033C162.209 96.47 162.389 96.2833 162.522 96.0433C162.656 95.7967 162.722 95.5033 162.722 95.1633ZM167.1 90.5333V97.9333H165.7V90.5333H167.1ZM170.803 98.0233C170.35 98.0233 169.943 97.9433 169.583 97.7833C169.223 97.6167 168.936 97.3933 168.723 97.1133C168.516 96.8333 168.403 96.5233 168.383 96.1833H169.793C169.82 96.3967 169.923 96.5733 170.103 96.7133C170.29 96.8533 170.52 96.9233 170.793 96.9233C171.06 96.9233 171.266 96.87 171.413 96.7633C171.566 96.6567 171.643 96.52 171.643 96.3533C171.643 96.1733 171.55 96.04 171.363 95.9533C171.183 95.86 170.893 95.76 170.493 95.6533C170.08 95.5533 169.74 95.45 169.473 95.3433C169.213 95.2367 168.986 95.0733 168.793 94.8533C168.606 94.6333 168.513 94.3367 168.513 93.9633C168.513 93.6567 168.6 93.3767 168.773 93.1233C168.953 92.87 169.206 92.67 169.533 92.5233C169.866 92.3767 170.256 92.3033 170.703 92.3033C171.363 92.3033 171.89 92.47 172.283 92.8033C172.676 93.13 172.893 93.5733 172.933 94.1333H171.593C171.573 93.9133 171.48 93.74 171.313 93.6133C171.153 93.48 170.936 93.4133 170.663 93.4133C170.41 93.4133 170.213 93.46 170.073 93.5533C169.94 93.6467 169.873 93.7767 169.873 93.9433C169.873 94.13 169.966 94.2733 170.153 94.3733C170.34 94.4667 170.63 94.5633 171.023 94.6633C171.423 94.7633 171.753 94.8667 172.013 94.9733C172.273 95.08 172.496 95.2467 172.683 95.4733C172.876 95.6933 172.976 95.9867 172.983 96.3533C172.983 96.6733 172.893 96.96 172.713 97.2133C172.54 97.4667 172.286 97.6667 171.953 97.8133C171.626 97.9533 171.243 98.0233 170.803 98.0233Z" fill="black"/>
<rect x="92" y="114" width="147" height="8" rx="4" fill="#D9D9D9"/>
</svg>
