<svg width="255" height="255" viewBox="0 0 255 255" fill="none" xmlns="http://www.w3.org/2000/svg">
<path d="M255 195.023H0V195.15H255V195.023Z" fill="#EBEBEB"/>
<path d="M229.45 203.232H212.558V203.359H229.45V203.232Z" fill="#EBEBEB"/>
<path d="M168.922 204.616H164.488V204.744H168.922V204.616Z" fill="#EBEBEB"/>
<path d="M212.047 198.496H202.259V198.624H212.047V198.496Z" fill="#EBEBEB"/>
<path d="M48.7823 199.353H26.7539V199.48H48.7823V199.353Z" fill="#EBEBEB"/>
<path d="M56.5531 199.353H53.3232V199.48H56.5531V199.353Z" fill="#EBEBEB"/>
<path d="M114.825 201.507H67.0498V201.634H114.825V201.507Z" fill="#EBEBEB"/>
<path d="M120.877 172.278H22.3964C20.7915 172.278 19.4854 170.972 19.4854 169.367V30.9366C19.4854 29.3316 20.7915 28.0255 22.3964 28.0255H120.877C122.481 28.0255 123.787 29.3316 123.787 30.9366V169.367C123.787 170.972 122.481 172.278 120.877 172.278ZM22.3964 28.1535C20.8613 28.1535 19.6129 29.402 19.6129 30.9371V169.367C19.6129 170.903 20.8613 172.151 22.3964 172.151H120.877C122.412 172.151 123.66 170.903 123.66 169.367V30.9366C123.66 29.402 122.412 28.153 120.877 28.153L22.3964 28.1535Z" fill="#EBEBEB"/>
<path d="M231.188 172.278H132.708C131.103 172.278 129.798 170.972 129.798 169.367V30.9366C129.798 29.3316 131.104 28.0255 132.708 28.0255H231.188C232.794 28.0255 234.099 29.3316 234.099 30.9366V169.367C234.1 170.972 232.794 172.278 231.188 172.278ZM132.708 28.1535C131.174 28.1535 129.925 29.402 129.925 30.9371V169.367C129.925 170.903 131.174 172.151 132.708 172.151H231.188C232.723 172.151 233.972 170.903 233.972 169.367V30.9366C233.972 29.402 232.723 28.153 231.188 28.153L132.708 28.1535Z" fill="#EBEBEB"/>
<path d="M195.888 99.3639C195.888 97.8828 197.089 96.6818 198.57 96.6818C198.838 96.6818 199.096 96.7221 199.34 96.7955C199.301 96.5267 199.28 96.2518 199.28 95.9719C199.28 92.8354 201.823 90.2925 204.959 90.2925C205.317 90.2925 205.666 90.3272 206.005 90.3904C206.878 88.9619 208.447 88.0046 210.244 88.0046C212.963 88.0046 215.169 90.19 215.21 92.8996C215.237 92.8991 215.265 92.8955 215.292 92.8955C217.819 92.8955 219.867 94.9437 219.867 97.4708C219.867 99.9973 217.819 102.046 215.292 102.046H198.49L198.494 102.042C197.048 102.002 195.888 100.82 195.888 99.3639Z" fill="#1D1E26"/>
<path d="M45.6191 87.2514C45.6191 85.7703 46.8202 84.5693 48.3012 84.5693C48.569 84.5693 48.8276 84.6096 49.0713 84.683C49.0321 84.4142 49.0112 84.1393 49.0112 83.8599C49.0112 80.7234 51.554 78.1805 54.6905 78.1805C55.048 78.1805 55.3974 78.2152 55.7365 78.2784C56.6096 76.8499 58.1784 75.8926 59.9756 75.8926C62.695 75.8926 64.9012 78.078 64.9415 80.7876C64.9691 80.7871 64.9961 80.7835 65.0241 80.7835C67.5507 80.7835 69.5993 82.8317 69.5993 85.3587C69.5993 87.8853 67.5512 89.934 65.0241 89.934H48.2222L48.2258 89.9299C46.7799 89.8891 45.6191 88.7074 45.6191 87.2514Z" fill="#1D1E26"/>
<path d="M114.591 48.4378H104.812C104.838 48.2032 104.854 47.966 104.854 47.7243C104.854 44.1691 101.972 41.2876 98.4165 41.2876C98.3374 41.2876 98.2604 41.2968 98.1824 41.2993C97.3756 39.1349 95.2963 37.5901 92.8503 37.5901C89.7052 37.5901 87.1557 40.1396 87.1557 43.2847C87.1557 43.2893 87.1562 43.2934 87.1562 43.2975C84.3675 43.4275 82.1332 45.6527 81.9883 48.4373H81.7298C80.1559 48.4373 78.8682 49.725 78.8682 51.2989C78.8682 52.8727 80.1559 54.1605 81.7298 54.1605H114.591C116.165 54.1605 117.453 52.8727 117.453 51.2989C117.453 49.7255 116.165 48.4378 114.591 48.4378Z" fill="#1D1E26"/>
<path d="M187.025 52.5239C185.497 50.0861 182.794 48.4592 179.705 48.4592C176.564 48.4592 173.823 50.1402 172.31 52.6463C171.912 52.5351 171.495 52.4714 171.063 52.4714C168.506 52.4714 166.433 54.544 166.433 57.1012C166.433 57.1032 166.433 57.1053 166.433 57.1073H163.992C162.721 57.1073 161.681 58.1477 161.681 59.4191C161.681 60.6906 162.721 61.731 163.992 61.731H172.416C173.949 64.1402 176.637 65.7431 179.705 65.7431C182.124 65.7431 184.307 64.7466 185.876 63.1452C186.022 63.1569 186.168 63.1676 186.317 63.1676C189.271 63.1676 191.665 60.7732 191.665 57.8198C191.665 55.1066 189.643 52.8712 187.025 52.5239Z" fill="#1D1E26"/>
<path d="M135.57 85.2205C134.042 82.7827 131.339 81.1558 128.249 81.1558C125.109 81.1558 122.368 82.8368 120.854 85.3429C120.457 85.2317 120.04 85.168 119.608 85.168C117.051 85.168 114.978 87.2406 114.978 89.7978C114.978 89.7998 114.978 89.8019 114.978 89.8039H112.537C111.266 89.8039 110.226 90.8443 110.226 92.1157C110.226 93.3872 111.266 94.4275 112.537 94.4275H120.961C122.494 96.8368 125.182 98.4397 128.249 98.4397C130.668 98.4397 132.852 97.4432 134.421 95.8418C134.567 95.8535 134.713 95.8642 134.862 95.8642C137.816 95.8642 140.21 93.4698 140.21 90.5164C140.21 87.8032 138.188 85.5673 135.57 85.2205Z" fill="#1D1E26"/>
<path d="M28.7832 195.948V171.571H30.8676V159.957H33.9143V119.574H38.3187V114.363L47.7226 109.978V104.724H49.0251V119.574H50.8489V159.957H52.6726V138.723H57.6227V127.781H59.0043V159.957H62.764V147.712H65.239V144.585H70.9704V133.903H74.1095V126.348H77.9681V115.34H79.3446V126.348H83.2033V133.903H86.3423V144.585H92.0737V147.712H94.5492V159.957H97.4843V144.585H103.216V111.498H105.04V107.85H117.285V111.498H119.89V135.467H130.312V137.812H134.22V139.635H130.312V149.014H141.254V117.75H143.599V111.106H148.68V87.5281H150.112V111.106H153.76V117.75H175.144V115.564H176.446V130.414H178.27V130.675H179.365V145.525H181.189V149.563H185.044V138.621H186.425V164.674H187.963V153.732H189.344V170.797H190.184V158.552H192.66V155.425H198.391V144.744H201.53V137.188H205.389V126.181H206.766V137.188H210.624V144.744H213.763V155.425H219.495V158.552H221.97V170.536H222.414V170.797H223.639V195.948H28.7832Z" fill="#100F0F"/>
<path d="M163.213 119.211H161.736V120.688H163.213V119.211Z" fill="#2A2B37"/>
<path d="M163.213 121.686H161.736V123.163H163.213V121.686Z" fill="#2A2B37"/>
<path d="M163.213 131.586H161.736V133.063H163.213V131.586Z" fill="#2A2B37"/>
<path d="M163.213 134.062H161.736V135.538H163.213V134.062Z" fill="#2A2B37"/>
<path d="M163.213 136.537H161.736V138.013H163.213V136.537Z" fill="#2A2B37"/>
<path d="M163.213 143.962H161.736V145.439H163.213V143.962Z" fill="#2A2B37"/>
<path d="M163.213 146.437H161.736V147.914H163.213V146.437Z" fill="#2A2B37"/>
<path d="M160.868 129.112H159.392V130.588H160.868V129.112Z" fill="#2A2B37"/>
<path d="M160.868 131.586H159.392V133.063H160.868V131.586Z" fill="#2A2B37"/>
<path d="M160.868 134.062H159.392V135.538H160.868V134.062Z" fill="#2A2B37"/>
<path d="M160.868 136.537H159.392V138.013H160.868V136.537Z" fill="#2A2B37"/>
<path d="M160.868 139.012H159.392V140.488H160.868V139.012Z" fill="#2A2B37"/>
<path d="M160.868 143.962H159.392V145.439H160.868V143.962Z" fill="#2A2B37"/>
<path d="M160.868 146.437H159.392V147.914H160.868V146.437Z" fill="#2A2B37"/>
<path d="M158.523 119.211H157.047V120.688H158.523V119.211Z" fill="#2A2B37"/>
<path d="M158.523 121.686H157.047V123.163H158.523V121.686Z" fill="#2A2B37"/>
<path d="M158.523 124.161H157.047V125.638H158.523V124.161Z" fill="#2A2B37"/>
<path d="M158.523 126.636H157.047V128.113H158.523V126.636Z" fill="#2A2B37"/>
<path d="M158.523 129.112H157.047V130.588H158.523V129.112Z" fill="#2A2B37"/>
<path d="M158.523 131.586H157.047V133.063H158.523V131.586Z" fill="#2A2B37"/>
<path d="M158.523 134.062H157.047V135.538H158.523V134.062Z" fill="#2A2B37"/>
<path d="M158.523 136.537H157.047V138.013H158.523V136.537Z" fill="#2A2B37"/>
<path d="M158.523 139.012H157.047V140.488H158.523V139.012Z" fill="#2A2B37"/>
<path d="M158.523 141.487H157.047V142.964H158.523V141.487Z" fill="#2A2B37"/>
<path d="M158.523 146.437H157.047V147.914H158.523V146.437Z" fill="#2A2B37"/>
<path d="M156.178 119.211H154.701V120.688H156.178V119.211Z" fill="#2A2B37"/>
<path d="M156.178 121.686H154.701V123.163H156.178V121.686Z" fill="#2A2B37"/>
<path d="M156.178 124.161H154.701V125.638H156.178V124.161Z" fill="#2A2B37"/>
<path d="M156.178 126.636H154.701V128.113H156.178V126.636Z" fill="#2A2B37"/>
<path d="M156.178 129.112H154.701V130.588H156.178V129.112Z" fill="#2A2B37"/>
<path d="M156.178 131.586H154.701V133.063H156.178V131.586Z" fill="#2A2B37"/>
<path d="M156.178 134.062H154.701V135.538H156.178V134.062Z" fill="#2A2B37"/>
<path d="M156.178 156.337H154.701V157.814H156.178V156.337Z" fill="#2A2B37"/>
<path d="M153.834 119.211H152.357V120.688H153.834V119.211Z" fill="#2A2B37"/>
<path d="M153.834 121.686H152.357V123.163H153.834V121.686Z" fill="#2A2B37"/>
<path d="M153.834 124.161H152.357V125.638H153.834V124.161Z" fill="#2A2B37"/>
<path d="M153.834 126.636H152.357V128.113H153.834V126.636Z" fill="#2A2B37"/>
<path d="M153.834 129.112H152.357V130.588H153.834V129.112Z" fill="#2A2B37"/>
<path d="M153.834 131.586H152.357V133.063H153.834V131.586Z" fill="#2A2B37"/>
<path d="M153.834 134.062H152.357V135.538H153.834V134.062Z" fill="#2A2B37"/>
<path d="M153.834 136.537H152.357V138.013H153.834V136.537Z" fill="#2A2B37"/>
<path d="M153.834 151.387H152.357V152.864H153.834V151.387Z" fill="#2A2B37"/>
<path d="M153.834 153.862H152.357V155.339H153.834V153.862Z" fill="#2A2B37"/>
<path d="M153.834 156.337H152.357V157.814H153.834V156.337Z" fill="#2A2B37"/>
<path d="M153.834 158.812H152.357V160.289H153.834V158.812Z" fill="#2A2B37"/>
<path d="M153.834 168.713H152.357V170.189H153.834V168.713Z" fill="#2A2B37"/>
<path d="M151.488 119.211H150.012V120.688H151.488V119.211Z" fill="#2A2B37"/>
<path d="M151.488 121.686H150.012V123.163H151.488V121.686Z" fill="#2A2B37"/>
<path d="M151.488 124.161H150.012V125.638H151.488V124.161Z" fill="#2A2B37"/>
<path d="M151.488 126.636H150.012V128.113H151.488V126.636Z" fill="#2A2B37"/>
<path d="M151.488 129.112H150.012V130.588H151.488V129.112Z" fill="#2A2B37"/>
<path d="M151.488 131.586H150.012V133.063H151.488V131.586Z" fill="#2A2B37"/>
<path d="M151.488 134.062H150.012V135.538H151.488V134.062Z" fill="#2A2B37"/>
<path d="M151.488 136.537H150.012V138.013H151.488V136.537Z" fill="#2A2B37"/>
<path d="M151.488 139.012H150.012V140.488H151.488V139.012Z" fill="#2A2B37"/>
<path d="M151.488 141.487H150.012V142.964H151.488V141.487Z" fill="#2A2B37"/>
<path d="M151.488 148.912H150.012V150.389H151.488V148.912Z" fill="#2A2B37"/>
<path d="M151.488 151.387H150.012V152.864H151.488V151.387Z" fill="#2A2B37"/>
<path d="M151.488 153.862H150.012V155.339H151.488V153.862Z" fill="#2A2B37"/>
<path d="M151.488 156.337H150.012V157.814H151.488V156.337Z" fill="#2A2B37"/>
<path d="M151.488 158.812H150.012V160.289H151.488V158.812Z" fill="#2A2B37"/>
<path d="M151.488 168.713H150.012V170.189H151.488V168.713Z" fill="#2A2B37"/>
<path d="M149.143 119.211H147.667V120.688H149.143V119.211Z" fill="#2A2B37"/>
<path d="M149.143 121.686H147.667V123.163H149.143V121.686Z" fill="#2A2B37"/>
<path d="M149.143 124.161H147.667V125.638H149.143V124.161Z" fill="#2A2B37"/>
<path d="M149.143 126.636H147.667V128.113H149.143V126.636Z" fill="#2A2B37"/>
<path d="M149.143 129.112H147.667V130.588H149.143V129.112Z" fill="#2A2B37"/>
<path d="M149.143 131.586H147.667V133.063H149.143V131.586Z" fill="#2A2B37"/>
<path d="M149.143 134.062H147.667V135.538H149.143V134.062Z" fill="#2A2B37"/>
<path d="M149.143 136.537H147.667V138.013H149.143V136.537Z" fill="#2A2B37"/>
<path d="M149.143 139.012H147.667V140.488H149.143V139.012Z" fill="#2A2B37"/>
<path d="M149.143 141.487H147.667V142.964H149.143V141.487Z" fill="#2A2B37"/>
<path d="M149.143 143.962H147.667V145.439H149.143V143.962Z" fill="#2A2B37"/>
<path d="M149.143 146.437H147.667V147.914H149.143V146.437Z" fill="#2A2B37"/>
<path d="M149.143 148.912H147.667V150.389H149.143V148.912Z" fill="#2A2B37"/>
<path d="M149.143 151.387H147.667V152.864H149.143V151.387Z" fill="#2A2B37"/>
<path d="M149.143 153.862H147.667V155.339H149.143V153.862Z" fill="#2A2B37"/>
<path d="M149.143 156.337H147.667V157.814H149.143V156.337Z" fill="#2A2B37"/>
<path d="M149.143 158.812H147.667V160.289H149.143V158.812Z" fill="#2A2B37"/>
<path d="M149.143 161.287H147.667V162.764H149.143V161.287Z" fill="#2A2B37"/>
<path d="M146.799 119.211H145.322V120.688H146.799V119.211Z" fill="#2A2B37"/>
<path d="M146.799 121.686H145.322V123.163H146.799V121.686Z" fill="#2A2B37"/>
<path d="M146.799 124.161H145.322V125.638H146.799V124.161Z" fill="#2A2B37"/>
<path d="M146.799 126.636H145.322V128.113H146.799V126.636Z" fill="#2A2B37"/>
<path d="M146.799 129.112H145.322V130.588H146.799V129.112Z" fill="#2A2B37"/>
<path d="M146.799 131.586H145.322V133.063H146.799V131.586Z" fill="#2A2B37"/>
<path d="M146.799 134.062H145.322V135.538H146.799V134.062Z" fill="#2A2B37"/>
<path d="M146.799 136.537H145.322V138.013H146.799V136.537Z" fill="#2A2B37"/>
<path d="M146.799 139.012H145.322V140.488H146.799V139.012Z" fill="#2A2B37"/>
<path d="M146.799 141.487H145.322V142.964H146.799V141.487Z" fill="#2A2B37"/>
<path d="M146.799 148.912H145.322V150.389H146.799V148.912Z" fill="#2A2B37"/>
<path d="M146.799 151.387H145.322V152.864H146.799V151.387Z" fill="#2A2B37"/>
<path d="M146.799 153.862H145.322V155.339H146.799V153.862Z" fill="#2A2B37"/>
<path d="M146.799 156.337H145.322V157.814H146.799V156.337Z" fill="#2A2B37"/>
<path d="M144.454 119.211H142.978V120.688H144.454V119.211Z" fill="#2A2B37"/>
<path d="M144.454 121.686H142.978V123.163H144.454V121.686Z" fill="#2A2B37"/>
<path d="M144.454 124.161H142.978V125.638H144.454V124.161Z" fill="#2A2B37"/>
<path d="M144.454 126.636H142.978V128.113H144.454V126.636Z" fill="#2A2B37"/>
<path d="M144.454 129.112H142.978V130.588H144.454V129.112Z" fill="#2A2B37"/>
<path d="M144.454 131.586H142.978V133.063H144.454V131.586Z" fill="#2A2B37"/>
<path d="M144.454 134.062H142.978V135.538H144.454V134.062Z" fill="#2A2B37"/>
<path d="M144.454 136.537H142.978V138.013H144.454V136.537Z" fill="#2A2B37"/>
<path d="M144.454 139.012H142.978V140.488H144.454V139.012Z" fill="#2A2B37"/>
<path d="M144.454 141.487H142.978V142.964H144.454V141.487Z" fill="#2A2B37"/>
<path d="M144.454 148.912H142.978V150.389H144.454V148.912Z" fill="#2A2B37"/>
<path d="M144.454 151.387H142.978V152.864H144.454V151.387Z" fill="#2A2B37"/>
<path d="M144.454 153.862H142.978V155.339H144.454V153.862Z" fill="#2A2B37"/>
<path d="M118.054 112.785H116.577V114.261H118.054V112.785Z" fill="#2A2B37"/>
<path d="M118.054 115.26H116.577V116.736H118.054V115.26Z" fill="#2A2B37"/>
<path d="M118.054 117.735H116.577V119.211H118.054V117.735Z" fill="#2A2B37"/>
<path d="M118.054 120.21H116.577V121.686H118.054V120.21Z" fill="#2A2B37"/>
<path d="M118.054 122.685H116.577V124.161H118.054V122.685Z" fill="#2A2B37"/>
<path d="M118.054 125.16H116.577V126.636H118.054V125.16Z" fill="#2A2B37"/>
<path d="M118.054 127.636H116.577V129.112H118.054V127.636Z" fill="#2A2B37"/>
<path d="M118.054 130.11H116.577V131.586H118.054V130.11Z" fill="#2A2B37"/>
<path d="M118.054 137.536H116.577V139.012H118.054V137.536Z" fill="#2A2B37"/>
<path d="M118.054 140.011H116.577V141.487H118.054V140.011Z" fill="#2A2B37"/>
<path d="M115.709 112.785H114.232V114.261H115.709V112.785Z" fill="#2A2B37"/>
<path d="M115.709 115.26H114.232V116.736H115.709V115.26Z" fill="#2A2B37"/>
<path d="M115.709 117.735H114.232V119.211H115.709V117.735Z" fill="#2A2B37"/>
<path d="M115.709 120.21H114.232V121.686H115.709V120.21Z" fill="#2A2B37"/>
<path d="M115.709 122.685H114.232V124.161H115.709V122.685Z" fill="#2A2B37"/>
<path d="M115.709 125.16H114.232V126.636H115.709V125.16Z" fill="#2A2B37"/>
<path d="M115.709 127.636H114.232V129.112H115.709V127.636Z" fill="#2A2B37"/>
<path d="M115.709 130.11H114.232V131.586H115.709V130.11Z" fill="#2A2B37"/>
<path d="M115.709 140.011H114.232V141.487H115.709V140.011Z" fill="#2A2B37"/>
<path d="M113.364 112.785H111.888V114.261H113.364V112.785Z" fill="#2A2B37"/>
<path d="M113.364 115.26H111.888V116.736H113.364V115.26Z" fill="#2A2B37"/>
<path d="M113.364 117.735H111.888V119.211H113.364V117.735Z" fill="#2A2B37"/>
<path d="M113.364 120.21H111.888V121.686H113.364V120.21Z" fill="#2A2B37"/>
<path d="M113.364 122.685H111.888V124.161H113.364V122.685Z" fill="#2A2B37"/>
<path d="M113.364 125.16H111.888V126.636H113.364V125.16Z" fill="#2A2B37"/>
<path d="M113.364 127.636H111.888V129.112H113.364V127.636Z" fill="#2A2B37"/>
<path d="M113.364 130.11H111.888V131.586H113.364V130.11Z" fill="#2A2B37"/>
<path d="M111.019 112.785H109.543V114.261H111.019V112.785Z" fill="#2A2B37"/>
<path d="M111.019 115.26H109.543V116.736H111.019V115.26Z" fill="#2A2B37"/>
<path d="M111.019 117.735H109.543V119.211H111.019V117.735Z" fill="#2A2B37"/>
<path d="M111.019 120.21H109.543V121.686H111.019V120.21Z" fill="#2A2B37"/>
<path d="M111.019 122.685H109.543V124.161H111.019V122.685Z" fill="#2A2B37"/>
<path d="M111.019 125.16H109.543V126.636H111.019V125.16Z" fill="#2A2B37"/>
<path d="M111.019 130.11H109.543V131.586H111.019V130.11Z" fill="#2A2B37"/>
<path d="M111.019 132.585H109.543V134.062H111.019V132.585Z" fill="#2A2B37"/>
<path d="M111.019 140.011H109.543V141.487H111.019V140.011Z" fill="#2A2B37"/>
<path d="M111.019 142.486H109.543V143.962H111.019V142.486Z" fill="#2A2B37"/>
<path d="M111.019 144.961H109.543V146.437H111.019V144.961Z" fill="#2A2B37"/>
<path d="M111.019 147.436H109.543V148.912H111.019V147.436Z" fill="#2A2B37"/>
<path d="M111.019 149.911H109.543V151.387H111.019V149.911Z" fill="#2A2B37"/>
<path d="M111.019 152.386H109.543V153.862H111.019V152.386Z" fill="#2A2B37"/>
<path d="M111.019 154.861H109.543V156.337H111.019V154.861Z" fill="#2A2B37"/>
<path d="M108.674 112.785H107.197V114.261H108.674V112.785Z" fill="#2A2B37"/>
<path d="M108.674 115.26H107.197V116.736H108.674V115.26Z" fill="#2A2B37"/>
<path d="M108.674 117.735H107.197V119.211H108.674V117.735Z" fill="#2A2B37"/>
<path d="M108.674 120.21H107.197V121.686H108.674V120.21Z" fill="#2A2B37"/>
<path d="M108.674 122.685H107.197V124.161H108.674V122.685Z" fill="#2A2B37"/>
<path d="M108.674 125.16H107.197V126.636H108.674V125.16Z" fill="#2A2B37"/>
<path d="M108.674 132.585H107.197V134.062H108.674V132.585Z" fill="#2A2B37"/>
<path d="M108.674 135.06H107.197V136.537H108.674V135.06Z" fill="#2A2B37"/>
<path d="M108.674 137.536H107.197V139.012H108.674V137.536Z" fill="#2A2B37"/>
<path d="M108.674 140.011H107.197V141.487H108.674V140.011Z" fill="#2A2B37"/>
<path d="M108.674 142.486H107.197V143.962H108.674V142.486Z" fill="#2A2B37"/>
<path d="M108.674 144.961H107.197V146.437H108.674V144.961Z" fill="#2A2B37"/>
<path d="M108.674 147.436H107.197V148.912H108.674V147.436Z" fill="#2A2B37"/>
<path d="M108.674 149.911H107.197V151.387H108.674V149.911Z" fill="#2A2B37"/>
<path d="M108.674 152.386H107.197V153.862H108.674V152.386Z" fill="#2A2B37"/>
<path d="M108.674 154.861H107.197V156.337H108.674V154.861Z" fill="#2A2B37"/>
<path d="M108.674 157.336H107.197V158.812H108.674V157.336Z" fill="#2A2B37"/>
<path d="M108.674 162.286H107.197V163.763H108.674V162.286Z" fill="#2A2B37"/>
<path d="M106.33 112.785H104.854V114.261H106.33V112.785Z" fill="#2A2B37"/>
<path d="M106.33 115.26H104.854V116.736H106.33V115.26Z" fill="#2A2B37"/>
<path d="M106.33 117.735H104.854V119.211H106.33V117.735Z" fill="#2A2B37"/>
<path d="M106.33 120.21H104.854V121.686H106.33V120.21Z" fill="#2A2B37"/>
<path d="M106.33 122.685H104.854V124.161H106.33V122.685Z" fill="#2A2B37"/>
<path d="M106.33 125.16H104.854V126.636H106.33V125.16Z" fill="#2A2B37"/>
<path d="M106.33 132.585H104.854V134.062H106.33V132.585Z" fill="#2A2B37"/>
<path d="M106.33 135.06H104.854V136.537H106.33V135.06Z" fill="#2A2B37"/>
<path d="M106.33 137.536H104.854V139.012H106.33V137.536Z" fill="#2A2B37"/>
<path d="M106.33 140.011H104.854V141.487H106.33V140.011Z" fill="#2A2B37"/>
<path d="M106.33 147.436H104.854V148.912H106.33V147.436Z" fill="#2A2B37"/>
<path d="M106.33 149.911H104.854V151.387H106.33V149.911Z" fill="#2A2B37"/>
<path d="M106.33 152.386H104.854V153.862H106.33V152.386Z" fill="#2A2B37"/>
<path d="M106.33 154.861H104.854V156.337H106.33V154.861Z" fill="#2A2B37"/>
<path d="M106.33 157.336H104.854V158.812H106.33V157.336Z" fill="#2A2B37"/>
<path d="M106.33 162.286H104.854V163.763H106.33V162.286Z" fill="#2A2B37"/>
<path d="M106.33 164.761H104.854V166.238H106.33V164.761Z" fill="#2A2B37"/>
<path d="M85.0526 135.799H83.5762V137.275H85.0526V135.799Z" fill="#2A2B37"/>
<path d="M85.0526 138.274H83.5762V139.75H85.0526V138.274Z" fill="#2A2B37"/>
<path d="M85.0526 140.749H83.5762V142.225H85.0526V140.749Z" fill="#2A2B37"/>
<path d="M85.0526 143.224H83.5762V144.7H85.0526V143.224Z" fill="#2A2B37"/>
<path d="M85.0526 145.699H83.5762V147.176H85.0526V145.699Z" fill="#2A2B37"/>
<path d="M85.0526 148.174H83.5762V149.651H85.0526V148.174Z" fill="#2A2B37"/>
<path d="M85.0526 150.649H83.5762V152.126H85.0526V150.649Z" fill="#2A2B37"/>
<path d="M85.0526 158.074H83.5762V159.551H85.0526V158.074Z" fill="#2A2B37"/>
<path d="M85.0526 160.549H83.5762V162.026H85.0526V160.549Z" fill="#2A2B37"/>
<path d="M85.0526 163.024H83.5762V164.501H85.0526V163.024Z" fill="#2A2B37"/>
<path d="M82.7079 135.799H81.2314V137.275H82.7079V135.799Z" fill="#2A2B37"/>
<path d="M82.7079 138.274H81.2314V139.75H82.7079V138.274Z" fill="#2A2B37"/>
<path d="M82.7079 140.749H81.2314V142.225H82.7079V140.749Z" fill="#2A2B37"/>
<path d="M82.7079 143.224H81.2314V144.7H82.7079V143.224Z" fill="#2A2B37"/>
<path d="M82.7079 145.699H81.2314V147.176H82.7079V145.699Z" fill="#2A2B37"/>
<path d="M82.7079 148.174H81.2314V149.651H82.7079V148.174Z" fill="#2A2B37"/>
<path d="M82.7079 150.649H81.2314V152.126H82.7079V150.649Z" fill="#2A2B37"/>
<path d="M80.3632 135.799H78.8867V137.275H80.3632V135.799Z" fill="#2A2B37"/>
<path d="M80.3632 138.274H78.8867V139.75H80.3632V138.274Z" fill="#2A2B37"/>
<path d="M80.3632 140.749H78.8867V142.225H80.3632V140.749Z" fill="#2A2B37"/>
<path d="M80.3632 143.224H78.8867V144.7H80.3632V143.224Z" fill="#2A2B37"/>
<path d="M80.3632 145.699H78.8867V147.176H80.3632V145.699Z" fill="#2A2B37"/>
<path d="M80.3632 148.174H78.8867V149.651H80.3632V148.174Z" fill="#2A2B37"/>
<path d="M80.3632 150.649H78.8867V152.126H80.3632V150.649Z" fill="#2A2B37"/>
<path d="M78.0184 135.799H76.542V137.275H78.0184V135.799Z" fill="#2A2B37"/>
<path d="M78.0184 138.274H76.542V139.75H78.0184V138.274Z" fill="#2A2B37"/>
<path d="M78.0184 140.749H76.542V142.225H78.0184V140.749Z" fill="#2A2B37"/>
<path d="M78.0184 143.224H76.542V144.7H78.0184V143.224Z" fill="#2A2B37"/>
<path d="M78.0184 145.699H76.542V147.176H78.0184V145.699Z" fill="#2A2B37"/>
<path d="M78.0184 148.174H76.542V149.651H78.0184V148.174Z" fill="#2A2B37"/>
<path d="M78.0184 150.649H76.542V152.126H78.0184V150.649Z" fill="#2A2B37"/>
<path d="M78.0184 153.124H76.542V154.601H78.0184V153.124Z" fill="#2A2B37"/>
<path d="M78.0184 155.599H76.542V157.076H78.0184V155.599Z" fill="#2A2B37"/>
<path d="M78.0184 158.074H76.542V159.551H78.0184V158.074Z" fill="#2A2B37"/>
<path d="M78.0184 160.549H76.542V162.026H78.0184V160.549Z" fill="#2A2B37"/>
<path d="M75.6737 135.799H74.1973V137.275H75.6737V135.799Z" fill="#2A2B37"/>
<path d="M75.6737 138.274H74.1973V139.75H75.6737V138.274Z" fill="#2A2B37"/>
<path d="M75.6737 140.749H74.1973V142.225H75.6737V140.749Z" fill="#2A2B37"/>
<path d="M75.6737 143.224H74.1973V144.7H75.6737V143.224Z" fill="#2A2B37"/>
<path d="M75.6737 145.699H74.1973V147.176H75.6737V145.699Z" fill="#2A2B37"/>
<path d="M75.6737 148.174H74.1973V149.651H75.6737V148.174Z" fill="#2A2B37"/>
<path d="M75.6737 150.649H74.1973V152.126H75.6737V150.649Z" fill="#2A2B37"/>
<path d="M75.6737 153.124H74.1973V154.601H75.6737V153.124Z" fill="#2A2B37"/>
<path d="M75.6737 155.599H74.1973V157.076H75.6737V155.599Z" fill="#2A2B37"/>
<path d="M75.6737 158.074H74.1973V159.551H75.6737V158.074Z" fill="#2A2B37"/>
<path d="M75.6737 160.549H74.1973V162.026H75.6737V160.549Z" fill="#2A2B37"/>
<path d="M75.6737 163.024H74.1973V164.501H75.6737V163.024Z" fill="#2A2B37"/>
<path d="M75.6737 170.45H74.1973V171.926H75.6737V170.45Z" fill="#2A2B37"/>
<path d="M75.6737 172.925H74.1973V174.401H75.6737V172.925Z" fill="#2A2B37"/>
<path d="M73.329 135.799H71.8525V137.275H73.329V135.799Z" fill="#2A2B37"/>
<path d="M73.329 138.274H71.8525V139.75H73.329V138.274Z" fill="#2A2B37"/>
<path d="M73.329 140.749H71.8525V142.225H73.329V140.749Z" fill="#2A2B37"/>
<path d="M73.329 148.174H71.8525V149.651H73.329V148.174Z" fill="#2A2B37"/>
<path d="M73.329 150.649H71.8525V152.126H73.329V150.649Z" fill="#2A2B37"/>
<path d="M73.329 153.124H71.8525V154.601H73.329V153.124Z" fill="#2A2B37"/>
<path d="M73.329 155.599H71.8525V157.076H73.329V155.599Z" fill="#2A2B37"/>
<path d="M73.329 158.074H71.8525V159.551H73.329V158.074Z" fill="#2A2B37"/>
<path d="M73.329 160.549H71.8525V162.026H73.329V160.549Z" fill="#2A2B37"/>
<path d="M73.329 163.024H71.8525V164.501H73.329V163.024Z" fill="#2A2B37"/>
<path d="M73.329 170.45H71.8525V171.926H73.329V170.45Z" fill="#2A2B37"/>
<path d="M73.329 172.925H71.8525V174.401H73.329V172.925Z" fill="#2A2B37"/>
<path d="M73.329 175.4H71.8525V176.876H73.329V175.4Z" fill="#2A2B37"/>
<path d="M48.7518 120.948H47.2754V122.425H48.7518V120.948Z" fill="#2A2B37"/>
<path d="M48.7518 123.423H47.2754V124.9H48.7518V123.423Z" fill="#2A2B37"/>
<path d="M48.7518 125.898H47.2754V127.375H48.7518V125.898Z" fill="#2A2B37"/>
<path d="M48.7518 128.374H47.2754V129.85H48.7518V128.374Z" fill="#2A2B37"/>
<path d="M48.7518 130.849H47.2754V132.325H48.7518V130.849Z" fill="#2A2B37"/>
<path d="M48.7518 133.324H47.2754V134.8H48.7518V133.324Z" fill="#2A2B37"/>
<path d="M48.7518 135.799H47.2754V137.275H48.7518V135.799Z" fill="#2A2B37"/>
<path d="M48.7518 138.274H47.2754V139.75H48.7518V138.274Z" fill="#2A2B37"/>
<path d="M48.7518 140.749H47.2754V142.225H48.7518V140.749Z" fill="#2A2B37"/>
<path d="M48.7518 143.224H47.2754V144.7H48.7518V143.224Z" fill="#2A2B37"/>
<path d="M48.7518 145.699H47.2754V147.176H48.7518V145.699Z" fill="#2A2B37"/>
<path d="M48.7518 148.174H47.2754V149.651H48.7518V148.174Z" fill="#2A2B37"/>
<path d="M48.7518 150.649H47.2754V152.126H48.7518V150.649Z" fill="#2A2B37"/>
<path d="M48.7518 153.124H47.2754V154.601H48.7518V153.124Z" fill="#2A2B37"/>
<path d="M48.7518 155.599H47.2754V157.076H48.7518V155.599Z" fill="#2A2B37"/>
<path d="M48.7518 158.074H47.2754V159.551H48.7518V158.074Z" fill="#2A2B37"/>
<path d="M48.7518 160.549H47.2754V162.026H48.7518V160.549Z" fill="#2A2B37"/>
<path d="M48.7518 163.024H47.2754V164.501H48.7518V163.024Z" fill="#2A2B37"/>
<path d="M48.7518 165.499H47.2754V166.976H48.7518V165.499Z" fill="#2A2B37"/>
<path d="M48.7518 167.974H47.2754V169.451H48.7518V167.974Z" fill="#2A2B37"/>
<path d="M48.7518 170.45H47.2754V171.926H48.7518V170.45Z" fill="#2A2B37"/>
<path d="M48.7518 172.925H47.2754V174.401H48.7518V172.925Z" fill="#2A2B37"/>
<path d="M48.7518 175.4H47.2754V176.876H48.7518V175.4Z" fill="#2A2B37"/>
<path d="M46.4071 120.948H44.9307V122.425H46.4071V120.948Z" fill="#2A2B37"/>
<path d="M46.4071 123.423H44.9307V124.9H46.4071V123.423Z" fill="#2A2B37"/>
<path d="M46.4071 125.898H44.9307V127.375H46.4071V125.898Z" fill="#2A2B37"/>
<path d="M46.4071 128.374H44.9307V129.85H46.4071V128.374Z" fill="#2A2B37"/>
<path d="M46.4071 130.849H44.9307V132.325H46.4071V130.849Z" fill="#2A2B37"/>
<path d="M46.4071 133.324H44.9307V134.8H46.4071V133.324Z" fill="#2A2B37"/>
<path d="M46.4071 135.799H44.9307V137.275H46.4071V135.799Z" fill="#2A2B37"/>
<path d="M46.4071 138.274H44.9307V139.75H46.4071V138.274Z" fill="#2A2B37"/>
<path d="M46.4071 140.749H44.9307V142.225H46.4071V140.749Z" fill="#2A2B37"/>
<path d="M46.4071 143.224H44.9307V144.7H46.4071V143.224Z" fill="#2A2B37"/>
<path d="M46.4071 145.699H44.9307V147.176H46.4071V145.699Z" fill="#2A2B37"/>
<path d="M46.4071 148.174H44.9307V149.651H46.4071V148.174Z" fill="#2A2B37"/>
<path d="M46.4071 150.649H44.9307V152.126H46.4071V150.649Z" fill="#2A2B37"/>
<path d="M46.4071 153.124H44.9307V154.601H46.4071V153.124Z" fill="#2A2B37"/>
<path d="M46.4071 155.599H44.9307V157.076H46.4071V155.599Z" fill="#2A2B37"/>
<path d="M46.4071 158.074H44.9307V159.551H46.4071V158.074Z" fill="#2A2B37"/>
<path d="M46.4071 160.549H44.9307V162.026H46.4071V160.549Z" fill="#2A2B37"/>
<path d="M46.4071 163.024H44.9307V164.501H46.4071V163.024Z" fill="#2A2B37"/>
<path d="M46.4071 165.499H44.9307V166.976H46.4071V165.499Z" fill="#2A2B37"/>
<path d="M44.0624 120.948H42.5859V122.425H44.0624V120.948Z" fill="#2A2B37"/>
<path d="M44.0624 123.423H42.5859V124.9H44.0624V123.423Z" fill="#2A2B37"/>
<path d="M44.0624 125.898H42.5859V127.375H44.0624V125.898Z" fill="#2A2B37"/>
<path d="M44.0624 128.374H42.5859V129.85H44.0624V128.374Z" fill="#2A2B37"/>
<path d="M44.0624 130.849H42.5859V132.325H44.0624V130.849Z" fill="#2A2B37"/>
<path d="M44.0624 133.324H42.5859V134.8H44.0624V133.324Z" fill="#2A2B37"/>
<path d="M44.0624 135.799H42.5859V137.275H44.0624V135.799Z" fill="#2A2B37"/>
<path d="M44.0624 138.274H42.5859V139.75H44.0624V138.274Z" fill="#2A2B37"/>
<path d="M44.0624 140.749H42.5859V142.225H44.0624V140.749Z" fill="#2A2B37"/>
<path d="M44.0624 143.224H42.5859V144.7H44.0624V143.224Z" fill="#2A2B37"/>
<path d="M44.0624 145.699H42.5859V147.176H44.0624V145.699Z" fill="#2A2B37"/>
<path d="M44.0624 148.174H42.5859V149.651H44.0624V148.174Z" fill="#2A2B37"/>
<path d="M44.0624 150.649H42.5859V152.126H44.0624V150.649Z" fill="#2A2B37"/>
<path d="M44.0624 153.124H42.5859V154.601H44.0624V153.124Z" fill="#2A2B37"/>
<path d="M44.0624 155.599H42.5859V157.076H44.0624V155.599Z" fill="#2A2B37"/>
<path d="M44.0624 158.074H42.5859V159.551H44.0624V158.074Z" fill="#2A2B37"/>
<path d="M44.0624 160.549H42.5859V162.026H44.0624V160.549Z" fill="#2A2B37"/>
<path d="M44.0624 163.024H42.5859V164.501H44.0624V163.024Z" fill="#2A2B37"/>
<path d="M44.0624 165.499H42.5859V166.976H44.0624V165.499Z" fill="#2A2B37"/>
<path d="M41.7177 120.948H40.2412V122.425H41.7177V120.948Z" fill="#2A2B37"/>
<path d="M41.7177 123.423H40.2412V124.9H41.7177V123.423Z" fill="#2A2B37"/>
<path d="M41.7177 125.898H40.2412V127.375H41.7177V125.898Z" fill="#2A2B37"/>
<path d="M41.7177 128.374H40.2412V129.85H41.7177V128.374Z" fill="#2A2B37"/>
<path d="M41.7177 130.849H40.2412V132.325H41.7177V130.849Z" fill="#2A2B37"/>
<path d="M41.7177 133.324H40.2412V134.8H41.7177V133.324Z" fill="#2A2B37"/>
<path d="M41.7177 135.799H40.2412V137.275H41.7177V135.799Z" fill="#2A2B37"/>
<path d="M41.7177 138.274H40.2412V139.75H41.7177V138.274Z" fill="#2A2B37"/>
<path d="M41.7177 140.749H40.2412V142.225H41.7177V140.749Z" fill="#2A2B37"/>
<path d="M41.7177 143.224H40.2412V144.7H41.7177V143.224Z" fill="#2A2B37"/>
<path d="M41.7177 145.699H40.2412V147.176H41.7177V145.699Z" fill="#2A2B37"/>
<path d="M41.7177 148.174H40.2412V149.651H41.7177V148.174Z" fill="#2A2B37"/>
<path d="M41.7177 150.649H40.2412V152.126H41.7177V150.649Z" fill="#2A2B37"/>
<path d="M41.7177 153.124H40.2412V154.601H41.7177V153.124Z" fill="#2A2B37"/>
<path d="M41.7177 155.599H40.2412V157.076H41.7177V155.599Z" fill="#2A2B37"/>
<path d="M39.372 120.948H37.8955V122.425H39.372V120.948Z" fill="#2A2B37"/>
<path d="M39.372 123.423H37.8955V124.9H39.372V123.423Z" fill="#2A2B37"/>
<path d="M39.372 125.898H37.8955V127.375H39.372V125.898Z" fill="#2A2B37"/>
<path d="M39.372 128.374H37.8955V129.85H39.372V128.374Z" fill="#2A2B37"/>
<path d="M39.372 130.849H37.8955V132.325H39.372V130.849Z" fill="#2A2B37"/>
<path d="M39.372 133.324H37.8955V134.8H39.372V133.324Z" fill="#2A2B37"/>
<path d="M39.372 135.799H37.8955V137.275H39.372V135.799Z" fill="#2A2B37"/>
<path d="M39.372 138.274H37.8955V139.75H39.372V138.274Z" fill="#2A2B37"/>
<path d="M39.372 140.749H37.8955V142.225H39.372V140.749Z" fill="#2A2B37"/>
<path d="M39.372 143.224H37.8955V144.7H39.372V143.224Z" fill="#2A2B37"/>
<path d="M39.372 145.699H37.8955V147.176H39.372V145.699Z" fill="#2A2B37"/>
<path d="M39.372 148.174H37.8955V149.651H39.372V148.174Z" fill="#2A2B37"/>
<path d="M39.372 150.649H37.8955V152.126H39.372V150.649Z" fill="#2A2B37"/>
<path d="M37.0272 120.948H35.5508V122.425H37.0272V120.948Z" fill="#2A2B37"/>
<path d="M37.0272 123.423H35.5508V124.9H37.0272V123.423Z" fill="#2A2B37"/>
<path d="M37.0272 125.898H35.5508V127.375H37.0272V125.898Z" fill="#2A2B37"/>
<path d="M37.0272 128.374H35.5508V129.85H37.0272V128.374Z" fill="#2A2B37"/>
<path d="M37.0272 130.849H35.5508V132.325H37.0272V130.849Z" fill="#2A2B37"/>
<path d="M37.0272 133.324H35.5508V134.8H37.0272V133.324Z" fill="#2A2B37"/>
<path d="M37.0272 135.799H35.5508V137.275H37.0272V135.799Z" fill="#2A2B37"/>
<path d="M37.0272 138.274H35.5508V139.75H37.0272V138.274Z" fill="#2A2B37"/>
<path d="M37.0272 140.749H35.5508V142.225H37.0272V140.749Z" fill="#2A2B37"/>
<path d="M37.0272 143.224H35.5508V144.7H37.0272V143.224Z" fill="#2A2B37"/>
<path d="M37.0272 145.699H35.5508V147.176H37.0272V145.699Z" fill="#2A2B37"/>
<path d="M37.0272 148.174H35.5508V149.651H37.0272V148.174Z" fill="#2A2B37"/>
<path d="M209.327 139.012H207.851V140.488H209.327V139.012Z" fill="#2A2B37"/>
<path d="M209.327 141.487H207.851V142.964H209.327V141.487Z" fill="#2A2B37"/>
<path d="M209.327 143.962H207.851V145.439H209.327V143.962Z" fill="#2A2B37"/>
<path d="M209.327 146.437H207.851V147.914H209.327V146.437Z" fill="#2A2B37"/>
<path d="M209.327 148.912H207.851V150.389H209.327V148.912Z" fill="#2A2B37"/>
<path d="M209.327 151.387H207.851V152.864H209.327V151.387Z" fill="#2A2B37"/>
<path d="M209.327 153.862H207.851V155.339H209.327V153.862Z" fill="#2A2B37"/>
<path d="M209.327 156.337H207.851V157.814H209.327V156.337Z" fill="#2A2B37"/>
<path d="M209.327 158.812H207.851V160.289H209.327V158.812Z" fill="#2A2B37"/>
<path d="M209.327 161.287H207.851V162.764H209.327V161.287Z" fill="#2A2B37"/>
<path d="M209.327 163.762H207.851V165.239H209.327V163.762Z" fill="#2A2B37"/>
<path d="M209.327 166.237H207.851V167.714H209.327V166.237Z" fill="#2A2B37"/>
<path d="M209.327 168.713H207.851V170.189H209.327V168.713Z" fill="#2A2B37"/>
<path d="M209.327 171.188H207.851V172.664H209.327V171.188Z" fill="#2A2B37"/>
<path d="M209.327 173.663H207.851V175.139H209.327V173.663Z" fill="#2A2B37"/>
<path d="M209.327 176.138H207.851V177.615H209.327V176.138Z" fill="#2A2B37"/>
<path d="M209.327 178.613H207.851V180.09H209.327V178.613Z" fill="#2A2B37"/>
<path d="M209.327 181.088H207.851V182.565H209.327V181.088Z" fill="#2A2B37"/>
<path d="M209.327 183.563H207.851V185.04H209.327V183.563Z" fill="#2A2B37"/>
<path d="M209.327 186.038H207.851V187.515H209.327V186.038Z" fill="#2A2B37"/>
<path d="M206.982 139.012H205.506V140.488H206.982V139.012Z" fill="#2A2B37"/>
<path d="M206.982 141.487H205.506V142.964H206.982V141.487Z" fill="#2A2B37"/>
<path d="M206.982 143.962H205.506V145.439H206.982V143.962Z" fill="#2A2B37"/>
<path d="M206.982 146.437H205.506V147.914H206.982V146.437Z" fill="#2A2B37"/>
<path d="M206.982 148.912H205.506V150.389H206.982V148.912Z" fill="#2A2B37"/>
<path d="M206.982 151.387H205.506V152.864H206.982V151.387Z" fill="#2A2B37"/>
<path d="M206.982 153.862H205.506V155.339H206.982V153.862Z" fill="#2A2B37"/>
<path d="M206.982 156.337H205.506V157.814H206.982V156.337Z" fill="#2A2B37"/>
<path d="M206.982 158.812H205.506V160.289H206.982V158.812Z" fill="#2A2B37"/>
<path d="M206.982 161.287H205.506V162.764H206.982V161.287Z" fill="#2A2B37"/>
<path d="M206.982 163.762H205.506V165.239H206.982V163.762Z" fill="#2A2B37"/>
<path d="M206.982 166.237H205.506V167.714H206.982V166.237Z" fill="#2A2B37"/>
<path d="M206.982 168.713H205.506V170.189H206.982V168.713Z" fill="#2A2B37"/>
<path d="M206.982 171.188H205.506V172.664H206.982V171.188Z" fill="#2A2B37"/>
<path d="M206.982 173.663H205.506V175.139H206.982V173.663Z" fill="#2A2B37"/>
<path d="M206.982 176.138H205.506V177.615H206.982V176.138Z" fill="#2A2B37"/>
<path d="M206.982 178.613H205.506V180.09H206.982V178.613Z" fill="#2A2B37"/>
<path d="M206.982 181.088H205.506V182.565H206.982V181.088Z" fill="#2A2B37"/>
<path d="M204.638 139.012H203.161V140.488H204.638V139.012Z" fill="#2A2B37"/>
<path d="M204.638 141.487H203.161V142.964H204.638V141.487Z" fill="#2A2B37"/>
<path d="M204.638 143.962H203.161V145.439H204.638V143.962Z" fill="#2A2B37"/>
<path d="M204.638 146.437H203.161V147.914H204.638V146.437Z" fill="#2A2B37"/>
<path d="M204.638 148.912H203.161V150.389H204.638V148.912Z" fill="#2A2B37"/>
<path d="M204.638 151.387H203.161V152.864H204.638V151.387Z" fill="#2A2B37"/>
<path d="M204.638 153.862H203.161V155.339H204.638V153.862Z" fill="#2A2B37"/>
<path d="M204.638 156.337H203.161V157.814H204.638V156.337Z" fill="#2A2B37"/>
<path d="M204.638 158.812H203.161V160.289H204.638V158.812Z" fill="#2A2B37"/>
<path d="M204.638 161.287H203.161V162.764H204.638V161.287Z" fill="#2A2B37"/>
<path d="M204.638 163.762H203.161V165.239H204.638V163.762Z" fill="#2A2B37"/>
<path d="M204.638 166.237H203.161V167.714H204.638V166.237Z" fill="#2A2B37"/>
<path d="M204.638 168.713H203.161V170.189H204.638V168.713Z" fill="#2A2B37"/>
<path d="M204.638 171.188H203.161V172.664H204.638V171.188Z" fill="#2A2B37"/>
<path d="M204.638 173.663H203.161V175.139H204.638V173.663Z" fill="#2A2B37"/>
<path d="M204.638 176.138H203.161V177.615H204.638V176.138Z" fill="#2A2B37"/>
<path d="M204.638 178.613H203.161V180.09H204.638V178.613Z" fill="#2A2B37"/>
<path d="M204.638 181.088H203.161V182.565H204.638V181.088Z" fill="#2A2B37"/>
<path d="M218.099 157.075H216.622V158.552H218.099V157.075Z" fill="#2A2B37"/>
<path d="M218.099 159.551H216.622V161.027H218.099V159.551Z" fill="#2A2B37"/>
<path d="M218.099 162.026H216.622V163.502H218.099V162.026Z" fill="#2A2B37"/>
<path d="M218.099 164.501H216.622V165.977H218.099V164.501Z" fill="#2A2B37"/>
<path d="M218.099 166.976H216.622V168.452H218.099V166.976Z" fill="#2A2B37"/>
<path d="M218.099 169.451H216.622V170.927H218.099V169.451Z" fill="#2A2B37"/>
<path d="M218.099 171.926H216.622V173.402H218.099V171.926Z" fill="#2A2B37"/>
<path d="M218.099 174.401H216.622V175.877H218.099V174.401Z" fill="#2A2B37"/>
<path d="M218.099 176.876H216.622V178.352H218.099V176.876Z" fill="#2A2B37"/>
<path d="M218.099 179.351H216.622V180.828H218.099V179.351Z" fill="#2A2B37"/>
<path d="M218.099 181.826H216.622V183.303H218.099V181.826Z" fill="#2A2B37"/>
<path d="M218.099 184.301H216.622V185.778H218.099V184.301Z" fill="#2A2B37"/>
<path d="M218.099 186.776H216.622V188.253H218.099V186.776Z" fill="#2A2B37"/>
<path d="M215.754 157.075H214.277V158.552H215.754V157.075Z" fill="#2A2B37"/>
<path d="M215.754 159.551H214.277V161.027H215.754V159.551Z" fill="#2A2B37"/>
<path d="M215.754 162.026H214.277V163.502H215.754V162.026Z" fill="#2A2B37"/>
<path d="M215.754 164.501H214.277V165.977H215.754V164.501Z" fill="#2A2B37"/>
<path d="M215.754 166.976H214.277V168.452H215.754V166.976Z" fill="#2A2B37"/>
<path d="M215.754 169.451H214.277V170.927H215.754V169.451Z" fill="#2A2B37"/>
<path d="M215.754 171.926H214.277V173.402H215.754V171.926Z" fill="#2A2B37"/>
<path d="M215.754 174.401H214.277V175.877H215.754V174.401Z" fill="#2A2B37"/>
<path d="M215.754 176.876H214.277V178.352H215.754V176.876Z" fill="#2A2B37"/>
<path d="M215.754 179.351H214.277V180.828H215.754V179.351Z" fill="#2A2B37"/>
<path d="M215.754 181.826H214.277V183.303H215.754V181.826Z" fill="#2A2B37"/>
<path d="M215.754 184.301H214.277V185.778H215.754V184.301Z" fill="#2A2B37"/>
<path d="M215.754 186.776H214.277V188.253H215.754V186.776Z" fill="#2A2B37"/>
<path d="M213.409 157.075H211.933V158.552H213.409V157.075Z" fill="#2A2B37"/>
<path d="M213.409 159.551H211.933V161.027H213.409V159.551Z" fill="#2A2B37"/>
<path d="M213.409 162.026H211.933V163.502H213.409V162.026Z" fill="#2A2B37"/>
<path d="M213.409 164.501H211.933V165.977H213.409V164.501Z" fill="#2A2B37"/>
<path d="M213.409 166.976H211.933V168.452H213.409V166.976Z" fill="#2A2B37"/>
<path d="M213.409 169.451H211.933V170.927H213.409V169.451Z" fill="#2A2B37"/>
<path d="M213.409 171.926H211.933V173.402H213.409V171.926Z" fill="#2A2B37"/>
<path d="M213.409 174.401H211.933V175.877H213.409V174.401Z" fill="#2A2B37"/>
<path d="M213.409 176.876H211.933V178.352H213.409V176.876Z" fill="#2A2B37"/>
<path d="M213.409 179.351H211.933V180.828H213.409V179.351Z" fill="#2A2B37"/>
<path d="M213.409 181.826H211.933V183.303H213.409V181.826Z" fill="#2A2B37"/>
<path d="M213.409 184.301H211.933V185.778H213.409V184.301Z" fill="#2A2B37"/>
<path d="M213.409 186.776H211.933V188.253H213.409V186.776Z" fill="#2A2B37"/>
<path d="M213.409 189.252H211.933V190.728H213.409V189.252Z" fill="#2A2B37"/>
<path d="M200.383 157.814H198.906V159.29H200.383V157.814Z" fill="#2A2B37"/>
<path d="M200.383 160.289H198.906V161.765H200.383V160.289Z" fill="#2A2B37"/>
<path d="M200.383 162.764H198.906V164.24H200.383V162.764Z" fill="#2A2B37"/>
<path d="M200.383 165.239H198.906V166.715H200.383V165.239Z" fill="#2A2B37"/>
<path d="M200.383 167.714H198.906V169.19H200.383V167.714Z" fill="#2A2B37"/>
<path d="M200.383 170.189H198.906V171.665H200.383V170.189Z" fill="#2A2B37"/>
<path d="M200.383 172.664H198.906V174.14H200.383V172.664Z" fill="#2A2B37"/>
<path d="M200.383 175.139H198.906V176.615H200.383V175.139Z" fill="#2A2B37"/>
<path d="M200.383 177.614H198.906V179.09H200.383V177.614Z" fill="#2A2B37"/>
<path d="M200.383 180.09H198.906V181.566H200.383V180.09Z" fill="#2A2B37"/>
<path d="M200.383 187.515H198.906V188.991H200.383V187.515Z" fill="#2A2B37"/>
<path d="M198.037 157.814H196.561V159.29H198.037V157.814Z" fill="#2A2B37"/>
<path d="M198.037 160.289H196.561V161.765H198.037V160.289Z" fill="#2A2B37"/>
<path d="M198.037 162.764H196.561V164.24H198.037V162.764Z" fill="#2A2B37"/>
<path d="M198.037 165.239H196.561V166.715H198.037V165.239Z" fill="#2A2B37"/>
<path d="M198.037 167.714H196.561V169.19H198.037V167.714Z" fill="#2A2B37"/>
<path d="M198.037 170.189H196.561V171.665H198.037V170.189Z" fill="#2A2B37"/>
<path d="M198.037 172.664H196.561V174.14H198.037V172.664Z" fill="#2A2B37"/>
<path d="M198.037 175.139H196.561V176.615H198.037V175.139Z" fill="#2A2B37"/>
<path d="M198.037 177.614H196.561V179.09H198.037V177.614Z" fill="#2A2B37"/>
<path d="M198.037 185.04H196.561V186.516H198.037V185.04Z" fill="#2A2B37"/>
<path d="M198.037 187.515H196.561V188.991H198.037V187.515Z" fill="#2A2B37"/>
<path d="M195.692 157.814H194.216V159.29H195.692V157.814Z" fill="#2A2B37"/>
<path d="M195.692 160.289H194.216V161.765H195.692V160.289Z" fill="#2A2B37"/>
<path d="M195.692 162.764H194.216V164.24H195.692V162.764Z" fill="#2A2B37"/>
<path d="M195.692 165.239H194.216V166.715H195.692V165.239Z" fill="#2A2B37"/>
<path d="M195.692 167.714H194.216V169.19H195.692V167.714Z" fill="#2A2B37"/>
<path d="M195.692 170.189H194.216V171.665H195.692V170.189Z" fill="#2A2B37"/>
<path d="M195.692 172.664H194.216V174.14H195.692V172.664Z" fill="#2A2B37"/>
<path d="M195.692 175.139H194.216V176.615H195.692V175.139Z" fill="#2A2B37"/>
<path d="M195.692 182.565H194.216V184.041H195.692V182.565Z" fill="#2A2B37"/>
<path d="M195.692 185.04H194.216V186.516H195.692V185.04Z" fill="#2A2B37"/>
<path d="M195.692 187.515H194.216V188.991H195.692V187.515Z" fill="#2A2B37"/>
<path d="M173.894 120.21H172.418V121.686H173.894V120.21Z" fill="#2A2B37"/>
<path d="M173.894 122.685H172.418V124.161H173.894V122.685Z" fill="#2A2B37"/>
<path d="M173.894 125.16H172.418V126.636H173.894V125.16Z" fill="#2A2B37"/>
<path d="M173.894 127.636H172.418V129.112H173.894V127.636Z" fill="#2A2B37"/>
<path d="M173.894 130.11H172.418V131.586H173.894V130.11Z" fill="#2A2B37"/>
<path d="M173.894 132.585H172.418V134.062H173.894V132.585Z" fill="#2A2B37"/>
<path d="M173.894 135.06H172.418V136.537H173.894V135.06Z" fill="#2A2B37"/>
<path d="M173.894 137.536H172.418V139.012H173.894V137.536Z" fill="#2A2B37"/>
<path d="M173.894 140.011H172.418V141.487H173.894V140.011Z" fill="#2A2B37"/>
<path d="M173.894 142.486H172.418V143.962H173.894V142.486Z" fill="#2A2B37"/>
<path d="M173.894 144.961H172.418V146.437H173.894V144.961Z" fill="#2A2B37"/>
<path d="M173.894 147.436H172.418V148.912H173.894V147.436Z" fill="#2A2B37"/>
<path d="M173.894 149.911H172.418V151.387H173.894V149.911Z" fill="#2A2B37"/>
<path d="M173.894 152.386H172.418V153.862H173.894V152.386Z" fill="#2A2B37"/>
<path d="M173.894 154.861H172.418V156.337H173.894V154.861Z" fill="#2A2B37"/>
<path d="M173.894 157.336H172.418V158.812H173.894V157.336Z" fill="#2A2B37"/>
<path d="M173.894 159.811H172.418V161.287H173.894V159.811Z" fill="#2A2B37"/>
<path d="M173.894 164.761H172.418V166.238H173.894V164.761Z" fill="#2A2B37"/>
<path d="M173.894 167.237H172.418V168.713H173.894V167.237Z" fill="#2A2B37"/>
<path d="M173.894 169.712H172.418V171.188H173.894V169.712Z" fill="#2A2B37"/>
<path d="M173.894 172.187H172.418V173.663H173.894V172.187Z" fill="#2A2B37"/>
<path d="M173.894 174.662H172.418V176.138H173.894V174.662Z" fill="#2A2B37"/>
<path d="M171.55 120.21H170.073V121.686H171.55V120.21Z" fill="#2A2B37"/>
<path d="M171.55 122.685H170.073V124.161H171.55V122.685Z" fill="#2A2B37"/>
<path d="M171.55 125.16H170.073V126.636H171.55V125.16Z" fill="#2A2B37"/>
<path d="M171.55 127.636H170.073V129.112H171.55V127.636Z" fill="#2A2B37"/>
<path d="M171.55 130.11H170.073V131.586H171.55V130.11Z" fill="#2A2B37"/>
<path d="M171.55 132.585H170.073V134.062H171.55V132.585Z" fill="#2A2B37"/>
<path d="M171.55 135.06H170.073V136.537H171.55V135.06Z" fill="#2A2B37"/>
<path d="M171.55 137.536H170.073V139.012H171.55V137.536Z" fill="#2A2B37"/>
<path d="M171.55 140.011H170.073V141.487H171.55V140.011Z" fill="#2A2B37"/>
<path d="M171.55 142.486H170.073V143.962H171.55V142.486Z" fill="#2A2B37"/>
<path d="M171.55 144.961H170.073V146.437H171.55V144.961Z" fill="#2A2B37"/>
<path d="M171.55 147.436H170.073V148.912H171.55V147.436Z" fill="#2A2B37"/>
<path d="M171.55 149.911H170.073V151.387H171.55V149.911Z" fill="#2A2B37"/>
<path d="M171.55 152.386H170.073V153.862H171.55V152.386Z" fill="#2A2B37"/>
<path d="M171.55 154.861H170.073V156.337H171.55V154.861Z" fill="#2A2B37"/>
<path d="M171.55 157.336H170.073V158.812H171.55V157.336Z" fill="#2A2B37"/>
<path d="M171.55 172.187H170.073V173.663H171.55V172.187Z" fill="#2A2B37"/>
<path d="M171.55 174.662H170.073V176.138H171.55V174.662Z" fill="#2A2B37"/>
<path d="M169.205 120.21H167.729V121.686H169.205V120.21Z" fill="#2A2B37"/>
<path d="M169.205 122.685H167.729V124.161H169.205V122.685Z" fill="#2A2B37"/>
<path d="M169.205 125.16H167.729V126.636H169.205V125.16Z" fill="#2A2B37"/>
<path d="M169.205 127.636H167.729V129.112H169.205V127.636Z" fill="#2A2B37"/>
<path d="M169.205 130.11H167.729V131.586H169.205V130.11Z" fill="#2A2B37"/>
<path d="M169.205 132.585H167.729V134.062H169.205V132.585Z" fill="#2A2B37"/>
<path d="M169.205 135.06H167.729V136.537H169.205V135.06Z" fill="#2A2B37"/>
<path d="M169.205 137.536H167.729V139.012H169.205V137.536Z" fill="#2A2B37"/>
<path d="M169.205 140.011H167.729V141.487H169.205V140.011Z" fill="#2A2B37"/>
<path d="M169.205 142.486H167.729V143.962H169.205V142.486Z" fill="#2A2B37"/>
<path d="M169.205 144.961H167.729V146.437H169.205V144.961Z" fill="#2A2B37"/>
<path d="M169.205 147.436H167.729V148.912H169.205V147.436Z" fill="#2A2B37"/>
<path d="M169.205 149.911H167.729V151.387H169.205V149.911Z" fill="#2A2B37"/>
<path d="M169.205 152.386H167.729V153.862H169.205V152.386Z" fill="#2A2B37"/>
<path d="M169.205 154.861H167.729V156.337H169.205V154.861Z" fill="#2A2B37"/>
<path d="M169.205 157.336H167.729V158.812H169.205V157.336Z" fill="#2A2B37"/>
<path d="M169.205 162.286H167.729V163.763H169.205V162.286Z" fill="#2A2B37"/>
<path d="M169.205 164.761H167.729V166.238H169.205V164.761Z" fill="#2A2B37"/>
<path d="M169.205 167.237H167.729V168.713H169.205V167.237Z" fill="#2A2B37"/>
<path d="M169.205 169.712H167.729V171.188H169.205V169.712Z" fill="#2A2B37"/>
<path d="M169.205 174.662H167.729V176.138H169.205V174.662Z" fill="#2A2B37"/>
<path d="M182.405 151.387H180.929V152.864H182.405V151.387Z" fill="#2A2B37"/>
<path d="M182.405 153.862H180.929V155.339H182.405V153.862Z" fill="#2A2B37"/>
<path d="M182.405 156.337H180.929V157.814H182.405V156.337Z" fill="#2A2B37"/>
<path d="M182.405 158.812H180.929V160.289H182.405V158.812Z" fill="#2A2B37"/>
<path d="M182.405 161.287H180.929V162.764H182.405V161.287Z" fill="#2A2B37"/>
<path d="M182.405 163.762H180.929V165.239H182.405V163.762Z" fill="#2A2B37"/>
<path d="M182.405 166.237H180.929V167.714H182.405V166.237Z" fill="#2A2B37"/>
<path d="M182.405 171.188H180.929V172.664H182.405V171.188Z" fill="#2A2B37"/>
<path d="M182.405 173.663H180.929V175.139H182.405V173.663Z" fill="#2A2B37"/>
<path d="M182.405 176.138H180.929V177.615H182.405V176.138Z" fill="#2A2B37"/>
<path d="M182.405 178.613H180.929V180.09H182.405V178.613Z" fill="#2A2B37"/>
<path d="M182.405 181.088H180.929V182.565H182.405V181.088Z" fill="#2A2B37"/>
<path d="M182.405 183.563H180.929V185.04H182.405V183.563Z" fill="#2A2B37"/>
<path d="M182.405 186.038H180.929V187.515H182.405V186.038Z" fill="#2A2B37"/>
<path d="M182.405 188.513H180.929V189.99H182.405V188.513Z" fill="#2A2B37"/>
<path d="M180.06 151.387H178.584V152.864H180.06V151.387Z" fill="#2A2B37"/>
<path d="M180.06 153.862H178.584V155.339H180.06V153.862Z" fill="#2A2B37"/>
<path d="M180.06 156.337H178.584V157.814H180.06V156.337Z" fill="#2A2B37"/>
<path d="M180.06 158.812H178.584V160.289H180.06V158.812Z" fill="#2A2B37"/>
<path d="M180.06 161.287H178.584V162.764H180.06V161.287Z" fill="#2A2B37"/>
<path d="M180.06 163.762H178.584V165.239H180.06V163.762Z" fill="#2A2B37"/>
<path d="M180.06 171.188H178.584V172.664H180.06V171.188Z" fill="#2A2B37"/>
<path d="M180.06 173.663H178.584V175.139H180.06V173.663Z" fill="#2A2B37"/>
<path d="M180.06 176.138H178.584V177.615H180.06V176.138Z" fill="#2A2B37"/>
<path d="M180.06 178.613H178.584V180.09H180.06V178.613Z" fill="#2A2B37"/>
<path d="M180.06 181.088H178.584V182.565H180.06V181.088Z" fill="#2A2B37"/>
<path d="M180.06 183.563H178.584V185.04H180.06V183.563Z" fill="#2A2B37"/>
<path d="M180.06 186.038H178.584V187.515H180.06V186.038Z" fill="#2A2B37"/>
<path d="M180.06 188.513H178.584V189.99H180.06V188.513Z" fill="#2A2B37"/>
<path d="M177.716 151.387H176.239V152.864H177.716V151.387Z" fill="#2A2B37"/>
<path d="M177.716 153.862H176.239V155.339H177.716V153.862Z" fill="#2A2B37"/>
<path d="M177.716 156.337H176.239V157.814H177.716V156.337Z" fill="#2A2B37"/>
<path d="M177.716 158.812H176.239V160.289H177.716V158.812Z" fill="#2A2B37"/>
<path d="M177.716 161.287H176.239V162.764H177.716V161.287Z" fill="#2A2B37"/>
<path d="M177.716 163.762H176.239V165.239H177.716V163.762Z" fill="#2A2B37"/>
<path d="M177.716 168.713H176.239V170.189H177.716V168.713Z" fill="#2A2B37"/>
<path d="M177.716 171.188H176.239V172.664H177.716V171.188Z" fill="#2A2B37"/>
<path d="M177.716 173.663H176.239V175.139H177.716V173.663Z" fill="#2A2B37"/>
<path d="M177.716 176.138H176.239V177.615H177.716V176.138Z" fill="#2A2B37"/>
<path d="M177.716 178.613H176.239V180.09H177.716V178.613Z" fill="#2A2B37"/>
<path d="M177.716 181.088H176.239V182.565H177.716V181.088Z" fill="#2A2B37"/>
<path d="M177.716 183.563H176.239V185.04H177.716V183.563Z" fill="#2A2B37"/>
<path d="M177.716 186.038H176.239V187.515H177.716V186.038Z" fill="#2A2B37"/>
<path d="M177.716 188.513H176.239V189.99H177.716V188.513Z" fill="#2A2B37"/>
<path d="M128.301 137.536H126.824V139.012H128.301V137.536Z" fill="#2A2B37"/>
<path d="M128.301 140.011H126.824V141.487H128.301V140.011Z" fill="#2A2B37"/>
<path d="M128.301 142.486H126.824V143.962H128.301V142.486Z" fill="#2A2B37"/>
<path d="M128.301 144.961H126.824V146.437H128.301V144.961Z" fill="#2A2B37"/>
<path d="M128.301 147.436H126.824V148.912H128.301V147.436Z" fill="#2A2B37"/>
<path d="M128.301 149.911H126.824V151.387H128.301V149.911Z" fill="#2A2B37"/>
<path d="M128.301 152.386H126.824V153.862H128.301V152.386Z" fill="#2A2B37"/>
<path d="M128.301 154.861H126.824V156.337H128.301V154.861Z" fill="#2A2B37"/>
<path d="M128.301 157.336H126.824V158.812H128.301V157.336Z" fill="#2A2B37"/>
<path d="M128.301 159.811H126.824V161.287H128.301V159.811Z" fill="#2A2B37"/>
<path d="M128.301 162.286H126.824V163.763H128.301V162.286Z" fill="#2A2B37"/>
<path d="M128.301 164.761H126.824V166.238H128.301V164.761Z" fill="#2A2B37"/>
<path d="M128.301 167.237H126.824V168.713H128.301V167.237Z" fill="#2A2B37"/>
<path d="M128.301 172.187H126.824V173.663H128.301V172.187Z" fill="#2A2B37"/>
<path d="M128.301 174.662H126.824V176.138H128.301V174.662Z" fill="#2A2B37"/>
<path d="M128.301 177.137H126.824V178.613H128.301V177.137Z" fill="#2A2B37"/>
<path d="M128.301 179.612H126.824V181.088H128.301V179.612Z" fill="#2A2B37"/>
<path d="M128.301 184.562H126.824V186.038H128.301V184.562Z" fill="#2A2B37"/>
<path d="M128.301 187.037H126.824V188.513H128.301V187.037Z" fill="#2A2B37"/>
<path d="M128.301 189.512H126.824V190.989H128.301V189.512Z" fill="#2A2B37"/>
<path d="M125.957 137.536H124.48V139.012H125.957V137.536Z" fill="#2A2B37"/>
<path d="M125.957 140.011H124.48V141.487H125.957V140.011Z" fill="#2A2B37"/>
<path d="M125.957 142.486H124.48V143.962H125.957V142.486Z" fill="#2A2B37"/>
<path d="M125.957 144.961H124.48V146.437H125.957V144.961Z" fill="#2A2B37"/>
<path d="M125.957 147.436H124.48V148.912H125.957V147.436Z" fill="#2A2B37"/>
<path d="M125.957 149.911H124.48V151.387H125.957V149.911Z" fill="#2A2B37"/>
<path d="M125.957 152.386H124.48V153.862H125.957V152.386Z" fill="#2A2B37"/>
<path d="M125.957 154.861H124.48V156.337H125.957V154.861Z" fill="#2A2B37"/>
<path d="M125.957 157.336H124.48V158.812H125.957V157.336Z" fill="#2A2B37"/>
<path d="M125.957 159.811H124.48V161.287H125.957V159.811Z" fill="#2A2B37"/>
<path d="M125.957 162.286H124.48V163.763H125.957V162.286Z" fill="#2A2B37"/>
<path d="M125.957 164.761H124.48V166.238H125.957V164.761Z" fill="#2A2B37"/>
<path d="M125.957 167.237H124.48V168.713H125.957V167.237Z" fill="#2A2B37"/>
<path d="M125.957 174.662H124.48V176.138H125.957V174.662Z" fill="#2A2B37"/>
<path d="M125.957 177.137H124.48V178.613H125.957V177.137Z" fill="#2A2B37"/>
<path d="M125.957 182.087H124.48V183.563H125.957V182.087Z" fill="#2A2B37"/>
<path d="M125.957 184.562H124.48V186.038H125.957V184.562Z" fill="#2A2B37"/>
<path d="M125.957 187.037H124.48V188.513H125.957V187.037Z" fill="#2A2B37"/>
<path d="M125.957 189.512H124.48V190.989H125.957V189.512Z" fill="#2A2B37"/>
<path d="M123.611 137.536H122.135V139.012H123.611V137.536Z" fill="#2A2B37"/>
<path d="M123.611 140.011H122.135V141.487H123.611V140.011Z" fill="#2A2B37"/>
<path d="M123.611 142.486H122.135V143.962H123.611V142.486Z" fill="#2A2B37"/>
<path d="M123.611 144.961H122.135V146.437H123.611V144.961Z" fill="#2A2B37"/>
<path d="M123.611 147.436H122.135V148.912H123.611V147.436Z" fill="#2A2B37"/>
<path d="M123.611 149.911H122.135V151.387H123.611V149.911Z" fill="#2A2B37"/>
<path d="M123.611 152.386H122.135V153.862H123.611V152.386Z" fill="#2A2B37"/>
<path d="M123.611 154.861H122.135V156.337H123.611V154.861Z" fill="#2A2B37"/>
<path d="M123.611 157.336H122.135V158.812H123.611V157.336Z" fill="#2A2B37"/>
<path d="M123.611 159.811H122.135V161.287H123.611V159.811Z" fill="#2A2B37"/>
<path d="M123.611 162.286H122.135V163.763H123.611V162.286Z" fill="#2A2B37"/>
<path d="M123.611 164.761H122.135V166.238H123.611V164.761Z" fill="#2A2B37"/>
<path d="M123.611 167.237H122.135V168.713H123.611V167.237Z" fill="#2A2B37"/>
<path d="M123.611 169.712H122.135V171.188H123.611V169.712Z" fill="#2A2B37"/>
<path d="M123.611 174.662H122.135V176.138H123.611V174.662Z" fill="#2A2B37"/>
<path d="M123.611 179.612H122.135V181.088H123.611V179.612Z" fill="#2A2B37"/>
<path d="M123.611 182.087H122.135V183.563H123.611V182.087Z" fill="#2A2B37"/>
<path d="M123.611 184.562H122.135V186.038H123.611V184.562Z" fill="#2A2B37"/>
<path d="M123.611 187.037H122.135V188.513H123.611V187.037Z" fill="#2A2B37"/>
<path d="M123.611 189.512H122.135V190.989H123.611V189.512Z" fill="#2A2B37"/>
<path d="M137.853 151.648H136.377V153.124H137.853V151.648Z" fill="#2A2B37"/>
<path d="M137.853 154.123H136.377V155.599H137.853V154.123Z" fill="#2A2B37"/>
<path d="M137.853 156.598H136.377V158.074H137.853V156.598Z" fill="#2A2B37"/>
<path d="M137.853 159.073H136.377V160.549H137.853V159.073Z" fill="#2A2B37"/>
<path d="M137.853 161.548H136.377V163.024H137.853V161.548Z" fill="#2A2B37"/>
<path d="M137.853 164.023H136.377V165.499H137.853V164.023Z" fill="#2A2B37"/>
<path d="M137.853 171.448H136.377V172.925H137.853V171.448Z" fill="#2A2B37"/>
<path d="M137.853 173.924H136.377V175.4H137.853V173.924Z" fill="#2A2B37"/>
<path d="M137.853 176.399H136.377V177.875H137.853V176.399Z" fill="#2A2B37"/>
<path d="M137.853 178.874H136.377V180.35H137.853V178.874Z" fill="#2A2B37"/>
<path d="M137.853 181.349H136.377V182.825H137.853V181.349Z" fill="#2A2B37"/>
<path d="M137.853 183.824H136.377V185.3H137.853V183.824Z" fill="#2A2B37"/>
<path d="M137.853 186.299H136.377V187.775H137.853V186.299Z" fill="#2A2B37"/>
<path d="M135.51 151.648H134.033V153.124H135.51V151.648Z" fill="#2A2B37"/>
<path d="M135.51 154.123H134.033V155.599H135.51V154.123Z" fill="#2A2B37"/>
<path d="M135.51 156.598H134.033V158.074H135.51V156.598Z" fill="#2A2B37"/>
<path d="M135.51 159.073H134.033V160.549H135.51V159.073Z" fill="#2A2B37"/>
<path d="M135.51 161.548H134.033V163.024H135.51V161.548Z" fill="#2A2B37"/>
<path d="M135.51 164.023H134.033V165.499H135.51V164.023Z" fill="#2A2B37"/>
<path d="M135.51 171.448H134.033V172.925H135.51V171.448Z" fill="#2A2B37"/>
<path d="M135.51 173.924H134.033V175.4H135.51V173.924Z" fill="#2A2B37"/>
<path d="M135.51 176.399H134.033V177.875H135.51V176.399Z" fill="#2A2B37"/>
<path d="M135.51 178.874H134.033V180.35H135.51V178.874Z" fill="#2A2B37"/>
<path d="M135.51 181.349H134.033V182.825H135.51V181.349Z" fill="#2A2B37"/>
<path d="M135.51 183.824H134.033V185.3H135.51V183.824Z" fill="#2A2B37"/>
<path d="M135.51 188.774H134.033V190.25H135.51V188.774Z" fill="#2A2B37"/>
<path d="M57.6102 140.749H56.1338V142.225H57.6102V140.749Z" fill="#2A2B37"/>
<path d="M57.6102 143.224H56.1338V144.7H57.6102V143.224Z" fill="#2A2B37"/>
<path d="M57.6102 145.699H56.1338V147.176H57.6102V145.699Z" fill="#2A2B37"/>
<path d="M57.6102 148.174H56.1338V149.651H57.6102V148.174Z" fill="#2A2B37"/>
<path d="M57.6102 150.649H56.1338V152.126H57.6102V150.649Z" fill="#2A2B37"/>
<path d="M57.6102 153.124H56.1338V154.601H57.6102V153.124Z" fill="#2A2B37"/>
<path d="M57.6102 155.599H56.1338V157.076H57.6102V155.599Z" fill="#2A2B37"/>
<path d="M57.6102 158.074H56.1338V159.551H57.6102V158.074Z" fill="#2A2B37"/>
<path d="M57.6102 160.549H56.1338V162.026H57.6102V160.549Z" fill="#2A2B37"/>
<path d="M57.6102 163.024H56.1338V164.501H57.6102V163.024Z" fill="#2A2B37"/>
<path d="M57.6102 165.499H56.1338V166.976H57.6102V165.499Z" fill="#2A2B37"/>
<path d="M57.6102 170.45H56.1338V171.926H57.6102V170.45Z" fill="#2A2B37"/>
<path d="M57.6102 172.925H56.1338V174.401H57.6102V172.925Z" fill="#2A2B37"/>
<path d="M57.6102 175.4H56.1338V176.876H57.6102V175.4Z" fill="#2A2B37"/>
<path d="M57.6102 177.875H56.1338V179.351H57.6102V177.875Z" fill="#2A2B37"/>
<path d="M57.6102 180.35H56.1338V181.827H57.6102V180.35Z" fill="#2A2B37"/>
<path d="M57.6102 182.825H56.1338V184.302H57.6102V182.825Z" fill="#2A2B37"/>
<path d="M57.6102 185.3H56.1338V186.777H57.6102V185.3Z" fill="#2A2B37"/>
<path d="M57.6102 187.775H56.1338V189.252H57.6102V187.775Z" fill="#2A2B37"/>
<path d="M55.2645 140.749H53.7881V142.225H55.2645V140.749Z" fill="#2A2B37"/>
<path d="M55.2645 143.224H53.7881V144.7H55.2645V143.224Z" fill="#2A2B37"/>
<path d="M55.2645 145.699H53.7881V147.176H55.2645V145.699Z" fill="#2A2B37"/>
<path d="M55.2645 148.174H53.7881V149.651H55.2645V148.174Z" fill="#2A2B37"/>
<path d="M55.2645 150.649H53.7881V152.126H55.2645V150.649Z" fill="#2A2B37"/>
<path d="M55.2645 153.124H53.7881V154.601H55.2645V153.124Z" fill="#2A2B37"/>
<path d="M55.2645 155.599H53.7881V157.076H55.2645V155.599Z" fill="#2A2B37"/>
<path d="M55.2645 158.074H53.7881V159.551H55.2645V158.074Z" fill="#2A2B37"/>
<path d="M55.2645 160.549H53.7881V162.026H55.2645V160.549Z" fill="#2A2B37"/>
<path d="M55.2645 163.024H53.7881V164.501H55.2645V163.024Z" fill="#2A2B37"/>
<path d="M55.2645 165.499H53.7881V166.976H55.2645V165.499Z" fill="#2A2B37"/>
<path d="M55.2645 167.974H53.7881V169.451H55.2645V167.974Z" fill="#2A2B37"/>
<path d="M55.2645 170.45H53.7881V171.926H55.2645V170.45Z" fill="#2A2B37"/>
<path d="M55.2645 172.925H53.7881V174.401H55.2645V172.925Z" fill="#2A2B37"/>
<path d="M55.2645 175.4H53.7881V176.876H55.2645V175.4Z" fill="#2A2B37"/>
<path d="M55.2645 177.875H53.7881V179.351H55.2645V177.875Z" fill="#2A2B37"/>
<path d="M55.2645 180.35H53.7881V181.827H55.2645V180.35Z" fill="#2A2B37"/>
<path d="M55.2645 182.825H53.7881V184.302H55.2645V182.825Z" fill="#2A2B37"/>
<path d="M55.2645 185.3H53.7881V186.777H55.2645V185.3Z" fill="#2A2B37"/>
<path d="M55.2645 187.775H53.7881V189.252H55.2645V187.775Z" fill="#2A2B37"/>
<path d="M69.16 150.389H67.6836V151.865H69.16V150.389Z" fill="#2A2B37"/>
<path d="M69.16 152.864H67.6836V154.34H69.16V152.864Z" fill="#2A2B37"/>
<path d="M69.16 155.339H67.6836V156.815H69.16V155.339Z" fill="#2A2B37"/>
<path d="M69.16 157.814H67.6836V159.29H69.16V157.814Z" fill="#2A2B37"/>
<path d="M69.16 160.289H67.6836V161.765H69.16V160.289Z" fill="#2A2B37"/>
<path d="M69.16 162.764H67.6836V164.24H69.16V162.764Z" fill="#2A2B37"/>
<path d="M69.16 165.239H67.6836V166.715H69.16V165.239Z" fill="#2A2B37"/>
<path d="M69.16 167.714H67.6836V169.19H69.16V167.714Z" fill="#2A2B37"/>
<path d="M69.16 170.189H67.6836V171.665H69.16V170.189Z" fill="#2A2B37"/>
<path d="M69.16 172.664H67.6836V174.14H69.16V172.664Z" fill="#2A2B37"/>
<path d="M66.8153 150.389H65.3389V151.865H66.8153V150.389Z" fill="#2A2B37"/>
<path d="M66.8153 152.864H65.3389V154.34H66.8153V152.864Z" fill="#2A2B37"/>
<path d="M66.8153 155.339H65.3389V156.815H66.8153V155.339Z" fill="#2A2B37"/>
<path d="M66.8153 157.814H65.3389V159.29H66.8153V157.814Z" fill="#2A2B37"/>
<path d="M66.8153 160.289H65.3389V161.765H66.8153V160.289Z" fill="#2A2B37"/>
<path d="M66.8153 162.764H65.3389V164.24H66.8153V162.764Z" fill="#2A2B37"/>
<path d="M66.8153 165.239H65.3389V166.715H66.8153V165.239Z" fill="#2A2B37"/>
<path d="M66.8153 167.714H65.3389V169.19H66.8153V167.714Z" fill="#2A2B37"/>
<path d="M66.8153 170.189H65.3389V171.665H66.8153V170.189Z" fill="#2A2B37"/>
<path d="M127.5 218.056C182.111 218.056 226.383 215.471 226.383 212.281C226.383 209.092 182.111 206.507 127.5 206.507C72.8878 206.507 28.6162 209.092 28.6162 212.281C28.6162 215.471 72.8878 218.056 127.5 218.056Z" fill="#1D1E26"/>
<path d="M125.19 119.906L126.048 120.968L44.585 185.856L48.055 190.152L48.5308 190.742L129.994 125.853L130.852 126.916L132.378 119.891L125.19 119.906Z" fill="#F27B01"/>
<path opacity="0.7" d="M125.19 119.906L126.048 120.968L44.585 185.856L48.055 190.152L48.5308 190.742L129.994 125.853L130.852 126.916L132.378 119.891L125.19 119.906Z" fill="white"/>
<path d="M32.5957 190.394C32.5957 188.913 33.7968 187.712 35.2778 187.712C35.5455 187.712 35.8041 187.752 36.0479 187.826C36.0086 187.557 35.9877 187.282 35.9877 187.003C35.9877 183.866 38.5306 181.323 41.6671 181.323C42.0246 181.323 42.3739 181.358 42.7131 181.421C43.5862 179.992 45.155 179.035 46.9522 179.035C49.6715 179.035 51.8778 181.221 51.9181 183.93C51.9456 183.93 51.9726 183.926 52.0007 183.926C54.5277 183.926 56.5759 185.975 56.5759 188.502C56.5759 191.028 54.5277 193.077 52.0007 193.077H35.1987L35.2023 193.073C33.756 193.032 32.5957 191.85 32.5957 190.394Z" fill="#F27B01"/>
<path opacity="0.8" d="M32.5957 190.394C32.5957 188.913 33.7968 187.712 35.2778 187.712C35.5455 187.712 35.8041 187.752 36.0479 187.826C36.0086 187.557 35.9877 187.282 35.9877 187.003C35.9877 183.866 38.5306 181.323 41.6671 181.323C42.0246 181.323 42.3739 181.358 42.7131 181.421C43.5862 179.992 45.155 179.035 46.9522 179.035C49.6715 179.035 51.8778 181.221 51.9181 183.93C51.9456 183.93 51.9726 183.926 52.0007 183.926C54.5277 183.926 56.5759 185.975 56.5759 188.502C56.5759 191.028 54.5277 193.077 52.0007 193.077H35.1987L35.2023 193.073C33.756 193.032 32.5957 191.85 32.5957 190.394Z" fill="white"/>
<path d="M203.363 161.012L205.398 163.531L167.532 194.118L175.759 204.303L176.888 205.701L214.754 175.114L216.789 177.633L220.406 160.978L203.363 161.012Z" fill="#F27B01"/>
<path opacity="0.5" d="M203.363 161.012L205.398 163.531L167.532 194.118L175.759 204.303L176.888 205.701L214.754 175.114L216.789 177.633L220.406 160.978L203.363 161.012Z" fill="white"/>
<path d="M182.891 193.018C181.363 190.58 178.66 188.953 175.571 188.953C172.43 188.953 169.688 190.634 168.176 193.14C167.778 193.029 167.361 192.965 166.929 192.965C164.372 192.965 162.299 195.038 162.299 197.595C162.299 197.597 162.3 197.599 162.3 197.601H159.859C158.587 197.601 157.547 198.641 157.547 199.913C157.547 201.184 158.587 202.225 159.859 202.225H168.282C169.815 204.634 172.503 206.237 175.571 206.237C177.99 206.237 180.174 205.24 181.742 203.639C181.888 203.651 182.035 203.661 182.183 203.661C185.137 203.661 187.531 201.267 187.531 198.314C187.531 195.6 185.51 193.365 182.891 193.018Z" fill="#F27B01"/>
<path opacity="0.8" d="M182.891 193.018C181.363 190.58 178.66 188.953 175.571 188.953C172.43 188.953 169.688 190.634 168.176 193.14C167.778 193.029 167.361 192.965 166.929 192.965C164.372 192.965 162.299 195.038 162.299 197.595C162.299 197.597 162.3 197.599 162.3 197.601H159.859C158.587 197.601 157.547 198.641 157.547 199.913C157.547 201.184 158.587 202.225 159.859 202.225H168.282C169.815 204.634 172.503 206.237 175.571 206.237C177.99 206.237 180.174 205.24 181.742 203.639C181.888 203.651 182.035 203.661 182.183 203.661C185.137 203.661 187.531 201.267 187.531 198.314C187.531 195.6 185.51 193.365 182.891 193.018Z" fill="white"/>
<path d="M126.042 89.5315L125.307 88.7569C125.109 88.5483 124.819 88.4554 124.537 88.5095L123.437 88.7206C123.077 88.7895 122.803 89.0827 122.759 89.4459L122.195 94.0558L123.902 94.7101C125.979 93.8064 125.871 91.0621 125.871 91.0621L126.17 90.5158C126.346 90.1951 126.294 89.7973 126.042 89.5315Z" fill="#FFB573"/>
<path d="M105.455 103.346C105.455 103.346 107.089 103.445 108.047 103.421C109.013 103.408 109.975 103.391 110.92 103.337C111.861 103.277 112.797 103.21 113.655 103.091C114.08 103.032 114.493 102.955 114.819 102.866C114.971 102.823 115.119 102.776 115.186 102.749C115.296 102.698 115.175 102.787 115.236 102.752C115.396 102.617 115.706 102.248 115.976 101.906C116.256 101.551 116.537 101.168 116.816 100.779C117.375 99.9988 117.931 99.1878 118.485 98.3724L121.816 93.4294L124.42 94.8156C124.037 95.7678 123.622 96.6853 123.206 97.614C122.776 98.5325 122.337 99.4485 121.885 100.364C121.425 101.277 120.948 102.184 120.429 103.091C120.167 103.545 119.897 104 119.6 104.464C119.291 104.938 119.007 105.38 118.47 105.966C118.181 106.288 117.651 106.678 117.309 106.846C116.933 107.052 116.609 107.18 116.289 107.3C115.663 107.526 115.096 107.669 114.537 107.794C113.425 108.042 112.366 108.189 111.31 108.29C109.198 108.5 107.17 108.578 105.052 108.531L105.455 103.346Z" fill="#F27B01"/>
<path opacity="0.7" d="M124.416 94.8177C124.034 95.7663 123.621 96.6843 123.208 97.6125C122.774 98.5305 122.336 99.4485 121.882 100.366C121.423 101.274 120.948 102.182 120.428 103.09C120.168 103.544 119.898 103.998 119.597 104.462C119.291 104.936 119.005 105.38 118.47 105.966C118.179 106.288 117.649 106.675 117.307 106.843C116.93 107.053 116.608 107.18 116.287 107.302C115.66 107.527 115.094 107.67 114.538 107.792C113.426 108.042 112.365 108.19 111.309 108.292C110.856 108.338 110.407 108.373 109.963 108.409C108.326 108.526 106.714 108.567 105.052 108.532L105.133 107.461L105.455 103.345C105.455 103.345 107.087 103.447 108.045 103.421C109.014 103.406 109.973 103.391 110.922 103.335C111.86 103.279 112.799 103.212 113.655 103.09C114.079 103.034 114.492 102.957 114.818 102.865C114.971 102.825 115.119 102.779 115.185 102.748C115.298 102.697 115.175 102.789 115.236 102.753C115.395 102.616 115.706 102.248 115.976 101.907C116.256 101.55 116.537 101.167 116.812 100.78C117.373 99.9993 117.929 99.1884 118.485 98.3724L121.815 93.4305L124.416 94.8177Z" fill="white"/>
<path opacity="0.1" d="M109.963 108.409C108.326 108.526 106.714 108.567 105.052 108.532L105.133 107.461L105.531 106.522C105.531 106.522 108.204 106.486 109.963 108.409Z" fill="black"/>
<path d="M78.1782 194.835C78.1782 194.835 73.5612 191.659 73.8443 189.525C73.8723 189.316 73.7494 189.13 73.5275 189.097L69.6138 188.505C69.4312 188.477 69.2359 188.56 69.1278 188.712L66.8154 191.953L67.8543 192.329L68.4117 191.937L68.6739 192.625C74.3119 194.664 76.7701 195.486 78.013 195.538C78.3562 195.099 78.1782 194.835 78.1782 194.835Z" fill="black"/>
<path d="M104.18 134.842C104.18 134.842 103.945 135.454 103.532 136.515C103.089 137.663 102.436 139.336 101.65 141.325C101.125 142.651 100.544 144.119 99.9163 145.665C97.0348 152.825 93.3118 161.684 90.8485 166.156C86.131 174.714 73.84 190.968 73.84 190.968L68.9287 189.173C68.9287 189.173 77.7721 172.435 82.2346 163.953C83.5963 161.368 85.162 157.563 86.7124 153.412C87.4519 151.438 88.1863 149.383 88.8952 147.348C89.2165 146.43 89.5327 145.512 89.8387 144.609C90.6496 142.222 91.4095 139.922 92.0776 137.872C92.1592 137.617 92.2408 137.362 92.3224 137.117C92.5927 136.276 92.8477 135.48 93.0772 134.746C94.036 131.726 94.6327 129.737 94.6531 129.661C94.6582 129.661 94.6582 129.661 94.6582 129.661L99.0391 132.048L104.18 134.842Z" fill="#263238"/>
<path opacity="0.3" d="M103.533 136.515C103.089 137.663 102.436 139.336 101.651 141.325C101.125 142.651 100.544 144.119 99.9166 145.665C95.908 146.471 91.828 147.016 88.8955 147.348C89.2168 146.43 89.533 145.512 89.839 144.609C90.6499 142.222 91.4098 139.922 92.0779 137.872C92.1595 137.617 92.2411 137.362 92.3227 137.117C92.593 136.276 92.848 135.48 93.0775 134.746C96.0253 135.149 99.9676 135.75 103.533 136.515Z" fill="black"/>
<path d="M88.4854 106.062C88.4854 106.066 88.4889 106.069 88.4889 106.073C89.1958 108.445 89.6104 111.202 89.842 113.921C90.0205 116.035 90.0883 118.118 90.0975 119.985C90.1046 121.867 90.048 123.533 89.9868 124.808C89.9047 126.446 89.8078 127.456 89.8078 127.456L105.303 128.252C109.953 111.402 105.457 103.345 105.457 103.345C105.457 103.345 103.526 103.151 101.302 103.25C101.015 103.259 100.724 103.281 100.425 103.304C98.5303 103.462 95.5111 104.061 93.4951 104.517C93.0794 104.608 92.6623 104.716 92.2548 104.826C90.2301 105.379 88.4854 106.062 88.4854 106.062Z" fill="#F27B01"/>
<path opacity="0.7" d="M105.302 128.253L89.8084 127.458C89.8084 127.458 89.9053 126.448 89.9869 124.806C90.0073 124.326 90.0277 123.781 90.0481 123.189C90.0787 122.235 90.0991 121.154 90.0991 119.986C90.094 119.42 90.0838 118.834 90.0685 118.232C90.0685 118.135 90.0634 118.038 90.0634 117.941C90.0379 116.987 89.992 115.998 89.9257 114.993C89.8951 114.636 89.8696 114.279 89.839 113.922C89.8186 113.642 89.7931 113.356 89.7676 113.076C89.6911 112.362 89.6095 111.648 89.5075 110.944C89.482 110.75 89.4514 110.556 89.4208 110.368C89.3749 110.046 89.3239 109.735 89.2678 109.419C89.0587 108.256 88.8037 107.124 88.4926 106.068C88.4926 106.068 88.4875 106.063 88.4824 106.063C88.4824 106.063 90.2317 105.38 92.2564 104.824C92.6593 104.717 93.0775 104.61 93.4906 104.518C95.5102 104.064 98.5294 103.462 100.422 103.304C100.722 103.284 101.013 103.258 101.304 103.253C103.522 103.151 105.455 103.345 105.455 103.345C105.455 103.345 109.953 111.398 105.302 128.253Z" fill="white"/>
<path d="M114.885 168.576C114.885 168.576 110.458 165.14 110.864 163.026C110.904 162.818 110.792 162.626 110.573 162.58L106.7 161.764C106.519 161.726 106.319 161.797 106.202 161.943L103.708 165.045L104.723 165.48L105.303 165.122L105.525 165.823C111.037 168.184 113.443 169.145 114.682 169.269C115.047 168.849 114.885 168.576 114.885 168.576Z" fill="black"/>
<path d="M97.2173 141.417C97.4498 141.429 97.5794 141.43 97.5794 141.43L116.156 144.13L105.581 161.673L110.876 163.688C110.876 163.688 130.023 143.044 125.746 138.336C122.228 134.465 104.99 132.11 104.99 132.11L105.556 128.069L89.6117 124.93C82.7955 139.85 94.9355 141.277 97.2173 141.417Z" fill="#263238"/>
<path d="M89.4231 126.516L89.085 126.451L89.394 125.376L89.6949 125.434L89.4231 126.516Z" fill="#263238"/>
<path d="M101.965 128.943L95.1582 127.626L95.4239 126.545L102.203 127.86L101.965 128.943Z" fill="#263238"/>
<path d="M102.727 127.962L105.605 128.52L105.414 129.611L102.5 129.047L102.727 127.962Z" fill="#263238"/>
<path d="M90.2201 125.536L94.9004 126.444L94.6239 127.523L89.959 126.62L90.2201 125.536Z" fill="#263238"/>
<g opacity="0.2">
<path d="M89.4231 126.516L89.085 126.451L89.394 125.376L89.6949 125.434L89.4231 126.516Z" fill="white"/>
<path d="M101.965 128.943L95.1582 127.626L95.4239 126.545L102.203 127.86L101.965 128.943Z" fill="white"/>
<path d="M102.727 127.962L105.605 128.52L105.414 129.611L102.5 129.047L102.727 127.962Z" fill="white"/>
<path d="M90.2201 125.536L94.9004 126.444L94.6239 127.523L89.959 126.62L90.2201 125.536Z" fill="white"/>
</g>
<path d="M100.075 127.661L99.9216 128.319C99.8971 128.424 99.7951 128.491 99.6896 128.472L97.9852 128.17C97.8699 128.149 97.7959 128.035 97.8245 127.922L97.9954 127.239C98.0214 127.135 98.1244 127.069 98.23 127.089L99.9165 127.416C100.029 127.439 100.102 127.549 100.075 127.661Z" stroke="white" stroke-width="0.5891" stroke-miterlimit="10"/>
<path d="M98.6638 127.715L98.1436 127.623" stroke="white" stroke-width="0.5891" stroke-miterlimit="10" stroke-linecap="round" stroke-linejoin="round"/>
<path d="M95.0998 97.4865L99.1472 100.841C98.7514 102.483 99.4384 103.998 100.236 104.278C100.236 104.278 100.827 105.686 99.6893 105.923C97.3826 106.404 94.751 104.17 94.751 104.17C95.9709 102.858 95.5297 99.5826 95.0998 97.4865Z" fill="#EBB376"/>
<path opacity="0.2" d="M96.75 98.8553L99.1454 100.839C99.0506 101.228 98.9771 101.622 98.9527 102.004C98.054 101.89 96.8132 100.928 96.7107 99.9921C96.6592 99.5245 96.675 99.0746 96.75 98.8553Z" fill="black"/>
<path d="M98.6721 90.8575C99.6513 91.468 100.978 93.3086 99.3325 93.7513C97.6862 94.1934 96.9886 89.8084 98.6721 90.8575Z" fill="#263238"/>
<path d="M93.6172 97.1479C95.3298 99.4062 96.2177 100.817 98.2067 101.221C101.198 101.829 103.374 98.7819 102.368 96.0499C101.462 93.5901 98.8141 90.3103 95.8954 90.9325C93.019 91.5466 91.9046 94.8896 93.6172 97.1479Z" fill="#FFB573"/>
<path d="M94.1224 94.6892L92.0656 92.2891C92.0656 92.2891 89.3483 94.2883 90.582 95.4986C89.768 97.4126 93.0004 100.084 95.8258 99.5352C96.1532 97.8089 93.6364 94.8605 93.6364 94.8605C93.7919 94.8136 93.9556 94.754 94.1224 94.6892Z" fill="#263238"/>
<path d="M94.0152 99.7157C94.6068 100.197 95.3651 100.356 95.9868 100.277C96.9217 100.158 97.0303 99.2261 96.4698 98.5289C95.9654 97.9011 94.8709 97.2065 94.0769 97.6767C93.295 98.1408 93.3384 99.1659 94.0152 99.7157Z" fill="#FFB573"/>
<path d="M97.6109 95.3889C97.7384 95.5806 97.9434 95.6673 98.0679 95.5827C98.1928 95.498 98.1903 95.2736 98.0628 95.0818C97.9353 94.8901 97.7303 94.8034 97.6058 94.888C97.4809 94.9727 97.4834 95.1966 97.6109 95.3889Z" fill="#263238"/>
<path d="M99.7683 93.9216C99.8958 94.1134 100.101 94.2001 100.225 94.1154C100.35 94.0308 100.348 93.8064 100.22 93.6146C100.093 93.4229 99.8877 93.3362 99.7632 93.4208C99.6383 93.5055 99.6403 93.7299 99.7683 93.9216Z" fill="#263238"/>
<path d="M99.1455 94.4836C99.1455 94.4836 100.3 95.2466 101.126 95.4363C100.993 95.9626 100.322 96.2074 100.322 96.2074L99.1455 94.4836Z" fill="#ED893E"/>
<path d="M98.5462 97.5074C98.4621 97.5528 98.3774 97.6059 98.2917 97.6686C98.2616 97.6905 98.2545 97.7334 98.2764 97.7635C98.2984 97.7941 98.3412 97.8002 98.3703 97.7788C99.1904 97.1826 99.9819 97.4784 99.9895 97.4814C100.024 97.4952 100.063 97.4768 100.077 97.4422C100.09 97.407 100.073 97.3677 100.038 97.3539C100.007 97.3417 99.324 97.0867 98.5462 97.5074Z" fill="#263238"/>
<path d="M96.1347 94.7585C96.1816 94.7611 96.229 94.7387 96.2566 94.6958C96.5845 94.1853 97.0833 94.1726 97.0884 94.1726C97.1633 94.1715 97.2235 94.1098 97.2235 94.0354C97.223 93.9609 97.1618 93.9007 97.0873 93.9017C97.0608 93.9017 96.4356 93.9176 96.0286 94.5515C95.9878 94.6147 96.0061 94.6984 96.0689 94.7387C96.0893 94.7509 96.1117 94.7575 96.1347 94.7585Z" fill="#263238"/>
<path d="M99.7934 92.1804C99.8011 92.156 99.8021 92.1289 99.7944 92.1019C99.774 92.0295 99.6991 91.9872 99.6277 92.007C98.9075 92.2065 98.7209 92.8011 98.7092 92.8266C98.6872 92.898 98.727 92.9745 98.7984 92.9975C98.8693 93.0199 98.9448 92.9811 98.9672 92.9103C98.9738 92.8853 99.1233 92.4293 99.7016 92.2692C99.747 92.2564 99.7801 92.2218 99.7934 92.1804Z" fill="#263238"/>
<path d="M93.6369 94.86C93.6369 94.86 99.0215 92.5976 99.3515 90.015C99.6814 87.4324 97.4063 88.4906 97.4063 88.4906C97.4063 88.4906 98.4595 88.4187 98.3565 89.1857C98.3565 89.1857 96.5378 87.9449 94.8048 89.0113C94.8048 89.0113 95.6147 88.9955 96.0411 89.5963C96.0411 89.5963 94.3953 89.9176 92.5486 91.2864C90.7024 92.6553 87.3858 97.5559 93.6369 94.86Z" fill="#263238"/>
<path opacity="0.3" d="M104.99 132.11L96.2139 131.102C96.2139 131.102 99.6885 130.531 105.183 130.733L104.99 132.11Z" fill="black"/>
<path opacity="0.1" d="M89.9258 114.993C89.8952 114.636 89.8697 114.279 89.8391 113.922C89.8187 113.642 89.7932 113.356 89.7677 113.076C89.6912 112.362 89.6096 111.648 89.5076 110.944C89.4821 110.75 89.4515 110.556 89.4209 110.368C89.6555 110.179 89.9156 110.005 90.191 109.852C90.191 109.852 90.6908 112.428 89.9258 114.993Z" fill="black"/>
<path d="M75.3003 127.523L73.7754 131.102L77.0776 131.919C77.0776 131.919 78.4954 129.567 77.1113 127.773L75.3003 127.523Z" fill="#EBB376"/>
<path d="M74.0121 133.861L76.6192 133.881L77.0767 131.919L73.7744 131.102L74.0121 133.861Z" fill="#EBB376"/>
<path d="M90.1486 108.539C90.3756 110.783 89.6096 111.696 89.6096 111.696C89.6096 111.696 87.4359 113.061 86.4929 113.761C85.6912 114.365 84.9053 114.979 84.1602 115.594C83.792 115.903 83.4365 116.215 83.1106 116.525C82.7883 116.831 82.4864 117.15 82.2956 117.396C82.2105 117.495 82.1248 117.655 82.0335 117.798C81.9407 117.948 81.8438 118.172 81.7433 118.354C81.5439 118.765 81.346 119.2 81.1583 119.657C80.7815 120.568 80.425 121.518 80.0858 122.482C79.3795 124.399 78.7216 126.376 78.0443 128.32L75.0322 127.604C75.3387 125.488 75.7523 123.425 76.2297 121.336C76.4816 120.297 76.7606 119.257 77.0809 118.199C77.24 117.671 77.4211 117.133 77.6251 116.581C77.747 116.291 77.8449 116.029 77.9974 115.718C78.158 115.404 78.3059 115.096 78.5273 114.77C78.9353 114.16 79.3356 113.7 79.7385 113.256C80.1414 112.818 80.5458 112.413 80.9533 112.023C81.7642 111.244 82.5965 110.535 83.4396 109.852C85.1277 108.48 86.8229 107.226 88.639 106.015C88.639 106.015 89.9431 106.507 90.1486 108.539Z" fill="#F27B01"/>
<path opacity="0.7" d="M90.1486 108.539C90.3756 110.783 89.6096 111.696 89.6096 111.696C89.6096 111.696 87.4359 113.061 86.4929 113.761C85.6912 114.365 84.9053 114.979 84.1602 115.594C83.792 115.903 83.4365 116.215 83.1106 116.525C82.7883 116.831 82.4864 117.15 82.2956 117.396C82.2105 117.495 82.1248 117.655 82.0335 117.798C81.9407 117.948 81.8438 118.172 81.7433 118.354C81.5439 118.765 81.346 119.2 81.1583 119.657C80.7815 120.568 80.425 121.518 80.0858 122.482C79.3795 124.399 78.7216 126.376 78.0443 128.32L75.0322 127.604C75.3387 125.488 75.7523 123.425 76.2297 121.336C76.4816 120.297 76.7606 119.257 77.0809 118.199C77.24 117.671 77.4211 117.133 77.6251 116.581C77.747 116.291 77.8449 116.029 77.9974 115.718C78.158 115.404 78.3059 115.096 78.5273 114.77C78.9353 114.16 79.3356 113.7 79.7385 113.256C80.1414 112.818 80.5458 112.413 80.9533 112.023C81.7642 111.244 82.5965 110.535 83.4396 109.852C85.1277 108.48 86.8229 107.226 88.639 106.015C88.639 106.015 89.9431 106.507 90.1486 108.539Z" fill="white"/>
<path d="M96.9961 105.53L98.1303 107.311C98.1303 107.311 94.1763 112.103 86.6094 113.684L86.1045 115.224L87.7135 115.646C87.7135 115.646 95.8863 113.531 99.1472 107.4L100.832 105.524L98.8463 104.858L96.9961 105.53Z" fill="#F27B01"/>
<path d="M93.332 104.457L95.1747 102.845L98.8461 104.858L99.2705 102.656L101.209 103.772L101.764 106.619L99.0588 105.449L96.6378 107.607L93.332 104.457Z" fill="#F27B01"/>
<path opacity="0.6" d="M93.332 104.457L95.1747 102.845L98.8461 104.858L99.2705 102.656L101.209 103.772L101.764 106.619L99.0588 105.449L96.6378 107.607L93.332 104.457Z" fill="white"/>
<path d="M143.916 72.5587C143.916 72.5587 140.487 76.8126 137.007 76.4592C133.527 76.1063 131.748 77.5185 131.748 77.5185L131.408 79.2163L133.274 78.9643C133.274 78.9643 133.274 77.6189 136.906 77.7704C140.538 77.9219 143.261 74.7997 144.32 73.3844L143.916 72.5587Z" fill="#F27B01"/>
<path d="M168.552 65.4883L168.48 65.1537C168.443 65.0211 168.463 65.0038 168.337 64.6733C168.138 64.1561 167.802 63.7303 167.506 63.4636C166.892 62.9148 166.386 62.721 165.946 62.5471C165.073 62.238 164.378 62.1406 163.69 62.0565C163.009 61.9789 162.363 61.9453 161.727 61.9285C160.458 61.8917 159.234 61.955 158.021 62.031C155.589 62.1916 153.25 62.4787 150.845 62.8944L151.72 67.9189C153.919 67.5685 156.212 67.2478 158.431 67.0177C159.544 66.9045 160.653 66.8352 161.717 66.801C162.248 66.7872 162.77 66.7893 163.251 66.8188C163.589 66.8387 163.924 66.877 164.175 66.9203C164.19 67.0932 164.197 67.2824 164.191 67.4834C164.159 68.3504 163.942 69.3653 163.645 70.3766C163.046 72.4079 162.108 74.5178 161.135 76.489L163.555 78.1031C165.102 76.1478 166.374 74.1164 167.428 71.7796C167.931 70.6015 168.376 69.3581 168.578 67.899C168.676 67.1677 168.711 66.3706 168.552 65.4883Z" fill="#F27B01"/>
<path opacity="0.7" d="M168.578 67.8998C168.415 69.1034 168.079 70.1642 167.686 71.1587C167.604 71.3678 167.518 71.5769 167.431 71.7809C166.375 74.1167 165.1 76.1465 163.555 78.0998L161.138 76.4882C162.107 74.5145 163.045 72.4082 163.647 70.3733C163.851 69.6746 164.019 68.9708 164.111 68.318C164.157 68.0273 164.182 67.7468 164.192 67.4816C164.198 67.2827 164.192 67.094 164.177 66.9206C163.927 66.8747 163.591 66.839 163.254 66.8186C162.77 66.788 162.249 66.788 161.719 66.7982C161.678 66.7982 161.642 66.8033 161.602 66.8033C160.571 66.839 159.506 66.9104 158.429 67.0175C156.277 67.2419 154.064 67.5479 151.927 67.8896C151.856 67.8998 151.789 67.91 151.723 67.9202L150.846 62.8916C153.253 62.4785 155.589 62.1929 158.021 62.0297C159.235 61.9532 160.459 61.892 161.729 61.9277C162.367 61.943 163.009 61.9787 163.693 62.0552C164.381 62.1419 165.075 62.2388 165.947 62.5448C166.385 62.7182 166.89 62.912 167.507 63.4628C167.803 63.728 168.14 64.1564 168.339 64.6715C168.461 65.003 168.446 65.0183 168.482 65.1509L168.553 65.4875C168.711 66.3698 168.675 67.1654 168.578 67.8998Z" fill="white"/>
<path opacity="0.1" d="M161.601 66.8034C160.571 66.8391 159.505 66.9105 158.429 67.0176C156.277 67.242 154.064 67.548 151.927 67.8897C152.707 65.9721 153.508 64.0341 153.508 64.0341C153.508 64.0341 157.078 64.3758 161.601 66.8034Z" fill="black"/>
<path opacity="0.1" d="M167.685 71.1588C167.604 71.3679 167.517 71.577 167.43 71.781C166.374 74.1168 165.099 76.1466 163.554 78.0999L161.137 76.4883C162.106 74.5146 163.044 72.4083 163.646 70.3734C163.85 69.6747 164.018 68.9709 164.11 68.3181C165.288 69.1086 166.492 70.047 167.685 71.1588Z" fill="black"/>
<path d="M135.09 66.4984C135.229 66.6748 135.249 66.8916 135.133 66.9824C135.018 67.0736 134.811 67.0043 134.672 66.8278C134.533 66.6514 134.514 66.4346 134.629 66.3438C134.744 66.2531 134.951 66.3219 135.09 66.4984Z" fill="#263238"/>
<path d="M135.266 66.8788C135.266 66.8788 135.668 68.213 135.614 69.0525C136.157 69.0973 136.581 68.545 136.581 68.545L135.266 66.8788Z" fill="#DE5753"/>
<path d="M134.963 65.0092C134.983 64.9847 134.995 64.9526 134.994 64.9179C134.991 64.845 134.929 64.7889 134.856 64.7919C134.127 64.8241 133.812 65.3448 133.798 65.3677C133.761 65.4304 133.781 65.5115 133.844 65.5483C133.907 65.585 133.988 65.5636 134.025 65.5024C134.035 65.485 134.286 65.0816 134.868 65.0556C134.906 65.0541 134.94 65.0362 134.963 65.0092Z" fill="#263238"/>
<path d="M140.17 63.7699C141.855 64.9842 145.082 66.9059 146.913 66.1776C146.913 66.1776 148.558 67.5475 146.977 70.9884C145.239 74.7721 144.268 71.9335 144.268 71.9335C144.724 69.642 143.168 68.9908 141.563 68.6894L140.17 63.7699Z" fill="#E4897B"/>
<path d="M140.676 61.479C142.254 63.7495 143.292 64.9985 143.077 66.9737C142.752 69.9455 139.296 71.0649 137.071 69.3115C135.069 67.7331 132.826 64.285 134.264 61.7487C135.682 59.2503 139.098 59.2079 140.676 61.479Z" fill="#E4897B"/>
<path d="M143.211 65.2264C142.974 66.5132 138.643 68.2737 136.678 65.4993C136.678 65.4993 134.211 65.4794 132.728 63.9927C131.244 62.5061 131.562 60.8935 132.892 60.0163C134.064 59.2431 137.093 53.5474 140.621 57.6121C144.451 57.4561 143.506 63.6204 143.211 65.2264Z" fill="#263238"/>
<path d="M135.894 59.4033C135.894 59.4033 133.619 59.2931 132.308 60.3355C130.997 61.378 131.366 64.5757 131.871 65.1795C132.375 65.7828 132.913 65.7828 132.913 65.7828C132.913 65.7828 132.14 65.382 132.14 64.7919C132.14 64.7919 132.476 65.5809 134.023 65.7828C134.023 65.7828 133.582 65.4304 133.651 64.9847C133.651 64.9847 134.489 66.0695 136.425 64.9847C138.36 63.8999 135.894 59.4033 135.894 59.4033Z" fill="#263238"/>
<path d="M137.829 65.0214C138.247 65.613 138.41 66.3535 138.373 66.9533C138.317 67.855 137.562 67.9259 136.968 67.3572C136.434 66.8452 135.82 65.7589 136.168 65.0066C136.513 64.2656 137.351 64.3451 137.829 65.0214Z" fill="#E4897B"/>
<path d="M142.357 72.5587C142.357 72.5587 141.933 67.424 145.286 64.5405L149.278 64.9061C149.278 64.9061 146.978 70.5207 142.357 72.5587Z" fill="#F27B01"/>
<path opacity="0.6" d="M142.357 72.5587C142.357 72.5587 141.933 67.424 145.286 64.5405L149.278 64.9061C149.278 64.9061 146.978 70.5207 142.357 72.5587Z" fill="white"/>
<path d="M153.868 84.1076C153.868 84.1076 147.83 78.1794 141.155 74.0295C141.155 74.0295 145.602 63.5919 151.231 62.6601C151.231 62.6601 165.783 67.0548 170.005 78.9643L153.868 84.1076Z" fill="#F27B01"/>
<path d="M154.635 120.27L152.029 121.375L149.21 115.452L151.815 114.347L154.635 120.27Z" fill="#E4897B"/>
<path d="M170.005 78.9643L168.468 95.267C167.624 95.8922 166.278 96.3782 164.653 96.7572C161.472 97.4977 157.228 97.8338 153.563 98.0301C149.446 98.2545 146.065 98.2974 145.76 98.534C145.044 99.0909 154.108 117.812 154.108 117.812L149.782 118.351C149.782 118.351 138.412 102.757 136.94 97.3396C136.398 95.3399 135.852 92.8353 139.524 90.4949C142.756 88.4345 154.793 86.8882 154.793 86.8882L153.867 84.1071L170.005 78.9643Z" fill="#263238"/>
<path opacity="0.2" d="M164.654 96.7572C161.473 97.4977 157.229 97.8338 153.564 98.0302C153.068 92.0142 156.095 86.2415 156.095 86.2415L160.4 85.1368L164.654 96.7572Z" fill="black"/>
<path d="M192.573 117.869L193.034 120.661L186.613 122.006L186.152 119.214L192.573 117.869Z" fill="#E4897B"/>
<path d="M193.171 120.763C193.152 120.743 193.122 120.736 193.096 120.747C193.07 120.758 193.054 120.783 193.055 120.811C193.056 120.86 193.095 121.998 193.451 122.331C193.524 122.399 193.607 122.433 193.696 122.43C193.855 122.424 193.921 122.346 193.948 122.281C194.025 122.095 193.884 121.77 193.694 121.461C193.516 121.173 193.296 120.898 193.171 120.763ZM193.2 121.001C193.539 121.41 193.911 122.021 193.824 122.229C193.813 122.256 193.787 122.292 193.691 122.296C193.638 122.297 193.589 122.277 193.542 122.233C193.513 122.206 193.486 122.171 193.461 122.131C193.288 121.849 193.223 121.295 193.2 121.001Z" fill="#F27B01"/>
<path d="M193.147 120.747C193.125 120.738 193.1 120.741 193.081 120.755C193.055 120.775 192.446 121.24 192.383 121.701C192.364 121.842 192.396 121.968 192.48 122.078C192.593 122.225 192.7 122.221 192.771 122.192C193.07 122.068 193.237 121.171 193.188 120.8C193.186 120.79 193.183 120.782 193.179 120.774C193.171 120.762 193.16 120.753 193.147 120.747ZM192.516 121.72C192.557 121.417 192.893 121.091 193.063 120.944C193.068 121.35 192.899 121.994 192.719 122.068C192.704 122.075 192.66 122.093 192.587 121.997C192.578 121.986 192.571 121.975 192.564 121.963C192.519 121.891 192.504 121.811 192.516 121.72Z" fill="#F27B01"/>
<path d="M192.685 120.725L191.064 118.094C191.003 117.995 191.019 117.868 191.102 117.787L192.951 115.992C193.143 115.806 193.457 115.845 193.593 116.074C194.162 117.034 194.951 118.44 195.686 119.633C196.545 121.028 197.363 122.186 198.371 123.822C198.98 124.811 198.149 125.702 197.804 125.343C196.23 123.712 195.238 122.2 193.231 121.19C193.012 121.08 192.813 120.933 192.685 120.725Z" fill="#263238"/>
<path d="M170.005 78.9643C170.005 78.9643 175.189 92.2916 166.443 97.463C166.443 97.463 166.332 112.862 168.542 114.667C171.233 116.863 190.936 117.981 190.936 117.981L190.765 122.874C190.765 122.874 169.671 124.6 163.285 122.309C155.807 119.626 154.142 84.3392 154.142 84.3392L170.005 78.9643Z" fill="#263238"/>
<path opacity="0.2" d="M164.012 87.1457L167.16 86.1931C167.16 86.1931 167.593 88.9022 167.587 90.3521L166.127 91.6062L164.746 91.1661C164.746 91.1661 164.368 88.2703 164.012 87.1457Z" fill="black"/>
<path d="M154.906 84.1183L155.314 85.4137L154.149 85.7748L153.739 84.4906L154.906 84.1183Z" fill="#263238"/>
<path d="M160.279 82.3946L160.718 83.7384L155.896 85.2332L155.47 83.9358L160.279 82.3946Z" fill="#263238"/>
<path d="M166.281 80.4714L166.718 81.8774L161.328 83.5472L160.9 82.1957L166.281 80.4714Z" fill="#263238"/>
<path d="M170.666 80.6514L167.346 81.6806L167.343 81.6811L166.897 80.2725L170.193 79.2162L170.666 80.6514Z" fill="#263238"/>
<g opacity="0.2">
<path d="M154.906 84.1183L155.314 85.4137L154.149 85.7748L153.739 84.4906L154.906 84.1183Z" fill="white"/>
<path d="M160.279 82.3946L160.718 83.7384L155.896 85.2332L155.47 83.9358L160.279 82.3946Z" fill="white"/>
<path d="M166.281 80.4714L166.718 81.8774L161.328 83.5472L160.9 82.1957L166.281 80.4714Z" fill="white"/>
<path d="M170.666 80.6514L167.346 81.6806L167.343 81.6811L166.897 80.2725L170.193 79.2162L170.666 80.6514Z" fill="white"/>
</g>
<path d="M151.23 120.548C151.257 120.542 151.278 120.519 151.282 120.492C151.286 120.464 151.272 120.437 151.247 120.423C151.205 120.4 150.203 119.86 149.735 119.999C149.639 120.028 149.569 120.083 149.526 120.161C149.45 120.301 149.485 120.398 149.528 120.454C149.649 120.614 150.001 120.656 150.364 120.648C150.703 120.64 151.051 120.588 151.23 120.548ZM151.01 120.454C150.486 120.541 149.771 120.553 149.635 120.374C149.617 120.35 149.599 120.309 149.645 120.225C149.67 120.178 149.712 120.147 149.774 120.128C149.812 120.117 149.856 120.111 149.903 120.11C150.233 120.102 150.745 120.325 151.01 120.454Z" fill="#F27B01"/>
<path d="M151.256 120.536C151.275 120.522 151.285 120.498 151.282 120.475C151.278 120.443 151.184 119.682 150.817 119.395C150.705 119.307 150.58 119.272 150.443 119.289C150.259 119.312 150.208 119.407 150.197 119.482C150.153 119.804 150.844 120.399 151.189 120.545C151.198 120.548 151.208 120.55 151.217 120.55C151.231 120.549 151.244 120.545 151.256 120.536ZM150.734 119.501C150.976 119.689 151.087 120.143 151.129 120.364C150.775 120.163 150.304 119.693 150.331 119.5C150.333 119.484 150.34 119.437 150.46 119.422C150.473 119.42 150.487 119.419 150.5 119.419C150.584 119.417 150.662 119.444 150.734 119.501Z" fill="#F27B01"/>
<path d="M151.508 120.148L154.597 120.075C154.713 120.072 154.815 120.15 154.843 120.263L155.461 122.764C155.525 123.023 155.333 123.275 155.066 123.277C153.951 123.285 152.339 123.257 150.938 123.29C149.3 123.329 147.887 123.452 145.967 123.497C144.805 123.525 144.455 122.358 144.938 122.24C147.141 121.704 148.946 121.609 150.831 120.384C151.036 120.251 151.264 120.153 151.508 120.148Z" fill="#263238"/>
<path opacity="0.7" d="M170.006 78.9669L153.87 84.1077C153.87 84.1077 151.024 81.318 147.081 78.2223C146.332 77.6358 145.546 77.0391 144.73 76.4475C143.583 75.6111 142.379 74.79 141.155 74.0301C141.155 74.0301 145.602 63.5904 151.233 62.6622C151.233 62.6622 165.783 67.0533 170.006 78.9669Z" fill="white"/>
<path opacity="0.1" d="M147.082 78.2223C146.332 77.6358 145.546 77.0391 144.73 76.4475L145.047 75.4938C145.047 75.4938 146.403 76.6362 147.082 78.2223Z" fill="black"/>
<path d="M123.766 88.8711L122.653 89.1362C122.376 89.2025 122.165 89.429 122.12 89.7105L121.869 91.2594C121.816 91.5863 121.997 91.9061 122.304 92.029L123.117 92.3533C123.117 92.3533 125.464 94.0465 127.448 92.9531L126.591 90.6831L124.913 89.1648C124.603 88.8838 124.173 88.7742 123.766 88.8711Z" fill="#E4897B"/>
<path d="M144.018 74.4416C145.444 75.2974 145.568 77.062 145.568 77.062C145.568 77.062 144.448 80.1021 143.798 81.6148C143.356 82.6414 142.897 83.6716 142.364 84.6962C141.813 85.7295 141.283 86.7423 140.383 87.8613L140.207 88.0729L139.998 88.2978C139.872 88.4396 139.685 88.6084 139.504 88.765C139.427 88.8374 139.286 88.9363 139.167 89.0195C139.051 89.099 138.89 89.2061 138.843 89.224L138.411 89.4479C137.85 89.7309 137.324 89.9517 136.796 90.169C135.748 90.5984 134.711 90.9717 133.671 91.3293C131.584 92.0274 129.507 92.6655 127.376 93.2025L126.364 90.475C128.276 89.4953 130.225 88.5676 132.127 87.6114C133.08 87.1391 134.029 86.6638 134.939 86.1844C135.388 85.9421 135.835 85.6943 136.222 85.4597L136.496 85.2863C136.57 85.2439 136.513 85.2638 136.508 85.2669C136.497 85.2684 136.473 85.298 136.49 85.273C136.506 85.2455 136.522 85.2368 136.569 85.17L136.63 85.0935L136.703 84.9859C137.116 84.3861 137.584 83.4686 137.987 82.569C138.392 81.6484 138.796 80.6988 139.168 79.7252C139.909 77.7862 140.62 75.7641 141.283 73.8051C141.282 73.8057 142.505 73.5338 144.018 74.4416Z" fill="#F27B01"/>
<path opacity="0.7" d="M144.018 74.4416C145.444 75.2974 145.568 77.062 145.568 77.062C145.568 77.062 144.448 80.1021 143.798 81.6148C143.356 82.6414 142.897 83.6716 142.364 84.6962C141.813 85.7295 141.283 86.7423 140.383 87.8613L140.207 88.0729L139.998 88.2978C139.872 88.4396 139.685 88.6084 139.504 88.765C139.427 88.8374 139.286 88.9363 139.167 89.0195C139.051 89.099 138.89 89.2061 138.843 89.224L138.411 89.4479C137.85 89.7309 137.324 89.9517 136.796 90.169C135.748 90.5984 134.711 90.9717 133.671 91.3293C131.584 92.0274 129.507 92.6655 127.376 93.2025L126.364 90.475C128.276 89.4953 130.225 88.5676 132.127 87.6114C133.08 87.1391 134.029 86.6638 134.939 86.1844C135.388 85.9421 135.835 85.6943 136.222 85.4597L136.496 85.2863C136.57 85.2439 136.513 85.2638 136.508 85.2669C136.497 85.2684 136.473 85.298 136.49 85.273C136.506 85.2455 136.522 85.2368 136.569 85.17L136.63 85.0935L136.703 84.9859C137.116 84.3861 137.584 83.4686 137.987 82.569C138.392 81.6484 138.796 80.6988 139.168 79.7252C139.909 77.7862 140.62 75.7641 141.283 73.8051C141.282 73.8057 142.505 73.5338 144.018 74.4416Z" fill="white"/>
<path d="M50.748 209.771H136.878L182.461 172.951L184.459 175.425H195.686L207.124 122.777L195.892 122.8L195.897 122.777L142.021 122.885L148.453 130.847L50.748 209.771Z" fill="#F27B01"/>
<path opacity="0.2" d="M50.748 209.771H125.652L178.028 167.463L184.459 175.425L195.897 122.777L142.021 122.885L148.453 130.847L50.748 209.771Z" fill="white"/>
<path d="M48.995 206.733H110.837C110.808 206.471 110.791 206.205 110.791 205.936C110.791 201.965 114.01 198.746 117.98 198.746C118.068 198.746 118.154 198.757 118.242 198.76C119.143 196.342 121.465 194.617 124.197 194.617C127.71 194.617 130.558 197.464 130.558 200.977C130.558 200.982 130.557 200.987 130.557 200.992C133.672 201.137 136.167 203.622 136.329 206.733H136.619C138.377 206.733 139.815 208.171 139.815 209.929C139.815 211.687 138.377 213.125 136.619 213.125H48.995C47.237 213.125 45.7988 211.687 45.7988 209.929C45.7988 208.171 47.237 206.733 48.995 206.733Z" fill="#F27B01"/>
<path opacity="0.7" d="M48.995 206.733H110.837C110.808 206.471 110.791 206.205 110.791 205.936C110.791 201.965 114.01 198.746 117.98 198.746C118.068 198.746 118.154 198.757 118.242 198.76C119.143 196.342 121.465 194.617 124.197 194.617C127.71 194.617 130.558 197.464 130.558 200.977C130.558 200.982 130.557 200.987 130.557 200.992C133.672 201.137 136.167 203.622 136.329 206.733H136.619C138.377 206.733 139.815 208.171 139.815 209.929C139.815 211.687 138.377 213.125 136.619 213.125H48.995C47.237 213.125 45.7988 211.687 45.7988 209.929C45.7988 208.171 47.237 206.733 48.995 206.733Z" fill="white"/>
</svg>
